<?xml version="1.0" encoding="UTF-8" standalone="no"?>
<!DOCTYPE svg PUBLIC "-//W3C//DTD SVG 1.1//EN"
 "http://www.w3.org/Graphics/SVG/1.1/DTD/svg11.dtd">
<!-- Generated by graphviz version 2.43.0 (0)
 -->
<!-- Title: /app/doc_state/github_reposRepoArchDocGenContext/EliasSchaffer/MyBookShelf/src/main/java/com/example/mybookshelf/apis/AiAPI.java Pages: 1 -->
<!--zoomable 137 -->

<svg id="main" version="1.1" xmlns="http://www.w3.org/2000/svg" xmlns:xlink="http://www.w3.org/1999/xlink" xml:space="preserve" onload="init(evt)">

<style type="text/css"><![CDATA[
.node, .edge {opacity: 0.7;}
.node.selected, .edge.selected {opacity: 1;}
.edge:hover path { stroke: red; }
.edge:hover polygon { stroke: red; fill: red; }
]]></style>

<defs>
  <circle id="rim" cx="0" cy="0" r="7"/>
  <circle id="rim2" cx="0" cy="0" r="3.5"/>
  <g id="zoomPlus">
    <use xlink:href="#rim" fill="#404040"><set attributeName="fill" to="#808080" begin="zoomplus.mouseover" end="zoomplus.mouseout"/></use>
    <path d="M-4,0h8M0,-4v8" fill="none" stroke="white" stroke-width="1.5" pointer-events="none"/>
  </g>
  <g id="zoomMin">
    <use xlink:href="#rim" fill="#404040"><set attributeName="fill" to="#808080" begin="zoomminus.mouseover" end="zoomminus.mouseout"/></use>
    <path d="M-4,0h8" fill="none" stroke="white" stroke-width="1.5" pointer-events="none"/>
  </g>
  <g id="arrowUp" transform="translate(30 24)">
    <use xlink:href="#rim"/>
    <path pointer-events="none" fill="none" stroke="white" stroke-width="1.5" d="M0,-3.0v7 M-2.5,-0.5L0,-3.0L2.5,-0.5"/>
  </g>
  <g id="arrowRight" transform="rotate(90) translate(36 -43)">
    <use xlink:href="#rim"/>
    <path pointer-events="none" fill="none" stroke="white" stroke-width="1.5" d="M0,-3.0v7 M-2.5,-0.5L0,-3.0L2.5,-0.5"/>
  </g>
  <g id="arrowDown" transform="rotate(180) translate(-30 -48)">
    <use xlink:href="#rim"/>
    <path pointer-events="none" fill="none" stroke="white" stroke-width="1.5" d="M0,-3.0v7 M-2.5,-0.5L0,-3.0L2.5,-0.5"/>
  </g>
  <g id="arrowLeft" transform="rotate(270) translate(-36 17)">
    <use xlink:href="#rim"/>
    <path pointer-events="none" fill="none" stroke="white" stroke-width="1.5" d="M0,-3.0v7 M-2.5,-0.5L0,-3.0L2.5,-0.5"/>
  </g>
  <g id="resetDef">
    <use xlink:href="#rim2" fill="#404040"><set attributeName="fill" to="#808080" begin="reset.mouseover" end="reset.mouseout"/></use>
  </g>
</defs>
<script type="application/ecmascript">
var viewWidth = 1936;
var viewHeight = 137;
var sectionId = 'dynsection-0';
</script>
<script type="application/ecmascript" xlink:href="svg.min.js"/>
<svg id="graph" class="graph">
<g id="viewport">
<title>/app/doc_state/github_reposRepoArchDocGenContext/EliasSchaffer/MyBookShelf/src/main/java/com/example/mybookshelf/apis/AiAPI.java</title>
<!-- Node1 -->
<g id="Node000001" class="node">
<title>Node1</title>
<g id="a_Node000001"><a xlink:title=" ">
<polygon fill="#999999" stroke="#666666" points="997,-129 825,-129 825,-66 997,-66 997,-129"/>
<text text-anchor="start" x="833" y="-117" font-family="Helvetica,sans-Serif" font-size="10.00">/app/doc_state/github</text>
<text text-anchor="start" x="833" y="-106" font-family="Helvetica,sans-Serif" font-size="10.00">_reposRepoArchDocGenContext</text>
<text text-anchor="start" x="833" y="-95" font-family="Helvetica,sans-Serif" font-size="10.00">/EliasSchaffer/MyBookShelf</text>
<text text-anchor="start" x="833" y="-84" font-family="Helvetica,sans-Serif" font-size="10.00">/src/main/java/com/example</text>
<text text-anchor="middle" x="911" y="-73" font-family="Helvetica,sans-Serif" font-size="10.00">/mybookshelf/apis/AiAPI.java</text>
</a>
</g>
</g>
<!-- Node2 -->
<g id="Node000002" class="node">
<title>Node2</title>
<g id="a_Node000002"><a xlink:title=" ">
<polygon fill="#e0e0e0" stroke="#999999" points="152,-30 0,-30 0,0 152,0 152,-30"/>
<text text-anchor="start" x="8" y="-18" font-family="Helvetica,sans-Serif" font-size="10.00">com.example.mybookshelf.</text>
<text text-anchor="middle" x="76" y="-7" font-family="Helvetica,sans-Serif" font-size="10.00">ApiResponseCallback</text>
</a>
</g>
</g>
<!-- Node1&#45;&gt;Node2 -->
<g id="edge1_Node000001_Node000002" class="edge">
<title>Node1&#45;&gt;Node2</title>
<g id="a_edge1_Node000001_Node000002"><a xlink:title=" ">
<path fill="none" stroke="#63b8ff" d="M824.73,-90.96C686.89,-81.64 408.34,-60.89 162.62,-30.15"/>
<polygon fill="#63b8ff" stroke="#63b8ff" points="162.78,-26.64 152.42,-28.86 161.9,-33.58 162.78,-26.64"/>
</a>
</g>
</g>
<!-- Node3 -->
<g id="Node000003" class="node">
<title>Node3</title>
<g id="a_Node000003"><a xlink:title=" ">
<polygon fill="#e0e0e0" stroke="#999999" points="232,-24.5 170,-24.5 170,-5.5 232,-5.5 232,-24.5"/>
<text text-anchor="middle" x="201" y="-12.5" font-family="Helvetica,sans-Serif" font-size="10.00">okhttp3.*</text>
</a>
</g>
</g>
<!-- Node1&#45;&gt;Node3 -->
<g id="edge2_Node000001_Node000003" class="edge">
<title>Node1&#45;&gt;Node3</title>
<g id="a_edge2_Node000001_Node000003"><a xlink:title=" ">
<path fill="none" stroke="#63b8ff" d="M824.83,-94.47C696.28,-89.99 447.29,-75.65 241,-30 238.01,-29.34 234.93,-28.52 231.87,-27.62"/>
<polygon fill="#63b8ff" stroke="#63b8ff" points="232.91,-24.27 222.32,-24.51 230.75,-30.93 232.91,-24.27"/>
</a>
</g>
</g>
<!-- Node4 -->
<g id="Node000004" class="node">
<title>Node4</title>
<g id="a_Node000004"><a xlink:title=" ">
<polygon fill="#e0e0e0" stroke="#999999" points="405.5,-30 250.5,-30 250.5,0 405.5,0 405.5,-30"/>
<text text-anchor="start" x="258.5" y="-18" font-family="Helvetica,sans-Serif" font-size="10.00">okhttp3.logging.HttpLogging</text>
<text text-anchor="middle" x="328" y="-7" font-family="Helvetica,sans-Serif" font-size="10.00">Interceptor</text>
</a>
</g>
</g>
<!-- Node1&#45;&gt;Node4 -->
<g id="edge3_Node000001_Node000004" class="edge">
<title>Node1&#45;&gt;Node4</title>
<g id="a_edge3_Node000001_Node000004"><a xlink:title=" ">
<path fill="none" stroke="#63b8ff" d="M824.7,-85.71C727.72,-73.41 565.31,-52.3 416.07,-30.29"/>
<polygon fill="#63b8ff" stroke="#63b8ff" points="416.2,-26.77 405.8,-28.77 415.18,-33.69 416.2,-26.77"/>
</a>
</g>
</g>
<!-- Node5 -->
<g id="Node000005" class="node">
<title>Node5</title>
<g id="a_Node000005"><a xlink:title=" ">
<polygon fill="#e0e0e0" stroke="#999999" points="532.5,-24.5 423.5,-24.5 423.5,-5.5 532.5,-5.5 532.5,-24.5"/>
<text text-anchor="middle" x="478" y="-12.5" font-family="Helvetica,sans-Serif" font-size="10.00">org.json.JSONArray</text>
</a>
</g>
</g>
<!-- Node1&#45;&gt;Node5 -->
<g id="edge4_Node000001_Node000005" class="edge">
<title>Node1&#45;&gt;Node5</title>
<g id="a_edge4_Node000001_Node000005"><a xlink:title=" ">
<path fill="none" stroke="#63b8ff" d="M824.71,-81.88C749.82,-68.97 638.55,-49.25 542,-30 536.7,-28.94 531.17,-27.8 525.66,-26.63"/>
<polygon fill="#63b8ff" stroke="#63b8ff" points="526.37,-23.2 515.85,-24.52 524.9,-30.05 526.37,-23.2"/>
</a>
</g>
</g>
<!-- Node6 -->
<g id="Node000006" class="node">
<title>Node6</title>
<g id="a_Node000006"><a xlink:title=" ">
<polygon fill="#e0e0e0" stroke="#999999" points="665,-24.5 551,-24.5 551,-5.5 665,-5.5 665,-24.5"/>
<text text-anchor="middle" x="608" y="-12.5" font-family="Helvetica,sans-Serif" font-size="10.00">org.json.JSONObject</text>
</a>
</g>
</g>
<!-- Node1&#45;&gt;Node6 -->
<g id="edge5_Node000001_Node000006" class="edge">
<title>Node1&#45;&gt;Node6</title>
<g id="a_edge5_Node000001_Node000006"><a xlink:title=" ">
<path fill="none" stroke="#63b8ff" d="M824.98,-73.65C767.73,-58.44 695.02,-39.12 650,-27.16"/>
<polygon fill="#63b8ff" stroke="#63b8ff" points="650.85,-23.76 640.28,-24.58 649.05,-30.53 650.85,-23.76"/>
</a>
</g>
</g>
<!-- Node7 -->
<g id="Node000007" class="node">
<title>Node7</title>
<g id="a_Node000007"><a xlink:title=" ">
<polygon fill="#e0e0e0" stroke="#999999" points="747,-24.5 683,-24.5 683,-5.5 747,-5.5 747,-24.5"/>
<text text-anchor="middle" x="715" y="-12.5" font-family="Helvetica,sans-Serif" font-size="10.00">retrofit2.*</text>
</a>
</g>
</g>
<!-- Node1&#45;&gt;Node7 -->
<g id="edge6_Node000001_Node000007" class="edge">
<title>Node1&#45;&gt;Node7</title>
<g id="a_edge6_Node000001_Node000007"><a xlink:title=" ">
<path fill="none" stroke="#63b8ff" d="M836.62,-65.95C804.83,-52.89 769.51,-38.39 745.16,-28.39"/>
<polygon fill="#63b8ff" stroke="#63b8ff" points="746.34,-25.09 735.76,-24.53 743.68,-31.56 746.34,-25.09"/>
</a>
</g>
</g>
<!-- Node8 -->
<g id="Node000008" class="node">
<title>Node8</title>
<g id="a_Node000008"><a xlink:title=" ">
<polygon fill="#e0e0e0" stroke="#999999" points="842.5,-24.5 765.5,-24.5 765.5,-5.5 842.5,-5.5 842.5,-24.5"/>
<text text-anchor="middle" x="804" y="-12.5" font-family="Helvetica,sans-Serif" font-size="10.00">retrofit2.Call</text>
</a>
</g>
</g>
<!-- Node1&#45;&gt;Node8 -->
<g id="edge7_Node000001_Node000008" class="edge">
<title>Node1&#45;&gt;Node8</title>
<g id="a_edge7_Node000001_Node000008"><a xlink:title=" ">
<path fill="none" stroke="#63b8ff" d="M870.24,-65.84C854.31,-53.85 836.78,-40.66 823.76,-30.86"/>
<polygon fill="#63b8ff" stroke="#63b8ff" points="825.63,-27.89 815.54,-24.68 821.42,-33.49 825.63,-27.89"/>
</a>
</g>
</g>
<!-- Node9 -->
<g id="Node000009" class="node">
<title>Node9</title>
<g id="a_Node000009"><a xlink:title=" ">
<polygon fill="#e0e0e0" stroke="#999999" points="961.5,-24.5 860.5,-24.5 860.5,-5.5 961.5,-5.5 961.5,-24.5"/>
<text text-anchor="middle" x="911" y="-12.5" font-family="Helvetica,sans-Serif" font-size="10.00">retrofit2.Callback</text>
</a>
</g>
</g>
<!-- Node1&#45;&gt;Node9 -->
<g id="edge8_Node000001_Node000009" class="edge">
<title>Node1&#45;&gt;Node9</title>
<g id="a_edge8_Node000001_Node000009"><a xlink:title=" ">
<path fill="none" stroke="#63b8ff" d="M911,-65.61C911,-55.26 911,-44.03 911,-34.88"/>
<polygon fill="#63b8ff" stroke="#63b8ff" points="914.5,-34.62 911,-24.62 907.5,-34.62 914.5,-34.62"/>
</a>
</g>
</g>
<!-- Node10 -->
<g id="Node000010" class="node">
<title>Node10</title>
<g id="a_Node000010"><a xlink:title=" ">
<polygon fill="#e0e0e0" stroke="#999999" points="1086,-24.5 980,-24.5 980,-5.5 1086,-5.5 1086,-24.5"/>
<text text-anchor="middle" x="1033" y="-12.5" font-family="Helvetica,sans-Serif" font-size="10.00">retrofit2.Response</text>
</a>
</g>
</g>
<!-- Node1&#45;&gt;Node10 -->
<g id="edge9_Node000001_Node000010" class="edge">
<title>Node1&#45;&gt;Node10</title>
<g id="a_edge9_Node000001_Node000010"><a xlink:title=" ">
<path fill="none" stroke="#63b8ff" d="M957.47,-65.84C976.1,-53.55 996.64,-39.99 1011.59,-30.12"/>
<polygon fill="#63b8ff" stroke="#63b8ff" points="1013.7,-32.93 1020.12,-24.5 1009.84,-27.09 1013.7,-32.93"/>
</a>
</g>
</g>
<!-- Node11 -->
<g id="Node000011" class="node">
<title>Node11</title>
<g id="a_Node000011"><a xlink:title=" ">
<polygon fill="#e0e0e0" stroke="#999999" points="1238,-30 1104,-30 1104,0 1238,0 1238,-30"/>
<text text-anchor="start" x="1112" y="-18" font-family="Helvetica,sans-Serif" font-size="10.00">retrofit2.converter.gson.</text>
<text text-anchor="middle" x="1171" y="-7" font-family="Helvetica,sans-Serif" font-size="10.00">GsonConverterFactory</text>
</a>
</g>
</g>
<!-- Node1&#45;&gt;Node11 -->
<g id="edge10_Node000001_Node000011" class="edge">
<title>Node1&#45;&gt;Node11</title>
<g id="a_edge10_Node000001_Node000011"><a xlink:title=" ">
<path fill="none" stroke="#63b8ff" d="M997.22,-69.81C1036.23,-57.73 1081.21,-43.8 1115.63,-33.14"/>
<polygon fill="#63b8ff" stroke="#63b8ff" points="1116.98,-36.39 1125.49,-30.09 1114.91,-29.7 1116.98,-36.39"/>
</a>
</g>
</g>
<!-- Node12 -->
<g id="Node000012" class="node">
<title>Node12</title>
<g id="a_Node000012"><a xlink:title=" ">
<polygon fill="#e0e0e0" stroke="#999999" points="1362,-24.5 1256,-24.5 1256,-5.5 1362,-5.5 1362,-24.5"/>
<text text-anchor="middle" x="1309" y="-12.5" font-family="Helvetica,sans-Serif" font-size="10.00">retrofit2.http.Body</text>
</a>
</g>
</g>
<!-- Node1&#45;&gt;Node12 -->
<g id="edge11_Node000001_Node000012" class="edge">
<title>Node1&#45;&gt;Node12</title>
<g id="a_edge11_Node000001_Node000012"><a xlink:title=" ">
<path fill="none" stroke="#63b8ff" d="M997.1,-80.12C1065.06,-67.03 1162.21,-47.96 1247,-30 1251.93,-28.95 1257.08,-27.84 1262.21,-26.7"/>
<polygon fill="#63b8ff" stroke="#63b8ff" points="1262.99,-30.12 1271.99,-24.53 1261.47,-23.28 1262.99,-30.12"/>
</a>
</g>
</g>
<!-- Node13 -->
<g id="Node000013" class="node">
<title>Node13</title>
<g id="a_Node000013"><a xlink:title=" ">
<polygon fill="#e0e0e0" stroke="#999999" points="1496,-24.5 1380,-24.5 1380,-5.5 1496,-5.5 1496,-24.5"/>
<text text-anchor="middle" x="1438" y="-12.5" font-family="Helvetica,sans-Serif" font-size="10.00">retrofit2.http.Header</text>
</a>
</g>
</g>
<!-- Node1&#45;&gt;Node13 -->
<g id="edge12_Node000001_Node000013" class="edge">
<title>Node1&#45;&gt;Node13</title>
<g id="a_edge12_Node000001_Node000013"><a xlink:title=" ">
<path fill="none" stroke="#63b8ff" d="M997.31,-85.66C1089.94,-73.64 1241.28,-52.91 1371,-30 1376.85,-28.97 1382.96,-27.8 1389.02,-26.6"/>
<polygon fill="#63b8ff" stroke="#63b8ff" points="1390,-29.97 1399.11,-24.56 1388.61,-23.11 1390,-29.97"/>
</a>
</g>
</g>
<!-- Node14 -->
<g id="Node000014" class="node">
<title>Node14</title>
<g id="a_Node000014"><a xlink:title=" ">
<polygon fill="#e0e0e0" stroke="#999999" points="1621.5,-24.5 1514.5,-24.5 1514.5,-5.5 1621.5,-5.5 1621.5,-24.5"/>
<text text-anchor="middle" x="1568" y="-12.5" font-family="Helvetica,sans-Serif" font-size="10.00">retrofit2.http.POST</text>
</a>
</g>
</g>
<!-- Node1&#45;&gt;Node14 -->
<g id="edge13_Node000001_Node000014" class="edge">
<title>Node1&#45;&gt;Node14</title>
<g id="a_edge13_Node000001_Node000014"><a xlink:title=" ">
<path fill="none" stroke="#63b8ff" d="M997.47,-89.74C1113.46,-80.02 1325.62,-59.88 1505,-30 1510.81,-29.03 1516.88,-27.87 1522.87,-26.64"/>
<polygon fill="#63b8ff" stroke="#63b8ff" points="1523.76,-30.03 1532.81,-24.52 1522.3,-23.18 1523.76,-30.03"/>
</a>
</g>
</g>
<!-- Node15 -->
<g id="Node000015" class="node">
<title>Node15</title>
<g id="a_Node000015"><a xlink:title=" ">
<polygon fill="#e0e0e0" stroke="#999999" points="1798.5,-24.5 1639.5,-24.5 1639.5,-5.5 1798.5,-5.5 1798.5,-24.5"/>
<text text-anchor="middle" x="1719" y="-12.5" font-family="Helvetica,sans-Serif" font-size="10.00">java.util.concurrent.TimeUnit</text>
</a>
</g>
</g>
<!-- Node1&#45;&gt;Node15 -->
<g id="edge14_Node000001_Node000015" class="edge">
<title>Node1&#45;&gt;Node15</title>
<g id="a_edge14_Node000001_Node000015"><a xlink:title=" ">
<path fill="none" stroke="#63b8ff" d="M997.09,-90.39C1132.35,-80.37 1402.76,-58.66 1631,-30 1640.02,-28.87 1649.53,-27.52 1658.84,-26.11"/>
<polygon fill="#63b8ff" stroke="#63b8ff" points="1659.47,-29.55 1668.82,-24.57 1658.4,-22.63 1659.47,-29.55"/>
</a>
</g>
</g>
<!-- Node16 -->
<g id="Node000016" class="node">
<title>Node16</title>
<g id="a_Node000016"><a xlink:title=" ">
<polygon fill="#e0e0e0" stroke="#999999" points="1927.5,-24.5 1816.5,-24.5 1816.5,-5.5 1927.5,-5.5 1927.5,-24.5"/>
<text text-anchor="middle" x="1872" y="-12.5" font-family="Helvetica,sans-Serif" font-size="10.00">java.io.IOException</text>
</a>
</g>
</g>
<!-- Node1&#45;&gt;Node16 -->
<g id="edge15_Node000001_Node000016" class="edge">
<title>Node1&#45;&gt;Node16</title>
<g id="a_edge15_Node000001_Node000016"><a xlink:title=" ">
<path fill="none" stroke="#63b8ff" d="M997.09,-94.16C1157.41,-88.92 1512.28,-73.09 1808,-30 1814.28,-29.09 1820.86,-27.9 1827.31,-26.62"/>
<polygon fill="#63b8ff" stroke="#63b8ff" points="1828.22,-30 1837.29,-24.53 1826.78,-23.15 1828.22,-30"/>
</a>
</g>
</g>
</g>
</svg>

<g id="navigator" transform="translate(0 0)" fill="#404254">
  <rect fill="#f2f5e9" fill-opacity="0.5" stroke="#606060" stroke-width=".5" x="0" y="0" width="60" height="60"/>
  <use id="zoomplus" xlink:href="#zoomPlus" x="17" y="9" onmousedown="handleZoom(evt,'in')"/>
  <use id="zoomminus" xlink:href="#zoomMin" x="42" y="9" onmousedown="handleZoom(evt,'out')"/>
  <use id="reset" xlink:href="#resetDef" x="30" y="36" onmousedown="handleReset()"/>
   <use id="arrowup" xlink:href="#arrowUp" x="0" y="0" onmousedown="handlePan(0,-1)"/>
  <use id="arrowright" xlink:href="#arrowRight" x="0" y="0" onmousedown="handlePan(1,0)"/>
  <use id="arrowdown" xlink:href="#arrowDown" x="0" y="0" onmousedown="handlePan(0,1)"/>
  <use id="arrowleft" xlink:href="#arrowLeft" x="0" y="0" onmousedown="handlePan(-1,0)"/>
</g>
<svg viewBox="0 0 15 15" width="100%" height="30px" preserveAspectRatio="xMaxYMin meet">
 <g id="arrow_out" transform="scale(0.3 0.3)">
  <a xlink:href="AiAPI_8java__incl_org.svg" target="_base">
   <rect id="button" ry="5" rx="5" y="6" x="6" height="38" width="38"
        fill="#f2f5e9" fill-opacity="0.5" stroke="#606060" stroke-width="1.0"/>
   <path id="arrow"
     d="M 11.500037,31.436501 C 11.940474,20.09759 22.043105,11.32322 32.158766,21.979434 L 37.068811,17.246167 C 37.068811,17.246167 37.088388,32 37.088388,32 L 22.160133,31.978069 C 22.160133,31.978069 26.997745,27.140456 26.997745,27.140456 C 18.528582,18.264221 13.291696,25.230495 11.500037,31.436501 z"
     style="fill:#404040;"/>
  </a>
 </g>
</svg>

<style type='text/css'>
<![CDATA[
[data-mouse-over-selected='false'] { opacity: 0.7; }
[data-mouse-over-selected='true']  { opacity: 1.0; }
]]>
</style>
<script type="application/ecmascript"><![CDATA[
document.addEventListener('DOMContentLoaded', (event) => {
  highlightEdges();
  highlightAdjacentNodes();
});
]]></script>
</svg>
