<?xml version="1.0" encoding="UTF-8" standalone="no"?>
<!DOCTYPE svg PUBLIC "-//W3C//DTD SVG 1.1//EN"
 "http://www.w3.org/Graphics/SVG/1.1/DTD/svg11.dtd">
<!-- Generated by graphviz version 2.43.0 (0)
 -->
<!-- Title: /app/doc_state/github_reposRepoArchDocGenContext/EliasSchaffer/MyBookShelf/src/main/java/com/example/mybookshelf/Authenticator.java Pages: 1 -->
<!--zoomable 137 -->

<svg id="main" version="1.1" xmlns="http://www.w3.org/2000/svg" xmlns:xlink="http://www.w3.org/1999/xlink" xml:space="preserve" onload="init(evt)">

<style type="text/css"><![CDATA[
.node, .edge {opacity: 0.7;}
.node.selected, .edge.selected {opacity: 1;}
.edge:hover path { stroke: red; }
.edge:hover polygon { stroke: red; fill: red; }
]]></style>

<defs>
  <circle id="rim" cx="0" cy="0" r="7"/>
  <circle id="rim2" cx="0" cy="0" r="3.5"/>
  <g id="zoomPlus">
    <use xlink:href="#rim" fill="#404040"><set attributeName="fill" to="#808080" begin="zoomplus.mouseover" end="zoomplus.mouseout"/></use>
    <path d="M-4,0h8M0,-4v8" fill="none" stroke="white" stroke-width="1.5" pointer-events="none"/>
  </g>
  <g id="zoomMin">
    <use xlink:href="#rim" fill="#404040"><set attributeName="fill" to="#808080" begin="zoomminus.mouseover" end="zoomminus.mouseout"/></use>
    <path d="M-4,0h8" fill="none" stroke="white" stroke-width="1.5" pointer-events="none"/>
  </g>
  <g id="arrowUp" transform="translate(30 24)">
    <use xlink:href="#rim"/>
    <path pointer-events="none" fill="none" stroke="white" stroke-width="1.5" d="M0,-3.0v7 M-2.5,-0.5L0,-3.0L2.5,-0.5"/>
  </g>
  <g id="arrowRight" transform="rotate(90) translate(36 -43)">
    <use xlink:href="#rim"/>
    <path pointer-events="none" fill="none" stroke="white" stroke-width="1.5" d="M0,-3.0v7 M-2.5,-0.5L0,-3.0L2.5,-0.5"/>
  </g>
  <g id="arrowDown" transform="rotate(180) translate(-30 -48)">
    <use xlink:href="#rim"/>
    <path pointer-events="none" fill="none" stroke="white" stroke-width="1.5" d="M0,-3.0v7 M-2.5,-0.5L0,-3.0L2.5,-0.5"/>
  </g>
  <g id="arrowLeft" transform="rotate(270) translate(-36 17)">
    <use xlink:href="#rim"/>
    <path pointer-events="none" fill="none" stroke="white" stroke-width="1.5" d="M0,-3.0v7 M-2.5,-0.5L0,-3.0L2.5,-0.5"/>
  </g>
  <g id="resetDef">
    <use xlink:href="#rim2" fill="#404040"><set attributeName="fill" to="#808080" begin="reset.mouseover" end="reset.mouseout"/></use>
  </g>
</defs>
<script type="application/ecmascript">
var viewWidth = 2850;
var viewHeight = 137;
var sectionId = 'dynsection-0';
</script>
<script type="application/ecmascript" xlink:href="svg.min.js"/>
<svg id="graph" class="graph">
<g id="viewport">
<title>/app/doc_state/github_reposRepoArchDocGenContext/EliasSchaffer/MyBookShelf/src/main/java/com/example/mybookshelf/Authenticator.java</title>
<!-- Node1 -->
<g id="Node000001" class="node">
<title>Node1</title>
<g id="a_Node000001"><a xlink:title=" ">
<polygon fill="#999999" stroke="#666666" points="1473,-129 1297,-129 1297,-66 1473,-66 1473,-129"/>
<text text-anchor="start" x="1305" y="-117" font-family="Helvetica,sans-Serif" font-size="10.00">/app/doc_state/github</text>
<text text-anchor="start" x="1305" y="-106" font-family="Helvetica,sans-Serif" font-size="10.00">_reposRepoArchDocGenContext</text>
<text text-anchor="start" x="1305" y="-95" font-family="Helvetica,sans-Serif" font-size="10.00">/EliasSchaffer/MyBookShelf</text>
<text text-anchor="start" x="1305" y="-84" font-family="Helvetica,sans-Serif" font-size="10.00">/src/main/java/com/example</text>
<text text-anchor="middle" x="1385" y="-73" font-family="Helvetica,sans-Serif" font-size="10.00">/mybookshelf/Authenticator.java</text>
</a>
</g>
</g>
<!-- Node2 -->
<g id="Node000002" class="node">
<title>Node2</title>
<g id="a_Node000002"><a xlink:title=" ">
<polygon fill="#e0e0e0" stroke="#999999" points="132,-24.5 0,-24.5 0,-5.5 132,-5.5 132,-24.5"/>
<text text-anchor="middle" x="66" y="-12.5" font-family="Helvetica,sans-Serif" font-size="10.00">android.app.AlertDialog</text>
</a>
</g>
</g>
<!-- Node1&#45;&gt;Node2 -->
<g id="edge1_Node000001_Node000002" class="edge">
<title>Node1&#45;&gt;Node2</title>
<g id="a_edge1_Node000001_Node000002"><a xlink:title=" ">
<path fill="none" stroke="#63b8ff" d="M1296.8,-95.75C1092.72,-93.15 572.38,-81.57 141,-30 132.96,-29.04 124.48,-27.74 116.23,-26.31"/>
<polygon fill="#63b8ff" stroke="#63b8ff" points="116.79,-22.86 106.33,-24.53 115.55,-29.75 116.79,-22.86"/>
</a>
</g>
</g>
<!-- Node3 -->
<g id="Node000003" class="node">
<title>Node3</title>
<g id="a_Node000003"><a xlink:title=" ">
<polygon fill="#e0e0e0" stroke="#999999" points="284,-24.5 150,-24.5 150,-5.5 284,-5.5 284,-24.5"/>
<text text-anchor="middle" x="217" y="-12.5" font-family="Helvetica,sans-Serif" font-size="10.00">android.content.Context</text>
</a>
</g>
</g>
<!-- Node1&#45;&gt;Node3 -->
<g id="edge2_Node000001_Node000003" class="edge">
<title>Node1&#45;&gt;Node3</title>
<g id="a_edge2_Node000001_Node000003"><a xlink:title=" ">
<path fill="none" stroke="#63b8ff" d="M1296.91,-94.76C1110.86,-90.28 664.41,-75.35 293,-30 284.95,-29.02 276.47,-27.72 268.2,-26.31"/>
<polygon fill="#63b8ff" stroke="#63b8ff" points="268.73,-22.85 258.28,-24.54 267.51,-29.74 268.73,-22.85"/>
</a>
</g>
</g>
<!-- Node4 -->
<g id="Node000004" class="node">
<title>Node4</title>
<g id="a_Node000004"><a xlink:title=" ">
<polygon fill="#e0e0e0" stroke="#999999" points="490,-24.5 302,-24.5 302,-5.5 490,-5.5 490,-24.5"/>
<text text-anchor="middle" x="396" y="-12.5" font-family="Helvetica,sans-Serif" font-size="10.00">android.content.SharedPreferences</text>
</a>
</g>
</g>
<!-- Node1&#45;&gt;Node4 -->
<g id="edge3_Node000001_Node000004" class="edge">
<title>Node1&#45;&gt;Node4</title>
<g id="a_edge3_Node000001_Node000004"><a xlink:title=" ">
<path fill="none" stroke="#63b8ff" d="M1296.81,-91.64C1137.33,-82.47 790.46,-60.72 499,-30 487.76,-28.82 475.85,-27.37 464.27,-25.87"/>
<polygon fill="#63b8ff" stroke="#63b8ff" points="464.58,-22.38 454.21,-24.53 463.66,-29.32 464.58,-22.38"/>
</a>
</g>
</g>
<!-- Node5 -->
<g id="Node000005" class="node">
<title>Node5</title>
<g id="a_Node000005"><a xlink:title=" ">
<polygon fill="#e0e0e0" stroke="#999999" points="617.5,-24.5 508.5,-24.5 508.5,-5.5 617.5,-5.5 617.5,-24.5"/>
<text text-anchor="middle" x="563" y="-12.5" font-family="Helvetica,sans-Serif" font-size="10.00">android.os.Handler</text>
</a>
</g>
</g>
<!-- Node1&#45;&gt;Node5 -->
<g id="edge4_Node000001_Node000005" class="edge">
<title>Node1&#45;&gt;Node5</title>
<g id="a_edge4_Node000001_Node000005"><a xlink:title=" ">
<path fill="none" stroke="#63b8ff" d="M1296.74,-92.42C1154.91,-85.05 867.78,-66.74 627,-30 620.8,-29.05 614.31,-27.87 607.93,-26.59"/>
<polygon fill="#63b8ff" stroke="#63b8ff" points="608.57,-23.14 598.06,-24.52 607.13,-29.99 608.57,-23.14"/>
</a>
</g>
</g>
<!-- Node6 -->
<g id="Node000006" class="node">
<title>Node6</title>
<g id="a_Node000006"><a xlink:title=" ">
<polygon fill="#e0e0e0" stroke="#999999" points="740,-24.5 636,-24.5 636,-5.5 740,-5.5 740,-24.5"/>
<text text-anchor="middle" x="688" y="-12.5" font-family="Helvetica,sans-Serif" font-size="10.00">android.os.Looper</text>
</a>
</g>
</g>
<!-- Node1&#45;&gt;Node6 -->
<g id="edge5_Node000001_Node000006" class="edge">
<title>Node1&#45;&gt;Node6</title>
<g id="a_edge5_Node000001_Node000006"><a xlink:title=" ">
<path fill="none" stroke="#63b8ff" d="M1296.84,-90.68C1173.64,-81.78 943.25,-62.32 749,-30 743.44,-29.07 737.63,-27.95 731.9,-26.74"/>
<polygon fill="#63b8ff" stroke="#63b8ff" points="732.25,-23.24 721.73,-24.51 730.75,-30.08 732.25,-23.24"/>
</a>
</g>
</g>
<!-- Node7 -->
<g id="Node000007" class="node">
<title>Node7</title>
<g id="a_Node000007"><a xlink:title=" ">
<polygon fill="#e0e0e0" stroke="#999999" points="900,-30 758,-30 758,0 900,0 900,-30"/>
<text text-anchor="start" x="766" y="-18" font-family="Helvetica,sans-Serif" font-size="10.00">android.security.keystore.</text>
<text text-anchor="middle" x="829" y="-7" font-family="Helvetica,sans-Serif" font-size="10.00">KeyGenParameterSpec</text>
</a>
</g>
</g>
<!-- Node1&#45;&gt;Node7 -->
<g id="edge6_Node000001_Node000007" class="edge">
<title>Node1&#45;&gt;Node7</title>
<g id="a_edge6_Node000001_Node000007"><a xlink:title=" ">
<path fill="none" stroke="#63b8ff" d="M1296.7,-85.09C1203.27,-72.81 1051.3,-52.22 910.22,-30.16"/>
<polygon fill="#63b8ff" stroke="#63b8ff" points="910.5,-26.66 900.08,-28.57 909.42,-33.58 910.5,-26.66"/>
</a>
</g>
</g>
<!-- Node8 -->
<g id="Node000008" class="node">
<title>Node8</title>
<g id="a_Node000008"><a xlink:title=" ">
<polygon fill="#e0e0e0" stroke="#999999" points="1060,-30 918,-30 918,0 1060,0 1060,-30"/>
<text text-anchor="start" x="926" y="-18" font-family="Helvetica,sans-Serif" font-size="10.00">android.security.keystore.</text>
<text text-anchor="middle" x="989" y="-7" font-family="Helvetica,sans-Serif" font-size="10.00">KeyProperties</text>
</a>
</g>
</g>
<!-- Node1&#45;&gt;Node8 -->
<g id="edge7_Node000001_Node000008" class="edge">
<title>Node1&#45;&gt;Node8</title>
<g id="a_edge7_Node000001_Node000008"><a xlink:title=" ">
<path fill="none" stroke="#63b8ff" d="M1296.62,-78.53C1228.11,-64.61 1134.02,-45.48 1068,-32.06"/>
<polygon fill="#63b8ff" stroke="#63b8ff" points="1068.56,-28.6 1058.06,-30.04 1067.16,-35.46 1068.56,-28.6"/>
</a>
</g>
</g>
<!-- Node9 -->
<g id="Node000009" class="node">
<title>Node9</title>
<g id="a_Node000009"><a xlink:title=" ">
<polygon fill="#e0e0e0" stroke="#999999" points="1196,-24.5 1078,-24.5 1078,-5.5 1196,-5.5 1196,-24.5"/>
<text text-anchor="middle" x="1137" y="-12.5" font-family="Helvetica,sans-Serif" font-size="10.00">android.widget.Toast</text>
</a>
</g>
</g>
<!-- Node1&#45;&gt;Node9 -->
<g id="edge8_Node000001_Node000009" class="edge">
<title>Node1&#45;&gt;Node9</title>
<g id="a_edge8_Node000001_Node000009"><a xlink:title=" ">
<path fill="none" stroke="#63b8ff" d="M1296.87,-67.89C1254.28,-54.07 1205.52,-38.24 1173.16,-27.74"/>
<polygon fill="#63b8ff" stroke="#63b8ff" points="1173.85,-24.28 1163.26,-24.52 1171.69,-30.94 1173.85,-24.28"/>
</a>
</g>
</g>
<!-- Node10 -->
<g id="Node000010" class="node">
<title>Node10</title>
<g id="a_Node000010"><a xlink:title=" ">
<polygon fill="#e0e0e0" stroke="#999999" points="1388,-30 1214,-30 1214,0 1388,0 1388,-30"/>
<text text-anchor="start" x="1222" y="-18" font-family="Helvetica,sans-Serif" font-size="10.00">com.example.mybookshelf.data</text>
<text text-anchor="middle" x="1301" y="-7" font-family="Helvetica,sans-Serif" font-size="10.00">Class.User</text>
</a>
</g>
</g>
<!-- Node1&#45;&gt;Node10 -->
<g id="edge9_Node000001_Node000010" class="edge">
<title>Node1&#45;&gt;Node10</title>
<g id="a_edge9_Node000001_Node000010"><a xlink:title=" ">
<path fill="none" stroke="#63b8ff" d="M1352.76,-65.61C1342.89,-56.14 1332.25,-45.95 1323.2,-37.27"/>
<polygon fill="#63b8ff" stroke="#63b8ff" points="1325.36,-34.49 1315.72,-30.1 1320.51,-39.55 1325.36,-34.49"/>
</a>
</g>
</g>
<!-- Node11 -->
<g id="Node000011" class="node">
<title>Node11</title>
<g id="a_Node000011"><a xlink:title=" ">
<polygon fill="#e0e0e0" stroke="#999999" points="1531.5,-24.5 1406.5,-24.5 1406.5,-5.5 1531.5,-5.5 1531.5,-24.5"/>
<text text-anchor="middle" x="1469" y="-12.5" font-family="Helvetica,sans-Serif" font-size="10.00">java.security.KeyStore</text>
</a>
</g>
</g>
<!-- Node1&#45;&gt;Node11 -->
<g id="edge10_Node000001_Node000011" class="edge">
<title>Node1&#45;&gt;Node11</title>
<g id="a_edge10_Node000001_Node000011"><a xlink:title=" ">
<path fill="none" stroke="#63b8ff" d="M1417.24,-65.61C1429.36,-53.99 1442.63,-41.28 1452.69,-31.63"/>
<polygon fill="#63b8ff" stroke="#63b8ff" points="1455.2,-34.07 1460,-24.62 1450.36,-29.02 1455.2,-34.07"/>
</a>
</g>
</g>
<!-- Node12 -->
<g id="Node000012" class="node">
<title>Node12</title>
<g id="a_Node000012"><a xlink:title=" ">
<polygon fill="#e0e0e0" stroke="#999999" points="1644.5,-24.5 1549.5,-24.5 1549.5,-5.5 1644.5,-5.5 1644.5,-24.5"/>
<text text-anchor="middle" x="1597" y="-12.5" font-family="Helvetica,sans-Serif" font-size="10.00">java.util.Base64</text>
</a>
</g>
</g>
<!-- Node1&#45;&gt;Node12 -->
<g id="edge11_Node000001_Node000012" class="edge">
<title>Node1&#45;&gt;Node12</title>
<g id="a_edge11_Node000001_Node000012"><a xlink:title=" ">
<path fill="none" stroke="#63b8ff" d="M1465.45,-65.95C1500.14,-52.78 1538.72,-38.13 1565.07,-28.12"/>
<polygon fill="#63b8ff" stroke="#63b8ff" points="1566.44,-31.35 1574.54,-24.53 1563.95,-24.81 1566.44,-31.35"/>
</a>
</g>
</g>
<!-- Node13 -->
<g id="Node000013" class="node">
<title>Node13</title>
<g id="a_Node000013"><a xlink:title=" ">
<polygon fill="#e0e0e0" stroke="#999999" points="1819,-30 1663,-30 1663,0 1819,0 1819,-30"/>
<text text-anchor="start" x="1671" y="-18" font-family="Helvetica,sans-Serif" font-size="10.00">java.util.concurrent.Executor</text>
<text text-anchor="middle" x="1741" y="-7" font-family="Helvetica,sans-Serif" font-size="10.00">Service</text>
</a>
</g>
</g>
<!-- Node1&#45;&gt;Node13 -->
<g id="edge12_Node000001_Node000013" class="edge">
<title>Node1&#45;&gt;Node13</title>
<g id="a_edge12_Node000001_Node000013"><a xlink:title=" ">
<path fill="none" stroke="#63b8ff" d="M1473,-76.6C1533.31,-62.96 1612.33,-45.1 1668.91,-32.3"/>
<polygon fill="#63b8ff" stroke="#63b8ff" points="1669.87,-35.67 1678.85,-30.05 1668.33,-28.85 1669.87,-35.67"/>
</a>
</g>
</g>
<!-- Node14 -->
<g id="Node000014" class="node">
<title>Node14</title>
<g id="a_Node000014"><a xlink:title=" ">
<polygon fill="#e0e0e0" stroke="#999999" points="1998.5,-24.5 1837.5,-24.5 1837.5,-5.5 1998.5,-5.5 1998.5,-24.5"/>
<text text-anchor="middle" x="1918" y="-12.5" font-family="Helvetica,sans-Serif" font-size="10.00">java.util.concurrent.Executors</text>
</a>
</g>
</g>
<!-- Node1&#45;&gt;Node14 -->
<g id="edge13_Node000001_Node000014" class="edge">
<title>Node1&#45;&gt;Node14</title>
<g id="a_edge13_Node000001_Node000014"><a xlink:title=" ">
<path fill="none" stroke="#63b8ff" d="M1473.27,-83.39C1562.7,-70.08 1704.99,-48.8 1828,-30 1836.2,-28.75 1844.82,-27.42 1853.34,-26.1"/>
<polygon fill="#63b8ff" stroke="#63b8ff" points="1853.93,-29.55 1863.27,-24.56 1852.86,-22.63 1853.93,-29.55"/>
</a>
</g>
</g>
<!-- Node15 -->
<g id="Node000015" class="node">
<title>Node15</title>
<g id="a_Node000015"><a xlink:title=" ">
<polygon fill="#e0e0e0" stroke="#999999" points="2177.5,-24.5 2016.5,-24.5 2016.5,-5.5 2177.5,-5.5 2177.5,-24.5"/>
<text text-anchor="middle" x="2097" y="-12.5" font-family="Helvetica,sans-Serif" font-size="10.00">java.util.function.BiConsumer</text>
</a>
</g>
</g>
<!-- Node1&#45;&gt;Node15 -->
<g id="edge14_Node000001_Node000015" class="edge">
<title>Node1&#45;&gt;Node15</title>
<g id="a_edge14_Node000001_Node000015"><a xlink:title=" ">
<path fill="none" stroke="#63b8ff" d="M1473.12,-88.49C1593.96,-77.18 1817.8,-55.1 2008,-30 2017,-28.81 2026.49,-27.45 2035.78,-26.04"/>
<polygon fill="#63b8ff" stroke="#63b8ff" points="2036.41,-29.48 2045.76,-24.51 2035.35,-22.56 2036.41,-29.48"/>
</a>
</g>
</g>
<!-- Node16 -->
<g id="Node000016" class="node">
<title>Node16</title>
<g id="a_Node000016"><a xlink:title=" ">
<polygon fill="#e0e0e0" stroke="#999999" points="2308,-24.5 2196,-24.5 2196,-5.5 2308,-5.5 2308,-24.5"/>
<text text-anchor="middle" x="2252" y="-12.5" font-family="Helvetica,sans-Serif" font-size="10.00">javax.crypto.Cipher</text>
</a>
</g>
</g>
<!-- Node1&#45;&gt;Node16 -->
<g id="edge15_Node000001_Node000016" class="edge">
<title>Node1&#45;&gt;Node16</title>
<g id="a_edge15_Node000001_Node000016"><a xlink:title=" ">
<path fill="none" stroke="#63b8ff" d="M1473.25,-92.92C1621.41,-86.08 1929.26,-68.28 2187,-30 2193.29,-29.07 2199.89,-27.88 2206.37,-26.61"/>
<polygon fill="#63b8ff" stroke="#63b8ff" points="2207.3,-29.99 2216.39,-24.54 2205.89,-23.13 2207.3,-29.99"/>
</a>
</g>
</g>
<!-- Node17 -->
<g id="Node000017" class="node">
<title>Node17</title>
<g id="a_Node000017"><a xlink:title=" ">
<polygon fill="#e0e0e0" stroke="#999999" points="2473.5,-24.5 2326.5,-24.5 2326.5,-5.5 2473.5,-5.5 2473.5,-24.5"/>
<text text-anchor="middle" x="2400" y="-12.5" font-family="Helvetica,sans-Serif" font-size="10.00">javax.crypto.KeyGenerator</text>
</a>
</g>
</g>
<!-- Node1&#45;&gt;Node17 -->
<g id="edge16_Node000001_Node000017" class="edge">
<title>Node1&#45;&gt;Node17</title>
<g id="a_edge16_Node000001_Node000017"><a xlink:title=" ">
<path fill="none" stroke="#63b8ff" d="M1473.29,-93.02C1639.09,-85.87 2008.16,-66.98 2317,-30 2325.75,-28.95 2334.98,-27.62 2343.99,-26.2"/>
<polygon fill="#63b8ff" stroke="#63b8ff" points="2344.71,-29.63 2354.02,-24.56 2343.58,-22.72 2344.71,-29.63"/>
</a>
</g>
</g>
<!-- Node18 -->
<g id="Node000018" class="node">
<title>Node18</title>
<g id="a_Node000018"><a xlink:title=" ">
<polygon fill="#e0e0e0" stroke="#999999" points="2620.5,-24.5 2491.5,-24.5 2491.5,-5.5 2620.5,-5.5 2620.5,-24.5"/>
<text text-anchor="middle" x="2556" y="-12.5" font-family="Helvetica,sans-Serif" font-size="10.00">javax.crypto.SecretKey</text>
</a>
</g>
</g>
<!-- Node1&#45;&gt;Node18 -->
<g id="edge17_Node000001_Node000018" class="edge">
<title>Node1&#45;&gt;Node18</title>
<g id="a_edge17_Node000001_Node000018"><a xlink:title=" ">
<path fill="none" stroke="#63b8ff" d="M1473.24,-95.01C1660.16,-91.02 2109.48,-76.93 2483,-30 2490.57,-29.05 2498.53,-27.79 2506.31,-26.42"/>
<polygon fill="#63b8ff" stroke="#63b8ff" points="2507.17,-29.82 2516.37,-24.56 2505.9,-22.93 2507.17,-29.82"/>
</a>
</g>
</g>
<!-- Node19 -->
<g id="Node000019" class="node">
<title>Node19</title>
<g id="a_Node000019"><a xlink:title=" ">
<polygon fill="#e0e0e0" stroke="#999999" points="2841.5,-24.5 2638.5,-24.5 2638.5,-5.5 2841.5,-5.5 2841.5,-24.5"/>
<text text-anchor="middle" x="2740" y="-12.5" font-family="Helvetica,sans-Serif" font-size="10.00">javax.crypto.spec.GCMParameterSpec</text>
</a>
</g>
</g>
<!-- Node1&#45;&gt;Node19 -->
<g id="edge18_Node000001_Node000019" class="edge">
<title>Node1&#45;&gt;Node19</title>
<g id="a_edge18_Node000001_Node000019"><a xlink:title=" ">
<path fill="none" stroke="#63b8ff" d="M1473.08,-94.01C1676.95,-87.77 2196.96,-69.07 2630,-30 2642.63,-28.86 2656.05,-27.38 2669.01,-25.81"/>
<polygon fill="#63b8ff" stroke="#63b8ff" points="2669.79,-29.24 2679.28,-24.54 2668.93,-22.29 2669.79,-29.24"/>
</a>
</g>
</g>
</g>
</svg>

<g id="navigator" transform="translate(0 0)" fill="#404254">
  <rect fill="#f2f5e9" fill-opacity="0.5" stroke="#606060" stroke-width=".5" x="0" y="0" width="60" height="60"/>
  <use id="zoomplus" xlink:href="#zoomPlus" x="17" y="9" onmousedown="handleZoom(evt,'in')"/>
  <use id="zoomminus" xlink:href="#zoomMin" x="42" y="9" onmousedown="handleZoom(evt,'out')"/>
  <use id="reset" xlink:href="#resetDef" x="30" y="36" onmousedown="handleReset()"/>
   <use id="arrowup" xlink:href="#arrowUp" x="0" y="0" onmousedown="handlePan(0,-1)"/>
  <use id="arrowright" xlink:href="#arrowRight" x="0" y="0" onmousedown="handlePan(1,0)"/>
  <use id="arrowdown" xlink:href="#arrowDown" x="0" y="0" onmousedown="handlePan(0,1)"/>
  <use id="arrowleft" xlink:href="#arrowLeft" x="0" y="0" onmousedown="handlePan(-1,0)"/>
</g>
<svg viewBox="0 0 15 15" width="100%" height="30px" preserveAspectRatio="xMaxYMin meet">
 <g id="arrow_out" transform="scale(0.3 0.3)">
  <a xlink:href="Authenticator_8java__incl_org.svg" target="_base">
   <rect id="button" ry="5" rx="5" y="6" x="6" height="38" width="38"
        fill="#f2f5e9" fill-opacity="0.5" stroke="#606060" stroke-width="1.0"/>
   <path id="arrow"
     d="M 11.500037,31.436501 C 11.940474,20.09759 22.043105,11.32322 32.158766,21.979434 L 37.068811,17.246167 C 37.068811,17.246167 37.088388,32 37.088388,32 L 22.160133,31.978069 C 22.160133,31.978069 26.997745,27.140456 26.997745,27.140456 C 18.528582,18.264221 13.291696,25.230495 11.500037,31.436501 z"
     style="fill:#404040;"/>
  </a>
 </g>
</svg>

<style type='text/css'>
<![CDATA[
[data-mouse-over-selected='false'] { opacity: 0.7; }
[data-mouse-over-selected='true']  { opacity: 1.0; }
]]>
</style>
<script type="application/ecmascript"><![CDATA[
document.addEventListener('DOMContentLoaded', (event) => {
  highlightEdges();
  highlightAdjacentNodes();
});
]]></script>
</svg>
