<?xml version="1.0" encoding="UTF-8" standalone="no"?>
<!DOCTYPE svg PUBLIC "-//W3C//DTD SVG 1.1//EN"
 "http://www.w3.org/Graphics/SVG/1.1/DTD/svg11.dtd">
<!-- Generated by graphviz version 2.43.0 (0)
 -->
<!-- Title: /app/doc_state/github_reposRepoArchDocGenContext/EliasSchaffer/MyBookShelf/src/main/java/com/example/mybookshelf/BookRecommendationFlow.java Pages: 1 -->
<!--zoomable 137 -->

<svg id="main" version="1.1" xmlns="http://www.w3.org/2000/svg" xmlns:xlink="http://www.w3.org/1999/xlink" xml:space="preserve" onload="init(evt)">

<style type="text/css"><![CDATA[
.node, .edge {opacity: 0.7;}
.node.selected, .edge.selected {opacity: 1;}
.edge:hover path { stroke: red; }
.edge:hover polygon { stroke: red; fill: red; }
]]></style>

<defs>
  <circle id="rim" cx="0" cy="0" r="7"/>
  <circle id="rim2" cx="0" cy="0" r="3.5"/>
  <g id="zoomPlus">
    <use xlink:href="#rim" fill="#404040"><set attributeName="fill" to="#808080" begin="zoomplus.mouseover" end="zoomplus.mouseout"/></use>
    <path d="M-4,0h8M0,-4v8" fill="none" stroke="white" stroke-width="1.5" pointer-events="none"/>
  </g>
  <g id="zoomMin">
    <use xlink:href="#rim" fill="#404040"><set attributeName="fill" to="#808080" begin="zoomminus.mouseover" end="zoomminus.mouseout"/></use>
    <path d="M-4,0h8" fill="none" stroke="white" stroke-width="1.5" pointer-events="none"/>
  </g>
  <g id="arrowUp" transform="translate(30 24)">
    <use xlink:href="#rim"/>
    <path pointer-events="none" fill="none" stroke="white" stroke-width="1.5" d="M0,-3.0v7 M-2.5,-0.5L0,-3.0L2.5,-0.5"/>
  </g>
  <g id="arrowRight" transform="rotate(90) translate(36 -43)">
    <use xlink:href="#rim"/>
    <path pointer-events="none" fill="none" stroke="white" stroke-width="1.5" d="M0,-3.0v7 M-2.5,-0.5L0,-3.0L2.5,-0.5"/>
  </g>
  <g id="arrowDown" transform="rotate(180) translate(-30 -48)">
    <use xlink:href="#rim"/>
    <path pointer-events="none" fill="none" stroke="white" stroke-width="1.5" d="M0,-3.0v7 M-2.5,-0.5L0,-3.0L2.5,-0.5"/>
  </g>
  <g id="arrowLeft" transform="rotate(270) translate(-36 17)">
    <use xlink:href="#rim"/>
    <path pointer-events="none" fill="none" stroke="white" stroke-width="1.5" d="M0,-3.0v7 M-2.5,-0.5L0,-3.0L2.5,-0.5"/>
  </g>
  <g id="resetDef">
    <use xlink:href="#rim2" fill="#404040"><set attributeName="fill" to="#808080" begin="reset.mouseover" end="reset.mouseout"/></use>
  </g>
</defs>
<script type="application/ecmascript">
var viewWidth = 3391;
var viewHeight = 137;
var sectionId = 'dynsection-0';
</script>
<script type="application/ecmascript" xlink:href="svg.min.js"/>
<svg id="graph" class="graph">
<g id="viewport">
<title>/app/doc_state/github_reposRepoArchDocGenContext/EliasSchaffer/MyBookShelf/src/main/java/com/example/mybookshelf/BookRecommendationFlow.java</title>
<!-- Node1 -->
<g id="Node000001" class="node">
<title>Node1</title>
<g id="a_Node000001"><a xlink:title=" ">
<polygon fill="#999999" stroke="#666666" points="1898,-129 1654,-129 1654,-66 1898,-66 1898,-129"/>
<text text-anchor="start" x="1662" y="-117" font-family="Helvetica,sans-Serif" font-size="10.00">/app/doc_state/github</text>
<text text-anchor="start" x="1662" y="-106" font-family="Helvetica,sans-Serif" font-size="10.00">_reposRepoArchDocGenContext</text>
<text text-anchor="start" x="1662" y="-95" font-family="Helvetica,sans-Serif" font-size="10.00">/EliasSchaffer/MyBookShelf</text>
<text text-anchor="start" x="1662" y="-84" font-family="Helvetica,sans-Serif" font-size="10.00">/src/main/java/com/example</text>
<text text-anchor="middle" x="1776" y="-73" font-family="Helvetica,sans-Serif" font-size="10.00">/mybookshelf/BookRecommendationFlow.java</text>
</a>
</g>
</g>
<!-- Node2 -->
<g id="Node000002" class="node">
<title>Node2</title>
<g id="a_Node000002"><a xlink:title=" ">
<polygon fill="#e0e0e0" stroke="#999999" points="126,-24.5 0,-24.5 0,-5.5 126,-5.5 126,-24.5"/>
<text text-anchor="middle" x="63" y="-12.5" font-family="Helvetica,sans-Serif" font-size="10.00">android.graphics.Color</text>
</a>
</g>
</g>
<!-- Node1&#45;&gt;Node2 -->
<g id="edge1_Node000001_Node000002" class="edge">
<title>Node1&#45;&gt;Node2</title>
<g id="a_edge1_Node000001_Node000002"><a xlink:title=" ">
<path fill="none" stroke="#63b8ff" d="M1653.85,-93.95C1325.53,-86.72 429,-64.34 135,-30 127.26,-29.1 119.11,-27.83 111.19,-26.41"/>
<polygon fill="#63b8ff" stroke="#63b8ff" points="111.79,-22.97 101.32,-24.57 110.5,-29.85 111.79,-22.97"/>
</a>
</g>
</g>
<!-- Node3 -->
<g id="Node000003" class="node">
<title>Node3</title>
<g id="a_Node000003"><a xlink:title=" ">
<polygon fill="#e0e0e0" stroke="#999999" points="293.5,-30 144.5,-30 144.5,0 293.5,0 293.5,-30"/>
<text text-anchor="start" x="152.5" y="-18" font-family="Helvetica,sans-Serif" font-size="10.00">android.graphics.drawable.</text>
<text text-anchor="middle" x="219" y="-7" font-family="Helvetica,sans-Serif" font-size="10.00">GradientDrawable</text>
</a>
</g>
</g>
<!-- Node1&#45;&gt;Node3 -->
<g id="edge2_Node000001_Node000003" class="edge">
<title>Node1&#45;&gt;Node3</title>
<g id="a_edge2_Node000001_Node000003"><a xlink:title=" ">
<path fill="none" stroke="#63b8ff" d="M1653.81,-96.02C1402.49,-93.93 809.46,-83.34 303.65,-30.09"/>
<polygon fill="#63b8ff" stroke="#63b8ff" points="303.91,-26.6 293.6,-29.02 303.17,-33.56 303.91,-26.6"/>
</a>
</g>
</g>
<!-- Node4 -->
<g id="Node000004" class="node">
<title>Node4</title>
<g id="a_Node000004"><a xlink:title=" ">
<polygon fill="#e0e0e0" stroke="#999999" points="406.5,-24.5 311.5,-24.5 311.5,-5.5 406.5,-5.5 406.5,-24.5"/>
<text text-anchor="middle" x="359" y="-12.5" font-family="Helvetica,sans-Serif" font-size="10.00">android.os.Build</text>
</a>
</g>
</g>
<!-- Node1&#45;&gt;Node4 -->
<g id="edge3_Node000001_Node000004" class="edge">
<title>Node1&#45;&gt;Node4</title>
<g id="a_edge3_Node000001_Node000004"><a xlink:title=" ">
<path fill="none" stroke="#63b8ff" d="M1653.93,-93.53C1366.39,-86.06 652.91,-64.56 416,-30 410.45,-29.19 404.66,-28.08 398.98,-26.84"/>
<polygon fill="#63b8ff" stroke="#63b8ff" points="399.49,-23.37 388.96,-24.5 397.9,-30.19 399.49,-23.37"/>
</a>
</g>
</g>
<!-- Node5 -->
<g id="Node000005" class="node">
<title>Node5</title>
<g id="a_Node000005"><a xlink:title=" ">
<polygon fill="#e0e0e0" stroke="#999999" points="517,-24.5 425,-24.5 425,-5.5 517,-5.5 517,-24.5"/>
<text text-anchor="middle" x="471" y="-12.5" font-family="Helvetica,sans-Serif" font-size="10.00">android.util.Log</text>
</a>
</g>
</g>
<!-- Node1&#45;&gt;Node5 -->
<g id="edge4_Node000001_Node000005" class="edge">
<title>Node1&#45;&gt;Node5</title>
<g id="a_edge4_Node000001_Node000005"><a xlink:title=" ">
<path fill="none" stroke="#63b8ff" d="M1653.82,-93.05C1383.33,-84.92 740.91,-62.74 526,-30 520.84,-29.21 515.45,-28.15 510.16,-26.96"/>
<polygon fill="#63b8ff" stroke="#63b8ff" points="510.72,-23.5 500.18,-24.56 509.08,-30.3 510.72,-23.5"/>
</a>
</g>
</g>
<!-- Node6 -->
<g id="Node000006" class="node">
<title>Node6</title>
<g id="a_Node000006"><a xlink:title=" ">
<polygon fill="#e0e0e0" stroke="#999999" points="641,-24.5 535,-24.5 535,-5.5 641,-5.5 641,-24.5"/>
<text text-anchor="middle" x="588" y="-12.5" font-family="Helvetica,sans-Serif" font-size="10.00">android.view.View</text>
</a>
</g>
</g>
<!-- Node1&#45;&gt;Node6 -->
<g id="edge5_Node000001_Node000006" class="edge">
<title>Node1&#45;&gt;Node6</title>
<g id="a_edge5_Node000001_Node000006"><a xlink:title=" ">
<path fill="none" stroke="#63b8ff" d="M1653.72,-95.79C1446.27,-93.13 1012.59,-81.29 650,-30 643.98,-29.15 637.68,-28.01 631.5,-26.76"/>
<polygon fill="#63b8ff" stroke="#63b8ff" points="631.79,-23.24 621.28,-24.56 630.32,-30.09 631.79,-23.24"/>
</a>
</g>
</g>
<!-- Node7 -->
<g id="Node000007" class="node">
<title>Node7</title>
<g id="a_Node000007"><a xlink:title=" ">
<polygon fill="#e0e0e0" stroke="#999999" points="794.5,-24.5 659.5,-24.5 659.5,-5.5 794.5,-5.5 794.5,-24.5"/>
<text text-anchor="middle" x="727" y="-12.5" font-family="Helvetica,sans-Serif" font-size="10.00">android.view.ViewGroup</text>
</a>
</g>
</g>
<!-- Node1&#45;&gt;Node7 -->
<g id="edge6_Node000001_Node000007" class="edge">
<title>Node1&#45;&gt;Node7</title>
<g id="a_edge6_Node000001_Node000007"><a xlink:title=" ">
<path fill="none" stroke="#63b8ff" d="M1653.84,-92.62C1469.05,-85.74 1107.7,-68.35 803,-30 795.14,-29.01 786.86,-27.73 778.77,-26.35"/>
<polygon fill="#63b8ff" stroke="#63b8ff" points="779.14,-22.86 768.68,-24.56 777.91,-29.75 779.14,-22.86"/>
</a>
</g>
</g>
<!-- Node8 -->
<g id="Node000008" class="node">
<title>Node8</title>
<g id="a_Node000008"><a xlink:title=" ">
<polygon fill="#e0e0e0" stroke="#999999" points="997.5,-24.5 812.5,-24.5 812.5,-5.5 997.5,-5.5 997.5,-24.5"/>
<text text-anchor="middle" x="905" y="-12.5" font-family="Helvetica,sans-Serif" font-size="10.00">android.view.animation.Animation</text>
</a>
</g>
</g>
<!-- Node1&#45;&gt;Node8 -->
<g id="edge7_Node000001_Node000008" class="edge">
<title>Node1&#45;&gt;Node8</title>
<g id="a_edge7_Node000001_Node000008"><a xlink:title=" ">
<path fill="none" stroke="#63b8ff" d="M1653.78,-87.9C1501.75,-76.75 1234.34,-55.67 1006,-30 995.23,-28.79 983.82,-27.36 972.71,-25.88"/>
<polygon fill="#63b8ff" stroke="#63b8ff" points="973,-22.38 962.62,-24.51 972.06,-29.32 973,-22.38"/>
</a>
</g>
</g>
<!-- Node9 -->
<g id="Node000009" class="node">
<title>Node9</title>
<g id="a_Node000009"><a xlink:title=" ">
<polygon fill="#e0e0e0" stroke="#999999" points="1194.5,-30 1015.5,-30 1015.5,0 1194.5,0 1194.5,-30"/>
<text text-anchor="start" x="1023.5" y="-18" font-family="Helvetica,sans-Serif" font-size="10.00">android.view.animation.Translate</text>
<text text-anchor="middle" x="1105" y="-7" font-family="Helvetica,sans-Serif" font-size="10.00">Animation</text>
</a>
</g>
</g>
<!-- Node1&#45;&gt;Node9 -->
<g id="edge8_Node000001_Node000009" class="edge">
<title>Node1&#45;&gt;Node9</title>
<g id="a_edge8_Node000001_Node000009"><a xlink:title=" ">
<path fill="none" stroke="#63b8ff" d="M1653.77,-83.26C1540.06,-70.72 1365.64,-50.93 1204.79,-30.21"/>
<polygon fill="#63b8ff" stroke="#63b8ff" points="1205.07,-26.72 1194.71,-28.91 1204.18,-33.66 1205.07,-26.72"/>
</a>
</g>
</g>
<!-- Node10 -->
<g id="Node000010" class="node">
<title>Node10</title>
<g id="a_Node000010"><a xlink:title=" ">
<polygon fill="#e0e0e0" stroke="#999999" points="1337.5,-24.5 1212.5,-24.5 1212.5,-5.5 1337.5,-5.5 1337.5,-24.5"/>
<text text-anchor="middle" x="1275" y="-12.5" font-family="Helvetica,sans-Serif" font-size="10.00">android.widget.Button</text>
</a>
</g>
</g>
<!-- Node1&#45;&gt;Node10 -->
<g id="edge9_Node000001_Node000010" class="edge">
<title>Node1&#45;&gt;Node10</title>
<g id="a_edge9_Node000001_Node000010"><a xlink:title=" ">
<path fill="none" stroke="#63b8ff" d="M1653.75,-78.82C1567.81,-66.08 1450.2,-48.03 1347,-30 1340.74,-28.91 1334.19,-27.71 1327.7,-26.49"/>
<polygon fill="#63b8ff" stroke="#63b8ff" points="1328.07,-23 1317.59,-24.56 1326.76,-29.87 1328.07,-23"/>
</a>
</g>
</g>
<!-- Node11 -->
<g id="Node000011" class="node">
<title>Node11</title>
<g id="a_Node000011"><a xlink:title=" ">
<polygon fill="#e0e0e0" stroke="#999999" points="1502,-24.5 1356,-24.5 1356,-5.5 1502,-5.5 1502,-24.5"/>
<text text-anchor="middle" x="1429" y="-12.5" font-family="Helvetica,sans-Serif" font-size="10.00">android.widget.GridLayout</text>
</a>
</g>
</g>
<!-- Node1&#45;&gt;Node11 -->
<g id="edge10_Node000001_Node000011" class="edge">
<title>Node1&#45;&gt;Node11</title>
<g id="a_edge10_Node000001_Node000011"><a xlink:title=" ">
<path fill="none" stroke="#63b8ff" d="M1653.66,-68.12C1592.16,-53.85 1521.25,-37.4 1475.82,-26.86"/>
<polygon fill="#63b8ff" stroke="#63b8ff" points="1476.49,-23.42 1465.96,-24.57 1474.91,-30.24 1476.49,-23.42"/>
</a>
</g>
</g>
<!-- Node12 -->
<g id="Node000012" class="node">
<title>Node12</title>
<g id="a_Node000012"><a xlink:title=" ">
<polygon fill="#e0e0e0" stroke="#999999" points="1686,-24.5 1520,-24.5 1520,-5.5 1686,-5.5 1686,-24.5"/>
<text text-anchor="middle" x="1603" y="-12.5" font-family="Helvetica,sans-Serif" font-size="10.00">android.widget.RelativeLayout</text>
</a>
</g>
</g>
<!-- Node1&#45;&gt;Node12 -->
<g id="edge11_Node000001_Node000012" class="edge">
<title>Node1&#45;&gt;Node12</title>
<g id="a_edge11_Node000001_Node000012"><a xlink:title=" ">
<path fill="none" stroke="#63b8ff" d="M1710.1,-65.84C1682.45,-52.97 1651.8,-38.71 1630.41,-28.75"/>
<polygon fill="#63b8ff" stroke="#63b8ff" points="1631.81,-25.55 1621.27,-24.5 1628.86,-31.89 1631.81,-25.55"/>
</a>
</g>
</g>
<!-- Node13 -->
<g id="Node000013" class="node">
<title>Node13</title>
<g id="a_Node000013"><a xlink:title=" ">
<polygon fill="#e0e0e0" stroke="#999999" points="1847.5,-24.5 1704.5,-24.5 1704.5,-5.5 1847.5,-5.5 1847.5,-24.5"/>
<text text-anchor="middle" x="1776" y="-12.5" font-family="Helvetica,sans-Serif" font-size="10.00">android.widget.ScrollView</text>
</a>
</g>
</g>
<!-- Node1&#45;&gt;Node13 -->
<g id="edge12_Node000001_Node000013" class="edge">
<title>Node1&#45;&gt;Node13</title>
<g id="a_edge12_Node000001_Node000013"><a xlink:title=" ">
<path fill="none" stroke="#63b8ff" d="M1776,-65.61C1776,-55.26 1776,-44.03 1776,-34.88"/>
<polygon fill="#63b8ff" stroke="#63b8ff" points="1779.5,-34.62 1776,-24.62 1772.5,-34.62 1779.5,-34.62"/>
</a>
</g>
</g>
<!-- Node14 -->
<g id="Node000014" class="node">
<title>Node14</title>
<g id="a_Node000014"><a xlink:title=" ">
<polygon fill="#e0e0e0" stroke="#999999" points="2002.5,-24.5 1865.5,-24.5 1865.5,-5.5 2002.5,-5.5 2002.5,-24.5"/>
<text text-anchor="middle" x="1934" y="-12.5" font-family="Helvetica,sans-Serif" font-size="10.00">android.widget.TextView</text>
</a>
</g>
</g>
<!-- Node1&#45;&gt;Node14 -->
<g id="edge13_Node000001_Node000014" class="edge">
<title>Node1&#45;&gt;Node14</title>
<g id="a_edge13_Node000001_Node000014"><a xlink:title=" ">
<path fill="none" stroke="#63b8ff" d="M1836.18,-65.84C1861.1,-53.14 1888.67,-39.09 1908.17,-29.16"/>
<polygon fill="#63b8ff" stroke="#63b8ff" points="1909.99,-32.16 1917.31,-24.5 1906.82,-25.92 1909.99,-32.16"/>
</a>
</g>
</g>
<!-- Node15 -->
<g id="Node000015" class="node">
<title>Node15</title>
<g id="a_Node000015"><a xlink:title=" ">
<polygon fill="#e0e0e0" stroke="#999999" points="2139,-24.5 2021,-24.5 2021,-5.5 2139,-5.5 2139,-24.5"/>
<text text-anchor="middle" x="2080" y="-12.5" font-family="Helvetica,sans-Serif" font-size="10.00">android.widget.Toast</text>
</a>
</g>
</g>
<!-- Node1&#45;&gt;Node15 -->
<g id="edge14_Node000001_Node000015" class="edge">
<title>Node1&#45;&gt;Node15</title>
<g id="a_edge14_Node000001_Node000015"><a xlink:title=" ">
<path fill="none" stroke="#63b8ff" d="M1891.36,-65.95C1942.64,-52.37 1999.84,-37.23 2037.66,-27.21"/>
<polygon fill="#63b8ff" stroke="#63b8ff" points="2039.03,-30.47 2047.8,-24.53 2037.23,-23.7 2039.03,-30.47"/>
</a>
</g>
</g>
<!-- Node16 -->
<g id="Node000016" class="node">
<title>Node16</title>
<g id="a_Node000016"><a xlink:title=" ">
<polygon fill="#e0e0e0" stroke="#999999" points="2333,-30 2157,-30 2157,0 2333,0 2333,-30"/>
<text text-anchor="start" x="2165" y="-18" font-family="Helvetica,sans-Serif" font-size="10.00">com.example.mybookshelf.apis.</text>
<text text-anchor="middle" x="2245" y="-7" font-family="Helvetica,sans-Serif" font-size="10.00">AiAPI</text>
</a>
</g>
</g>
<!-- Node1&#45;&gt;Node16 -->
<g id="edge15_Node000001_Node000016" class="edge">
<title>Node1&#45;&gt;Node16</title>
<g id="a_edge15_Node000001_Node000016"><a xlink:title=" ">
<path fill="none" stroke="#63b8ff" d="M1898.31,-75.51C1978.02,-61.83 2080.35,-44.26 2153.13,-31.77"/>
<polygon fill="#63b8ff" stroke="#63b8ff" points="2153.94,-35.18 2163.2,-30.04 2152.75,-28.28 2153.94,-35.18"/>
</a>
</g>
</g>
<!-- Node17 -->
<g id="Node000017" class="node">
<title>Node17</title>
<g id="a_Node000017"><a xlink:title=" ">
<polygon fill="#e0e0e0" stroke="#999999" points="2525,-30 2351,-30 2351,0 2525,0 2525,-30"/>
<text text-anchor="start" x="2359" y="-18" font-family="Helvetica,sans-Serif" font-size="10.00">com.example.mybookshelf.data</text>
<text text-anchor="middle" x="2438" y="-7" font-family="Helvetica,sans-Serif" font-size="10.00">Class.Book</text>
</a>
</g>
</g>
<!-- Node1&#45;&gt;Node17 -->
<g id="edge16_Node000001_Node000017" class="edge">
<title>Node1&#45;&gt;Node17</title>
<g id="a_edge16_Node000001_Node000017"><a xlink:title=" ">
<path fill="none" stroke="#63b8ff" d="M1898.12,-83.15C2010.49,-70.63 2182.01,-50.94 2340.93,-30.12"/>
<polygon fill="#63b8ff" stroke="#63b8ff" points="2341.43,-33.58 2350.89,-28.81 2340.52,-26.64 2341.43,-33.58"/>
</a>
</g>
</g>
<!-- Node18 -->
<g id="Node000018" class="node">
<title>Node18</title>
<g id="a_Node000018"><a xlink:title=" ">
<polygon fill="#e0e0e0" stroke="#999999" points="2674.5,-24.5 2543.5,-24.5 2543.5,-5.5 2674.5,-5.5 2674.5,-24.5"/>
<text text-anchor="middle" x="2609" y="-12.5" font-family="Helvetica,sans-Serif" font-size="10.00">org.json.JSONException</text>
</a>
</g>
</g>
<!-- Node1&#45;&gt;Node18 -->
<g id="edge17_Node000001_Node000018" class="edge">
<title>Node1&#45;&gt;Node18</title>
<g id="a_edge17_Node000001_Node000018"><a xlink:title=" ">
<path fill="none" stroke="#63b8ff" d="M1898.17,-89.44C2048.32,-79.93 2310.68,-60.57 2534,-30 2541.48,-28.98 2549.35,-27.71 2557.07,-26.37"/>
<polygon fill="#63b8ff" stroke="#63b8ff" points="2557.85,-29.79 2567.07,-24.57 2556.61,-22.9 2557.85,-29.79"/>
</a>
</g>
</g>
<!-- Node19 -->
<g id="Node000019" class="node">
<title>Node19</title>
<g id="a_Node000019"><a xlink:title=" ">
<polygon fill="#e0e0e0" stroke="#999999" points="2807,-24.5 2693,-24.5 2693,-5.5 2807,-5.5 2807,-24.5"/>
<text text-anchor="middle" x="2750" y="-12.5" font-family="Helvetica,sans-Serif" font-size="10.00">org.json.JSONObject</text>
</a>
</g>
</g>
<!-- Node1&#45;&gt;Node19 -->
<g id="edge18_Node000001_Node000019" class="edge">
<title>Node1&#45;&gt;Node19</title>
<g id="a_edge18_Node000001_Node000019"><a xlink:title=" ">
<path fill="none" stroke="#63b8ff" d="M1898.1,-92.83C2072.96,-86.37 2404.47,-69.7 2684,-30 2690.62,-29.06 2697.58,-27.84 2704.38,-26.52"/>
<polygon fill="#63b8ff" stroke="#63b8ff" points="2705.09,-29.95 2714.19,-24.52 2703.69,-23.09 2705.09,-29.95"/>
</a>
</g>
</g>
<!-- Node20 -->
<g id="Node000020" class="node">
<title>Node20</title>
<g id="a_Node000020"><a xlink:title=" ">
<polygon fill="#e0e0e0" stroke="#999999" points="2928.5,-24.5 2825.5,-24.5 2825.5,-5.5 2928.5,-5.5 2928.5,-24.5"/>
<text text-anchor="middle" x="2877" y="-12.5" font-family="Helvetica,sans-Serif" font-size="10.00">java.util.ArrayList</text>
</a>
</g>
</g>
<!-- Node1&#45;&gt;Node20 -->
<g id="edge19_Node000001_Node000020" class="edge">
<title>Node1&#45;&gt;Node20</title>
<g id="a_edge19_Node000001_Node000020"><a xlink:title=" ">
<path fill="none" stroke="#63b8ff" d="M1898.35,-95.07C2093.44,-91.36 2486.58,-78.01 2816,-30 2821.92,-29.14 2828.12,-28 2834.2,-26.74"/>
<polygon fill="#63b8ff" stroke="#63b8ff" points="2835.24,-30.1 2844.26,-24.54 2833.74,-23.26 2835.24,-30.1"/>
</a>
</g>
</g>
<!-- Node21 -->
<g id="Node000021" class="node">
<title>Node21</title>
<g id="a_Node000021"><a xlink:title=" ">
<polygon fill="#e0e0e0" stroke="#999999" points="3047,-24.5 2947,-24.5 2947,-5.5 3047,-5.5 3047,-24.5"/>
<text text-anchor="middle" x="2997" y="-12.5" font-family="Helvetica,sans-Serif" font-size="10.00">java.util.HashSet</text>
</a>
</g>
</g>
<!-- Node1&#45;&gt;Node21 -->
<g id="edge20_Node000001_Node000021" class="edge">
<title>Node1&#45;&gt;Node21</title>
<g id="a_edge20_Node000001_Node000021"><a xlink:title=" ">
<path fill="none" stroke="#63b8ff" d="M1898.42,-96.54C2111.03,-95.05 2561.86,-84.95 2938,-30 2943.81,-29.15 2949.88,-28.01 2955.83,-26.74"/>
<polygon fill="#63b8ff" stroke="#63b8ff" points="2956.68,-30.14 2965.66,-24.52 2955.13,-23.31 2956.68,-30.14"/>
</a>
</g>
</g>
<!-- Node22 -->
<g id="Node000022" class="node">
<title>Node22</title>
<g id="a_Node000022"><a xlink:title=" ">
<polygon fill="#e0e0e0" stroke="#999999" points="3173,-24.5 3065,-24.5 3065,-5.5 3173,-5.5 3173,-24.5"/>
<text text-anchor="middle" x="3119" y="-12.5" font-family="Helvetica,sans-Serif" font-size="10.00">java.util.LinkedList</text>
</a>
</g>
</g>
<!-- Node1&#45;&gt;Node22 -->
<g id="edge21_Node000001_Node000022" class="edge">
<title>Node1&#45;&gt;Node22</title>
<g id="a_edge21_Node000001_Node000022"><a xlink:title=" ">
<path fill="none" stroke="#63b8ff" d="M1898.41,-96.91C2126.98,-96.17 2633.76,-87.47 3056,-30 3062.34,-29.14 3068.98,-27.96 3075.48,-26.66"/>
<polygon fill="#63b8ff" stroke="#63b8ff" points="3076.46,-30.03 3085.51,-24.53 3075,-23.18 3076.46,-30.03"/>
</a>
</g>
</g>
<!-- Node23 -->
<g id="Node000023" class="node">
<title>Node23</title>
<g id="a_Node000023"><a xlink:title=" ">
<polygon fill="#e0e0e0" stroke="#999999" points="3268.5,-24.5 3191.5,-24.5 3191.5,-5.5 3268.5,-5.5 3268.5,-24.5"/>
<text text-anchor="middle" x="3230" y="-12.5" font-family="Helvetica,sans-Serif" font-size="10.00">java.util.List</text>
</a>
</g>
</g>
<!-- Node1&#45;&gt;Node23 -->
<g id="edge22_Node000001_Node000023" class="edge">
<title>Node1&#45;&gt;Node23</title>
<g id="a_edge22_Node000001_Node000023"><a xlink:title=" ">
<path fill="none" stroke="#63b8ff" d="M1898.2,-94.43C2192.96,-88.83 2936.75,-70.97 3182,-30 3186.24,-29.29 3190.63,-28.33 3194.96,-27.25"/>
<polygon fill="#63b8ff" stroke="#63b8ff" points="3196.13,-30.56 3204.85,-24.55 3194.28,-23.81 3196.13,-30.56"/>
</a>
</g>
</g>
<!-- Node24 -->
<g id="Node000024" class="node">
<title>Node24</title>
<g id="a_Node000024"><a xlink:title=" ">
<polygon fill="#e0e0e0" stroke="#999999" points="3383,-24.5 3287,-24.5 3287,-5.5 3383,-5.5 3383,-24.5"/>
<text text-anchor="middle" x="3335" y="-12.5" font-family="Helvetica,sans-Serif" font-size="10.00">java.util.Objects</text>
</a>
</g>
</g>
<!-- Node1&#45;&gt;Node24 -->
<g id="edge23_Node000001_Node000024" class="edge">
<title>Node1&#45;&gt;Node24</title>
<g id="a_edge23_Node000001_Node000024"><a xlink:title=" ">
<path fill="none" stroke="#63b8ff" d="M1898.14,-94.19C2206.87,-87.85 3012.77,-68.07 3278,-30 3283.55,-29.2 3289.34,-28.1 3295.02,-26.87"/>
<polygon fill="#63b8ff" stroke="#63b8ff" points="3296.1,-30.21 3305.04,-24.53 3294.51,-23.39 3296.1,-30.21"/>
</a>
</g>
</g>
</g>
</svg>

<g id="navigator" transform="translate(0 0)" fill="#404254">
  <rect fill="#f2f5e9" fill-opacity="0.5" stroke="#606060" stroke-width=".5" x="0" y="0" width="60" height="60"/>
  <use id="zoomplus" xlink:href="#zoomPlus" x="17" y="9" onmousedown="handleZoom(evt,'in')"/>
  <use id="zoomminus" xlink:href="#zoomMin" x="42" y="9" onmousedown="handleZoom(evt,'out')"/>
  <use id="reset" xlink:href="#resetDef" x="30" y="36" onmousedown="handleReset()"/>
   <use id="arrowup" xlink:href="#arrowUp" x="0" y="0" onmousedown="handlePan(0,-1)"/>
  <use id="arrowright" xlink:href="#arrowRight" x="0" y="0" onmousedown="handlePan(1,0)"/>
  <use id="arrowdown" xlink:href="#arrowDown" x="0" y="0" onmousedown="handlePan(0,1)"/>
  <use id="arrowleft" xlink:href="#arrowLeft" x="0" y="0" onmousedown="handlePan(-1,0)"/>
</g>
<svg viewBox="0 0 15 15" width="100%" height="30px" preserveAspectRatio="xMaxYMin meet">
 <g id="arrow_out" transform="scale(0.3 0.3)">
  <a xlink:href="BookRecommendationFlow_8java__incl_org.svg" target="_base">
   <rect id="button" ry="5" rx="5" y="6" x="6" height="38" width="38"
        fill="#f2f5e9" fill-opacity="0.5" stroke="#606060" stroke-width="1.0"/>
   <path id="arrow"
     d="M 11.500037,31.436501 C 11.940474,20.09759 22.043105,11.32322 32.158766,21.979434 L 37.068811,17.246167 C 37.068811,17.246167 37.088388,32 37.088388,32 L 22.160133,31.978069 C 22.160133,31.978069 26.997745,27.140456 26.997745,27.140456 C 18.528582,18.264221 13.291696,25.230495 11.500037,31.436501 z"
     style="fill:#404040;"/>
  </a>
 </g>
</svg>

<style type='text/css'>
<![CDATA[
[data-mouse-over-selected='false'] { opacity: 0.7; }
[data-mouse-over-selected='true']  { opacity: 1.0; }
]]>
</style>
<script type="application/ecmascript"><![CDATA[
document.addEventListener('DOMContentLoaded', (event) => {
  highlightEdges();
  highlightAdjacentNodes();
});
]]></script>
</svg>
