<?xml version="1.0" encoding="UTF-8" standalone="no"?>
<!DOCTYPE svg PUBLIC "-//W3C//DTD SVG 1.1//EN"
 "http://www.w3.org/Graphics/SVG/1.1/DTD/svg11.dtd">
<!-- Generated by graphviz version 2.43.0 (0)
 -->
<!-- Title: /app/doc_state/github_reposRepoArchDocGenContext/EliasSchaffer/MyBookShelf/src/main/java/com/example/mybookshelf/apis/BooksAPI.java Pages: 1 -->
<svg width="2201pt" height="137pt"
 viewBox="0.00 0.00 2200.50 137.00" xmlns="http://www.w3.org/2000/svg" xmlns:xlink="http://www.w3.org/1999/xlink">
<g id="graph0" class="graph" transform="scale(1 1) rotate(0) translate(4 133)">
<title>/app/doc_state/github_reposRepoArchDocGenContext/EliasSchaffer/MyBookShelf/src/main/java/com/example/mybookshelf/apis/BooksAPI.java</title>
<!-- Node1 -->
<g id="Node000001" class="node">
<title>Node1</title>
<g id="a_Node000001"><a xlink:title=" ">
<polygon fill="#999999" stroke="#666666" points="1202,-129 1023,-129 1023,-66 1202,-66 1202,-129"/>
<text text-anchor="start" x="1031" y="-117" font-family="Helvetica,sans-Serif" font-size="10.00">/app/doc_state/github</text>
<text text-anchor="start" x="1031" y="-106" font-family="Helvetica,sans-Serif" font-size="10.00">_reposRepoArchDocGenContext</text>
<text text-anchor="start" x="1031" y="-95" font-family="Helvetica,sans-Serif" font-size="10.00">/EliasSchaffer/MyBookShelf</text>
<text text-anchor="start" x="1031" y="-84" font-family="Helvetica,sans-Serif" font-size="10.00">/src/main/java/com/example</text>
<text text-anchor="middle" x="1112.5" y="-73" font-family="Helvetica,sans-Serif" font-size="10.00">/mybookshelf/apis/BooksAPI.java</text>
</a>
</g>
</g>
<!-- Node2 -->
<g id="Node000002" class="node">
<title>Node2</title>
<g id="a_Node000002"><a xlink:title=" ">
<polygon fill="#e0e0e0" stroke="#999999" points="109,-24.5 0,-24.5 0,-5.5 109,-5.5 109,-24.5"/>
<text text-anchor="middle" x="54.5" y="-12.5" font-family="Helvetica,sans-Serif" font-size="10.00">android.os.Handler</text>
</a>
</g>
</g>
<!-- Node1&#45;&gt;Node2 -->
<g id="edge1_Node000001_Node000002" class="edge">
<title>Node1&#45;&gt;Node2</title>
<g id="a_edge1_Node000001_Node000002"><a xlink:title=" ">
<path fill="none" stroke="#63b8ff" d="M1022.94,-94.96C848.18,-90.97 449.84,-77.06 118.5,-30 112.14,-29.1 105.48,-27.91 98.95,-26.61"/>
<polygon fill="#63b8ff" stroke="#63b8ff" points="99.38,-23.13 88.87,-24.5 97.94,-29.98 99.38,-23.13"/>
</a>
</g>
</g>
<!-- Node3 -->
<g id="Node000003" class="node">
<title>Node3</title>
<g id="a_Node000003"><a xlink:title=" ">
<polygon fill="#e0e0e0" stroke="#999999" points="231.5,-24.5 127.5,-24.5 127.5,-5.5 231.5,-5.5 231.5,-24.5"/>
<text text-anchor="middle" x="179.5" y="-12.5" font-family="Helvetica,sans-Serif" font-size="10.00">android.os.Looper</text>
</a>
</g>
</g>
<!-- Node1&#45;&gt;Node3 -->
<g id="edge2_Node000001_Node000003" class="edge">
<title>Node1&#45;&gt;Node3</title>
<g id="a_edge2_Node000001_Node000003"><a xlink:title=" ">
<path fill="none" stroke="#63b8ff" d="M1022.87,-94.08C864.29,-88.82 524.2,-73.13 240.5,-30 234.65,-29.11 228.53,-27.97 222.52,-26.72"/>
<polygon fill="#63b8ff" stroke="#63b8ff" points="223.09,-23.26 212.57,-24.54 221.59,-30.1 223.09,-23.26"/>
</a>
</g>
</g>
<!-- Node4 -->
<g id="Node000004" class="node">
<title>Node4</title>
<g id="a_Node000004"><a xlink:title=" ">
<polygon fill="#e0e0e0" stroke="#999999" points="341.5,-24.5 249.5,-24.5 249.5,-5.5 341.5,-5.5 341.5,-24.5"/>
<text text-anchor="middle" x="295.5" y="-12.5" font-family="Helvetica,sans-Serif" font-size="10.00">android.util.Log</text>
</a>
</g>
</g>
<!-- Node1&#45;&gt;Node4 -->
<g id="edge3_Node000001_Node000004" class="edge">
<title>Node1&#45;&gt;Node4</title>
<g id="a_edge3_Node000001_Node000004"><a xlink:title=" ">
<path fill="none" stroke="#63b8ff" d="M1022.74,-93.38C879.65,-87.36 591.4,-70.89 350.5,-30 345.47,-29.15 340.22,-28.06 335.05,-26.88"/>
<polygon fill="#63b8ff" stroke="#63b8ff" points="335.83,-23.47 325.28,-24.52 334.18,-30.27 335.83,-23.47"/>
</a>
</g>
</g>
<!-- Node5 -->
<g id="Node000005" class="node">
<title>Node5</title>
<g id="a_Node000005"><a xlink:title=" ">
<polygon fill="#e0e0e0" stroke="#999999" points="533.5,-30 359.5,-30 359.5,0 533.5,0 533.5,-30"/>
<text text-anchor="start" x="367.5" y="-18" font-family="Helvetica,sans-Serif" font-size="10.00">com.example.mybookshelf.data</text>
<text text-anchor="middle" x="446.5" y="-7" font-family="Helvetica,sans-Serif" font-size="10.00">Class.Book</text>
</a>
</g>
</g>
<!-- Node1&#45;&gt;Node5 -->
<g id="edge4_Node000001_Node000005" class="edge">
<title>Node1&#45;&gt;Node5</title>
<g id="a_edge4_Node000001_Node000005"><a xlink:title=" ">
<path fill="none" stroke="#63b8ff" d="M1022.56,-86.81C912.24,-74.75 719.24,-53.05 543.55,-30.12"/>
<polygon fill="#63b8ff" stroke="#63b8ff" points="543.98,-26.64 533.61,-28.81 543.07,-33.58 543.98,-26.64"/>
</a>
</g>
</g>
<!-- Node6 -->
<g id="Node000006" class="node">
<title>Node6</title>
<g id="a_Node000006"><a xlink:title=" ">
<polygon fill="#e0e0e0" stroke="#999999" points="699,-24.5 552,-24.5 552,-5.5 699,-5.5 699,-24.5"/>
<text text-anchor="middle" x="625.5" y="-12.5" font-family="Helvetica,sans-Serif" font-size="10.00">java.io.InputStreamReader</text>
</a>
</g>
</g>
<!-- Node1&#45;&gt;Node6 -->
<g id="edge5_Node000001_Node000006" class="edge">
<title>Node1&#45;&gt;Node6</title>
<g id="a_edge5_Node000001_Node000006"><a xlink:title=" ">
<path fill="none" stroke="#63b8ff" d="M1022.79,-81.94C940.71,-68.57 815.9,-48.15 707.5,-30 700.35,-28.8 692.85,-27.54 685.42,-26.28"/>
<polygon fill="#63b8ff" stroke="#63b8ff" points="685.8,-22.79 675.36,-24.56 684.63,-29.69 685.8,-22.79"/>
</a>
</g>
</g>
<!-- Node7 -->
<g id="Node000007" class="node">
<title>Node7</title>
<g id="a_Node000007"><a xlink:title=" ">
<polygon fill="#e0e0e0" stroke="#999999" points="828,-24.5 717,-24.5 717,-5.5 828,-5.5 828,-24.5"/>
<text text-anchor="middle" x="772.5" y="-12.5" font-family="Helvetica,sans-Serif" font-size="10.00">java.io.IOException</text>
</a>
</g>
</g>
<!-- Node1&#45;&gt;Node7 -->
<g id="edge6_Node000001_Node000007" class="edge">
<title>Node1&#45;&gt;Node7</title>
<g id="a_edge6_Node000001_Node000007"><a xlink:title=" ">
<path fill="none" stroke="#63b8ff" d="M1022.72,-75.24C957.06,-59.7 870.68,-39.25 818.49,-26.89"/>
<polygon fill="#63b8ff" stroke="#63b8ff" points="819.06,-23.43 808.53,-24.53 817.45,-30.24 819.06,-23.43"/>
</a>
</g>
</g>
<!-- Node8 -->
<g id="Node000008" class="node">
<title>Node8</title>
<g id="a_Node000008"><a xlink:title=" ">
<polygon fill="#e0e0e0" stroke="#999999" points="1001,-24.5 846,-24.5 846,-5.5 1001,-5.5 1001,-24.5"/>
<text text-anchor="middle" x="923.5" y="-12.5" font-family="Helvetica,sans-Serif" font-size="10.00">java.net.HttpURLConnection</text>
</a>
</g>
</g>
<!-- Node1&#45;&gt;Node8 -->
<g id="edge7_Node000001_Node000008" class="edge">
<title>Node1&#45;&gt;Node8</title>
<g id="a_edge7_Node000001_Node000008"><a xlink:title=" ">
<path fill="none" stroke="#63b8ff" d="M1040.78,-65.95C1010.26,-52.95 976.37,-38.52 952.9,-28.52"/>
<polygon fill="#63b8ff" stroke="#63b8ff" points="954.09,-25.23 943.52,-24.53 951.35,-31.67 954.09,-25.23"/>
</a>
</g>
</g>
<!-- Node9 -->
<g id="Node000009" class="node">
<title>Node9</title>
<g id="a_Node000009"><a xlink:title=" ">
<polygon fill="#e0e0e0" stroke="#999999" points="1098,-24.5 1019,-24.5 1019,-5.5 1098,-5.5 1098,-24.5"/>
<text text-anchor="middle" x="1058.5" y="-12.5" font-family="Helvetica,sans-Serif" font-size="10.00">java.net.URL</text>
</a>
</g>
</g>
<!-- Node1&#45;&gt;Node9 -->
<g id="edge8_Node000001_Node000009" class="edge">
<title>Node1&#45;&gt;Node9</title>
<g id="a_edge8_Node000001_Node000009"><a xlink:title=" ">
<path fill="none" stroke="#63b8ff" d="M1091.78,-65.61C1084.37,-54.57 1076.3,-42.53 1069.96,-33.08"/>
<polygon fill="#63b8ff" stroke="#63b8ff" points="1072.76,-30.98 1064.29,-24.62 1066.95,-34.88 1072.76,-30.98"/>
</a>
</g>
</g>
<!-- Node10 -->
<g id="Node000010" class="node">
<title>Node10</title>
<g id="a_Node000010"><a xlink:title=" ">
<polygon fill="#e0e0e0" stroke="#999999" points="1219,-24.5 1116,-24.5 1116,-5.5 1219,-5.5 1219,-24.5"/>
<text text-anchor="middle" x="1167.5" y="-12.5" font-family="Helvetica,sans-Serif" font-size="10.00">java.util.ArrayList</text>
</a>
</g>
</g>
<!-- Node1&#45;&gt;Node10 -->
<g id="edge9_Node000001_Node000010" class="edge">
<title>Node1&#45;&gt;Node10</title>
<g id="a_edge9_Node000001_Node000010"><a xlink:title=" ">
<path fill="none" stroke="#63b8ff" d="M1133.61,-65.61C1141.15,-54.57 1149.37,-42.53 1155.83,-33.08"/>
<polygon fill="#63b8ff" stroke="#63b8ff" points="1158.86,-34.86 1161.61,-24.62 1153.08,-30.91 1158.86,-34.86"/>
</a>
</g>
</g>
<!-- Node11 -->
<g id="Node000011" class="node">
<title>Node11</title>
<g id="a_Node000011"><a xlink:title=" ">
<polygon fill="#e0e0e0" stroke="#999999" points="1314,-24.5 1237,-24.5 1237,-5.5 1314,-5.5 1314,-24.5"/>
<text text-anchor="middle" x="1275.5" y="-12.5" font-family="Helvetica,sans-Serif" font-size="10.00">java.util.List</text>
</a>
</g>
</g>
<!-- Node1&#45;&gt;Node11 -->
<g id="edge10_Node000001_Node000011" class="edge">
<title>Node1&#45;&gt;Node11</title>
<g id="a_edge10_Node000001_Node000011"><a xlink:title=" ">
<path fill="none" stroke="#63b8ff" d="M1174.59,-65.84C1200.41,-53.08 1229,-38.97 1249.13,-29.02"/>
<polygon fill="#63b8ff" stroke="#63b8ff" points="1250.87,-32.07 1258.29,-24.5 1247.77,-25.79 1250.87,-32.07"/>
</a>
</g>
</g>
<!-- Node12 -->
<g id="Node000012" class="node">
<title>Node12</title>
<g id="a_Node000012"><a xlink:title=" ">
<polygon fill="#e0e0e0" stroke="#999999" points="1430.5,-24.5 1332.5,-24.5 1332.5,-5.5 1430.5,-5.5 1430.5,-24.5"/>
<text text-anchor="middle" x="1381.5" y="-12.5" font-family="Helvetica,sans-Serif" font-size="10.00">java.util.Scanner</text>
</a>
</g>
</g>
<!-- Node1&#45;&gt;Node12 -->
<g id="edge11_Node000001_Node000012" class="edge">
<title>Node1&#45;&gt;Node12</title>
<g id="a_edge11_Node000001_Node000012"><a xlink:title=" ">
<path fill="none" stroke="#63b8ff" d="M1202.07,-69.69C1249.99,-55.35 1306.5,-38.44 1343.12,-27.49"/>
<polygon fill="#63b8ff" stroke="#63b8ff" points="1344.32,-30.78 1352.89,-24.56 1342.31,-24.07 1344.32,-30.78"/>
</a>
</g>
</g>
<!-- Node13 -->
<g id="Node000013" class="node">
<title>Node13</title>
<g id="a_Node000013"><a xlink:title=" ">
<polygon fill="#e0e0e0" stroke="#999999" points="1604.5,-30 1448.5,-30 1448.5,0 1604.5,0 1604.5,-30"/>
<text text-anchor="start" x="1456.5" y="-18" font-family="Helvetica,sans-Serif" font-size="10.00">java.util.concurrent.Executor</text>
<text text-anchor="middle" x="1526.5" y="-7" font-family="Helvetica,sans-Serif" font-size="10.00">Service</text>
</a>
</g>
</g>
<!-- Node1&#45;&gt;Node13 -->
<g id="edge12_Node000001_Node000013" class="edge">
<title>Node1&#45;&gt;Node13</title>
<g id="a_edge12_Node000001_Node000013"><a xlink:title=" ">
<path fill="none" stroke="#63b8ff" d="M1202.08,-79.08C1274.03,-65.09 1374.26,-45.6 1444.21,-32"/>
<polygon fill="#63b8ff" stroke="#63b8ff" points="1445.15,-35.38 1454.3,-30.04 1443.81,-28.51 1445.15,-35.38"/>
</a>
</g>
</g>
<!-- Node14 -->
<g id="Node000014" class="node">
<title>Node14</title>
<g id="a_Node000014"><a xlink:title=" ">
<polygon fill="#e0e0e0" stroke="#999999" points="1784,-24.5 1623,-24.5 1623,-5.5 1784,-5.5 1784,-24.5"/>
<text text-anchor="middle" x="1703.5" y="-12.5" font-family="Helvetica,sans-Serif" font-size="10.00">java.util.concurrent.Executors</text>
</a>
</g>
</g>
<!-- Node1&#45;&gt;Node14 -->
<g id="edge13_Node000001_Node000014" class="edge">
<title>Node1&#45;&gt;Node14</title>
<g id="a_edge13_Node000001_Node000014"><a xlink:title=" ">
<path fill="none" stroke="#63b8ff" d="M1202.18,-85.21C1302.49,-72.44 1469.77,-50.72 1613.5,-30 1622.03,-28.77 1631,-27.43 1639.85,-26.08"/>
<polygon fill="#63b8ff" stroke="#63b8ff" points="1640.4,-29.54 1649.75,-24.56 1639.34,-22.62 1640.4,-29.54"/>
</a>
</g>
</g>
<!-- Node15 -->
<g id="Node000015" class="node">
<title>Node15</title>
<g id="a_Node000015"><a xlink:title=" ">
<polygon fill="#e0e0e0" stroke="#999999" points="1911,-24.5 1802,-24.5 1802,-5.5 1911,-5.5 1911,-24.5"/>
<text text-anchor="middle" x="1856.5" y="-12.5" font-family="Helvetica,sans-Serif" font-size="10.00">org.json.JSONArray</text>
</a>
</g>
</g>
<!-- Node1&#45;&gt;Node15 -->
<g id="edge14_Node000001_Node000015" class="edge">
<title>Node1&#45;&gt;Node15</title>
<g id="a_edge14_Node000001_Node000015"><a xlink:title=" ">
<path fill="none" stroke="#63b8ff" d="M1202.18,-91.22C1332.84,-82.75 1582.93,-63.55 1793.5,-30 1799.38,-29.06 1805.54,-27.91 1811.6,-26.67"/>
<polygon fill="#63b8ff" stroke="#63b8ff" points="1812.6,-30.04 1821.66,-24.53 1811.15,-23.19 1812.6,-30.04"/>
</a>
</g>
</g>
<!-- Node16 -->
<g id="Node000016" class="node">
<title>Node16</title>
<g id="a_Node000016"><a xlink:title=" ">
<polygon fill="#e0e0e0" stroke="#999999" points="2060,-24.5 1929,-24.5 1929,-5.5 2060,-5.5 2060,-24.5"/>
<text text-anchor="middle" x="1994.5" y="-12.5" font-family="Helvetica,sans-Serif" font-size="10.00">org.json.JSONException</text>
</a>
</g>
</g>
<!-- Node1&#45;&gt;Node16 -->
<g id="edge15_Node000001_Node000016" class="edge">
<title>Node1&#45;&gt;Node16</title>
<g id="a_edge15_Node000001_Node000016"><a xlink:title=" ">
<path fill="none" stroke="#63b8ff" d="M1202.21,-92.2C1351.67,-84.34 1660.89,-65.14 1920.5,-30 1927.98,-28.99 1935.84,-27.72 1943.55,-26.36"/>
<polygon fill="#63b8ff" stroke="#63b8ff" points="1944.32,-29.78 1953.53,-24.54 1943.06,-22.9 1944.32,-29.78"/>
</a>
</g>
</g>
<!-- Node17 -->
<g id="Node000017" class="node">
<title>Node17</title>
<g id="a_Node000017"><a xlink:title=" ">
<polygon fill="#e0e0e0" stroke="#999999" points="2192.5,-24.5 2078.5,-24.5 2078.5,-5.5 2192.5,-5.5 2192.5,-24.5"/>
<text text-anchor="middle" x="2135.5" y="-12.5" font-family="Helvetica,sans-Serif" font-size="10.00">org.json.JSONObject</text>
</a>
</g>
</g>
<!-- Node1&#45;&gt;Node17 -->
<g id="edge16_Node000001_Node000017" class="edge">
<title>Node1&#45;&gt;Node17</title>
<g id="a_edge16_Node000001_Node000017"><a xlink:title=" ">
<path fill="none" stroke="#63b8ff" d="M1202.32,-94.44C1372.35,-89.61 1752.62,-74.4 2069.5,-30 2076.12,-29.07 2083.08,-27.86 2089.88,-26.54"/>
<polygon fill="#63b8ff" stroke="#63b8ff" points="2090.59,-29.97 2099.69,-24.55 2089.2,-23.11 2090.59,-29.97"/>
</a>
</g>
</g>
</g>
</svg>
