<?xml version="1.0" encoding="UTF-8" standalone="no"?>
<!DOCTYPE svg PUBLIC "-//W3C//DTD SVG 1.1//EN"
 "http://www.w3.org/Graphics/SVG/1.1/DTD/svg11.dtd">
<!-- Generated by graphviz version 2.43.0 (0)
 -->
<!-- Title: com.example.mybookshelf.UIMaster.navigateToStartingPage Pages: 1 -->
<svg width="971pt" height="132pt"
 viewBox="0.00 0.00 971.00 131.82" xmlns="http://www.w3.org/2000/svg" xmlns:xlink="http://www.w3.org/1999/xlink">
<g id="graph0" class="graph" transform="scale(1 1) rotate(0) translate(4 127.82)">
<title>com.example.mybookshelf.UIMaster.navigateToStartingPage</title>
<!-- Node1 -->
<g id="Node000001" class="node">
<title>Node1</title>
<g id="a_Node000001"><a xlink:title=" ">
<polygon fill="#999999" stroke="#666666" points="963,-89 785,-89 785,-59 963,-59 963,-89"/>
<text text-anchor="start" x="793" y="-77" font-family="Helvetica,sans-Serif" font-size="10.00">com.example.mybookshelf.</text>
<text text-anchor="middle" x="874" y="-66" font-family="Helvetica,sans-Serif" font-size="10.00">UIMaster.navigateToStartingPage</text>
</a>
</g>
</g>
<!-- Node2 -->
<g id="Node000002" class="node">
<title>Node2</title>
<g id="a_Node000002"><a xlink:href="classcom_1_1example_1_1mybookshelf_1_1UIMaster.html#ac2a608fcf86d3dbe14b4684dbbaf1431" target="_top" xlink:title=" ">
<polygon fill="white" stroke="#666666" points="354.5,-111 202.5,-111 202.5,-81 354.5,-81 354.5,-111"/>
<text text-anchor="start" x="210.5" y="-99" font-family="Helvetica,sans-Serif" font-size="10.00">com.example.mybookshelf.</text>
<text text-anchor="middle" x="278.5" y="-88" font-family="Helvetica,sans-Serif" font-size="10.00">UIMaster.navigateToDetails</text>
</a>
</g>
</g>
<!-- Node1&#45;&gt;Node2 -->
<g id="edge1_Node000001_Node000002" class="edge">
<title>Node1&#45;&gt;Node2</title>
<g id="a_edge1_Node000001_Node000002"><a xlink:title=" ">
<path fill="none" stroke="#63b8ff" d="M794.53,-90.96C701.57,-108.91 542.04,-132.99 405,-120 385.57,-118.16 364.66,-114.75 345.6,-111.06"/>
<polygon fill="#63b8ff" stroke="#63b8ff" points="795.28,-94.38 804.42,-89.03 793.93,-87.51 795.28,-94.38"/>
</a>
</g>
</g>
<!-- Node4 -->
<g id="Node000004" class="node">
<title>Node4</title>
<g id="a_Node000004"><a xlink:href="classcom_1_1example_1_1mybookshelf_1_1UIMaster.html#ad30bff41c8ec833af2293c0b6c8b47b2" target="_top" xlink:title=" ">
<polygon fill="white" stroke="#666666" points="749,-68 597,-68 597,-38 749,-38 749,-68"/>
<text text-anchor="start" x="605" y="-56" font-family="Helvetica,sans-Serif" font-size="10.00">com.example.mybookshelf.</text>
<text text-anchor="middle" x="673" y="-45" font-family="Helvetica,sans-Serif" font-size="10.00">UIMaster.navigateToGoals</text>
</a>
</g>
</g>
<!-- Node1&#45;&gt;Node4 -->
<g id="edge3_Node000001_Node000004" class="edge">
<title>Node1&#45;&gt;Node4</title>
<g id="a_edge3_Node000001_Node000004"><a xlink:title=" ">
<path fill="none" stroke="#63b8ff" d="M774.72,-63.63C766.08,-62.72 757.42,-61.8 749.02,-60.92"/>
<polygon fill="#63b8ff" stroke="#63b8ff" points="774.53,-67.13 784.85,-64.7 775.27,-60.17 774.53,-67.13"/>
</a>
</g>
</g>
<!-- Node5 -->
<g id="Node000005" class="node">
<title>Node5</title>
<g id="a_Node000005"><a xlink:href="classcom_1_1example_1_1mybookshelf_1_1UIMaster.html#ac859db60f9068e6a87b633ef697d4d0f" target="_top" xlink:title=" ">
<polygon fill="white" stroke="#666666" points="561,-111 405,-111 405,-81 561,-81 561,-111"/>
<text text-anchor="start" x="413" y="-99" font-family="Helvetica,sans-Serif" font-size="10.00">com.example.mybookshelf.</text>
<text text-anchor="middle" x="483" y="-88" font-family="Helvetica,sans-Serif" font-size="10.00">UIMaster.navigateToSettings</text>
</a>
</g>
</g>
<!-- Node1&#45;&gt;Node5 -->
<g id="edge11_Node000001_Node000005" class="edge">
<title>Node1&#45;&gt;Node5</title>
<g id="a_edge11_Node000001_Node000005"><a xlink:title=" ">
<path fill="none" stroke="#63b8ff" d="M774.69,-79.56C708.46,-83.31 622.34,-88.18 561.07,-91.64"/>
<polygon fill="#63b8ff" stroke="#63b8ff" points="774.94,-83.05 784.73,-78.99 774.55,-76.06 774.94,-83.05"/>
</a>
</g>
</g>
<!-- Node3 -->
<g id="Node000003" class="node">
<title>Node3</title>
<g id="a_Node000003"><a xlink:href="classcom_1_1example_1_1mybookshelf_1_1UIMaster.html#a1533d0ed2384f2ec729cfcec7bd9a25f" target="_top" xlink:title=" ">
<polygon fill="white" stroke="#666666" points="152,-111 0,-111 0,-81 152,-81 152,-111"/>
<text text-anchor="start" x="8" y="-99" font-family="Helvetica,sans-Serif" font-size="10.00">com.example.mybookshelf.</text>
<text text-anchor="middle" x="76" y="-88" font-family="Helvetica,sans-Serif" font-size="10.00">UIMaster.createBookBox</text>
</a>
</g>
</g>
<!-- Node2&#45;&gt;Node3 -->
<g id="edge2_Node000002_Node000003" class="edge">
<title>Node2&#45;&gt;Node3</title>
<g id="a_edge2_Node000002_Node000003"><a xlink:title=" ">
<path fill="none" stroke="#63b8ff" d="M192.22,-96C178.95,-96 165.34,-96 152.32,-96"/>
<polygon fill="#63b8ff" stroke="#63b8ff" points="192.27,-99.5 202.27,-96 192.27,-92.5 192.27,-99.5"/>
</a>
</g>
</g>
<!-- Node4&#45;&gt;Node2 -->
<g id="edge4_Node000004_Node000002" class="edge">
<title>Node4&#45;&gt;Node2</title>
<g id="a_edge4_Node000004_Node000002"><a xlink:title=" ">
<path fill="none" stroke="#63b8ff" d="M586.67,-56.51C534.13,-59.3 465.48,-64.09 405,-72 387.18,-74.33 368.08,-77.59 350.28,-80.95"/>
<polygon fill="#63b8ff" stroke="#63b8ff" points="587.15,-59.99 596.96,-55.97 586.79,-52.99 587.15,-59.99"/>
</a>
</g>
</g>
<!-- Node4&#45;&gt;Node5 -->
<g id="edge5_Node000004_Node000005" class="edge">
<title>Node4&#45;&gt;Node5</title>
<g id="a_edge5_Node000004_Node000005"><a xlink:title=" ">
<path fill="none" stroke="#63b8ff" d="M587.03,-65.71C565.44,-70.52 543.21,-75.95 524.95,-80.95"/>
<polygon fill="#63b8ff" stroke="#63b8ff" points="587.87,-69.11 596.89,-63.55 586.37,-62.27 587.87,-69.11"/>
</a>
</g>
</g>
<!-- Node6 -->
<g id="Node000006" class="node">
<title>Node6</title>
<g id="a_Node000006"><a xlink:href="classcom_1_1example_1_1mybookshelf_1_1UIMaster.html#aa6aad8404432bdaf23db9b41e99a6ed5" target="_top" xlink:title=" ">
<polygon fill="white" stroke="#666666" points="369,-30 188,-30 188,0 369,0 369,-30"/>
<text text-anchor="start" x="196" y="-18" font-family="Helvetica,sans-Serif" font-size="10.00">com.example.mybookshelf.</text>
<text text-anchor="middle" x="278.5" y="-7" font-family="Helvetica,sans-Serif" font-size="10.00">UIMaster.setupNavigationButtons</text>
</a>
</g>
</g>
<!-- Node4&#45;&gt;Node6 -->
<g id="edge10_Node000004_Node000006" class="edge">
<title>Node4&#45;&gt;Node6</title>
<g id="a_edge10_Node000004_Node000006"><a xlink:title=" ">
<path fill="none" stroke="#63b8ff" d="M586.67,-41.88C578,-40.86 569.33,-39.88 561,-39 496.98,-32.24 424.61,-26.1 369.28,-21.72"/>
<polygon fill="#63b8ff" stroke="#63b8ff" points="586.47,-45.38 596.81,-43.1 587.3,-38.43 586.47,-45.38"/>
</a>
</g>
</g>
<!-- Node5&#45;&gt;Node2 -->
<g id="edge6_Node000005_Node000002" class="edge">
<title>Node5&#45;&gt;Node2</title>
<g id="a_edge6_Node000005_Node000002"><a xlink:title=" ">
<path fill="none" stroke="#63b8ff" d="M394.76,-96C381.44,-96 367.78,-96 354.75,-96"/>
<polygon fill="#63b8ff" stroke="#63b8ff" points="394.87,-99.5 404.87,-96 394.87,-92.5 394.87,-99.5"/>
</a>
</g>
</g>
<!-- Node5&#45;&gt;Node4 -->
<g id="edge7_Node000005_Node000004" class="edge">
<title>Node5&#45;&gt;Node4</title>
<g id="a_edge7_Node000005_Node000004"><a xlink:title=" ">
<path fill="none" stroke="#63b8ff" d="M571.02,-82.83C592.02,-78.13 613.49,-72.86 631.21,-68.01"/>
<polygon fill="#63b8ff" stroke="#63b8ff" points="570.1,-79.45 561.09,-85.02 571.61,-86.28 570.1,-79.45"/>
</a>
</g>
</g>
<!-- Node5&#45;&gt;Node6 -->
<g id="edge8_Node000005_Node000006" class="edge">
<title>Node5&#45;&gt;Node6</title>
<g id="a_edge8_Node000005_Node000006"><a xlink:title=" ">
<path fill="none" stroke="#63b8ff" d="M434.66,-77.06C398.88,-62.75 350.44,-43.38 317.26,-30.1"/>
<polygon fill="#63b8ff" stroke="#63b8ff" points="433.8,-80.49 444.39,-80.95 436.4,-73.99 433.8,-80.49"/>
</a>
</g>
</g>
<!-- Node6&#45;&gt;Node1 -->
<g id="edge9_Node000006_Node000001" class="edge">
<title>Node6&#45;&gt;Node1</title>
<g id="a_edge9_Node000006_Node000001"><a xlink:title=" ">
<path fill="none" stroke="#63b8ff" d="M379.44,-8.52C475.22,-4.52 623.38,-4.15 749,-29 780.9,-35.31 815.56,-48.47 840.11,-58.93"/>
<polygon fill="#63b8ff" stroke="#63b8ff" points="379.02,-5.03 369.18,-8.97 379.32,-12.02 379.02,-5.03"/>
</a>
</g>
</g>
</g>
</svg>
