<?xml version="1.0" encoding="UTF-8" standalone="no"?>
<!DOCTYPE svg PUBLIC "-//W3C//DTD SVG 1.1//EN"
 "http://www.w3.org/Graphics/SVG/1.1/DTD/svg11.dtd">
<!-- Generated by graphviz version 2.43.0 (0)
 -->
<!-- Title: com.example.mybookshelf.notifications.NotificationScheduler.cancelOneTimeNotification Pages: 1 -->
<svg width="683pt" height="68pt"
 viewBox="0.00 0.00 683.00 68.00" xmlns="http://www.w3.org/2000/svg" xmlns:xlink="http://www.w3.org/1999/xlink">
<g id="graph0" class="graph" transform="scale(1 1) rotate(0) translate(4 64)">
<title>com.example.mybookshelf.notifications.NotificationScheduler.cancelOneTimeNotification</title>
<!-- Node1 -->
<g id="Node000001" class="node">
<title>Node1</title>
<g id="a_Node000001"><a xlink:title=" ">
<polygon fill="#999999" stroke="#666666" points="675,-60 420,-60 420,-30 675,-30 675,-60"/>
<text text-anchor="start" x="428" y="-48" font-family="Helvetica,sans-Serif" font-size="10.00">com.example.mybookshelf.notifications.</text>
<text text-anchor="middle" x="547.5" y="-37" font-family="Helvetica,sans-Serif" font-size="10.00">NotificationScheduler.cancelOneTimeNotification</text>
</a>
</g>
</g>
<!-- Node2 -->
<g id="Node000002" class="node">
<title>Node2</title>
<g id="a_Node000002"><a xlink:href="classcom_1_1example_1_1mybookshelf_1_1dataClass_1_1User.html#aeccdf2ba94dc9b82428e2339fce94f16" target="_top" xlink:title=" ">
<polygon fill="white" stroke="#666666" points="174,-60 0,-60 0,-30 174,-30 174,-60"/>
<text text-anchor="start" x="8" y="-48" font-family="Helvetica,sans-Serif" font-size="10.00">com.example.mybookshelf.data</text>
<text text-anchor="middle" x="87" y="-37" font-family="Helvetica,sans-Serif" font-size="10.00">Class.User.User</text>
</a>
</g>
</g>
<!-- Node1&#45;&gt;Node2 -->
<g id="edge1_Node000001_Node000002" class="edge">
<title>Node1&#45;&gt;Node2</title>
<g id="a_edge1_Node000001_Node000002"><a xlink:title=" ">
<path fill="none" stroke="#63b8ff" d="M409.53,-55.84C400.9,-56.3 392.33,-56.69 384,-57 306.72,-59.85 287.24,-60.79 210,-57 198.41,-56.43 186.23,-55.56 174.23,-54.54"/>
<polygon fill="#63b8ff" stroke="#63b8ff" points="409.91,-59.32 419.69,-55.27 409.52,-52.33 409.91,-59.32"/>
</a>
</g>
</g>
<!-- Node3 -->
<g id="Node000003" class="node">
<title>Node3</title>
<g id="a_Node000003"><a xlink:href="classcom_1_1example_1_1mybookshelf_1_1dataClass_1_1User.html#afb85fd04c8149bfb77f1810c9301b0bc" target="_top" xlink:title=" ">
<polygon fill="white" stroke="#666666" points="384,-30 210,-30 210,0 384,0 384,-30"/>
<text text-anchor="start" x="218" y="-18" font-family="Helvetica,sans-Serif" font-size="10.00">com.example.mybookshelf.data</text>
<text text-anchor="middle" x="297" y="-7" font-family="Helvetica,sans-Serif" font-size="10.00">Class.User.User</text>
</a>
</g>
</g>
<!-- Node1&#45;&gt;Node3 -->
<g id="edge2_Node000001_Node000003" class="edge">
<title>Node1&#45;&gt;Node3</title>
<g id="a_edge2_Node000001_Node000003"><a xlink:title=" ">
<path fill="none" stroke="#63b8ff" d="M412.31,-28.8C402.79,-27.65 393.35,-26.51 384.22,-25.41"/>
<polygon fill="#63b8ff" stroke="#63b8ff" points="411.9,-32.28 422.25,-30 412.74,-25.33 411.9,-32.28"/>
</a>
</g>
</g>
<!-- Node3&#45;&gt;Node2 -->
<g id="edge3_Node000003_Node000002" class="edge">
<title>Node3&#45;&gt;Node2</title>
<g id="a_edge3_Node000003_Node000002"><a xlink:title=" ">
<path fill="none" stroke="#63b8ff" d="M199.84,-28.87C191.23,-30.11 182.55,-31.36 174.04,-32.59"/>
<polygon fill="#63b8ff" stroke="#63b8ff" points="200.5,-32.31 209.9,-27.42 199.5,-25.38 200.5,-32.31"/>
</a>
</g>
</g>
<!-- Node3&#45;&gt;Node3 -->
<g id="edge4_Node000003_Node000003" class="edge">
<title>Node3&#45;&gt;Node3</title>
<g id="a_edge4_Node000003_Node000003"><a xlink:title=" ">
<path fill="none" stroke="#63b8ff" d="M333.76,-40.6C328.74,-44.97 316.48,-48 297,-48 264.19,-48 251.88,-39.41 260.09,-30.28"/>
<polygon fill="#63b8ff" stroke="#63b8ff" points="337.26,-40.33 333.91,-30.28 330.26,-40.22 337.26,-40.33"/>
</a>
</g>
</g>
</g>
</svg>
