<?xml version="1.0" encoding="UTF-8" standalone="no"?>
<!DOCTYPE svg PUBLIC "-//W3C//DTD SVG 1.1//EN"
 "http://www.w3.org/Graphics/SVG/1.1/DTD/svg11.dtd">
<!-- Generated by graphviz version 2.43.0 (0)
 -->
<!-- Title: com.example.mybookshelf.GoalHandler.handleBookAdded Pages: 1 -->
<svg width="386pt" height="422pt"
 viewBox="0.00 0.00 386.00 422.00" xmlns="http://www.w3.org/2000/svg" xmlns:xlink="http://www.w3.org/1999/xlink">
<g id="graph0" class="graph" transform="scale(1 1) rotate(0) translate(4 418)">
<title>com.example.mybookshelf.GoalHandler.handleBookAdded</title>
<!-- Node1 -->
<g id="Node000001" class="node">
<title>Node1</title>
<g id="a_Node000001"><a xlink:title=" ">
<polygon fill="#999999" stroke="#666666" points="168,-222 0,-222 0,-192 168,-192 168,-222"/>
<text text-anchor="start" x="8" y="-210" font-family="Helvetica,sans-Serif" font-size="10.00">com.example.mybookshelf.</text>
<text text-anchor="middle" x="84" y="-199" font-family="Helvetica,sans-Serif" font-size="10.00">GoalHandler.handleBookAdded</text>
</a>
</g>
</g>
<!-- Node2 -->
<g id="Node000002" class="node">
<title>Node2</title>
<g id="a_Node000002"><a xlink:href="classcom_1_1example_1_1mybookshelf_1_1dataClass_1_1Goal.html#a3b610e27f691556a8dcf5b8301b9a9d1" target="_top" xlink:title=" ">
<polygon fill="white" stroke="#666666" points="378,-414 204,-414 204,-384 378,-384 378,-414"/>
<text text-anchor="start" x="212" y="-402" font-family="Helvetica,sans-Serif" font-size="10.00">com.example.mybookshelf.data</text>
<text text-anchor="middle" x="291" y="-391" font-family="Helvetica,sans-Serif" font-size="10.00">Class.Goal.getBookName</text>
</a>
</g>
</g>
<!-- Node1&#45;&gt;Node2 -->
<g id="edge1_Node000001_Node000002" class="edge">
<title>Node1&#45;&gt;Node2</title>
<g id="a_edge1_Node000001_Node000002"><a xlink:title=" ">
<path fill="none" stroke="#63b8ff" d="M91.42,-222.19C106.19,-255.25 145.84,-334.06 204,-375 206.11,-376.48 208.3,-377.88 210.57,-379.18"/>
<polygon fill="#63b8ff" stroke="#63b8ff" points="209.1,-382.36 219.6,-383.81 212.29,-376.13 209.1,-382.36"/>
</a>
</g>
</g>
<!-- Node3 -->
<g id="Node000003" class="node">
<title>Node3</title>
<g id="a_Node000003"><a xlink:href="classcom_1_1example_1_1mybookshelf_1_1dataClass_1_1Goal.html#a1c80a58d3e1cd2e1ab6ef14c40d3b274" target="_top" xlink:title=" ">
<polygon fill="white" stroke="#666666" points="378,-366 204,-366 204,-336 378,-336 378,-366"/>
<text text-anchor="start" x="212" y="-354" font-family="Helvetica,sans-Serif" font-size="10.00">com.example.mybookshelf.data</text>
<text text-anchor="middle" x="291" y="-343" font-family="Helvetica,sans-Serif" font-size="10.00">Class.Goal.getGoal</text>
</a>
</g>
</g>
<!-- Node1&#45;&gt;Node3 -->
<g id="edge2_Node000001_Node000003" class="edge">
<title>Node1&#45;&gt;Node3</title>
<g id="a_edge2_Node000001_Node000003"><a xlink:title=" ">
<path fill="none" stroke="#63b8ff" d="M95.96,-222.4C115,-248 156.68,-299.22 204,-327 207.03,-328.78 210.2,-330.43 213.46,-331.97"/>
<polygon fill="#63b8ff" stroke="#63b8ff" points="212.28,-335.27 222.85,-335.99 215.03,-328.83 212.28,-335.27"/>
</a>
</g>
</g>
<!-- Node4 -->
<g id="Node000004" class="node">
<title>Node4</title>
<g id="a_Node000004"><a xlink:href="classcom_1_1example_1_1mybookshelf_1_1dataClass_1_1Goal.html#abcf308a0e49a9b60f6761102438d9d04" target="_top" xlink:title=" ">
<polygon fill="white" stroke="#666666" points="378,-318 204,-318 204,-288 378,-288 378,-318"/>
<text text-anchor="start" x="212" y="-306" font-family="Helvetica,sans-Serif" font-size="10.00">com.example.mybookshelf.data</text>
<text text-anchor="middle" x="291" y="-295" font-family="Helvetica,sans-Serif" font-size="10.00">Class.Goal.getId</text>
</a>
</g>
</g>
<!-- Node1&#45;&gt;Node4 -->
<g id="edge3_Node000001_Node000004" class="edge">
<title>Node1&#45;&gt;Node4</title>
<g id="a_edge3_Node000001_Node000004"><a xlink:title=" ">
<path fill="none" stroke="#63b8ff" d="M105.98,-222.12C129.04,-238.15 167.65,-263.28 204,-279 208.68,-281.02 213.58,-282.93 218.56,-284.7"/>
<polygon fill="#63b8ff" stroke="#63b8ff" points="217.62,-288.08 228.22,-287.96 219.86,-281.44 217.62,-288.08"/>
</a>
</g>
</g>
<!-- Node5 -->
<g id="Node000005" class="node">
<title>Node5</title>
<g id="a_Node000005"><a xlink:href="classcom_1_1example_1_1mybookshelf_1_1dataClass_1_1Book.html#a4109da1bdee13601576c6725d6e89e71" target="_top" xlink:title=" ">
<polygon fill="white" stroke="#666666" points="378,-270 204,-270 204,-240 378,-240 378,-270"/>
<text text-anchor="start" x="212" y="-258" font-family="Helvetica,sans-Serif" font-size="10.00">com.example.mybookshelf.data</text>
<text text-anchor="middle" x="291" y="-247" font-family="Helvetica,sans-Serif" font-size="10.00">Class.Book.getName</text>
</a>
</g>
</g>
<!-- Node1&#45;&gt;Node5 -->
<g id="edge4_Node000001_Node000005" class="edge">
<title>Node1&#45;&gt;Node5</title>
<g id="a_edge4_Node000001_Node000005"><a xlink:title=" ">
<path fill="none" stroke="#63b8ff" d="M149.3,-222.06C170.48,-227.01 194.2,-232.57 216.04,-237.68"/>
<polygon fill="#63b8ff" stroke="#63b8ff" points="215.39,-241.13 225.93,-240 216.99,-234.31 215.39,-241.13"/>
</a>
</g>
</g>
<!-- Node6 -->
<g id="Node000006" class="node">
<title>Node6</title>
<g id="a_Node000006"><a xlink:href="classcom_1_1example_1_1mybookshelf_1_1dataClass_1_1Book.html#af362f232851507c1d64779533639edf8" target="_top" xlink:title=" ">
<polygon fill="white" stroke="#666666" points="378,-222 204,-222 204,-192 378,-192 378,-222"/>
<text text-anchor="start" x="212" y="-210" font-family="Helvetica,sans-Serif" font-size="10.00">com.example.mybookshelf.data</text>
<text text-anchor="middle" x="291" y="-199" font-family="Helvetica,sans-Serif" font-size="10.00">Class.Book.getPages</text>
</a>
</g>
</g>
<!-- Node1&#45;&gt;Node6 -->
<g id="edge5_Node000001_Node000006" class="edge">
<title>Node1&#45;&gt;Node6</title>
<g id="a_edge5_Node000001_Node000006"><a xlink:title=" ">
<path fill="none" stroke="#63b8ff" d="M168.09,-207C176.54,-207 185.18,-207 193.76,-207"/>
<polygon fill="#63b8ff" stroke="#63b8ff" points="193.79,-210.5 203.79,-207 193.79,-203.5 193.79,-210.5"/>
</a>
</g>
</g>
<!-- Node7 -->
<g id="Node000007" class="node">
<title>Node7</title>
<g id="a_Node000007"><a xlink:href="classcom_1_1example_1_1mybookshelf_1_1dataClass_1_1Goal.html#a964cb06dadac4c69df6c931402733779" target="_top" xlink:title=" ">
<polygon fill="white" stroke="#666666" points="378,-174 204,-174 204,-144 378,-144 378,-174"/>
<text text-anchor="start" x="212" y="-162" font-family="Helvetica,sans-Serif" font-size="10.00">com.example.mybookshelf.data</text>
<text text-anchor="middle" x="291" y="-151" font-family="Helvetica,sans-Serif" font-size="10.00">Class.Goal.getProgress</text>
</a>
</g>
</g>
<!-- Node1&#45;&gt;Node7 -->
<g id="edge6_Node000001_Node000007" class="edge">
<title>Node1&#45;&gt;Node7</title>
<g id="a_edge6_Node000001_Node000007"><a xlink:title=" ">
<path fill="none" stroke="#63b8ff" d="M149.3,-191.94C170.48,-186.99 194.2,-181.43 216.04,-176.32"/>
<polygon fill="#63b8ff" stroke="#63b8ff" points="216.99,-179.69 225.93,-174 215.39,-172.87 216.99,-179.69"/>
</a>
</g>
</g>
<!-- Node8 -->
<g id="Node000008" class="node">
<title>Node8</title>
<g id="a_Node000008"><a xlink:href="classcom_1_1example_1_1mybookshelf_1_1dataClass_1_1Book.html#a7c4ec1f3e154fad200b64643574e5c9c" target="_top" xlink:title=" ">
<polygon fill="white" stroke="#666666" points="378,-126 204,-126 204,-96 378,-96 378,-126"/>
<text text-anchor="start" x="212" y="-114" font-family="Helvetica,sans-Serif" font-size="10.00">com.example.mybookshelf.data</text>
<text text-anchor="middle" x="291" y="-103" font-family="Helvetica,sans-Serif" font-size="10.00">Class.Book.getStatus</text>
</a>
</g>
</g>
<!-- Node1&#45;&gt;Node8 -->
<g id="edge7_Node000001_Node000008" class="edge">
<title>Node1&#45;&gt;Node8</title>
<g id="a_edge7_Node000001_Node000008"><a xlink:title=" ">
<path fill="none" stroke="#63b8ff" d="M105.98,-191.88C129.04,-175.85 167.65,-150.72 204,-135 208.68,-132.98 213.58,-131.07 218.56,-129.3"/>
<polygon fill="#63b8ff" stroke="#63b8ff" points="219.86,-132.56 228.22,-126.04 217.62,-125.92 219.86,-132.56"/>
</a>
</g>
</g>
<!-- Node9 -->
<g id="Node000009" class="node">
<title>Node9</title>
<g id="a_Node000009"><a xlink:href="classcom_1_1example_1_1mybookshelf_1_1dataClass_1_1Goal.html#a84c2af13824c14a2b6c3dcf25a493d0f" target="_top" xlink:title=" ">
<polygon fill="white" stroke="#666666" points="378,-78 204,-78 204,-48 378,-48 378,-78"/>
<text text-anchor="start" x="212" y="-66" font-family="Helvetica,sans-Serif" font-size="10.00">com.example.mybookshelf.data</text>
<text text-anchor="middle" x="291" y="-55" font-family="Helvetica,sans-Serif" font-size="10.00">Class.Goal.getTarget</text>
</a>
</g>
</g>
<!-- Node1&#45;&gt;Node9 -->
<g id="edge8_Node000001_Node000009" class="edge">
<title>Node1&#45;&gt;Node9</title>
<g id="a_edge8_Node000001_Node000009"><a xlink:title=" ">
<path fill="none" stroke="#63b8ff" d="M95.96,-191.6C115,-166 156.68,-114.78 204,-87 207.03,-85.22 210.2,-83.57 213.46,-82.03"/>
<polygon fill="#63b8ff" stroke="#63b8ff" points="215.03,-85.17 222.85,-78.01 212.28,-78.73 215.03,-85.17"/>
</a>
</g>
</g>
<!-- Node10 -->
<g id="Node000010" class="node">
<title>Node10</title>
<g id="a_Node000010"><a xlink:href="classcom_1_1example_1_1mybookshelf_1_1dataClass_1_1Goal.html#a695831f2ac1529bf5e48ea738b00aaec" target="_top" xlink:title=" ">
<polygon fill="white" stroke="#666666" points="378,-30 204,-30 204,0 378,0 378,-30"/>
<text text-anchor="start" x="212" y="-18" font-family="Helvetica,sans-Serif" font-size="10.00">com.example.mybookshelf.data</text>
<text text-anchor="middle" x="291" y="-7" font-family="Helvetica,sans-Serif" font-size="10.00">Class.Goal.setProgress</text>
</a>
</g>
</g>
<!-- Node1&#45;&gt;Node10 -->
<g id="edge9_Node000001_Node000010" class="edge">
<title>Node1&#45;&gt;Node10</title>
<g id="a_edge9_Node000001_Node000010"><a xlink:title=" ">
<path fill="none" stroke="#63b8ff" d="M91.42,-191.81C106.19,-158.75 145.84,-79.94 204,-39 206.11,-37.52 208.3,-36.12 210.57,-34.82"/>
<polygon fill="#63b8ff" stroke="#63b8ff" points="212.29,-37.87 219.6,-30.19 209.1,-31.64 212.29,-37.87"/>
</a>
</g>
</g>
</g>
</svg>
