<?xml version="1.0" encoding="UTF-8" standalone="no"?>
<!DOCTYPE svg PUBLIC "-//W3C//DTD SVG 1.1//EN"
 "http://www.w3.org/Graphics/SVG/1.1/DTD/svg11.dtd">
<!-- Generated by graphviz version 2.43.0 (0)
 -->
<!-- Title: com.example.mybookshelf.apis.AiAPI Pages: 1 -->
<svg width="502pt" height="186pt"
 viewBox="0.00 0.00 501.50 186.00" xmlns="http://www.w3.org/2000/svg" xmlns:xlink="http://www.w3.org/1999/xlink">
<g id="graph0" class="graph" transform="scale(1 1) rotate(0) translate(4 182)">
<title>com.example.mybookshelf.apis.AiAPI</title>
<!-- Node1 -->
<g id="Node000001" class="node">
<title>Node1</title>
<g id="a_Node000001"><a xlink:title=" ">
<polygon fill="#999999" stroke="transparent" points="272.5,-60 102.5,-60 102.5,0 272.5,0 272.5,-60"/>
<text text-anchor="start" x="107.5" y="-48" font-family="Helvetica,sans-Serif" font-size="10.00">com.example.mybookshelf.apis.</text>
<text text-anchor="start" x="174.5" y="-37" font-family="Helvetica,sans-Serif" font-size="10.00">AiAPI</text>
<text text-anchor="start" x="185.5" y="-22" font-family="Helvetica,sans-Serif" font-size="10.00"> </text>
<text text-anchor="start" x="123.5" y="-7" font-family="Helvetica,sans-Serif" font-size="10.00">+</text>
<text text-anchor="start" x="153.5" y="-7" font-family="Helvetica,sans-Serif" font-size="10.00">fetchResponse()</text>
<polygon fill="#666666" stroke="#666666" points="102.5,-32 102.5,-32 272.5,-32 272.5,-32 102.5,-32"/>
<polygon fill="#666666" stroke="#666666" points="102.5,-17 102.5,-17 272.5,-17 272.5,-17 102.5,-17"/>
<polygon fill="none" stroke="#666666" points="102.5,0 102.5,-60 272.5,-60 272.5,0 102.5,0"/>
</a>
</g>
</g>
<!-- Node2 -->
<g id="Node000002" class="node">
<title>Node2</title>
<g id="a_Node000002"><a xlink:title=" ">
<polygon fill="white" stroke="transparent" points="39,-172.5 0,-172.5 0,-123.5 39,-123.5 39,-172.5"/>
<text text-anchor="start" x="5.5" y="-160" font-family="Helvetica,sans-Serif" font-size="10.00">String</text>
<text text-anchor="start" x="18" y="-145" font-family="Helvetica,sans-Serif" font-size="10.00"> </text>
<text text-anchor="start" x="18" y="-130" font-family="Helvetica,sans-Serif" font-size="10.00"> </text>
<polygon fill="#666666" stroke="#666666" points="0.5,-155 0.5,-155 39.5,-155 39.5,-155 0.5,-155"/>
<polygon fill="#666666" stroke="#666666" points="0.5,-140 0.5,-140 39.5,-140 39.5,-140 0.5,-140"/>
<polygon fill="none" stroke="#666666" points="0,-123.5 0,-172.5 39,-172.5 39,-123.5 0,-123.5"/>
</a>
</g>
</g>
<!-- Node2&#45;&gt;Node1 -->
<g id="edge1_Node000001_Node000002" class="edge">
<title>Node2&#45;&gt;Node1</title>
<g id="a_edge1_Node000001_Node000002"><a xlink:title=" ">
<path fill="none" stroke="#63b8ff" d="M39.19,-126.73C42.25,-123.75 45.42,-120.75 48.5,-118 69.71,-99.02 74.7,-93.6 98.5,-78 104.73,-73.91 111.36,-69.88 118.08,-66.01"/>
<polygon fill="none" stroke="#63b8ff" points="118.2,-65.93 121.47,-59.51 128.66,-60.05 125.39,-66.48 118.2,-65.93"/>
</a>
</g>
<text text-anchor="middle" x="122" y="-92" font-family="Helvetica,sans-Serif" font-size="10.00" fill="grey"> &#45;API_KEY</text>
<text text-anchor="middle" x="122" y="-81" font-family="Helvetica,sans-Serif" font-size="10.00" fill="grey">&#45;API_URL</text>
</g>
<!-- Node3 -->
<g id="Node000003" class="node">
<title>Node3</title>
<g id="a_Node000003"><a xlink:title=" ">
<polygon fill="white" stroke="transparent" points="185.5,-172.5 57.5,-172.5 57.5,-123.5 185.5,-123.5 185.5,-172.5"/>
<text text-anchor="start" x="62.5" y="-160" font-family="Helvetica,sans-Serif" font-size="10.00">static final OkHttpClient</text>
<text text-anchor="start" x="119.5" y="-145" font-family="Helvetica,sans-Serif" font-size="10.00"> </text>
<text text-anchor="start" x="119.5" y="-130" font-family="Helvetica,sans-Serif" font-size="10.00"> </text>
<polygon fill="#666666" stroke="#666666" points="57.5,-155 57.5,-155 185.5,-155 185.5,-155 57.5,-155"/>
<polygon fill="#666666" stroke="#666666" points="57.5,-140 57.5,-140 185.5,-140 185.5,-140 57.5,-140"/>
<polygon fill="none" stroke="#666666" points="57.5,-123.5 57.5,-172.5 185.5,-172.5 185.5,-123.5 57.5,-123.5"/>
</a>
</g>
</g>
<!-- Node3&#45;&gt;Node1 -->
<g id="edge2_Node000001_Node000003" class="edge">
<title>Node3&#45;&gt;Node1</title>
<g id="a_edge2_Node000001_Node000003"><a xlink:title=" ">
<path fill="none" stroke="#63b8ff" d="M135.02,-123.25C143.64,-108.1 155.02,-88.09 164.98,-70.58"/>
<polygon fill="none" stroke="#63b8ff" points="165.03,-70.5 164.52,-63.31 170.96,-60.07 171.47,-67.26 165.03,-70.5"/>
</a>
</g>
<text text-anchor="middle" x="177.5" y="-86.5" font-family="Helvetica,sans-Serif" font-size="10.00" fill="grey"> &#45;client</text>
</g>
<!-- Node4 -->
<g id="Node000004" class="node">
<title>Node4</title>
<g id="a_Node000004"><a xlink:title=" ">
<polygon fill="white" stroke="transparent" points="305,-172.5 204,-172.5 204,-123.5 305,-123.5 305,-172.5"/>
<text text-anchor="start" x="209.5" y="-160" font-family="Helvetica,sans-Serif" font-size="10.00">static final Retrofit</text>
<text text-anchor="start" x="253" y="-145" font-family="Helvetica,sans-Serif" font-size="10.00"> </text>
<text text-anchor="start" x="253" y="-130" font-family="Helvetica,sans-Serif" font-size="10.00"> </text>
<polygon fill="#666666" stroke="#666666" points="204.5,-155 204.5,-155 305.5,-155 305.5,-155 204.5,-155"/>
<polygon fill="#666666" stroke="#666666" points="204.5,-140 204.5,-140 305.5,-140 305.5,-140 204.5,-140"/>
<polygon fill="none" stroke="#666666" points="204,-123.5 204,-172.5 305,-172.5 305,-123.5 204,-123.5"/>
</a>
</g>
</g>
<!-- Node4&#45;&gt;Node1 -->
<g id="edge3_Node000001_Node000004" class="edge">
<title>Node4&#45;&gt;Node1</title>
<g id="a_edge3_Node000001_Node000004"><a xlink:title=" ">
<path fill="none" stroke="#63b8ff" d="M240.78,-123.25C232.03,-108.1 220.47,-88.09 210.36,-70.58"/>
<polygon fill="none" stroke="#63b8ff" points="210.29,-70.46 203.83,-67.26 204.29,-60.07 210.75,-63.26 210.29,-70.46"/>
</a>
</g>
<text text-anchor="middle" x="246.5" y="-86.5" font-family="Helvetica,sans-Serif" font-size="10.00" fill="grey"> &#45;retrofit</text>
</g>
<!-- Node5 -->
<g id="Node000005" class="node">
<title>Node5</title>
<g id="a_Node000005"><a xlink:href="interfacecom_1_1example_1_1mybookshelf_1_1apis_1_1AiAPI_1_1AiService.html" target="_top" xlink:title=" ">
<polygon fill="white" stroke="transparent" points="493.5,-178 323.5,-178 323.5,-118 493.5,-118 493.5,-178"/>
<text text-anchor="start" x="328.5" y="-166" font-family="Helvetica,sans-Serif" font-size="10.00">com.example.mybookshelf.apis.</text>
<text text-anchor="start" x="371" y="-155" font-family="Helvetica,sans-Serif" font-size="10.00">AiAPI.AiService</text>
<text text-anchor="start" x="406.5" y="-140" font-family="Helvetica,sans-Serif" font-size="10.00"> </text>
<text text-anchor="start" x="349" y="-125" font-family="Helvetica,sans-Serif" font-size="10.00">+</text>
<text text-anchor="start" x="383.5" y="-125" font-family="Helvetica,sans-Serif" font-size="10.00">fetchBooks()</text>
<polygon fill="#666666" stroke="#666666" points="323.5,-150 323.5,-150 493.5,-150 493.5,-150 323.5,-150"/>
<polygon fill="#666666" stroke="#666666" points="323.5,-135 323.5,-135 493.5,-135 493.5,-135 323.5,-135"/>
<polygon fill="none" stroke="#666666" points="323.5,-118 323.5,-178 493.5,-178 493.5,-118 323.5,-118"/>
</a>
</g>
</g>
<!-- Node5&#45;&gt;Node1 -->
<g id="edge4_Node000001_Node000005" class="edge">
<title>Node5&#45;&gt;Node1</title>
<g id="a_edge4_Node000001_Node000005"><a xlink:title=" ">
<path fill="none" stroke="#63b8ff" d="M353.02,-117.88C322.94,-102.09 285.55,-82.47 253.93,-65.87"/>
<polygon fill="none" stroke="#63b8ff" points="253.63,-65.71 246.46,-66.46 243.01,-60.13 250.18,-59.38 253.63,-65.71"/>
</a>
</g>
<text text-anchor="middle" x="343.5" y="-86.5" font-family="Helvetica,sans-Serif" font-size="10.00" fill="grey"> &#45;aiService</text>
</g>
</g>
</svg>
