<?xml version="1.0" encoding="UTF-8" standalone="no"?>
<!DOCTYPE svg PUBLIC "-//W3C//DTD SVG 1.1//EN"
 "http://www.w3.org/Graphics/SVG/1.1/DTD/svg11.dtd">
<!-- Generated by graphviz version 2.43.0 (0)
 -->
<!-- Title: com.example.mybookshelf.MainActivity.onCreate Pages: 1 -->
<svg width="441pt" height="98pt"
 viewBox="0.00 0.00 441.00 97.50" xmlns="http://www.w3.org/2000/svg" xmlns:xlink="http://www.w3.org/1999/xlink">
<g id="graph0" class="graph" transform="scale(1 1) rotate(0) translate(4 93.5)">
<title>com.example.mybookshelf.MainActivity.onCreate</title>
<!-- Node1 -->
<g id="Node000001" class="node">
<title>Node1</title>
<g id="a_Node000001"><a xlink:title=" ">
<polygon fill="#999999" stroke="#666666" points="152,-62.5 0,-62.5 0,-32.5 152,-32.5 152,-62.5"/>
<text text-anchor="start" x="8" y="-50.5" font-family="Helvetica,sans-Serif" font-size="10.00">com.example.mybookshelf.</text>
<text text-anchor="middle" x="76" y="-39.5" font-family="Helvetica,sans-Serif" font-size="10.00">MainActivity.onCreate</text>
</a>
</g>
</g>
<!-- Node2 -->
<g id="Node000002" class="node">
<title>Node2</title>
<g id="a_Node000002"><a xlink:href="classcom_1_1example_1_1mybookshelf_1_1Authenticator.html#a57eb5913cd07c88e3f0771b4bf88bc0c" target="_top" xlink:title=" ">
<polygon fill="white" stroke="#666666" points="394.5,-89.5 226.5,-89.5 226.5,-59.5 394.5,-59.5 394.5,-89.5"/>
<text text-anchor="start" x="234.5" y="-77.5" font-family="Helvetica,sans-Serif" font-size="10.00">com.example.mybookshelf.</text>
<text text-anchor="middle" x="310.5" y="-66.5" font-family="Helvetica,sans-Serif" font-size="10.00">Authenticator.clearStoredToken</text>
</a>
</g>
</g>
<!-- Node1&#45;&gt;Node2 -->
<g id="edge1_Node000001_Node000002" class="edge">
<title>Node1&#45;&gt;Node2</title>
<g id="a_edge1_Node000001_Node000002"><a xlink:title=" ">
<path fill="none" stroke="#63b8ff" d="M152.17,-56.23C172.55,-58.6 194.87,-61.19 216.13,-63.66"/>
<polygon fill="#63b8ff" stroke="#63b8ff" points="215.8,-67.14 226.14,-64.82 216.61,-60.19 215.8,-67.14"/>
</a>
</g>
</g>
<!-- Node3 -->
<g id="Node000003" class="node">
<title>Node3</title>
<g id="a_Node000003"><a xlink:href="classcom_1_1example_1_1mybookshelf_1_1notifications_1_1NotificationChannelManager.html#ab57e2b123ed881523d1e0465605396b3" target="_top" xlink:title=" ">
<polygon fill="white" stroke="#666666" points="433,-41 188,-41 188,0 433,0 433,-41"/>
<text text-anchor="start" x="196" y="-29" font-family="Helvetica,sans-Serif" font-size="10.00">com.example.mybookshelf.notifications.</text>
<text text-anchor="start" x="196" y="-18" font-family="Helvetica,sans-Serif" font-size="10.00">NotificationChannelManager.createNotification</text>
<text text-anchor="middle" x="310.5" y="-7" font-family="Helvetica,sans-Serif" font-size="10.00">Channels</text>
</a>
</g>
</g>
<!-- Node1&#45;&gt;Node3 -->
<g id="edge2_Node000001_Node000003" class="edge">
<title>Node1&#45;&gt;Node3</title>
<g id="a_edge2_Node000001_Node000003"><a xlink:title=" ">
<path fill="none" stroke="#63b8ff" d="M152.17,-38.77C160.37,-37.82 168.88,-36.83 177.51,-35.83"/>
<polygon fill="#63b8ff" stroke="#63b8ff" points="178.16,-39.28 187.69,-34.65 177.35,-32.32 178.16,-39.28"/>
</a>
</g>
</g>
</g>
</svg>
