<?xml version="1.0" encoding="UTF-8" standalone="no"?>
<!DOCTYPE svg PUBLIC "-//W3C//DTD SVG 1.1//EN"
 "http://www.w3.org/Graphics/SVG/1.1/DTD/svg11.dtd">
<!-- Generated by graphviz version 2.43.0 (0)
 -->
<!-- Title: com.example.mybookshelf.BookRecommendationFlow.callAI Pages: 1 -->
<!--zoomable 943 -->

<svg id="main" version="1.1" xmlns="http://www.w3.org/2000/svg" xmlns:xlink="http://www.w3.org/1999/xlink" xml:space="preserve" onload="init(evt)">

<style type="text/css"><![CDATA[
.node, .edge {opacity: 0.7;}
.node.selected, .edge.selected {opacity: 1;}
.edge:hover path { stroke: red; }
.edge:hover polygon { stroke: red; fill: red; }
]]></style>

<defs>
  <circle id="rim" cx="0" cy="0" r="7"/>
  <circle id="rim2" cx="0" cy="0" r="3.5"/>
  <g id="zoomPlus">
    <use xlink:href="#rim" fill="#404040"><set attributeName="fill" to="#808080" begin="zoomplus.mouseover" end="zoomplus.mouseout"/></use>
    <path d="M-4,0h8M0,-4v8" fill="none" stroke="white" stroke-width="1.5" pointer-events="none"/>
  </g>
  <g id="zoomMin">
    <use xlink:href="#rim" fill="#404040"><set attributeName="fill" to="#808080" begin="zoomminus.mouseover" end="zoomminus.mouseout"/></use>
    <path d="M-4,0h8" fill="none" stroke="white" stroke-width="1.5" pointer-events="none"/>
  </g>
  <g id="arrowUp" transform="translate(30 24)">
    <use xlink:href="#rim"/>
    <path pointer-events="none" fill="none" stroke="white" stroke-width="1.5" d="M0,-3.0v7 M-2.5,-0.5L0,-3.0L2.5,-0.5"/>
  </g>
  <g id="arrowRight" transform="rotate(90) translate(36 -43)">
    <use xlink:href="#rim"/>
    <path pointer-events="none" fill="none" stroke="white" stroke-width="1.5" d="M0,-3.0v7 M-2.5,-0.5L0,-3.0L2.5,-0.5"/>
  </g>
  <g id="arrowDown" transform="rotate(180) translate(-30 -48)">
    <use xlink:href="#rim"/>
    <path pointer-events="none" fill="none" stroke="white" stroke-width="1.5" d="M0,-3.0v7 M-2.5,-0.5L0,-3.0L2.5,-0.5"/>
  </g>
  <g id="arrowLeft" transform="rotate(270) translate(-36 17)">
    <use xlink:href="#rim"/>
    <path pointer-events="none" fill="none" stroke="white" stroke-width="1.5" d="M0,-3.0v7 M-2.5,-0.5L0,-3.0L2.5,-0.5"/>
  </g>
  <g id="resetDef">
    <use xlink:href="#rim2" fill="#404040"><set attributeName="fill" to="#808080" begin="reset.mouseover" end="reset.mouseout"/></use>
  </g>
</defs>
<script type="application/ecmascript">
var viewWidth = 2112;
var viewHeight = 943;
var sectionId = 'dynsection-6';
</script>
<script type="application/ecmascript" xlink:href="svg.min.js"/>
<svg id="graph" class="graph">
<g id="viewport">
<title>com.example.mybookshelf.BookRecommendationFlow.callAI</title>
<!-- Node1 -->
<g id="Node000001" class="node">
<title>Node1</title>
<g id="a_Node000001"><a xlink:title=" ">
<polygon fill="#999999" stroke="#666666" points="180,-230.5 0,-230.5 0,-200.5 180,-200.5 180,-230.5"/>
<text text-anchor="start" x="8" y="-218.5" font-family="Helvetica,sans-Serif" font-size="10.00">com.example.mybookshelf.</text>
<text text-anchor="middle" x="90" y="-207.5" font-family="Helvetica,sans-Serif" font-size="10.00">BookRecommendationFlow.callAI</text>
</a>
</g>
</g>
<!-- Node1&#45;&gt;Node1 -->
<g id="edge2_Node000001_Node000001" class="edge">
<title>Node1&#45;&gt;Node1</title>
<g id="a_edge2_Node000001_Node000001"><a xlink:title=" ">
<path fill="none" stroke="#63b8ff" d="M48.52,-230.78C39.3,-239.91 53.12,-248.5 90,-248.5 111.89,-248.5 125.66,-245.47 131.31,-241.1"/>
<polygon fill="#63b8ff" stroke="#63b8ff" points="134.81,-240.83 131.48,-230.78 127.81,-240.71 134.81,-240.83"/>
</a>
</g>
</g>
<!-- Node2 -->
<g id="Node000002" class="node">
<title>Node2</title>
<g id="a_Node000002"><a xlink:href="classcom_1_1example_1_1mybookshelf_1_1BookRecommendationFlow.html#a3855117e802e54923c308e0df6280c17" target="_top" xlink:title=" ">
<polygon fill="white" stroke="#666666" points="2104,-746 1910,-746 1910,-705 2104,-705 2104,-746"/>
<text text-anchor="start" x="1918" y="-734" font-family="Helvetica,sans-Serif" font-size="10.00">com.example.mybookshelf.</text>
<text text-anchor="start" x="1918" y="-723" font-family="Helvetica,sans-Serif" font-size="10.00">BookRecommendationFlow.addChat</text>
<text text-anchor="middle" x="2007" y="-712" font-family="Helvetica,sans-Serif" font-size="10.00">Message</text>
</a>
</g>
</g>
<!-- Node1&#45;&gt;Node2 -->
<g id="edge1_Node000001_Node000002" class="edge">
<title>Node1&#45;&gt;Node2</title>
<g id="a_edge1_Node000001_Node000002"><a xlink:title=" ">
<path fill="none" stroke="#63b8ff" d="M93.69,-230.68C112.43,-331.16 232.85,-896.5 570,-896.5 570,-896.5 570,-896.5 1531.5,-896.5 1684.76,-896.5 1735.93,-923.01 1874,-856.5 1922.12,-833.32 1963.18,-785.38 1986.2,-754.38"/>
<polygon fill="#63b8ff" stroke="#63b8ff" points="1989.16,-756.26 1992.21,-746.11 1983.5,-752.14 1989.16,-756.26"/>
</a>
</g>
</g>
<!-- Node3 -->
<g id="Node000003" class="node">
<title>Node3</title>
<g id="a_Node000003"><a xlink:href="classcom_1_1example_1_1mybookshelf_1_1BookRecommendationFlow.html#a02b6d699653b58f244907bd10db53ab5" target="_top" xlink:title=" ">
<polygon fill="white" stroke="#666666" points="2099,-398 1915,-398 1915,-357 2099,-357 2099,-398"/>
<text text-anchor="start" x="1923" y="-386" font-family="Helvetica,sans-Serif" font-size="10.00">com.example.mybookshelf.</text>
<text text-anchor="start" x="1923" y="-375" font-family="Helvetica,sans-Serif" font-size="10.00">BookRecommendationFlow.create</text>
<text text-anchor="middle" x="2007" y="-364" font-family="Helvetica,sans-Serif" font-size="10.00">StyledGridButton</text>
</a>
</g>
</g>
<!-- Node1&#45;&gt;Node3 -->
<g id="edge3_Node000001_Node000003" class="edge">
<title>Node1&#45;&gt;Node3</title>
<g id="a_edge3_Node000001_Node000003"><a xlink:title=" ">
<path fill="none" stroke="#63b8ff" d="M180.36,-219.14C379.36,-226.93 874.14,-244.5 1288.5,-244.5 1288.5,-244.5 1288.5,-244.5 1531.5,-244.5 1685.03,-244.5 1730.27,-235.51 1874,-289.5 1911.69,-303.66 1949.38,-330.34 1974.77,-350.63"/>
<polygon fill="#63b8ff" stroke="#63b8ff" points="1972.61,-353.37 1982.57,-356.97 1977.02,-347.94 1972.61,-353.37"/>
</a>
</g>
</g>
<!-- Node4 -->
<g id="Node000004" class="node">
<title>Node4</title>
<g id="a_Node000004"><a xlink:href="classcom_1_1example_1_1mybookshelf_1_1apis_1_1AiAPI.html#a4a45b91f0717302661d9e35ed956c049" target="_top" xlink:title=" ">
<polygon fill="white" stroke="#666666" points="414.5,-148.5 238.5,-148.5 238.5,-118.5 414.5,-118.5 414.5,-148.5"/>
<text text-anchor="start" x="246.5" y="-136.5" font-family="Helvetica,sans-Serif" font-size="10.00">com.example.mybookshelf.apis.</text>
<text text-anchor="middle" x="326.5" y="-125.5" font-family="Helvetica,sans-Serif" font-size="10.00">AiAPI.fetchResponse</text>
</a>
</g>
</g>
<!-- Node1&#45;&gt;Node4 -->
<g id="edge4_Node000001_Node000004" class="edge">
<title>Node1&#45;&gt;Node4</title>
<g id="a_edge4_Node000001_Node000004"><a xlink:title=" ">
<path fill="none" stroke="#63b8ff" d="M134.01,-200.46C173.14,-186.78 231.01,-166.54 272.89,-151.9"/>
<polygon fill="#63b8ff" stroke="#63b8ff" points="274.08,-155.19 282.37,-148.58 271.77,-148.58 274.08,-155.19"/>
</a>
</g>
</g>
<!-- Node5 -->
<g id="Node000005" class="node">
<title>Node5</title>
<g id="a_Node000005"><a xlink:href="classcom_1_1example_1_1mybookshelf_1_1BookRecommendationFlow.html#a4dceb0fa4d170b8c7e5a7a6718593dfe" target="_top" xlink:title=" ">
<polygon fill="white" stroke="#666666" points="426.5,-377.5 226.5,-377.5 226.5,-347.5 426.5,-347.5 426.5,-377.5"/>
<text text-anchor="start" x="234.5" y="-365.5" font-family="Helvetica,sans-Serif" font-size="10.00">com.example.mybookshelf.</text>
<text text-anchor="middle" x="326.5" y="-354.5" font-family="Helvetica,sans-Serif" font-size="10.00">BookRecommendationFlow.handleNo</text>
</a>
</g>
</g>
<!-- Node1&#45;&gt;Node5 -->
<g id="edge6_Node000001_Node000005" class="edge">
<title>Node1&#45;&gt;Node5</title>
<g id="a_edge6_Node000001_Node000005"><a xlink:title=" ">
<path fill="none" stroke="#63b8ff" d="M115.21,-230.68C157.54,-257.21 245,-312.04 292.71,-341.95"/>
<polygon fill="#63b8ff" stroke="#63b8ff" points="291.09,-345.06 301.42,-347.4 294.81,-339.13 291.09,-345.06"/>
</a>
</g>
</g>
<!-- Node17 -->
<g id="Node000017" class="node">
<title>Node17</title>
<g id="a_Node000017"><a xlink:href="classcom_1_1example_1_1mybookshelf_1_1BookRecommendationFlow.html#ac62af5d6edeffa96b2862a609ebb40df" target="_top" xlink:title=" ">
<polygon fill="white" stroke="#666666" points="434.5,-100 218.5,-100 218.5,-59 434.5,-59 434.5,-100"/>
<text text-anchor="start" x="226.5" y="-88" font-family="Helvetica,sans-Serif" font-size="10.00">com.example.mybookshelf.</text>
<text text-anchor="start" x="226.5" y="-77" font-family="Helvetica,sans-Serif" font-size="10.00">BookRecommendationFlow.hideThinking</text>
<text text-anchor="middle" x="326.5" y="-66" font-family="Helvetica,sans-Serif" font-size="10.00">Animation</text>
</a>
</g>
</g>
<!-- Node1&#45;&gt;Node17 -->
<g id="edge38_Node000001_Node000017" class="edge">
<title>Node1&#45;&gt;Node17</title>
<g id="a_edge38_Node000001_Node000017"><a xlink:title=" ">
<path fill="none" stroke="#63b8ff" d="M104.46,-200.48C125.86,-177.52 169.94,-133.79 216,-109.5 219.78,-107.51 223.7,-105.64 227.71,-103.89"/>
<polygon fill="#63b8ff" stroke="#63b8ff" points="229.29,-107.02 237.22,-100 226.64,-100.54 229.29,-107.02"/>
</a>
</g>
</g>
<!-- Node18 -->
<g id="Node000018" class="node">
<title>Node18</title>
<g id="a_Node000018"><a xlink:href="classcom_1_1example_1_1mybookshelf_1_1BookRecommendationFlow.html#a78597ba37409daeee77dcfa6236b2e6a" target="_top" xlink:title=" ">
<polygon fill="white" stroke="#666666" points="437,-41 216,-41 216,0 437,0 437,-41"/>
<text text-anchor="start" x="224" y="-29" font-family="Helvetica,sans-Serif" font-size="10.00">com.example.mybookshelf.</text>
<text text-anchor="start" x="224" y="-18" font-family="Helvetica,sans-Serif" font-size="10.00">BookRecommendationFlow.showThinking</text>
<text text-anchor="middle" x="326.5" y="-7" font-family="Helvetica,sans-Serif" font-size="10.00">Animation</text>
</a>
</g>
</g>
<!-- Node1&#45;&gt;Node18 -->
<g id="edge39_Node000001_Node000018" class="edge">
<title>Node1&#45;&gt;Node18</title>
<g id="a_edge39_Node000001_Node000018"><a xlink:title=" ">
<path fill="none" stroke="#63b8ff" d="M97.97,-200.44C113.94,-167.65 156.43,-89.57 216,-49.5 217.89,-48.23 219.83,-47.01 221.82,-45.85"/>
<polygon fill="#63b8ff" stroke="#63b8ff" points="223.6,-48.87 230.79,-41.09 220.31,-42.69 223.6,-48.87"/>
</a>
</g>
</g>
<!-- Node4&#45;&gt;Node4 -->
<g id="edge5_Node000004_Node000004" class="edge">
<title>Node4&#45;&gt;Node4</title>
<g id="a_edge5_Node000004_Node000004"><a xlink:title=" ">
<path fill="none" stroke="#63b8ff" d="M285.02,-148.78C275.8,-157.91 289.63,-166.5 326.5,-166.5 348.39,-166.5 362.16,-163.47 367.81,-159.1"/>
<polygon fill="#63b8ff" stroke="#63b8ff" points="371.31,-158.83 367.98,-148.78 364.31,-158.71 371.31,-158.83"/>
</a>
</g>
</g>
<!-- Node5&#45;&gt;Node2 -->
<g id="edge7_Node000005_Node000002" class="edge">
<title>Node5&#45;&gt;Node2</title>
<g id="a_edge7_Node000005_Node000002"><a xlink:title=" ">
<path fill="none" stroke="#63b8ff" d="M333.11,-377.62C365.02,-460.74 532.06,-858.5 806.5,-858.5 806.5,-858.5 806.5,-858.5 1531.5,-858.5 1684.51,-858.5 1731.35,-878.87 1874,-823.5 1914.51,-807.78 1953.52,-776.09 1978.49,-752.99"/>
<polygon fill="#63b8ff" stroke="#63b8ff" points="1980.9,-755.53 1985.78,-746.13 1976.1,-750.44 1980.9,-755.53"/>
</a>
</g>
</g>
<!-- Node5&#45;&gt;Node3 -->
<g id="edge8_Node000005_Node000003" class="edge">
<title>Node5&#45;&gt;Node3</title>
<g id="a_edge8_Node000005_Node000003"><a xlink:title=" ">
<path fill="none" stroke="#63b8ff" d="M381.45,-347.47C526.73,-308.37 938.83,-206.5 1288.5,-206.5 1288.5,-206.5 1288.5,-206.5 1531.5,-206.5 1684.1,-206.5 1741.39,-155 1874,-230.5 1898.43,-244.41 1891.93,-260.97 1910,-282.5 1930.22,-306.6 1955.62,-331.54 1975.21,-349.81"/>
<polygon fill="#63b8ff" stroke="#63b8ff" points="1972.97,-352.5 1982.68,-356.72 1977.72,-347.36 1972.97,-352.5"/>
</a>
</g>
</g>
<!-- Node6 -->
<g id="Node000006" class="node">
<title>Node6</title>
<g id="a_Node000006"><a xlink:href="classcom_1_1example_1_1mybookshelf_1_1BookRecommendationFlow.html#a22f0dcaea578fbd7358e6237cd4873d4" target="_top" xlink:title=" ">
<polygon fill="white" stroke="#666666" points="669,-460.5 473,-460.5 473,-430.5 669,-430.5 669,-460.5"/>
<text text-anchor="start" x="481" y="-448.5" font-family="Helvetica,sans-Serif" font-size="10.00">com.example.mybookshelf.</text>
<text text-anchor="middle" x="571" y="-437.5" font-family="Helvetica,sans-Serif" font-size="10.00">BookRecommendationFlow.handleAI</text>
</a>
</g>
</g>
<!-- Node5&#45;&gt;Node6 -->
<g id="edge9_Node000005_Node000006" class="edge">
<title>Node5&#45;&gt;Node6</title>
<g id="a_edge9_Node000005_Node000006"><a xlink:title=" ">
<path fill="none" stroke="#63b8ff" d="M371.41,-377.53C412.15,-391.47 472.86,-412.25 516.43,-427.16"/>
<polygon fill="#63b8ff" stroke="#63b8ff" points="515.41,-430.51 526,-430.44 517.67,-423.89 515.41,-430.51"/>
</a>
</g>
</g>
<!-- Node7 -->
<g id="Node000007" class="node">
<title>Node7</title>
<g id="a_Node000007"><a xlink:href="classcom_1_1example_1_1mybookshelf_1_1BookRecommendationFlow.html#a276e931dabe3e85af257a9d16ce7cc67" target="_top" xlink:title=" ">
<polygon fill="white" stroke="#666666" points="1391,-591 1188,-591 1188,-550 1391,-550 1391,-591"/>
<text text-anchor="start" x="1196" y="-579" font-family="Helvetica,sans-Serif" font-size="10.00">com.example.mybookshelf.</text>
<text text-anchor="start" x="1196" y="-568" font-family="Helvetica,sans-Serif" font-size="10.00">BookRecommendationFlow.showBook</text>
<text text-anchor="middle" x="1289.5" y="-557" font-family="Helvetica,sans-Serif" font-size="10.00">BasedStep1</text>
</a>
</g>
</g>
<!-- Node6&#45;&gt;Node7 -->
<g id="edge10_Node000006_Node000007" class="edge">
<title>Node6&#45;&gt;Node7</title>
<g id="a_edge10_Node000006_Node000007"><a xlink:title=" ">
<path fill="none" stroke="#63b8ff" d="M635.09,-460.55C657.15,-465.59 682.11,-471.06 705,-475.5 868.87,-507.29 1060.03,-537.03 1177.66,-554.49"/>
<polygon fill="#63b8ff" stroke="#63b8ff" points="1177.35,-557.99 1187.76,-555.99 1178.38,-551.06 1177.35,-557.99"/>
</a>
</g>
</g>
<!-- Node11 -->
<g id="Node000011" class="node">
<title>Node11</title>
<g id="a_Node000011"><a xlink:href="classcom_1_1example_1_1mybookshelf_1_1BookRecommendationFlow.html#a4c7dc337216592f7f214f69ce7009d37" target="_top" xlink:title=" ">
<polygon fill="white" stroke="#666666" points="910,-466 705,-466 705,-425 910,-425 910,-466"/>
<text text-anchor="start" x="713" y="-454" font-family="Helvetica,sans-Serif" font-size="10.00">com.example.mybookshelf.</text>
<text text-anchor="start" x="713" y="-443" font-family="Helvetica,sans-Serif" font-size="10.00">BookRecommendationFlow.showFresh</text>
<text text-anchor="middle" x="807.5" y="-432" font-family="Helvetica,sans-Serif" font-size="10.00">StartStep1</text>
</a>
</g>
</g>
<!-- Node6&#45;&gt;Node11 -->
<g id="edge21_Node000006_Node000011" class="edge">
<title>Node6&#45;&gt;Node11</title>
<g id="a_edge21_Node000006_Node000011"><a xlink:title=" ">
<path fill="none" stroke="#63b8ff" d="M669.07,-445.5C677.59,-445.5 686.25,-445.5 694.86,-445.5"/>
<polygon fill="#63b8ff" stroke="#63b8ff" points="694.95,-449 704.95,-445.5 694.95,-442 694.95,-449"/>
</a>
</g>
</g>
<!-- Node7&#45;&gt;Node2 -->
<g id="edge11_Node000007_Node000002" class="edge">
<title>Node7&#45;&gt;Node2</title>
<g id="a_edge11_Node000007_Node000002"><a xlink:title=" ">
<path fill="none" stroke="#63b8ff" d="M1301.77,-591.19C1321.85,-625.62 1367.48,-693.57 1428,-720.5 1583.5,-789.71 1786.66,-769.41 1906.08,-747.82"/>
<polygon fill="#63b8ff" stroke="#63b8ff" points="1906.75,-751.26 1915.95,-746 1905.48,-744.37 1906.75,-751.26"/>
</a>
</g>
</g>
<!-- Node7&#45;&gt;Node3 -->
<g id="edge12_Node000007_Node000003" class="edge">
<title>Node7&#45;&gt;Node3</title>
<g id="a_edge12_Node000007_Node000003"><a xlink:title=" ">
<path fill="none" stroke="#63b8ff" d="M1391.3,-553.91C1467.55,-541.38 1574.85,-523.79 1669,-508.5 1760.09,-493.71 1788.97,-511.36 1874,-475.5 1913.63,-458.79 1952.34,-427.79 1977.48,-405.12"/>
<polygon fill="#63b8ff" stroke="#63b8ff" points="1980.15,-407.42 1985.16,-398.08 1975.42,-402.26 1980.15,-407.42"/>
</a>
</g>
</g>
<!-- Node8 -->
<g id="Node000008" class="node">
<title>Node8</title>
<g id="a_Node000008"><a xlink:href="classcom_1_1example_1_1mybookshelf_1_1BookRecommendationFlow.html#a5c657be258c13c85848c7b7115f8a0b5" target="_top" xlink:title=" ">
<polygon fill="white" stroke="#666666" points="1632,-616 1429,-616 1429,-575 1632,-575 1632,-616"/>
<text text-anchor="start" x="1437" y="-604" font-family="Helvetica,sans-Serif" font-size="10.00">com.example.mybookshelf.</text>
<text text-anchor="start" x="1437" y="-593" font-family="Helvetica,sans-Serif" font-size="10.00">BookRecommendationFlow.showBook</text>
<text text-anchor="middle" x="1530.5" y="-582" font-family="Helvetica,sans-Serif" font-size="10.00">BasedStep2</text>
</a>
</g>
</g>
<!-- Node7&#45;&gt;Node8 -->
<g id="edge13_Node000007_Node000008" class="edge">
<title>Node7&#45;&gt;Node8</title>
<g id="a_edge13_Node000007_Node000008"><a xlink:title=" ">
<path fill="none" stroke="#63b8ff" d="M1391.16,-581.03C1400.35,-581.99 1409.68,-582.97 1418.94,-583.94"/>
<polygon fill="#63b8ff" stroke="#63b8ff" points="1418.64,-587.42 1428.95,-584.98 1419.37,-580.46 1418.64,-587.42"/>
</a>
</g>
</g>
<!-- Node8&#45;&gt;Node2 -->
<g id="edge14_Node000008_Node000002" class="edge">
<title>Node8&#45;&gt;Node2</title>
<g id="a_edge14_Node000008_Node000002"><a xlink:title=" ">
<path fill="none" stroke="#63b8ff" d="M1578.22,-616.1C1604.51,-627.12 1638.16,-640.28 1669,-649.5 1758.19,-676.16 1783.27,-671.65 1874,-692.5 1887.52,-695.61 1901.79,-699.03 1915.75,-702.45"/>
<polygon fill="#63b8ff" stroke="#63b8ff" points="1915.3,-705.94 1925.84,-704.94 1916.97,-699.15 1915.3,-705.94"/>
</a>
</g>
</g>
<!-- Node8&#45;&gt;Node3 -->
<g id="edge15_Node000008_Node000003" class="edge">
<title>Node8&#45;&gt;Node3</title>
<g id="a_edge15_Node000008_Node000003"><a xlink:title=" ">
<path fill="none" stroke="#63b8ff" d="M1632.32,-584.23C1703.49,-572.95 1799.12,-550.89 1874,-508.5 1919.97,-482.47 1961.1,-436.2 1984.8,-406.2"/>
<polygon fill="#63b8ff" stroke="#63b8ff" points="1987.64,-408.24 1991.01,-398.2 1982.11,-403.95 1987.64,-408.24"/>
</a>
</g>
</g>
<!-- Node9 -->
<g id="Node000009" class="node">
<title>Node9</title>
<g id="a_Node000009"><a xlink:href="classcom_1_1example_1_1mybookshelf_1_1BookRecommendationFlow.html#aa95301256c7f5377d1bc432189483b3c" target="_top" xlink:title=" ">
<polygon fill="white" stroke="#666666" points="1873,-640 1670,-640 1670,-599 1873,-599 1873,-640"/>
<text text-anchor="start" x="1678" y="-628" font-family="Helvetica,sans-Serif" font-size="10.00">com.example.mybookshelf.</text>
<text text-anchor="start" x="1678" y="-617" font-family="Helvetica,sans-Serif" font-size="10.00">BookRecommendationFlow.showBook</text>
<text text-anchor="middle" x="1771.5" y="-606" font-family="Helvetica,sans-Serif" font-size="10.00">BasedStep3</text>
</a>
</g>
</g>
<!-- Node8&#45;&gt;Node9 -->
<g id="edge16_Node000008_Node000009" class="edge">
<title>Node8&#45;&gt;Node9</title>
<g id="a_edge16_Node000008_Node000009"><a xlink:title=" ">
<path fill="none" stroke="#63b8ff" d="M1632.16,-605.61C1641.35,-606.53 1650.68,-607.47 1659.94,-608.4"/>
<polygon fill="#63b8ff" stroke="#63b8ff" points="1659.65,-611.89 1669.95,-609.4 1660.35,-604.92 1659.65,-611.89"/>
</a>
</g>
</g>
<!-- Node9&#45;&gt;Node2 -->
<g id="edge17_Node000009_Node000002" class="edge">
<title>Node9&#45;&gt;Node2</title>
<g id="a_edge17_Node000009_Node000002"><a xlink:title=" ">
<path fill="none" stroke="#63b8ff" d="M1837.27,-640.08C1849.6,-644.49 1862.3,-649.38 1874,-654.5 1904.36,-667.79 1937.18,-685.43 1962.5,-699.8"/>
<polygon fill="#63b8ff" stroke="#63b8ff" points="1961.05,-703.01 1971.47,-704.94 1964.53,-696.93 1961.05,-703.01"/>
</a>
</g>
</g>
<!-- Node9&#45;&gt;Node3 -->
<g id="edge20_Node000009_Node000003" class="edge">
<title>Node9&#45;&gt;Node3</title>
<g id="a_edge20_Node000009_Node000003"><a xlink:title=" ">
<path fill="none" stroke="#63b8ff" d="M1850.2,-598.95C1858.68,-594.93 1866.83,-590.15 1874,-584.5 1934.84,-536.54 1975.82,-452.34 1994.48,-407.53"/>
<polygon fill="#63b8ff" stroke="#63b8ff" points="1997.8,-408.66 1998.33,-398.08 1991.32,-406.02 1997.8,-408.66"/>
</a>
</g>
</g>
<!-- Node10 -->
<g id="Node000010" class="node">
<title>Node10</title>
<g id="a_Node000010"><a xlink:href="classcom_1_1example_1_1mybookshelf_1_1BookRecommendationFlow.html#a78dda71d2c403a463d824ff61b2ce27f" target="_top" xlink:title=" ">
<polygon fill="white" stroke="#666666" points="2095.5,-889 1918.5,-889 1918.5,-848 2095.5,-848 2095.5,-889"/>
<text text-anchor="start" x="1926.5" y="-877" font-family="Helvetica,sans-Serif" font-size="10.00">com.example.mybookshelf.</text>
<text text-anchor="start" x="1926.5" y="-866" font-family="Helvetica,sans-Serif" font-size="10.00">BookRecommendationFlow.build</text>
<text text-anchor="middle" x="2007" y="-855" font-family="Helvetica,sans-Serif" font-size="10.00">AIStringBased</text>
</a>
</g>
</g>
<!-- Node9&#45;&gt;Node10 -->
<g id="edge18_Node000009_Node000010" class="edge">
<title>Node9&#45;&gt;Node10</title>
<g id="a_edge18_Node000009_Node000010"><a xlink:title=" ">
<path fill="none" stroke="#63b8ff" d="M1792.01,-640.3C1833.92,-684.99 1932.58,-790.21 1979.85,-840.62"/>
<polygon fill="#63b8ff" stroke="#63b8ff" points="1977.32,-843.03 1986.71,-847.93 1982.43,-838.24 1977.32,-843.03"/>
</a>
</g>
</g>
<!-- Node10&#45;&gt;Node1 -->
<g id="edge19_Node000010_Node000001" class="edge">
<title>Node10&#45;&gt;Node1</title>
<g id="a_edge19_Node000010_Node000001"><a xlink:title=" ">
<path fill="none" stroke="#63b8ff" d="M1918.18,-888.12C1823.32,-907.58 1667.49,-934.5 1531.5,-934.5 570,-934.5 570,-934.5 570,-934.5 393.09,-934.5 320.82,-895.01 216,-752.5 94.81,-587.73 88.85,-323.9 90.18,-241.17"/>
<polygon fill="#63b8ff" stroke="#63b8ff" points="93.69,-241.01 90.4,-230.93 86.69,-240.86 93.69,-241.01"/>
</a>
</g>
</g>
<!-- Node11&#45;&gt;Node2 -->
<g id="edge22_Node000011_Node000002" class="edge">
<title>Node11&#45;&gt;Node2</title>
<g id="a_edge22_Node000011_Node000002"><a xlink:title=" ">
<path fill="none" stroke="#63b8ff" d="M820.83,-466.2C869.43,-544.81 1056.38,-820.5 1288.5,-820.5 1288.5,-820.5 1288.5,-820.5 1531.5,-820.5 1684.13,-820.5 1727.33,-837.71 1874,-795.5 1907.45,-785.87 1942.1,-767.11 1967.5,-751.43"/>
<polygon fill="#63b8ff" stroke="#63b8ff" points="1969.48,-754.32 1976.08,-746.03 1965.75,-748.39 1969.48,-754.32"/>
</a>
</g>
</g>
<!-- Node11&#45;&gt;Node3 -->
<g id="edge23_Node000011_Node000003" class="edge">
<title>Node11&#45;&gt;Node3</title>
<g id="a_edge23_Node000011_Node000003"><a xlink:title=" ">
<path fill="none" stroke="#63b8ff" d="M843.25,-424.86C920.46,-380.99 1113.37,-282.5 1288.5,-282.5 1288.5,-282.5 1288.5,-282.5 1531.5,-282.5 1676.6,-282.5 1841.88,-325.74 1934.07,-353.87"/>
<polygon fill="#63b8ff" stroke="#63b8ff" points="1933.27,-357.29 1943.86,-356.89 1935.33,-350.6 1933.27,-357.29"/>
</a>
</g>
</g>
<!-- Node12 -->
<g id="Node000012" class="node">
<title>Node12</title>
<g id="a_Node000012"><a xlink:href="classcom_1_1example_1_1mybookshelf_1_1BookRecommendationFlow.html#aaf567ca97b0d7f0c58ebba4d6f4b18bd" target="_top" xlink:title=" ">
<polygon fill="white" stroke="#666666" points="1151,-466 946,-466 946,-425 1151,-425 1151,-466"/>
<text text-anchor="start" x="954" y="-454" font-family="Helvetica,sans-Serif" font-size="10.00">com.example.mybookshelf.</text>
<text text-anchor="start" x="954" y="-443" font-family="Helvetica,sans-Serif" font-size="10.00">BookRecommendationFlow.showFresh</text>
<text text-anchor="middle" x="1048.5" y="-432" font-family="Helvetica,sans-Serif" font-size="10.00">StartStep2</text>
</a>
</g>
</g>
<!-- Node11&#45;&gt;Node12 -->
<g id="edge24_Node000011_Node000012" class="edge">
<title>Node11&#45;&gt;Node12</title>
<g id="a_edge24_Node000011_Node000012"><a xlink:title=" ">
<path fill="none" stroke="#63b8ff" d="M910.2,-445.5C918.7,-445.5 927.31,-445.5 935.87,-445.5"/>
<polygon fill="#63b8ff" stroke="#63b8ff" points="935.89,-449 945.89,-445.5 935.89,-442 935.89,-449"/>
</a>
</g>
</g>
<!-- Node12&#45;&gt;Node2 -->
<g id="edge25_Node000012_Node000002" class="edge">
<title>Node12&#45;&gt;Node2</title>
<g id="a_edge25_Node000012_Node000002"><a xlink:title=" ">
<path fill="none" stroke="#63b8ff" d="M1064.97,-466.27C1111.52,-526.68 1257.62,-701.53 1428,-756.5 1616.71,-817.39 1678.16,-799.59 1874,-768.5 1898.05,-764.68 1923.68,-757.18 1945.9,-749.49"/>
<polygon fill="#63b8ff" stroke="#63b8ff" points="1947.27,-752.72 1955.52,-746.08 1944.93,-746.12 1947.27,-752.72"/>
</a>
</g>
</g>
<!-- Node12&#45;&gt;Node3 -->
<g id="edge26_Node000012_Node000003" class="edge">
<title>Node12&#45;&gt;Node3</title>
<g id="a_edge26_Node000012_Node000003"><a xlink:title=" ">
<path fill="none" stroke="#63b8ff" d="M1142.14,-424.96C1157.1,-421.93 1172.45,-419 1187,-416.5 1488.52,-364.76 1568.1,-368.87 1874,-373.5 1883.89,-373.65 1894.19,-373.86 1904.48,-374.11"/>
<polygon fill="#63b8ff" stroke="#63b8ff" points="1904.68,-377.62 1914.76,-374.37 1904.85,-370.62 1904.68,-377.62"/>
</a>
</g>
</g>
<!-- Node13 -->
<g id="Node000013" class="node">
<title>Node13</title>
<g id="a_Node000013"><a xlink:href="classcom_1_1example_1_1mybookshelf_1_1BookRecommendationFlow.html#a2bc1c0125eb3c1fe64ed1ed3ee93d3eb" target="_top" xlink:title=" ">
<polygon fill="white" stroke="#666666" points="1392,-466 1187,-466 1187,-425 1392,-425 1392,-466"/>
<text text-anchor="start" x="1195" y="-454" font-family="Helvetica,sans-Serif" font-size="10.00">com.example.mybookshelf.</text>
<text text-anchor="start" x="1195" y="-443" font-family="Helvetica,sans-Serif" font-size="10.00">BookRecommendationFlow.showFresh</text>
<text text-anchor="middle" x="1289.5" y="-432" font-family="Helvetica,sans-Serif" font-size="10.00">StartStep3</text>
</a>
</g>
</g>
<!-- Node12&#45;&gt;Node13 -->
<g id="edge27_Node000012_Node000013" class="edge">
<title>Node12&#45;&gt;Node13</title>
<g id="a_edge27_Node000012_Node000013"><a xlink:title=" ">
<path fill="none" stroke="#63b8ff" d="M1151.2,-445.5C1159.7,-445.5 1168.31,-445.5 1176.87,-445.5"/>
<polygon fill="#63b8ff" stroke="#63b8ff" points="1176.89,-449 1186.89,-445.5 1176.89,-442 1176.89,-449"/>
</a>
</g>
</g>
<!-- Node13&#45;&gt;Node2 -->
<g id="edge28_Node000013_Node000002" class="edge">
<title>Node13&#45;&gt;Node2</title>
<g id="a_edge28_Node000013_Node000002"><a xlink:title=" ">
<path fill="none" stroke="#63b8ff" d="M1318.04,-466.26C1340.33,-484.2 1371.32,-511.86 1392,-541.5 1415.24,-574.81 1397.01,-599.24 1428,-625.5 1560.38,-737.68 1772.59,-744.83 1899.72,-737.07"/>
<polygon fill="#63b8ff" stroke="#63b8ff" points="1900.11,-740.55 1909.86,-736.41 1899.65,-733.56 1900.11,-740.55"/>
</a>
</g>
</g>
<!-- Node13&#45;&gt;Node3 -->
<g id="edge29_Node000013_Node000003" class="edge">
<title>Node13&#45;&gt;Node3</title>
<g id="a_edge29_Node000013_Node000003"><a xlink:title=" ">
<path fill="none" stroke="#63b8ff" d="M1382.76,-424.98C1397.84,-421.94 1413.33,-418.99 1428,-416.5 1534.48,-398.45 1561.32,-393.68 1669,-385.5 1747.96,-379.5 1837.59,-377.61 1904.56,-377.16"/>
<polygon fill="#63b8ff" stroke="#63b8ff" points="1904.71,-380.66 1914.69,-377.1 1904.67,-373.66 1904.71,-380.66"/>
</a>
</g>
</g>
<!-- Node14 -->
<g id="Node000014" class="node">
<title>Node14</title>
<g id="a_Node000014"><a xlink:href="classcom_1_1example_1_1mybookshelf_1_1BookRecommendationFlow.html#ad10515cfcf8650b6830b68f15d393b3b" target="_top" xlink:title=" ">
<polygon fill="white" stroke="#666666" points="1633,-466 1428,-466 1428,-425 1633,-425 1633,-466"/>
<text text-anchor="start" x="1436" y="-454" font-family="Helvetica,sans-Serif" font-size="10.00">com.example.mybookshelf.</text>
<text text-anchor="start" x="1436" y="-443" font-family="Helvetica,sans-Serif" font-size="10.00">BookRecommendationFlow.showFresh</text>
<text text-anchor="middle" x="1530.5" y="-432" font-family="Helvetica,sans-Serif" font-size="10.00">StartStep4</text>
</a>
</g>
</g>
<!-- Node13&#45;&gt;Node14 -->
<g id="edge30_Node000013_Node000014" class="edge">
<title>Node13&#45;&gt;Node14</title>
<g id="a_edge30_Node000013_Node000014"><a xlink:title=" ">
<path fill="none" stroke="#63b8ff" d="M1392.2,-445.5C1400.7,-445.5 1409.31,-445.5 1417.87,-445.5"/>
<polygon fill="#63b8ff" stroke="#63b8ff" points="1417.89,-449 1427.89,-445.5 1417.89,-442 1417.89,-449"/>
</a>
</g>
</g>
<!-- Node14&#45;&gt;Node2 -->
<g id="edge31_Node000014_Node000002" class="edge">
<title>Node14&#45;&gt;Node2</title>
<g id="a_edge31_Node000014_Node000002"><a xlink:title=" ">
<path fill="none" stroke="#63b8ff" d="M1601.5,-466.06C1673.73,-489.28 1787.71,-531.65 1874,-590.5 1918.06,-620.55 1959.43,-666.93 1983.74,-696.75"/>
<polygon fill="#63b8ff" stroke="#63b8ff" points="1981.13,-699.1 1990.13,-704.7 1986.59,-694.71 1981.13,-699.1"/>
</a>
</g>
</g>
<!-- Node14&#45;&gt;Node3 -->
<g id="edge32_Node000014_Node000003" class="edge">
<title>Node14&#45;&gt;Node3</title>
<g id="a_edge32_Node000014_Node000003"><a xlink:title=" ">
<path fill="none" stroke="#63b8ff" d="M1622.99,-424.97C1638.31,-421.89 1654.07,-418.93 1669,-416.5 1747.79,-403.66 1837.62,-393.48 1904.71,-386.75"/>
<polygon fill="#63b8ff" stroke="#63b8ff" points="1905.25,-390.21 1914.86,-385.74 1904.56,-383.25 1905.25,-390.21"/>
</a>
</g>
</g>
<!-- Node15 -->
<g id="Node000015" class="node">
<title>Node15</title>
<g id="a_Node000015"><a xlink:href="classcom_1_1example_1_1mybookshelf_1_1BookRecommendationFlow.html#a46c6733f27b3527d3934cee02cfcd7ac" target="_top" xlink:title=" ">
<polygon fill="white" stroke="#666666" points="1874,-466 1669,-466 1669,-425 1874,-425 1874,-466"/>
<text text-anchor="start" x="1677" y="-454" font-family="Helvetica,sans-Serif" font-size="10.00">com.example.mybookshelf.</text>
<text text-anchor="start" x="1677" y="-443" font-family="Helvetica,sans-Serif" font-size="10.00">BookRecommendationFlow.showFresh</text>
<text text-anchor="middle" x="1771.5" y="-432" font-family="Helvetica,sans-Serif" font-size="10.00">StartStep5</text>
</a>
</g>
</g>
<!-- Node14&#45;&gt;Node15 -->
<g id="edge33_Node000014_Node000015" class="edge">
<title>Node14&#45;&gt;Node15</title>
<g id="a_edge33_Node000014_Node000015"><a xlink:title=" ">
<path fill="none" stroke="#63b8ff" d="M1633.2,-445.5C1641.7,-445.5 1650.31,-445.5 1658.87,-445.5"/>
<polygon fill="#63b8ff" stroke="#63b8ff" points="1658.89,-449 1668.89,-445.5 1658.89,-442 1658.89,-449"/>
</a>
</g>
</g>
<!-- Node15&#45;&gt;Node2 -->
<g id="edge34_Node000015_Node000002" class="edge">
<title>Node15&#45;&gt;Node2</title>
<g id="a_edge34_Node000015_Node000002"><a xlink:title=" ">
<path fill="none" stroke="#63b8ff" d="M1807.97,-466.24C1828.74,-479.49 1854.61,-498 1874,-518.5 1926.55,-574.07 1970.28,-653.43 1991.74,-695.94"/>
<polygon fill="#63b8ff" stroke="#63b8ff" points="1988.63,-697.53 1996.22,-704.92 1994.89,-694.41 1988.63,-697.53"/>
</a>
</g>
</g>
<!-- Node15&#45;&gt;Node3 -->
<g id="edge37_Node000015_Node000003" class="edge">
<title>Node15&#45;&gt;Node3</title>
<g id="a_edge37_Node000015_Node000003"><a xlink:title=" ">
<path fill="none" stroke="#63b8ff" d="M1843.19,-424.91C1869.25,-417.32 1898.96,-408.67 1925.8,-400.86"/>
<polygon fill="#63b8ff" stroke="#63b8ff" points="1926.93,-404.17 1935.55,-398.02 1924.97,-397.45 1926.93,-404.17"/>
</a>
</g>
</g>
<!-- Node16 -->
<g id="Node000016" class="node">
<title>Node16</title>
<g id="a_Node000016"><a xlink:href="classcom_1_1example_1_1mybookshelf_1_1BookRecommendationFlow.html#abe4c57ea57ed54c344739295e70066ff" target="_top" xlink:title=" ">
<polygon fill="white" stroke="#666666" points="2095.5,-273 1918.5,-273 1918.5,-232 2095.5,-232 2095.5,-273"/>
<text text-anchor="start" x="1926.5" y="-261" font-family="Helvetica,sans-Serif" font-size="10.00">com.example.mybookshelf.</text>
<text text-anchor="start" x="1926.5" y="-250" font-family="Helvetica,sans-Serif" font-size="10.00">BookRecommendationFlow.build</text>
<text text-anchor="middle" x="2007" y="-239" font-family="Helvetica,sans-Serif" font-size="10.00">AIStringFresh</text>
</a>
</g>
</g>
<!-- Node15&#45;&gt;Node16 -->
<g id="edge35_Node000015_Node000016" class="edge">
<title>Node15&#45;&gt;Node16</title>
<g id="a_edge35_Node000015_Node000016"><a xlink:title=" ">
<path fill="none" stroke="#63b8ff" d="M1797.49,-424.85C1839.97,-389.73 1926.25,-318.42 1973.41,-279.43"/>
<polygon fill="#63b8ff" stroke="#63b8ff" points="1975.71,-282.07 1981.19,-273.01 1971.25,-276.68 1975.71,-282.07"/>
</a>
</g>
</g>
<!-- Node16&#45;&gt;Node1 -->
<g id="edge36_Node000016_Node000001" class="edge">
<title>Node16&#45;&gt;Node1</title>
<g id="a_edge36_Node000016_Node000001"><a xlink:title=" ">
<path fill="none" stroke="#63b8ff" d="M1974.71,-231.84C1948.88,-215.99 1910.64,-195.23 1874,-185.5 1726.7,-146.37 1683.91,-168.5 1531.5,-168.5 1288.5,-168.5 1288.5,-168.5 1288.5,-168.5 880.82,-168.5 395.68,-196.03 190.49,-208.95"/>
<polygon fill="#63b8ff" stroke="#63b8ff" points="190.09,-205.47 180.34,-209.6 190.54,-212.46 190.09,-205.47"/>
</a>
</g>
</g>
</g>
</svg>

<g id="navigator" transform="translate(0 0)" fill="#404254">
  <rect fill="#f2f5e9" fill-opacity="0.5" stroke="#606060" stroke-width=".5" x="0" y="0" width="60" height="60"/>
  <use id="zoomplus" xlink:href="#zoomPlus" x="17" y="9" onmousedown="handleZoom(evt,'in')"/>
  <use id="zoomminus" xlink:href="#zoomMin" x="42" y="9" onmousedown="handleZoom(evt,'out')"/>
  <use id="reset" xlink:href="#resetDef" x="30" y="36" onmousedown="handleReset()"/>
   <use id="arrowup" xlink:href="#arrowUp" x="0" y="0" onmousedown="handlePan(0,-1)"/>
  <use id="arrowright" xlink:href="#arrowRight" x="0" y="0" onmousedown="handlePan(1,0)"/>
  <use id="arrowdown" xlink:href="#arrowDown" x="0" y="0" onmousedown="handlePan(0,1)"/>
  <use id="arrowleft" xlink:href="#arrowLeft" x="0" y="0" onmousedown="handlePan(-1,0)"/>
</g>
<svg viewBox="0 0 15 15" width="100%" height="30px" preserveAspectRatio="xMaxYMin meet">
 <g id="arrow_out" transform="scale(0.3 0.3)">
  <a xlink:href="classcom_1_1example_1_1mybookshelf_1_1BookRecommendationFlow_ae50cf18619872a365eebe91c18d86e8d_cgraph_org.svg" target="_base">
   <rect id="button" ry="5" rx="5" y="6" x="6" height="38" width="38"
        fill="#f2f5e9" fill-opacity="0.5" stroke="#606060" stroke-width="1.0"/>
   <path id="arrow"
     d="M 11.500037,31.436501 C 11.940474,20.09759 22.043105,11.32322 32.158766,21.979434 L 37.068811,17.246167 C 37.068811,17.246167 37.088388,32 37.088388,32 L 22.160133,31.978069 C 22.160133,31.978069 26.997745,27.140456 26.997745,27.140456 C 18.528582,18.264221 13.291696,25.230495 11.500037,31.436501 z"
     style="fill:#404040;"/>
  </a>
 </g>
</svg>

<style type='text/css'>
<![CDATA[
[data-mouse-over-selected='false'] { opacity: 0.7; }
[data-mouse-over-selected='true']  { opacity: 1.0; }
]]>
</style>
<script type="application/ecmascript"><![CDATA[
document.addEventListener('DOMContentLoaded', (event) => {
  highlightEdges();
  highlightAdjacentNodes();
});
]]></script>
</svg>
