<?xml version="1.0" encoding="UTF-8" standalone="no"?>
<!DOCTYPE svg PUBLIC "-//W3C//DTD SVG 1.1//EN"
 "http://www.w3.org/Graphics/SVG/1.1/DTD/svg11.dtd">
<!-- Generated by graphviz version 2.43.0 (0)
 -->
<!-- Title: com.example.mybookshelf.BookRecommendationFlow.buildAIStringBased Pages: 1 -->
<svg width="3004pt" height="94pt"
 viewBox="0.00 0.00 3004.00 94.00" xmlns="http://www.w3.org/2000/svg" xmlns:xlink="http://www.w3.org/1999/xlink">
<g id="graph0" class="graph" transform="scale(1 1) rotate(0) translate(4 90)">
<title>com.example.mybookshelf.BookRecommendationFlow.buildAIStringBased</title>
<!-- Node1 -->
<g id="Node000001" class="node">
<title>Node1</title>
<g id="a_Node000001"><a xlink:title=" ">
<polygon fill="#999999" stroke="#666666" points="2996,-44.5 2819,-44.5 2819,-3.5 2996,-3.5 2996,-44.5"/>
<text text-anchor="start" x="2827" y="-32.5" font-family="Helvetica,sans-Serif" font-size="10.00">com.example.mybookshelf.</text>
<text text-anchor="start" x="2827" y="-21.5" font-family="Helvetica,sans-Serif" font-size="10.00">BookRecommendationFlow.build</text>
<text text-anchor="middle" x="2907.5" y="-10.5" font-family="Helvetica,sans-Serif" font-size="10.00">AIStringBased</text>
</a>
</g>
</g>
<!-- Node2 -->
<g id="Node000002" class="node">
<title>Node2</title>
<g id="a_Node000002"><a xlink:href="classcom_1_1example_1_1mybookshelf_1_1BookRecommendationFlow.html#aa95301256c7f5377d1bc432189483b3c" target="_top" xlink:title=" ">
<polygon fill="white" stroke="#666666" points="2783,-69.5 2580,-69.5 2580,-28.5 2783,-28.5 2783,-69.5"/>
<text text-anchor="start" x="2588" y="-57.5" font-family="Helvetica,sans-Serif" font-size="10.00">com.example.mybookshelf.</text>
<text text-anchor="start" x="2588" y="-46.5" font-family="Helvetica,sans-Serif" font-size="10.00">BookRecommendationFlow.showBook</text>
<text text-anchor="middle" x="2681.5" y="-35.5" font-family="Helvetica,sans-Serif" font-size="10.00">BasedStep3</text>
</a>
</g>
</g>
<!-- Node1&#45;&gt;Node2 -->
<g id="edge1_Node000001_Node000002" class="edge">
<title>Node1&#45;&gt;Node2</title>
<g id="a_edge1_Node000001_Node000002"><a xlink:title=" ">
<path fill="none" stroke="#63b8ff" d="M2808.92,-34.89C2800.33,-35.85 2791.62,-36.82 2783.01,-37.78"/>
<polygon fill="#63b8ff" stroke="#63b8ff" points="2809.38,-38.36 2818.93,-33.77 2808.61,-31.4 2809.38,-38.36"/>
</a>
</g>
</g>
<!-- Node3 -->
<g id="Node000003" class="node">
<title>Node3</title>
<g id="a_Node000003"><a xlink:href="classcom_1_1example_1_1mybookshelf_1_1BookRecommendationFlow.html#a5c657be258c13c85848c7b7115f8a0b5" target="_top" xlink:title=" ">
<polygon fill="white" stroke="#666666" points="2544,-69.5 2341,-69.5 2341,-28.5 2544,-28.5 2544,-69.5"/>
<text text-anchor="start" x="2349" y="-57.5" font-family="Helvetica,sans-Serif" font-size="10.00">com.example.mybookshelf.</text>
<text text-anchor="start" x="2349" y="-46.5" font-family="Helvetica,sans-Serif" font-size="10.00">BookRecommendationFlow.showBook</text>
<text text-anchor="middle" x="2442.5" y="-35.5" font-family="Helvetica,sans-Serif" font-size="10.00">BasedStep2</text>
</a>
</g>
</g>
<!-- Node2&#45;&gt;Node3 -->
<g id="edge2_Node000002_Node000003" class="edge">
<title>Node2&#45;&gt;Node3</title>
<g id="a_edge2_Node000002_Node000003"><a xlink:title=" ">
<path fill="none" stroke="#63b8ff" d="M2569.94,-49C2561.34,-49 2552.69,-49 2544.17,-49"/>
<polygon fill="#63b8ff" stroke="#63b8ff" points="2569.99,-52.5 2579.99,-49 2569.99,-45.5 2569.99,-52.5"/>
</a>
</g>
</g>
<!-- Node4 -->
<g id="Node000004" class="node">
<title>Node4</title>
<g id="a_Node000004"><a xlink:href="classcom_1_1example_1_1mybookshelf_1_1BookRecommendationFlow.html#a276e931dabe3e85af257a9d16ce7cc67" target="_top" xlink:title=" ">
<polygon fill="white" stroke="#666666" points="2305,-69.5 2102,-69.5 2102,-28.5 2305,-28.5 2305,-69.5"/>
<text text-anchor="start" x="2110" y="-57.5" font-family="Helvetica,sans-Serif" font-size="10.00">com.example.mybookshelf.</text>
<text text-anchor="start" x="2110" y="-46.5" font-family="Helvetica,sans-Serif" font-size="10.00">BookRecommendationFlow.showBook</text>
<text text-anchor="middle" x="2203.5" y="-35.5" font-family="Helvetica,sans-Serif" font-size="10.00">BasedStep1</text>
</a>
</g>
</g>
<!-- Node3&#45;&gt;Node4 -->
<g id="edge3_Node000003_Node000004" class="edge">
<title>Node3&#45;&gt;Node4</title>
<g id="a_edge3_Node000003_Node000004"><a xlink:title=" ">
<path fill="none" stroke="#63b8ff" d="M2330.94,-49C2322.34,-49 2313.69,-49 2305.17,-49"/>
<polygon fill="#63b8ff" stroke="#63b8ff" points="2330.99,-52.5 2340.99,-49 2330.99,-45.5 2330.99,-52.5"/>
</a>
</g>
</g>
<!-- Node5 -->
<g id="Node000005" class="node">
<title>Node5</title>
<g id="a_Node000005"><a xlink:href="classcom_1_1example_1_1mybookshelf_1_1BookRecommendationFlow.html#a22f0dcaea578fbd7358e6237cd4873d4" target="_top" xlink:title=" ">
<polygon fill="white" stroke="#666666" points="2066,-64 1870,-64 1870,-34 2066,-34 2066,-64"/>
<text text-anchor="start" x="1878" y="-52" font-family="Helvetica,sans-Serif" font-size="10.00">com.example.mybookshelf.</text>
<text text-anchor="middle" x="1968" y="-41" font-family="Helvetica,sans-Serif" font-size="10.00">BookRecommendationFlow.handleAI</text>
</a>
</g>
</g>
<!-- Node4&#45;&gt;Node5 -->
<g id="edge4_Node000004_Node000005" class="edge">
<title>Node4&#45;&gt;Node5</title>
<g id="a_edge4_Node000004_Node000005"><a xlink:title=" ">
<path fill="none" stroke="#63b8ff" d="M2091.74,-49C2083.16,-49 2074.54,-49 2066.06,-49"/>
<polygon fill="#63b8ff" stroke="#63b8ff" points="2091.78,-52.5 2101.78,-49 2091.78,-45.5 2091.78,-52.5"/>
</a>
</g>
</g>
<!-- Node6 -->
<g id="Node000006" class="node">
<title>Node6</title>
<g id="a_Node000006"><a xlink:href="classcom_1_1example_1_1mybookshelf_1_1BookRecommendationFlow.html#a4dceb0fa4d170b8c7e5a7a6718593dfe" target="_top" xlink:title=" ">
<polygon fill="white" stroke="#666666" points="1834,-58 1634,-58 1634,-28 1834,-28 1834,-58"/>
<text text-anchor="start" x="1642" y="-46" font-family="Helvetica,sans-Serif" font-size="10.00">com.example.mybookshelf.</text>
<text text-anchor="middle" x="1734" y="-35" font-family="Helvetica,sans-Serif" font-size="10.00">BookRecommendationFlow.handleNo</text>
</a>
</g>
</g>
<!-- Node5&#45;&gt;Node6 -->
<g id="edge5_Node000005_Node000006" class="edge">
<title>Node5&#45;&gt;Node6</title>
<g id="a_edge5_Node000005_Node000006"><a xlink:title=" ">
<path fill="none" stroke="#63b8ff" d="M1859.95,-46.23C1851.39,-46.01 1842.77,-45.79 1834.27,-45.57"/>
<polygon fill="#63b8ff" stroke="#63b8ff" points="1859.87,-49.73 1869.96,-46.49 1860.05,-42.73 1859.87,-49.73"/>
</a>
</g>
</g>
<!-- Node7 -->
<g id="Node000007" class="node">
<title>Node7</title>
<g id="a_Node000007"><a xlink:href="classcom_1_1example_1_1mybookshelf_1_1BookRecommendationFlow.html#ae50cf18619872a365eebe91c18d86e8d" target="_top" xlink:title=" ">
<polygon fill="white" stroke="#666666" points="1598,-40 1418,-40 1418,-10 1598,-10 1598,-40"/>
<text text-anchor="start" x="1426" y="-28" font-family="Helvetica,sans-Serif" font-size="10.00">com.example.mybookshelf.</text>
<text text-anchor="middle" x="1508" y="-17" font-family="Helvetica,sans-Serif" font-size="10.00">BookRecommendationFlow.callAI</text>
</a>
</g>
</g>
<!-- Node6&#45;&gt;Node7 -->
<g id="edge6_Node000006_Node000007" class="edge">
<title>Node6&#45;&gt;Node7</title>
<g id="a_edge6_Node000006_Node000007"><a xlink:title=" ">
<path fill="none" stroke="#63b8ff" d="M1623.77,-34.22C1615.22,-33.54 1606.66,-32.85 1598.27,-32.17"/>
<polygon fill="#63b8ff" stroke="#63b8ff" points="1623.52,-37.71 1633.77,-35.03 1624.08,-30.74 1623.52,-37.71"/>
</a>
</g>
</g>
<!-- Node7&#45;&gt;Node1 -->
<g id="edge7_Node000007_Node000001" class="edge">
<title>Node7&#45;&gt;Node1</title>
<g id="a_edge7_Node000007_Node000001"><a xlink:title=" ">
<path fill="none" stroke="#63b8ff" d="M1608.22,-16.46C1700.93,-9.21 1843.23,0 1967,0 2443.5,0 2443.5,0 2443.5,0 2574.3,0 2725.6,-9.67 2818.67,-16.73"/>
<polygon fill="#63b8ff" stroke="#63b8ff" points="1607.7,-12.99 1598.01,-17.26 1608.25,-19.96 1607.7,-12.99"/>
</a>
</g>
</g>
<!-- Node7&#45;&gt;Node7 -->
<g id="edge15_Node000007_Node000007" class="edge">
<title>Node7&#45;&gt;Node7</title>
<g id="a_edge15_Node000007_Node000007"><a xlink:title=" ">
<path fill="none" stroke="#63b8ff" d="M1545.46,-50.6C1540.34,-54.97 1527.85,-58 1508,-58 1474.56,-58 1462.02,-49.41 1470.38,-40.28"/>
<polygon fill="#63b8ff" stroke="#63b8ff" points="1548.96,-50.33 1545.62,-40.28 1541.96,-50.22 1548.96,-50.33"/>
</a>
</g>
</g>
<!-- Node8 -->
<g id="Node000008" class="node">
<title>Node8</title>
<g id="a_Node000008"><a xlink:href="classcom_1_1example_1_1mybookshelf_1_1BookRecommendationFlow.html#abe4c57ea57ed54c344739295e70066ff" target="_top" xlink:title=" ">
<polygon fill="white" stroke="#666666" points="1382,-46.5 1205,-46.5 1205,-5.5 1382,-5.5 1382,-46.5"/>
<text text-anchor="start" x="1213" y="-34.5" font-family="Helvetica,sans-Serif" font-size="10.00">com.example.mybookshelf.</text>
<text text-anchor="start" x="1213" y="-23.5" font-family="Helvetica,sans-Serif" font-size="10.00">BookRecommendationFlow.build</text>
<text text-anchor="middle" x="1293.5" y="-12.5" font-family="Helvetica,sans-Serif" font-size="10.00">AIStringFresh</text>
</a>
</g>
</g>
<!-- Node7&#45;&gt;Node8 -->
<g id="edge8_Node000007_Node000008" class="edge">
<title>Node7&#45;&gt;Node8</title>
<g id="a_edge8_Node000007_Node000008"><a xlink:title=" ">
<path fill="none" stroke="#63b8ff" d="M1407.78,-25.47C1399.21,-25.51 1390.58,-25.55 1382.11,-25.59"/>
<polygon fill="#63b8ff" stroke="#63b8ff" points="1407.82,-28.97 1417.8,-25.42 1407.79,-21.97 1407.82,-28.97"/>
</a>
</g>
</g>
<!-- Node9 -->
<g id="Node000009" class="node">
<title>Node9</title>
<g id="a_Node000009"><a xlink:href="classcom_1_1example_1_1mybookshelf_1_1BookRecommendationFlow.html#a46c6733f27b3527d3934cee02cfcd7ac" target="_top" xlink:title=" ">
<polygon fill="white" stroke="#666666" points="1169,-52.5 964,-52.5 964,-11.5 1169,-11.5 1169,-52.5"/>
<text text-anchor="start" x="972" y="-40.5" font-family="Helvetica,sans-Serif" font-size="10.00">com.example.mybookshelf.</text>
<text text-anchor="start" x="972" y="-29.5" font-family="Helvetica,sans-Serif" font-size="10.00">BookRecommendationFlow.showFresh</text>
<text text-anchor="middle" x="1066.5" y="-18.5" font-family="Helvetica,sans-Serif" font-size="10.00">StartStep5</text>
</a>
</g>
</g>
<!-- Node8&#45;&gt;Node9 -->
<g id="edge9_Node000008_Node000009" class="edge">
<title>Node8&#45;&gt;Node9</title>
<g id="a_edge9_Node000008_Node000009"><a xlink:title=" ">
<path fill="none" stroke="#63b8ff" d="M1194.62,-28.61C1186.16,-28.84 1177.59,-29.06 1169.11,-29.29"/>
<polygon fill="#63b8ff" stroke="#63b8ff" points="1194.96,-32.1 1204.86,-28.34 1194.78,-25.1 1194.96,-32.1"/>
</a>
</g>
</g>
<!-- Node10 -->
<g id="Node000010" class="node">
<title>Node10</title>
<g id="a_Node000010"><a xlink:href="classcom_1_1example_1_1mybookshelf_1_1BookRecommendationFlow.html#ad10515cfcf8650b6830b68f15d393b3b" target="_top" xlink:title=" ">
<polygon fill="white" stroke="#666666" points="928,-55.5 723,-55.5 723,-14.5 928,-14.5 928,-55.5"/>
<text text-anchor="start" x="731" y="-43.5" font-family="Helvetica,sans-Serif" font-size="10.00">com.example.mybookshelf.</text>
<text text-anchor="start" x="731" y="-32.5" font-family="Helvetica,sans-Serif" font-size="10.00">BookRecommendationFlow.showFresh</text>
<text text-anchor="middle" x="825.5" y="-21.5" font-family="Helvetica,sans-Serif" font-size="10.00">StartStep4</text>
</a>
</g>
</g>
<!-- Node9&#45;&gt;Node10 -->
<g id="edge10_Node000009_Node000010" class="edge">
<title>Node9&#45;&gt;Node10</title>
<g id="a_edge10_Node000009_Node000010"><a xlink:title=" ">
<path fill="none" stroke="#63b8ff" d="M953.78,-33.4C945.22,-33.51 936.6,-33.62 928.11,-33.72"/>
<polygon fill="#63b8ff" stroke="#63b8ff" points="953.84,-36.9 963.8,-33.28 953.75,-29.9 953.84,-36.9"/>
</a>
</g>
</g>
<!-- Node11 -->
<g id="Node000011" class="node">
<title>Node11</title>
<g id="a_Node000011"><a xlink:href="classcom_1_1example_1_1mybookshelf_1_1BookRecommendationFlow.html#a2bc1c0125eb3c1fe64ed1ed3ee93d3eb" target="_top" xlink:title=" ">
<polygon fill="white" stroke="#666666" points="687,-56.5 482,-56.5 482,-15.5 687,-15.5 687,-56.5"/>
<text text-anchor="start" x="490" y="-44.5" font-family="Helvetica,sans-Serif" font-size="10.00">com.example.mybookshelf.</text>
<text text-anchor="start" x="490" y="-33.5" font-family="Helvetica,sans-Serif" font-size="10.00">BookRecommendationFlow.showFresh</text>
<text text-anchor="middle" x="584.5" y="-22.5" font-family="Helvetica,sans-Serif" font-size="10.00">StartStep3</text>
</a>
</g>
</g>
<!-- Node10&#45;&gt;Node11 -->
<g id="edge11_Node000010_Node000011" class="edge">
<title>Node10&#45;&gt;Node11</title>
<g id="a_edge11_Node000010_Node000011"><a xlink:title=" ">
<path fill="none" stroke="#63b8ff" d="M712.78,-35.47C704.22,-35.5 695.6,-35.54 687.11,-35.57"/>
<polygon fill="#63b8ff" stroke="#63b8ff" points="712.81,-38.97 722.8,-35.43 712.78,-31.97 712.81,-38.97"/>
</a>
</g>
</g>
<!-- Node12 -->
<g id="Node000012" class="node">
<title>Node12</title>
<g id="a_Node000012"><a xlink:href="classcom_1_1example_1_1mybookshelf_1_1BookRecommendationFlow.html#aaf567ca97b0d7f0c58ebba4d6f4b18bd" target="_top" xlink:title=" ">
<polygon fill="white" stroke="#666666" points="446,-57.5 241,-57.5 241,-16.5 446,-16.5 446,-57.5"/>
<text text-anchor="start" x="249" y="-45.5" font-family="Helvetica,sans-Serif" font-size="10.00">com.example.mybookshelf.</text>
<text text-anchor="start" x="249" y="-34.5" font-family="Helvetica,sans-Serif" font-size="10.00">BookRecommendationFlow.showFresh</text>
<text text-anchor="middle" x="343.5" y="-23.5" font-family="Helvetica,sans-Serif" font-size="10.00">StartStep2</text>
</a>
</g>
</g>
<!-- Node11&#45;&gt;Node12 -->
<g id="edge12_Node000011_Node000012" class="edge">
<title>Node11&#45;&gt;Node12</title>
<g id="a_edge12_Node000011_Node000012"><a xlink:title=" ">
<path fill="none" stroke="#63b8ff" d="M471.78,-36.47C463.22,-36.5 454.6,-36.54 446.11,-36.57"/>
<polygon fill="#63b8ff" stroke="#63b8ff" points="471.81,-39.97 481.8,-36.43 471.78,-32.97 471.81,-39.97"/>
</a>
</g>
</g>
<!-- Node13 -->
<g id="Node000013" class="node">
<title>Node13</title>
<g id="a_Node000013"><a xlink:href="classcom_1_1example_1_1mybookshelf_1_1BookRecommendationFlow.html#a4c7dc337216592f7f214f69ce7009d37" target="_top" xlink:title=" ">
<polygon fill="white" stroke="#666666" points="205,-81.5 0,-81.5 0,-40.5 205,-40.5 205,-81.5"/>
<text text-anchor="start" x="8" y="-69.5" font-family="Helvetica,sans-Serif" font-size="10.00">com.example.mybookshelf.</text>
<text text-anchor="start" x="8" y="-58.5" font-family="Helvetica,sans-Serif" font-size="10.00">BookRecommendationFlow.showFresh</text>
<text text-anchor="middle" x="102.5" y="-47.5" font-family="Helvetica,sans-Serif" font-size="10.00">StartStep1</text>
</a>
</g>
</g>
<!-- Node12&#45;&gt;Node13 -->
<g id="edge13_Node000012_Node000013" class="edge">
<title>Node12&#45;&gt;Node13</title>
<g id="a_edge13_Node000012_Node000013"><a xlink:title=" ">
<path fill="none" stroke="#63b8ff" d="M230.78,-48.22C222.22,-49.08 213.6,-49.94 205.11,-50.8"/>
<polygon fill="#63b8ff" stroke="#63b8ff" points="231.2,-51.69 240.8,-47.21 230.5,-44.73 231.2,-51.69"/>
</a>
</g>
</g>
<!-- Node13&#45;&gt;Node5 -->
<g id="edge14_Node000013_Node000005" class="edge">
<title>Node13&#45;&gt;Node5</title>
<g id="a_edge14_Node000013_Node000005"><a xlink:title=" ">
<path fill="none" stroke="#63b8ff" d="M215.16,-70.11C312.39,-77.26 457.17,-86 583.5,-86 1509,-86 1509,-86 1509,-86 1653.69,-86 1689.98,-80.93 1834,-67 1845.6,-65.88 1857.74,-64.51 1869.77,-63.03"/>
<polygon fill="#63b8ff" stroke="#63b8ff" points="215.25,-66.61 205.02,-69.36 214.73,-73.59 215.25,-66.61"/>
</a>
</g>
</g>
</g>
</svg>
