<?xml version="1.0" encoding="UTF-8" standalone="no"?>
<!DOCTYPE svg PUBLIC "-//W3C//DTD SVG 1.1//EN"
 "http://www.w3.org/Graphics/SVG/1.1/DTD/svg11.dtd">
<!-- Generated by graphviz version 2.43.0 (0)
 -->
<!-- Title: com.example.mybookshelf.dataClass.User.User Pages: 1 -->
<svg width="485pt" height="194pt"
 viewBox="0.00 0.00 485.00 194.00" xmlns="http://www.w3.org/2000/svg" xmlns:xlink="http://www.w3.org/1999/xlink">

<svg id="main" version="1.1" xmlns="http://www.w3.org/2000/svg" xmlns:xlink="http://www.w3.org/1999/xlink" xml:space="preserve">

<style type="text/css"><![CDATA[
.node, .edge {opacity: 0.7;}
.node.selected, .edge.selected {opacity: 1;}
.edge:hover path { stroke: red; }
.edge:hover polygon { stroke: red; fill: red; }
]]></style>
<script type="application/ecmascript" xlink:href="svg.min.js"/>
<svg id="graph" class="graph">
<g id="graph0" class="graph" transform="scale(1 1) rotate(0) translate(4 190)">
<title>com.example.mybookshelf.dataClass.User.User</title>
<!-- Node1 -->
<g id="Node000001" class="node">
<title>Node1</title>
<g id="a_Node000001"><a xlink:title=" ">
<polygon fill="#999999" stroke="#666666" points="174,-111 0,-111 0,-81 174,-81 174,-111"/>
<text text-anchor="start" x="8" y="-99" font-family="Helvetica,sans-Serif" font-size="10.00">com.example.mybookshelf.data</text>
<text text-anchor="middle" x="87" y="-88" font-family="Helvetica,sans-Serif" font-size="10.00">Class.User.User</text>
</a>
</g>
</g>
<!-- Node1&#45;&gt;Node1 -->
<g id="edge5_Node000001_Node000001" class="edge">
<title>Node1&#45;&gt;Node1</title>
<g id="a_edge5_Node000001_Node000001"><a xlink:title=" ">
<path fill="none" stroke="#63b8ff" d="M42,-111.28C32,-120.41 47,-129 87,-129 110.75,-129 125.69,-125.97 131.81,-121.6"/>
<polygon fill="#63b8ff" stroke="#63b8ff" points="135.31,-121.34 132,-111.28 128.32,-121.21 135.31,-121.34"/>
</a>
</g>
</g>
<!-- Node2 -->
<g id="Node000002" class="node">
<title>Node2</title>
<g id="a_Node000002"><a xlink:href="classcom_1_1example_1_1mybookshelf_1_1notifications_1_1NotificationScheduler.html#afc96590cd792b862b32762b84cab085e" target="_top" xlink:title=" ">
<polygon fill="white" stroke="#666666" points="461.5,-186 225.5,-186 225.5,-156 461.5,-156 461.5,-186"/>
<text text-anchor="start" x="233.5" y="-174" font-family="Helvetica,sans-Serif" font-size="10.00">com.example.mybookshelf.notifications.</text>
<text text-anchor="middle" x="343.5" y="-163" font-family="Helvetica,sans-Serif" font-size="10.00">NotificationScheduler.cancelDailyNotification</text>
</a>
</g>
</g>
<!-- Node1&#45;&gt;Node2 -->
<g id="edge1_Node000001_Node000002" class="edge">
<title>Node1&#45;&gt;Node2</title>
<g id="a_edge1_Node000001_Node000002"><a xlink:title=" ">
<path fill="none" stroke="#63b8ff" d="M118.67,-111.01C142.94,-122.35 177.97,-137.53 210,-147 218.31,-149.46 226.98,-151.71 235.75,-153.75"/>
<polygon fill="#63b8ff" stroke="#63b8ff" points="235.15,-157.21 245.68,-155.98 236.69,-150.38 235.15,-157.21"/>
</a>
</g>
</g>
<!-- Node3 -->
<g id="Node000003" class="node">
<title>Node3</title>
<g id="a_Node000003"><a xlink:href="classcom_1_1example_1_1mybookshelf_1_1notifications_1_1NotificationScheduler.html#a10e7adec73e1f0e63d8376cad273e11a" target="_top" xlink:title=" ">
<polygon fill="white" stroke="#666666" points="471,-138 216,-138 216,-108 471,-108 471,-138"/>
<text text-anchor="start" x="224" y="-126" font-family="Helvetica,sans-Serif" font-size="10.00">com.example.mybookshelf.notifications.</text>
<text text-anchor="middle" x="343.5" y="-115" font-family="Helvetica,sans-Serif" font-size="10.00">NotificationScheduler.cancelOneTimeNotification</text>
</a>
</g>
</g>
<!-- Node1&#45;&gt;Node3 -->
<g id="edge2_Node000001_Node000003" class="edge">
<title>Node1&#45;&gt;Node3</title>
<g id="a_edge2_Node000001_Node000003"><a xlink:title=" ">
<path fill="none" stroke="#63b8ff" d="M174.16,-105.14C184.33,-106.22 194.88,-107.34 205.53,-108.47"/>
<polygon fill="#63b8ff" stroke="#63b8ff" points="205.44,-111.98 215.75,-109.55 206.18,-105.02 205.44,-111.98"/>
</a>
</g>
</g>
<!-- Node4 -->
<g id="Node000004" class="node">
<title>Node4</title>
<g id="a_Node000004"><a xlink:href="classcom_1_1example_1_1mybookshelf_1_1notifications_1_1NotificationScheduler.html#adb2c3bbb24876b087277d011a6df1577" target="_top" xlink:title=" ">
<polygon fill="white" stroke="#666666" points="459.5,-89.5 227.5,-89.5 227.5,-48.5 459.5,-48.5 459.5,-89.5"/>
<text text-anchor="start" x="235.5" y="-77.5" font-family="Helvetica,sans-Serif" font-size="10.00">com.example.mybookshelf.notifications.</text>
<text text-anchor="start" x="235.5" y="-66.5" font-family="Helvetica,sans-Serif" font-size="10.00">NotificationScheduler.isOneTimeNotification</text>
<text text-anchor="middle" x="343.5" y="-55.5" font-family="Helvetica,sans-Serif" font-size="10.00">Scheduled</text>
</a>
</g>
</g>
<!-- Node1&#45;&gt;Node4 -->
<g id="edge3_Node000001_Node000004" class="edge">
<title>Node1&#45;&gt;Node4</title>
<g id="a_edge3_Node000001_Node000004"><a xlink:title=" ">
<path fill="none" stroke="#63b8ff" d="M174.16,-86.86C187.99,-85.39 202.54,-83.85 217.06,-82.31"/>
<polygon fill="#63b8ff" stroke="#63b8ff" points="217.52,-85.78 227.09,-81.24 216.78,-78.82 217.52,-85.78"/>
</a>
</g>
</g>
<!-- Node5 -->
<g id="Node000005" class="node">
<title>Node5</title>
<g id="a_Node000005"><a xlink:href="classcom_1_1example_1_1mybookshelf_1_1notifications_1_1NotificationScheduler.html#a0a97077bdcc3f2c0fc441d5f3e8e2d62" target="_top" xlink:title=" ">
<polygon fill="white" stroke="#666666" points="477,-30 210,-30 210,0 477,0 477,-30"/>
<text text-anchor="start" x="218" y="-18" font-family="Helvetica,sans-Serif" font-size="10.00">com.example.mybookshelf.notifications.</text>
<text text-anchor="middle" x="343.5" y="-7" font-family="Helvetica,sans-Serif" font-size="10.00">NotificationScheduler.scheduleOneTimeNotification</text>
</a>
</g>
</g>
<!-- Node1&#45;&gt;Node5 -->
<g id="edge4_Node000001_Node000005" class="edge">
<title>Node1&#45;&gt;Node5</title>
<g id="a_edge4_Node000001_Node000005"><a xlink:title=" ">
<path fill="none" stroke="#63b8ff" d="M115.81,-80.86C140.05,-68.25 176.47,-50.68 210,-40 218.86,-37.18 228.15,-34.63 237.54,-32.34"/>
<polygon fill="#63b8ff" stroke="#63b8ff" points="238.4,-35.73 247.34,-30.04 236.81,-28.92 238.4,-35.73"/>
</a>
</g>
</g>
</g>
</svg>
</svg>

<style type='text/css'>
<![CDATA[
[data-mouse-over-selected='false'] { opacity: 0.7; }
[data-mouse-over-selected='true']  { opacity: 1.0; }
]]>
</style>
<script type="application/ecmascript"><![CDATA[
document.addEventListener('DOMContentLoaded', (event) => {
  highlightEdges();
  highlightAdjacentNodes();
});
]]></script>
</svg>
