<?xml version="1.0" encoding="UTF-8" standalone="no"?>
<!DOCTYPE svg PUBLIC "-//W3C//DTD SVG 1.1//EN"
 "http://www.w3.org/Graphics/SVG/1.1/DTD/svg11.dtd">
<!-- Generated by graphviz version 2.43.0 (0)
 -->
<!-- Title: com.example.mybookshelf.dataClass.Goal.getTarget Pages: 1 -->
<svg width="687pt" height="242pt"
 viewBox="0.00 0.00 687.00 242.00" xmlns="http://www.w3.org/2000/svg" xmlns:xlink="http://www.w3.org/1999/xlink">
<g id="graph0" class="graph" transform="scale(1 1) rotate(0) translate(4 238)">
<title>com.example.mybookshelf.dataClass.Goal.getTarget</title>
<!-- Node1 -->
<g id="Node000001" class="node">
<title>Node1</title>
<g id="a_Node000001"><a xlink:title=" ">
<polygon fill="#999999" stroke="#666666" points="679,-126 505,-126 505,-96 679,-96 679,-126"/>
<text text-anchor="start" x="513" y="-114" font-family="Helvetica,sans-Serif" font-size="10.00">com.example.mybookshelf.data</text>
<text text-anchor="middle" x="592" y="-103" font-family="Helvetica,sans-Serif" font-size="10.00">Class.Goal.getTarget</text>
</a>
</g>
</g>
<!-- Node2 -->
<g id="Node000002" class="node">
<title>Node2</title>
<g id="a_Node000002"><a xlink:href="classcom_1_1example_1_1mybookshelf_1_1DataBaseConnection.html#a3b22d6106c92d008ed8b05c10892f0b7" target="_top" xlink:title=" ">
<polygon fill="white" stroke="#666666" points="437,-234 275,-234 275,-204 437,-204 437,-234"/>
<text text-anchor="start" x="283" y="-222" font-family="Helvetica,sans-Serif" font-size="10.00">com.example.mybookshelf.</text>
<text text-anchor="middle" x="356" y="-211" font-family="Helvetica,sans-Serif" font-size="10.00">DataBaseConnection.addGoal</text>
</a>
</g>
</g>
<!-- Node1&#45;&gt;Node2 -->
<g id="edge1_Node000001_Node000002" class="edge">
<title>Node1&#45;&gt;Node2</title>
<g id="a_edge1_Node000001_Node000002"><a xlink:title=" ">
<path fill="none" stroke="#63b8ff" d="M565.99,-132.63C542.49,-151.84 505.54,-179.25 469,-195 458.96,-199.33 448.06,-202.91 437.14,-205.86"/>
<polygon fill="#63b8ff" stroke="#63b8ff" points="568.27,-135.29 573.73,-126.21 563.8,-129.91 568.27,-135.29"/>
</a>
</g>
</g>
<!-- Node3 -->
<g id="Node000003" class="node">
<title>Node3</title>
<g id="a_Node000003"><a xlink:href="classcom_1_1example_1_1mybookshelf_1_1LayoutManager_1_1CustomGoalAdapter.html#af6a51f456a68a61bedc36289b91e0716" target="_top" xlink:title=" ">
<polygon fill="white" stroke="#666666" points="469,-185.5 243,-185.5 243,-144.5 469,-144.5 469,-185.5"/>
<text text-anchor="start" x="251" y="-173.5" font-family="Helvetica,sans-Serif" font-size="10.00">com.example.mybookshelf.</text>
<text text-anchor="start" x="251" y="-162.5" font-family="Helvetica,sans-Serif" font-size="10.00">LayoutManager.CustomGoalAdapter.create</text>
<text text-anchor="middle" x="356" y="-151.5" font-family="Helvetica,sans-Serif" font-size="10.00">GoalBox</text>
</a>
</g>
</g>
<!-- Node1&#45;&gt;Node3 -->
<g id="edge2_Node000001_Node000003" class="edge">
<title>Node1&#45;&gt;Node3</title>
<g id="a_edge2_Node000001_Node000003"><a xlink:title=" ">
<path fill="none" stroke="#63b8ff" d="M516.07,-128.29C493.73,-133.45 469.02,-139.15 445.88,-144.49"/>
<polygon fill="#63b8ff" stroke="#63b8ff" points="516.86,-131.7 525.82,-126.04 515.29,-124.88 516.86,-131.7"/>
</a>
</g>
</g>
<!-- Node5 -->
<g id="Node000005" class="node">
<title>Node5</title>
<g id="a_Node000005"><a xlink:href="classcom_1_1example_1_1mybookshelf_1_1GoalHandler.html#ac10bf110d981c8788e0e4b9b2e25177e" target="_top" xlink:title=" ">
<polygon fill="white" stroke="#666666" points="440,-126 272,-126 272,-96 440,-96 440,-126"/>
<text text-anchor="start" x="280" y="-114" font-family="Helvetica,sans-Serif" font-size="10.00">com.example.mybookshelf.</text>
<text text-anchor="middle" x="356" y="-103" font-family="Helvetica,sans-Serif" font-size="10.00">GoalHandler.handleBookAdded</text>
</a>
</g>
</g>
<!-- Node1&#45;&gt;Node5 -->
<g id="edge4_Node000001_Node000005" class="edge">
<title>Node1&#45;&gt;Node5</title>
<g id="a_edge4_Node000001_Node000005"><a xlink:title=" ">
<path fill="none" stroke="#63b8ff" d="M494.62,-111C476.57,-111 457.84,-111 440.23,-111"/>
<polygon fill="#63b8ff" stroke="#63b8ff" points="494.86,-114.5 504.86,-111 494.86,-107.5 494.86,-114.5"/>
</a>
</g>
</g>
<!-- Node6 -->
<g id="Node000006" class="node">
<title>Node6</title>
<g id="a_Node000006"><a xlink:href="classcom_1_1example_1_1mybookshelf_1_1GoalHandler.html#a5ddb8c71cb9828e9525f4bafefaf685f" target="_top" xlink:title=" ">
<polygon fill="white" stroke="#666666" points="443,-78 269,-78 269,-48 443,-48 443,-78"/>
<text text-anchor="start" x="277" y="-66" font-family="Helvetica,sans-Serif" font-size="10.00">com.example.mybookshelf.</text>
<text text-anchor="middle" x="356" y="-55" font-family="Helvetica,sans-Serif" font-size="10.00">GoalHandler.handleBookChange</text>
</a>
</g>
</g>
<!-- Node1&#45;&gt;Node6 -->
<g id="edge5_Node000001_Node000006" class="edge">
<title>Node1&#45;&gt;Node6</title>
<g id="a_edge5_Node000001_Node000006"><a xlink:title=" ">
<path fill="none" stroke="#63b8ff" d="M507.66,-93.9C482.34,-88.71 454.73,-83.05 430.14,-78"/>
<polygon fill="#63b8ff" stroke="#63b8ff" points="507.1,-97.36 517.6,-95.94 508.51,-90.51 507.1,-97.36"/>
</a>
</g>
</g>
<!-- Node7 -->
<g id="Node000007" class="node">
<title>Node7</title>
<g id="a_Node000007"><a xlink:href="classcom_1_1example_1_1mybookshelf_1_1GoalHandler.html#a326d9e94cb83508cae6d760df1bd5718" target="_top" xlink:title=" ">
<polygon fill="white" stroke="#666666" points="448,-30 264,-30 264,0 448,0 448,-30"/>
<text text-anchor="start" x="272" y="-18" font-family="Helvetica,sans-Serif" font-size="10.00">com.example.mybookshelf.</text>
<text text-anchor="middle" x="356" y="-7" font-family="Helvetica,sans-Serif" font-size="10.00">GoalHandler.handleBookRemoved</text>
</a>
</g>
</g>
<!-- Node1&#45;&gt;Node7 -->
<g id="edge6_Node000001_Node000007" class="edge">
<title>Node1&#45;&gt;Node7</title>
<g id="a_edge6_Node000001_Node000007"><a xlink:title=" ">
<path fill="none" stroke="#63b8ff" d="M561.78,-90.09C537.88,-73.92 502.67,-52.14 469,-39 460.29,-35.6 451.01,-32.64 441.65,-30.08"/>
<polygon fill="#63b8ff" stroke="#63b8ff" points="559.82,-92.99 570.04,-95.77 563.78,-87.22 559.82,-92.99"/>
</a>
</g>
</g>
<!-- Node4 -->
<g id="Node000004" class="node">
<title>Node4</title>
<g id="a_Node000004"><a xlink:href="classcom_1_1example_1_1mybookshelf_1_1LayoutManager_1_1CustomGoalAdapter.html#ad2264dc4c944b992a8cac174bebb6694" target="_top" xlink:title=" ">
<polygon fill="white" stroke="#666666" points="207,-185.5 0,-185.5 0,-144.5 207,-144.5 207,-185.5"/>
<text text-anchor="start" x="8" y="-173.5" font-family="Helvetica,sans-Serif" font-size="10.00">com.example.mybookshelf.</text>
<text text-anchor="start" x="8" y="-162.5" font-family="Helvetica,sans-Serif" font-size="10.00">LayoutManager.CustomGoalAdapter.on</text>
<text text-anchor="middle" x="103.5" y="-151.5" font-family="Helvetica,sans-Serif" font-size="10.00">BindViewHolder</text>
</a>
</g>
</g>
<!-- Node3&#45;&gt;Node4 -->
<g id="edge3_Node000003_Node000004" class="edge">
<title>Node3&#45;&gt;Node4</title>
<g id="a_edge3_Node000003_Node000004"><a xlink:title=" ">
<path fill="none" stroke="#63b8ff" d="M232.91,-165C224.35,-165 215.77,-165 207.33,-165"/>
<polygon fill="#63b8ff" stroke="#63b8ff" points="232.94,-168.5 242.94,-165 232.94,-161.5 232.94,-168.5"/>
</a>
</g>
</g>
</g>
</svg>
