<?xml version="1.0" encoding="UTF-8" standalone="no"?>
<!DOCTYPE svg PUBLIC "-//W3C//DTD SVG 1.1//EN"
 "http://www.w3.org/Graphics/SVG/1.1/DTD/svg11.dtd">
<!-- Generated by graphviz version 2.43.0 (0)
 -->
<!-- Title: com.example.mybookshelf.UIMaster.navigateToStats Pages: 1 -->
<svg width="797pt" height="230pt"
 viewBox="0.00 0.00 797.00 230.00" xmlns="http://www.w3.org/2000/svg" xmlns:xlink="http://www.w3.org/1999/xlink">
<g id="graph0" class="graph" transform="scale(1 1) rotate(0) translate(4 226)">
<title>com.example.mybookshelf.UIMaster.navigateToStats</title>
<!-- Node1 -->
<g id="Node000001" class="node">
<title>Node1</title>
<g id="a_Node000001"><a xlink:title=" ">
<polygon fill="#999999" stroke="#666666" points="152,-102 0,-102 0,-72 152,-72 152,-102"/>
<text text-anchor="start" x="8" y="-90" font-family="Helvetica,sans-Serif" font-size="10.00">com.example.mybookshelf.</text>
<text text-anchor="middle" x="76" y="-79" font-family="Helvetica,sans-Serif" font-size="10.00">UIMaster.navigateToStats</text>
</a>
</g>
</g>
<!-- Node2 -->
<g id="Node000002" class="node">
<title>Node2</title>
<g id="a_Node000002"><a xlink:href="classcom_1_1example_1_1mybookshelf_1_1UIMaster.html#aeadc13ea946b279afce35c39bb36f3b6" target="_top" xlink:title=" ">
<polygon fill="white" stroke="#666666" points="358,-150 206,-150 206,-120 358,-120 358,-150"/>
<text text-anchor="start" x="214" y="-138" font-family="Helvetica,sans-Serif" font-size="10.00">com.example.mybookshelf.</text>
<text text-anchor="middle" x="282" y="-127" font-family="Helvetica,sans-Serif" font-size="10.00">UIMaster.initializeViews</text>
</a>
</g>
</g>
<!-- Node1&#45;&gt;Node2 -->
<g id="edge1_Node000001_Node000002" class="edge">
<title>Node1&#45;&gt;Node2</title>
<g id="a_edge1_Node000001_Node000002"><a xlink:title=" ">
<path fill="none" stroke="#63b8ff" d="M140.99,-102.06C162.06,-107.01 185.67,-112.57 207.4,-117.68"/>
<polygon fill="#63b8ff" stroke="#63b8ff" points="206.7,-121.11 217.24,-120 208.31,-114.3 206.7,-121.11"/>
</a>
</g>
</g>
<!-- Node3 -->
<g id="Node000003" class="node">
<title>Node3</title>
<g id="a_Node000003"><a xlink:href="classcom_1_1example_1_1mybookshelf_1_1UIMaster.html#a5c502183bab9192d9f38b42a28be7164" target="_top" xlink:title=" ">
<polygon fill="white" stroke="#666666" points="363.5,-102 200.5,-102 200.5,-72 363.5,-72 363.5,-102"/>
<text text-anchor="start" x="208.5" y="-90" font-family="Helvetica,sans-Serif" font-size="10.00">com.example.mybookshelf.</text>
<text text-anchor="middle" x="282" y="-79" font-family="Helvetica,sans-Serif" font-size="10.00">UIMaster.loadChartDataAsync</text>
</a>
</g>
</g>
<!-- Node1&#45;&gt;Node3 -->
<g id="edge2_Node000001_Node000003" class="edge">
<title>Node1&#45;&gt;Node3</title>
<g id="a_edge2_Node000001_Node000003"><a xlink:title=" ">
<path fill="none" stroke="#63b8ff" d="M152.09,-87C164.46,-87 177.4,-87 190.11,-87"/>
<polygon fill="#63b8ff" stroke="#63b8ff" points="190.24,-90.5 200.24,-87 190.24,-83.5 190.24,-90.5"/>
</a>
</g>
</g>
<!-- Node11 -->
<g id="Node000011" class="node">
<title>Node11</title>
<g id="a_Node000011"><a xlink:href="classcom_1_1example_1_1mybookshelf_1_1UIMaster.html#a3bb75047e98f0333fa2fdfd173bc80b0" target="_top" xlink:title=" ">
<polygon fill="white" stroke="#666666" points="376,-54 188,-54 188,-24 376,-24 376,-54"/>
<text text-anchor="start" x="196" y="-42" font-family="Helvetica,sans-Serif" font-size="10.00">com.example.mybookshelf.</text>
<text text-anchor="middle" x="282" y="-31" font-family="Helvetica,sans-Serif" font-size="10.00">UIMaster.setupNavigationListeners</text>
</a>
</g>
</g>
<!-- Node1&#45;&gt;Node11 -->
<g id="edge10_Node000001_Node000011" class="edge">
<title>Node1&#45;&gt;Node11</title>
<g id="a_edge10_Node000001_Node000011"><a xlink:title=" ">
<path fill="none" stroke="#63b8ff" d="M140.99,-71.94C162.06,-66.99 185.67,-61.43 207.4,-56.32"/>
<polygon fill="#63b8ff" stroke="#63b8ff" points="208.31,-59.7 217.24,-54 206.7,-52.89 208.31,-59.7"/>
</a>
</g>
</g>
<!-- Node4 -->
<g id="Node000004" class="node">
<title>Node4</title>
<g id="a_Node000004"><a xlink:href="classcom_1_1example_1_1mybookshelf_1_1UIMaster.html#a1d0b44fba73323953ffbbf69f4f3f4cb" target="_top" xlink:title=" ">
<polygon fill="white" stroke="#666666" points="565.5,-126 413.5,-126 413.5,-96 565.5,-96 565.5,-126"/>
<text text-anchor="start" x="421.5" y="-114" font-family="Helvetica,sans-Serif" font-size="10.00">com.example.mybookshelf.</text>
<text text-anchor="middle" x="489.5" y="-103" font-family="Helvetica,sans-Serif" font-size="10.00">UIMaster.setupChart</text>
</a>
</g>
</g>
<!-- Node3&#45;&gt;Node4 -->
<g id="edge3_Node000003_Node000004" class="edge">
<title>Node3&#45;&gt;Node4</title>
<g id="a_edge3_Node000003_Node000004"><a xlink:title=" ">
<path fill="none" stroke="#63b8ff" d="M363.63,-96.42C376.71,-97.94 390.3,-99.53 403.48,-101.07"/>
<polygon fill="#63b8ff" stroke="#63b8ff" points="403.13,-104.55 413.47,-102.24 403.94,-97.6 403.13,-104.55"/>
</a>
</g>
</g>
<!-- Node10 -->
<g id="Node000010" class="node">
<title>Node10</title>
<g id="a_Node000010"><a xlink:href="classcom_1_1example_1_1mybookshelf_1_1UIMaster.html#a3beb8f5e82c56206227f83e05d2e2dba" target="_top" xlink:title=" ">
<polygon fill="white" stroke="#666666" points="567,-78 412,-78 412,-48 567,-48 567,-78"/>
<text text-anchor="start" x="420" y="-66" font-family="Helvetica,sans-Serif" font-size="10.00">com.example.mybookshelf.</text>
<text text-anchor="middle" x="489.5" y="-55" font-family="Helvetica,sans-Serif" font-size="10.00">UIMaster.showErrorMessage</text>
</a>
</g>
</g>
<!-- Node3&#45;&gt;Node10 -->
<g id="edge9_Node000003_Node000010" class="edge">
<title>Node3&#45;&gt;Node10</title>
<g id="a_edge9_Node000003_Node000010"><a xlink:title=" ">
<path fill="none" stroke="#63b8ff" d="M363.63,-77.58C376.14,-76.12 389.11,-74.61 401.75,-73.13"/>
<polygon fill="#63b8ff" stroke="#63b8ff" points="402.27,-76.59 411.8,-71.96 401.46,-69.64 402.27,-76.59"/>
</a>
</g>
</g>
<!-- Node5 -->
<g id="Node000005" class="node">
<title>Node5</title>
<g id="a_Node000005"><a xlink:href="classcom_1_1example_1_1mybookshelf_1_1UIMaster.html#a66cf6ce29c43e6db34be85ae9990c102" target="_top" xlink:title=" ">
<polygon fill="white" stroke="#666666" points="772,-222 620,-222 620,-192 772,-192 772,-222"/>
<text text-anchor="start" x="628" y="-210" font-family="Helvetica,sans-Serif" font-size="10.00">com.example.mybookshelf.</text>
<text text-anchor="middle" x="696" y="-199" font-family="Helvetica,sans-Serif" font-size="10.00">UIMaster.configureAxes</text>
</a>
</g>
</g>
<!-- Node4&#45;&gt;Node5 -->
<g id="edge4_Node000004_Node000005" class="edge">
<title>Node4&#45;&gt;Node5</title>
<g id="a_edge4_Node000004_Node000005"><a xlink:title=" ">
<path fill="none" stroke="#63b8ff" d="M509.75,-126.01C531.34,-142.19 567.94,-167.67 603,-183 607.7,-185.06 612.62,-186.97 617.62,-188.74"/>
<polygon fill="#63b8ff" stroke="#63b8ff" points="616.74,-192.13 627.34,-191.97 618.95,-185.49 616.74,-192.13"/>
</a>
</g>
</g>
<!-- Node6 -->
<g id="Node000006" class="node">
<title>Node6</title>
<g id="a_Node000006"><a xlink:href="classcom_1_1example_1_1mybookshelf_1_1UIMaster.html#ae589c66b6b1826db14cd0185e2453c12" target="_top" xlink:title=" ">
<polygon fill="white" stroke="#666666" points="772,-174 620,-174 620,-144 772,-144 772,-174"/>
<text text-anchor="start" x="628" y="-162" font-family="Helvetica,sans-Serif" font-size="10.00">com.example.mybookshelf.</text>
<text text-anchor="middle" x="696" y="-151" font-family="Helvetica,sans-Serif" font-size="10.00">UIMaster.configureChart</text>
</a>
</g>
</g>
<!-- Node4&#45;&gt;Node6 -->
<g id="edge5_Node000004_Node000006" class="edge">
<title>Node4&#45;&gt;Node6</title>
<g id="a_edge5_Node000004_Node000006"><a xlink:title=" ">
<path fill="none" stroke="#63b8ff" d="M554.64,-126.06C575.77,-131.01 599.43,-136.57 621.22,-141.68"/>
<polygon fill="#63b8ff" stroke="#63b8ff" points="620.55,-145.12 631.08,-144 622.15,-138.31 620.55,-145.12"/>
</a>
</g>
</g>
<!-- Node7 -->
<g id="Node000007" class="node">
<title>Node7</title>
<g id="a_Node000007"><a xlink:href="classcom_1_1example_1_1mybookshelf_1_1UIMaster.html#a2f446043c1019868262b5e49ddb58609" target="_top" xlink:title=" ">
<polygon fill="white" stroke="#666666" points="785,-126 607,-126 607,-96 785,-96 785,-126"/>
<text text-anchor="start" x="615" y="-114" font-family="Helvetica,sans-Serif" font-size="10.00">com.example.mybookshelf.</text>
<text text-anchor="middle" x="696" y="-103" font-family="Helvetica,sans-Serif" font-size="10.00">UIMaster.convertMinutesToHours</text>
</a>
</g>
</g>
<!-- Node4&#45;&gt;Node7 -->
<g id="edge6_Node000004_Node000007" class="edge">
<title>Node4&#45;&gt;Node7</title>
<g id="a_edge6_Node000004_Node000007"><a xlink:title=" ">
<path fill="none" stroke="#63b8ff" d="M565.78,-111C575.77,-111 586.13,-111 596.45,-111"/>
<polygon fill="#63b8ff" stroke="#63b8ff" points="596.73,-114.5 606.73,-111 596.73,-107.5 596.73,-114.5"/>
</a>
</g>
</g>
<!-- Node8 -->
<g id="Node000008" class="node">
<title>Node8</title>
<g id="a_Node000008"><a xlink:href="classcom_1_1example_1_1mybookshelf_1_1UIMaster.html#a5368b8b93b9216d91a256a2302ea04c8" target="_top" xlink:title=" ">
<polygon fill="white" stroke="#666666" points="789,-78 603,-78 603,-48 789,-48 789,-78"/>
<text text-anchor="start" x="611" y="-66" font-family="Helvetica,sans-Serif" font-size="10.00">com.example.mybookshelf.</text>
<text text-anchor="middle" x="696" y="-55" font-family="Helvetica,sans-Serif" font-size="10.00">UIMaster.displayTotalReadingTime</text>
</a>
</g>
</g>
<!-- Node4&#45;&gt;Node8 -->
<g id="edge7_Node000004_Node000008" class="edge">
<title>Node4&#45;&gt;Node8</title>
<g id="a_edge7_Node000004_Node000008"><a xlink:title=" ">
<path fill="none" stroke="#63b8ff" d="M554.64,-95.94C575.77,-90.99 599.43,-85.43 621.22,-80.32"/>
<polygon fill="#63b8ff" stroke="#63b8ff" points="622.15,-83.69 631.08,-78 620.55,-76.88 622.15,-83.69"/>
</a>
</g>
</g>
<!-- Node9 -->
<g id="Node000009" class="node">
<title>Node9</title>
<g id="a_Node000009"><a xlink:href="classcom_1_1example_1_1mybookshelf_1_1UIMaster.html#a897a27ba41fe604acf9472257ad18685" target="_top" xlink:title=" ">
<polygon fill="white" stroke="#666666" points="772,-30 620,-30 620,0 772,0 772,-30"/>
<text text-anchor="start" x="628" y="-18" font-family="Helvetica,sans-Serif" font-size="10.00">com.example.mybookshelf.</text>
<text text-anchor="middle" x="696" y="-7" font-family="Helvetica,sans-Serif" font-size="10.00">UIMaster.filterValidEntries</text>
</a>
</g>
</g>
<!-- Node4&#45;&gt;Node9 -->
<g id="edge8_Node000004_Node000009" class="edge">
<title>Node4&#45;&gt;Node9</title>
<g id="a_edge8_Node000004_Node000009"><a xlink:title=" ">
<path fill="none" stroke="#63b8ff" d="M551.1,-95.98C556.71,-93.43 562.11,-90.46 567,-87 588.77,-71.6 580.86,-53.86 603,-39 605.44,-37.36 607.99,-35.83 610.61,-34.41"/>
<polygon fill="#63b8ff" stroke="#63b8ff" points="612.33,-37.47 619.81,-29.96 609.28,-31.17 612.33,-37.47"/>
</a>
</g>
</g>
</g>
</svg>
