<?xml version="1.0" encoding="UTF-8" standalone="no"?>
<!DOCTYPE svg PUBLIC "-//W3C//DTD SVG 1.1//EN"
 "http://www.w3.org/Graphics/SVG/1.1/DTD/svg11.dtd">
<!-- Generated by graphviz version 2.43.0 (0)
 -->
<!-- Title: com.example.mybookshelf.notifications.NotificationScheduler.scheduleDailyNotification Pages: 1 -->
<svg width="808pt" height="290pt"
 viewBox="0.00 0.00 808.00 289.50" xmlns="http://www.w3.org/2000/svg" xmlns:xlink="http://www.w3.org/1999/xlink">
<g id="graph0" class="graph" transform="scale(1 1) rotate(0) translate(4 285.5)">
<title>com.example.mybookshelf.notifications.NotificationScheduler.scheduleDailyNotification</title>
<!-- Node1 -->
<g id="Node000001" class="node">
<title>Node1</title>
<g id="a_Node000001"><a xlink:title=" ">
<polygon fill="#999999" stroke="#666666" points="800,-150 552,-150 552,-120 800,-120 800,-150"/>
<text text-anchor="start" x="560" y="-138" font-family="Helvetica,sans-Serif" font-size="10.00">com.example.mybookshelf.notifications.</text>
<text text-anchor="middle" x="676" y="-127" font-family="Helvetica,sans-Serif" font-size="10.00">NotificationScheduler.scheduleDailyNotification</text>
</a>
</g>
</g>
<!-- Node2 -->
<g id="Node000002" class="node">
<title>Node2</title>
<g id="a_Node000002"><a xlink:href="classcom_1_1example_1_1mybookshelf_1_1notifications_1_1NotificationScheduler.html#afeb40a8c5551b18f32abe21dcc0e130a" target="_top" xlink:title=" ">
<polygon fill="white" stroke="#666666" points="503.5,-281.5 263.5,-281.5 263.5,-240.5 503.5,-240.5 503.5,-281.5"/>
<text text-anchor="start" x="271.5" y="-269.5" font-family="Helvetica,sans-Serif" font-size="10.00">com.example.mybookshelf.notifications.</text>
<text text-anchor="start" x="271.5" y="-258.5" font-family="Helvetica,sans-Serif" font-size="10.00">NotificationScheduler.changeDailyNotification</text>
<text text-anchor="middle" x="383.5" y="-247.5" font-family="Helvetica,sans-Serif" font-size="10.00">Message</text>
</a>
</g>
</g>
<!-- Node1&#45;&gt;Node2 -->
<g id="edge1_Node000001_Node000002" class="edge">
<title>Node1&#45;&gt;Node2</title>
<g id="a_edge1_Node000001_Node000002"><a xlink:title=" ">
<path fill="none" stroke="#63b8ff" d="M646.03,-156.41C615.25,-178.19 564.44,-211.44 516,-231 507.31,-234.51 498.13,-237.65 488.82,-240.46"/>
<polygon fill="#63b8ff" stroke="#63b8ff" points="648.44,-158.99 654.54,-150.32 644.37,-153.3 648.44,-158.99"/>
</a>
</g>
</g>
<!-- Node3 -->
<g id="Node000003" class="node">
<title>Node3</title>
<g id="a_Node000003"><a xlink:href="classcom_1_1example_1_1mybookshelf_1_1notifications_1_1NotificationScheduler.html#a79dcce93490bc0df80c03c0a410672b2" target="_top" xlink:title=" ">
<polygon fill="white" stroke="#666666" points="516,-222 251,-222 251,-192 516,-192 516,-222"/>
<text text-anchor="start" x="259" y="-210" font-family="Helvetica,sans-Serif" font-size="10.00">com.example.mybookshelf.notifications.</text>
<text text-anchor="middle" x="383.5" y="-199" font-family="Helvetica,sans-Serif" font-size="10.00">NotificationScheduler.changeDailyNotificationTime</text>
</a>
</g>
</g>
<!-- Node1&#45;&gt;Node3 -->
<g id="edge2_Node000001_Node000003" class="edge">
<title>Node1&#45;&gt;Node3</title>
<g id="a_edge2_Node000001_Node000003"><a xlink:title=" ">
<path fill="none" stroke="#63b8ff" d="M620.54,-153.1C590.03,-162.82 551.16,-174.51 516,-183 502.69,-186.21 488.53,-189.22 474.62,-191.94"/>
<polygon fill="#63b8ff" stroke="#63b8ff" points="621.69,-156.41 630.14,-150.02 619.55,-149.74 621.69,-156.41"/>
</a>
</g>
</g>
<!-- Node4 -->
<g id="Node000004" class="node">
<title>Node4</title>
<g id="a_Node000004"><a xlink:href="classcom_1_1example_1_1mybookshelf_1_1notifications_1_1NotificationReceiver.html#a16b9874ec4597faf7be00d3c2f9f4c81" target="_top" xlink:title=" ">
<polygon fill="white" stroke="#666666" points="491,-174 276,-174 276,-144 491,-144 491,-174"/>
<text text-anchor="start" x="284" y="-162" font-family="Helvetica,sans-Serif" font-size="10.00">com.example.mybookshelf.notifications.</text>
<text text-anchor="middle" x="383.5" y="-151" font-family="Helvetica,sans-Serif" font-size="10.00">NotificationReceiver.onReceive</text>
</a>
</g>
</g>
<!-- Node1&#45;&gt;Node4 -->
<g id="edge3_Node000001_Node000004" class="edge">
<title>Node1&#45;&gt;Node4</title>
<g id="a_edge3_Node000001_Node000004"><a xlink:title=" ">
<path fill="none" stroke="#63b8ff" d="M541.39,-146.04C524.62,-147.42 507.64,-148.83 491.35,-150.17"/>
<polygon fill="#63b8ff" stroke="#63b8ff" points="542.12,-149.49 551.8,-145.18 541.55,-142.51 542.12,-149.49"/>
</a>
</g>
</g>
<!-- Node5 -->
<g id="Node000005" class="node">
<title>Node5</title>
<g id="a_Node000005"><a xlink:href="classcom_1_1example_1_1mybookshelf_1_1notifications_1_1NotificationScheduler.html#a6a67704352785acd6dcd956ec2f8834f" target="_top" xlink:title=" ">
<polygon fill="white" stroke="#666666" points="493,-126 274,-126 274,-96 493,-96 493,-126"/>
<text text-anchor="start" x="282" y="-114" font-family="Helvetica,sans-Serif" font-size="10.00">com.example.mybookshelf.notifications.</text>
<text text-anchor="middle" x="383.5" y="-103" font-family="Helvetica,sans-Serif" font-size="10.00">NotificationScheduler.restoreNotifications</text>
</a>
</g>
</g>
<!-- Node1&#45;&gt;Node5 -->
<g id="edge4_Node000001_Node000005" class="edge">
<title>Node1&#45;&gt;Node5</title>
<g id="a_edge4_Node000001_Node000005"><a xlink:title=" ">
<path fill="none" stroke="#63b8ff" d="M541.71,-123.99C525.46,-122.65 509,-121.29 493.17,-119.98"/>
<polygon fill="#63b8ff" stroke="#63b8ff" points="541.55,-127.49 551.8,-124.82 542.12,-120.51 541.55,-127.49"/>
</a>
</g>
</g>
<!-- Node7 -->
<g id="Node000007" class="node">
<title>Node7</title>
<g id="a_Node000007"><a xlink:href="classcom_1_1example_1_1mybookshelf_1_1notifications_1_1NotificationScheduler.html#ae8deb5392302274178dbbd3116654098" target="_top" xlink:title=" ">
<polygon fill="white" stroke="#666666" points="507.5,-78 259.5,-78 259.5,-48 507.5,-48 507.5,-78"/>
<text text-anchor="start" x="267.5" y="-66" font-family="Helvetica,sans-Serif" font-size="10.00">com.example.mybookshelf.notifications.</text>
<text text-anchor="middle" x="383.5" y="-55" font-family="Helvetica,sans-Serif" font-size="10.00">NotificationScheduler.scheduleDailyNotification</text>
</a>
</g>
</g>
<!-- Node1&#45;&gt;Node7 -->
<g id="edge6_Node000001_Node000007" class="edge">
<title>Node1&#45;&gt;Node7</title>
<g id="a_edge6_Node000001_Node000007"><a xlink:title=" ">
<path fill="none" stroke="#63b8ff" d="M620.54,-116.9C590.03,-107.18 551.16,-95.49 516,-87 502.69,-83.79 488.53,-80.78 474.62,-78.06"/>
<polygon fill="#63b8ff" stroke="#63b8ff" points="619.55,-120.26 630.14,-119.98 621.69,-113.59 619.55,-120.26"/>
</a>
</g>
</g>
<!-- Node8 -->
<g id="Node000008" class="node">
<title>Node8</title>
<g id="a_Node000008"><a xlink:href="classcom_1_1example_1_1mybookshelf_1_1notifications_1_1NotificationScheduler.html#ae2ade14f140458ae3bdac1c7e0ac35d8" target="_top" xlink:title=" ">
<polygon fill="white" stroke="#666666" points="501.5,-30 265.5,-30 265.5,0 501.5,0 501.5,-30"/>
<text text-anchor="start" x="273.5" y="-18" font-family="Helvetica,sans-Serif" font-size="10.00">com.example.mybookshelf.notifications.</text>
<text text-anchor="middle" x="383.5" y="-7" font-family="Helvetica,sans-Serif" font-size="10.00">NotificationScheduler.toggleDailyNotification</text>
</a>
</g>
</g>
<!-- Node1&#45;&gt;Node8 -->
<g id="edge7_Node000001_Node000008" class="edge">
<title>Node1&#45;&gt;Node8</title>
<g id="a_edge7_Node000001_Node000008"><a xlink:title=" ">
<path fill="none" stroke="#63b8ff" d="M646.71,-113.53C616.12,-91.4 565.13,-57.6 516,-39 506.88,-35.55 497.22,-32.59 487.43,-30.04"/>
<polygon fill="#63b8ff" stroke="#63b8ff" points="645.02,-116.63 655.15,-119.72 649.15,-110.98 645.02,-116.63"/>
</a>
</g>
</g>
<!-- Node6 -->
<g id="Node000006" class="node">
<title>Node6</title>
<g id="a_Node000006"><a xlink:href="classcom_1_1example_1_1mybookshelf_1_1notifications_1_1BootCompletedReceiver.html#a42ee4762f446eaf5c82cf00042f40593" target="_top" xlink:title=" ">
<polygon fill="white" stroke="#666666" points="215,-126 0,-126 0,-96 215,-96 215,-126"/>
<text text-anchor="start" x="8" y="-114" font-family="Helvetica,sans-Serif" font-size="10.00">com.example.mybookshelf.notifications.</text>
<text text-anchor="middle" x="107.5" y="-103" font-family="Helvetica,sans-Serif" font-size="10.00">BootCompletedReceiver.onReceive</text>
</a>
</g>
</g>
<!-- Node5&#45;&gt;Node6 -->
<g id="edge5_Node000005_Node000006" class="edge">
<title>Node5&#45;&gt;Node6</title>
<g id="a_edge5_Node000005_Node000006"><a xlink:title=" ">
<path fill="none" stroke="#63b8ff" d="M263.36,-111C247.36,-111 231.03,-111 215.26,-111"/>
<polygon fill="#63b8ff" stroke="#63b8ff" points="263.81,-114.5 273.81,-111 263.81,-107.5 263.81,-114.5"/>
</a>
</g>
</g>
</g>
</svg>
