<?xml version="1.0" encoding="UTF-8" standalone="no"?>
<!DOCTYPE svg PUBLIC "-//W3C//DTD SVG 1.1//EN"
 "http://www.w3.org/Graphics/SVG/1.1/DTD/svg11.dtd">
<!-- Generated by graphviz version 2.43.0 (0)
 -->
<!-- Title: com.example.mybookshelf.dataClass.Book Pages: 1 -->
<svg width="268pt" height="380pt"
 viewBox="0.00 0.00 267.50 380.00" xmlns="http://www.w3.org/2000/svg" xmlns:xlink="http://www.w3.org/1999/xlink">
<g id="graph0" class="graph" transform="scale(1 1) rotate(0) translate(4 376)">
<title>com.example.mybookshelf.dataClass.Book</title>
<!-- Node1 -->
<g id="Node000001" class="node">
<title>Node1</title>
<g id="a_Node000001"><a xlink:title=" ">
<polygon fill="#999999" stroke="transparent" points="193.5,-210 25.5,-210 25.5,0 193.5,0 193.5,-210"/>
<text text-anchor="start" x="30.5" y="-198" font-family="Helvetica,sans-Serif" font-size="10.00">com.example.mybookshelf.data</text>
<text text-anchor="start" x="82" y="-187" font-family="Helvetica,sans-Serif" font-size="10.00">Class.Book</text>
<text text-anchor="start" x="107.5" y="-172" font-family="Helvetica,sans-Serif" font-size="10.00"> </text>
<text text-anchor="start" x="46.5" y="-157" font-family="Helvetica,sans-Serif" font-size="10.00">+</text>
<text text-anchor="start" x="76.5" y="-157" font-family="Helvetica,sans-Serif" font-size="10.00">Book()</text>
<text text-anchor="start" x="46.5" y="-142" font-family="Helvetica,sans-Serif" font-size="10.00">+</text>
<text text-anchor="start" x="76.5" y="-142" font-family="Helvetica,sans-Serif" font-size="10.00">getGenre()</text>
<text text-anchor="start" x="46.5" y="-127" font-family="Helvetica,sans-Serif" font-size="10.00">+</text>
<text text-anchor="start" x="76.5" y="-127" font-family="Helvetica,sans-Serif" font-size="10.00">getId()</text>
<text text-anchor="start" x="46.5" y="-112" font-family="Helvetica,sans-Serif" font-size="10.00">+</text>
<text text-anchor="start" x="76.5" y="-112" font-family="Helvetica,sans-Serif" font-size="10.00">isInDatabase()</text>
<text text-anchor="start" x="46.5" y="-97" font-family="Helvetica,sans-Serif" font-size="10.00">+</text>
<text text-anchor="start" x="76.5" y="-97" font-family="Helvetica,sans-Serif" font-size="10.00">setInDatabase()</text>
<text text-anchor="start" x="46.5" y="-82" font-family="Helvetica,sans-Serif" font-size="10.00">+</text>
<text text-anchor="start" x="76.5" y="-82" font-family="Helvetica,sans-Serif" font-size="10.00">Book()</text>
<text text-anchor="start" x="46.5" y="-67" font-family="Helvetica,sans-Serif" font-size="10.00">+</text>
<text text-anchor="start" x="76.5" y="-67" font-family="Helvetica,sans-Serif" font-size="10.00">Book()</text>
<text text-anchor="start" x="46.5" y="-52" font-family="Helvetica,sans-Serif" font-size="10.00">+</text>
<text text-anchor="start" x="76.5" y="-52" font-family="Helvetica,sans-Serif" font-size="10.00">Book()</text>
<text text-anchor="start" x="46.5" y="-37" font-family="Helvetica,sans-Serif" font-size="10.00">+</text>
<text text-anchor="start" x="76.5" y="-37" font-family="Helvetica,sans-Serif" font-size="10.00">Book()</text>
<text text-anchor="start" x="46.5" y="-22" font-family="Helvetica,sans-Serif" font-size="10.00">+</text>
<text text-anchor="start" x="76.5" y="-22" font-family="Helvetica,sans-Serif" font-size="10.00">Book()</text>
<text text-anchor="start" x="76.5" y="-7" font-family="Helvetica,sans-Serif" font-size="10.00">and 11 more...</text>
<polygon fill="#666666" stroke="#666666" points="25.5,-182 25.5,-182 193.5,-182 193.5,-182 25.5,-182"/>
<polygon fill="#666666" stroke="#666666" points="25.5,-167 25.5,-167 193.5,-167 193.5,-167 25.5,-167"/>
<polygon fill="none" stroke="#666666" points="25.5,0 25.5,-210 193.5,-210 193.5,0 25.5,0"/>
</a>
</g>
</g>
<!-- Node2 -->
<g id="Node000002" class="node">
<title>Node2</title>
<g id="a_Node000002"><a xlink:title=" ">
<polygon fill="white" stroke="transparent" points="39,-372 0,-372 0,-323 39,-323 39,-372"/>
<text text-anchor="start" x="5.5" y="-359.5" font-family="Helvetica,sans-Serif" font-size="10.00">String</text>
<text text-anchor="start" x="18" y="-344.5" font-family="Helvetica,sans-Serif" font-size="10.00"> </text>
<text text-anchor="start" x="18" y="-329.5" font-family="Helvetica,sans-Serif" font-size="10.00"> </text>
<polygon fill="#666666" stroke="#666666" points="0.5,-354.5 0.5,-354.5 39.5,-354.5 39.5,-354.5 0.5,-354.5"/>
<polygon fill="#666666" stroke="#666666" points="0.5,-339.5 0.5,-339.5 39.5,-339.5 39.5,-339.5 0.5,-339.5"/>
<polygon fill="none" stroke="#666666" points="0,-323 0,-372 39,-372 39,-323 0,-323"/>
</a>
</g>
</g>
<!-- Node2&#45;&gt;Node1 -->
<g id="edge1_Node000001_Node000002" class="edge">
<title>Node2&#45;&gt;Node1</title>
<g id="a_edge1_Node000001_Node000002"><a xlink:title=" ">
<path fill="none" stroke="#63b8ff" d="M20.75,-322.71C22.61,-298.32 27.22,-259.59 38.5,-228 39.26,-225.89 40.05,-223.77 40.87,-221.64"/>
<polygon fill="none" stroke="#63b8ff" points="40.98,-221.38 39.59,-214.3 45.58,-210.3 46.98,-217.37 40.98,-221.38"/>
</a>
</g>
<text text-anchor="middle" x="72" y="-297" font-family="Helvetica,sans-Serif" font-size="10.00" fill="grey"> &#45;author</text>
<text text-anchor="middle" x="72" y="-286" font-family="Helvetica,sans-Serif" font-size="10.00" fill="grey">&#45;description</text>
<text text-anchor="middle" x="72" y="-275" font-family="Helvetica,sans-Serif" font-size="10.00" fill="grey">&#45;genre</text>
<text text-anchor="middle" x="72" y="-264" font-family="Helvetica,sans-Serif" font-size="10.00" fill="grey">&#45;image_url</text>
<text text-anchor="middle" x="72" y="-253" font-family="Helvetica,sans-Serif" font-size="10.00" fill="grey">&#45;name</text>
<text text-anchor="middle" x="72" y="-242" font-family="Helvetica,sans-Serif" font-size="10.00" fill="grey">&#45;release_date</text>
<text text-anchor="middle" x="72" y="-231" font-family="Helvetica,sans-Serif" font-size="10.00" fill="grey">&#45;status</text>
</g>
<!-- Node3 -->
<g id="Node000003" class="node">
<title>Node3</title>
<g id="a_Node000003"><a xlink:title=" ">
<polygon fill="white" stroke="transparent" points="121,-372 98,-372 98,-323 121,-323 121,-372"/>
<text text-anchor="start" x="103.5" y="-359.5" font-family="Helvetica,sans-Serif" font-size="10.00">int</text>
<text text-anchor="start" x="108" y="-344.5" font-family="Helvetica,sans-Serif" font-size="10.00"> </text>
<text text-anchor="start" x="108" y="-329.5" font-family="Helvetica,sans-Serif" font-size="10.00"> </text>
<polygon fill="#666666" stroke="#666666" points="98.5,-354.5 98.5,-354.5 121.5,-354.5 121.5,-354.5 98.5,-354.5"/>
<polygon fill="#666666" stroke="#666666" points="98.5,-339.5 98.5,-339.5 121.5,-339.5 121.5,-339.5 98.5,-339.5"/>
<polygon fill="none" stroke="#666666" points="98,-323 98,-372 121,-372 121,-323 98,-323"/>
</a>
</g>
</g>
<!-- Node3&#45;&gt;Node1 -->
<g id="edge2_Node000001_Node000003" class="edge">
<title>Node3&#45;&gt;Node1</title>
<g id="a_edge2_Node000001_Node000003"><a xlink:title=" ">
<path fill="none" stroke="#63b8ff" d="M109.5,-322.56C109.5,-298.71 109.5,-260.26 109.5,-222.33"/>
<polygon fill="none" stroke="#63b8ff" points="109.5,-222.06 105.5,-216.06 109.5,-210.06 113.5,-216.06 109.5,-222.06"/>
</a>
</g>
<text text-anchor="middle" x="144" y="-275" font-family="Helvetica,sans-Serif" font-size="10.00" fill="grey"> &#45;id</text>
<text text-anchor="middle" x="144" y="-264" font-family="Helvetica,sans-Serif" font-size="10.00" fill="grey">&#45;pages</text>
<text text-anchor="middle" x="144" y="-253" font-family="Helvetica,sans-Serif" font-size="10.00" fill="grey">&#45;reading_time</text>
</g>
<!-- Node4 -->
<g id="Node000004" class="node">
<title>Node4</title>
<g id="a_Node000004"><a xlink:title=" ">
<polygon fill="white" stroke="transparent" points="226.5,-372 176.5,-372 176.5,-323 226.5,-323 226.5,-372"/>
<text text-anchor="start" x="181.5" y="-359.5" font-family="Helvetica,sans-Serif" font-size="10.00">boolean</text>
<text text-anchor="start" x="199.5" y="-344.5" font-family="Helvetica,sans-Serif" font-size="10.00"> </text>
<text text-anchor="start" x="199.5" y="-329.5" font-family="Helvetica,sans-Serif" font-size="10.00"> </text>
<polygon fill="#666666" stroke="#666666" points="176.5,-354.5 176.5,-354.5 226.5,-354.5 226.5,-354.5 176.5,-354.5"/>
<polygon fill="#666666" stroke="#666666" points="176.5,-339.5 176.5,-339.5 226.5,-339.5 226.5,-339.5 176.5,-339.5"/>
<polygon fill="none" stroke="#666666" points="176.5,-323 176.5,-372 226.5,-372 226.5,-323 176.5,-323"/>
</a>
</g>
</g>
<!-- Node4&#45;&gt;Node1 -->
<g id="edge3_Node000001_Node000004" class="edge">
<title>Node4&#45;&gt;Node1</title>
<g id="a_edge3_Node000001_Node000004"><a xlink:title=" ">
<path fill="none" stroke="#63b8ff" d="M199.46,-322.72C196.83,-298.34 191.12,-259.62 179.5,-228 178.68,-225.77 177.82,-223.52 176.92,-221.28"/>
<polygon fill="none" stroke="#63b8ff" points="176.85,-221.1 170.83,-217.13 172.18,-210.05 178.2,-214.02 176.85,-221.1"/>
</a>
</g>
<text text-anchor="middle" x="228" y="-264" font-family="Helvetica,sans-Serif" font-size="10.00" fill="grey"> &#45;inDatabase</text>
</g>
</g>
</svg>
