<?xml version="1.0" encoding="UTF-8" standalone="no"?>
<!DOCTYPE svg PUBLIC "-//W3C//DTD SVG 1.1//EN"
 "http://www.w3.org/Graphics/SVG/1.1/DTD/svg11.dtd">
<!-- Generated by graphviz version 2.43.0 (0)
 -->
<!-- Title: com.example.mybookshelf.BookRecommendationFlow.showBookBasedStep2 Pages: 1 -->
<!--zoomable 808 -->

<svg id="main" version="1.1" xmlns="http://www.w3.org/2000/svg" xmlns:xlink="http://www.w3.org/1999/xlink" xml:space="preserve" onload="init(evt)">

<style type="text/css"><![CDATA[
.node, .edge {opacity: 0.7;}
.node.selected, .edge.selected {opacity: 1;}
.edge:hover path { stroke: red; }
.edge:hover polygon { stroke: red; fill: red; }
]]></style>

<defs>
  <circle id="rim" cx="0" cy="0" r="7"/>
  <circle id="rim2" cx="0" cy="0" r="3.5"/>
  <g id="zoomPlus">
    <use xlink:href="#rim" fill="#404040"><set attributeName="fill" to="#808080" begin="zoomplus.mouseover" end="zoomplus.mouseout"/></use>
    <path d="M-4,0h8M0,-4v8" fill="none" stroke="white" stroke-width="1.5" pointer-events="none"/>
  </g>
  <g id="zoomMin">
    <use xlink:href="#rim" fill="#404040"><set attributeName="fill" to="#808080" begin="zoomminus.mouseover" end="zoomminus.mouseout"/></use>
    <path d="M-4,0h8" fill="none" stroke="white" stroke-width="1.5" pointer-events="none"/>
  </g>
  <g id="arrowUp" transform="translate(30 24)">
    <use xlink:href="#rim"/>
    <path pointer-events="none" fill="none" stroke="white" stroke-width="1.5" d="M0,-3.0v7 M-2.5,-0.5L0,-3.0L2.5,-0.5"/>
  </g>
  <g id="arrowRight" transform="rotate(90) translate(36 -43)">
    <use xlink:href="#rim"/>
    <path pointer-events="none" fill="none" stroke="white" stroke-width="1.5" d="M0,-3.0v7 M-2.5,-0.5L0,-3.0L2.5,-0.5"/>
  </g>
  <g id="arrowDown" transform="rotate(180) translate(-30 -48)">
    <use xlink:href="#rim"/>
    <path pointer-events="none" fill="none" stroke="white" stroke-width="1.5" d="M0,-3.0v7 M-2.5,-0.5L0,-3.0L2.5,-0.5"/>
  </g>
  <g id="arrowLeft" transform="rotate(270) translate(-36 17)">
    <use xlink:href="#rim"/>
    <path pointer-events="none" fill="none" stroke="white" stroke-width="1.5" d="M0,-3.0v7 M-2.5,-0.5L0,-3.0L2.5,-0.5"/>
  </g>
  <g id="resetDef">
    <use xlink:href="#rim2" fill="#404040"><set attributeName="fill" to="#808080" begin="reset.mouseover" end="reset.mouseout"/></use>
  </g>
</defs>
<script type="application/ecmascript">
var viewWidth = 2803;
var viewHeight = 808;
var sectionId = 'dynsection-16';
</script>
<script type="application/ecmascript" xlink:href="svg.min.js"/>
<svg id="graph" class="graph">
<g id="viewport">
<title>com.example.mybookshelf.BookRecommendationFlow.showBookBasedStep2</title>
<!-- Node1 -->
<g id="Node000001" class="node">
<title>Node1</title>
<g id="a_Node000001"><a xlink:title=" ">
<polygon fill="#999999" stroke="#666666" points="203,-690.02 0,-690.02 0,-649.02 203,-649.02 203,-690.02"/>
<text text-anchor="start" x="8" y="-678.02" font-family="Helvetica,sans-Serif" font-size="10.00">com.example.mybookshelf.</text>
<text text-anchor="start" x="8" y="-667.02" font-family="Helvetica,sans-Serif" font-size="10.00">BookRecommendationFlow.showBook</text>
<text text-anchor="middle" x="101.5" y="-656.02" font-family="Helvetica,sans-Serif" font-size="10.00">BasedStep2</text>
</a>
</g>
</g>
<!-- Node2 -->
<g id="Node000002" class="node">
<title>Node2</title>
<g id="a_Node000002"><a xlink:href="classcom_1_1example_1_1mybookshelf_1_1BookRecommendationFlow.html#a3855117e802e54923c308e0df6280c17" target="_top" xlink:title=" ">
<polygon fill="white" stroke="#666666" points="2795,-247.02 2601,-247.02 2601,-206.02 2795,-206.02 2795,-247.02"/>
<text text-anchor="start" x="2609" y="-235.02" font-family="Helvetica,sans-Serif" font-size="10.00">com.example.mybookshelf.</text>
<text text-anchor="start" x="2609" y="-224.02" font-family="Helvetica,sans-Serif" font-size="10.00">BookRecommendationFlow.addChat</text>
<text text-anchor="middle" x="2698" y="-213.02" font-family="Helvetica,sans-Serif" font-size="10.00">Message</text>
</a>
</g>
</g>
<!-- Node1&#45;&gt;Node2 -->
<g id="edge1_Node000001_Node000002" class="edge">
<title>Node1&#45;&gt;Node2</title>
<g id="a_edge1_Node000001_Node000002"><a xlink:title=" ">
<path fill="none" stroke="#63b8ff" d="M106.33,-648.93C128.21,-538.1 247.92,-17.52 565.5,-17.52 565.5,-17.52 565.5,-17.52 2222.5,-17.52 2375.71,-17.52 2446.51,40.6 2565,-56.52 2605.44,-89.66 2568.57,-127.51 2601,-168.52 2611.3,-181.54 2625.4,-192.33 2639.61,-200.92"/>
<polygon fill="#63b8ff" stroke="#63b8ff" points="2638.03,-204.05 2648.45,-205.99 2641.51,-197.97 2638.03,-204.05"/>
</a>
</g>
</g>
<!-- Node3 -->
<g id="Node000003" class="node">
<title>Node3</title>
<g id="a_Node000003"><a xlink:href="classcom_1_1example_1_1mybookshelf_1_1BookRecommendationFlow.html#a02b6d699653b58f244907bd10db53ab5" target="_top" xlink:title=" ">
<polygon fill="white" stroke="#666666" points="2790,-573.02 2606,-573.02 2606,-532.02 2790,-532.02 2790,-573.02"/>
<text text-anchor="start" x="2614" y="-561.02" font-family="Helvetica,sans-Serif" font-size="10.00">com.example.mybookshelf.</text>
<text text-anchor="start" x="2614" y="-550.02" font-family="Helvetica,sans-Serif" font-size="10.00">BookRecommendationFlow.create</text>
<text text-anchor="middle" x="2698" y="-539.02" font-family="Helvetica,sans-Serif" font-size="10.00">StyledGridButton</text>
</a>
</g>
</g>
<!-- Node1&#45;&gt;Node3 -->
<g id="edge2_Node000001_Node000003" class="edge">
<title>Node1&#45;&gt;Node3</title>
<g id="a_edge2_Node000001_Node000003"><a xlink:title=" ">
<path fill="none" stroke="#63b8ff" d="M132.24,-690.05C158.99,-707.52 199.95,-731.88 239,-745.52 377.86,-794.01 418.42,-799.52 565.5,-799.52 565.5,-799.52 565.5,-799.52 2222.5,-799.52 2378.62,-799.52 2433.21,-805.21 2565,-721.52 2619.9,-686.65 2661.34,-620.67 2682.13,-582.28"/>
<polygon fill="#63b8ff" stroke="#63b8ff" points="2685.38,-583.62 2686.96,-573.15 2679.19,-580.35 2685.38,-583.62"/>
</a>
</g>
</g>
<!-- Node4 -->
<g id="Node000004" class="node">
<title>Node4</title>
<g id="a_Node000004"><a xlink:href="classcom_1_1example_1_1mybookshelf_1_1BookRecommendationFlow.html#aa95301256c7f5377d1bc432189483b3c" target="_top" xlink:title=" ">
<polygon fill="white" stroke="#666666" points="442,-647.02 239,-647.02 239,-606.02 442,-606.02 442,-647.02"/>
<text text-anchor="start" x="247" y="-635.02" font-family="Helvetica,sans-Serif" font-size="10.00">com.example.mybookshelf.</text>
<text text-anchor="start" x="247" y="-624.02" font-family="Helvetica,sans-Serif" font-size="10.00">BookRecommendationFlow.showBook</text>
<text text-anchor="middle" x="340.5" y="-613.02" font-family="Helvetica,sans-Serif" font-size="10.00">BasedStep3</text>
</a>
</g>
</g>
<!-- Node1&#45;&gt;Node4 -->
<g id="edge3_Node000001_Node000004" class="edge">
<title>Node1&#45;&gt;Node4</title>
<g id="a_edge3_Node000001_Node000004"><a xlink:title=" ">
<path fill="none" stroke="#63b8ff" d="M203.01,-651.28C211.53,-649.73 220.18,-648.16 228.78,-646.6"/>
<polygon fill="#63b8ff" stroke="#63b8ff" points="229.62,-650.01 238.83,-644.78 228.37,-643.12 229.62,-650.01"/>
</a>
</g>
</g>
<!-- Node4&#45;&gt;Node2 -->
<g id="edge4_Node000004_Node000002" class="edge">
<title>Node4&#45;&gt;Node2</title>
<g id="a_edge4_Node000004_Node000002"><a xlink:title=" ">
<path fill="none" stroke="#63b8ff" d="M346.27,-605.86C371.21,-503.49 496.58,-55.52 780,-55.52 780,-55.52 780,-55.52 2222.5,-55.52 2378.42,-55.52 2428.82,-55.57 2565,-131.52 2585.04,-142.69 2583.03,-154.25 2601,-168.52 2615.66,-180.16 2632.84,-191.24 2648.59,-200.53"/>
<polygon fill="#63b8ff" stroke="#63b8ff" points="2647.26,-203.81 2657.67,-205.79 2650.77,-197.75 2647.26,-203.81"/>
</a>
</g>
</g>
<!-- Node4&#45;&gt;Node3 -->
<g id="edge39_Node000004_Node000003" class="edge">
<title>Node4&#45;&gt;Node3</title>
<g id="a_edge39_Node000004_Node000003"><a xlink:title=" ">
<path fill="none" stroke="#63b8ff" d="M397.39,-647.09C479.88,-675.56 639.66,-723.52 780,-723.52 780,-723.52 780,-723.52 2222.5,-723.52 2375.66,-723.52 2427.08,-752.11 2565,-685.52 2613.6,-662.05 2654.65,-613.14 2677.52,-581.62"/>
<polygon fill="#63b8ff" stroke="#63b8ff" points="2680.54,-583.41 2683.48,-573.23 2674.84,-579.36 2680.54,-583.41"/>
</a>
</g>
</g>
<!-- Node5 -->
<g id="Node000005" class="node">
<title>Node5</title>
<g id="a_Node000005"><a xlink:href="classcom_1_1example_1_1mybookshelf_1_1BookRecommendationFlow.html#a78dda71d2c403a463d824ff61b2ce27f" target="_top" xlink:title=" ">
<polygon fill="white" stroke="#666666" points="655,-562.02 478,-562.02 478,-521.02 655,-521.02 655,-562.02"/>
<text text-anchor="start" x="486" y="-550.02" font-family="Helvetica,sans-Serif" font-size="10.00">com.example.mybookshelf.</text>
<text text-anchor="start" x="486" y="-539.02" font-family="Helvetica,sans-Serif" font-size="10.00">BookRecommendationFlow.build</text>
<text text-anchor="middle" x="566.5" y="-528.02" font-family="Helvetica,sans-Serif" font-size="10.00">AIStringBased</text>
</a>
</g>
</g>
<!-- Node4&#45;&gt;Node5 -->
<g id="edge5_Node000004_Node000005" class="edge">
<title>Node4&#45;&gt;Node5</title>
<g id="a_edge5_Node000004_Node000005"><a xlink:title=" ">
<path fill="none" stroke="#63b8ff" d="M395.72,-605.94C427.66,-593.82 468.23,-578.43 501.7,-565.73"/>
<polygon fill="#63b8ff" stroke="#63b8ff" points="503.28,-568.87 511.39,-562.05 500.8,-562.33 503.28,-568.87"/>
</a>
</g>
</g>
<!-- Node6 -->
<g id="Node000006" class="node">
<title>Node6</title>
<g id="a_Node000006"><a xlink:href="classcom_1_1example_1_1mybookshelf_1_1BookRecommendationFlow.html#ae50cf18619872a365eebe91c18d86e8d" target="_top" xlink:title=" ">
<polygon fill="white" stroke="#666666" points="871,-527.52 691,-527.52 691,-497.52 871,-497.52 871,-527.52"/>
<text text-anchor="start" x="699" y="-515.52" font-family="Helvetica,sans-Serif" font-size="10.00">com.example.mybookshelf.</text>
<text text-anchor="middle" x="781" y="-504.52" font-family="Helvetica,sans-Serif" font-size="10.00">BookRecommendationFlow.callAI</text>
</a>
</g>
</g>
<!-- Node5&#45;&gt;Node6 -->
<g id="edge6_Node000005_Node000006" class="edge">
<title>Node5&#45;&gt;Node6</title>
<g id="a_edge6_Node000005_Node000006"><a xlink:title=" ">
<path fill="none" stroke="#63b8ff" d="M655.16,-529.55C663.62,-528.4 672.25,-527.22 680.81,-526.05"/>
<polygon fill="#63b8ff" stroke="#63b8ff" points="681.39,-529.51 690.83,-524.69 680.44,-522.57 681.39,-529.51"/>
</a>
</g>
</g>
<!-- Node6&#45;&gt;Node2 -->
<g id="edge7_Node000006_Node000002" class="edge">
<title>Node6&#45;&gt;Node2</title>
<g id="a_edge7_Node000006_Node000002"><a xlink:title=" ">
<path fill="none" stroke="#63b8ff" d="M790.85,-497.11C833.08,-425.83 1021.92,-131.52 1261,-131.52 1261,-131.52 1261,-131.52 2222.5,-131.52 2375.86,-131.52 2416.48,-135.29 2565,-173.52 2592.02,-180.47 2620.91,-191.61 2644.75,-201.89"/>
<polygon fill="#63b8ff" stroke="#63b8ff" points="2643.39,-205.12 2653.96,-205.93 2646.2,-198.71 2643.39,-205.12"/>
</a>
</g>
</g>
<!-- Node6&#45;&gt;Node3 -->
<g id="edge9_Node000006_Node000003" class="edge">
<title>Node6&#45;&gt;Node3</title>
<g id="a_edge9_Node000006_Node000003"><a xlink:title=" ">
<path fill="none" stroke="#63b8ff" d="M791.89,-527.7C810.65,-555.09 854.28,-612.35 907,-638.52 1049.17,-709.08 1102.29,-685.52 1261,-685.52 1261,-685.52 1261,-685.52 2222.5,-685.52 2375.39,-685.52 2422.64,-709.25 2565,-653.52 2606.15,-637.41 2645.31,-604.42 2670.13,-580.52"/>
<polygon fill="#63b8ff" stroke="#63b8ff" points="2672.68,-582.93 2677.36,-573.42 2667.77,-577.93 2672.68,-582.93"/>
</a>
</g>
</g>
<!-- Node6&#45;&gt;Node6 -->
<g id="edge8_Node000006_Node000006" class="edge">
<title>Node6&#45;&gt;Node6</title>
<g id="a_edge8_Node000006_Node000006"><a xlink:title=" ">
<path fill="none" stroke="#63b8ff" d="M743.38,-527.79C735.02,-536.92 747.56,-545.52 781,-545.52 800.85,-545.52 813.34,-542.49 818.46,-538.11"/>
<polygon fill="#63b8ff" stroke="#63b8ff" points="821.96,-537.84 818.62,-527.79 814.96,-537.74 821.96,-537.84"/>
</a>
</g>
</g>
<!-- Node7 -->
<g id="Node000007" class="node">
<title>Node7</title>
<g id="a_Node000007"><a xlink:href="classcom_1_1example_1_1mybookshelf_1_1apis_1_1AiAPI.html#a4a45b91f0717302661d9e35ed956c049" target="_top" xlink:title=" ">
<polygon fill="white" stroke="#666666" points="1105.5,-551.52 929.5,-551.52 929.5,-521.52 1105.5,-521.52 1105.5,-551.52"/>
<text text-anchor="start" x="937.5" y="-539.52" font-family="Helvetica,sans-Serif" font-size="10.00">com.example.mybookshelf.apis.</text>
<text text-anchor="middle" x="1017.5" y="-528.52" font-family="Helvetica,sans-Serif" font-size="10.00">AiAPI.fetchResponse</text>
</a>
</g>
</g>
<!-- Node6&#45;&gt;Node7 -->
<g id="edge10_Node000006_Node000007" class="edge">
<title>Node6&#45;&gt;Node7</title>
<g id="a_edge10_Node000006_Node000007"><a xlink:title=" ">
<path fill="none" stroke="#63b8ff" d="M871.32,-521.66C886.93,-523.26 903.24,-524.92 919.05,-526.54"/>
<polygon fill="#63b8ff" stroke="#63b8ff" points="919.06,-530.06 929.36,-527.6 919.77,-523.1 919.06,-530.06"/>
</a>
</g>
</g>
<!-- Node8 -->
<g id="Node000008" class="node">
<title>Node8</title>
<g id="a_Node000008"><a xlink:href="classcom_1_1example_1_1mybookshelf_1_1BookRecommendationFlow.html#a4dceb0fa4d170b8c7e5a7a6718593dfe" target="_top" xlink:title=" ">
<polygon fill="white" stroke="#666666" points="1117.5,-503.52 917.5,-503.52 917.5,-473.52 1117.5,-473.52 1117.5,-503.52"/>
<text text-anchor="start" x="925.5" y="-491.52" font-family="Helvetica,sans-Serif" font-size="10.00">com.example.mybookshelf.</text>
<text text-anchor="middle" x="1017.5" y="-480.52" font-family="Helvetica,sans-Serif" font-size="10.00">BookRecommendationFlow.handleNo</text>
</a>
</g>
</g>
<!-- Node6&#45;&gt;Node8 -->
<g id="edge12_Node000006_Node000008" class="edge">
<title>Node6&#45;&gt;Node8</title>
<g id="a_edge12_Node000006_Node000008"><a xlink:title=" ">
<path fill="none" stroke="#63b8ff" d="M871.32,-503.37C883.05,-502.17 895.18,-500.93 907.19,-499.7"/>
<polygon fill="#63b8ff" stroke="#63b8ff" points="907.66,-503.17 917.25,-498.67 906.94,-496.21 907.66,-503.17"/>
</a>
</g>
</g>
<!-- Node17 -->
<g id="Node000017" class="node">
<title>Node17</title>
<g id="a_Node000017"><a xlink:href="classcom_1_1example_1_1mybookshelf_1_1BookRecommendationFlow.html#ac62af5d6edeffa96b2862a609ebb40df" target="_top" xlink:title=" ">
<polygon fill="white" stroke="#666666" points="1125.5,-455.02 909.5,-455.02 909.5,-414.02 1125.5,-414.02 1125.5,-455.02"/>
<text text-anchor="start" x="917.5" y="-443.02" font-family="Helvetica,sans-Serif" font-size="10.00">com.example.mybookshelf.</text>
<text text-anchor="start" x="917.5" y="-432.02" font-family="Helvetica,sans-Serif" font-size="10.00">BookRecommendationFlow.hideThinking</text>
<text text-anchor="middle" x="1017.5" y="-421.02" font-family="Helvetica,sans-Serif" font-size="10.00">Animation</text>
</a>
</g>
</g>
<!-- Node6&#45;&gt;Node17 -->
<g id="edge37_Node000006_Node000017" class="edge">
<title>Node6&#45;&gt;Node17</title>
<g id="a_edge37_Node000006_Node000017"><a xlink:title=" ">
<path fill="none" stroke="#63b8ff" d="M818.3,-497.48C843.07,-487.49 876.74,-474.44 907,-464.52 913.82,-462.28 920.92,-460.07 928.08,-457.93"/>
<polygon fill="#63b8ff" stroke="#63b8ff" points="929.26,-461.23 937.86,-455.05 927.28,-454.51 929.26,-461.23"/>
</a>
</g>
</g>
<!-- Node18 -->
<g id="Node000018" class="node">
<title>Node18</title>
<g id="a_Node000018"><a xlink:href="classcom_1_1example_1_1mybookshelf_1_1BookRecommendationFlow.html#a78597ba37409daeee77dcfa6236b2e6a" target="_top" xlink:title=" ">
<polygon fill="white" stroke="#666666" points="1128,-629.02 907,-629.02 907,-588.02 1128,-588.02 1128,-629.02"/>
<text text-anchor="start" x="915" y="-617.02" font-family="Helvetica,sans-Serif" font-size="10.00">com.example.mybookshelf.</text>
<text text-anchor="start" x="915" y="-606.02" font-family="Helvetica,sans-Serif" font-size="10.00">BookRecommendationFlow.showThinking</text>
<text text-anchor="middle" x="1017.5" y="-595.02" font-family="Helvetica,sans-Serif" font-size="10.00">Animation</text>
</a>
</g>
</g>
<!-- Node6&#45;&gt;Node18 -->
<g id="edge38_Node000006_Node000018" class="edge">
<title>Node6&#45;&gt;Node18</title>
<g id="a_edge38_Node000006_Node000018"><a xlink:title=" ">
<path fill="none" stroke="#63b8ff" d="M806.61,-527.58C831.28,-542.18 870.71,-564.17 907,-578.52 912.52,-580.7 918.25,-582.78 924.08,-584.76"/>
<polygon fill="#63b8ff" stroke="#63b8ff" points="923.35,-588.21 933.94,-587.99 925.53,-581.55 923.35,-588.21"/>
</a>
</g>
</g>
<!-- Node7&#45;&gt;Node7 -->
<g id="edge11_Node000007_Node000007" class="edge">
<title>Node7&#45;&gt;Node7</title>
<g id="a_edge11_Node000007_Node000007"><a xlink:title=" ">
<path fill="none" stroke="#63b8ff" d="M976.02,-551.79C966.8,-560.92 980.63,-569.52 1017.5,-569.52 1039.39,-569.52 1053.16,-566.49 1058.81,-562.11"/>
<polygon fill="#63b8ff" stroke="#63b8ff" points="1062.31,-561.85 1058.98,-551.79 1055.31,-561.73 1062.31,-561.85"/>
</a>
</g>
</g>
<!-- Node8&#45;&gt;Node2 -->
<g id="edge13_Node000008_Node000002" class="edge">
<title>Node8&#45;&gt;Node2</title>
<g id="a_edge13_Node000008_Node000002"><a xlink:title=" ">
<path fill="none" stroke="#63b8ff" d="M1102.35,-473.5C1111.2,-470.7 1119.92,-467.4 1128,-463.52 1317.13,-372.56 1287.64,-169.52 1497.5,-169.52 1497.5,-169.52 1497.5,-169.52 2222.5,-169.52 2349.71,-169.52 2494.75,-189.96 2590.63,-206.36"/>
<polygon fill="#63b8ff" stroke="#63b8ff" points="2590.17,-209.84 2600.62,-208.09 2591.36,-202.94 2590.17,-209.84"/>
</a>
</g>
</g>
<!-- Node8&#45;&gt;Node3 -->
<g id="edge14_Node000008_Node000003" class="edge">
<title>Node8&#45;&gt;Node3</title>
<g id="a_edge14_Node000008_Node000003"><a xlink:title=" ">
<path fill="none" stroke="#63b8ff" d="M1087.84,-503.55C1200.55,-527.47 1418.8,-571.52 1497.5,-571.52 1497.5,-571.52 1497.5,-571.52 2222.5,-571.52 2351.3,-571.52 2499.6,-564.44 2595.64,-558.93"/>
<polygon fill="#63b8ff" stroke="#63b8ff" points="2595.86,-562.42 2605.64,-558.35 2595.45,-555.43 2595.86,-562.42"/>
</a>
</g>
</g>
<!-- Node9 -->
<g id="Node000009" class="node">
<title>Node9</title>
<g id="a_Node000009"><a xlink:href="classcom_1_1example_1_1mybookshelf_1_1BookRecommendationFlow.html#a22f0dcaea578fbd7358e6237cd4873d4" target="_top" xlink:title=" ">
<polygon fill="white" stroke="#666666" points="1360,-503.52 1164,-503.52 1164,-473.52 1360,-473.52 1360,-503.52"/>
<text text-anchor="start" x="1172" y="-491.52" font-family="Helvetica,sans-Serif" font-size="10.00">com.example.mybookshelf.</text>
<text text-anchor="middle" x="1262" y="-480.52" font-family="Helvetica,sans-Serif" font-size="10.00">BookRecommendationFlow.handleAI</text>
</a>
</g>
</g>
<!-- Node8&#45;&gt;Node9 -->
<g id="edge15_Node000008_Node000009" class="edge">
<title>Node8&#45;&gt;Node9</title>
<g id="a_edge15_Node000008_Node000009"><a xlink:title=" ">
<path fill="none" stroke="#63b8ff" d="M1117.83,-488.52C1129.57,-488.52 1141.59,-488.52 1153.43,-488.52"/>
<polygon fill="#63b8ff" stroke="#63b8ff" points="1153.78,-492.02 1163.78,-488.52 1153.78,-485.02 1153.78,-492.02"/>
</a>
</g>
</g>
<!-- Node10 -->
<g id="Node000010" class="node">
<title>Node10</title>
<g id="a_Node000010"><a xlink:href="classcom_1_1example_1_1mybookshelf_1_1BookRecommendationFlow.html#a276e931dabe3e85af257a9d16ce7cc67" target="_top" xlink:title=" ">
<polygon fill="white" stroke="#666666" points="1841,-649.02 1638,-649.02 1638,-608.02 1841,-608.02 1841,-649.02"/>
<text text-anchor="start" x="1646" y="-637.02" font-family="Helvetica,sans-Serif" font-size="10.00">com.example.mybookshelf.</text>
<text text-anchor="start" x="1646" y="-626.02" font-family="Helvetica,sans-Serif" font-size="10.00">BookRecommendationFlow.showBook</text>
<text text-anchor="middle" x="1739.5" y="-615.02" font-family="Helvetica,sans-Serif" font-size="10.00">BasedStep1</text>
</a>
</g>
</g>
<!-- Node9&#45;&gt;Node10 -->
<g id="edge16_Node000009_Node000010" class="edge">
<title>Node9&#45;&gt;Node10</title>
<g id="a_edge16_Node000009_Node000010"><a xlink:title=" ">
<path fill="none" stroke="#63b8ff" d="M1314.34,-503.63C1397.11,-528 1560.65,-576.15 1658.72,-605.03"/>
<polygon fill="#63b8ff" stroke="#63b8ff" points="1658,-608.46 1668.58,-607.93 1659.98,-601.75 1658,-608.46"/>
</a>
</g>
</g>
<!-- Node11 -->
<g id="Node000011" class="node">
<title>Node11</title>
<g id="a_Node000011"><a xlink:href="classcom_1_1example_1_1mybookshelf_1_1BookRecommendationFlow.html#a4c7dc337216592f7f214f69ce7009d37" target="_top" xlink:title=" ">
<polygon fill="white" stroke="#666666" points="1601,-459.02 1396,-459.02 1396,-418.02 1601,-418.02 1601,-459.02"/>
<text text-anchor="start" x="1404" y="-447.02" font-family="Helvetica,sans-Serif" font-size="10.00">com.example.mybookshelf.</text>
<text text-anchor="start" x="1404" y="-436.02" font-family="Helvetica,sans-Serif" font-size="10.00">BookRecommendationFlow.showFresh</text>
<text text-anchor="middle" x="1498.5" y="-425.02" font-family="Helvetica,sans-Serif" font-size="10.00">StartStep1</text>
</a>
</g>
</g>
<!-- Node9&#45;&gt;Node11 -->
<g id="edge20_Node000009_Node000011" class="edge">
<title>Node9&#45;&gt;Node11</title>
<g id="a_edge20_Node000009_Node000011"><a xlink:title=" ">
<path fill="none" stroke="#63b8ff" d="M1333.36,-473.51C1351.59,-469.63 1371.64,-465.35 1391.27,-461.17"/>
<polygon fill="#63b8ff" stroke="#63b8ff" points="1392.12,-464.56 1401.17,-459.06 1390.66,-457.72 1392.12,-464.56"/>
</a>
</g>
</g>
<!-- Node10&#45;&gt;Node1 -->
<g id="edge19_Node000010_Node000001" class="edge">
<title>Node10&#45;&gt;Node1</title>
<g id="a_edge19_Node000010_Node000001"><a xlink:title=" ">
<path fill="none" stroke="#63b8ff" d="M1695.38,-649.15C1613.24,-686.51 1427.8,-761.52 1263,-761.52 565.5,-761.52 565.5,-761.52 565.5,-761.52 424.95,-761.52 264.92,-720.23 174.59,-692.97"/>
<polygon fill="#63b8ff" stroke="#63b8ff" points="175.59,-689.61 165,-690.05 173.55,-696.31 175.59,-689.61"/>
</a>
</g>
</g>
<!-- Node10&#45;&gt;Node2 -->
<g id="edge17_Node000010_Node000002" class="edge">
<title>Node10&#45;&gt;Node2</title>
<g id="a_edge17_Node000010_Node000002"><a xlink:title=" ">
<path fill="none" stroke="#63b8ff" d="M1841.15,-621.98C2007.19,-606.64 2342.22,-555.96 2565,-390.52 2615.45,-353.05 2657.67,-291.94 2679.97,-255.84"/>
<polygon fill="#63b8ff" stroke="#63b8ff" points="2682.99,-257.59 2685.2,-247.23 2677.01,-253.96 2682.99,-257.59"/>
</a>
</g>
</g>
<!-- Node10&#45;&gt;Node3 -->
<g id="edge18_Node000010_Node000003" class="edge">
<title>Node10&#45;&gt;Node3</title>
<g id="a_edge18_Node000010_Node000003"><a xlink:title=" ">
<path fill="none" stroke="#63b8ff" d="M1841.15,-643.28C1998.49,-662.97 2311,-688.31 2565,-623.52 2599.4,-614.74 2634.62,-595.16 2660.02,-578.78"/>
<polygon fill="#63b8ff" stroke="#63b8ff" points="2662.15,-581.56 2668.57,-573.14 2658.3,-575.72 2662.15,-581.56"/>
</a>
</g>
</g>
<!-- Node11&#45;&gt;Node2 -->
<g id="edge21_Node000011_Node000002" class="edge">
<title>Node11&#45;&gt;Node2</title>
<g id="a_edge21_Node000011_Node000002"><a xlink:title=" ">
<path fill="none" stroke="#63b8ff" d="M1523.03,-417.61C1589.54,-360.75 1786.68,-207.52 1979.5,-207.52 1979.5,-207.52 1979.5,-207.52 2222.5,-207.52 2349.11,-207.52 2494.56,-214.35 2590.7,-219.82"/>
<polygon fill="#63b8ff" stroke="#63b8ff" points="2590.53,-223.32 2600.71,-220.4 2590.93,-216.33 2590.53,-223.32"/>
</a>
</g>
</g>
<!-- Node11&#45;&gt;Node3 -->
<g id="edge22_Node000011_Node000003" class="edge">
<title>Node11&#45;&gt;Node3</title>
<g id="a_edge22_Node000011_Node000003"><a xlink:title=" ">
<path fill="none" stroke="#63b8ff" d="M1562.38,-459.13C1653.35,-487.07 1827.44,-533.52 1979.5,-533.52 1979.5,-533.52 1979.5,-533.52 2222.5,-533.52 2351.3,-533.52 2499.6,-540.59 2595.64,-546.11"/>
<polygon fill="#63b8ff" stroke="#63b8ff" points="2595.45,-549.6 2605.64,-546.69 2595.86,-542.61 2595.45,-549.6"/>
</a>
</g>
</g>
<!-- Node12 -->
<g id="Node000012" class="node">
<title>Node12</title>
<g id="a_Node000012"><a xlink:href="classcom_1_1example_1_1mybookshelf_1_1BookRecommendationFlow.html#aaf567ca97b0d7f0c58ebba4d6f4b18bd" target="_top" xlink:title=" ">
<polygon fill="white" stroke="#666666" points="1842,-434.02 1637,-434.02 1637,-393.02 1842,-393.02 1842,-434.02"/>
<text text-anchor="start" x="1645" y="-422.02" font-family="Helvetica,sans-Serif" font-size="10.00">com.example.mybookshelf.</text>
<text text-anchor="start" x="1645" y="-411.02" font-family="Helvetica,sans-Serif" font-size="10.00">BookRecommendationFlow.showFresh</text>
<text text-anchor="middle" x="1739.5" y="-400.02" font-family="Helvetica,sans-Serif" font-size="10.00">StartStep2</text>
</a>
</g>
</g>
<!-- Node11&#45;&gt;Node12 -->
<g id="edge23_Node000011_Node000012" class="edge">
<title>Node11&#45;&gt;Node12</title>
<g id="a_edge23_Node000011_Node000012"><a xlink:title=" ">
<path fill="none" stroke="#63b8ff" d="M1601.2,-427.88C1609.7,-426.99 1618.31,-426.09 1626.87,-425.19"/>
<polygon fill="#63b8ff" stroke="#63b8ff" points="1627.31,-428.67 1636.89,-424.15 1626.58,-421.7 1627.31,-428.67"/>
</a>
</g>
</g>
<!-- Node12&#45;&gt;Node2 -->
<g id="edge24_Node000012_Node000002" class="edge">
<title>Node12&#45;&gt;Node2</title>
<g id="a_edge24_Node000012_Node000002"><a xlink:title=" ">
<path fill="none" stroke="#63b8ff" d="M1805.74,-393C1828.54,-385.98 1854.35,-378.22 1878,-371.52 2089.6,-311.57 2142.51,-292.19 2360,-259.52 2436.86,-247.97 2524.22,-239.55 2590.73,-234.1"/>
<polygon fill="#63b8ff" stroke="#63b8ff" points="2591.12,-237.58 2600.8,-233.29 2590.55,-230.61 2591.12,-237.58"/>
</a>
</g>
</g>
<!-- Node12&#45;&gt;Node3 -->
<g id="edge25_Node000012_Node000003" class="edge">
<title>Node12&#45;&gt;Node3</title>
<g id="a_edge25_Node000012_Node000003"><a xlink:title=" ">
<path fill="none" stroke="#63b8ff" d="M1842.08,-426.25C2054.68,-452.96 2529.86,-512.89 2565,-519.52 2580.04,-522.35 2595.93,-525.87 2611.27,-529.54"/>
<polygon fill="#63b8ff" stroke="#63b8ff" points="2610.71,-533 2621.25,-531.97 2612.36,-526.2 2610.71,-533"/>
</a>
</g>
</g>
<!-- Node13 -->
<g id="Node000013" class="node">
<title>Node13</title>
<g id="a_Node000013"><a xlink:href="classcom_1_1example_1_1mybookshelf_1_1BookRecommendationFlow.html#a2bc1c0125eb3c1fe64ed1ed3ee93d3eb" target="_top" xlink:title=" ">
<polygon fill="white" stroke="#666666" points="2083,-422.02 1878,-422.02 1878,-381.02 2083,-381.02 2083,-422.02"/>
<text text-anchor="start" x="1886" y="-410.02" font-family="Helvetica,sans-Serif" font-size="10.00">com.example.mybookshelf.</text>
<text text-anchor="start" x="1886" y="-399.02" font-family="Helvetica,sans-Serif" font-size="10.00">BookRecommendationFlow.showFresh</text>
<text text-anchor="middle" x="1980.5" y="-388.02" font-family="Helvetica,sans-Serif" font-size="10.00">StartStep3</text>
</a>
</g>
</g>
<!-- Node12&#45;&gt;Node13 -->
<g id="edge26_Node000012_Node000013" class="edge">
<title>Node12&#45;&gt;Node13</title>
<g id="a_edge26_Node000012_Node000013"><a xlink:title=" ">
<path fill="none" stroke="#63b8ff" d="M1842.2,-408.41C1850.7,-407.98 1859.31,-407.55 1867.87,-407.12"/>
<polygon fill="#63b8ff" stroke="#63b8ff" points="1868.08,-410.62 1877.89,-406.62 1867.72,-403.62 1868.08,-410.62"/>
</a>
</g>
</g>
<!-- Node13&#45;&gt;Node2 -->
<g id="edge27_Node000013_Node000002" class="edge">
<title>Node13&#45;&gt;Node2</title>
<g id="a_edge27_Node000013_Node000002"><a xlink:title=" ">
<path fill="none" stroke="#63b8ff" d="M2060.03,-380.95C2079.31,-375.9 2099.9,-370.51 2119,-365.52 2226.11,-337.5 2252.24,-327.89 2360,-302.52 2450.62,-281.18 2474.27,-280.37 2565,-259.52 2578.52,-256.41 2592.79,-252.99 2606.75,-249.57"/>
<polygon fill="#63b8ff" stroke="#63b8ff" points="2607.97,-252.87 2616.84,-247.08 2606.3,-246.07 2607.97,-252.87"/>
</a>
</g>
</g>
<!-- Node13&#45;&gt;Node3 -->
<g id="edge28_Node000013_Node000003" class="edge">
<title>Node13&#45;&gt;Node3</title>
<g id="a_edge28_Node000013_Node000003"><a xlink:title=" ">
<path fill="none" stroke="#63b8ff" d="M2083.18,-418.98C2095.24,-420.91 2107.39,-422.8 2119,-424.52 2316.7,-453.67 2374.71,-420.5 2565,-481.52 2598.03,-492.11 2632.44,-510.92 2657.85,-526.51"/>
<polygon fill="#63b8ff" stroke="#63b8ff" points="2656.11,-529.55 2666.45,-531.88 2659.82,-523.61 2656.11,-529.55"/>
</a>
</g>
</g>
<!-- Node14 -->
<g id="Node000014" class="node">
<title>Node14</title>
<g id="a_Node000014"><a xlink:href="classcom_1_1example_1_1mybookshelf_1_1BookRecommendationFlow.html#ad10515cfcf8650b6830b68f15d393b3b" target="_top" xlink:title=" ">
<polygon fill="white" stroke="#666666" points="2324,-416.02 2119,-416.02 2119,-375.02 2324,-375.02 2324,-416.02"/>
<text text-anchor="start" x="2127" y="-404.02" font-family="Helvetica,sans-Serif" font-size="10.00">com.example.mybookshelf.</text>
<text text-anchor="start" x="2127" y="-393.02" font-family="Helvetica,sans-Serif" font-size="10.00">BookRecommendationFlow.showFresh</text>
<text text-anchor="middle" x="2221.5" y="-382.02" font-family="Helvetica,sans-Serif" font-size="10.00">StartStep4</text>
</a>
</g>
</g>
<!-- Node13&#45;&gt;Node14 -->
<g id="edge29_Node000013_Node000014" class="edge">
<title>Node13&#45;&gt;Node14</title>
<g id="a_edge29_Node000013_Node000014"><a xlink:title=" ">
<path fill="none" stroke="#63b8ff" d="M2083.2,-398.96C2091.7,-398.75 2100.31,-398.53 2108.87,-398.32"/>
<polygon fill="#63b8ff" stroke="#63b8ff" points="2108.98,-401.82 2118.89,-398.07 2108.8,-394.82 2108.98,-401.82"/>
</a>
</g>
</g>
<!-- Node14&#45;&gt;Node2 -->
<g id="edge30_Node000014_Node000002" class="edge">
<title>Node14&#45;&gt;Node2</title>
<g id="a_edge30_Node000014_Node000002"><a xlink:title=" ">
<path fill="none" stroke="#63b8ff" d="M2324.21,-393.05C2409.5,-389.59 2523.8,-381.31 2565,-361.52 2614.29,-337.84 2655.39,-287.7 2678.05,-255.63"/>
<polygon fill="#63b8ff" stroke="#63b8ff" points="2681.13,-257.32 2683.94,-247.11 2675.38,-253.34 2681.13,-257.32"/>
</a>
</g>
</g>
<!-- Node14&#45;&gt;Node3 -->
<g id="edge31_Node000014_Node000003" class="edge">
<title>Node14&#45;&gt;Node3</title>
<g id="a_edge31_Node000014_Node000003"><a xlink:title=" ">
<path fill="none" stroke="#63b8ff" d="M2324.24,-395.37C2394.55,-398.67 2488.75,-409.95 2565,-443.52 2607.4,-462.18 2647.1,-498.53 2671.68,-524.1"/>
<polygon fill="#63b8ff" stroke="#63b8ff" points="2669.4,-526.79 2678.8,-531.66 2674.49,-521.99 2669.4,-526.79"/>
</a>
</g>
</g>
<!-- Node15 -->
<g id="Node000015" class="node">
<title>Node15</title>
<g id="a_Node000015"><a xlink:href="classcom_1_1example_1_1mybookshelf_1_1BookRecommendationFlow.html#a46c6733f27b3527d3934cee02cfcd7ac" target="_top" xlink:title=" ">
<polygon fill="white" stroke="#666666" points="2565,-353.02 2360,-353.02 2360,-312.02 2565,-312.02 2565,-353.02"/>
<text text-anchor="start" x="2368" y="-341.02" font-family="Helvetica,sans-Serif" font-size="10.00">com.example.mybookshelf.</text>
<text text-anchor="start" x="2368" y="-330.02" font-family="Helvetica,sans-Serif" font-size="10.00">BookRecommendationFlow.showFresh</text>
<text text-anchor="middle" x="2462.5" y="-319.02" font-family="Helvetica,sans-Serif" font-size="10.00">StartStep5</text>
</a>
</g>
</g>
<!-- Node14&#45;&gt;Node15 -->
<g id="edge32_Node000014_Node000015" class="edge">
<title>Node14&#45;&gt;Node15</title>
<g id="a_edge32_Node000014_Node000015"><a xlink:title=" ">
<path fill="none" stroke="#63b8ff" d="M2300.43,-374.98C2323.89,-368.79 2349.8,-361.96 2373.85,-355.62"/>
<polygon fill="#63b8ff" stroke="#63b8ff" points="2374.9,-358.96 2383.68,-353.03 2373.12,-352.19 2374.9,-358.96"/>
</a>
</g>
</g>
<!-- Node15&#45;&gt;Node2 -->
<g id="edge33_Node000015_Node000002" class="edge">
<title>Node15&#45;&gt;Node2</title>
<g id="a_edge33_Node000015_Node000002"><a xlink:title=" ">
<path fill="none" stroke="#63b8ff" d="M2528.27,-311.94C2540.6,-307.53 2553.3,-302.64 2565,-297.52 2595.36,-284.22 2628.18,-266.58 2653.5,-252.21"/>
<polygon fill="#63b8ff" stroke="#63b8ff" points="2655.53,-255.08 2662.47,-247.08 2652.05,-249.01 2655.53,-255.08"/>
</a>
</g>
</g>
<!-- Node15&#45;&gt;Node3 -->
<g id="edge36_Node000015_Node000003" class="edge">
<title>Node15&#45;&gt;Node3</title>
<g id="a_edge36_Node000015_Node000003"><a xlink:title=" ">
<path fill="none" stroke="#63b8ff" d="M2495.93,-353.22C2516.56,-367 2543.35,-386.09 2565,-405.52 2607.07,-443.26 2649.67,-493.32 2674.69,-524.2"/>
<polygon fill="#63b8ff" stroke="#63b8ff" points="2671.96,-526.4 2680.96,-532 2677.42,-522.01 2671.96,-526.4"/>
</a>
</g>
</g>
<!-- Node16 -->
<g id="Node000016" class="node">
<title>Node16</title>
<g id="a_Node000016"><a xlink:href="classcom_1_1example_1_1mybookshelf_1_1BookRecommendationFlow.html#abe4c57ea57ed54c344739295e70066ff" target="_top" xlink:title=" ">
<polygon fill="white" stroke="#666666" points="2786.5,-160.02 2609.5,-160.02 2609.5,-119.02 2786.5,-119.02 2786.5,-160.02"/>
<text text-anchor="start" x="2617.5" y="-148.02" font-family="Helvetica,sans-Serif" font-size="10.00">com.example.mybookshelf.</text>
<text text-anchor="start" x="2617.5" y="-137.02" font-family="Helvetica,sans-Serif" font-size="10.00">BookRecommendationFlow.build</text>
<text text-anchor="middle" x="2698" y="-126.02" font-family="Helvetica,sans-Serif" font-size="10.00">AIStringFresh</text>
</a>
</g>
</g>
<!-- Node15&#45;&gt;Node16 -->
<g id="edge34_Node000015_Node000016" class="edge">
<title>Node15&#45;&gt;Node16</title>
<g id="a_edge34_Node000015_Node000016"><a xlink:title=" ">
<path fill="none" stroke="#63b8ff" d="M2481.69,-311.56C2506.78,-283.38 2554.24,-232.65 2601,-196.52 2615.62,-185.22 2632.65,-174.44 2648.28,-165.35"/>
<polygon fill="#63b8ff" stroke="#63b8ff" points="2650.35,-168.2 2657.3,-160.2 2646.88,-162.12 2650.35,-168.2"/>
</a>
</g>
</g>
<!-- Node16&#45;&gt;Node6 -->
<g id="edge35_Node000016_Node000006" class="edge">
<title>Node16&#45;&gt;Node6</title>
<g id="a_edge35_Node000016_Node000006"><a xlink:title=" ">
<path fill="none" stroke="#63b8ff" d="M2609.36,-125.9C2514.32,-112.34 2358.03,-93.52 2222.5,-93.52 1261,-93.52 1261,-93.52 1261,-93.52 1100.87,-93.52 1028.61,-56.35 907,-160.52 805.74,-247.26 786.5,-421.72 782.85,-487.05"/>
<polygon fill="#63b8ff" stroke="#63b8ff" points="779.35,-487.1 782.36,-497.25 786.34,-487.43 779.35,-487.1"/>
</a>
</g>
</g>
</g>
</svg>

<g id="navigator" transform="translate(0 0)" fill="#404254">
  <rect fill="#f2f5e9" fill-opacity="0.5" stroke="#606060" stroke-width=".5" x="0" y="0" width="60" height="60"/>
  <use id="zoomplus" xlink:href="#zoomPlus" x="17" y="9" onmousedown="handleZoom(evt,'in')"/>
  <use id="zoomminus" xlink:href="#zoomMin" x="42" y="9" onmousedown="handleZoom(evt,'out')"/>
  <use id="reset" xlink:href="#resetDef" x="30" y="36" onmousedown="handleReset()"/>
   <use id="arrowup" xlink:href="#arrowUp" x="0" y="0" onmousedown="handlePan(0,-1)"/>
  <use id="arrowright" xlink:href="#arrowRight" x="0" y="0" onmousedown="handlePan(1,0)"/>
  <use id="arrowdown" xlink:href="#arrowDown" x="0" y="0" onmousedown="handlePan(0,1)"/>
  <use id="arrowleft" xlink:href="#arrowLeft" x="0" y="0" onmousedown="handlePan(-1,0)"/>
</g>
<svg viewBox="0 0 15 15" width="100%" height="30px" preserveAspectRatio="xMaxYMin meet">
 <g id="arrow_out" transform="scale(0.3 0.3)">
  <a xlink:href="classcom_1_1example_1_1mybookshelf_1_1BookRecommendationFlow_a5c657be258c13c85848c7b7115f8a0b5_cgraph_org.svg" target="_base">
   <rect id="button" ry="5" rx="5" y="6" x="6" height="38" width="38"
        fill="#f2f5e9" fill-opacity="0.5" stroke="#606060" stroke-width="1.0"/>
   <path id="arrow"
     d="M 11.500037,31.436501 C 11.940474,20.09759 22.043105,11.32322 32.158766,21.979434 L 37.068811,17.246167 C 37.068811,17.246167 37.088388,32 37.088388,32 L 22.160133,31.978069 C 22.160133,31.978069 26.997745,27.140456 26.997745,27.140456 C 18.528582,18.264221 13.291696,25.230495 11.500037,31.436501 z"
     style="fill:#404040;"/>
  </a>
 </g>
</svg>

<style type='text/css'>
<![CDATA[
[data-mouse-over-selected='false'] { opacity: 0.7; }
[data-mouse-over-selected='true']  { opacity: 1.0; }
]]>
</style>
<script type="application/ecmascript"><![CDATA[
document.addEventListener('DOMContentLoaded', (event) => {
  highlightEdges();
  highlightAdjacentNodes();
});
]]></script>
</svg>
