<?xml version="1.0" encoding="UTF-8" standalone="no"?>
<!DOCTYPE svg PUBLIC "-//W3C//DTD SVG 1.1//EN"
 "http://www.w3.org/Graphics/SVG/1.1/DTD/svg11.dtd">
<!-- Generated by graphviz version 2.43.0 (0)
 -->
<!-- Title: com.example.mybookshelf.apis.BooksAPI Pages: 1 -->
<svg width="213pt" height="194pt"
 viewBox="0.00 0.00 212.50 194.00" xmlns="http://www.w3.org/2000/svg" xmlns:xlink="http://www.w3.org/1999/xlink">
<g id="graph0" class="graph" transform="scale(1 1) rotate(0) translate(4 190)">
<title>com.example.mybookshelf.apis.BooksAPI</title>
<!-- Node1 -->
<g id="Node000001" class="node">
<title>Node1</title>
<g id="a_Node000001"><a xlink:title=" ">
<polygon fill="#999999" stroke="transparent" points="183.5,-90 13.5,-90 13.5,0 183.5,0 183.5,-90"/>
<text text-anchor="start" x="18.5" y="-78" font-family="Helvetica,sans-Serif" font-size="10.00">com.example.mybookshelf.apis.</text>
<text text-anchor="start" x="75.5" y="-67" font-family="Helvetica,sans-Serif" font-size="10.00">BooksAPI</text>
<text text-anchor="start" x="96.5" y="-52" font-family="Helvetica,sans-Serif" font-size="10.00"> </text>
<text text-anchor="start" x="31" y="-37" font-family="Helvetica,sans-Serif" font-size="10.00">+</text>
<text text-anchor="start" x="57.5" y="-37" font-family="Helvetica,sans-Serif" font-size="10.00">getOneBook()</text>
<text text-anchor="start" x="31" y="-22" font-family="Helvetica,sans-Serif" font-size="10.00">+</text>
<text text-anchor="start" x="57.5" y="-22" font-family="Helvetica,sans-Serif" font-size="10.00">getMultipleBooks()</text>
<text text-anchor="start" x="33.5" y="-7" font-family="Helvetica,sans-Serif" font-size="10.00">&#45;</text>
<text text-anchor="start" x="57.5" y="-7" font-family="Helvetica,sans-Serif" font-size="10.00">fetchBooks()</text>
<polygon fill="#666666" stroke="#666666" points="13.5,-62 13.5,-62 183.5,-62 183.5,-62 13.5,-62"/>
<polygon fill="#666666" stroke="#666666" points="13.5,-47 13.5,-47 183.5,-47 183.5,-47 13.5,-47"/>
<polygon fill="none" stroke="#666666" points="13.5,0 13.5,-90 183.5,-90 183.5,0 13.5,0"/>
</a>
</g>
</g>
<!-- Node2 -->
<g id="Node000002" class="node">
<title>Node2</title>
<g id="a_Node000002"><a xlink:title=" ">
<polygon fill="white" stroke="transparent" points="89,-186 0,-186 0,-137 89,-137 89,-186"/>
<text text-anchor="start" x="5.5" y="-173.5" font-family="Helvetica,sans-Serif" font-size="10.00">ExecutorService</text>
<text text-anchor="start" x="43" y="-158.5" font-family="Helvetica,sans-Serif" font-size="10.00"> </text>
<text text-anchor="start" x="43" y="-143.5" font-family="Helvetica,sans-Serif" font-size="10.00"> </text>
<polygon fill="#666666" stroke="#666666" points="0.5,-168.5 0.5,-168.5 89.5,-168.5 89.5,-168.5 0.5,-168.5"/>
<polygon fill="#666666" stroke="#666666" points="0.5,-153.5 0.5,-153.5 89.5,-153.5 89.5,-153.5 0.5,-153.5"/>
<polygon fill="none" stroke="#666666" points="0,-137 0,-186 89,-186 89,-137 0,-137"/>
</a>
</g>
</g>
<!-- Node2&#45;&gt;Node1 -->
<g id="edge1_Node000001_Node000002" class="edge">
<title>Node2&#45;&gt;Node1</title>
<g id="a_edge1_Node000001_Node000002"><a xlink:title=" ">
<path fill="none" stroke="#63b8ff" d="M41.59,-136.85C41.31,-127.59 42.07,-117.03 45.5,-108 46.46,-105.47 47.57,-102.98 48.81,-100.52"/>
<polygon fill="none" stroke="#63b8ff" points="48.87,-100.42 48.45,-93.22 54.93,-90.06 55.35,-97.26 48.87,-100.42"/>
</a>
</g>
<text text-anchor="middle" x="88" y="-111" font-family="Helvetica,sans-Serif" font-size="10.00" fill="grey"> &#45;executorService</text>
</g>
<!-- Node3 -->
<g id="Node000003" class="node">
<title>Node3</title>
<g id="a_Node000003"><a xlink:title=" ">
<polygon fill="white" stroke="transparent" points="177,-186 128,-186 128,-137 177,-137 177,-186"/>
<text text-anchor="start" x="133.5" y="-173.5" font-family="Helvetica,sans-Serif" font-size="10.00">Handler</text>
<text text-anchor="start" x="151" y="-158.5" font-family="Helvetica,sans-Serif" font-size="10.00"> </text>
<text text-anchor="start" x="151" y="-143.5" font-family="Helvetica,sans-Serif" font-size="10.00"> </text>
<polygon fill="#666666" stroke="#666666" points="128.5,-168.5 128.5,-168.5 177.5,-168.5 177.5,-168.5 128.5,-168.5"/>
<polygon fill="#666666" stroke="#666666" points="128.5,-153.5 128.5,-153.5 177.5,-153.5 177.5,-153.5 128.5,-153.5"/>
<polygon fill="none" stroke="#666666" points="128,-137 128,-186 177,-186 177,-137 128,-137"/>
</a>
</g>
</g>
<!-- Node3&#45;&gt;Node1 -->
<g id="edge2_Node000001_Node000003" class="edge">
<title>Node3&#45;&gt;Node1</title>
<g id="a_edge2_Node000001_Node000003"><a xlink:title=" ">
<path fill="none" stroke="#63b8ff" d="M143.04,-136.8C139.29,-127.72 134.85,-117.31 130.5,-108 129.44,-105.73 128.34,-103.42 127.22,-101.09"/>
<polygon fill="none" stroke="#63b8ff" points="127.13,-100.92 120.89,-97.3 121.83,-90.15 128.07,-93.77 127.13,-100.92"/>
</a>
</g>
<text text-anchor="middle" x="169.5" y="-111" font-family="Helvetica,sans-Serif" font-size="10.00" fill="grey"> &#45;mainHandler</text>
</g>
</g>
</svg>
