<?xml version="1.0" encoding="UTF-8" standalone="no"?>
<!DOCTYPE svg PUBLIC "-//W3C//DTD SVG 1.1//EN"
 "http://www.w3.org/Graphics/SVG/1.1/DTD/svg11.dtd">
<!-- Generated by graphviz version 2.43.0 (0)
 -->
<!-- Title: com.example.mybookshelf.MainActivity.saveBook Pages: 1 -->
<svg width="370pt" height="422pt"
 viewBox="0.00 0.00 370.00 422.00" xmlns="http://www.w3.org/2000/svg" xmlns:xlink="http://www.w3.org/1999/xlink">
<g id="graph0" class="graph" transform="scale(1 1) rotate(0) translate(4 418)">
<title>com.example.mybookshelf.MainActivity.saveBook</title>
<!-- Node1 -->
<g id="Node000001" class="node">
<title>Node1</title>
<g id="a_Node000001"><a xlink:title=" ">
<polygon fill="#999999" stroke="#666666" points="152,-222 0,-222 0,-192 152,-192 152,-222"/>
<text text-anchor="start" x="8" y="-210" font-family="Helvetica,sans-Serif" font-size="10.00">com.example.mybookshelf.</text>
<text text-anchor="middle" x="76" y="-199" font-family="Helvetica,sans-Serif" font-size="10.00">MainActivity.saveBook</text>
</a>
</g>
</g>
<!-- Node2 -->
<g id="Node000002" class="node">
<title>Node2</title>
<g id="a_Node000002"><a xlink:href="classcom_1_1example_1_1mybookshelf_1_1dataClass_1_1Book.html#a72061c36f82e9d925effeb02dc0da55d" target="_top" xlink:title=" ">
<polygon fill="white" stroke="#666666" points="362,-414 188,-414 188,-384 362,-384 362,-414"/>
<text text-anchor="start" x="196" y="-402" font-family="Helvetica,sans-Serif" font-size="10.00">com.example.mybookshelf.data</text>
<text text-anchor="middle" x="275" y="-391" font-family="Helvetica,sans-Serif" font-size="10.00">Class.Book.getAuthor</text>
</a>
</g>
</g>
<!-- Node1&#45;&gt;Node2 -->
<g id="edge1_Node000001_Node000002" class="edge">
<title>Node1&#45;&gt;Node2</title>
<g id="a_edge1_Node000001_Node000002"><a xlink:title=" ">
<path fill="none" stroke="#63b8ff" d="M82.7,-222.19C95.89,-255.24 131.77,-334.04 188,-375 190.08,-376.52 192.26,-377.94 194.5,-379.27"/>
<polygon fill="#63b8ff" stroke="#63b8ff" points="193,-382.43 203.48,-383.97 196.25,-376.23 193,-382.43"/>
</a>
</g>
</g>
<!-- Node3 -->
<g id="Node000003" class="node">
<title>Node3</title>
<g id="a_Node000003"><a xlink:href="classcom_1_1example_1_1mybookshelf_1_1dataClass_1_1Book.html#a458c546dddffe750414f225231ac7762" target="_top" xlink:title=" ">
<polygon fill="white" stroke="#666666" points="362,-366 188,-366 188,-336 362,-336 362,-366"/>
<text text-anchor="start" x="196" y="-354" font-family="Helvetica,sans-Serif" font-size="10.00">com.example.mybookshelf.data</text>
<text text-anchor="middle" x="275" y="-343" font-family="Helvetica,sans-Serif" font-size="10.00">Class.Book.getDescription</text>
</a>
</g>
</g>
<!-- Node1&#45;&gt;Node3 -->
<g id="edge2_Node000001_Node000003" class="edge">
<title>Node1&#45;&gt;Node3</title>
<g id="a_edge2_Node000001_Node000003"><a xlink:title=" ">
<path fill="none" stroke="#63b8ff" d="M86.7,-222.02C103.95,-247.51 142.47,-299.19 188,-327 190.78,-328.7 193.68,-330.28 196.66,-331.75"/>
<polygon fill="#63b8ff" stroke="#63b8ff" points="195.27,-334.96 205.83,-335.84 198.13,-328.57 195.27,-334.96"/>
</a>
</g>
</g>
<!-- Node4 -->
<g id="Node000004" class="node">
<title>Node4</title>
<g id="a_Node000004"><a xlink:href="classcom_1_1example_1_1mybookshelf_1_1dataClass_1_1Book.html#ab78862de4a0e97e9190086f397a88fd4" target="_top" xlink:title=" ">
<polygon fill="white" stroke="#666666" points="362,-318 188,-318 188,-288 362,-288 362,-318"/>
<text text-anchor="start" x="196" y="-306" font-family="Helvetica,sans-Serif" font-size="10.00">com.example.mybookshelf.data</text>
<text text-anchor="middle" x="275" y="-295" font-family="Helvetica,sans-Serif" font-size="10.00">Class.Book.getGenre</text>
</a>
</g>
</g>
<!-- Node1&#45;&gt;Node4 -->
<g id="edge3_Node000001_Node000004" class="edge">
<title>Node1&#45;&gt;Node4</title>
<g id="a_edge3_Node000001_Node000004"><a xlink:title=" ">
<path fill="none" stroke="#63b8ff" d="M96.4,-222.21C117.76,-238.32 153.66,-263.51 188,-279 192.36,-280.97 196.92,-282.81 201.57,-284.53"/>
<polygon fill="#63b8ff" stroke="#63b8ff" points="200.61,-287.9 211.2,-287.88 202.91,-281.29 200.61,-287.9"/>
</a>
</g>
</g>
<!-- Node5 -->
<g id="Node000005" class="node">
<title>Node5</title>
<g id="a_Node000005"><a xlink:href="classcom_1_1example_1_1mybookshelf_1_1dataClass_1_1Book.html#a20229b9b1dcc454fc3f09a50e719294c" target="_top" xlink:title=" ">
<polygon fill="white" stroke="#666666" points="362,-270 188,-270 188,-240 362,-240 362,-270"/>
<text text-anchor="start" x="196" y="-258" font-family="Helvetica,sans-Serif" font-size="10.00">com.example.mybookshelf.data</text>
<text text-anchor="middle" x="275" y="-247" font-family="Helvetica,sans-Serif" font-size="10.00">Class.Book.getImageUrl</text>
</a>
</g>
</g>
<!-- Node1&#45;&gt;Node5 -->
<g id="edge4_Node000001_Node000005" class="edge">
<title>Node1&#45;&gt;Node5</title>
<g id="a_edge4_Node000001_Node000005"><a xlink:title=" ">
<path fill="none" stroke="#63b8ff" d="M138.79,-222.06C159.05,-226.99 181.73,-232.52 202.64,-237.61"/>
<polygon fill="#63b8ff" stroke="#63b8ff" points="201.88,-241.03 212.43,-240 203.54,-234.23 201.88,-241.03"/>
</a>
</g>
</g>
<!-- Node6 -->
<g id="Node000006" class="node">
<title>Node6</title>
<g id="a_Node000006"><a xlink:href="classcom_1_1example_1_1mybookshelf_1_1dataClass_1_1Book.html#a4109da1bdee13601576c6725d6e89e71" target="_top" xlink:title=" ">
<polygon fill="white" stroke="#666666" points="362,-222 188,-222 188,-192 362,-192 362,-222"/>
<text text-anchor="start" x="196" y="-210" font-family="Helvetica,sans-Serif" font-size="10.00">com.example.mybookshelf.data</text>
<text text-anchor="middle" x="275" y="-199" font-family="Helvetica,sans-Serif" font-size="10.00">Class.Book.getName</text>
</a>
</g>
</g>
<!-- Node1&#45;&gt;Node6 -->
<g id="edge5_Node000001_Node000006" class="edge">
<title>Node1&#45;&gt;Node6</title>
<g id="a_edge5_Node000001_Node000006"><a xlink:title=" ">
<path fill="none" stroke="#63b8ff" d="M152.04,-207C160.48,-207 169.16,-207 177.82,-207"/>
<polygon fill="#63b8ff" stroke="#63b8ff" points="177.96,-210.5 187.96,-207 177.96,-203.5 177.96,-210.5"/>
</a>
</g>
</g>
<!-- Node7 -->
<g id="Node000007" class="node">
<title>Node7</title>
<g id="a_Node000007"><a xlink:href="classcom_1_1example_1_1mybookshelf_1_1dataClass_1_1Book.html#af362f232851507c1d64779533639edf8" target="_top" xlink:title=" ">
<polygon fill="white" stroke="#666666" points="362,-174 188,-174 188,-144 362,-144 362,-174"/>
<text text-anchor="start" x="196" y="-162" font-family="Helvetica,sans-Serif" font-size="10.00">com.example.mybookshelf.data</text>
<text text-anchor="middle" x="275" y="-151" font-family="Helvetica,sans-Serif" font-size="10.00">Class.Book.getPages</text>
</a>
</g>
</g>
<!-- Node1&#45;&gt;Node7 -->
<g id="edge6_Node000001_Node000007" class="edge">
<title>Node1&#45;&gt;Node7</title>
<g id="a_edge6_Node000001_Node000007"><a xlink:title=" ">
<path fill="none" stroke="#63b8ff" d="M138.79,-191.94C159.05,-187.01 181.73,-181.48 202.64,-176.39"/>
<polygon fill="#63b8ff" stroke="#63b8ff" points="203.54,-179.77 212.43,-174 201.88,-172.97 203.54,-179.77"/>
</a>
</g>
</g>
<!-- Node8 -->
<g id="Node000008" class="node">
<title>Node8</title>
<g id="a_Node000008"><a xlink:href="classcom_1_1example_1_1mybookshelf_1_1dataClass_1_1Book.html#ac360d6fd5854218af0be0939d5b8a88a" target="_top" xlink:title=" ">
<polygon fill="white" stroke="#666666" points="362,-126 188,-126 188,-96 362,-96 362,-126"/>
<text text-anchor="start" x="196" y="-114" font-family="Helvetica,sans-Serif" font-size="10.00">com.example.mybookshelf.data</text>
<text text-anchor="middle" x="275" y="-103" font-family="Helvetica,sans-Serif" font-size="10.00">Class.Book.getReleaseDate</text>
</a>
</g>
</g>
<!-- Node1&#45;&gt;Node8 -->
<g id="edge7_Node000001_Node000008" class="edge">
<title>Node1&#45;&gt;Node8</title>
<g id="a_edge7_Node000001_Node000008"><a xlink:title=" ">
<path fill="none" stroke="#63b8ff" d="M96.4,-191.79C117.76,-175.68 153.66,-150.49 188,-135 192.36,-133.03 196.92,-131.19 201.57,-129.47"/>
<polygon fill="#63b8ff" stroke="#63b8ff" points="202.91,-132.71 211.2,-126.12 200.61,-126.1 202.91,-132.71"/>
</a>
</g>
</g>
<!-- Node9 -->
<g id="Node000009" class="node">
<title>Node9</title>
<g id="a_Node000009"><a xlink:href="classcom_1_1example_1_1mybookshelf_1_1dataClass_1_1Book.html#a44a086ea4c79159d292634cf7c07a3b7" target="_top" xlink:title=" ">
<polygon fill="white" stroke="#666666" points="362,-78 188,-78 188,-48 362,-48 362,-78"/>
<text text-anchor="start" x="196" y="-66" font-family="Helvetica,sans-Serif" font-size="10.00">com.example.mybookshelf.data</text>
<text text-anchor="middle" x="275" y="-55" font-family="Helvetica,sans-Serif" font-size="10.00">Class.Book.setInDatabase</text>
</a>
</g>
</g>
<!-- Node1&#45;&gt;Node9 -->
<g id="edge8_Node000001_Node000009" class="edge">
<title>Node1&#45;&gt;Node9</title>
<g id="a_edge8_Node000001_Node000009"><a xlink:title=" ">
<path fill="none" stroke="#63b8ff" d="M86.7,-191.98C103.95,-166.49 142.47,-114.81 188,-87 190.78,-85.3 193.68,-83.72 196.66,-82.25"/>
<polygon fill="#63b8ff" stroke="#63b8ff" points="198.13,-85.43 205.83,-78.16 195.27,-79.04 198.13,-85.43"/>
</a>
</g>
</g>
<!-- Node10 -->
<g id="Node000010" class="node">
<title>Node10</title>
<g id="a_Node000010"><a xlink:href="classcom_1_1example_1_1mybookshelf_1_1dataClass_1_1Book.html#afe792f46758c4c095ba85c7e996f678f" target="_top" xlink:title=" ">
<polygon fill="white" stroke="#666666" points="362,-30 188,-30 188,0 362,0 362,-30"/>
<text text-anchor="start" x="196" y="-18" font-family="Helvetica,sans-Serif" font-size="10.00">com.example.mybookshelf.data</text>
<text text-anchor="middle" x="275" y="-7" font-family="Helvetica,sans-Serif" font-size="10.00">Class.Book.setStatus</text>
</a>
</g>
</g>
<!-- Node1&#45;&gt;Node10 -->
<g id="edge9_Node000001_Node000010" class="edge">
<title>Node1&#45;&gt;Node10</title>
<g id="a_edge9_Node000001_Node000010"><a xlink:title=" ">
<path fill="none" stroke="#63b8ff" d="M82.7,-191.81C95.89,-158.76 131.77,-79.96 188,-39 190.08,-37.48 192.26,-36.06 194.5,-34.73"/>
<polygon fill="#63b8ff" stroke="#63b8ff" points="196.25,-37.77 203.48,-30.03 193,-31.57 196.25,-37.77"/>
</a>
</g>
</g>
</g>
</svg>
