<?xml version="1.0" encoding="UTF-8" standalone="no"?>
<!DOCTYPE svg PUBLIC "-//W3C//DTD SVG 1.1//EN"
 "http://www.w3.org/Graphics/SVG/1.1/DTD/svg11.dtd">
<!-- Generated by graphviz version 2.43.0 (0)
 -->
<!-- Title: com.example.mybookshelf.notifications.NotificationReceiver.onReceive Pages: 1 -->
<svg width="507pt" height="86pt"
 viewBox="0.00 0.00 507.00 86.00" xmlns="http://www.w3.org/2000/svg" xmlns:xlink="http://www.w3.org/1999/xlink">
<g id="graph0" class="graph" transform="scale(1 1) rotate(0) translate(4 82)">
<title>com.example.mybookshelf.notifications.NotificationReceiver.onReceive</title>
<!-- Node1 -->
<g id="Node000001" class="node">
<title>Node1</title>
<g id="a_Node000001"><a xlink:title=" ">
<polygon fill="#999999" stroke="#666666" points="215,-54 0,-54 0,-24 215,-24 215,-54"/>
<text text-anchor="start" x="8" y="-42" font-family="Helvetica,sans-Serif" font-size="10.00">com.example.mybookshelf.notifications.</text>
<text text-anchor="middle" x="107.5" y="-31" font-family="Helvetica,sans-Serif" font-size="10.00">NotificationReceiver.onReceive</text>
</a>
</g>
</g>
<!-- Node2 -->
<g id="Node000002" class="node">
<title>Node2</title>
<g id="a_Node000002"><a xlink:href="classcom_1_1example_1_1mybookshelf_1_1notifications_1_1NotificationScheduler.html#a5833d4c1b987dddea26acdad230c640f" target="_top" xlink:title=" ">
<polygon fill="white" stroke="#666666" points="499,-78 251,-78 251,-48 499,-48 499,-78"/>
<text text-anchor="start" x="259" y="-66" font-family="Helvetica,sans-Serif" font-size="10.00">com.example.mybookshelf.notifications.</text>
<text text-anchor="middle" x="375" y="-55" font-family="Helvetica,sans-Serif" font-size="10.00">NotificationScheduler.scheduleDailyNotification</text>
</a>
</g>
</g>
<!-- Node1&#45;&gt;Node2 -->
<g id="edge1_Node000001_Node000002" class="edge">
<title>Node1&#45;&gt;Node2</title>
<g id="a_edge1_Node000001_Node000002"><a xlink:title=" ">
<path fill="none" stroke="#63b8ff" d="M215.34,-48.66C223.73,-49.42 232.26,-50.19 240.8,-50.96"/>
<polygon fill="#63b8ff" stroke="#63b8ff" points="240.54,-54.45 250.81,-51.86 241.17,-47.48 240.54,-54.45"/>
</a>
</g>
</g>
<!-- Node3 -->
<g id="Node000003" class="node">
<title>Node3</title>
<g id="a_Node000003"><a xlink:href="classcom_1_1example_1_1mybookshelf_1_1notifications_1_1NotificationReceiver.html#abe5c4b7b501921cbb9ebbf22dcb06be7" target="_top" xlink:title=" ">
<polygon fill="white" stroke="#666666" points="482.5,-30 267.5,-30 267.5,0 482.5,0 482.5,-30"/>
<text text-anchor="start" x="275.5" y="-18" font-family="Helvetica,sans-Serif" font-size="10.00">com.example.mybookshelf.notifications.</text>
<text text-anchor="middle" x="375" y="-7" font-family="Helvetica,sans-Serif" font-size="10.00">NotificationReceiver.showNotification</text>
</a>
</g>
</g>
<!-- Node1&#45;&gt;Node3 -->
<g id="edge2_Node000001_Node000003" class="edge">
<title>Node1&#45;&gt;Node3</title>
<g id="a_edge2_Node000001_Node000003"><a xlink:title=" ">
<path fill="none" stroke="#63b8ff" d="M215.34,-29.34C229.14,-28.09 243.33,-26.81 257.27,-25.55"/>
<polygon fill="#63b8ff" stroke="#63b8ff" points="257.73,-29.02 267.38,-24.64 257.1,-22.05 257.73,-29.02"/>
</a>
</g>
</g>
</g>
</svg>
