<?xml version="1.0" encoding="UTF-8" standalone="no"?>
<!DOCTYPE svg PUBLIC "-//W3C//DTD SVG 1.1//EN"
 "http://www.w3.org/Graphics/SVG/1.1/DTD/svg11.dtd">
<!-- Generated by graphviz version 2.43.0 (0)
 -->
<!-- Title: com.example.mybookshelf.UIMaster.MonthValueFormatter Pages: 1 -->
<svg width="198pt" height="164pt"
 viewBox="0.00 0.00 198.00 164.00" xmlns="http://www.w3.org/2000/svg" xmlns:xlink="http://www.w3.org/1999/xlink">

<svg id="main" version="1.1" xmlns="http://www.w3.org/2000/svg" xmlns:xlink="http://www.w3.org/1999/xlink" xml:space="preserve">

<style type="text/css"><![CDATA[
.node, .edge {opacity: 0.7;}
.node.selected, .edge.selected {opacity: 1;}
.edge:hover path { stroke: red; }
.edge:hover polygon { stroke: red; fill: red; }
]]></style>
<script type="application/ecmascript" xlink:href="svg.min.js"/>
<svg id="graph" class="graph">
<g id="graph0" class="graph" transform="scale(1 1) rotate(0) translate(4 160)">
<title>com.example.mybookshelf.UIMaster.MonthValueFormatter</title>
<!-- Node1 -->
<g id="Node000001" class="node">
<title>Node1</title>
<g id="a_Node000001"><a xlink:title=" ">
<polygon fill="#999999" stroke="transparent" points="164.5,-60 1.5,-60 1.5,0 164.5,0 164.5,-60"/>
<text text-anchor="start" x="7" y="-48" font-family="Helvetica,sans-Serif" font-size="10.00">com.example.mybookshelf.</text>
<text text-anchor="start" x="7" y="-37" font-family="Helvetica,sans-Serif" font-size="10.00">UIMaster.MonthValueFormatter</text>
<text text-anchor="start" x="81.5" y="-22" font-family="Helvetica,sans-Serif" font-size="10.00"> </text>
<text text-anchor="start" x="16" y="-7" font-family="Helvetica,sans-Serif" font-size="10.00">+</text>
<text text-anchor="start" x="39" y="-7" font-family="Helvetica,sans-Serif" font-size="10.00">getFormattedValue()</text>
<polygon fill="#666666" stroke="#666666" points="2,-32 2,-32 165,-32 165,-32 2,-32"/>
<polygon fill="#666666" stroke="#666666" points="2,-17 2,-17 165,-17 165,-17 2,-17"/>
<polygon fill="none" stroke="#666666" points="1.5,0 1.5,-60 164.5,-60 164.5,0 1.5,0"/>
</a>
</g>
</g>
<!-- Node2 -->
<g id="Node000002" class="node">
<title>Node2</title>
<g id="a_Node000002"><a xlink:href="classValueFormatter.html" target="_top" xlink:title=" ">
<polygon fill="white" stroke="transparent" points="86,-156 0,-156 0,-107 86,-107 86,-156"/>
<text text-anchor="start" x="5" y="-143.5" font-family="Helvetica,sans-Serif" font-size="10.00">ValueFormatter</text>
<text text-anchor="start" x="41" y="-128.5" font-family="Helvetica,sans-Serif" font-size="10.00"> </text>
<text text-anchor="start" x="41" y="-113.5" font-family="Helvetica,sans-Serif" font-size="10.00"> </text>
<polygon fill="#666666" stroke="#666666" points="0,-138.5 0,-138.5 86,-138.5 86,-138.5 0,-138.5"/>
<polygon fill="#666666" stroke="#666666" points="0,-123.5 0,-123.5 86,-123.5 86,-123.5 0,-123.5"/>
<polygon fill="none" stroke="#666666" points="0,-107 0,-156 86,-156 86,-107 0,-107"/>
</a>
</g>
</g>
<!-- Node2&#45;&gt;Node1 -->
<g id="edge1_Node000001_Node000002" class="edge">
<title>Node2&#45;&gt;Node1</title>
<g id="a_edge1_Node000001_Node000002"><a xlink:title=" ">
<path fill="none" stroke="#63b8ff" d="M56.23,-97.59C61.1,-85.48 66.58,-71.86 71.3,-60.1"/>
<polygon fill="none" stroke="#63b8ff" points="52.96,-96.34 52.48,-106.92 59.46,-98.95 52.96,-96.34"/>
</a>
</g>
</g>
<!-- Node3 -->
<g id="Node000003" class="node">
<title>Node3</title>
<g id="a_Node000003"><a xlink:title=" ">
<polygon fill="white" stroke="transparent" points="143.5,-156 104.5,-156 104.5,-107 143.5,-107 143.5,-156"/>
<text text-anchor="start" x="110" y="-143.5" font-family="Helvetica,sans-Serif" font-size="10.00">String</text>
<text text-anchor="start" x="122.5" y="-128.5" font-family="Helvetica,sans-Serif" font-size="10.00"> </text>
<text text-anchor="start" x="122.5" y="-113.5" font-family="Helvetica,sans-Serif" font-size="10.00"> </text>
<polygon fill="#666666" stroke="#666666" points="105,-138.5 105,-138.5 144,-138.5 144,-138.5 105,-138.5"/>
<polygon fill="#666666" stroke="#666666" points="105,-123.5 105,-123.5 144,-123.5 144,-123.5 105,-123.5"/>
<polygon fill="none" stroke="#666666" points="104.5,-107 104.5,-156 143.5,-156 143.5,-107 104.5,-107"/>
</a>
</g>
</g>
<!-- Node3&#45;&gt;Node1 -->
<g id="edge2_Node000001_Node000003" class="edge">
<title>Node3&#45;&gt;Node1</title>
<g id="a_edge2_Node000001_Node000003"><a xlink:title=" ">
<path fill="none" stroke="#63b8ff" d="M114.28,-106.92C109.9,-96.29 104.61,-83.44 99.63,-71.36"/>
<polygon fill="none" stroke="#63b8ff" points="99.56,-71.2 93.58,-67.17 94.99,-60.1 100.98,-64.12 99.56,-71.2"/>
</a>
</g>
<text text-anchor="middle" x="147.5" y="-81" font-family="Helvetica,sans-Serif" font-size="10.00" fill="grey"> &#45;MONTH_NAMES</text>
</g>
</g>
</svg>
</svg>

<style type='text/css'>
<![CDATA[
[data-mouse-over-selected='false'] { opacity: 0.7; }
[data-mouse-over-selected='true']  { opacity: 1.0; }
]]>
</style>
<script type="application/ecmascript"><![CDATA[
document.addEventListener('DOMContentLoaded', (event) => {
  highlightEdges();
  highlightAdjacentNodes();
});
]]></script>
</svg>
