<?xml version="1.0" encoding="UTF-8" standalone="no"?>
<!DOCTYPE svg PUBLIC "-//W3C//DTD SVG 1.1//EN"
 "http://www.w3.org/Graphics/SVG/1.1/DTD/svg11.dtd">
<!-- Generated by graphviz version 2.43.0 (0)
 -->
<!-- Title: com.example.mybookshelf.MainActivity Pages: 1 -->
<svg width="278pt" height="554pt"
 viewBox="0.00 0.00 277.50 554.00" xmlns="http://www.w3.org/2000/svg" xmlns:xlink="http://www.w3.org/1999/xlink">
<g id="graph0" class="graph" transform="scale(1 1) rotate(0) translate(4 550)">
<title>com.example.mybookshelf.MainActivity</title>
<!-- Node1 -->
<g id="Node000001" class="node">
<title>Node1</title>
<g id="a_Node000001"><a xlink:title=" ">
<polygon fill="#999999" stroke="transparent" points="230.5,-435 18.5,-435 18.5,0 230.5,0 230.5,-435"/>
<text text-anchor="start" x="56.5" y="-422.5" font-family="Helvetica,sans-Serif" font-size="10.00">com.example.mybookshelf.</text>
<text text-anchor="start" x="93.5" y="-411.5" font-family="Helvetica,sans-Serif" font-size="10.00">MainActivity</text>
<text text-anchor="start" x="22.5" y="-396.5" font-family="Helvetica,sans-Serif" font-size="10.00">~</text>
<text text-anchor="start" x="35.5" y="-396.5" font-family="Helvetica,sans-Serif" font-size="10.00">db</text>
<text text-anchor="start" x="25" y="-381.5" font-family="Helvetica,sans-Serif" font-size="10.00">&#45;</text>
<text text-anchor="start" x="35.5" y="-381.5" font-family="Helvetica,sans-Serif" font-size="10.00">addBookButton</text>
<text text-anchor="start" x="25" y="-366.5" font-family="Helvetica,sans-Serif" font-size="10.00">&#45;</text>
<text text-anchor="start" x="35.5" y="-366.5" font-family="Helvetica,sans-Serif" font-size="10.00">auth</text>
<text text-anchor="start" x="25" y="-351.5" font-family="Helvetica,sans-Serif" font-size="10.00">&#45;</text>
<text text-anchor="start" x="35.5" y="-351.5" font-family="Helvetica,sans-Serif" font-size="10.00">booksAPI</text>
<text text-anchor="start" x="25" y="-336.5" font-family="Helvetica,sans-Serif" font-size="10.00">&#45;</text>
<text text-anchor="start" x="35.5" y="-336.5" font-family="Helvetica,sans-Serif" font-size="10.00">ai</text>
<text text-anchor="start" x="25" y="-321.5" font-family="Helvetica,sans-Serif" font-size="10.00">&#45;</text>
<text text-anchor="start" x="35.5" y="-321.5" font-family="Helvetica,sans-Serif" font-size="10.00">uiMaster</text>
<text text-anchor="start" x="25" y="-306.5" font-family="Helvetica,sans-Serif" font-size="10.00">&#45;</text>
<text text-anchor="start" x="35.5" y="-306.5" font-family="Helvetica,sans-Serif" font-size="10.00">search</text>
<text text-anchor="start" x="25" y="-291.5" font-family="Helvetica,sans-Serif" font-size="10.00">&#45;</text>
<text text-anchor="start" x="35.5" y="-291.5" font-family="Helvetica,sans-Serif" font-size="10.00">searchView</text>
<text text-anchor="start" x="25" y="-276.5" font-family="Helvetica,sans-Serif" font-size="10.00">&#45;</text>
<text text-anchor="start" x="35.5" y="-276.5" font-family="Helvetica,sans-Serif" font-size="10.00">timeSpentReadingTextView</text>
<text text-anchor="start" x="25" y="-261.5" font-family="Helvetica,sans-Serif" font-size="10.00">&#45;</text>
<text text-anchor="start" x="35.5" y="-261.5" font-family="Helvetica,sans-Serif" font-size="10.00">goToStarting</text>
<text text-anchor="start" x="25" y="-246.5" font-family="Helvetica,sans-Serif" font-size="10.00">&#45;</text>
<text text-anchor="start" x="35.5" y="-246.5" font-family="Helvetica,sans-Serif" font-size="10.00">logedindUser</text>
<text text-anchor="start" x="25" y="-231.5" font-family="Helvetica,sans-Serif" font-size="10.00">&#45;</text>
<text text-anchor="start" x="35.5" y="-231.5" font-family="Helvetica,sans-Serif" font-size="10.00">handler</text>
<text text-anchor="start" x="25" y="-216.5" font-family="Helvetica,sans-Serif" font-size="10.00">&#45;</text>
<text text-anchor="start" x="35.5" y="-216.5" font-family="Helvetica,sans-Serif" font-size="10.00">loadingOverlay</text>
<text text-anchor="start" x="25" y="-201.5" font-family="Helvetica,sans-Serif" font-size="10.00">&#45;</text>
<text text-anchor="start" x="35.5" y="-201.5" font-family="Helvetica,sans-Serif" font-size="10.00">REQUEST_CODE_POST_NOTIFICATIONS</text>
<text text-anchor="start" x="22.5" y="-186.5" font-family="Helvetica,sans-Serif" font-size="10.00">+</text>
<text text-anchor="start" x="35.5" y="-186.5" font-family="Helvetica,sans-Serif" font-size="10.00">handleSearch()</text>
<text text-anchor="start" x="22.5" y="-171.5" font-family="Helvetica,sans-Serif" font-size="10.00">+</text>
<text text-anchor="start" x="35.5" y="-171.5" font-family="Helvetica,sans-Serif" font-size="10.00">handleRegister()</text>
<text text-anchor="start" x="22.5" y="-156.5" font-family="Helvetica,sans-Serif" font-size="10.00">+</text>
<text text-anchor="start" x="35.5" y="-156.5" font-family="Helvetica,sans-Serif" font-size="10.00">handleLogin()</text>
<text text-anchor="start" x="22.5" y="-141.5" font-family="Helvetica,sans-Serif" font-size="10.00">+</text>
<text text-anchor="start" x="35.5" y="-141.5" font-family="Helvetica,sans-Serif" font-size="10.00">saveBook()</text>
<text text-anchor="start" x="22.5" y="-126.5" font-family="Helvetica,sans-Serif" font-size="10.00">+</text>
<text text-anchor="start" x="35.5" y="-126.5" font-family="Helvetica,sans-Serif" font-size="10.00">removeBook()</text>
<text text-anchor="start" x="22.5" y="-111.5" font-family="Helvetica,sans-Serif" font-size="10.00">+</text>
<text text-anchor="start" x="35.5" y="-111.5" font-family="Helvetica,sans-Serif" font-size="10.00">getUser()</text>
<text text-anchor="start" x="22.5" y="-96.5" font-family="Helvetica,sans-Serif" font-size="10.00">+</text>
<text text-anchor="start" x="35.5" y="-96.5" font-family="Helvetica,sans-Serif" font-size="10.00">onSuccess()</text>
<text text-anchor="start" x="22.5" y="-81.5" font-family="Helvetica,sans-Serif" font-size="10.00">+</text>
<text text-anchor="start" x="35.5" y="-81.5" font-family="Helvetica,sans-Serif" font-size="10.00">handleBookChange()</text>
<text text-anchor="start" x="22.5" y="-66.5" font-family="Helvetica,sans-Serif" font-size="10.00">+</text>
<text text-anchor="start" x="35.5" y="-66.5" font-family="Helvetica,sans-Serif" font-size="10.00">onFailure()</text>
<text text-anchor="start" x="22.5" y="-51.5" font-family="Helvetica,sans-Serif" font-size="10.00">+</text>
<text text-anchor="start" x="35.5" y="-51.5" font-family="Helvetica,sans-Serif" font-size="10.00">getDb()</text>
<text text-anchor="start" x="22.5" y="-36.5" font-family="Helvetica,sans-Serif" font-size="10.00">+</text>
<text text-anchor="start" x="35.5" y="-36.5" font-family="Helvetica,sans-Serif" font-size="10.00">setLoadingVisibility()</text>
<text text-anchor="start" x="22.5" y="-21.5" font-family="Helvetica,sans-Serif" font-size="10.00">#</text>
<text text-anchor="start" x="35.5" y="-21.5" font-family="Helvetica,sans-Serif" font-size="10.00">onCreate()</text>
<text text-anchor="start" x="25" y="-6.5" font-family="Helvetica,sans-Serif" font-size="10.00">&#45;</text>
<text text-anchor="start" x="35.5" y="-6.5" font-family="Helvetica,sans-Serif" font-size="10.00">showResponseDialog()</text>
<polygon fill="#666666" stroke="#666666" points="18.5,-406.5 18.5,-406.5 230.5,-406.5 230.5,-406.5 18.5,-406.5"/>
<polygon fill="#666666" stroke="#666666" points="18.5,-196.5 18.5,-196.5 33.5,-196.5 33.5,-196.5 18.5,-196.5"/>
<polygon fill="#666666" stroke="#666666" points="33.5,-196.5 33.5,-196.5 230.5,-196.5 230.5,-196.5 33.5,-196.5"/>
<polygon fill="none" stroke="#666666" points="18.5,0 18.5,-435 230.5,-435 230.5,0 18.5,0"/>
</a>
</g>
</g>
<!-- Node2 -->
<g id="Node000002" class="node">
<title>Node2</title>
<g id="a_Node000002"><a xlink:href="classAppCompatActivity.html" target="_top" xlink:title=" ">
<polygon fill="white" stroke="transparent" points="105,-533 0,-533 0,-484 105,-484 105,-533"/>
<text text-anchor="start" x="5.5" y="-520.5" font-family="Helvetica,sans-Serif" font-size="10.00">AppCompatActivity</text>
<text text-anchor="start" x="51" y="-505.5" font-family="Helvetica,sans-Serif" font-size="10.00"> </text>
<text text-anchor="start" x="51" y="-490.5" font-family="Helvetica,sans-Serif" font-size="10.00"> </text>
<polygon fill="#666666" stroke="#666666" points="0.5,-515.5 0.5,-515.5 105.5,-515.5 105.5,-515.5 0.5,-515.5"/>
<polygon fill="#666666" stroke="#666666" points="0.5,-500.5 0.5,-500.5 105.5,-500.5 105.5,-500.5 0.5,-500.5"/>
<polygon fill="none" stroke="#666666" points="0,-484 0,-533 105,-533 105,-484 0,-484"/>
</a>
</g>
</g>
<!-- Node2&#45;&gt;Node1 -->
<g id="edge1_Node000001_Node000002" class="edge">
<title>Node2&#45;&gt;Node1</title>
<g id="a_edge1_Node000001_Node000002"><a xlink:title=" ">
<path fill="none" stroke="#63b8ff" d="M60.85,-473.97C63.6,-462.95 66.88,-449.76 70.49,-435.27"/>
<polygon fill="none" stroke="#63b8ff" points="57.41,-473.3 58.39,-483.85 64.21,-474.99 57.41,-473.3"/>
</a>
</g>
</g>
<!-- Node3 -->
<g id="Node000003" class="node">
<title>Node3</title>
<g id="a_Node000003"><a xlink:href="interfacecom_1_1example_1_1mybookshelf_1_1ApiResponseCallback.html" target="_top" xlink:title=" ">
<polygon fill="white" stroke="transparent" points="269.5,-546 123.5,-546 123.5,-471 269.5,-471 269.5,-546"/>
<text text-anchor="start" x="128.5" y="-533.5" font-family="Helvetica,sans-Serif" font-size="10.00">com.example.mybookshelf.</text>
<text text-anchor="start" x="143.5" y="-522.5" font-family="Helvetica,sans-Serif" font-size="10.00">ApiResponseCallback</text>
<text text-anchor="start" x="194.5" y="-507.5" font-family="Helvetica,sans-Serif" font-size="10.00"> </text>
<text text-anchor="start" x="144" y="-492.5" font-family="Helvetica,sans-Serif" font-size="10.00">+</text>
<text text-anchor="start" x="173.5" y="-492.5" font-family="Helvetica,sans-Serif" font-size="10.00">onSuccess()</text>
<text text-anchor="start" x="144" y="-477.5" font-family="Helvetica,sans-Serif" font-size="10.00">+</text>
<text text-anchor="start" x="173.5" y="-477.5" font-family="Helvetica,sans-Serif" font-size="10.00">onFailure()</text>
<polygon fill="#666666" stroke="#666666" points="123.5,-517.5 123.5,-517.5 269.5,-517.5 269.5,-517.5 123.5,-517.5"/>
<polygon fill="#666666" stroke="#666666" points="123.5,-502.5 123.5,-502.5 269.5,-502.5 269.5,-502.5 123.5,-502.5"/>
<polygon fill="none" stroke="#666666" points="123.5,-471 123.5,-546 269.5,-546 269.5,-471 123.5,-471"/>
</a>
</g>
</g>
<!-- Node3&#45;&gt;Node1 -->
<g id="edge2_Node000001_Node000003" class="edge">
<title>Node3&#45;&gt;Node1</title>
<g id="a_edge2_Node000001_Node000003"><a xlink:title=" ">
<path fill="none" stroke="#63b8ff" d="M184.96,-461.19C182.97,-453.19 180.79,-444.43 178.47,-435.13"/>
<polygon fill="none" stroke="#63b8ff" points="181.57,-462.04 187.38,-470.9 188.36,-460.35 181.57,-462.04"/>
</a>
</g>
</g>
</g>
</svg>
