<?xml version="1.0" encoding="UTF-8" standalone="no"?>
<!DOCTYPE svg PUBLIC "-//W3C//DTD SVG 1.1//EN"
 "http://www.w3.org/Graphics/SVG/1.1/DTD/svg11.dtd">
<!-- Generated by graphviz version 2.43.0 (0)
 -->
<!-- Title: com.example.mybookshelf.dataClass.Notification Pages: 1 -->
<svg width="176pt" height="194pt"
 viewBox="0.00 0.00 176.00 194.00" xmlns="http://www.w3.org/2000/svg" xmlns:xlink="http://www.w3.org/1999/xlink">

<svg id="main" version="1.1" xmlns="http://www.w3.org/2000/svg" xmlns:xlink="http://www.w3.org/1999/xlink" xml:space="preserve">

<style type="text/css"><![CDATA[
.node, .edge {opacity: 0.7;}
.node.selected, .edge.selected {opacity: 1;}
.edge:hover path { stroke: red; }
.edge:hover polygon { stroke: red; fill: red; }
]]></style>
<script type="application/ecmascript" xlink:href="svg.min.js"/>
<svg id="graph" class="graph">
<g id="graph0" class="graph" transform="scale(1 1) rotate(0) translate(4 190)">
<title>com.example.mybookshelf.dataClass.Notification</title>
<!-- Node1 -->
<g id="Node000001" class="node">
<title>Node1</title>
<g id="a_Node000001"><a xlink:title=" ">
<polygon fill="#999999" stroke="transparent" points="168,-90 0,-90 0,0 168,0 168,-90"/>
<text text-anchor="start" x="5" y="-78" font-family="Helvetica,sans-Serif" font-size="10.00">com.example.mybookshelf.data</text>
<text text-anchor="start" x="41" y="-67" font-family="Helvetica,sans-Serif" font-size="10.00">Class.Notification</text>
<text text-anchor="start" x="82" y="-52" font-family="Helvetica,sans-Serif" font-size="10.00"> </text>
<text text-anchor="start" x="24" y="-37" font-family="Helvetica,sans-Serif" font-size="10.00">+</text>
<text text-anchor="start" x="57" y="-37" font-family="Helvetica,sans-Serif" font-size="10.00">Notification()</text>
<text text-anchor="start" x="24" y="-22" font-family="Helvetica,sans-Serif" font-size="10.00">+</text>
<text text-anchor="start" x="57" y="-22" font-family="Helvetica,sans-Serif" font-size="10.00">getId()</text>
<text text-anchor="start" x="24" y="-7" font-family="Helvetica,sans-Serif" font-size="10.00">+</text>
<text text-anchor="start" x="57" y="-7" font-family="Helvetica,sans-Serif" font-size="10.00">getMessage()</text>
<polygon fill="#666666" stroke="#666666" points="0,-62 0,-62 168,-62 168,-62 0,-62"/>
<polygon fill="#666666" stroke="#666666" points="0,-47 0,-47 168,-47 168,-47 0,-47"/>
<polygon fill="none" stroke="#666666" points="0,0 0,-90 168,-90 168,0 0,0"/>
</a>
</g>
</g>
<!-- Node2 -->
<g id="Node000002" class="node">
<title>Node2</title>
<g id="a_Node000002"><a xlink:title=" ">
<polygon fill="white" stroke="transparent" points="71.5,-186 48.5,-186 48.5,-137 71.5,-137 71.5,-186"/>
<text text-anchor="start" x="54" y="-173.5" font-family="Helvetica,sans-Serif" font-size="10.00">int</text>
<text text-anchor="start" x="58.5" y="-158.5" font-family="Helvetica,sans-Serif" font-size="10.00"> </text>
<text text-anchor="start" x="58.5" y="-143.5" font-family="Helvetica,sans-Serif" font-size="10.00"> </text>
<polygon fill="#666666" stroke="#666666" points="49,-168.5 49,-168.5 72,-168.5 72,-168.5 49,-168.5"/>
<polygon fill="#666666" stroke="#666666" points="49,-153.5 49,-153.5 72,-153.5 72,-153.5 49,-153.5"/>
<polygon fill="none" stroke="#666666" points="48.5,-137 48.5,-186 71.5,-186 71.5,-137 48.5,-137"/>
</a>
</g>
</g>
<!-- Node2&#45;&gt;Node1 -->
<g id="edge1_Node000001_Node000002" class="edge">
<title>Node2&#45;&gt;Node1</title>
<g id="a_edge1_Node000001_Node000002"><a xlink:title=" ">
<path fill="none" stroke="#63b8ff" d="M64.97,-136.78C67.09,-126.66 69.67,-114.38 72.23,-102.16"/>
<polygon fill="none" stroke="#63b8ff" points="72.3,-101.8 69.62,-95.11 74.77,-90.06 77.45,-96.75 72.3,-101.8"/>
</a>
</g>
<text text-anchor="middle" x="78" y="-111" font-family="Helvetica,sans-Serif" font-size="10.00" fill="grey"> &#45;id</text>
</g>
<!-- Node3 -->
<g id="Node000003" class="node">
<title>Node3</title>
<g id="a_Node000003"><a xlink:title=" ">
<polygon fill="white" stroke="transparent" points="128.5,-186 89.5,-186 89.5,-137 128.5,-137 128.5,-186"/>
<text text-anchor="start" x="95" y="-173.5" font-family="Helvetica,sans-Serif" font-size="10.00">String</text>
<text text-anchor="start" x="107.5" y="-158.5" font-family="Helvetica,sans-Serif" font-size="10.00"> </text>
<text text-anchor="start" x="107.5" y="-143.5" font-family="Helvetica,sans-Serif" font-size="10.00"> </text>
<polygon fill="#666666" stroke="#666666" points="90,-168.5 90,-168.5 129,-168.5 129,-168.5 90,-168.5"/>
<polygon fill="#666666" stroke="#666666" points="90,-153.5 90,-153.5 129,-153.5 129,-153.5 90,-153.5"/>
<polygon fill="none" stroke="#666666" points="89.5,-137 89.5,-186 128.5,-186 128.5,-137 89.5,-137"/>
</a>
</g>
</g>
<!-- Node3&#45;&gt;Node1 -->
<g id="edge2_Node000001_Node000003" class="edge">
<title>Node3&#45;&gt;Node1</title>
<g id="a_edge2_Node000001_Node000003"><a xlink:title=" ">
<path fill="none" stroke="#63b8ff" d="M103.82,-136.78C101.59,-126.55 98.87,-114.12 96.18,-101.78"/>
<polygon fill="none" stroke="#63b8ff" points="96.18,-101.78 90.99,-96.77 93.62,-90.06 98.81,-95.06 96.18,-101.78"/>
</a>
</g>
<text text-anchor="middle" x="125" y="-111" font-family="Helvetica,sans-Serif" font-size="10.00" fill="grey"> &#45;message</text>
</g>
</g>
</svg>
</svg>

<style type='text/css'>
<![CDATA[
[data-mouse-over-selected='false'] { opacity: 0.7; }
[data-mouse-over-selected='true']  { opacity: 1.0; }
]]>
</style>
<script type="application/ecmascript"><![CDATA[
document.addEventListener('DOMContentLoaded', (event) => {
  highlightEdges();
  highlightAdjacentNodes();
});
]]></script>
</svg>
