<?xml version="1.0" encoding="UTF-8" standalone="no"?>
<!DOCTYPE svg PUBLIC "-//W3C//DTD SVG 1.1//EN"
 "http://www.w3.org/Graphics/SVG/1.1/DTD/svg11.dtd">
<!-- Generated by graphviz version 2.43.0 (0)
 -->
<!-- Title: AppCompatActivity Pages: 1 -->
<!--zoomable 528 -->

<svg id="main" version="1.1" xmlns="http://www.w3.org/2000/svg" xmlns:xlink="http://www.w3.org/1999/xlink" xml:space="preserve" onload="init(evt)">

<style type="text/css"><![CDATA[
.node, .edge {opacity: 0.7;}
.node.selected, .edge.selected {opacity: 1;}
.edge:hover path { stroke: red; }
.edge:hover polygon { stroke: red; fill: red; }
]]></style>

<defs>
  <circle id="rim" cx="0" cy="0" r="7"/>
  <circle id="rim2" cx="0" cy="0" r="3.5"/>
  <g id="zoomPlus">
    <use xlink:href="#rim" fill="#404040"><set attributeName="fill" to="#808080" begin="zoomplus.mouseover" end="zoomplus.mouseout"/></use>
    <path d="M-4,0h8M0,-4v8" fill="none" stroke="white" stroke-width="1.5" pointer-events="none"/>
  </g>
  <g id="zoomMin">
    <use xlink:href="#rim" fill="#404040"><set attributeName="fill" to="#808080" begin="zoomminus.mouseover" end="zoomminus.mouseout"/></use>
    <path d="M-4,0h8" fill="none" stroke="white" stroke-width="1.5" pointer-events="none"/>
  </g>
  <g id="arrowUp" transform="translate(30 24)">
    <use xlink:href="#rim"/>
    <path pointer-events="none" fill="none" stroke="white" stroke-width="1.5" d="M0,-3.0v7 M-2.5,-0.5L0,-3.0L2.5,-0.5"/>
  </g>
  <g id="arrowRight" transform="rotate(90) translate(36 -43)">
    <use xlink:href="#rim"/>
    <path pointer-events="none" fill="none" stroke="white" stroke-width="1.5" d="M0,-3.0v7 M-2.5,-0.5L0,-3.0L2.5,-0.5"/>
  </g>
  <g id="arrowDown" transform="rotate(180) translate(-30 -48)">
    <use xlink:href="#rim"/>
    <path pointer-events="none" fill="none" stroke="white" stroke-width="1.5" d="M0,-3.0v7 M-2.5,-0.5L0,-3.0L2.5,-0.5"/>
  </g>
  <g id="arrowLeft" transform="rotate(270) translate(-36 17)">
    <use xlink:href="#rim"/>
    <path pointer-events="none" fill="none" stroke="white" stroke-width="1.5" d="M0,-3.0v7 M-2.5,-0.5L0,-3.0L2.5,-0.5"/>
  </g>
  <g id="resetDef">
    <use xlink:href="#rim2" fill="#404040"><set attributeName="fill" to="#808080" begin="reset.mouseover" end="reset.mouseout"/></use>
  </g>
</defs>
<script type="application/ecmascript">
var viewWidth = 384;
var viewHeight = 528;
var sectionId = 'dynsection-0';
</script>
<script type="application/ecmascript" xlink:href="svg.min.js"/>
<svg id="graph" class="graph">
<g id="viewport">
<title>AppCompatActivity</title>
<!-- Node1 -->
<g id="Node000001" class="node">
<title>Node1</title>
<g id="a_Node000001"><a xlink:title=" ">
<polygon fill="#999999" stroke="transparent" points="256.5,-520 151.5,-520 151.5,-471 256.5,-471 256.5,-520"/>
<text text-anchor="start" x="157" y="-507.5" font-family="Helvetica,sans-Serif" font-size="10.00">AppCompatActivity</text>
<text text-anchor="start" x="202.5" y="-492.5" font-family="Helvetica,sans-Serif" font-size="10.00"> </text>
<text text-anchor="start" x="202.5" y="-477.5" font-family="Helvetica,sans-Serif" font-size="10.00"> </text>
<polygon fill="#666666" stroke="#666666" points="152,-502.5 152,-502.5 257,-502.5 257,-502.5 152,-502.5"/>
<polygon fill="#666666" stroke="#666666" points="152,-487.5 152,-487.5 257,-487.5 257,-487.5 152,-487.5"/>
<polygon fill="none" stroke="#666666" points="151.5,-471 151.5,-520 256.5,-520 256.5,-471 151.5,-471"/>
</a>
</g>
</g>
<!-- Node2 -->
<g id="Node000002" class="node">
<title>Node2</title>
<g id="a_Node000002"><a xlink:href="classcom_1_1example_1_1mybookshelf_1_1MainActivity.html" target="_top" xlink:title=" ">
<polygon fill="white" stroke="transparent" points="212,-435 0,-435 0,0 212,0 212,-435"/>
<text text-anchor="start" x="38" y="-422.5" font-family="Helvetica,sans-Serif" font-size="10.00">com.example.mybookshelf.</text>
<text text-anchor="start" x="75" y="-411.5" font-family="Helvetica,sans-Serif" font-size="10.00">MainActivity</text>
<text text-anchor="start" x="4" y="-396.5" font-family="Helvetica,sans-Serif" font-size="10.00">~</text>
<text text-anchor="start" x="17" y="-396.5" font-family="Helvetica,sans-Serif" font-size="10.00">db</text>
<text text-anchor="start" x="6.5" y="-381.5" font-family="Helvetica,sans-Serif" font-size="10.00">&#45;</text>
<text text-anchor="start" x="17" y="-381.5" font-family="Helvetica,sans-Serif" font-size="10.00">addBookButton</text>
<text text-anchor="start" x="6.5" y="-366.5" font-family="Helvetica,sans-Serif" font-size="10.00">&#45;</text>
<text text-anchor="start" x="17" y="-366.5" font-family="Helvetica,sans-Serif" font-size="10.00">auth</text>
<text text-anchor="start" x="6.5" y="-351.5" font-family="Helvetica,sans-Serif" font-size="10.00">&#45;</text>
<text text-anchor="start" x="17" y="-351.5" font-family="Helvetica,sans-Serif" font-size="10.00">booksAPI</text>
<text text-anchor="start" x="6.5" y="-336.5" font-family="Helvetica,sans-Serif" font-size="10.00">&#45;</text>
<text text-anchor="start" x="17" y="-336.5" font-family="Helvetica,sans-Serif" font-size="10.00">ai</text>
<text text-anchor="start" x="6.5" y="-321.5" font-family="Helvetica,sans-Serif" font-size="10.00">&#45;</text>
<text text-anchor="start" x="17" y="-321.5" font-family="Helvetica,sans-Serif" font-size="10.00">uiMaster</text>
<text text-anchor="start" x="6.5" y="-306.5" font-family="Helvetica,sans-Serif" font-size="10.00">&#45;</text>
<text text-anchor="start" x="17" y="-306.5" font-family="Helvetica,sans-Serif" font-size="10.00">search</text>
<text text-anchor="start" x="6.5" y="-291.5" font-family="Helvetica,sans-Serif" font-size="10.00">&#45;</text>
<text text-anchor="start" x="17" y="-291.5" font-family="Helvetica,sans-Serif" font-size="10.00">searchView</text>
<text text-anchor="start" x="6.5" y="-276.5" font-family="Helvetica,sans-Serif" font-size="10.00">&#45;</text>
<text text-anchor="start" x="17" y="-276.5" font-family="Helvetica,sans-Serif" font-size="10.00">timeSpentReadingTextView</text>
<text text-anchor="start" x="6.5" y="-261.5" font-family="Helvetica,sans-Serif" font-size="10.00">&#45;</text>
<text text-anchor="start" x="17" y="-261.5" font-family="Helvetica,sans-Serif" font-size="10.00">goToStarting</text>
<text text-anchor="start" x="6.5" y="-246.5" font-family="Helvetica,sans-Serif" font-size="10.00">&#45;</text>
<text text-anchor="start" x="17" y="-246.5" font-family="Helvetica,sans-Serif" font-size="10.00">logedindUser</text>
<text text-anchor="start" x="6.5" y="-231.5" font-family="Helvetica,sans-Serif" font-size="10.00">&#45;</text>
<text text-anchor="start" x="17" y="-231.5" font-family="Helvetica,sans-Serif" font-size="10.00">handler</text>
<text text-anchor="start" x="6.5" y="-216.5" font-family="Helvetica,sans-Serif" font-size="10.00">&#45;</text>
<text text-anchor="start" x="17" y="-216.5" font-family="Helvetica,sans-Serif" font-size="10.00">loadingOverlay</text>
<text text-anchor="start" x="6.5" y="-201.5" font-family="Helvetica,sans-Serif" font-size="10.00">&#45;</text>
<text text-anchor="start" x="17" y="-201.5" font-family="Helvetica,sans-Serif" font-size="10.00">REQUEST_CODE_POST_NOTIFICATIONS</text>
<text text-anchor="start" x="4" y="-186.5" font-family="Helvetica,sans-Serif" font-size="10.00">+</text>
<text text-anchor="start" x="17" y="-186.5" font-family="Helvetica,sans-Serif" font-size="10.00">handleSearch()</text>
<text text-anchor="start" x="4" y="-171.5" font-family="Helvetica,sans-Serif" font-size="10.00">+</text>
<text text-anchor="start" x="17" y="-171.5" font-family="Helvetica,sans-Serif" font-size="10.00">handleRegister()</text>
<text text-anchor="start" x="4" y="-156.5" font-family="Helvetica,sans-Serif" font-size="10.00">+</text>
<text text-anchor="start" x="17" y="-156.5" font-family="Helvetica,sans-Serif" font-size="10.00">handleLogin()</text>
<text text-anchor="start" x="4" y="-141.5" font-family="Helvetica,sans-Serif" font-size="10.00">+</text>
<text text-anchor="start" x="17" y="-141.5" font-family="Helvetica,sans-Serif" font-size="10.00">saveBook()</text>
<text text-anchor="start" x="4" y="-126.5" font-family="Helvetica,sans-Serif" font-size="10.00">+</text>
<text text-anchor="start" x="17" y="-126.5" font-family="Helvetica,sans-Serif" font-size="10.00">removeBook()</text>
<text text-anchor="start" x="4" y="-111.5" font-family="Helvetica,sans-Serif" font-size="10.00">+</text>
<text text-anchor="start" x="17" y="-111.5" font-family="Helvetica,sans-Serif" font-size="10.00">getUser()</text>
<text text-anchor="start" x="4" y="-96.5" font-family="Helvetica,sans-Serif" font-size="10.00">+</text>
<text text-anchor="start" x="17" y="-96.5" font-family="Helvetica,sans-Serif" font-size="10.00">onSuccess()</text>
<text text-anchor="start" x="4" y="-81.5" font-family="Helvetica,sans-Serif" font-size="10.00">+</text>
<text text-anchor="start" x="17" y="-81.5" font-family="Helvetica,sans-Serif" font-size="10.00">handleBookChange()</text>
<text text-anchor="start" x="4" y="-66.5" font-family="Helvetica,sans-Serif" font-size="10.00">+</text>
<text text-anchor="start" x="17" y="-66.5" font-family="Helvetica,sans-Serif" font-size="10.00">onFailure()</text>
<text text-anchor="start" x="4" y="-51.5" font-family="Helvetica,sans-Serif" font-size="10.00">+</text>
<text text-anchor="start" x="17" y="-51.5" font-family="Helvetica,sans-Serif" font-size="10.00">getDb()</text>
<text text-anchor="start" x="4" y="-36.5" font-family="Helvetica,sans-Serif" font-size="10.00">+</text>
<text text-anchor="start" x="17" y="-36.5" font-family="Helvetica,sans-Serif" font-size="10.00">setLoadingVisibility()</text>
<text text-anchor="start" x="4" y="-21.5" font-family="Helvetica,sans-Serif" font-size="10.00">#</text>
<text text-anchor="start" x="17" y="-21.5" font-family="Helvetica,sans-Serif" font-size="10.00">onCreate()</text>
<text text-anchor="start" x="6.5" y="-6.5" font-family="Helvetica,sans-Serif" font-size="10.00">&#45;</text>
<text text-anchor="start" x="17" y="-6.5" font-family="Helvetica,sans-Serif" font-size="10.00">showResponseDialog()</text>
<polygon fill="#666666" stroke="#666666" points="0,-406.5 0,-406.5 212,-406.5 212,-406.5 0,-406.5"/>
<polygon fill="#666666" stroke="#666666" points="0,-196.5 0,-196.5 15,-196.5 15,-196.5 0,-196.5"/>
<polygon fill="#666666" stroke="#666666" points="15,-196.5 15,-196.5 212,-196.5 212,-196.5 15,-196.5"/>
<polygon fill="none" stroke="#666666" points="0,0 0,-435 212,-435 212,0 0,0"/>
</a>
</g>
</g>
<!-- Node1&#45;&gt;Node2 -->
<g id="edge1_Node000001_Node000002" class="edge">
<title>Node1&#45;&gt;Node2</title>
<g id="a_edge1_Node000001_Node000002"><a xlink:title=" ">
<path fill="none" stroke="#63b8ff" d="M192.25,-461.42C189.5,-453.66 186.36,-444.82 182.95,-435.21"/>
<polygon fill="none" stroke="#63b8ff" points="189,-462.72 195.64,-470.97 195.6,-460.37 189,-462.72"/>
</a>
</g>
</g>
<!-- Node3 -->
<g id="Node000003" class="node">
<title>Node3</title>
<g id="a_Node000003"><a xlink:href="classcom_1_1example_1_1mybookshelf_1_1Search.html" target="_top" xlink:title=" ">
<polygon fill="white" stroke="transparent" points="376,-285 230,-285 230,-150 376,-150 376,-285"/>
<text text-anchor="start" x="235" y="-272.5" font-family="Helvetica,sans-Serif" font-size="10.00">com.example.mybookshelf.</text>
<text text-anchor="start" x="286" y="-261.5" font-family="Helvetica,sans-Serif" font-size="10.00">Search</text>
<text text-anchor="start" x="241" y="-246.5" font-family="Helvetica,sans-Serif" font-size="10.00">~</text>
<text text-anchor="start" x="261" y="-246.5" font-family="Helvetica,sans-Serif" font-size="10.00">api</text>
<text text-anchor="start" x="241" y="-231.5" font-family="Helvetica,sans-Serif" font-size="10.00">~</text>
<text text-anchor="start" x="261" y="-231.5" font-family="Helvetica,sans-Serif" font-size="10.00">uiMaster</text>
<text text-anchor="start" x="241" y="-216.5" font-family="Helvetica,sans-Serif" font-size="10.00">~</text>
<text text-anchor="start" x="261" y="-216.5" font-family="Helvetica,sans-Serif" font-size="10.00">executorService</text>
<text text-anchor="start" x="241" y="-201.5" font-family="Helvetica,sans-Serif" font-size="10.00">~</text>
<text text-anchor="start" x="261" y="-201.5" font-family="Helvetica,sans-Serif" font-size="10.00">mainThreadHandler</text>
<text text-anchor="start" x="241" y="-186.5" font-family="Helvetica,sans-Serif" font-size="10.00">+</text>
<text text-anchor="start" x="261" y="-186.5" font-family="Helvetica,sans-Serif" font-size="10.00">Search()</text>
<text text-anchor="start" x="241" y="-171.5" font-family="Helvetica,sans-Serif" font-size="10.00">+</text>
<text text-anchor="start" x="261" y="-171.5" font-family="Helvetica,sans-Serif" font-size="10.00">searchByName()</text>
<text text-anchor="start" x="241" y="-156.5" font-family="Helvetica,sans-Serif" font-size="10.00">#</text>
<text text-anchor="start" x="261" y="-156.5" font-family="Helvetica,sans-Serif" font-size="10.00">onDestroy()</text>
<polygon fill="#666666" stroke="#666666" points="230,-256.5 230,-256.5 376,-256.5 376,-256.5 230,-256.5"/>
<polygon fill="#666666" stroke="#666666" points="230,-196.5 230,-196.5 259,-196.5 259,-196.5 230,-196.5"/>
<polygon fill="#666666" stroke="#666666" points="259,-196.5 259,-196.5 376,-196.5 376,-196.5 259,-196.5"/>
<polygon fill="none" stroke="#666666" points="230,-150 230,-285 376,-285 376,-150 230,-150"/>
</a>
</g>
</g>
<!-- Node1&#45;&gt;Node3 -->
<g id="edge2_Node000001_Node000003" class="edge">
<title>Node1&#45;&gt;Node3</title>
<g id="a_edge2_Node000001_Node000003"><a xlink:title=" ">
<path fill="none" stroke="#63b8ff" d="M215.85,-461.47C231.42,-418.07 259.12,-340.83 279.12,-285.07"/>
<polygon fill="none" stroke="#63b8ff" points="212.52,-460.37 212.44,-470.97 219.11,-462.74 212.52,-460.37"/>
</a>
</g>
</g>
</g>
</svg>

<g id="navigator" transform="translate(0 0)" fill="#404254">
  <rect fill="#f2f5e9" fill-opacity="0.5" stroke="#606060" stroke-width=".5" x="0" y="0" width="60" height="60"/>
  <use id="zoomplus" xlink:href="#zoomPlus" x="17" y="9" onmousedown="handleZoom(evt,'in')"/>
  <use id="zoomminus" xlink:href="#zoomMin" x="42" y="9" onmousedown="handleZoom(evt,'out')"/>
  <use id="reset" xlink:href="#resetDef" x="30" y="36" onmousedown="handleReset()"/>
   <use id="arrowup" xlink:href="#arrowUp" x="0" y="0" onmousedown="handlePan(0,-1)"/>
  <use id="arrowright" xlink:href="#arrowRight" x="0" y="0" onmousedown="handlePan(1,0)"/>
  <use id="arrowdown" xlink:href="#arrowDown" x="0" y="0" onmousedown="handlePan(0,1)"/>
  <use id="arrowleft" xlink:href="#arrowLeft" x="0" y="0" onmousedown="handlePan(-1,0)"/>
</g>
<svg viewBox="0 0 15 15" width="100%" height="30px" preserveAspectRatio="xMaxYMin meet">
 <g id="arrow_out" transform="scale(0.3 0.3)">
  <a xlink:href="classAppCompatActivity__inherit__graph_org.svg" target="_base">
   <rect id="button" ry="5" rx="5" y="6" x="6" height="38" width="38"
        fill="#f2f5e9" fill-opacity="0.5" stroke="#606060" stroke-width="1.0"/>
   <path id="arrow"
     d="M 11.500037,31.436501 C 11.940474,20.09759 22.043105,11.32322 32.158766,21.979434 L 37.068811,17.246167 C 37.068811,17.246167 37.088388,32 37.088388,32 L 22.160133,31.978069 C 22.160133,31.978069 26.997745,27.140456 26.997745,27.140456 C 18.528582,18.264221 13.291696,25.230495 11.500037,31.436501 z"
     style="fill:#404040;"/>
  </a>
 </g>
</svg>

<style type='text/css'>
<![CDATA[
[data-mouse-over-selected='false'] { opacity: 0.7; }
[data-mouse-over-selected='true']  { opacity: 1.0; }
]]>
</style>
<script type="application/ecmascript"><![CDATA[
document.addEventListener('DOMContentLoaded', (event) => {
  highlightEdges();
  highlightAdjacentNodes();
});
]]></script>
</svg>
