<?xml version="1.0" encoding="UTF-8" standalone="no"?>
<!DOCTYPE svg PUBLIC "-//W3C//DTD SVG 1.1//EN"
 "http://www.w3.org/Graphics/SVG/1.1/DTD/svg11.dtd">
<!-- Generated by graphviz version 2.43.0 (0)
 -->
<!-- Title: com.example.mybookshelf.dataClass.User.getUid Pages: 1 -->
<svg width="414pt" height="134pt"
 viewBox="0.00 0.00 414.00 134.00" xmlns="http://www.w3.org/2000/svg" xmlns:xlink="http://www.w3.org/1999/xlink">
<g id="graph0" class="graph" transform="scale(1 1) rotate(0) translate(4 130)">
<title>com.example.mybookshelf.dataClass.User.getUid</title>
<!-- Node1 -->
<g id="Node000001" class="node">
<title>Node1</title>
<g id="a_Node000001"><a xlink:title=" ">
<polygon fill="#999999" stroke="#666666" points="406,-78 232,-78 232,-48 406,-48 406,-78"/>
<text text-anchor="start" x="240" y="-66" font-family="Helvetica,sans-Serif" font-size="10.00">com.example.mybookshelf.data</text>
<text text-anchor="middle" x="319" y="-55" font-family="Helvetica,sans-Serif" font-size="10.00">Class.User.getUid</text>
</a>
</g>
</g>
<!-- Node2 -->
<g id="Node000002" class="node">
<title>Node2</title>
<g id="a_Node000002"><a xlink:href="classcom_1_1example_1_1mybookshelf_1_1DataBaseConnection.html#a3b22d6106c92d008ed8b05c10892f0b7" target="_top" xlink:title=" ">
<polygon fill="white" stroke="#666666" points="179,-126 17,-126 17,-96 179,-96 179,-126"/>
<text text-anchor="start" x="25" y="-114" font-family="Helvetica,sans-Serif" font-size="10.00">com.example.mybookshelf.</text>
<text text-anchor="middle" x="98" y="-103" font-family="Helvetica,sans-Serif" font-size="10.00">DataBaseConnection.addGoal</text>
</a>
</g>
</g>
<!-- Node1&#45;&gt;Node2 -->
<g id="edge1_Node000001_Node000002" class="edge">
<title>Node1&#45;&gt;Node2</title>
<g id="a_edge1_Node000001_Node000002"><a xlink:title=" ">
<path fill="none" stroke="#63b8ff" d="M239.37,-80.23C215.85,-85.39 190.26,-91 167.45,-96"/>
<polygon fill="#63b8ff" stroke="#63b8ff" points="240.29,-83.62 249.31,-78.06 238.79,-76.78 240.29,-83.62"/>
</a>
</g>
</g>
<!-- Node3 -->
<g id="Node000003" class="node">
<title>Node3</title>
<g id="a_Node000003"><a xlink:href="classcom_1_1example_1_1mybookshelf_1_1DataBaseConnection.html#ae83460b1effd3376ba0caca7220f7ced" target="_top" xlink:title=" ">
<polygon fill="white" stroke="#666666" points="196,-78 0,-78 0,-48 196,-48 196,-78"/>
<text text-anchor="start" x="8" y="-66" font-family="Helvetica,sans-Serif" font-size="10.00">com.example.mybookshelf.</text>
<text text-anchor="middle" x="98" y="-55" font-family="Helvetica,sans-Serif" font-size="10.00">DataBaseConnection.addNotification</text>
</a>
</g>
</g>
<!-- Node1&#45;&gt;Node3 -->
<g id="edge2_Node000001_Node000003" class="edge">
<title>Node1&#45;&gt;Node3</title>
<g id="a_edge2_Node000001_Node000003"><a xlink:title=" ">
<path fill="none" stroke="#63b8ff" d="M221.51,-63C213.05,-63 204.48,-63 196.02,-63"/>
<polygon fill="#63b8ff" stroke="#63b8ff" points="221.76,-66.5 231.76,-63 221.76,-59.5 221.76,-66.5"/>
</a>
</g>
</g>
<!-- Node4 -->
<g id="Node000004" class="node">
<title>Node4</title>
<g id="a_Node000004"><a xlink:href="classcom_1_1example_1_1mybookshelf_1_1dataClass_1_1User.html#afb442e89bbb66fadad2986d9229014b0" target="_top" xlink:title=" ">
<polygon fill="white" stroke="#666666" points="185,-30 11,-30 11,0 185,0 185,-30"/>
<text text-anchor="start" x="19" y="-18" font-family="Helvetica,sans-Serif" font-size="10.00">com.example.mybookshelf.data</text>
<text text-anchor="middle" x="98" y="-7" font-family="Helvetica,sans-Serif" font-size="10.00">Class.User.removeBook</text>
</a>
</g>
</g>
<!-- Node1&#45;&gt;Node4 -->
<g id="edge3_Node000001_Node000004" class="edge">
<title>Node1&#45;&gt;Node4</title>
<g id="a_edge3_Node000001_Node000004"><a xlink:title=" ">
<path fill="none" stroke="#63b8ff" d="M239.37,-45.77C215.85,-40.61 190.26,-35 167.45,-30"/>
<polygon fill="#63b8ff" stroke="#63b8ff" points="238.79,-49.22 249.31,-47.94 240.29,-42.38 238.79,-49.22"/>
</a>
</g>
</g>
</g>
</svg>
