<?xml version="1.0" encoding="UTF-8" standalone="no"?>
<!DOCTYPE svg PUBLIC "-//W3C//DTD SVG 1.1//EN"
 "http://www.w3.org/Graphics/SVG/1.1/DTD/svg11.dtd">
<!-- Generated by graphviz version 2.43.0 (0)
 -->
<!-- Title: com.example.mybookshelf.dataClass.Book.getAuthor Pages: 1 -->
<svg width="1866pt" height="250pt"
 viewBox="0.00 0.00 1866.00 249.50" xmlns="http://www.w3.org/2000/svg" xmlns:xlink="http://www.w3.org/1999/xlink">
<g id="graph0" class="graph" transform="scale(1 1) rotate(0) translate(4 245.5)">
<title>com.example.mybookshelf.dataClass.Book.getAuthor</title>
<!-- Node1 -->
<g id="Node000001" class="node">
<title>Node1</title>
<g id="a_Node000001"><a xlink:title=" ">
<polygon fill="#999999" stroke="#666666" points="1858,-165 1684,-165 1684,-135 1858,-135 1858,-165"/>
<text text-anchor="start" x="1692" y="-153" font-family="Helvetica,sans-Serif" font-size="10.00">com.example.mybookshelf.data</text>
<text text-anchor="middle" x="1771" y="-142" font-family="Helvetica,sans-Serif" font-size="10.00">Class.Book.getAuthor</text>
</a>
</g>
</g>
<!-- Node2 -->
<g id="Node000002" class="node">
<title>Node2</title>
<g id="a_Node000002"><a xlink:href="classcom_1_1example_1_1mybookshelf_1_1LayoutManager_1_1CostumeListAdapter.html#aecf267c9d5fc023c90187a13bc4ebe2e" target="_top" xlink:title=" ">
<polygon fill="white" stroke="#666666" points="1648,-241.5 1431,-241.5 1431,-200.5 1648,-200.5 1648,-241.5"/>
<text text-anchor="start" x="1439" y="-229.5" font-family="Helvetica,sans-Serif" font-size="10.00">com.example.mybookshelf.</text>
<text text-anchor="start" x="1439" y="-218.5" font-family="Helvetica,sans-Serif" font-size="10.00">LayoutManager.CostumeListAdapter.bind</text>
<text text-anchor="middle" x="1539.5" y="-207.5" font-family="Helvetica,sans-Serif" font-size="10.00">BookData</text>
</a>
</g>
</g>
<!-- Node1&#45;&gt;Node2 -->
<g id="edge1_Node000001_Node000002" class="edge">
<title>Node1&#45;&gt;Node2</title>
<g id="a_edge1_Node000001_Node000002"><a xlink:title=" ">
<path fill="none" stroke="#63b8ff" d="M1711.69,-168.04C1679.76,-177.92 1640.07,-190.2 1606.95,-200.44"/>
<polygon fill="#63b8ff" stroke="#63b8ff" points="1712.81,-171.36 1721.33,-165.06 1710.74,-164.67 1712.81,-171.36"/>
</a>
</g>
</g>
<!-- Node4 -->
<g id="Node000004" class="node">
<title>Node4</title>
<g id="a_Node000004"><a xlink:href="classcom_1_1example_1_1mybookshelf_1_1UIMaster.html#a1533d0ed2384f2ec729cfcec7bd9a25f" target="_top" xlink:title=" ">
<polygon fill="white" stroke="#666666" points="152,-130 0,-130 0,-100 152,-100 152,-130"/>
<text text-anchor="start" x="8" y="-118" font-family="Helvetica,sans-Serif" font-size="10.00">com.example.mybookshelf.</text>
<text text-anchor="middle" x="76" y="-107" font-family="Helvetica,sans-Serif" font-size="10.00">UIMaster.createBookBox</text>
</a>
</g>
</g>
<!-- Node1&#45;&gt;Node4 -->
<g id="edge3_Node000001_Node000004" class="edge">
<title>Node1&#45;&gt;Node4</title>
<g id="a_edge3_Node000001_Node000004"><a xlink:title=" ">
<path fill="none" stroke="#63b8ff" d="M1673.67,-157.04C1577.18,-163.47 1424.39,-172 1292,-172 1292,-172 1292,-172 453,-172 340.92,-172 212.16,-146.94 138.12,-130.05"/>
<polygon fill="#63b8ff" stroke="#63b8ff" points="1673.96,-160.53 1683.7,-156.36 1673.49,-153.54 1673.96,-160.53"/>
</a>
</g>
</g>
<!-- Node5 -->
<g id="Node000005" class="node">
<title>Node5</title>
<g id="a_Node000005"><a xlink:href="classcom_1_1example_1_1mybookshelf_1_1UIMaster.html#a39a8f40aa163994c415f165d94ee47fd" target="_top" xlink:title=" ">
<polygon fill="white" stroke="#666666" points="1615.5,-144 1463.5,-144 1463.5,-114 1615.5,-114 1615.5,-144"/>
<text text-anchor="start" x="1471.5" y="-132" font-family="Helvetica,sans-Serif" font-size="10.00">com.example.mybookshelf.</text>
<text text-anchor="middle" x="1539.5" y="-121" font-family="Helvetica,sans-Serif" font-size="10.00">UIMaster.filterBooks</text>
</a>
</g>
</g>
<!-- Node1&#45;&gt;Node5 -->
<g id="edge4_Node000001_Node000005" class="edge">
<title>Node1&#45;&gt;Node5</title>
<g id="a_edge4_Node000001_Node000005"><a xlink:title=" ">
<path fill="none" stroke="#63b8ff" d="M1673.83,-141.2C1654.44,-139.43 1634.33,-137.59 1615.79,-135.89"/>
<polygon fill="#63b8ff" stroke="#63b8ff" points="1673.61,-144.69 1683.89,-142.12 1674.25,-137.72 1673.61,-144.69"/>
</a>
</g>
</g>
<!-- Node12 -->
<g id="Node000012" class="node">
<title>Node12</title>
<g id="a_Node000012"><a xlink:href="classcom_1_1example_1_1mybookshelf_1_1MainActivity.html#ab1625f7432f6fcc4f53a63d3b893065f" target="_top" xlink:title=" ">
<polygon fill="white" stroke="#666666" points="1615.5,-96 1463.5,-96 1463.5,-66 1615.5,-66 1615.5,-96"/>
<text text-anchor="start" x="1471.5" y="-84" font-family="Helvetica,sans-Serif" font-size="10.00">com.example.mybookshelf.</text>
<text text-anchor="middle" x="1539.5" y="-73" font-family="Helvetica,sans-Serif" font-size="10.00">MainActivity.saveBook</text>
</a>
</g>
</g>
<!-- Node1&#45;&gt;Node12 -->
<g id="edge18_Node000001_Node000012" class="edge">
<title>Node1&#45;&gt;Node12</title>
<g id="a_edge18_Node000001_Node000012"><a xlink:title=" ">
<path fill="none" stroke="#63b8ff" d="M1723.71,-131.26C1701.12,-122.55 1673.39,-112.48 1648,-105 1637.09,-101.78 1625.44,-98.77 1613.99,-96.03"/>
<polygon fill="#63b8ff" stroke="#63b8ff" points="1722.47,-134.54 1733.06,-134.91 1725.01,-128.01 1722.47,-134.54"/>
</a>
</g>
</g>
<!-- Node3 -->
<g id="Node000003" class="node">
<title>Node3</title>
<g id="a_Node000003"><a xlink:href="classcom_1_1example_1_1mybookshelf_1_1LayoutManager_1_1CostumeListAdapter.html#a6195566266811486050ad2962a7a161f" target="_top" xlink:title=" ">
<polygon fill="white" stroke="#666666" points="1395,-241.5 1187,-241.5 1187,-200.5 1395,-200.5 1395,-241.5"/>
<text text-anchor="start" x="1195" y="-229.5" font-family="Helvetica,sans-Serif" font-size="10.00">com.example.mybookshelf.</text>
<text text-anchor="start" x="1195" y="-218.5" font-family="Helvetica,sans-Serif" font-size="10.00">LayoutManager.CostumeListAdapter.on</text>
<text text-anchor="middle" x="1291" y="-207.5" font-family="Helvetica,sans-Serif" font-size="10.00">BindViewHolder</text>
</a>
</g>
</g>
<!-- Node2&#45;&gt;Node3 -->
<g id="edge2_Node000002_Node000003" class="edge">
<title>Node2&#45;&gt;Node3</title>
<g id="a_edge2_Node000002_Node000003"><a xlink:title=" ">
<path fill="none" stroke="#63b8ff" d="M1420.48,-221C1412.05,-221 1403.58,-221 1395.24,-221"/>
<polygon fill="#63b8ff" stroke="#63b8ff" points="1420.74,-224.5 1430.74,-221 1420.74,-217.5 1420.74,-224.5"/>
</a>
</g>
</g>
<!-- Node6 -->
<g id="Node000006" class="node">
<title>Node6</title>
<g id="a_Node000006"><a xlink:href="classcom_1_1example_1_1mybookshelf_1_1UIMaster.html#a4636b546c38ace5aedccfd989edc0bb1" target="_top" xlink:title=" ">
<polygon fill="white" stroke="#666666" points="1367,-120 1215,-120 1215,-90 1367,-90 1367,-120"/>
<text text-anchor="start" x="1223" y="-108" font-family="Helvetica,sans-Serif" font-size="10.00">com.example.mybookshelf.</text>
<text text-anchor="middle" x="1291" y="-97" font-family="Helvetica,sans-Serif" font-size="10.00">UIMaster.handleListSearch</text>
</a>
</g>
</g>
<!-- Node5&#45;&gt;Node6 -->
<g id="edge5_Node000005_Node000006" class="edge">
<title>Node5&#45;&gt;Node6</title>
<g id="a_edge5_Node000005_Node000006"><a xlink:title=" ">
<path fill="none" stroke="#63b8ff" d="M1453.06,-120.68C1425.15,-117.96 1394.37,-114.97 1367.26,-112.33"/>
<polygon fill="#63b8ff" stroke="#63b8ff" points="1452.91,-124.18 1463.2,-121.67 1453.59,-117.22 1452.91,-124.18"/>
</a>
</g>
</g>
<!-- Node7 -->
<g id="Node000007" class="node">
<title>Node7</title>
<g id="a_Node000007"><a xlink:href="classcom_1_1example_1_1mybookshelf_1_1UIMaster.html#aa6aad8404432bdaf23db9b41e99a6ed5" target="_top" xlink:title=" ">
<polygon fill="white" stroke="#666666" points="1151,-95 970,-95 970,-65 1151,-65 1151,-95"/>
<text text-anchor="start" x="978" y="-83" font-family="Helvetica,sans-Serif" font-size="10.00">com.example.mybookshelf.</text>
<text text-anchor="middle" x="1060.5" y="-72" font-family="Helvetica,sans-Serif" font-size="10.00">UIMaster.setupNavigationButtons</text>
</a>
</g>
</g>
<!-- Node6&#45;&gt;Node7 -->
<g id="edge6_Node000006_Node000007" class="edge">
<title>Node6&#45;&gt;Node7</title>
<g id="a_edge6_Node000006_Node000007"><a xlink:title=" ">
<path fill="none" stroke="#63b8ff" d="M1204.74,-95.67C1187.33,-93.77 1168.96,-91.76 1151.4,-89.84"/>
<polygon fill="#63b8ff" stroke="#63b8ff" points="1204.54,-99.17 1214.86,-96.78 1205.3,-92.21 1204.54,-99.17"/>
</a>
</g>
</g>
<!-- Node8 -->
<g id="Node000008" class="node">
<title>Node8</title>
<g id="a_Node000008"><a xlink:href="classcom_1_1example_1_1mybookshelf_1_1UIMaster.html#ad609d5e0b54e87afcb60aed6c66a792e" target="_top" xlink:title=" ">
<polygon fill="white" stroke="#666666" points="934,-116 756,-116 756,-86 934,-86 934,-116"/>
<text text-anchor="start" x="764" y="-104" font-family="Helvetica,sans-Serif" font-size="10.00">com.example.mybookshelf.</text>
<text text-anchor="middle" x="845" y="-93" font-family="Helvetica,sans-Serif" font-size="10.00">UIMaster.navigateToStartingPage</text>
</a>
</g>
</g>
<!-- Node7&#45;&gt;Node8 -->
<g id="edge7_Node000007_Node000008" class="edge">
<title>Node7&#45;&gt;Node8</title>
<g id="a_edge7_Node000007_Node000008"><a xlink:title=" ">
<path fill="none" stroke="#63b8ff" d="M959.82,-89.8C951.2,-90.65 942.53,-91.51 934.02,-92.34"/>
<polygon fill="#63b8ff" stroke="#63b8ff" points="960.28,-93.28 969.88,-88.81 959.59,-86.31 960.28,-93.28"/>
</a>
</g>
</g>
<!-- Node9 -->
<g id="Node000009" class="node">
<title>Node9</title>
<g id="a_Node000009"><a xlink:href="classcom_1_1example_1_1mybookshelf_1_1UIMaster.html#ac2a608fcf86d3dbe14b4684dbbaf1431" target="_top" xlink:title=" ">
<polygon fill="white" stroke="#666666" points="340,-109 188,-109 188,-79 340,-79 340,-109"/>
<text text-anchor="start" x="196" y="-97" font-family="Helvetica,sans-Serif" font-size="10.00">com.example.mybookshelf.</text>
<text text-anchor="middle" x="264" y="-86" font-family="Helvetica,sans-Serif" font-size="10.00">UIMaster.navigateToDetails</text>
</a>
</g>
</g>
<!-- Node8&#45;&gt;Node9 -->
<g id="edge8_Node000008_Node000009" class="edge">
<title>Node8&#45;&gt;Node9</title>
<g id="a_edge8_Node000008_Node000009"><a xlink:title=" ">
<path fill="none" stroke="#63b8ff" d="M745.57,-99.81C630.9,-98.42 443.97,-96.16 340.28,-94.91"/>
<polygon fill="#63b8ff" stroke="#63b8ff" points="745.71,-103.31 755.75,-99.93 745.79,-96.31 745.71,-103.31"/>
</a>
</g>
</g>
<!-- Node10 -->
<g id="Node000010" class="node">
<title>Node10</title>
<g id="a_Node000010"><a xlink:href="classcom_1_1example_1_1mybookshelf_1_1UIMaster.html#ad30bff41c8ec833af2293c0b6c8b47b2" target="_top" xlink:title=" ">
<polygon fill="white" stroke="#666666" points="720,-30 568,-30 568,0 720,0 720,-30"/>
<text text-anchor="start" x="576" y="-18" font-family="Helvetica,sans-Serif" font-size="10.00">com.example.mybookshelf.</text>
<text text-anchor="middle" x="644" y="-7" font-family="Helvetica,sans-Serif" font-size="10.00">UIMaster.navigateToGoals</text>
</a>
</g>
</g>
<!-- Node8&#45;&gt;Node10 -->
<g id="edge10_Node000008_Node000010" class="edge">
<title>Node8&#45;&gt;Node10</title>
<g id="a_edge10_Node000008_Node000010"><a xlink:title=" ">
<path fill="none" stroke="#63b8ff" d="M799.55,-81.79C763.37,-66.16 713.04,-44.4 679.77,-30.03"/>
<polygon fill="#63b8ff" stroke="#63b8ff" points="798.31,-85.07 808.88,-85.82 801.09,-78.64 798.31,-85.07"/>
</a>
</g>
</g>
<!-- Node11 -->
<g id="Node000011" class="node">
<title>Node11</title>
<g id="a_Node000011"><a xlink:href="classcom_1_1example_1_1mybookshelf_1_1UIMaster.html#ac859db60f9068e6a87b633ef697d4d0f" target="_top" xlink:title=" ">
<polygon fill="white" stroke="#666666" points="532,-73 376,-73 376,-43 532,-43 532,-73"/>
<text text-anchor="start" x="384" y="-61" font-family="Helvetica,sans-Serif" font-size="10.00">com.example.mybookshelf.</text>
<text text-anchor="middle" x="454" y="-50" font-family="Helvetica,sans-Serif" font-size="10.00">UIMaster.navigateToSettings</text>
</a>
</g>
</g>
<!-- Node8&#45;&gt;Node11 -->
<g id="edge17_Node000008_Node000011" class="edge">
<title>Node8&#45;&gt;Node11</title>
<g id="a_edge17_Node000008_Node000011"><a xlink:title=" ">
<path fill="none" stroke="#63b8ff" d="M745.68,-91.12C692.97,-85.71 626.91,-78.74 568,-72 556.41,-70.67 544.16,-69.21 532.17,-67.76"/>
<polygon fill="#63b8ff" stroke="#63b8ff" points="745.4,-94.61 755.7,-92.14 746.11,-87.64 745.4,-94.61"/>
</a>
</g>
</g>
<!-- Node9&#45;&gt;Node4 -->
<g id="edge9_Node000009_Node000004" class="edge">
<title>Node9&#45;&gt;Node4</title>
<g id="a_edge9_Node000009_Node000004"><a xlink:title=" ">
<path fill="none" stroke="#63b8ff" d="M177.85,-103.61C169.26,-104.58 160.57,-105.56 152.1,-106.52"/>
<polygon fill="#63b8ff" stroke="#63b8ff" points="178.34,-107.08 187.88,-102.48 177.55,-100.13 178.34,-107.08"/>
</a>
</g>
</g>
<!-- Node10&#45;&gt;Node7 -->
<g id="edge16_Node000010_Node000007" class="edge">
<title>Node10&#45;&gt;Node7</title>
<g id="a_edge16_Node000010_Node000007"><a xlink:title=" ">
<path fill="none" stroke="#63b8ff" d="M730.28,-19.53C788.13,-23.58 866.14,-30.97 934,-44 961.05,-49.19 990.69,-57.57 1014.37,-64.93"/>
<polygon fill="#63b8ff" stroke="#63b8ff" points="730.29,-16.02 720.08,-18.83 729.82,-23 730.29,-16.02"/>
</a>
</g>
</g>
<!-- Node10&#45;&gt;Node9 -->
<g id="edge11_Node000010_Node000009" class="edge">
<title>Node10&#45;&gt;Node9</title>
<g id="a_edge11_Node000010_Node000009"><a xlink:title=" ">
<path fill="none" stroke="#63b8ff" d="M557.77,-11.98C504.53,-12.31 435.1,-16.79 376,-34 342.56,-43.74 307.84,-64.52 286.33,-78.88"/>
<polygon fill="#63b8ff" stroke="#63b8ff" points="557.86,-15.48 567.85,-11.97 557.85,-8.48 557.86,-15.48"/>
</a>
</g>
</g>
<!-- Node10&#45;&gt;Node11 -->
<g id="edge12_Node000010_Node000011" class="edge">
<title>Node10&#45;&gt;Node11</title>
<g id="a_edge12_Node000010_Node000011"><a xlink:title=" ">
<path fill="none" stroke="#63b8ff" d="M558.03,-27.71C536.44,-32.52 514.21,-37.95 495.95,-42.95"/>
<polygon fill="#63b8ff" stroke="#63b8ff" points="558.87,-31.11 567.89,-25.55 557.37,-24.27 558.87,-31.11"/>
</a>
</g>
</g>
<!-- Node11&#45;&gt;Node7 -->
<g id="edge15_Node000011_Node000007" class="edge">
<title>Node11&#45;&gt;Node7</title>
<g id="a_edge15_Node000011_Node000007"><a xlink:title=" ">
<path fill="none" stroke="#63b8ff" d="M542.55,-61.19C656.61,-65.34 854.97,-72.56 969.98,-76.74"/>
<polygon fill="#63b8ff" stroke="#63b8ff" points="542.58,-57.69 532.46,-60.82 542.33,-64.68 542.58,-57.69"/>
</a>
</g>
</g>
<!-- Node11&#45;&gt;Node9 -->
<g id="edge13_Node000011_Node000009" class="edge">
<title>Node11&#45;&gt;Node9</title>
<g id="a_edge13_Node000011_Node000009"><a xlink:title=" ">
<path fill="none" stroke="#63b8ff" d="M365.91,-74.68C357.28,-76.33 348.56,-78 340.07,-79.63"/>
<polygon fill="#63b8ff" stroke="#63b8ff" points="366.83,-78.06 375.99,-72.75 365.51,-71.19 366.83,-78.06"/>
</a>
</g>
</g>
<!-- Node11&#45;&gt;Node10 -->
<g id="edge14_Node000011_Node000010" class="edge">
<title>Node11&#45;&gt;Node10</title>
<g id="a_edge14_Node000011_Node000010"><a xlink:title=" ">
<path fill="none" stroke="#63b8ff" d="M542.02,-44.83C563.02,-40.13 584.49,-34.86 602.21,-30.01"/>
<polygon fill="#63b8ff" stroke="#63b8ff" points="541.1,-41.45 532.09,-47.02 542.61,-48.28 541.1,-41.45"/>
</a>
</g>
</g>
</g>
</svg>
