<?xml version="1.0" encoding="UTF-8" standalone="no"?>
<!DOCTYPE svg PUBLIC "-//W3C//DTD SVG 1.1//EN"
 "http://www.w3.org/Graphics/SVG/1.1/DTD/svg11.dtd">
<!-- Generated by graphviz version 2.43.0 (0)
 -->
<!-- Title: com.example.mybookshelf.BookRecommendationFlow.showBookBasedStep1 Pages: 1 -->
<!--zoomable 799 -->

<svg id="main" version="1.1" xmlns="http://www.w3.org/2000/svg" xmlns:xlink="http://www.w3.org/1999/xlink" xml:space="preserve" onload="init(evt)">

<style type="text/css"><![CDATA[
.node, .edge {opacity: 0.7;}
.node.selected, .edge.selected {opacity: 1;}
.edge:hover path { stroke: red; }
.edge:hover polygon { stroke: red; fill: red; }
]]></style>

<defs>
  <circle id="rim" cx="0" cy="0" r="7"/>
  <circle id="rim2" cx="0" cy="0" r="3.5"/>
  <g id="zoomPlus">
    <use xlink:href="#rim" fill="#404040"><set attributeName="fill" to="#808080" begin="zoomplus.mouseover" end="zoomplus.mouseout"/></use>
    <path d="M-4,0h8M0,-4v8" fill="none" stroke="white" stroke-width="1.5" pointer-events="none"/>
  </g>
  <g id="zoomMin">
    <use xlink:href="#rim" fill="#404040"><set attributeName="fill" to="#808080" begin="zoomminus.mouseover" end="zoomminus.mouseout"/></use>
    <path d="M-4,0h8" fill="none" stroke="white" stroke-width="1.5" pointer-events="none"/>
  </g>
  <g id="arrowUp" transform="translate(30 24)">
    <use xlink:href="#rim"/>
    <path pointer-events="none" fill="none" stroke="white" stroke-width="1.5" d="M0,-3.0v7 M-2.5,-0.5L0,-3.0L2.5,-0.5"/>
  </g>
  <g id="arrowRight" transform="rotate(90) translate(36 -43)">
    <use xlink:href="#rim"/>
    <path pointer-events="none" fill="none" stroke="white" stroke-width="1.5" d="M0,-3.0v7 M-2.5,-0.5L0,-3.0L2.5,-0.5"/>
  </g>
  <g id="arrowDown" transform="rotate(180) translate(-30 -48)">
    <use xlink:href="#rim"/>
    <path pointer-events="none" fill="none" stroke="white" stroke-width="1.5" d="M0,-3.0v7 M-2.5,-0.5L0,-3.0L2.5,-0.5"/>
  </g>
  <g id="arrowLeft" transform="rotate(270) translate(-36 17)">
    <use xlink:href="#rim"/>
    <path pointer-events="none" fill="none" stroke="white" stroke-width="1.5" d="M0,-3.0v7 M-2.5,-0.5L0,-3.0L2.5,-0.5"/>
  </g>
  <g id="resetDef">
    <use xlink:href="#rim2" fill="#404040"><set attributeName="fill" to="#808080" begin="reset.mouseover" end="reset.mouseout"/></use>
  </g>
</defs>
<script type="application/ecmascript">
var viewWidth = 3042;
var viewHeight = 799;
var sectionId = 'dynsection-14';
</script>
<script type="application/ecmascript" xlink:href="svg.min.js"/>
<svg id="graph" class="graph">
<g id="viewport">
<title>com.example.mybookshelf.BookRecommendationFlow.showBookBasedStep1</title>
<!-- Node1 -->
<g id="Node000001" class="node">
<title>Node1</title>
<g id="a_Node000001"><a xlink:title=" ">
<polygon fill="#999999" stroke="#666666" points="203,-738.64 0,-738.64 0,-697.64 203,-697.64 203,-738.64"/>
<text text-anchor="start" x="8" y="-726.64" font-family="Helvetica,sans-Serif" font-size="10.00">com.example.mybookshelf.</text>
<text text-anchor="start" x="8" y="-715.64" font-family="Helvetica,sans-Serif" font-size="10.00">BookRecommendationFlow.showBook</text>
<text text-anchor="middle" x="101.5" y="-704.64" font-family="Helvetica,sans-Serif" font-size="10.00">BasedStep1</text>
</a>
</g>
</g>
<!-- Node2 -->
<g id="Node000002" class="node">
<title>Node2</title>
<g id="a_Node000002"><a xlink:href="classcom_1_1example_1_1mybookshelf_1_1BookRecommendationFlow.html#a3855117e802e54923c308e0df6280c17" target="_top" xlink:title=" ">
<polygon fill="white" stroke="#666666" points="3034,-602.64 2840,-602.64 2840,-561.64 3034,-561.64 3034,-602.64"/>
<text text-anchor="start" x="2848" y="-590.64" font-family="Helvetica,sans-Serif" font-size="10.00">com.example.mybookshelf.</text>
<text text-anchor="start" x="2848" y="-579.64" font-family="Helvetica,sans-Serif" font-size="10.00">BookRecommendationFlow.addChat</text>
<text text-anchor="middle" x="2937" y="-568.64" font-family="Helvetica,sans-Serif" font-size="10.00">Message</text>
</a>
</g>
</g>
<!-- Node1&#45;&gt;Node2 -->
<g id="edge1_Node000001_Node000002" class="edge">
<title>Node1&#45;&gt;Node2</title>
<g id="a_edge1_Node000001_Node000002"><a xlink:title=" ">
<path fill="none" stroke="#63b8ff" d="M167.58,-738.67C190.02,-745.1 215.43,-751.68 239,-756.14 388.04,-784.36 426.81,-791.14 578.5,-791.14 578.5,-791.14 578.5,-791.14 2461.5,-791.14 2618.23,-791.14 2666.4,-782.19 2804,-707.14 2848.64,-682.79 2889.37,-639.59 2913.43,-610.9"/>
<polygon fill="#63b8ff" stroke="#63b8ff" points="2916.4,-612.8 2920.06,-602.86 2911,-608.35 2916.4,-612.8"/>
</a>
</g>
</g>
<!-- Node3 -->
<g id="Node000003" class="node">
<title>Node3</title>
<g id="a_Node000003"><a xlink:href="classcom_1_1example_1_1mybookshelf_1_1BookRecommendationFlow.html#a02b6d699653b58f244907bd10db53ab5" target="_top" xlink:title=" ">
<polygon fill="white" stroke="#666666" points="3029,-200.64 2845,-200.64 2845,-159.64 3029,-159.64 3029,-200.64"/>
<text text-anchor="start" x="2853" y="-188.64" font-family="Helvetica,sans-Serif" font-size="10.00">com.example.mybookshelf.</text>
<text text-anchor="start" x="2853" y="-177.64" font-family="Helvetica,sans-Serif" font-size="10.00">BookRecommendationFlow.create</text>
<text text-anchor="middle" x="2937" y="-166.64" font-family="Helvetica,sans-Serif" font-size="10.00">StyledGridButton</text>
</a>
</g>
</g>
<!-- Node1&#45;&gt;Node3 -->
<g id="edge2_Node000001_Node000003" class="edge">
<title>Node1&#45;&gt;Node3</title>
<g id="a_edge2_Node000001_Node000003"><a xlink:title=" ">
<path fill="none" stroke="#63b8ff" d="M105.74,-697.3C125.26,-580.19 237.88,-9.14 578.5,-9.14 578.5,-9.14 578.5,-9.14 2461.5,-9.14 2614.39,-9.14 2666.48,25.66 2804,-41.14 2854.42,-65.63 2895.64,-118.07 2917.94,-151.08"/>
<polygon fill="#63b8ff" stroke="#63b8ff" points="2915.02,-153.01 2923.45,-159.43 2920.86,-149.15 2915.02,-153.01"/>
</a>
</g>
</g>
<!-- Node4 -->
<g id="Node000004" class="node">
<title>Node4</title>
<g id="a_Node000004"><a xlink:href="classcom_1_1example_1_1mybookshelf_1_1BookRecommendationFlow.html#a5c657be258c13c85848c7b7115f8a0b5" target="_top" xlink:title=" ">
<polygon fill="white" stroke="#666666" points="442,-695.64 239,-695.64 239,-654.64 442,-654.64 442,-695.64"/>
<text text-anchor="start" x="247" y="-683.64" font-family="Helvetica,sans-Serif" font-size="10.00">com.example.mybookshelf.</text>
<text text-anchor="start" x="247" y="-672.64" font-family="Helvetica,sans-Serif" font-size="10.00">BookRecommendationFlow.showBook</text>
<text text-anchor="middle" x="340.5" y="-661.64" font-family="Helvetica,sans-Serif" font-size="10.00">BasedStep2</text>
</a>
</g>
</g>
<!-- Node1&#45;&gt;Node4 -->
<g id="edge3_Node000001_Node000004" class="edge">
<title>Node1&#45;&gt;Node4</title>
<g id="a_edge3_Node000001_Node000004"><a xlink:title=" ">
<path fill="none" stroke="#63b8ff" d="M203.01,-699.9C211.53,-698.36 220.18,-696.79 228.78,-695.23"/>
<polygon fill="#63b8ff" stroke="#63b8ff" points="229.62,-698.63 238.83,-693.4 228.37,-691.74 229.62,-698.63"/>
</a>
</g>
</g>
<!-- Node4&#45;&gt;Node2 -->
<g id="edge4_Node000004_Node000002" class="edge">
<title>Node4&#45;&gt;Node2</title>
<g id="a_edge4_Node000004_Node000002"><a xlink:title=" ">
<path fill="none" stroke="#63b8ff" d="M442.44,-688.9C536.09,-700.47 679.44,-715.14 804.5,-715.14 804.5,-715.14 804.5,-715.14 2461.5,-715.14 2615.03,-715.14 2660.27,-724.13 2804,-670.14 2841.69,-655.98 2879.38,-629.3 2904.77,-609.01"/>
<polygon fill="#63b8ff" stroke="#63b8ff" points="2907.02,-611.7 2912.57,-602.67 2902.61,-606.26 2907.02,-611.7"/>
</a>
</g>
</g>
<!-- Node4&#45;&gt;Node3 -->
<g id="edge5_Node000004_Node000003" class="edge">
<title>Node4&#45;&gt;Node3</title>
<g id="a_edge5_Node000004_Node000003"><a xlink:title=" ">
<path fill="none" stroke="#63b8ff" d="M345.74,-654.6C369.41,-546.37 495.32,-47.14 804.5,-47.14 804.5,-47.14 804.5,-47.14 2461.5,-47.14 2614.66,-47.14 2661.05,-30.16 2804,-85.14 2843.47,-100.32 2881.95,-130.26 2907.07,-152.49"/>
<polygon fill="#63b8ff" stroke="#63b8ff" points="2904.98,-155.31 2914.75,-159.41 2909.66,-150.11 2904.98,-155.31"/>
</a>
</g>
</g>
<!-- Node5 -->
<g id="Node000005" class="node">
<title>Node5</title>
<g id="a_Node000005"><a xlink:href="classcom_1_1example_1_1mybookshelf_1_1BookRecommendationFlow.html#aa95301256c7f5377d1bc432189483b3c" target="_top" xlink:title=" ">
<polygon fill="white" stroke="#666666" points="681,-667.64 478,-667.64 478,-626.64 681,-626.64 681,-667.64"/>
<text text-anchor="start" x="486" y="-655.64" font-family="Helvetica,sans-Serif" font-size="10.00">com.example.mybookshelf.</text>
<text text-anchor="start" x="486" y="-644.64" font-family="Helvetica,sans-Serif" font-size="10.00">BookRecommendationFlow.showBook</text>
<text text-anchor="middle" x="579.5" y="-633.64" font-family="Helvetica,sans-Serif" font-size="10.00">BasedStep3</text>
</a>
</g>
</g>
<!-- Node4&#45;&gt;Node5 -->
<g id="edge6_Node000004_Node000005" class="edge">
<title>Node4&#45;&gt;Node5</title>
<g id="a_edge6_Node000004_Node000005"><a xlink:title=" ">
<path fill="none" stroke="#63b8ff" d="M442.01,-663.26C450.53,-662.26 459.18,-661.23 467.78,-660.22"/>
<polygon fill="#63b8ff" stroke="#63b8ff" points="468.31,-663.68 477.83,-659.03 467.49,-656.73 468.31,-663.68"/>
</a>
</g>
</g>
<!-- Node5&#45;&gt;Node2 -->
<g id="edge7_Node000005_Node000002" class="edge">
<title>Node5&#45;&gt;Node2</title>
<g id="a_edge7_Node000005_Node000002"><a xlink:title=" ">
<path fill="none" stroke="#63b8ff" d="M681.38,-657.97C770.17,-666.56 903.01,-677.14 1019,-677.14 1019,-677.14 1019,-677.14 2461.5,-677.14 2614.81,-677.14 2655.6,-674.62 2804,-636.14 2831.4,-629.03 2860.65,-617.5 2884.64,-606.92"/>
<polygon fill="#63b8ff" stroke="#63b8ff" points="2886.2,-610.05 2893.9,-602.77 2883.34,-603.67 2886.2,-610.05"/>
</a>
</g>
</g>
<!-- Node5&#45;&gt;Node3 -->
<g id="edge39_Node000005_Node000003" class="edge">
<title>Node5&#45;&gt;Node3</title>
<g id="a_edge39_Node000005_Node000003"><a xlink:title=" ">
<path fill="none" stroke="#63b8ff" d="M585.46,-626.47C611.14,-525.08 738.69,-85.14 1019,-85.14 1019,-85.14 1019,-85.14 2461.5,-85.14 2614.86,-85.14 2655.48,-88.91 2804,-127.14 2831.02,-134.09 2859.91,-145.24 2883.75,-155.51"/>
<polygon fill="#63b8ff" stroke="#63b8ff" points="2882.39,-158.74 2892.96,-159.55 2885.2,-152.33 2882.39,-158.74"/>
</a>
</g>
</g>
<!-- Node6 -->
<g id="Node000006" class="node">
<title>Node6</title>
<g id="a_Node000006"><a xlink:href="classcom_1_1example_1_1mybookshelf_1_1BookRecommendationFlow.html#a78dda71d2c403a463d824ff61b2ce27f" target="_top" xlink:title=" ">
<polygon fill="white" stroke="#666666" points="894,-572.64 717,-572.64 717,-531.64 894,-531.64 894,-572.64"/>
<text text-anchor="start" x="725" y="-560.64" font-family="Helvetica,sans-Serif" font-size="10.00">com.example.mybookshelf.</text>
<text text-anchor="start" x="725" y="-549.64" font-family="Helvetica,sans-Serif" font-size="10.00">BookRecommendationFlow.build</text>
<text text-anchor="middle" x="805.5" y="-538.64" font-family="Helvetica,sans-Serif" font-size="10.00">AIStringBased</text>
</a>
</g>
</g>
<!-- Node5&#45;&gt;Node6 -->
<g id="edge8_Node000005_Node000006" class="edge">
<title>Node5&#45;&gt;Node6</title>
<g id="a_edge8_Node000005_Node000006"><a xlink:title=" ">
<path fill="none" stroke="#63b8ff" d="M629.1,-626.52C663.59,-611.9 710.04,-592.2 746.48,-576.75"/>
<polygon fill="#63b8ff" stroke="#63b8ff" points="748.15,-579.84 755.99,-572.71 745.42,-573.39 748.15,-579.84"/>
</a>
</g>
</g>
<!-- Node7 -->
<g id="Node000007" class="node">
<title>Node7</title>
<g id="a_Node000007"><a xlink:href="classcom_1_1example_1_1mybookshelf_1_1BookRecommendationFlow.html#ae50cf18619872a365eebe91c18d86e8d" target="_top" xlink:title=" ">
<polygon fill="white" stroke="#666666" points="1110,-518.14 930,-518.14 930,-488.14 1110,-488.14 1110,-518.14"/>
<text text-anchor="start" x="938" y="-506.14" font-family="Helvetica,sans-Serif" font-size="10.00">com.example.mybookshelf.</text>
<text text-anchor="middle" x="1020" y="-495.14" font-family="Helvetica,sans-Serif" font-size="10.00">BookRecommendationFlow.callAI</text>
</a>
</g>
</g>
<!-- Node6&#45;&gt;Node7 -->
<g id="edge9_Node000006_Node000007" class="edge">
<title>Node6&#45;&gt;Node7</title>
<g id="a_edge9_Node000006_Node000007"><a xlink:title=" ">
<path fill="none" stroke="#63b8ff" d="M894.16,-531.92C910.73,-528.1 927.92,-524.14 944.05,-520.42"/>
<polygon fill="#63b8ff" stroke="#63b8ff" points="944.99,-523.8 953.95,-518.14 943.42,-516.98 944.99,-523.8"/>
</a>
</g>
</g>
<!-- Node7&#45;&gt;Node2 -->
<g id="edge10_Node000007_Node000002" class="edge">
<title>Node7&#45;&gt;Node2</title>
<g id="a_edge10_Node000007_Node000002"><a xlink:title=" ">
<path fill="none" stroke="#63b8ff" d="M1031.59,-518.46C1050.82,-544.83 1094.32,-598.11 1146,-620.14 1290.94,-681.93 1342.44,-639.14 1500,-639.14 1500,-639.14 1500,-639.14 2461.5,-639.14 2614.31,-639.14 2652.79,-631.15 2804,-609.14 2813.28,-607.79 2822.88,-606.2 2832.49,-604.48"/>
<polygon fill="#63b8ff" stroke="#63b8ff" points="2833.29,-607.89 2842.49,-602.64 2832.02,-601.01 2833.29,-607.89"/>
</a>
</g>
</g>
<!-- Node7&#45;&gt;Node3 -->
<g id="edge12_Node000007_Node000003" class="edge">
<title>Node7&#45;&gt;Node3</title>
<g id="a_edge12_Node000007_Node000003"><a xlink:title=" ">
<path fill="none" stroke="#63b8ff" d="M1023.35,-487.96C1031.35,-441.57 1061.84,-300.3 1146,-227.14 1269.75,-119.55 1336.02,-123.14 1500,-123.14 1500,-123.14 1500,-123.14 2461.5,-123.14 2591.12,-123.14 2739.24,-144.36 2835.01,-160.91"/>
<polygon fill="#63b8ff" stroke="#63b8ff" points="2834.53,-164.38 2844.98,-162.65 2835.73,-157.48 2834.53,-164.38"/>
</a>
</g>
</g>
<!-- Node7&#45;&gt;Node7 -->
<g id="edge11_Node000007_Node000007" class="edge">
<title>Node7&#45;&gt;Node7</title>
<g id="a_edge11_Node000007_Node000007"><a xlink:title=" ">
<path fill="none" stroke="#63b8ff" d="M982.38,-518.41C974.02,-527.54 986.56,-536.14 1020,-536.14 1039.85,-536.14 1052.34,-533.11 1057.46,-528.74"/>
<polygon fill="#63b8ff" stroke="#63b8ff" points="1060.96,-528.47 1057.62,-518.41 1053.96,-528.36 1060.96,-528.47"/>
</a>
</g>
</g>
<!-- Node8 -->
<g id="Node000008" class="node">
<title>Node8</title>
<g id="a_Node000008"><a xlink:href="classcom_1_1example_1_1mybookshelf_1_1apis_1_1AiAPI.html#a4a45b91f0717302661d9e35ed956c049" target="_top" xlink:title=" ">
<polygon fill="white" stroke="#666666" points="1344.5,-593.14 1168.5,-593.14 1168.5,-563.14 1344.5,-563.14 1344.5,-593.14"/>
<text text-anchor="start" x="1176.5" y="-581.14" font-family="Helvetica,sans-Serif" font-size="10.00">com.example.mybookshelf.apis.</text>
<text text-anchor="middle" x="1256.5" y="-570.14" font-family="Helvetica,sans-Serif" font-size="10.00">AiAPI.fetchResponse</text>
</a>
</g>
</g>
<!-- Node7&#45;&gt;Node8 -->
<g id="edge13_Node000007_Node000008" class="edge">
<title>Node7&#45;&gt;Node8</title>
<g id="a_edge13_Node000007_Node000008"><a xlink:title=" ">
<path fill="none" stroke="#63b8ff" d="M1053.6,-518.24C1078.5,-529.33 1113.88,-544.15 1146,-554.14 1153.38,-556.43 1161.11,-558.6 1168.9,-560.61"/>
<polygon fill="#63b8ff" stroke="#63b8ff" points="1168.23,-564.05 1178.78,-563.08 1169.92,-557.26 1168.23,-564.05"/>
</a>
</g>
</g>
<!-- Node9 -->
<g id="Node000009" class="node">
<title>Node9</title>
<g id="a_Node000009"><a xlink:href="classcom_1_1example_1_1mybookshelf_1_1BookRecommendationFlow.html#a4dceb0fa4d170b8c7e5a7a6718593dfe" target="_top" xlink:title=" ">
<polygon fill="white" stroke="#666666" points="1356.5,-545.14 1156.5,-545.14 1156.5,-515.14 1356.5,-515.14 1356.5,-545.14"/>
<text text-anchor="start" x="1164.5" y="-533.14" font-family="Helvetica,sans-Serif" font-size="10.00">com.example.mybookshelf.</text>
<text text-anchor="middle" x="1256.5" y="-522.14" font-family="Helvetica,sans-Serif" font-size="10.00">BookRecommendationFlow.handleNo</text>
</a>
</g>
</g>
<!-- Node7&#45;&gt;Node9 -->
<g id="edge15_Node000007_Node000009" class="edge">
<title>Node7&#45;&gt;Node9</title>
<g id="a_edge15_Node000007_Node000009"><a xlink:title=" ">
<path fill="none" stroke="#63b8ff" d="M1110.32,-513.42C1122.05,-514.77 1134.18,-516.17 1146.19,-517.55"/>
<polygon fill="#63b8ff" stroke="#63b8ff" points="1145.91,-521.04 1156.25,-518.71 1146.71,-514.09 1145.91,-521.04"/>
</a>
</g>
</g>
<!-- Node17 -->
<g id="Node000017" class="node">
<title>Node17</title>
<g id="a_Node000017"><a xlink:href="classcom_1_1example_1_1mybookshelf_1_1BookRecommendationFlow.html#ac62af5d6edeffa96b2862a609ebb40df" target="_top" xlink:title=" ">
<polygon fill="white" stroke="#666666" points="1364.5,-496.64 1148.5,-496.64 1148.5,-455.64 1364.5,-455.64 1364.5,-496.64"/>
<text text-anchor="start" x="1156.5" y="-484.64" font-family="Helvetica,sans-Serif" font-size="10.00">com.example.mybookshelf.</text>
<text text-anchor="start" x="1156.5" y="-473.64" font-family="Helvetica,sans-Serif" font-size="10.00">BookRecommendationFlow.hideThinking</text>
<text text-anchor="middle" x="1256.5" y="-462.64" font-family="Helvetica,sans-Serif" font-size="10.00">Animation</text>
</a>
</g>
</g>
<!-- Node7&#45;&gt;Node17 -->
<g id="edge37_Node000007_Node000017" class="edge">
<title>Node7&#45;&gt;Node17</title>
<g id="a_edge37_Node000007_Node000017"><a xlink:title=" ">
<path fill="none" stroke="#63b8ff" d="M1110.32,-492.85C1119.45,-491.8 1128.81,-490.72 1138.18,-489.65"/>
<polygon fill="#63b8ff" stroke="#63b8ff" points="1138.8,-493.1 1148.33,-488.48 1137.99,-486.14 1138.8,-493.1"/>
</a>
</g>
</g>
<!-- Node18 -->
<g id="Node000018" class="node">
<title>Node18</title>
<g id="a_Node000018"><a xlink:href="classcom_1_1example_1_1mybookshelf_1_1BookRecommendationFlow.html#a78597ba37409daeee77dcfa6236b2e6a" target="_top" xlink:title=" ">
<polygon fill="white" stroke="#666666" points="1367,-437.64 1146,-437.64 1146,-396.64 1367,-396.64 1367,-437.64"/>
<text text-anchor="start" x="1154" y="-425.64" font-family="Helvetica,sans-Serif" font-size="10.00">com.example.mybookshelf.</text>
<text text-anchor="start" x="1154" y="-414.64" font-family="Helvetica,sans-Serif" font-size="10.00">BookRecommendationFlow.showThinking</text>
<text text-anchor="middle" x="1256.5" y="-403.64" font-family="Helvetica,sans-Serif" font-size="10.00">Animation</text>
</a>
</g>
</g>
<!-- Node7&#45;&gt;Node18 -->
<g id="edge38_Node000007_Node000018" class="edge">
<title>Node7&#45;&gt;Node18</title>
<g id="a_edge38_Node000007_Node000018"><a xlink:title=" ">
<path fill="none" stroke="#63b8ff" d="M1050.22,-488.11C1075.19,-475.68 1112.31,-458.18 1146,-446.14 1151.21,-444.28 1156.59,-442.47 1162.05,-440.74"/>
<polygon fill="#63b8ff" stroke="#63b8ff" points="1163.42,-443.98 1171.94,-437.69 1161.36,-437.29 1163.42,-443.98"/>
</a>
</g>
</g>
<!-- Node8&#45;&gt;Node8 -->
<g id="edge14_Node000008_Node000008" class="edge">
<title>Node8&#45;&gt;Node8</title>
<g id="a_edge14_Node000008_Node000008"><a xlink:title=" ">
<path fill="none" stroke="#63b8ff" d="M1215.02,-593.41C1205.8,-602.54 1219.63,-611.14 1256.5,-611.14 1278.39,-611.14 1292.16,-608.11 1297.81,-603.74"/>
<polygon fill="#63b8ff" stroke="#63b8ff" points="1301.31,-603.47 1297.98,-593.41 1294.31,-603.35 1301.31,-603.47"/>
</a>
</g>
</g>
<!-- Node9&#45;&gt;Node2 -->
<g id="edge16_Node000009_Node000002" class="edge">
<title>Node9&#45;&gt;Node2</title>
<g id="a_edge16_Node000009_Node000002"><a xlink:title=" ">
<path fill="none" stroke="#63b8ff" d="M1356.58,-542.3C1530.67,-562.59 1902.94,-601.14 2218.5,-601.14 2218.5,-601.14 2218.5,-601.14 2461.5,-601.14 2588.11,-601.14 2733.56,-594.3 2829.7,-588.83"/>
<polygon fill="#63b8ff" stroke="#63b8ff" points="2829.93,-592.32 2839.71,-588.25 2829.53,-585.33 2829.93,-592.32"/>
</a>
</g>
</g>
<!-- Node9&#45;&gt;Node3 -->
<g id="edge17_Node000009_Node000003" class="edge">
<title>Node9&#45;&gt;Node3</title>
<g id="a_edge17_Node000009_Node000003"><a xlink:title=" ">
<path fill="none" stroke="#63b8ff" d="M1330.68,-515.14C1342.9,-512.15 1355.37,-508.79 1367,-505.14 1756.42,-382.88 1810.34,-161.14 2218.5,-161.14 2218.5,-161.14 2218.5,-161.14 2461.5,-161.14 2590.3,-161.14 2738.6,-168.21 2834.64,-173.73"/>
<polygon fill="#63b8ff" stroke="#63b8ff" points="2834.45,-177.22 2844.64,-174.31 2834.86,-170.24 2834.45,-177.22"/>
</a>
</g>
</g>
<!-- Node10 -->
<g id="Node000010" class="node">
<title>Node10</title>
<g id="a_Node000010"><a xlink:href="classcom_1_1example_1_1mybookshelf_1_1BookRecommendationFlow.html#a22f0dcaea578fbd7358e6237cd4873d4" target="_top" xlink:title=" ">
<polygon fill="white" stroke="#666666" points="1599,-611.14 1403,-611.14 1403,-581.14 1599,-581.14 1599,-611.14"/>
<text text-anchor="start" x="1411" y="-599.14" font-family="Helvetica,sans-Serif" font-size="10.00">com.example.mybookshelf.</text>
<text text-anchor="middle" x="1501" y="-588.14" font-family="Helvetica,sans-Serif" font-size="10.00">BookRecommendationFlow.handleAI</text>
</a>
</g>
</g>
<!-- Node9&#45;&gt;Node10 -->
<g id="edge18_Node000009_Node000010" class="edge">
<title>Node9&#45;&gt;Node10</title>
<g id="a_edge18_Node000009_Node000010"><a xlink:title=" ">
<path fill="none" stroke="#63b8ff" d="M1332.34,-545.17C1344.01,-547.91 1355.87,-550.93 1367,-554.14 1383.34,-558.86 1386.84,-561.81 1403,-567.14 1414.28,-570.86 1426.36,-574.63 1438.04,-578.18"/>
<polygon fill="#63b8ff" stroke="#63b8ff" points="1437.14,-581.56 1447.73,-581.1 1439.16,-574.86 1437.14,-581.56"/>
</a>
</g>
</g>
<!-- Node10&#45;&gt;Node1 -->
<g id="edge19_Node000010_Node000001" class="edge">
<title>Node10&#45;&gt;Node1</title>
<g id="a_edge19_Node000010_Node000001"><a xlink:title=" ">
<path fill="none" stroke="#63b8ff" d="M1473.98,-611.19C1403.53,-650.49 1202.15,-753.14 1021,-753.14 578.5,-753.14 578.5,-753.14 578.5,-753.14 453.05,-753.14 309.51,-740.9 213.14,-730.89"/>
<polygon fill="#63b8ff" stroke="#63b8ff" points="213.4,-727.4 203.09,-729.84 212.68,-734.36 213.4,-727.4"/>
</a>
</g>
</g>
<!-- Node11 -->
<g id="Node000011" class="node">
<title>Node11</title>
<g id="a_Node000011"><a xlink:href="classcom_1_1example_1_1mybookshelf_1_1BookRecommendationFlow.html#a4c7dc337216592f7f214f69ce7009d37" target="_top" xlink:title=" ">
<polygon fill="white" stroke="#666666" points="1840,-534.64 1635,-534.64 1635,-493.64 1840,-493.64 1840,-534.64"/>
<text text-anchor="start" x="1643" y="-522.64" font-family="Helvetica,sans-Serif" font-size="10.00">com.example.mybookshelf.</text>
<text text-anchor="start" x="1643" y="-511.64" font-family="Helvetica,sans-Serif" font-size="10.00">BookRecommendationFlow.showFresh</text>
<text text-anchor="middle" x="1737.5" y="-500.64" font-family="Helvetica,sans-Serif" font-size="10.00">StartStep1</text>
</a>
</g>
</g>
<!-- Node10&#45;&gt;Node11 -->
<g id="edge20_Node000010_Node000011" class="edge">
<title>Node10&#45;&gt;Node11</title>
<g id="a_edge20_Node000010_Node000011"><a xlink:title=" ">
<path fill="none" stroke="#63b8ff" d="M1545.01,-581.1C1579.46,-569.05 1628.43,-551.93 1668.22,-538.01"/>
<polygon fill="#63b8ff" stroke="#63b8ff" points="1669.58,-541.25 1677.86,-534.64 1667.27,-534.64 1669.58,-541.25"/>
</a>
</g>
</g>
<!-- Node11&#45;&gt;Node2 -->
<g id="edge21_Node000011_Node000002" class="edge">
<title>Node11&#45;&gt;Node2</title>
<g id="a_edge21_Node000011_Node000002"><a xlink:title=" ">
<path fill="none" stroke="#63b8ff" d="M1840.26,-530.59C1937.21,-544.83 2087.41,-563.14 2218.5,-563.14 2218.5,-563.14 2218.5,-563.14 2461.5,-563.14 2588.11,-563.14 2733.56,-569.97 2829.7,-575.45"/>
<polygon fill="#63b8ff" stroke="#63b8ff" points="2829.53,-578.94 2839.71,-576.02 2829.93,-571.95 2829.53,-578.94"/>
</a>
</g>
</g>
<!-- Node11&#45;&gt;Node3 -->
<g id="edge22_Node000011_Node000003" class="edge">
<title>Node11&#45;&gt;Node3</title>
<g id="a_edge22_Node000011_Node000003"><a xlink:title=" ">
<path fill="none" stroke="#63b8ff" d="M1770.11,-493.46C1833.51,-452.79 1981.71,-361.71 2117,-308.14 2362.17,-211.05 2675.94,-187.37 2834.51,-181.75"/>
<polygon fill="#63b8ff" stroke="#63b8ff" points="2834.86,-185.24 2844.73,-181.41 2834.62,-178.25 2834.86,-185.24"/>
</a>
</g>
</g>
<!-- Node12 -->
<g id="Node000012" class="node">
<title>Node12</title>
<g id="a_Node000012"><a xlink:href="classcom_1_1example_1_1mybookshelf_1_1BookRecommendationFlow.html#aaf567ca97b0d7f0c58ebba4d6f4b18bd" target="_top" xlink:title=" ">
<polygon fill="white" stroke="#666666" points="2081,-515.64 1876,-515.64 1876,-474.64 2081,-474.64 2081,-515.64"/>
<text text-anchor="start" x="1884" y="-503.64" font-family="Helvetica,sans-Serif" font-size="10.00">com.example.mybookshelf.</text>
<text text-anchor="start" x="1884" y="-492.64" font-family="Helvetica,sans-Serif" font-size="10.00">BookRecommendationFlow.showFresh</text>
<text text-anchor="middle" x="1978.5" y="-481.64" font-family="Helvetica,sans-Serif" font-size="10.00">StartStep2</text>
</a>
</g>
</g>
<!-- Node11&#45;&gt;Node12 -->
<g id="edge23_Node000011_Node000012" class="edge">
<title>Node11&#45;&gt;Node12</title>
<g id="a_edge23_Node000011_Node000012"><a xlink:title=" ">
<path fill="none" stroke="#63b8ff" d="M1840.2,-506.05C1848.7,-505.38 1857.31,-504.69 1865.87,-504.01"/>
<polygon fill="#63b8ff" stroke="#63b8ff" points="1866.2,-507.5 1875.89,-503.22 1865.64,-500.52 1866.2,-507.5"/>
</a>
</g>
</g>
<!-- Node12&#45;&gt;Node2 -->
<g id="edge24_Node000012_Node000002" class="edge">
<title>Node12&#45;&gt;Node2</title>
<g id="a_edge24_Node000012_Node000002"><a xlink:title=" ">
<path fill="none" stroke="#63b8ff" d="M2081.05,-495.94C2237.3,-498.49 2545.71,-508.73 2804,-549.14 2820.23,-551.68 2837.39,-555.27 2853.77,-559.16"/>
<polygon fill="#63b8ff" stroke="#63b8ff" points="2853.31,-562.66 2863.86,-561.62 2854.97,-555.85 2853.31,-562.66"/>
</a>
</g>
</g>
<!-- Node12&#45;&gt;Node3 -->
<g id="edge25_Node000012_Node000003" class="edge">
<title>Node12&#45;&gt;Node3</title>
<g id="a_edge25_Node000012_Node000003"><a xlink:title=" ">
<path fill="none" stroke="#63b8ff" d="M2011.48,-474.41C2074.92,-434.24 2222.33,-345.56 2358,-298.14 2548.49,-231.56 2606.82,-256.02 2804,-213.14 2818.07,-210.08 2832.91,-206.61 2847.38,-203.09"/>
<polygon fill="#63b8ff" stroke="#63b8ff" points="2848.43,-206.44 2857.31,-200.65 2846.77,-199.64 2848.43,-206.44"/>
</a>
</g>
</g>
<!-- Node13 -->
<g id="Node000013" class="node">
<title>Node13</title>
<g id="a_Node000013"><a xlink:href="classcom_1_1example_1_1mybookshelf_1_1BookRecommendationFlow.html#a2bc1c0125eb3c1fe64ed1ed3ee93d3eb" target="_top" xlink:title=" ">
<polygon fill="white" stroke="#666666" points="2322,-477.64 2117,-477.64 2117,-436.64 2322,-436.64 2322,-477.64"/>
<text text-anchor="start" x="2125" y="-465.64" font-family="Helvetica,sans-Serif" font-size="10.00">com.example.mybookshelf.</text>
<text text-anchor="start" x="2125" y="-454.64" font-family="Helvetica,sans-Serif" font-size="10.00">BookRecommendationFlow.showFresh</text>
<text text-anchor="middle" x="2219.5" y="-443.64" font-family="Helvetica,sans-Serif" font-size="10.00">StartStep3</text>
</a>
</g>
</g>
<!-- Node12&#45;&gt;Node13 -->
<g id="edge26_Node000012_Node000013" class="edge">
<title>Node12&#45;&gt;Node13</title>
<g id="a_edge26_Node000012_Node000013"><a xlink:title=" ">
<path fill="none" stroke="#63b8ff" d="M2081.2,-478.97C2089.7,-477.62 2098.31,-476.25 2106.87,-474.89"/>
<polygon fill="#63b8ff" stroke="#63b8ff" points="2107.56,-478.32 2116.89,-473.29 2106.46,-471.41 2107.56,-478.32"/>
</a>
</g>
</g>
<!-- Node13&#45;&gt;Node2 -->
<g id="edge27_Node000013_Node000002" class="edge">
<title>Node13&#45;&gt;Node2</title>
<g id="a_edge27_Node000013_Node000002"><a xlink:title=" ">
<path fill="none" stroke="#63b8ff" d="M2322.2,-454.4C2440.51,-453.97 2640.49,-461.83 2804,-511.14 2837.43,-521.22 2872.08,-540.24 2897.48,-556.05"/>
<polygon fill="#63b8ff" stroke="#63b8ff" points="2895.75,-559.1 2906.07,-561.5 2899.5,-553.19 2895.75,-559.1"/>
</a>
</g>
</g>
<!-- Node13&#45;&gt;Node3 -->
<g id="edge28_Node000013_Node000003" class="edge">
<title>Node13&#45;&gt;Node3</title>
<g id="a_edge28_Node000013_Node000003"><a xlink:title=" ">
<path fill="none" stroke="#63b8ff" d="M2260.48,-436.5C2287.74,-422.64 2324.78,-404.22 2358,-389.14 2463.59,-341.19 2487.82,-322.11 2599,-289.14 2687.84,-262.79 2716.59,-281.9 2804,-251.14 2836.39,-239.74 2870.45,-221.23 2895.87,-205.97"/>
<polygon fill="#63b8ff" stroke="#63b8ff" points="2897.76,-208.91 2904.48,-200.72 2894.11,-202.94 2897.76,-208.91"/>
</a>
</g>
</g>
<!-- Node14 -->
<g id="Node000014" class="node">
<title>Node14</title>
<g id="a_Node000014"><a xlink:href="classcom_1_1example_1_1mybookshelf_1_1BookRecommendationFlow.html#ad10515cfcf8650b6830b68f15d393b3b" target="_top" xlink:title=" ">
<polygon fill="white" stroke="#666666" points="2563,-439.64 2358,-439.64 2358,-398.64 2563,-398.64 2563,-439.64"/>
<text text-anchor="start" x="2366" y="-427.64" font-family="Helvetica,sans-Serif" font-size="10.00">com.example.mybookshelf.</text>
<text text-anchor="start" x="2366" y="-416.64" font-family="Helvetica,sans-Serif" font-size="10.00">BookRecommendationFlow.showFresh</text>
<text text-anchor="middle" x="2460.5" y="-405.64" font-family="Helvetica,sans-Serif" font-size="10.00">StartStep4</text>
</a>
</g>
</g>
<!-- Node13&#45;&gt;Node14 -->
<g id="edge29_Node000013_Node000014" class="edge">
<title>Node13&#45;&gt;Node14</title>
<g id="a_edge29_Node000013_Node000014"><a xlink:title=" ">
<path fill="none" stroke="#63b8ff" d="M2322.2,-440.97C2330.7,-439.62 2339.31,-438.25 2347.87,-436.89"/>
<polygon fill="#63b8ff" stroke="#63b8ff" points="2348.56,-440.32 2357.89,-435.29 2347.46,-433.41 2348.56,-440.32"/>
</a>
</g>
</g>
<!-- Node14&#45;&gt;Node2 -->
<g id="edge30_Node000014_Node000002" class="edge">
<title>Node14&#45;&gt;Node2</title>
<g id="a_edge30_Node000014_Node000002"><a xlink:title=" ">
<path fill="none" stroke="#63b8ff" d="M2563.24,-429.19C2648.25,-438.68 2762.08,-454.25 2804,-473.14 2846.24,-492.17 2885.98,-528.43 2910.6,-553.89"/>
<polygon fill="#63b8ff" stroke="#63b8ff" points="2908.32,-556.57 2917.74,-561.42 2913.4,-551.75 2908.32,-556.57"/>
</a>
</g>
</g>
<!-- Node14&#45;&gt;Node3 -->
<g id="edge31_Node000014_Node000003" class="edge">
<title>Node14&#45;&gt;Node3</title>
<g id="a_edge31_Node000014_Node000003"><a xlink:title=" ">
<path fill="none" stroke="#63b8ff" d="M2518.58,-398.63C2609.21,-365.89 2778.43,-304 2804,-289.14 2843.12,-266.4 2882.4,-232.15 2907.81,-208.13"/>
<polygon fill="#63b8ff" stroke="#63b8ff" points="2910.43,-210.47 2915.23,-201.03 2905.59,-205.41 2910.43,-210.47"/>
</a>
</g>
</g>
<!-- Node15 -->
<g id="Node000015" class="node">
<title>Node15</title>
<g id="a_Node000015"><a xlink:href="classcom_1_1example_1_1mybookshelf_1_1BookRecommendationFlow.html#a46c6733f27b3527d3934cee02cfcd7ac" target="_top" xlink:title=" ">
<polygon fill="white" stroke="#666666" points="2804,-420.64 2599,-420.64 2599,-379.64 2804,-379.64 2804,-420.64"/>
<text text-anchor="start" x="2607" y="-408.64" font-family="Helvetica,sans-Serif" font-size="10.00">com.example.mybookshelf.</text>
<text text-anchor="start" x="2607" y="-397.64" font-family="Helvetica,sans-Serif" font-size="10.00">BookRecommendationFlow.showFresh</text>
<text text-anchor="middle" x="2701.5" y="-386.64" font-family="Helvetica,sans-Serif" font-size="10.00">StartStep5</text>
</a>
</g>
</g>
<!-- Node14&#45;&gt;Node15 -->
<g id="edge32_Node000014_Node000015" class="edge">
<title>Node14&#45;&gt;Node15</title>
<g id="a_edge32_Node000014_Node000015"><a xlink:title=" ">
<path fill="none" stroke="#63b8ff" d="M2563.2,-411.05C2571.7,-410.38 2580.31,-409.69 2588.87,-409.01"/>
<polygon fill="#63b8ff" stroke="#63b8ff" points="2589.2,-412.5 2598.89,-408.22 2588.64,-405.52 2589.2,-412.5"/>
</a>
</g>
</g>
<!-- Node15&#45;&gt;Node2 -->
<g id="edge33_Node000015_Node000002" class="edge">
<title>Node15&#45;&gt;Node2</title>
<g id="a_edge33_Node000015_Node000002"><a xlink:title=" ">
<path fill="none" stroke="#63b8ff" d="M2776.69,-420.73C2786.25,-424.8 2795.61,-429.57 2804,-435.14 2852.02,-466.98 2893.86,-520.33 2916.95,-553.25"/>
<polygon fill="#63b8ff" stroke="#63b8ff" points="2914.12,-555.32 2922.68,-561.56 2919.88,-551.34 2914.12,-555.32"/>
</a>
</g>
</g>
<!-- Node15&#45;&gt;Node3 -->
<g id="edge36_Node000015_Node000003" class="edge">
<title>Node15&#45;&gt;Node3</title>
<g id="a_edge36_Node000015_Node000003"><a xlink:title=" ">
<path fill="none" stroke="#63b8ff" d="M2779.13,-379.58C2787.94,-375.54 2796.46,-370.77 2804,-365.14 2833.34,-343.22 2889.53,-255.82 2918.21,-209.43"/>
<polygon fill="#63b8ff" stroke="#63b8ff" points="2921.3,-211.08 2923.56,-200.72 2915.34,-207.41 2921.3,-211.08"/>
</a>
</g>
</g>
<!-- Node16 -->
<g id="Node000016" class="node">
<title>Node16</title>
<g id="a_Node000016"><a xlink:href="classcom_1_1example_1_1mybookshelf_1_1BookRecommendationFlow.html#abe4c57ea57ed54c344739295e70066ff" target="_top" xlink:title=" ">
<polygon fill="white" stroke="#666666" points="3025.5,-376.64 2848.5,-376.64 2848.5,-335.64 3025.5,-335.64 3025.5,-376.64"/>
<text text-anchor="start" x="2856.5" y="-364.64" font-family="Helvetica,sans-Serif" font-size="10.00">com.example.mybookshelf.</text>
<text text-anchor="start" x="2856.5" y="-353.64" font-family="Helvetica,sans-Serif" font-size="10.00">BookRecommendationFlow.build</text>
<text text-anchor="middle" x="2937" y="-342.64" font-family="Helvetica,sans-Serif" font-size="10.00">AIStringFresh</text>
</a>
</g>
</g>
<!-- Node15&#45;&gt;Node16 -->
<g id="edge34_Node000015_Node000016" class="edge">
<title>Node15&#45;&gt;Node16</title>
<g id="a_edge34_Node000015_Node000016"><a xlink:title=" ">
<path fill="none" stroke="#63b8ff" d="M2804.24,-380.97C2815.64,-378.82 2827.24,-376.63 2838.59,-374.49"/>
<polygon fill="#63b8ff" stroke="#63b8ff" points="2839.31,-377.92 2848.49,-372.63 2838.02,-371.04 2839.31,-377.92"/>
</a>
</g>
</g>
<!-- Node16&#45;&gt;Node7 -->
<g id="edge35_Node000016_Node000007" class="edge">
<title>Node16&#45;&gt;Node7</title>
<g id="a_edge35_Node000016_Node000007"><a xlink:title=" ">
<path fill="none" stroke="#63b8ff" d="M2848.26,-336.65C2651.01,-294.6 2157.07,-199.14 1738.5,-199.14 1500,-199.14 1500,-199.14 1500,-199.14 1290.36,-199.14 1098.2,-409.29 1039.37,-480.14"/>
<polygon fill="#63b8ff" stroke="#63b8ff" points="1036.51,-478.11 1032.87,-488.06 1041.92,-482.55 1036.51,-478.11"/>
</a>
</g>
</g>
</g>
</svg>

<g id="navigator" transform="translate(0 0)" fill="#404254">
  <rect fill="#f2f5e9" fill-opacity="0.5" stroke="#606060" stroke-width=".5" x="0" y="0" width="60" height="60"/>
  <use id="zoomplus" xlink:href="#zoomPlus" x="17" y="9" onmousedown="handleZoom(evt,'in')"/>
  <use id="zoomminus" xlink:href="#zoomMin" x="42" y="9" onmousedown="handleZoom(evt,'out')"/>
  <use id="reset" xlink:href="#resetDef" x="30" y="36" onmousedown="handleReset()"/>
   <use id="arrowup" xlink:href="#arrowUp" x="0" y="0" onmousedown="handlePan(0,-1)"/>
  <use id="arrowright" xlink:href="#arrowRight" x="0" y="0" onmousedown="handlePan(1,0)"/>
  <use id="arrowdown" xlink:href="#arrowDown" x="0" y="0" onmousedown="handlePan(0,1)"/>
  <use id="arrowleft" xlink:href="#arrowLeft" x="0" y="0" onmousedown="handlePan(-1,0)"/>
</g>
<svg viewBox="0 0 15 15" width="100%" height="30px" preserveAspectRatio="xMaxYMin meet">
 <g id="arrow_out" transform="scale(0.3 0.3)">
  <a xlink:href="classcom_1_1example_1_1mybookshelf_1_1BookRecommendationFlow_a276e931dabe3e85af257a9d16ce7cc67_cgraph_org.svg" target="_base">
   <rect id="button" ry="5" rx="5" y="6" x="6" height="38" width="38"
        fill="#f2f5e9" fill-opacity="0.5" stroke="#606060" stroke-width="1.0"/>
   <path id="arrow"
     d="M 11.500037,31.436501 C 11.940474,20.09759 22.043105,11.32322 32.158766,21.979434 L 37.068811,17.246167 C 37.068811,17.246167 37.088388,32 37.088388,32 L 22.160133,31.978069 C 22.160133,31.978069 26.997745,27.140456 26.997745,27.140456 C 18.528582,18.264221 13.291696,25.230495 11.500037,31.436501 z"
     style="fill:#404040;"/>
  </a>
 </g>
</svg>

<style type='text/css'>
<![CDATA[
[data-mouse-over-selected='false'] { opacity: 0.7; }
[data-mouse-over-selected='true']  { opacity: 1.0; }
]]>
</style>
<script type="application/ecmascript"><![CDATA[
document.addEventListener('DOMContentLoaded', (event) => {
  highlightEdges();
  highlightAdjacentNodes();
});
]]></script>
</svg>
