<?xml version="1.0" encoding="UTF-8" standalone="no"?>
<!DOCTYPE svg PUBLIC "-//W3C//DTD SVG 1.1//EN"
 "http://www.w3.org/Graphics/SVG/1.1/DTD/svg11.dtd">
<!-- Generated by graphviz version 2.43.0 (0)
 -->
<!-- Title: com.example.mybookshelf.BookRecommendationFlow.showBookBasedStep3 Pages: 1 -->
<svg width="2564pt" height="752pt"
 viewBox="0.00 0.00 2564.00 752.33" xmlns="http://www.w3.org/2000/svg" xmlns:xlink="http://www.w3.org/1999/xlink">
<g id="graph0" class="graph" transform="scale(1 1) rotate(0) translate(4 748.33)">
<title>com.example.mybookshelf.BookRecommendationFlow.showBookBasedStep3</title>
<!-- Node1 -->
<g id="Node000001" class="node">
<title>Node1</title>
<g id="a_Node000001"><a xlink:title=" ">
<polygon fill="#999999" stroke="#666666" points="203,-304.6 0,-304.6 0,-263.6 203,-263.6 203,-304.6"/>
<text text-anchor="start" x="8" y="-292.6" font-family="Helvetica,sans-Serif" font-size="10.00">com.example.mybookshelf.</text>
<text text-anchor="start" x="8" y="-281.6" font-family="Helvetica,sans-Serif" font-size="10.00">BookRecommendationFlow.showBook</text>
<text text-anchor="middle" x="101.5" y="-270.6" font-family="Helvetica,sans-Serif" font-size="10.00">BasedStep3</text>
</a>
</g>
</g>
<!-- Node2 -->
<g id="Node000002" class="node">
<title>Node2</title>
<g id="a_Node000002"><a xlink:href="classcom_1_1example_1_1mybookshelf_1_1BookRecommendationFlow.html#a3855117e802e54923c308e0df6280c17" target="_top" xlink:title=" ">
<polygon fill="white" stroke="#666666" points="2556,-193.6 2362,-193.6 2362,-152.6 2556,-152.6 2556,-193.6"/>
<text text-anchor="start" x="2370" y="-181.6" font-family="Helvetica,sans-Serif" font-size="10.00">com.example.mybookshelf.</text>
<text text-anchor="start" x="2370" y="-170.6" font-family="Helvetica,sans-Serif" font-size="10.00">BookRecommendationFlow.addChat</text>
<text text-anchor="middle" x="2459" y="-159.6" font-family="Helvetica,sans-Serif" font-size="10.00">Message</text>
</a>
</g>
</g>
<!-- Node1&#45;&gt;Node2 -->
<g id="edge1_Node000001_Node000002" class="edge">
<title>Node1&#45;&gt;Node2</title>
<g id="a_edge1_Node000001_Node000002"><a xlink:title=" ">
<path fill="none" stroke="#63b8ff" d="M108.91,-263.29C123.81,-218.61 165.28,-113.38 239,-62.1 351.34,16.05 404.15,-2.1 541,-2.1 541,-2.1 541,-2.1 1983.5,-2.1 2137.4,-2.1 2186.94,12.85 2326,-53.1 2371.08,-74.47 2411.7,-116.47 2435.61,-144.66"/>
<polygon fill="#63b8ff" stroke="#63b8ff" points="2433.11,-147.13 2442.2,-152.58 2438.49,-142.65 2433.11,-147.13"/>
</a>
</g>
</g>
<!-- Node3 -->
<g id="Node000003" class="node">
<title>Node3</title>
<g id="a_Node000003"><a xlink:href="classcom_1_1example_1_1mybookshelf_1_1BookRecommendationFlow.html#a78dda71d2c403a463d824ff61b2ce27f" target="_top" xlink:title=" ">
<polygon fill="white" stroke="#666666" points="416,-402.6 239,-402.6 239,-361.6 416,-361.6 416,-402.6"/>
<text text-anchor="start" x="247" y="-390.6" font-family="Helvetica,sans-Serif" font-size="10.00">com.example.mybookshelf.</text>
<text text-anchor="start" x="247" y="-379.6" font-family="Helvetica,sans-Serif" font-size="10.00">BookRecommendationFlow.build</text>
<text text-anchor="middle" x="327.5" y="-368.6" font-family="Helvetica,sans-Serif" font-size="10.00">AIStringBased</text>
</a>
</g>
</g>
<!-- Node1&#45;&gt;Node3 -->
<g id="edge2_Node000001_Node000003" class="edge">
<title>Node1&#45;&gt;Node3</title>
<g id="a_edge2_Node000001_Node000003"><a xlink:title=" ">
<path fill="none" stroke="#63b8ff" d="M149.46,-304.64C184.7,-320.06 233.09,-341.23 270.38,-357.54"/>
<polygon fill="#63b8ff" stroke="#63b8ff" points="269.04,-360.78 279.6,-361.58 271.85,-354.36 269.04,-360.78"/>
</a>
</g>
</g>
<!-- Node5 -->
<g id="Node000005" class="node">
<title>Node5</title>
<g id="a_Node000005"><a xlink:href="classcom_1_1example_1_1mybookshelf_1_1BookRecommendationFlow.html#a02b6d699653b58f244907bd10db53ab5" target="_top" xlink:title=" ">
<polygon fill="white" stroke="#666666" points="2551,-541.6 2367,-541.6 2367,-500.6 2551,-500.6 2551,-541.6"/>
<text text-anchor="start" x="2375" y="-529.6" font-family="Helvetica,sans-Serif" font-size="10.00">com.example.mybookshelf.</text>
<text text-anchor="start" x="2375" y="-518.6" font-family="Helvetica,sans-Serif" font-size="10.00">BookRecommendationFlow.create</text>
<text text-anchor="middle" x="2459" y="-507.6" font-family="Helvetica,sans-Serif" font-size="10.00">StyledGridButton</text>
</a>
</g>
</g>
<!-- Node1&#45;&gt;Node5 -->
<g id="edge39_Node000001_Node000005" class="edge">
<title>Node1&#45;&gt;Node5</title>
<g id="a_edge39_Node000001_Node000005"><a xlink:title=" ">
<path fill="none" stroke="#63b8ff" d="M110.53,-304.71C146.18,-392.43 299.12,-730.1 541,-730.1 541,-730.1 541,-730.1 1501.5,-730.1 1869.98,-730.1 1990.39,-795.22 2326,-643.1 2372.05,-622.22 2412.68,-578.91 2436.31,-549.92"/>
<polygon fill="#63b8ff" stroke="#63b8ff" points="2439.29,-551.78 2442.79,-541.78 2433.82,-547.42 2439.29,-551.78"/>
</a>
</g>
</g>
<!-- Node4 -->
<g id="Node000004" class="node">
<title>Node4</title>
<g id="a_Node000004"><a xlink:href="classcom_1_1example_1_1mybookshelf_1_1BookRecommendationFlow.html#ae50cf18619872a365eebe91c18d86e8d" target="_top" xlink:title=" ">
<polygon fill="white" stroke="#666666" points="632,-519.1 452,-519.1 452,-489.1 632,-489.1 632,-519.1"/>
<text text-anchor="start" x="460" y="-507.1" font-family="Helvetica,sans-Serif" font-size="10.00">com.example.mybookshelf.</text>
<text text-anchor="middle" x="542" y="-496.1" font-family="Helvetica,sans-Serif" font-size="10.00">BookRecommendationFlow.callAI</text>
</a>
</g>
</g>
<!-- Node3&#45;&gt;Node4 -->
<g id="edge3_Node000003_Node000004" class="edge">
<title>Node3&#45;&gt;Node4</title>
<g id="a_edge3_Node000003_Node000004"><a xlink:title=" ">
<path fill="none" stroke="#63b8ff" d="M364.55,-402.79C404.01,-425.45 466.87,-461.53 505.94,-483.96"/>
<polygon fill="#63b8ff" stroke="#63b8ff" points="504.44,-487.14 514.85,-489.08 507.92,-481.07 504.44,-487.14"/>
</a>
</g>
</g>
<!-- Node4&#45;&gt;Node2 -->
<g id="edge4_Node000004_Node000002" class="edge">
<title>Node4&#45;&gt;Node2</title>
<g id="a_edge4_Node000004_Node000002"><a xlink:title=" ">
<path fill="none" stroke="#63b8ff" d="M553.75,-488.96C594.64,-432.64 747.24,-233.81 925,-144.1 1156.65,-27.18 1240.02,-40.1 1499.5,-40.1 1499.5,-40.1 1499.5,-40.1 1983.5,-40.1 2142.03,-40.1 2319.67,-109.78 2405.7,-148.27"/>
<polygon fill="#63b8ff" stroke="#63b8ff" points="2404.42,-151.53 2414.98,-152.46 2407.31,-145.15 2404.42,-151.53"/>
</a>
</g>
</g>
<!-- Node4&#45;&gt;Node4 -->
<g id="edge5_Node000004_Node000004" class="edge">
<title>Node4&#45;&gt;Node4</title>
<g id="a_edge5_Node000004_Node000004"><a xlink:title=" ">
<path fill="none" stroke="#63b8ff" d="M504.38,-519.37C496.02,-528.5 508.56,-537.1 542,-537.1 561.85,-537.1 574.34,-534.07 579.46,-529.69"/>
<polygon fill="#63b8ff" stroke="#63b8ff" points="582.96,-529.42 579.62,-519.37 575.96,-529.32 582.96,-529.42"/>
</a>
</g>
</g>
<!-- Node4&#45;&gt;Node5 -->
<g id="edge6_Node000004_Node000005" class="edge">
<title>Node4&#45;&gt;Node5</title>
<g id="a_edge6_Node000004_Node000005"><a xlink:title=" ">
<path fill="none" stroke="#63b8ff" d="M632.16,-511.27C702.41,-517.85 802.58,-529.33 889,-547.1 1056.47,-581.52 1087.53,-654.1 1258.5,-654.1 1258.5,-654.1 1258.5,-654.1 1983.5,-654.1 2137.21,-654.1 2181.91,-659.62 2326,-606.1 2362.5,-592.54 2399.37,-567.64 2424.83,-548.29"/>
<polygon fill="#63b8ff" stroke="#63b8ff" points="2427.24,-550.84 2433.01,-541.96 2422.95,-545.31 2427.24,-550.84"/>
</a>
</g>
</g>
<!-- Node6 -->
<g id="Node000006" class="node">
<title>Node6</title>
<g id="a_Node000006"><a xlink:href="classcom_1_1example_1_1mybookshelf_1_1apis_1_1AiAPI.html#a4a45b91f0717302661d9e35ed956c049" target="_top" xlink:title=" ">
<polygon fill="white" stroke="#666666" points="866.5,-646.1 690.5,-646.1 690.5,-616.1 866.5,-616.1 866.5,-646.1"/>
<text text-anchor="start" x="698.5" y="-634.1" font-family="Helvetica,sans-Serif" font-size="10.00">com.example.mybookshelf.apis.</text>
<text text-anchor="middle" x="778.5" y="-623.1" font-family="Helvetica,sans-Serif" font-size="10.00">AiAPI.fetchResponse</text>
</a>
</g>
</g>
<!-- Node4&#45;&gt;Node6 -->
<g id="edge7_Node000004_Node000006" class="edge">
<title>Node4&#45;&gt;Node6</title>
<g id="a_edge7_Node000004_Node000006"><a xlink:title=" ">
<path fill="none" stroke="#63b8ff" d="M556.76,-519.33C578.21,-542.1 621.97,-584.72 668,-607.1 672.1,-609.09 676.36,-610.92 680.73,-612.59"/>
<polygon fill="#63b8ff" stroke="#63b8ff" points="679.83,-615.99 690.42,-616.03 682.17,-609.39 679.83,-615.99"/>
</a>
</g>
</g>
<!-- Node7 -->
<g id="Node000007" class="node">
<title>Node7</title>
<g id="a_Node000007"><a xlink:href="classcom_1_1example_1_1mybookshelf_1_1BookRecommendationFlow.html#a4dceb0fa4d170b8c7e5a7a6718593dfe" target="_top" xlink:title=" ">
<polygon fill="white" stroke="#666666" points="878.5,-435.1 678.5,-435.1 678.5,-405.1 878.5,-405.1 878.5,-435.1"/>
<text text-anchor="start" x="686.5" y="-423.1" font-family="Helvetica,sans-Serif" font-size="10.00">com.example.mybookshelf.</text>
<text text-anchor="middle" x="778.5" y="-412.1" font-family="Helvetica,sans-Serif" font-size="10.00">BookRecommendationFlow.handleNo</text>
</a>
</g>
</g>
<!-- Node4&#45;&gt;Node7 -->
<g id="edge9_Node000004_Node000007" class="edge">
<title>Node4&#45;&gt;Node7</title>
<g id="a_edge9_Node000004_Node000007"><a xlink:title=" ">
<path fill="none" stroke="#63b8ff" d="M573.54,-489.06C598.52,-477.15 634.99,-460.65 668,-449.1 679.57,-445.05 692,-441.25 704.18,-437.82"/>
<polygon fill="#63b8ff" stroke="#63b8ff" points="705.16,-441.18 713.88,-435.15 703.31,-434.43 705.16,-441.18"/>
</a>
</g>
</g>
<!-- Node17 -->
<g id="Node000017" class="node">
<title>Node17</title>
<g id="a_Node000017"><a xlink:href="classcom_1_1example_1_1mybookshelf_1_1BookRecommendationFlow.html#ac62af5d6edeffa96b2862a609ebb40df" target="_top" xlink:title=" ">
<polygon fill="white" stroke="#666666" points="886.5,-597.6 670.5,-597.6 670.5,-556.6 886.5,-556.6 886.5,-597.6"/>
<text text-anchor="start" x="678.5" y="-585.6" font-family="Helvetica,sans-Serif" font-size="10.00">com.example.mybookshelf.</text>
<text text-anchor="start" x="678.5" y="-574.6" font-family="Helvetica,sans-Serif" font-size="10.00">BookRecommendationFlow.hideThinking</text>
<text text-anchor="middle" x="778.5" y="-563.6" font-family="Helvetica,sans-Serif" font-size="10.00">Animation</text>
</a>
</g>
</g>
<!-- Node4&#45;&gt;Node17 -->
<g id="edge37_Node000004_Node000017" class="edge">
<title>Node4&#45;&gt;Node17</title>
<g id="a_edge37_Node000004_Node000017"><a xlink:title=" ">
<path fill="none" stroke="#63b8ff" d="M591.3,-519.13C623.18,-529.06 665.6,-542.26 701.9,-553.56"/>
<polygon fill="#63b8ff" stroke="#63b8ff" points="700.89,-556.91 711.48,-556.54 702.97,-550.23 700.89,-556.91"/>
</a>
</g>
</g>
<!-- Node18 -->
<g id="Node000018" class="node">
<title>Node18</title>
<g id="a_Node000018"><a xlink:href="classcom_1_1example_1_1mybookshelf_1_1BookRecommendationFlow.html#a78597ba37409daeee77dcfa6236b2e6a" target="_top" xlink:title=" ">
<polygon fill="white" stroke="#666666" points="889,-499.6 668,-499.6 668,-458.6 889,-458.6 889,-499.6"/>
<text text-anchor="start" x="676" y="-487.6" font-family="Helvetica,sans-Serif" font-size="10.00">com.example.mybookshelf.</text>
<text text-anchor="start" x="676" y="-476.6" font-family="Helvetica,sans-Serif" font-size="10.00">BookRecommendationFlow.showThinking</text>
<text text-anchor="middle" x="778.5" y="-465.6" font-family="Helvetica,sans-Serif" font-size="10.00">Animation</text>
</a>
</g>
</g>
<!-- Node4&#45;&gt;Node18 -->
<g id="edge38_Node000004_Node000018" class="edge">
<title>Node4&#45;&gt;Node18</title>
<g id="a_edge38_Node000004_Node000018"><a xlink:title=" ">
<path fill="none" stroke="#63b8ff" d="M632.32,-494.57C640.7,-493.68 649.27,-492.77 657.86,-491.85"/>
<polygon fill="#63b8ff" stroke="#63b8ff" points="658.37,-495.32 667.94,-490.77 657.63,-488.35 658.37,-495.32"/>
</a>
</g>
</g>
<!-- Node6&#45;&gt;Node6 -->
<g id="edge8_Node000006_Node000006" class="edge">
<title>Node6&#45;&gt;Node6</title>
<g id="a_edge8_Node000006_Node000006"><a xlink:title=" ">
<path fill="none" stroke="#63b8ff" d="M737.02,-646.37C727.8,-655.5 741.63,-664.1 778.5,-664.1 800.39,-664.1 814.16,-661.07 819.81,-656.69"/>
<polygon fill="#63b8ff" stroke="#63b8ff" points="823.31,-656.43 819.98,-646.37 816.31,-656.31 823.31,-656.43"/>
</a>
</g>
</g>
<!-- Node7&#45;&gt;Node2 -->
<g id="edge10_Node000007_Node000002" class="edge">
<title>Node7&#45;&gt;Node2</title>
<g id="a_edge10_Node000007_Node000002"><a xlink:title=" ">
<path fill="none" stroke="#63b8ff" d="M791.37,-405.02C841.1,-343.68 1040.34,-116.1 1258.5,-116.1 1258.5,-116.1 1258.5,-116.1 1501.5,-116.1 1868.2,-116.1 1961.76,-104.64 2326,-147.1 2334.86,-148.13 2344.01,-149.43 2353.18,-150.9"/>
<polygon fill="#63b8ff" stroke="#63b8ff" points="2352.67,-154.36 2363.11,-152.56 2353.82,-147.46 2352.67,-154.36"/>
</a>
</g>
</g>
<!-- Node7&#45;&gt;Node5 -->
<g id="edge11_Node000007_Node000005" class="edge">
<title>Node7&#45;&gt;Node5</title>
<g id="a_edge11_Node000007_Node000005"><a xlink:title=" ">
<path fill="none" stroke="#63b8ff" d="M843.45,-435.13C858.53,-439.2 874.45,-443.92 889,-449.1 1058.8,-509.48 1078.28,-616.1 1258.5,-616.1 1258.5,-616.1 1258.5,-616.1 1983.5,-616.1 2136.92,-616.1 2177.36,-611.06 2326,-573.1 2352.53,-566.32 2380.92,-555.62 2404.54,-545.68"/>
<polygon fill="#63b8ff" stroke="#63b8ff" points="2406.2,-548.78 2414.02,-541.63 2403.44,-542.35 2406.2,-548.78"/>
</a>
</g>
</g>
<!-- Node8 -->
<g id="Node000008" class="node">
<title>Node8</title>
<g id="a_Node000008"><a xlink:href="classcom_1_1example_1_1mybookshelf_1_1BookRecommendationFlow.html#a22f0dcaea578fbd7358e6237cd4873d4" target="_top" xlink:title=" ">
<polygon fill="white" stroke="#666666" points="1121,-430.1 925,-430.1 925,-400.1 1121,-400.1 1121,-430.1"/>
<text text-anchor="start" x="933" y="-418.1" font-family="Helvetica,sans-Serif" font-size="10.00">com.example.mybookshelf.</text>
<text text-anchor="middle" x="1023" y="-407.1" font-family="Helvetica,sans-Serif" font-size="10.00">BookRecommendationFlow.handleAI</text>
</a>
</g>
</g>
<!-- Node7&#45;&gt;Node8 -->
<g id="edge12_Node000007_Node000008" class="edge">
<title>Node7&#45;&gt;Node8</title>
<g id="a_edge12_Node000007_Node000008"><a xlink:title=" ">
<path fill="none" stroke="#63b8ff" d="M878.83,-418.05C890.57,-417.81 902.59,-417.56 914.43,-417.31"/>
<polygon fill="#63b8ff" stroke="#63b8ff" points="914.85,-420.81 924.78,-417.1 914.71,-413.81 914.85,-420.81"/>
</a>
</g>
</g>
<!-- Node9 -->
<g id="Node000009" class="node">
<title>Node9</title>
<g id="a_Node000009"><a xlink:href="classcom_1_1example_1_1mybookshelf_1_1BookRecommendationFlow.html#a276e931dabe3e85af257a9d16ce7cc67" target="_top" xlink:title=" ">
<polygon fill="white" stroke="#666666" points="2084,-299.6 1881,-299.6 1881,-258.6 2084,-258.6 2084,-299.6"/>
<text text-anchor="start" x="1889" y="-287.6" font-family="Helvetica,sans-Serif" font-size="10.00">com.example.mybookshelf.</text>
<text text-anchor="start" x="1889" y="-276.6" font-family="Helvetica,sans-Serif" font-size="10.00">BookRecommendationFlow.showBook</text>
<text text-anchor="middle" x="1982.5" y="-265.6" font-family="Helvetica,sans-Serif" font-size="10.00">BasedStep1</text>
</a>
</g>
</g>
<!-- Node8&#45;&gt;Node9 -->
<g id="edge13_Node000008_Node000009" class="edge">
<title>Node8&#45;&gt;Node9</title>
<g id="a_edge13_Node000008_Node000009"><a xlink:title=" ">
<path fill="none" stroke="#63b8ff" d="M1085,-400.07C1107.54,-394.86 1133.34,-389.27 1157,-385.1 1410.8,-340.26 1711.72,-306.4 1870.52,-290.01"/>
<polygon fill="#63b8ff" stroke="#63b8ff" points="1871.18,-293.46 1880.77,-288.96 1870.47,-286.5 1871.18,-293.46"/>
</a>
</g>
</g>
<!-- Node11 -->
<g id="Node000011" class="node">
<title>Node11</title>
<g id="a_Node000011"><a xlink:href="classcom_1_1example_1_1mybookshelf_1_1BookRecommendationFlow.html#a4c7dc337216592f7f214f69ce7009d37" target="_top" xlink:title=" ">
<polygon fill="white" stroke="#666666" points="1362,-435.6 1157,-435.6 1157,-394.6 1362,-394.6 1362,-435.6"/>
<text text-anchor="start" x="1165" y="-423.6" font-family="Helvetica,sans-Serif" font-size="10.00">com.example.mybookshelf.</text>
<text text-anchor="start" x="1165" y="-412.6" font-family="Helvetica,sans-Serif" font-size="10.00">BookRecommendationFlow.showFresh</text>
<text text-anchor="middle" x="1259.5" y="-401.6" font-family="Helvetica,sans-Serif" font-size="10.00">StartStep1</text>
</a>
</g>
</g>
<!-- Node8&#45;&gt;Node11 -->
<g id="edge20_Node000008_Node000011" class="edge">
<title>Node8&#45;&gt;Node11</title>
<g id="a_edge20_Node000008_Node000011"><a xlink:title=" ">
<path fill="none" stroke="#63b8ff" d="M1121.07,-415.1C1129.59,-415.1 1138.25,-415.1 1146.86,-415.1"/>
<polygon fill="#63b8ff" stroke="#63b8ff" points="1146.95,-418.6 1156.95,-415.1 1146.95,-411.6 1146.95,-418.6"/>
</a>
</g>
</g>
<!-- Node9&#45;&gt;Node2 -->
<g id="edge14_Node000009_Node000002" class="edge">
<title>Node9&#45;&gt;Node2</title>
<g id="a_edge14_Node000009_Node000002"><a xlink:title=" ">
<path fill="none" stroke="#63b8ff" d="M2077.04,-258.58C2091.75,-255.39 2106.78,-252.14 2121,-249.1 2212.03,-229.62 2235.27,-226.94 2326,-206.1 2339.52,-202.99 2353.79,-199.57 2367.75,-196.14"/>
<polygon fill="#63b8ff" stroke="#63b8ff" points="2368.97,-199.45 2377.84,-193.66 2367.3,-192.65 2368.97,-199.45"/>
</a>
</g>
</g>
<!-- Node9&#45;&gt;Node5 -->
<g id="edge15_Node000009_Node000005" class="edge">
<title>Node9&#45;&gt;Node5</title>
<g id="a_edge15_Node000009_Node000005"><a xlink:title=" ">
<path fill="none" stroke="#63b8ff" d="M2066.37,-299.68C2152.99,-322.08 2282.29,-358.28 2326,-385.1 2372.15,-413.4 2413.5,-461.5 2437.16,-492.26"/>
<polygon fill="#63b8ff" stroke="#63b8ff" points="2434.53,-494.58 2443.35,-500.44 2440.11,-490.36 2434.53,-494.58"/>
</a>
</g>
</g>
<!-- Node10 -->
<g id="Node000010" class="node">
<title>Node10</title>
<g id="a_Node000010"><a xlink:href="classcom_1_1example_1_1mybookshelf_1_1BookRecommendationFlow.html#a5c657be258c13c85848c7b7115f8a0b5" target="_top" xlink:title=" ">
<polygon fill="white" stroke="#666666" points="2325,-299.6 2122,-299.6 2122,-258.6 2325,-258.6 2325,-299.6"/>
<text text-anchor="start" x="2130" y="-287.6" font-family="Helvetica,sans-Serif" font-size="10.00">com.example.mybookshelf.</text>
<text text-anchor="start" x="2130" y="-276.6" font-family="Helvetica,sans-Serif" font-size="10.00">BookRecommendationFlow.showBook</text>
<text text-anchor="middle" x="2223.5" y="-265.6" font-family="Helvetica,sans-Serif" font-size="10.00">BasedStep2</text>
</a>
</g>
</g>
<!-- Node9&#45;&gt;Node10 -->
<g id="edge16_Node000009_Node000010" class="edge">
<title>Node9&#45;&gt;Node10</title>
<g id="a_edge16_Node000009_Node000010"><a xlink:title=" ">
<path fill="none" stroke="#63b8ff" d="M2084.16,-279.1C2093.35,-279.1 2102.68,-279.1 2111.94,-279.1"/>
<polygon fill="#63b8ff" stroke="#63b8ff" points="2111.95,-282.6 2121.95,-279.1 2111.95,-275.6 2111.95,-282.6"/>
</a>
</g>
</g>
<!-- Node10&#45;&gt;Node1 -->
<g id="edge19_Node000010_Node000001" class="edge">
<title>Node10&#45;&gt;Node1</title>
<g id="a_edge19_Node000010_Node000001"><a xlink:title=" ">
<path fill="none" stroke="#63b8ff" d="M2150.38,-258.51C1940.66,-200.54 1312.13,-40.1 779.5,-40.1 541,-40.1 541,-40.1 541,-40.1 365.19,-40.1 194.08,-191.71 129.51,-255.91"/>
<polygon fill="#63b8ff" stroke="#63b8ff" points="126.74,-253.73 122.16,-263.29 131.7,-258.67 126.74,-253.73"/>
</a>
</g>
</g>
<!-- Node10&#45;&gt;Node2 -->
<g id="edge17_Node000010_Node000002" class="edge">
<title>Node10&#45;&gt;Node2</title>
<g id="a_edge17_Node000010_Node000002"><a xlink:title=" ">
<path fill="none" stroke="#63b8ff" d="M2289.27,-258.51C2301.6,-254.1 2314.3,-249.22 2326,-244.1 2356.36,-230.8 2389.18,-213.16 2414.5,-198.79"/>
<polygon fill="#63b8ff" stroke="#63b8ff" points="2416.53,-201.66 2423.47,-193.66 2413.05,-195.59 2416.53,-201.66"/>
</a>
</g>
</g>
<!-- Node10&#45;&gt;Node5 -->
<g id="edge18_Node000010_Node000005" class="edge">
<title>Node10&#45;&gt;Node5</title>
<g id="a_edge18_Node000010_Node000005"><a xlink:title=" ">
<path fill="none" stroke="#63b8ff" d="M2302.2,-299.65C2310.68,-303.67 2318.83,-308.44 2326,-314.1 2386.84,-362.06 2427.82,-446.26 2446.48,-491.06"/>
<polygon fill="#63b8ff" stroke="#63b8ff" points="2443.32,-492.58 2450.33,-500.52 2449.8,-489.94 2443.32,-492.58"/>
</a>
</g>
</g>
<!-- Node11&#45;&gt;Node2 -->
<g id="edge21_Node000011_Node000002" class="edge">
<title>Node11&#45;&gt;Node2</title>
<g id="a_edge21_Node000011_Node000002"><a xlink:title=" ">
<path fill="none" stroke="#63b8ff" d="M1290.83,-394.55C1353.1,-353.42 1501.13,-260.97 1639,-215.1 1883.71,-133.66 2192.19,-146.44 2351.65,-160.88"/>
<polygon fill="#63b8ff" stroke="#63b8ff" points="2351.66,-164.4 2361.94,-161.83 2352.3,-157.43 2351.66,-164.4"/>
</a>
</g>
</g>
<!-- Node11&#45;&gt;Node5 -->
<g id="edge22_Node000011_Node000005" class="edge">
<title>Node11&#45;&gt;Node5</title>
<g id="a_edge22_Node000011_Node000005"><a xlink:title=" ">
<path fill="none" stroke="#63b8ff" d="M1295.25,-435.74C1372.46,-479.6 1565.37,-578.1 1740.5,-578.1 1740.5,-578.1 1740.5,-578.1 1983.5,-578.1 2113.12,-578.1 2261.24,-556.87 2357.01,-540.32"/>
<polygon fill="#63b8ff" stroke="#63b8ff" points="2357.73,-543.75 2366.98,-538.58 2356.53,-536.85 2357.73,-543.75"/>
</a>
</g>
</g>
<!-- Node12 -->
<g id="Node000012" class="node">
<title>Node12</title>
<g id="a_Node000012"><a xlink:href="classcom_1_1example_1_1mybookshelf_1_1BookRecommendationFlow.html#aaf567ca97b0d7f0c58ebba4d6f4b18bd" target="_top" xlink:title=" ">
<polygon fill="white" stroke="#666666" points="1603,-435.6 1398,-435.6 1398,-394.6 1603,-394.6 1603,-435.6"/>
<text text-anchor="start" x="1406" y="-423.6" font-family="Helvetica,sans-Serif" font-size="10.00">com.example.mybookshelf.</text>
<text text-anchor="start" x="1406" y="-412.6" font-family="Helvetica,sans-Serif" font-size="10.00">BookRecommendationFlow.showFresh</text>
<text text-anchor="middle" x="1500.5" y="-401.6" font-family="Helvetica,sans-Serif" font-size="10.00">StartStep2</text>
</a>
</g>
</g>
<!-- Node11&#45;&gt;Node12 -->
<g id="edge23_Node000011_Node000012" class="edge">
<title>Node11&#45;&gt;Node12</title>
<g id="a_edge23_Node000011_Node000012"><a xlink:title=" ">
<path fill="none" stroke="#63b8ff" d="M1362.2,-415.1C1370.7,-415.1 1379.31,-415.1 1387.87,-415.1"/>
<polygon fill="#63b8ff" stroke="#63b8ff" points="1387.89,-418.6 1397.89,-415.1 1387.89,-411.6 1387.89,-418.6"/>
</a>
</g>
</g>
<!-- Node12&#45;&gt;Node2 -->
<g id="edge24_Node000012_Node000002" class="edge">
<title>Node12&#45;&gt;Node2</title>
<g id="a_edge24_Node000012_Node000002"><a xlink:title=" ">
<path fill="none" stroke="#63b8ff" d="M1529.62,-394.34C1590.11,-350.9 1738.63,-250.75 1880,-206.1 1964.94,-179.26 2209.34,-173.77 2351.67,-172.92"/>
<polygon fill="#63b8ff" stroke="#63b8ff" points="2351.75,-176.42 2361.74,-172.87 2351.72,-169.42 2351.75,-176.42"/>
</a>
</g>
</g>
<!-- Node12&#45;&gt;Node5 -->
<g id="edge25_Node000012_Node000005" class="edge">
<title>Node12&#45;&gt;Node5</title>
<g id="a_edge25_Node000012_Node000005"><a xlink:title=" ">
<path fill="none" stroke="#63b8ff" d="M1594.14,-435.61C1609.11,-438.64 1624.46,-441.58 1639,-444.1 1852.01,-480.87 1905.62,-490.78 2121,-509.1 2199.93,-515.81 2289.56,-518.78 2356.54,-520.08"/>
<polygon fill="#63b8ff" stroke="#63b8ff" points="2356.61,-523.59 2366.67,-520.27 2356.74,-516.59 2356.61,-523.59"/>
</a>
</g>
</g>
<!-- Node13 -->
<g id="Node000013" class="node">
<title>Node13</title>
<g id="a_Node000013"><a xlink:href="classcom_1_1example_1_1mybookshelf_1_1BookRecommendationFlow.html#a2bc1c0125eb3c1fe64ed1ed3ee93d3eb" target="_top" xlink:title=" ">
<polygon fill="white" stroke="#666666" points="1844,-435.6 1639,-435.6 1639,-394.6 1844,-394.6 1844,-435.6"/>
<text text-anchor="start" x="1647" y="-423.6" font-family="Helvetica,sans-Serif" font-size="10.00">com.example.mybookshelf.</text>
<text text-anchor="start" x="1647" y="-412.6" font-family="Helvetica,sans-Serif" font-size="10.00">BookRecommendationFlow.showFresh</text>
<text text-anchor="middle" x="1741.5" y="-401.6" font-family="Helvetica,sans-Serif" font-size="10.00">StartStep3</text>
</a>
</g>
</g>
<!-- Node12&#45;&gt;Node13 -->
<g id="edge26_Node000012_Node000013" class="edge">
<title>Node12&#45;&gt;Node13</title>
<g id="a_edge26_Node000012_Node000013"><a xlink:title=" ">
<path fill="none" stroke="#63b8ff" d="M1603.2,-415.1C1611.7,-415.1 1620.31,-415.1 1628.87,-415.1"/>
<polygon fill="#63b8ff" stroke="#63b8ff" points="1628.89,-418.6 1638.89,-415.1 1628.89,-411.6 1628.89,-418.6"/>
</a>
</g>
</g>
<!-- Node13&#45;&gt;Node2 -->
<g id="edge27_Node000013_Node000002" class="edge">
<title>Node13&#45;&gt;Node2</title>
<g id="a_edge27_Node000013_Node000002"><a xlink:title=" ">
<path fill="none" stroke="#63b8ff" d="M1753.11,-394.54C1772.83,-358.61 1818.74,-284.81 1880,-249.1 1974,-194.3 2013.22,-220.96 2121,-206.1 2197.99,-195.47 2285.35,-187.02 2351.82,-181.33"/>
<polygon fill="#63b8ff" stroke="#63b8ff" points="2352.22,-184.81 2361.89,-180.48 2351.63,-177.83 2352.22,-184.81"/>
</a>
</g>
</g>
<!-- Node13&#45;&gt;Node5 -->
<g id="edge28_Node000013_Node000005" class="edge">
<title>Node13&#45;&gt;Node5</title>
<g id="a_edge28_Node000013_Node000005"><a xlink:title=" ">
<path fill="none" stroke="#63b8ff" d="M1836.3,-435.6C1850.9,-438.59 1865.84,-441.52 1880,-444.1 2046.05,-474.33 2240.96,-497.84 2356.72,-510.56"/>
<polygon fill="#63b8ff" stroke="#63b8ff" points="2356.66,-514.08 2366.98,-511.69 2357.42,-507.12 2356.66,-514.08"/>
</a>
</g>
</g>
<!-- Node14 -->
<g id="Node000014" class="node">
<title>Node14</title>
<g id="a_Node000014"><a xlink:href="classcom_1_1example_1_1mybookshelf_1_1BookRecommendationFlow.html#ad10515cfcf8650b6830b68f15d393b3b" target="_top" xlink:title=" ">
<polygon fill="white" stroke="#666666" points="2085,-435.6 1880,-435.6 1880,-394.6 2085,-394.6 2085,-435.6"/>
<text text-anchor="start" x="1888" y="-423.6" font-family="Helvetica,sans-Serif" font-size="10.00">com.example.mybookshelf.</text>
<text text-anchor="start" x="1888" y="-412.6" font-family="Helvetica,sans-Serif" font-size="10.00">BookRecommendationFlow.showFresh</text>
<text text-anchor="middle" x="1982.5" y="-401.6" font-family="Helvetica,sans-Serif" font-size="10.00">StartStep4</text>
</a>
</g>
</g>
<!-- Node13&#45;&gt;Node14 -->
<g id="edge29_Node000013_Node000014" class="edge">
<title>Node13&#45;&gt;Node14</title>
<g id="a_edge29_Node000013_Node000014"><a xlink:title=" ">
<path fill="none" stroke="#63b8ff" d="M1844.2,-415.1C1852.7,-415.1 1861.31,-415.1 1869.87,-415.1"/>
<polygon fill="#63b8ff" stroke="#63b8ff" points="1869.89,-418.6 1879.89,-415.1 1869.89,-411.6 1869.89,-418.6"/>
</a>
</g>
</g>
<!-- Node14&#45;&gt;Node2 -->
<g id="edge30_Node000014_Node000002" class="edge">
<title>Node14&#45;&gt;Node2</title>
<g id="a_edge30_Node000014_Node000002"><a xlink:title=" ">
<path fill="none" stroke="#63b8ff" d="M2065.17,-394.53C2151.78,-371.86 2282.04,-335.03 2326,-308.1 2371.73,-280.07 2412.93,-232.73 2436.7,-202.2"/>
<polygon fill="#63b8ff" stroke="#63b8ff" points="2439.63,-204.13 2442.94,-194.07 2434.08,-199.88 2439.63,-204.13"/>
</a>
</g>
</g>
<!-- Node14&#45;&gt;Node5 -->
<g id="edge31_Node000014_Node000005" class="edge">
<title>Node14&#45;&gt;Node5</title>
<g id="a_edge31_Node000014_Node000005"><a xlink:title=" ">
<path fill="none" stroke="#63b8ff" d="M2080.57,-435.6C2173.24,-455.21 2302.2,-482.58 2326,-488.1 2339.52,-491.22 2353.78,-494.66 2367.74,-498.08"/>
<polygon fill="#63b8ff" stroke="#63b8ff" points="2367.29,-501.58 2377.83,-500.58 2368.96,-494.78 2367.29,-501.58"/>
</a>
</g>
</g>
<!-- Node15 -->
<g id="Node000015" class="node">
<title>Node15</title>
<g id="a_Node000015"><a xlink:href="classcom_1_1example_1_1mybookshelf_1_1BookRecommendationFlow.html#a46c6733f27b3527d3934cee02cfcd7ac" target="_top" xlink:title=" ">
<polygon fill="white" stroke="#666666" points="2326,-435.6 2121,-435.6 2121,-394.6 2326,-394.6 2326,-435.6"/>
<text text-anchor="start" x="2129" y="-423.6" font-family="Helvetica,sans-Serif" font-size="10.00">com.example.mybookshelf.</text>
<text text-anchor="start" x="2129" y="-412.6" font-family="Helvetica,sans-Serif" font-size="10.00">BookRecommendationFlow.showFresh</text>
<text text-anchor="middle" x="2223.5" y="-401.6" font-family="Helvetica,sans-Serif" font-size="10.00">StartStep5</text>
</a>
</g>
</g>
<!-- Node14&#45;&gt;Node15 -->
<g id="edge32_Node000014_Node000015" class="edge">
<title>Node14&#45;&gt;Node15</title>
<g id="a_edge32_Node000014_Node000015"><a xlink:title=" ">
<path fill="none" stroke="#63b8ff" d="M2085.2,-415.1C2093.7,-415.1 2102.31,-415.1 2110.87,-415.1"/>
<polygon fill="#63b8ff" stroke="#63b8ff" points="2110.89,-418.6 2120.89,-415.1 2110.89,-411.6 2110.89,-418.6"/>
</a>
</g>
</g>
<!-- Node15&#45;&gt;Node2 -->
<g id="edge33_Node000015_Node000002" class="edge">
<title>Node15&#45;&gt;Node2</title>
<g id="a_edge33_Node000015_Node000002"><a xlink:title=" ">
<path fill="none" stroke="#63b8ff" d="M2302.2,-394.54C2310.68,-390.52 2318.83,-385.75 2326,-380.1 2386.84,-332.13 2427.82,-247.93 2446.48,-203.13"/>
<polygon fill="#63b8ff" stroke="#63b8ff" points="2449.8,-204.25 2450.33,-193.67 2443.32,-201.61 2449.8,-204.25"/>
</a>
</g>
</g>
<!-- Node15&#45;&gt;Node5 -->
<g id="edge36_Node000015_Node000005" class="edge">
<title>Node15&#45;&gt;Node5</title>
<g id="a_edge36_Node000015_Node000005"><a xlink:title=" ">
<path fill="none" stroke="#63b8ff" d="M2289.27,-435.68C2301.6,-440.09 2314.3,-444.97 2326,-450.1 2356.36,-463.39 2389.18,-481.03 2414.5,-495.4"/>
<polygon fill="#63b8ff" stroke="#63b8ff" points="2413.05,-498.6 2423.47,-500.53 2416.53,-492.53 2413.05,-498.6"/>
</a>
</g>
</g>
<!-- Node16 -->
<g id="Node000016" class="node">
<title>Node16</title>
<g id="a_Node000016"><a xlink:href="classcom_1_1example_1_1mybookshelf_1_1BookRecommendationFlow.html#abe4c57ea57ed54c344739295e70066ff" target="_top" xlink:title=" ">
<polygon fill="white" stroke="#666666" points="2547.5,-684.6 2370.5,-684.6 2370.5,-643.6 2547.5,-643.6 2547.5,-684.6"/>
<text text-anchor="start" x="2378.5" y="-672.6" font-family="Helvetica,sans-Serif" font-size="10.00">com.example.mybookshelf.</text>
<text text-anchor="start" x="2378.5" y="-661.6" font-family="Helvetica,sans-Serif" font-size="10.00">BookRecommendationFlow.build</text>
<text text-anchor="middle" x="2459" y="-650.6" font-family="Helvetica,sans-Serif" font-size="10.00">AIStringFresh</text>
</a>
</g>
</g>
<!-- Node15&#45;&gt;Node16 -->
<g id="edge34_Node000015_Node000016" class="edge">
<title>Node15&#45;&gt;Node16</title>
<g id="a_edge34_Node000015_Node000016"><a xlink:title=" ">
<path fill="none" stroke="#63b8ff" d="M2244.01,-435.9C2285.92,-480.59 2384.58,-585.8 2431.85,-636.21"/>
<polygon fill="#63b8ff" stroke="#63b8ff" points="2429.32,-638.63 2438.71,-643.53 2434.43,-633.84 2429.32,-638.63"/>
</a>
</g>
</g>
<!-- Node16&#45;&gt;Node4 -->
<g id="edge35_Node000016_Node000004" class="edge">
<title>Node16&#45;&gt;Node4</title>
<g id="a_edge35_Node000016_Node000004"><a xlink:title=" ">
<path fill="none" stroke="#63b8ff" d="M2370.33,-668.38C2201.97,-676.22 1821.72,-692.1 1501.5,-692.1 1022,-692.1 1022,-692.1 1022,-692.1 864.44,-692.1 806.74,-747.77 668,-673.1 608.71,-641.18 569.95,-567.48 552.93,-528.81"/>
<polygon fill="#63b8ff" stroke="#63b8ff" points="556.03,-527.16 548.89,-519.33 549.59,-529.9 556.03,-527.16"/>
</a>
</g>
</g>
</g>
</svg>
