<?xml version="1.0" encoding="UTF-8" standalone="no"?>
<!DOCTYPE svg PUBLIC "-//W3C//DTD SVG 1.1//EN"
 "http://www.w3.org/Graphics/SVG/1.1/DTD/svg11.dtd">
<!-- Generated by graphviz version 2.43.0 (0)
 -->
<!-- Title: com.example.mybookshelf.dataClass.Book.getGenre Pages: 1 -->
<svg width="1745pt" height="129pt"
 viewBox="0.00 0.00 1745.00 129.00" xmlns="http://www.w3.org/2000/svg" xmlns:xlink="http://www.w3.org/1999/xlink">
<g id="graph0" class="graph" transform="scale(1 1) rotate(0) translate(4 125)">
<title>com.example.mybookshelf.dataClass.Book.getGenre</title>
<!-- Node1 -->
<g id="Node000001" class="node">
<title>Node1</title>
<g id="a_Node000001"><a xlink:title=" ">
<polygon fill="#999999" stroke="#666666" points="1737,-54 1563,-54 1563,-24 1737,-24 1737,-54"/>
<text text-anchor="start" x="1571" y="-42" font-family="Helvetica,sans-Serif" font-size="10.00">com.example.mybookshelf.data</text>
<text text-anchor="middle" x="1650" y="-31" font-family="Helvetica,sans-Serif" font-size="10.00">Class.Book.getGenre</text>
</a>
</g>
</g>
<!-- Node2 -->
<g id="Node000002" class="node">
<title>Node2</title>
<g id="a_Node000002"><a xlink:href="classcom_1_1example_1_1mybookshelf_1_1UIMaster.html#a39a8f40aa163994c415f165d94ee47fd" target="_top" xlink:title=" ">
<polygon fill="white" stroke="#666666" points="1527,-78 1375,-78 1375,-48 1527,-48 1527,-78"/>
<text text-anchor="start" x="1383" y="-66" font-family="Helvetica,sans-Serif" font-size="10.00">com.example.mybookshelf.</text>
<text text-anchor="middle" x="1451" y="-55" font-family="Helvetica,sans-Serif" font-size="10.00">UIMaster.filterBooks</text>
</a>
</g>
</g>
<!-- Node1&#45;&gt;Node2 -->
<g id="edge1_Node000001_Node000002" class="edge">
<title>Node1&#45;&gt;Node2</title>
<g id="a_edge1_Node000001_Node000002"><a xlink:title=" ">
<path fill="none" stroke="#63b8ff" d="M1552.79,-50.72C1544.17,-51.77 1535.53,-52.82 1527.14,-53.85"/>
<polygon fill="#63b8ff" stroke="#63b8ff" points="1553.38,-54.18 1562.88,-49.49 1552.53,-47.23 1553.38,-54.18"/>
</a>
</g>
</g>
<!-- Node10 -->
<g id="Node000010" class="node">
<title>Node10</title>
<g id="a_Node000010"><a xlink:href="classcom_1_1example_1_1mybookshelf_1_1MainActivity.html#ab1625f7432f6fcc4f53a63d3b893065f" target="_top" xlink:title=" ">
<polygon fill="white" stroke="#666666" points="1527,-30 1375,-30 1375,0 1527,0 1527,-30"/>
<text text-anchor="start" x="1383" y="-18" font-family="Helvetica,sans-Serif" font-size="10.00">com.example.mybookshelf.</text>
<text text-anchor="middle" x="1451" y="-7" font-family="Helvetica,sans-Serif" font-size="10.00">MainActivity.saveBook</text>
</a>
</g>
</g>
<!-- Node1&#45;&gt;Node10 -->
<g id="edge15_Node000001_Node000010" class="edge">
<title>Node1&#45;&gt;Node10</title>
<g id="a_edge15_Node000001_Node000010"><a xlink:title=" ">
<path fill="none" stroke="#63b8ff" d="M1552.79,-27.28C1544.17,-26.23 1535.53,-25.18 1527.14,-24.15"/>
<polygon fill="#63b8ff" stroke="#63b8ff" points="1552.53,-30.77 1562.88,-28.51 1553.38,-23.82 1552.53,-30.77"/>
</a>
</g>
</g>
<!-- Node3 -->
<g id="Node000003" class="node">
<title>Node3</title>
<g id="a_Node000003"><a xlink:href="classcom_1_1example_1_1mybookshelf_1_1UIMaster.html#a4636b546c38ace5aedccfd989edc0bb1" target="_top" xlink:title=" ">
<polygon fill="white" stroke="#666666" points="1339,-78 1187,-78 1187,-48 1339,-48 1339,-78"/>
<text text-anchor="start" x="1195" y="-66" font-family="Helvetica,sans-Serif" font-size="10.00">com.example.mybookshelf.</text>
<text text-anchor="middle" x="1263" y="-55" font-family="Helvetica,sans-Serif" font-size="10.00">UIMaster.handleListSearch</text>
</a>
</g>
</g>
<!-- Node2&#45;&gt;Node3 -->
<g id="edge2_Node000002_Node000003" class="edge">
<title>Node2&#45;&gt;Node3</title>
<g id="a_edge2_Node000002_Node000003"><a xlink:title=" ">
<path fill="none" stroke="#63b8ff" d="M1364.85,-63C1356.26,-63 1347.57,-63 1339.1,-63"/>
<polygon fill="#63b8ff" stroke="#63b8ff" points="1364.88,-66.5 1374.88,-63 1364.88,-59.5 1364.88,-66.5"/>
</a>
</g>
</g>
<!-- Node4 -->
<g id="Node000004" class="node">
<title>Node4</title>
<g id="a_Node000004"><a xlink:href="classcom_1_1example_1_1mybookshelf_1_1UIMaster.html#aa6aad8404432bdaf23db9b41e99a6ed5" target="_top" xlink:title=" ">
<polygon fill="white" stroke="#666666" points="1151,-78 970,-78 970,-48 1151,-48 1151,-78"/>
<text text-anchor="start" x="978" y="-66" font-family="Helvetica,sans-Serif" font-size="10.00">com.example.mybookshelf.</text>
<text text-anchor="middle" x="1060.5" y="-55" font-family="Helvetica,sans-Serif" font-size="10.00">UIMaster.setupNavigationButtons</text>
</a>
</g>
</g>
<!-- Node3&#45;&gt;Node4 -->
<g id="edge3_Node000003_Node000004" class="edge">
<title>Node3&#45;&gt;Node4</title>
<g id="a_edge3_Node000003_Node000004"><a xlink:title=" ">
<path fill="none" stroke="#63b8ff" d="M1176.55,-63C1168.1,-63 1159.5,-63 1151.01,-63"/>
<polygon fill="#63b8ff" stroke="#63b8ff" points="1176.77,-66.5 1186.77,-63 1176.77,-59.5 1176.77,-66.5"/>
</a>
</g>
</g>
<!-- Node5 -->
<g id="Node000005" class="node">
<title>Node5</title>
<g id="a_Node000005"><a xlink:href="classcom_1_1example_1_1mybookshelf_1_1UIMaster.html#ad609d5e0b54e87afcb60aed6c66a792e" target="_top" xlink:title=" ">
<polygon fill="white" stroke="#666666" points="934,-121 756,-121 756,-91 934,-91 934,-121"/>
<text text-anchor="start" x="764" y="-109" font-family="Helvetica,sans-Serif" font-size="10.00">com.example.mybookshelf.</text>
<text text-anchor="middle" x="845" y="-98" font-family="Helvetica,sans-Serif" font-size="10.00">UIMaster.navigateToStartingPage</text>
</a>
</g>
</g>
<!-- Node4&#45;&gt;Node5 -->
<g id="edge4_Node000004_Node000005" class="edge">
<title>Node4&#45;&gt;Node5</title>
<g id="a_edge4_Node000004_Node000005"><a xlink:title=" ">
<path fill="none" stroke="#63b8ff" d="M974.96,-80.03C957.01,-83.64 938.18,-87.43 920.63,-90.97"/>
<polygon fill="#63b8ff" stroke="#63b8ff" points="975.72,-83.44 984.83,-78.04 974.33,-76.58 975.72,-83.44"/>
</a>
</g>
</g>
<!-- Node6 -->
<g id="Node000006" class="node">
<title>Node6</title>
<g id="a_Node000006"><a xlink:href="classcom_1_1example_1_1mybookshelf_1_1UIMaster.html#ac2a608fcf86d3dbe14b4684dbbaf1431" target="_top" xlink:title=" ">
<polygon fill="white" stroke="#666666" points="340,-78 188,-78 188,-48 340,-48 340,-78"/>
<text text-anchor="start" x="196" y="-66" font-family="Helvetica,sans-Serif" font-size="10.00">com.example.mybookshelf.</text>
<text text-anchor="middle" x="264" y="-55" font-family="Helvetica,sans-Serif" font-size="10.00">UIMaster.navigateToDetails</text>
</a>
</g>
</g>
<!-- Node5&#45;&gt;Node6 -->
<g id="edge5_Node000005_Node000006" class="edge">
<title>Node5&#45;&gt;Node6</title>
<g id="a_edge5_Node000005_Node000006"><a xlink:title=" ">
<path fill="none" stroke="#63b8ff" d="M745.83,-107.53C650.79,-107.72 502.87,-104.58 376,-87 359.89,-84.77 342.63,-81.48 326.64,-78.05"/>
<polygon fill="#63b8ff" stroke="#63b8ff" points="746.01,-111.03 756,-107.5 745.99,-104.03 746.01,-111.03"/>
</a>
</g>
</g>
<!-- Node8 -->
<g id="Node000008" class="node">
<title>Node8</title>
<g id="a_Node000008"><a xlink:href="classcom_1_1example_1_1mybookshelf_1_1UIMaster.html#ad30bff41c8ec833af2293c0b6c8b47b2" target="_top" xlink:title=" ">
<polygon fill="white" stroke="#666666" points="720,-35 568,-35 568,-5 720,-5 720,-35"/>
<text text-anchor="start" x="576" y="-23" font-family="Helvetica,sans-Serif" font-size="10.00">com.example.mybookshelf.</text>
<text text-anchor="middle" x="644" y="-12" font-family="Helvetica,sans-Serif" font-size="10.00">UIMaster.navigateToGoals</text>
</a>
</g>
</g>
<!-- Node5&#45;&gt;Node8 -->
<g id="edge7_Node000005_Node000008" class="edge">
<title>Node5&#45;&gt;Node8</title>
<g id="a_edge7_Node000005_Node000008"><a xlink:title=" ">
<path fill="none" stroke="#63b8ff" d="M799.55,-86.79C763.37,-71.16 713.04,-49.4 679.77,-35.03"/>
<polygon fill="#63b8ff" stroke="#63b8ff" points="798.31,-90.07 808.88,-90.82 801.09,-83.64 798.31,-90.07"/>
</a>
</g>
</g>
<!-- Node9 -->
<g id="Node000009" class="node">
<title>Node9</title>
<g id="a_Node000009"><a xlink:href="classcom_1_1example_1_1mybookshelf_1_1UIMaster.html#ac859db60f9068e6a87b633ef697d4d0f" target="_top" xlink:title=" ">
<polygon fill="white" stroke="#666666" points="532,-78 376,-78 376,-48 532,-48 532,-78"/>
<text text-anchor="start" x="384" y="-66" font-family="Helvetica,sans-Serif" font-size="10.00">com.example.mybookshelf.</text>
<text text-anchor="middle" x="454" y="-55" font-family="Helvetica,sans-Serif" font-size="10.00">UIMaster.navigateToSettings</text>
</a>
</g>
</g>
<!-- Node5&#45;&gt;Node9 -->
<g id="edge14_Node000005_Node000009" class="edge">
<title>Node5&#45;&gt;Node9</title>
<g id="a_edge14_Node000005_Node000009"><a xlink:title=" ">
<path fill="none" stroke="#63b8ff" d="M745.68,-96.12C692.97,-90.71 626.91,-83.74 568,-77 556.41,-75.67 544.16,-74.21 532.17,-72.76"/>
<polygon fill="#63b8ff" stroke="#63b8ff" points="745.4,-99.61 755.7,-97.14 746.11,-92.64 745.4,-99.61"/>
</a>
</g>
</g>
<!-- Node7 -->
<g id="Node000007" class="node">
<title>Node7</title>
<g id="a_Node000007"><a xlink:href="classcom_1_1example_1_1mybookshelf_1_1UIMaster.html#a1533d0ed2384f2ec729cfcec7bd9a25f" target="_top" xlink:title=" ">
<polygon fill="white" stroke="#666666" points="152,-78 0,-78 0,-48 152,-48 152,-78"/>
<text text-anchor="start" x="8" y="-66" font-family="Helvetica,sans-Serif" font-size="10.00">com.example.mybookshelf.</text>
<text text-anchor="middle" x="76" y="-55" font-family="Helvetica,sans-Serif" font-size="10.00">UIMaster.createBookBox</text>
</a>
</g>
</g>
<!-- Node6&#45;&gt;Node7 -->
<g id="edge6_Node000006_Node000007" class="edge">
<title>Node6&#45;&gt;Node7</title>
<g id="a_edge6_Node000006_Node000007"><a xlink:title=" ">
<path fill="none" stroke="#63b8ff" d="M177.85,-63C169.26,-63 160.57,-63 152.1,-63"/>
<polygon fill="#63b8ff" stroke="#63b8ff" points="177.88,-66.5 187.88,-63 177.88,-59.5 177.88,-66.5"/>
</a>
</g>
</g>
<!-- Node8&#45;&gt;Node4 -->
<g id="edge13_Node000008_Node000004" class="edge">
<title>Node8&#45;&gt;Node4</title>
<g id="a_edge13_Node000008_Node000004"><a xlink:title=" ">
<path fill="none" stroke="#63b8ff" d="M730.32,-28.31C787.87,-33.98 865.53,-41.75 934,-49 945.55,-50.22 957.7,-51.54 969.71,-52.86"/>
<polygon fill="#63b8ff" stroke="#63b8ff" points="730.47,-24.81 720.17,-27.31 729.78,-31.78 730.47,-24.81"/>
</a>
</g>
</g>
<!-- Node8&#45;&gt;Node6 -->
<g id="edge8_Node000008_Node000006" class="edge">
<title>Node8&#45;&gt;Node6</title>
<g id="a_edge8_Node000008_Node000006"><a xlink:title=" ">
<path fill="none" stroke="#63b8ff" d="M557.6,-22.99C505.03,-25.59 436.38,-30.37 376,-39 360,-41.29 342.86,-44.57 326.95,-47.98"/>
<polygon fill="#63b8ff" stroke="#63b8ff" points="558.07,-26.47 567.89,-22.5 557.73,-19.48 558.07,-26.47"/>
</a>
</g>
</g>
<!-- Node8&#45;&gt;Node9 -->
<g id="edge9_Node000008_Node000009" class="edge">
<title>Node8&#45;&gt;Node9</title>
<g id="a_edge9_Node000008_Node000009"><a xlink:title=" ">
<path fill="none" stroke="#63b8ff" d="M558.03,-32.71C536.44,-37.52 514.21,-42.95 495.95,-47.95"/>
<polygon fill="#63b8ff" stroke="#63b8ff" points="558.87,-36.11 567.89,-30.55 557.37,-29.27 558.87,-36.11"/>
</a>
</g>
</g>
<!-- Node9&#45;&gt;Node4 -->
<g id="edge12_Node000009_Node000004" class="edge">
<title>Node9&#45;&gt;Node4</title>
<g id="a_edge12_Node000009_Node000004"><a xlink:title=" ">
<path fill="none" stroke="#63b8ff" d="M542.55,-63C656.61,-63 854.97,-63 969.98,-63"/>
<polygon fill="#63b8ff" stroke="#63b8ff" points="542.46,-59.5 532.46,-63 542.46,-66.5 542.46,-59.5"/>
</a>
</g>
</g>
<!-- Node9&#45;&gt;Node6 -->
<g id="edge10_Node000009_Node000006" class="edge">
<title>Node9&#45;&gt;Node6</title>
<g id="a_edge10_Node000009_Node000006"><a xlink:title=" ">
<path fill="none" stroke="#63b8ff" d="M365.91,-63C357.28,-63 348.56,-63 340.07,-63"/>
<polygon fill="#63b8ff" stroke="#63b8ff" points="365.99,-66.5 375.99,-63 365.99,-59.5 365.99,-66.5"/>
</a>
</g>
</g>
<!-- Node9&#45;&gt;Node8 -->
<g id="edge11_Node000009_Node000008" class="edge">
<title>Node9&#45;&gt;Node8</title>
<g id="a_edge11_Node000009_Node000008"><a xlink:title=" ">
<path fill="none" stroke="#63b8ff" d="M542.02,-49.83C563.02,-45.13 584.49,-39.86 602.21,-35.01"/>
<polygon fill="#63b8ff" stroke="#63b8ff" points="541.1,-46.45 532.09,-52.02 542.61,-53.28 541.1,-46.45"/>
</a>
</g>
</g>
</g>
</svg>
