<?xml version="1.0" encoding="UTF-8" standalone="no"?>
<!DOCTYPE svg PUBLIC "-//W3C//DTD SVG 1.1//EN"
 "http://www.w3.org/Graphics/SVG/1.1/DTD/svg11.dtd">
<!-- Generated by graphviz version 2.43.0 (0)
 -->
<!-- Title: com.example.mybookshelf.GoalHandler.handleBookRemoved Pages: 1 -->
<svg width="464pt" height="422pt"
 viewBox="0.00 0.00 464.00 422.00" xmlns="http://www.w3.org/2000/svg" xmlns:xlink="http://www.w3.org/1999/xlink">

<svg id="main" version="1.1" xmlns="http://www.w3.org/2000/svg" xmlns:xlink="http://www.w3.org/1999/xlink" xml:space="preserve">

<style type="text/css"><![CDATA[
.node, .edge {opacity: 0.7;}
.node.selected, .edge.selected {opacity: 1;}
.edge:hover path { stroke: red; }
.edge:hover polygon { stroke: red; fill: red; }
]]></style>
<script type="application/ecmascript" xlink:href="svg.min.js"/>
<svg id="graph" class="graph">
<g id="graph0" class="graph" transform="scale(1 1) rotate(0) translate(4 418)">
<title>com.example.mybookshelf.GoalHandler.handleBookRemoved</title>
<!-- Node1 -->
<g id="Node000001" class="node">
<title>Node1</title>
<g id="a_Node000001"><a xlink:title=" ">
<polygon fill="#999999" stroke="#666666" points="184,-222 0,-222 0,-192 184,-192 184,-222"/>
<text text-anchor="start" x="8" y="-210" font-family="Helvetica,sans-Serif" font-size="10.00">com.example.mybookshelf.</text>
<text text-anchor="middle" x="92" y="-199" font-family="Helvetica,sans-Serif" font-size="10.00">GoalHandler.handleBookRemoved</text>
</a>
</g>
</g>
<!-- Node2 -->
<g id="Node000002" class="node">
<title>Node2</title>
<g id="a_Node000002"><a xlink:href="classcom_1_1example_1_1mybookshelf_1_1notifications_1_1NotificationScheduler.html#afc96590cd792b862b32762b84cab085e" target="_top" xlink:title=" ">
<polygon fill="white" stroke="#666666" points="456,-414 220,-414 220,-384 456,-384 456,-414"/>
<text text-anchor="start" x="228" y="-402" font-family="Helvetica,sans-Serif" font-size="10.00">com.example.mybookshelf.notifications.</text>
<text text-anchor="middle" x="338" y="-391" font-family="Helvetica,sans-Serif" font-size="10.00">NotificationScheduler.cancelDailyNotification</text>
</a>
</g>
</g>
<!-- Node1&#45;&gt;Node2 -->
<g id="edge1_Node000001_Node000002" class="edge">
<title>Node1&#45;&gt;Node2</title>
<g id="a_edge1_Node000001_Node000002"><a xlink:title=" ">
<path fill="none" stroke="#63b8ff" d="M99.81,-222.25C115.64,-255.79 158.31,-336.07 220,-375 222.63,-376.66 225.36,-378.21 228.16,-379.66"/>
<polygon fill="#63b8ff" stroke="#63b8ff" points="226.79,-382.88 237.33,-383.92 229.74,-376.53 226.79,-382.88"/>
</a>
</g>
</g>
<!-- Node3 -->
<g id="Node000003" class="node">
<title>Node3</title>
<g id="a_Node000003"><a xlink:href="classcom_1_1example_1_1mybookshelf_1_1dataClass_1_1Goal.html#a3b610e27f691556a8dcf5b8301b9a9d1" target="_top" xlink:title=" ">
<polygon fill="white" stroke="#666666" points="425,-366 251,-366 251,-336 425,-336 425,-366"/>
<text text-anchor="start" x="259" y="-354" font-family="Helvetica,sans-Serif" font-size="10.00">com.example.mybookshelf.data</text>
<text text-anchor="middle" x="338" y="-343" font-family="Helvetica,sans-Serif" font-size="10.00">Class.Goal.getBookName</text>
</a>
</g>
</g>
<!-- Node1&#45;&gt;Node3 -->
<g id="edge2_Node000001_Node000003" class="edge">
<title>Node1&#45;&gt;Node3</title>
<g id="a_edge2_Node000001_Node000003"><a xlink:title=" ">
<path fill="none" stroke="#63b8ff" d="M104.41,-222.33C124.63,-248.3 169.41,-300.68 220,-327 226.58,-330.42 233.6,-333.35 240.81,-335.87"/>
<polygon fill="#63b8ff" stroke="#63b8ff" points="240.15,-339.33 250.74,-339.05 242.29,-332.67 240.15,-339.33"/>
</a>
</g>
</g>
<!-- Node4 -->
<g id="Node000004" class="node">
<title>Node4</title>
<g id="a_Node000004"><a xlink:href="classcom_1_1example_1_1mybookshelf_1_1dataClass_1_1Goal.html#a1c80a58d3e1cd2e1ab6ef14c40d3b274" target="_top" xlink:title=" ">
<polygon fill="white" stroke="#666666" points="425,-318 251,-318 251,-288 425,-288 425,-318"/>
<text text-anchor="start" x="259" y="-306" font-family="Helvetica,sans-Serif" font-size="10.00">com.example.mybookshelf.data</text>
<text text-anchor="middle" x="338" y="-295" font-family="Helvetica,sans-Serif" font-size="10.00">Class.Goal.getGoal</text>
</a>
</g>
</g>
<!-- Node1&#45;&gt;Node4 -->
<g id="edge3_Node000001_Node000004" class="edge">
<title>Node1&#45;&gt;Node4</title>
<g id="a_edge3_Node000001_Node000004"><a xlink:title=" ">
<path fill="none" stroke="#63b8ff" d="M114.89,-222.26C139.41,-238.64 180.85,-264.31 220,-279 226.74,-281.53 233.8,-283.81 240.98,-285.87"/>
<polygon fill="#63b8ff" stroke="#63b8ff" points="240.25,-289.3 250.81,-288.55 242.08,-282.55 240.25,-289.3"/>
</a>
</g>
</g>
<!-- Node5 -->
<g id="Node000005" class="node">
<title>Node5</title>
<g id="a_Node000005"><a xlink:href="classcom_1_1example_1_1mybookshelf_1_1dataClass_1_1Goal.html#abcf308a0e49a9b60f6761102438d9d04" target="_top" xlink:title=" ">
<polygon fill="white" stroke="#666666" points="425,-270 251,-270 251,-240 425,-240 425,-270"/>
<text text-anchor="start" x="259" y="-258" font-family="Helvetica,sans-Serif" font-size="10.00">com.example.mybookshelf.data</text>
<text text-anchor="middle" x="338" y="-247" font-family="Helvetica,sans-Serif" font-size="10.00">Class.Goal.getId</text>
</a>
</g>
</g>
<!-- Node1&#45;&gt;Node5 -->
<g id="edge4_Node000001_Node000005" class="edge">
<title>Node1&#45;&gt;Node5</title>
<g id="a_edge4_Node000001_Node000005"><a xlink:title=" ">
<path fill="none" stroke="#63b8ff" d="M169.53,-222.06C195.31,-227.13 224.25,-232.82 250.72,-238.03"/>
<polygon fill="#63b8ff" stroke="#63b8ff" points="250.25,-241.5 260.74,-240 251.6,-234.63 250.25,-241.5"/>
</a>
</g>
</g>
<!-- Node6 -->
<g id="Node000006" class="node">
<title>Node6</title>
<g id="a_Node000006"><a xlink:href="classcom_1_1example_1_1mybookshelf_1_1dataClass_1_1Book.html#a4109da1bdee13601576c6725d6e89e71" target="_top" xlink:title=" ">
<polygon fill="white" stroke="#666666" points="425,-222 251,-222 251,-192 425,-192 425,-222"/>
<text text-anchor="start" x="259" y="-210" font-family="Helvetica,sans-Serif" font-size="10.00">com.example.mybookshelf.data</text>
<text text-anchor="middle" x="338" y="-199" font-family="Helvetica,sans-Serif" font-size="10.00">Class.Book.getName</text>
</a>
</g>
</g>
<!-- Node1&#45;&gt;Node6 -->
<g id="edge5_Node000001_Node000006" class="edge">
<title>Node1&#45;&gt;Node6</title>
<g id="a_edge5_Node000001_Node000006"><a xlink:title=" ">
<path fill="none" stroke="#63b8ff" d="M184.2,-207C202.59,-207 221.98,-207 240.54,-207"/>
<polygon fill="#63b8ff" stroke="#63b8ff" points="240.75,-210.5 250.75,-207 240.75,-203.5 240.75,-210.5"/>
</a>
</g>
</g>
<!-- Node7 -->
<g id="Node000007" class="node">
<title>Node7</title>
<g id="a_Node000007"><a xlink:href="classcom_1_1example_1_1mybookshelf_1_1dataClass_1_1Book.html#af362f232851507c1d64779533639edf8" target="_top" xlink:title=" ">
<polygon fill="white" stroke="#666666" points="425,-174 251,-174 251,-144 425,-144 425,-174"/>
<text text-anchor="start" x="259" y="-162" font-family="Helvetica,sans-Serif" font-size="10.00">com.example.mybookshelf.data</text>
<text text-anchor="middle" x="338" y="-151" font-family="Helvetica,sans-Serif" font-size="10.00">Class.Book.getPages</text>
</a>
</g>
</g>
<!-- Node1&#45;&gt;Node7 -->
<g id="edge6_Node000001_Node000007" class="edge">
<title>Node1&#45;&gt;Node7</title>
<g id="a_edge6_Node000001_Node000007"><a xlink:title=" ">
<path fill="none" stroke="#63b8ff" d="M169.53,-191.94C195.31,-186.87 224.25,-181.18 250.72,-175.97"/>
<polygon fill="#63b8ff" stroke="#63b8ff" points="251.6,-179.37 260.74,-174 250.25,-172.5 251.6,-179.37"/>
</a>
</g>
</g>
<!-- Node8 -->
<g id="Node000008" class="node">
<title>Node8</title>
<g id="a_Node000008"><a xlink:href="classcom_1_1example_1_1mybookshelf_1_1dataClass_1_1Goal.html#a964cb06dadac4c69df6c931402733779" target="_top" xlink:title=" ">
<polygon fill="white" stroke="#666666" points="425,-126 251,-126 251,-96 425,-96 425,-126"/>
<text text-anchor="start" x="259" y="-114" font-family="Helvetica,sans-Serif" font-size="10.00">com.example.mybookshelf.data</text>
<text text-anchor="middle" x="338" y="-103" font-family="Helvetica,sans-Serif" font-size="10.00">Class.Goal.getProgress</text>
</a>
</g>
</g>
<!-- Node1&#45;&gt;Node8 -->
<g id="edge7_Node000001_Node000008" class="edge">
<title>Node1&#45;&gt;Node8</title>
<g id="a_edge7_Node000001_Node000008"><a xlink:title=" ">
<path fill="none" stroke="#63b8ff" d="M114.89,-191.74C139.41,-175.36 180.85,-149.69 220,-135 226.74,-132.47 233.8,-130.19 240.98,-128.13"/>
<polygon fill="#63b8ff" stroke="#63b8ff" points="242.08,-131.45 250.81,-125.45 240.25,-124.7 242.08,-131.45"/>
</a>
</g>
</g>
<!-- Node9 -->
<g id="Node000009" class="node">
<title>Node9</title>
<g id="a_Node000009"><a xlink:href="classcom_1_1example_1_1mybookshelf_1_1dataClass_1_1Goal.html#a84c2af13824c14a2b6c3dcf25a493d0f" target="_top" xlink:title=" ">
<polygon fill="white" stroke="#666666" points="425,-78 251,-78 251,-48 425,-48 425,-78"/>
<text text-anchor="start" x="259" y="-66" font-family="Helvetica,sans-Serif" font-size="10.00">com.example.mybookshelf.data</text>
<text text-anchor="middle" x="338" y="-55" font-family="Helvetica,sans-Serif" font-size="10.00">Class.Goal.getTarget</text>
</a>
</g>
</g>
<!-- Node1&#45;&gt;Node9 -->
<g id="edge8_Node000001_Node000009" class="edge">
<title>Node1&#45;&gt;Node9</title>
<g id="a_edge8_Node000001_Node000009"><a xlink:title=" ">
<path fill="none" stroke="#63b8ff" d="M104.41,-191.67C124.63,-165.7 169.41,-113.32 220,-87 226.58,-83.58 233.6,-80.65 240.81,-78.13"/>
<polygon fill="#63b8ff" stroke="#63b8ff" points="242.29,-81.33 250.74,-74.95 240.15,-74.67 242.29,-81.33"/>
</a>
</g>
</g>
<!-- Node10 -->
<g id="Node000010" class="node">
<title>Node10</title>
<g id="a_Node000010"><a xlink:href="classcom_1_1example_1_1mybookshelf_1_1dataClass_1_1Goal.html#a695831f2ac1529bf5e48ea738b00aaec" target="_top" xlink:title=" ">
<polygon fill="white" stroke="#666666" points="425,-30 251,-30 251,0 425,0 425,-30"/>
<text text-anchor="start" x="259" y="-18" font-family="Helvetica,sans-Serif" font-size="10.00">com.example.mybookshelf.data</text>
<text text-anchor="middle" x="338" y="-7" font-family="Helvetica,sans-Serif" font-size="10.00">Class.Goal.setProgress</text>
</a>
</g>
</g>
<!-- Node1&#45;&gt;Node10 -->
<g id="edge9_Node000001_Node000010" class="edge">
<title>Node1&#45;&gt;Node10</title>
<g id="a_edge9_Node000001_Node000010"><a xlink:title=" ">
<path fill="none" stroke="#63b8ff" d="M99.81,-191.75C115.64,-158.21 158.31,-77.93 220,-39 226.6,-34.84 233.78,-31.38 241.24,-28.51"/>
<polygon fill="#63b8ff" stroke="#63b8ff" points="242.51,-31.77 250.8,-25.18 240.21,-25.16 242.51,-31.77"/>
</a>
</g>
</g>
</g>
</svg>
</svg>

<style type='text/css'>
<![CDATA[
[data-mouse-over-selected='false'] { opacity: 0.7; }
[data-mouse-over-selected='true']  { opacity: 1.0; }
]]>
</style>
<script type="application/ecmascript"><![CDATA[
document.addEventListener('DOMContentLoaded', (event) => {
  highlightEdges();
  highlightAdjacentNodes();
});
]]></script>
</svg>
