<?xml version="1.0" encoding="UTF-8" standalone="no"?>
<!DOCTYPE svg PUBLIC "-//W3C//DTD SVG 1.1//EN"
 "http://www.w3.org/Graphics/SVG/1.1/DTD/svg11.dtd">
<!-- Generated by graphviz version 2.43.0 (0)
 -->
<!-- Title: com.example.mybookshelf.dataClass.Goal Pages: 1 -->
<svg width="311pt" height="381pt"
 viewBox="0.00 0.00 310.50 381.00" xmlns="http://www.w3.org/2000/svg" xmlns:xlink="http://www.w3.org/1999/xlink">

<svg id="main" version="1.1" xmlns="http://www.w3.org/2000/svg" xmlns:xlink="http://www.w3.org/1999/xlink" xml:space="preserve">

<style type="text/css"><![CDATA[
.node, .edge {opacity: 0.7;}
.node.selected, .edge.selected {opacity: 1;}
.edge:hover path { stroke: red; }
.edge:hover polygon { stroke: red; fill: red; }
]]></style>
<script type="application/ecmascript" xlink:href="svg.min.js"/>
<svg id="graph" class="graph">
<g id="graph0" class="graph" transform="scale(1 1) rotate(0) translate(4 377)">
<title>com.example.mybookshelf.dataClass.Goal</title>
<!-- Node1 -->
<g id="Node000001" class="node">
<title>Node1</title>
<g id="a_Node000001"><a xlink:title=" ">
<polygon fill="#999999" stroke="transparent" points="212.5,-255 44.5,-255 44.5,0 212.5,0 212.5,-255"/>
<text text-anchor="start" x="49.5" y="-242.5" font-family="Helvetica,sans-Serif" font-size="10.00">com.example.mybookshelf.data</text>
<text text-anchor="start" x="102.5" y="-231.5" font-family="Helvetica,sans-Serif" font-size="10.00">Class.Goal</text>
<text text-anchor="start" x="126.5" y="-216.5" font-family="Helvetica,sans-Serif" font-size="10.00"> </text>
<text text-anchor="start" x="65.5" y="-201.5" font-family="Helvetica,sans-Serif" font-size="10.00">+</text>
<text text-anchor="start" x="95.5" y="-201.5" font-family="Helvetica,sans-Serif" font-size="10.00">Goal()</text>
<text text-anchor="start" x="65.5" y="-186.5" font-family="Helvetica,sans-Serif" font-size="10.00">+</text>
<text text-anchor="start" x="95.5" y="-186.5" font-family="Helvetica,sans-Serif" font-size="10.00">Goal()</text>
<text text-anchor="start" x="65.5" y="-171.5" font-family="Helvetica,sans-Serif" font-size="10.00">+</text>
<text text-anchor="start" x="95.5" y="-171.5" font-family="Helvetica,sans-Serif" font-size="10.00">Goal()</text>
<text text-anchor="start" x="65.5" y="-156.5" font-family="Helvetica,sans-Serif" font-size="10.00">+</text>
<text text-anchor="start" x="95.5" y="-156.5" font-family="Helvetica,sans-Serif" font-size="10.00">getId()</text>
<text text-anchor="start" x="65.5" y="-141.5" font-family="Helvetica,sans-Serif" font-size="10.00">+</text>
<text text-anchor="start" x="95.5" y="-141.5" font-family="Helvetica,sans-Serif" font-size="10.00">isCompleted()</text>
<text text-anchor="start" x="65.5" y="-126.5" font-family="Helvetica,sans-Serif" font-size="10.00">+</text>
<text text-anchor="start" x="95.5" y="-126.5" font-family="Helvetica,sans-Serif" font-size="10.00">getProgress()</text>
<text text-anchor="start" x="65.5" y="-111.5" font-family="Helvetica,sans-Serif" font-size="10.00">+</text>
<text text-anchor="start" x="95.5" y="-111.5" font-family="Helvetica,sans-Serif" font-size="10.00">getTarget()</text>
<text text-anchor="start" x="65.5" y="-96.5" font-family="Helvetica,sans-Serif" font-size="10.00">+</text>
<text text-anchor="start" x="95.5" y="-96.5" font-family="Helvetica,sans-Serif" font-size="10.00">getGoal()</text>
<text text-anchor="start" x="65.5" y="-81.5" font-family="Helvetica,sans-Serif" font-size="10.00">+</text>
<text text-anchor="start" x="95.5" y="-81.5" font-family="Helvetica,sans-Serif" font-size="10.00">getBookName()</text>
<text text-anchor="start" x="65.5" y="-66.5" font-family="Helvetica,sans-Serif" font-size="10.00">+</text>
<text text-anchor="start" x="95.5" y="-66.5" font-family="Helvetica,sans-Serif" font-size="10.00">getFrequenzy()</text>
<text text-anchor="start" x="65.5" y="-51.5" font-family="Helvetica,sans-Serif" font-size="10.00">+</text>
<text text-anchor="start" x="95.5" y="-51.5" font-family="Helvetica,sans-Serif" font-size="10.00">setId()</text>
<text text-anchor="start" x="65.5" y="-36.5" font-family="Helvetica,sans-Serif" font-size="10.00">+</text>
<text text-anchor="start" x="95.5" y="-36.5" font-family="Helvetica,sans-Serif" font-size="10.00">toString()</text>
<text text-anchor="start" x="65.5" y="-21.5" font-family="Helvetica,sans-Serif" font-size="10.00">+</text>
<text text-anchor="start" x="95.5" y="-21.5" font-family="Helvetica,sans-Serif" font-size="10.00">setProgress()</text>
<text text-anchor="start" x="65.5" y="-6.5" font-family="Helvetica,sans-Serif" font-size="10.00">+</text>
<text text-anchor="start" x="95.5" y="-6.5" font-family="Helvetica,sans-Serif" font-size="10.00">getDeadline()</text>
<polygon fill="#666666" stroke="#666666" points="44.5,-226.5 44.5,-226.5 212.5,-226.5 212.5,-226.5 44.5,-226.5"/>
<polygon fill="#666666" stroke="#666666" points="44.5,-211.5 44.5,-211.5 212.5,-211.5 212.5,-211.5 44.5,-211.5"/>
<polygon fill="none" stroke="#666666" points="44.5,0 44.5,-255 212.5,-255 212.5,0 44.5,0"/>
</a>
</g>
</g>
<!-- Node2 -->
<g id="Node000002" class="node">
<title>Node2</title>
<g id="a_Node000002"><a xlink:title=" ">
<polygon fill="white" stroke="transparent" points="23,-373 0,-373 0,-324 23,-324 23,-373"/>
<text text-anchor="start" x="5.5" y="-360.5" font-family="Helvetica,sans-Serif" font-size="10.00">int</text>
<text text-anchor="start" x="10" y="-345.5" font-family="Helvetica,sans-Serif" font-size="10.00"> </text>
<text text-anchor="start" x="10" y="-330.5" font-family="Helvetica,sans-Serif" font-size="10.00"> </text>
<polygon fill="#666666" stroke="#666666" points="0.5,-355.5 0.5,-355.5 23.5,-355.5 23.5,-355.5 0.5,-355.5"/>
<polygon fill="#666666" stroke="#666666" points="0.5,-340.5 0.5,-340.5 23.5,-340.5 23.5,-340.5 0.5,-340.5"/>
<polygon fill="none" stroke="#666666" points="0,-324 0,-373 23,-373 23,-324 0,-324"/>
</a>
</g>
</g>
<!-- Node2&#45;&gt;Node1 -->
<g id="edge1_Node000001_Node000002" class="edge">
<title>Node2&#45;&gt;Node1</title>
<g id="a_edge1_Node000001_Node000002"><a xlink:title=" ">
<path fill="none" stroke="#63b8ff" d="M14.52,-323.95C17.01,-308.92 21.33,-289.27 28.5,-273 31.53,-266.13 34.89,-259.24 38.51,-252.41"/>
<polygon fill="none" stroke="#63b8ff" points="38.61,-252.24 37.99,-245.06 44.39,-241.72 45,-248.91 38.61,-252.24"/>
</a>
</g>
<text text-anchor="middle" x="54" y="-298" font-family="Helvetica,sans-Serif" font-size="10.00" fill="grey"> ~id</text>
<text text-anchor="middle" x="54" y="-287" font-family="Helvetica,sans-Serif" font-size="10.00" fill="grey">~progress</text>
<text text-anchor="middle" x="54" y="-276" font-family="Helvetica,sans-Serif" font-size="10.00" fill="grey">~target</text>
</g>
<!-- Node3 -->
<g id="Node000003" class="node">
<title>Node3</title>
<g id="a_Node000003"><a xlink:title=" ">
<polygon fill="white" stroke="transparent" points="110.5,-373 60.5,-373 60.5,-324 110.5,-324 110.5,-373"/>
<text text-anchor="start" x="65.5" y="-360.5" font-family="Helvetica,sans-Serif" font-size="10.00">boolean</text>
<text text-anchor="start" x="83.5" y="-345.5" font-family="Helvetica,sans-Serif" font-size="10.00"> </text>
<text text-anchor="start" x="83.5" y="-330.5" font-family="Helvetica,sans-Serif" font-size="10.00"> </text>
<polygon fill="#666666" stroke="#666666" points="60.5,-355.5 60.5,-355.5 110.5,-355.5 110.5,-355.5 60.5,-355.5"/>
<polygon fill="#666666" stroke="#666666" points="60.5,-340.5 60.5,-340.5 110.5,-340.5 110.5,-340.5 60.5,-340.5"/>
<polygon fill="none" stroke="#666666" points="60.5,-324 60.5,-373 110.5,-373 110.5,-324 60.5,-324"/>
</a>
</g>
</g>
<!-- Node3&#45;&gt;Node1 -->
<g id="edge2_Node000001_Node000003" class="edge">
<title>Node3&#45;&gt;Node1</title>
<g id="a_edge2_Node000001_Node000003"><a xlink:title=" ">
<path fill="none" stroke="#63b8ff" d="M84.2,-323.88C83.79,-309.17 83.98,-289.89 86.5,-273 86.78,-271.09 87.09,-269.17 87.41,-267.25"/>
<polygon fill="none" stroke="#63b8ff" points="87.43,-267.14 84.57,-260.52 89.58,-255.34 92.44,-261.96 87.43,-267.14"/>
</a>
</g>
<text text-anchor="middle" x="118.5" y="-292.5" font-family="Helvetica,sans-Serif" font-size="10.00" fill="grey"> ~completed</text>
<text text-anchor="middle" x="118.5" y="-281.5" font-family="Helvetica,sans-Serif" font-size="10.00" fill="grey">~reminder</text>
</g>
<!-- Node4 -->
<g id="Node000004" class="node">
<title>Node4</title>
<g id="a_Node000004"><a xlink:title=" ">
<polygon fill="white" stroke="transparent" points="192,-373 153,-373 153,-324 192,-324 192,-373"/>
<text text-anchor="start" x="158.5" y="-360.5" font-family="Helvetica,sans-Serif" font-size="10.00">String</text>
<text text-anchor="start" x="171" y="-345.5" font-family="Helvetica,sans-Serif" font-size="10.00"> </text>
<text text-anchor="start" x="171" y="-330.5" font-family="Helvetica,sans-Serif" font-size="10.00"> </text>
<polygon fill="#666666" stroke="#666666" points="153.5,-355.5 153.5,-355.5 192.5,-355.5 192.5,-355.5 153.5,-355.5"/>
<polygon fill="#666666" stroke="#666666" points="153.5,-340.5 153.5,-340.5 192.5,-340.5 192.5,-340.5 153.5,-340.5"/>
<polygon fill="none" stroke="#666666" points="153,-324 153,-373 192,-373 192,-324 153,-324"/>
</a>
</g>
</g>
<!-- Node4&#45;&gt;Node1 -->
<g id="edge3_Node000001_Node000004" class="edge">
<title>Node4&#45;&gt;Node1</title>
<g id="a_edge3_Node000001_Node000004"><a xlink:title=" ">
<path fill="none" stroke="#63b8ff" d="M167.71,-323.65C164.75,-308.94 160.7,-288.75 156.31,-266.91"/>
<polygon fill="none" stroke="#63b8ff" points="156.28,-266.77 151.18,-261.67 153.92,-255 159.02,-260.1 156.28,-266.77"/>
</a>
</g>
<text text-anchor="middle" x="196" y="-298" font-family="Helvetica,sans-Serif" font-size="10.00" fill="grey"> ~bookName</text>
<text text-anchor="middle" x="196" y="-287" font-family="Helvetica,sans-Serif" font-size="10.00" fill="grey">~frequenzy</text>
<text text-anchor="middle" x="196" y="-276" font-family="Helvetica,sans-Serif" font-size="10.00" fill="grey">~goal</text>
</g>
<!-- Node5 -->
<g id="Node000005" class="node">
<title>Node5</title>
<g id="a_Node000005"><a xlink:title=" ">
<polygon fill="white" stroke="transparent" points="302.5,-373 218.5,-373 218.5,-324 302.5,-324 302.5,-373"/>
<text text-anchor="start" x="223.5" y="-360.5" font-family="Helvetica,sans-Serif" font-size="10.00">LocalDateTime</text>
<text text-anchor="start" x="258.5" y="-345.5" font-family="Helvetica,sans-Serif" font-size="10.00"> </text>
<text text-anchor="start" x="258.5" y="-330.5" font-family="Helvetica,sans-Serif" font-size="10.00"> </text>
<polygon fill="#666666" stroke="#666666" points="218.5,-355.5 218.5,-355.5 302.5,-355.5 302.5,-355.5 218.5,-355.5"/>
<polygon fill="#666666" stroke="#666666" points="218.5,-340.5 218.5,-340.5 302.5,-340.5 302.5,-340.5 218.5,-340.5"/>
<polygon fill="none" stroke="#666666" points="218.5,-324 218.5,-373 302.5,-373 302.5,-324 218.5,-324"/>
</a>
</g>
</g>
<!-- Node5&#45;&gt;Node1 -->
<g id="edge4_Node000001_Node000005" class="edge">
<title>Node5&#45;&gt;Node1</title>
<g id="a_edge4_Node000001_Node000005"><a xlink:title=" ">
<path fill="none" stroke="#63b8ff" d="M253.44,-323.99C248.5,-308.97 241.24,-289.32 232.5,-273 228.34,-265.23 223.82,-257.4 219.06,-249.62"/>
<polygon fill="none" stroke="#63b8ff" points="219.05,-249.6 212.48,-246.64 212.69,-239.43 219.26,-242.4 219.05,-249.6"/>
</a>
</g>
<text text-anchor="middle" x="273.5" y="-287" font-family="Helvetica,sans-Serif" font-size="10.00" fill="grey"> ~deadline</text>
</g>
</g>
</svg>
</svg>

<style type='text/css'>
<![CDATA[
[data-mouse-over-selected='false'] { opacity: 0.7; }
[data-mouse-over-selected='true']  { opacity: 1.0; }
]]>
</style>
<script type="application/ecmascript"><![CDATA[
document.addEventListener('DOMContentLoaded', (event) => {
  highlightEdges();
  highlightAdjacentNodes();
});
]]></script>
</svg>
