<?xml version="1.0" encoding="UTF-8" standalone="no"?>
<!DOCTYPE svg PUBLIC "-//W3C//DTD SVG 1.1//EN"
 "http://www.w3.org/Graphics/SVG/1.1/DTD/svg11.dtd">
<!-- Generated by graphviz version 2.43.0 (0)
 -->
<!-- Title: com.example.mybookshelf.LayoutManager.CustomGoalAdapter.createGoalBox Pages: 1 -->
<svg width="444pt" height="230pt"
 viewBox="0.00 0.00 444.00 230.00" xmlns="http://www.w3.org/2000/svg" xmlns:xlink="http://www.w3.org/1999/xlink">

<svg id="main" version="1.1" xmlns="http://www.w3.org/2000/svg" xmlns:xlink="http://www.w3.org/1999/xlink" xml:space="preserve">

<style type="text/css"><![CDATA[
.node, .edge {opacity: 0.7;}
.node.selected, .edge.selected {opacity: 1;}
.edge:hover path { stroke: red; }
.edge:hover polygon { stroke: red; fill: red; }
]]></style>
<script type="application/ecmascript" xlink:href="svg.min.js"/>
<svg id="graph" class="graph">
<g id="graph0" class="graph" transform="scale(1 1) rotate(0) translate(4 226)">
<title>com.example.mybookshelf.LayoutManager.CustomGoalAdapter.createGoalBox</title>
<!-- Node1 -->
<g id="Node000001" class="node">
<title>Node1</title>
<g id="a_Node000001"><a xlink:title=" ">
<polygon fill="#999999" stroke="#666666" points="226,-131.5 0,-131.5 0,-90.5 226,-90.5 226,-131.5"/>
<text text-anchor="start" x="8" y="-119.5" font-family="Helvetica,sans-Serif" font-size="10.00">com.example.mybookshelf.</text>
<text text-anchor="start" x="8" y="-108.5" font-family="Helvetica,sans-Serif" font-size="10.00">LayoutManager.CustomGoalAdapter.create</text>
<text text-anchor="middle" x="113" y="-97.5" font-family="Helvetica,sans-Serif" font-size="10.00">GoalBox</text>
</a>
</g>
</g>
<!-- Node2 -->
<g id="Node000002" class="node">
<title>Node2</title>
<g id="a_Node000002"><a xlink:href="classcom_1_1example_1_1mybookshelf_1_1dataClass_1_1Goal.html#ada3305dadb216e065d9bb31e12ff6107" target="_top" xlink:title=" ">
<polygon fill="white" stroke="#666666" points="436,-222 262,-222 262,-192 436,-192 436,-222"/>
<text text-anchor="start" x="270" y="-210" font-family="Helvetica,sans-Serif" font-size="10.00">com.example.mybookshelf.data</text>
<text text-anchor="middle" x="349" y="-199" font-family="Helvetica,sans-Serif" font-size="10.00">Class.Goal.getFrequenzy</text>
</a>
</g>
</g>
<!-- Node1&#45;&gt;Node2 -->
<g id="edge1_Node000001_Node000002" class="edge">
<title>Node1&#45;&gt;Node2</title>
<g id="a_edge1_Node000001_Node000002"><a xlink:title=" ">
<path fill="none" stroke="#63b8ff" d="M151.49,-131.58C180.92,-147.16 223.26,-168.31 262,-183 267.48,-185.08 273.21,-187.06 279.01,-188.94"/>
<polygon fill="#63b8ff" stroke="#63b8ff" points="278.2,-192.36 288.79,-192 280.29,-185.68 278.2,-192.36"/>
</a>
</g>
</g>
<!-- Node3 -->
<g id="Node000003" class="node">
<title>Node3</title>
<g id="a_Node000003"><a xlink:href="classcom_1_1example_1_1mybookshelf_1_1dataClass_1_1Goal.html#a1c80a58d3e1cd2e1ab6ef14c40d3b274" target="_top" xlink:title=" ">
<polygon fill="white" stroke="#666666" points="436,-174 262,-174 262,-144 436,-144 436,-174"/>
<text text-anchor="start" x="270" y="-162" font-family="Helvetica,sans-Serif" font-size="10.00">com.example.mybookshelf.data</text>
<text text-anchor="middle" x="349" y="-151" font-family="Helvetica,sans-Serif" font-size="10.00">Class.Goal.getGoal</text>
</a>
</g>
</g>
<!-- Node1&#45;&gt;Node3 -->
<g id="edge2_Node000001_Node000003" class="edge">
<title>Node1&#45;&gt;Node3</title>
<g id="a_edge2_Node000001_Node000003"><a xlink:title=" ">
<path fill="none" stroke="#63b8ff" d="M214.26,-131.57C231.1,-135.02 248.42,-138.57 264.78,-141.93"/>
<polygon fill="#63b8ff" stroke="#63b8ff" points="264.33,-145.41 274.83,-143.99 265.73,-138.55 264.33,-145.41"/>
</a>
</g>
</g>
<!-- Node4 -->
<g id="Node000004" class="node">
<title>Node4</title>
<g id="a_Node000004"><a xlink:href="classcom_1_1example_1_1mybookshelf_1_1dataClass_1_1Goal.html#abcf308a0e49a9b60f6761102438d9d04" target="_top" xlink:title=" ">
<polygon fill="white" stroke="#666666" points="436,-126 262,-126 262,-96 436,-96 436,-126"/>
<text text-anchor="start" x="270" y="-114" font-family="Helvetica,sans-Serif" font-size="10.00">com.example.mybookshelf.data</text>
<text text-anchor="middle" x="349" y="-103" font-family="Helvetica,sans-Serif" font-size="10.00">Class.Goal.getId</text>
</a>
</g>
</g>
<!-- Node1&#45;&gt;Node4 -->
<g id="edge3_Node000001_Node000004" class="edge">
<title>Node1&#45;&gt;Node4</title>
<g id="a_edge3_Node000001_Node000004"><a xlink:title=" ">
<path fill="none" stroke="#63b8ff" d="M226.2,-111C234.71,-111 243.25,-111 251.64,-111"/>
<polygon fill="#63b8ff" stroke="#63b8ff" points="251.79,-114.5 261.79,-111 251.79,-107.5 251.79,-114.5"/>
</a>
</g>
</g>
<!-- Node5 -->
<g id="Node000005" class="node">
<title>Node5</title>
<g id="a_Node000005"><a xlink:href="classcom_1_1example_1_1mybookshelf_1_1dataClass_1_1Goal.html#a964cb06dadac4c69df6c931402733779" target="_top" xlink:title=" ">
<polygon fill="white" stroke="#666666" points="436,-78 262,-78 262,-48 436,-48 436,-78"/>
<text text-anchor="start" x="270" y="-66" font-family="Helvetica,sans-Serif" font-size="10.00">com.example.mybookshelf.data</text>
<text text-anchor="middle" x="349" y="-55" font-family="Helvetica,sans-Serif" font-size="10.00">Class.Goal.getProgress</text>
</a>
</g>
</g>
<!-- Node1&#45;&gt;Node5 -->
<g id="edge4_Node000001_Node000005" class="edge">
<title>Node1&#45;&gt;Node5</title>
<g id="a_edge4_Node000001_Node000005"><a xlink:title=" ">
<path fill="none" stroke="#63b8ff" d="M214.26,-90.43C231.1,-86.98 248.42,-83.43 264.78,-80.07"/>
<polygon fill="#63b8ff" stroke="#63b8ff" points="265.73,-83.45 274.83,-78.01 264.33,-76.59 265.73,-83.45"/>
</a>
</g>
</g>
<!-- Node6 -->
<g id="Node000006" class="node">
<title>Node6</title>
<g id="a_Node000006"><a xlink:href="classcom_1_1example_1_1mybookshelf_1_1dataClass_1_1Goal.html#a84c2af13824c14a2b6c3dcf25a493d0f" target="_top" xlink:title=" ">
<polygon fill="white" stroke="#666666" points="436,-30 262,-30 262,0 436,0 436,-30"/>
<text text-anchor="start" x="270" y="-18" font-family="Helvetica,sans-Serif" font-size="10.00">com.example.mybookshelf.data</text>
<text text-anchor="middle" x="349" y="-7" font-family="Helvetica,sans-Serif" font-size="10.00">Class.Goal.getTarget</text>
</a>
</g>
</g>
<!-- Node1&#45;&gt;Node6 -->
<g id="edge5_Node000001_Node000006" class="edge">
<title>Node1&#45;&gt;Node6</title>
<g id="a_edge5_Node000001_Node000006"><a xlink:title=" ">
<path fill="none" stroke="#63b8ff" d="M151.49,-90.42C180.92,-74.84 223.26,-53.69 262,-39 267.48,-36.92 273.21,-34.94 279.01,-33.06"/>
<polygon fill="#63b8ff" stroke="#63b8ff" points="280.29,-36.32 288.79,-30 278.2,-29.64 280.29,-36.32"/>
</a>
</g>
</g>
</g>
</svg>
</svg>

<style type='text/css'>
<![CDATA[
[data-mouse-over-selected='false'] { opacity: 0.7; }
[data-mouse-over-selected='true']  { opacity: 1.0; }
]]>
</style>
<script type="application/ecmascript"><![CDATA[
document.addEventListener('DOMContentLoaded', (event) => {
  highlightEdges();
  highlightAdjacentNodes();
});
]]></script>
</svg>
