<?xml version="1.0" encoding="UTF-8" standalone="no"?>
<!DOCTYPE svg PUBLIC "-//W3C//DTD SVG 1.1//EN"
 "http://www.w3.org/Graphics/SVG/1.1/DTD/svg11.dtd">
<!-- Generated by graphviz version 2.43.0 (0)
 -->
<!-- Title: com.example.mybookshelf.notifications.NotificationScheduler.toggleDailyNotification Pages: 1 -->
<svg width="528pt" height="134pt"
 viewBox="0.00 0.00 528.00 134.00" xmlns="http://www.w3.org/2000/svg" xmlns:xlink="http://www.w3.org/1999/xlink">
<g id="graph0" class="graph" transform="scale(1 1) rotate(0) translate(4 130)">
<title>com.example.mybookshelf.notifications.NotificationScheduler.toggleDailyNotification</title>
<!-- Node1 -->
<g id="Node000001" class="node">
<title>Node1</title>
<g id="a_Node000001"><a xlink:title=" ">
<polygon fill="#999999" stroke="#666666" points="236,-78 0,-78 0,-48 236,-48 236,-78"/>
<text text-anchor="start" x="8" y="-66" font-family="Helvetica,sans-Serif" font-size="10.00">com.example.mybookshelf.notifications.</text>
<text text-anchor="middle" x="118" y="-55" font-family="Helvetica,sans-Serif" font-size="10.00">NotificationScheduler.toggleDailyNotification</text>
</a>
</g>
</g>
<!-- Node2 -->
<g id="Node000002" class="node">
<title>Node2</title>
<g id="a_Node000002"><a xlink:href="classcom_1_1example_1_1mybookshelf_1_1notifications_1_1NotificationScheduler.html#afc96590cd792b862b32762b84cab085e" target="_top" xlink:title=" ">
<polygon fill="white" stroke="#666666" points="514,-126 278,-126 278,-96 514,-96 514,-126"/>
<text text-anchor="start" x="286" y="-114" font-family="Helvetica,sans-Serif" font-size="10.00">com.example.mybookshelf.notifications.</text>
<text text-anchor="middle" x="396" y="-103" font-family="Helvetica,sans-Serif" font-size="10.00">NotificationScheduler.cancelDailyNotification</text>
</a>
</g>
</g>
<!-- Node1&#45;&gt;Node2 -->
<g id="edge1_Node000001_Node000002" class="edge">
<title>Node1&#45;&gt;Node2</title>
<g id="a_edge1_Node000001_Node000002"><a xlink:title=" ">
<path fill="none" stroke="#63b8ff" d="M205.57,-78.06C235.11,-83.19 268.33,-88.97 298.59,-94.23"/>
<polygon fill="#63b8ff" stroke="#63b8ff" points="298.28,-97.73 308.74,-96 299.48,-90.84 298.28,-97.73"/>
</a>
</g>
</g>
<!-- Node3 -->
<g id="Node000003" class="node">
<title>Node3</title>
<g id="a_Node000003"><a xlink:href="classcom_1_1example_1_1mybookshelf_1_1notifications_1_1NotificationScheduler.html#ac8a096801252bd85cf58f0b4ded28ebe" target="_top" xlink:title=" ">
<polygon fill="white" stroke="#666666" points="518,-78 274,-78 274,-48 518,-48 518,-78"/>
<text text-anchor="start" x="282" y="-66" font-family="Helvetica,sans-Serif" font-size="10.00">com.example.mybookshelf.notifications.</text>
<text text-anchor="middle" x="396" y="-55" font-family="Helvetica,sans-Serif" font-size="10.00">NotificationScheduler.isDailyNotificationActive</text>
</a>
</g>
</g>
<!-- Node1&#45;&gt;Node3 -->
<g id="edge2_Node000001_Node000003" class="edge">
<title>Node1&#45;&gt;Node3</title>
<g id="a_edge2_Node000001_Node000003"><a xlink:title=" ">
<path fill="none" stroke="#63b8ff" d="M236.05,-63C245.22,-63 254.52,-63 263.77,-63"/>
<polygon fill="#63b8ff" stroke="#63b8ff" points="263.79,-66.5 273.79,-63 263.79,-59.5 263.79,-66.5"/>
</a>
</g>
</g>
<!-- Node4 -->
<g id="Node000004" class="node">
<title>Node4</title>
<g id="a_Node000004"><a xlink:href="classcom_1_1example_1_1mybookshelf_1_1notifications_1_1NotificationScheduler.html#a5833d4c1b987dddea26acdad230c640f" target="_top" xlink:title=" ">
<polygon fill="white" stroke="#666666" points="520,-30 272,-30 272,0 520,0 520,-30"/>
<text text-anchor="start" x="280" y="-18" font-family="Helvetica,sans-Serif" font-size="10.00">com.example.mybookshelf.notifications.</text>
<text text-anchor="middle" x="396" y="-7" font-family="Helvetica,sans-Serif" font-size="10.00">NotificationScheduler.scheduleDailyNotification</text>
</a>
</g>
</g>
<!-- Node1&#45;&gt;Node4 -->
<g id="edge3_Node000001_Node000004" class="edge">
<title>Node1&#45;&gt;Node4</title>
<g id="a_edge3_Node000001_Node000004"><a xlink:title=" ">
<path fill="none" stroke="#63b8ff" d="M205.57,-47.94C235.11,-42.81 268.33,-37.03 298.59,-31.77"/>
<polygon fill="#63b8ff" stroke="#63b8ff" points="299.48,-35.16 308.74,-30 298.28,-28.27 299.48,-35.16"/>
</a>
</g>
</g>
</g>
</svg>
