<?xml version="1.0" encoding="UTF-8" standalone="no"?>
<!DOCTYPE svg PUBLIC "-//W3C//DTD SVG 1.1//EN"
 "http://www.w3.org/Graphics/SVG/1.1/DTD/svg11.dtd">
<!-- Generated by graphviz version 2.43.0 (0)
 -->
<!-- Title: com.example.mybookshelf.notifications.NotificationScheduler.cancelDailyNotification Pages: 1 -->
<svg width="755pt" height="260pt"
 viewBox="0.00 0.00 755.00 259.50" xmlns="http://www.w3.org/2000/svg" xmlns:xlink="http://www.w3.org/1999/xlink">
<g id="graph0" class="graph" transform="scale(1 1) rotate(0) translate(4 255.5)">
<title>com.example.mybookshelf.notifications.NotificationScheduler.cancelDailyNotification</title>
<!-- Node1 -->
<g id="Node000001" class="node">
<title>Node1</title>
<g id="a_Node000001"><a xlink:title=" ">
<polygon fill="#999999" stroke="#666666" points="747,-144 511,-144 511,-114 747,-114 747,-144"/>
<text text-anchor="start" x="519" y="-132" font-family="Helvetica,sans-Serif" font-size="10.00">com.example.mybookshelf.notifications.</text>
<text text-anchor="middle" x="629" y="-121" font-family="Helvetica,sans-Serif" font-size="10.00">NotificationScheduler.cancelDailyNotification</text>
</a>
</g>
</g>
<!-- Node2 -->
<g id="Node000002" class="node">
<title>Node2</title>
<g id="a_Node000002"><a xlink:href="classcom_1_1example_1_1mybookshelf_1_1notifications_1_1NotificationScheduler.html#afeb40a8c5551b18f32abe21dcc0e130a" target="_top" xlink:title=" ">
<polygon fill="white" stroke="#666666" points="462.5,-251.5 222.5,-251.5 222.5,-210.5 462.5,-210.5 462.5,-251.5"/>
<text text-anchor="start" x="230.5" y="-239.5" font-family="Helvetica,sans-Serif" font-size="10.00">com.example.mybookshelf.notifications.</text>
<text text-anchor="start" x="230.5" y="-228.5" font-family="Helvetica,sans-Serif" font-size="10.00">NotificationScheduler.changeDailyNotification</text>
<text text-anchor="middle" x="342.5" y="-217.5" font-family="Helvetica,sans-Serif" font-size="10.00">Message</text>
</a>
</g>
</g>
<!-- Node1&#45;&gt;Node2 -->
<g id="edge1_Node000001_Node000002" class="edge">
<title>Node1&#45;&gt;Node2</title>
<g id="a_edge1_Node000001_Node000002"><a xlink:title=" ">
<path fill="none" stroke="#63b8ff" d="M591.6,-148.87C561.17,-164.8 516.25,-186.78 475,-201 465.04,-204.44 454.52,-207.59 443.94,-210.46"/>
<polygon fill="#63b8ff" stroke="#63b8ff" points="593.35,-151.9 600.56,-144.13 590.08,-145.71 593.35,-151.9"/>
</a>
</g>
</g>
<!-- Node3 -->
<g id="Node000003" class="node">
<title>Node3</title>
<g id="a_Node000003"><a xlink:href="classcom_1_1example_1_1mybookshelf_1_1notifications_1_1NotificationScheduler.html#a79dcce93490bc0df80c03c0a410672b2" target="_top" xlink:title=" ">
<polygon fill="white" stroke="#666666" points="475,-192 210,-192 210,-162 475,-162 475,-192"/>
<text text-anchor="start" x="218" y="-180" font-family="Helvetica,sans-Serif" font-size="10.00">com.example.mybookshelf.notifications.</text>
<text text-anchor="middle" x="342.5" y="-169" font-family="Helvetica,sans-Serif" font-size="10.00">NotificationScheduler.changeDailyNotificationTime</text>
</a>
</g>
</g>
<!-- Node1&#45;&gt;Node3 -->
<g id="edge2_Node000001_Node000003" class="edge">
<title>Node1&#45;&gt;Node3</title>
<g id="a_edge2_Node000001_Node000003"><a xlink:title=" ">
<path fill="none" stroke="#63b8ff" d="M528.71,-145.75C497.38,-151.04 462.98,-156.84 432.42,-162"/>
<polygon fill="#63b8ff" stroke="#63b8ff" points="529.48,-149.17 538.76,-144.06 528.32,-142.27 529.48,-149.17"/>
</a>
</g>
</g>
<!-- Node4 -->
<g id="Node000004" class="node">
<title>Node4</title>
<g id="a_Node000004"><a xlink:href="classcom_1_1example_1_1mybookshelf_1_1GoalHandler.html#a326d9e94cb83508cae6d760df1bd5718" target="_top" xlink:title=" ">
<polygon fill="white" stroke="#666666" points="434.5,-144 250.5,-144 250.5,-114 434.5,-114 434.5,-144"/>
<text text-anchor="start" x="258.5" y="-132" font-family="Helvetica,sans-Serif" font-size="10.00">com.example.mybookshelf.</text>
<text text-anchor="middle" x="342.5" y="-121" font-family="Helvetica,sans-Serif" font-size="10.00">GoalHandler.handleBookRemoved</text>
</a>
</g>
</g>
<!-- Node1&#45;&gt;Node4 -->
<g id="edge3_Node000001_Node000004" class="edge">
<title>Node1&#45;&gt;Node4</title>
<g id="a_edge3_Node000001_Node000004"><a xlink:title=" ">
<path fill="none" stroke="#63b8ff" d="M500.47,-129C478.23,-129 455.51,-129 434.51,-129"/>
<polygon fill="#63b8ff" stroke="#63b8ff" points="500.64,-132.5 510.64,-129 500.64,-125.5 500.64,-132.5"/>
</a>
</g>
</g>
<!-- Node5 -->
<g id="Node000005" class="node">
<title>Node5</title>
<g id="a_Node000005"><a xlink:href="classcom_1_1example_1_1mybookshelf_1_1notifications_1_1NotificationScheduler.html#ae2ade14f140458ae3bdac1c7e0ac35d8" target="_top" xlink:title=" ">
<polygon fill="white" stroke="#666666" points="460.5,-96 224.5,-96 224.5,-66 460.5,-66 460.5,-96"/>
<text text-anchor="start" x="232.5" y="-84" font-family="Helvetica,sans-Serif" font-size="10.00">com.example.mybookshelf.notifications.</text>
<text text-anchor="middle" x="342.5" y="-73" font-family="Helvetica,sans-Serif" font-size="10.00">NotificationScheduler.toggleDailyNotification</text>
</a>
</g>
</g>
<!-- Node1&#45;&gt;Node5 -->
<g id="edge4_Node000001_Node000005" class="edge">
<title>Node1&#45;&gt;Node5</title>
<g id="a_edge4_Node000001_Node000005"><a xlink:title=" ">
<path fill="none" stroke="#63b8ff" d="M528.71,-112.25C497.38,-106.96 462.98,-101.16 432.42,-96"/>
<polygon fill="#63b8ff" stroke="#63b8ff" points="528.32,-115.73 538.76,-113.94 529.48,-108.83 528.32,-115.73"/>
</a>
</g>
</g>
<!-- Node6 -->
<g id="Node000006" class="node">
<title>Node6</title>
<g id="a_Node000006"><a xlink:href="classcom_1_1example_1_1mybookshelf_1_1dataClass_1_1User.html#afb85fd04c8149bfb77f1810c9301b0bc" target="_top" xlink:title=" ">
<polygon fill="white" stroke="#666666" points="429.5,-30 255.5,-30 255.5,0 429.5,0 429.5,-30"/>
<text text-anchor="start" x="263.5" y="-18" font-family="Helvetica,sans-Serif" font-size="10.00">com.example.mybookshelf.data</text>
<text text-anchor="middle" x="342.5" y="-7" font-family="Helvetica,sans-Serif" font-size="10.00">Class.User.User</text>
</a>
</g>
</g>
<!-- Node1&#45;&gt;Node6 -->
<g id="edge5_Node000001_Node000006" class="edge">
<title>Node1&#45;&gt;Node6</title>
<g id="a_edge5_Node000001_Node000006"><a xlink:title=" ">
<path fill="none" stroke="#63b8ff" d="M589.85,-109.34C559.26,-94 514.99,-72.72 475,-57 449.35,-46.92 420.21,-37.42 395.89,-30.01"/>
<polygon fill="#63b8ff" stroke="#63b8ff" points="588.38,-112.52 598.88,-113.9 591.53,-106.27 588.38,-112.52"/>
</a>
</g>
</g>
<!-- Node6&#45;&gt;Node6 -->
<g id="edge7_Node000006_Node000006" class="edge">
<title>Node6&#45;&gt;Node6</title>
<g id="a_edge7_Node000006_Node000006"><a xlink:title=" ">
<path fill="none" stroke="#63b8ff" d="M386.96,-40.6C380.88,-44.97 366.06,-48 342.5,-48 302.81,-48 287.93,-39.41 297.85,-30.28"/>
<polygon fill="#63b8ff" stroke="#63b8ff" points="390.46,-40.34 387.15,-30.28 383.47,-40.21 390.46,-40.34"/>
</a>
</g>
</g>
<!-- Node7 -->
<g id="Node000007" class="node">
<title>Node7</title>
<g id="a_Node000007"><a xlink:href="classcom_1_1example_1_1mybookshelf_1_1dataClass_1_1User.html#aeccdf2ba94dc9b82428e2339fce94f16" target="_top" xlink:title=" ">
<polygon fill="white" stroke="#666666" points="174,-30 0,-30 0,0 174,0 174,-30"/>
<text text-anchor="start" x="8" y="-18" font-family="Helvetica,sans-Serif" font-size="10.00">com.example.mybookshelf.data</text>
<text text-anchor="middle" x="87" y="-7" font-family="Helvetica,sans-Serif" font-size="10.00">Class.User.User</text>
</a>
</g>
</g>
<!-- Node6&#45;&gt;Node7 -->
<g id="edge6_Node000006_Node000007" class="edge">
<title>Node6&#45;&gt;Node7</title>
<g id="a_edge6_Node000006_Node000007"><a xlink:title=" ">
<path fill="none" stroke="#63b8ff" d="M245.1,-15C221.84,-15 197.14,-15 174.37,-15"/>
<polygon fill="#63b8ff" stroke="#63b8ff" points="245.32,-18.5 255.32,-15 245.32,-11.5 245.32,-18.5"/>
</a>
</g>
</g>
</g>
</svg>
