<?xml version="1.0" encoding="UTF-8" standalone="no"?>
<!DOCTYPE svg PUBLIC "-//W3C//DTD SVG 1.1//EN"
 "http://www.w3.org/Graphics/SVG/1.1/DTD/svg11.dtd">
<!-- Generated by graphviz version 2.43.0 (0)
 -->
<!-- Title: com.example.mybookshelf.LayoutManager.CustomGoalAdapter.setGoals Pages: 1 -->
<svg width="1433pt" height="143pt"
 viewBox="0.00 0.00 1433.00 143.25" xmlns="http://www.w3.org/2000/svg" xmlns:xlink="http://www.w3.org/1999/xlink">
<g id="graph0" class="graph" transform="scale(1 1) rotate(0) translate(4 139.25)">
<title>com.example.mybookshelf.LayoutManager.CustomGoalAdapter.setGoals</title>
<!-- Node1 -->
<g id="Node000001" class="node">
<title>Node1</title>
<g id="a_Node000001"><a xlink:title=" ">
<polygon fill="#999999" stroke="#666666" points="1425,-97.25 1187,-97.25 1187,-67.25 1425,-67.25 1425,-97.25"/>
<text text-anchor="start" x="1195" y="-85.25" font-family="Helvetica,sans-Serif" font-size="10.00">com.example.mybookshelf.</text>
<text text-anchor="middle" x="1306" y="-74.25" font-family="Helvetica,sans-Serif" font-size="10.00">LayoutManager.CustomGoalAdapter.setGoals</text>
</a>
</g>
</g>
<!-- Node2 -->
<g id="Node000002" class="node">
<title>Node2</title>
<g id="a_Node000002"><a xlink:href="classcom_1_1example_1_1mybookshelf_1_1UIMaster.html#ad30bff41c8ec833af2293c0b6c8b47b2" target="_top" xlink:title=" ">
<polygon fill="white" stroke="#666666" points="1151,-97.25 999,-97.25 999,-67.25 1151,-67.25 1151,-97.25"/>
<text text-anchor="start" x="1007" y="-85.25" font-family="Helvetica,sans-Serif" font-size="10.00">com.example.mybookshelf.</text>
<text text-anchor="middle" x="1075" y="-74.25" font-family="Helvetica,sans-Serif" font-size="10.00">UIMaster.navigateToGoals</text>
</a>
</g>
</g>
<!-- Node1&#45;&gt;Node2 -->
<g id="edge1_Node000001_Node000002" class="edge">
<title>Node1&#45;&gt;Node2</title>
<g id="a_edge1_Node000001_Node000002"><a xlink:title=" ">
<path fill="none" stroke="#63b8ff" d="M1176.59,-82.25C1167.92,-82.25 1159.36,-82.25 1151.11,-82.25"/>
<polygon fill="#63b8ff" stroke="#63b8ff" points="1176.81,-85.75 1186.81,-82.25 1176.81,-78.75 1176.81,-85.75"/>
</a>
</g>
</g>
<!-- Node3 -->
<g id="Node000003" class="node">
<title>Node3</title>
<g id="a_Node000003"><a xlink:href="classcom_1_1example_1_1mybookshelf_1_1UIMaster.html#ac2a608fcf86d3dbe14b4684dbbaf1431" target="_top" xlink:title=" ">
<polygon fill="white" stroke="#666666" points="340,-135.25 188,-135.25 188,-105.25 340,-105.25 340,-135.25"/>
<text text-anchor="start" x="196" y="-123.25" font-family="Helvetica,sans-Serif" font-size="10.00">com.example.mybookshelf.</text>
<text text-anchor="middle" x="264" y="-112.25" font-family="Helvetica,sans-Serif" font-size="10.00">UIMaster.navigateToDetails</text>
</a>
</g>
</g>
<!-- Node2&#45;&gt;Node3 -->
<g id="edge2_Node000002_Node000003" class="edge">
<title>Node2&#45;&gt;Node3</title>
<g id="a_edge2_Node000002_Node000003"><a xlink:title=" ">
<path fill="none" stroke="#63b8ff" d="M1003.7,-99.4C990.26,-102.13 976.25,-104.59 963,-106.25 737.66,-134.52 468.25,-128.91 340,-123.87"/>
<polygon fill="#63b8ff" stroke="#63b8ff" points="1004.77,-102.75 1013.84,-97.28 1003.34,-95.9 1004.77,-102.75"/>
</a>
</g>
</g>
<!-- Node5 -->
<g id="Node000005" class="node">
<title>Node5</title>
<g id="a_Node000005"><a xlink:href="classcom_1_1example_1_1mybookshelf_1_1UIMaster.html#ac859db60f9068e6a87b633ef697d4d0f" target="_top" xlink:title=" ">
<polygon fill="white" stroke="#666666" points="963,-97.25 807,-97.25 807,-67.25 963,-67.25 963,-97.25"/>
<text text-anchor="start" x="815" y="-85.25" font-family="Helvetica,sans-Serif" font-size="10.00">com.example.mybookshelf.</text>
<text text-anchor="middle" x="885" y="-74.25" font-family="Helvetica,sans-Serif" font-size="10.00">UIMaster.navigateToSettings</text>
</a>
</g>
</g>
<!-- Node2&#45;&gt;Node5 -->
<g id="edge4_Node000002_Node000005" class="edge">
<title>Node2&#45;&gt;Node5</title>
<g id="a_edge4_Node000002_Node000005"><a xlink:title=" ">
<path fill="none" stroke="#63b8ff" d="M988.88,-75.53C980.31,-75.48 971.63,-75.5 963.15,-75.6"/>
<polygon fill="#63b8ff" stroke="#63b8ff" points="988.85,-79.03 998.89,-75.62 988.92,-72.03 988.85,-79.03"/>
</a>
</g>
</g>
<!-- Node6 -->
<g id="Node000006" class="node">
<title>Node6</title>
<g id="a_Node000006"><a xlink:href="classcom_1_1example_1_1mybookshelf_1_1UIMaster.html#aa6aad8404432bdaf23db9b41e99a6ed5" target="_top" xlink:title=" ">
<polygon fill="white" stroke="#666666" points="771,-54.25 590,-54.25 590,-24.25 771,-24.25 771,-54.25"/>
<text text-anchor="start" x="598" y="-42.25" font-family="Helvetica,sans-Serif" font-size="10.00">com.example.mybookshelf.</text>
<text text-anchor="middle" x="680.5" y="-31.25" font-family="Helvetica,sans-Serif" font-size="10.00">UIMaster.setupNavigationButtons</text>
</a>
</g>
</g>
<!-- Node2&#45;&gt;Node6 -->
<g id="edge12_Node000002_Node000006" class="edge">
<title>Node2&#45;&gt;Node6</title>
<g id="a_edge12_Node000002_Node000006"><a xlink:title=" ">
<path fill="none" stroke="#63b8ff" d="M1002.23,-65.14C989.23,-62.5 975.76,-60.05 963,-58.25 899.22,-49.25 826.69,-44.49 771.22,-41.98"/>
<polygon fill="#63b8ff" stroke="#63b8ff" points="1001.55,-68.57 1012.06,-67.19 1002.98,-61.72 1001.55,-68.57"/>
</a>
</g>
</g>
<!-- Node4 -->
<g id="Node000004" class="node">
<title>Node4</title>
<g id="a_Node000004"><a xlink:href="classcom_1_1example_1_1mybookshelf_1_1UIMaster.html#a1533d0ed2384f2ec729cfcec7bd9a25f" target="_top" xlink:title=" ">
<polygon fill="white" stroke="#666666" points="152,-135.25 0,-135.25 0,-105.25 152,-105.25 152,-135.25"/>
<text text-anchor="start" x="8" y="-123.25" font-family="Helvetica,sans-Serif" font-size="10.00">com.example.mybookshelf.</text>
<text text-anchor="middle" x="76" y="-112.25" font-family="Helvetica,sans-Serif" font-size="10.00">UIMaster.createBookBox</text>
</a>
</g>
</g>
<!-- Node3&#45;&gt;Node4 -->
<g id="edge3_Node000003_Node000004" class="edge">
<title>Node3&#45;&gt;Node4</title>
<g id="a_edge3_Node000003_Node000004"><a xlink:title=" ">
<path fill="none" stroke="#63b8ff" d="M177.85,-120.25C169.26,-120.25 160.57,-120.25 152.1,-120.25"/>
<polygon fill="#63b8ff" stroke="#63b8ff" points="177.88,-123.75 187.88,-120.25 177.88,-116.75 177.88,-123.75"/>
</a>
</g>
</g>
<!-- Node5&#45;&gt;Node2 -->
<g id="edge6_Node000005_Node000002" class="edge">
<title>Node5&#45;&gt;Node2</title>
<g id="a_edge6_Node000005_Node000002"><a xlink:title=" ">
<path fill="none" stroke="#63b8ff" d="M973.18,-88.99C981.77,-89.03 990.43,-88.99 998.89,-88.88"/>
<polygon fill="#63b8ff" stroke="#63b8ff" points="973.17,-85.49 963.15,-88.9 973.12,-92.49 973.17,-85.49"/>
</a>
</g>
</g>
<!-- Node5&#45;&gt;Node3 -->
<g id="edge5_Node000005_Node000003" class="edge">
<title>Node5&#45;&gt;Node3</title>
<g id="a_edge5_Node000005_Node000003"><a xlink:title=" ">
<path fill="none" stroke="#63b8ff" d="M796.8,-87.6C674.84,-95.09 455.37,-108.57 340.21,-115.63"/>
<polygon fill="#63b8ff" stroke="#63b8ff" points="797.09,-91.09 806.85,-86.99 796.66,-84.11 797.09,-91.09"/>
</a>
</g>
</g>
<!-- Node5&#45;&gt;Node6 -->
<g id="edge7_Node000005_Node000006" class="edge">
<title>Node5&#45;&gt;Node6</title>
<g id="a_edge7_Node000005_Node000006"><a xlink:title=" ">
<path fill="none" stroke="#63b8ff" d="M803.34,-65.12C786.46,-61.54 768.78,-57.78 752.28,-54.28"/>
<polygon fill="#63b8ff" stroke="#63b8ff" points="802.67,-68.56 813.18,-67.21 804.12,-61.71 802.67,-68.56"/>
</a>
</g>
</g>
<!-- Node7 -->
<g id="Node000007" class="node">
<title>Node7</title>
<g id="a_Node000007"><a xlink:href="classcom_1_1example_1_1mybookshelf_1_1UIMaster.html#ad609d5e0b54e87afcb60aed6c66a792e" target="_top" xlink:title=" ">
<polygon fill="white" stroke="#666666" points="554,-73.25 376,-73.25 376,-43.25 554,-43.25 554,-73.25"/>
<text text-anchor="start" x="384" y="-61.25" font-family="Helvetica,sans-Serif" font-size="10.00">com.example.mybookshelf.</text>
<text text-anchor="middle" x="465" y="-50.25" font-family="Helvetica,sans-Serif" font-size="10.00">UIMaster.navigateToStartingPage</text>
</a>
</g>
</g>
<!-- Node6&#45;&gt;Node7 -->
<g id="edge8_Node000006_Node000007" class="edge">
<title>Node6&#45;&gt;Node7</title>
<g id="a_edge8_Node000006_Node000007"><a xlink:title=" ">
<path fill="none" stroke="#63b8ff" d="M579.82,-48.12C571.2,-48.89 562.53,-49.66 554.02,-50.42"/>
<polygon fill="#63b8ff" stroke="#63b8ff" points="580.23,-51.6 589.88,-47.23 579.61,-44.63 580.23,-51.6"/>
</a>
</g>
</g>
<!-- Node7&#45;&gt;Node2 -->
<g id="edge10_Node000007_Node000002" class="edge">
<title>Node7&#45;&gt;Node2</title>
<g id="a_edge10_Node000007_Node000002"><a xlink:title=" ">
<path fill="none" stroke="#63b8ff" d="M508.73,-39.47C532.21,-30.17 562.16,-19.94 590,-15.25 753.81,12.35 801.92,1.36 963,-39.25 990.05,-46.07 1019.44,-57.66 1041.18,-67.08"/>
<polygon fill="#63b8ff" stroke="#63b8ff" points="507.36,-36.25 499.41,-43.25 509.99,-42.74 507.36,-36.25"/>
</a>
</g>
</g>
<!-- Node7&#45;&gt;Node3 -->
<g id="edge9_Node000007_Node000003" class="edge">
<title>Node7&#45;&gt;Node3</title>
<g id="a_edge9_Node000007_Node000003"><a xlink:title=" ">
<path fill="none" stroke="#63b8ff" d="M406.1,-76.29C376.69,-85.45 341.37,-96.46 313.42,-105.17"/>
<polygon fill="#63b8ff" stroke="#63b8ff" points="407.32,-79.58 415.83,-73.26 405.24,-72.89 407.32,-79.58"/>
</a>
</g>
</g>
<!-- Node7&#45;&gt;Node5 -->
<g id="edge11_Node000007_Node000005" class="edge">
<title>Node7&#45;&gt;Node5</title>
<g id="a_edge11_Node000007_Node000005"><a xlink:title=" ">
<path fill="none" stroke="#63b8ff" d="M564.56,-63.91C638.6,-68.16 738.58,-73.9 806.85,-77.82"/>
<polygon fill="#63b8ff" stroke="#63b8ff" points="564.47,-60.4 554.29,-63.32 564.07,-67.39 564.47,-60.4"/>
</a>
</g>
</g>
</g>
</svg>
