<?xml version="1.0" encoding="UTF-8" standalone="no"?>
<!DOCTYPE svg PUBLIC "-//W3C//DTD SVG 1.1//EN"
 "http://www.w3.org/Graphics/SVG/1.1/DTD/svg11.dtd">
<!-- Generated by graphviz version 2.43.0 (0)
 -->
<!-- Title: com.example.mybookshelf.BookRecommendationFlow.addChatMessage Pages: 1 -->
<svg width="2304pt" height="488pt"
 viewBox="0.00 0.00 2304.00 488.17" xmlns="http://www.w3.org/2000/svg" xmlns:xlink="http://www.w3.org/1999/xlink">
<g id="graph0" class="graph" transform="scale(1 1) rotate(0) translate(4 484.17)">
<title>com.example.mybookshelf.BookRecommendationFlow.addChatMessage</title>
<!-- Node1 -->
<g id="Node000001" class="node">
<title>Node1</title>
<g id="a_Node000001"><a xlink:title=" ">
<polygon fill="#999999" stroke="#666666" points="2296,-295.1 2102,-295.1 2102,-254.1 2296,-254.1 2296,-295.1"/>
<text text-anchor="start" x="2110" y="-283.1" font-family="Helvetica,sans-Serif" font-size="10.00">com.example.mybookshelf.</text>
<text text-anchor="start" x="2110" y="-272.1" font-family="Helvetica,sans-Serif" font-size="10.00">BookRecommendationFlow.addChat</text>
<text text-anchor="middle" x="2199" y="-261.1" font-family="Helvetica,sans-Serif" font-size="10.00">Message</text>
</a>
</g>
</g>
<!-- Node2 -->
<g id="Node000002" class="node">
<title>Node2</title>
<g id="a_Node000002"><a xlink:href="classcom_1_1example_1_1mybookshelf_1_1BookRecommendationFlow.html#ae50cf18619872a365eebe91c18d86e8d" target="_top" xlink:title=" ">
<polygon fill="white" stroke="#666666" points="2066,-179.6 1886,-179.6 1886,-149.6 2066,-149.6 2066,-179.6"/>
<text text-anchor="start" x="1894" y="-167.6" font-family="Helvetica,sans-Serif" font-size="10.00">com.example.mybookshelf.</text>
<text text-anchor="middle" x="1976" y="-156.6" font-family="Helvetica,sans-Serif" font-size="10.00">BookRecommendationFlow.callAI</text>
</a>
</g>
</g>
<!-- Node1&#45;&gt;Node2 -->
<g id="edge1_Node000001_Node000002" class="edge">
<title>Node1&#45;&gt;Node2</title>
<g id="a_edge1_Node000001_Node000002"><a xlink:title=" ">
<path fill="none" stroke="#63b8ff" d="M2147.48,-249.45C2104.29,-227.96 2043.56,-197.73 2007.45,-179.75"/>
<polygon fill="#63b8ff" stroke="#63b8ff" points="2146.18,-252.71 2156.69,-254.04 2149.3,-246.45 2146.18,-252.71"/>
</a>
</g>
</g>
<!-- Node4 -->
<g id="Node000004" class="node">
<title>Node4</title>
<g id="a_Node000004"><a xlink:href="classcom_1_1example_1_1mybookshelf_1_1BookRecommendationFlow.html#aa95301256c7f5377d1bc432189483b3c" target="_top" xlink:title=" ">
<polygon fill="white" stroke="#666666" points="1636,-371.1 1433,-371.1 1433,-330.1 1636,-330.1 1636,-371.1"/>
<text text-anchor="start" x="1441" y="-359.1" font-family="Helvetica,sans-Serif" font-size="10.00">com.example.mybookshelf.</text>
<text text-anchor="start" x="1441" y="-348.1" font-family="Helvetica,sans-Serif" font-size="10.00">BookRecommendationFlow.showBook</text>
<text text-anchor="middle" x="1534.5" y="-337.1" font-family="Helvetica,sans-Serif" font-size="10.00">BasedStep3</text>
</a>
</g>
</g>
<!-- Node1&#45;&gt;Node4 -->
<g id="edge20_Node000001_Node000004" class="edge">
<title>Node1&#45;&gt;Node4</title>
<g id="a_edge20_Node000001_Node000004"><a xlink:title=" ">
<path fill="none" stroke="#63b8ff" d="M2156.12,-300.2C2130.97,-314.11 2097.78,-329.99 2066,-337.6 1919.73,-372.6 1744.28,-368.25 1636.35,-360.5"/>
<polygon fill="#63b8ff" stroke="#63b8ff" points="2158.01,-303.14 2165,-295.18 2154.57,-297.05 2158.01,-303.14"/>
</a>
</g>
</g>
<!-- Node5 -->
<g id="Node000005" class="node">
<title>Node5</title>
<g id="a_Node000005"><a xlink:href="classcom_1_1example_1_1mybookshelf_1_1BookRecommendationFlow.html#a5c657be258c13c85848c7b7115f8a0b5" target="_top" xlink:title=" ">
<polygon fill="white" stroke="#666666" points="1395,-390.1 1192,-390.1 1192,-349.1 1395,-349.1 1395,-390.1"/>
<text text-anchor="start" x="1200" y="-378.1" font-family="Helvetica,sans-Serif" font-size="10.00">com.example.mybookshelf.</text>
<text text-anchor="start" x="1200" y="-367.1" font-family="Helvetica,sans-Serif" font-size="10.00">BookRecommendationFlow.showBook</text>
<text text-anchor="middle" x="1293.5" y="-356.1" font-family="Helvetica,sans-Serif" font-size="10.00">BasedStep2</text>
</a>
</g>
</g>
<!-- Node1&#45;&gt;Node5 -->
<g id="edge19_Node000001_Node000005" class="edge">
<title>Node1&#45;&gt;Node5</title>
<g id="a_edge19_Node000001_Node000005"><a xlink:title=" ">
<path fill="none" stroke="#63b8ff" d="M2168.06,-302.01C2142.86,-323.25 2104.81,-351.23 2066,-364.6 1836.61,-443.57 1545.61,-413.3 1395.02,-388.83"/>
<polygon fill="#63b8ff" stroke="#63b8ff" points="2170.47,-304.55 2175.77,-295.38 2165.91,-299.24 2170.47,-304.55"/>
</a>
</g>
</g>
<!-- Node6 -->
<g id="Node000006" class="node">
<title>Node6</title>
<g id="a_Node000006"><a xlink:href="classcom_1_1example_1_1mybookshelf_1_1BookRecommendationFlow.html#a276e931dabe3e85af257a9d16ce7cc67" target="_top" xlink:title=" ">
<polygon fill="white" stroke="#666666" points="1154,-390.1 951,-390.1 951,-349.1 1154,-349.1 1154,-390.1"/>
<text text-anchor="start" x="959" y="-378.1" font-family="Helvetica,sans-Serif" font-size="10.00">com.example.mybookshelf.</text>
<text text-anchor="start" x="959" y="-367.1" font-family="Helvetica,sans-Serif" font-size="10.00">BookRecommendationFlow.showBook</text>
<text text-anchor="middle" x="1052.5" y="-356.1" font-family="Helvetica,sans-Serif" font-size="10.00">BasedStep1</text>
</a>
</g>
</g>
<!-- Node1&#45;&gt;Node6 -->
<g id="edge18_Node000001_Node000006" class="edge">
<title>Node1&#45;&gt;Node6</title>
<g id="a_edge18_Node000001_Node000006"><a xlink:title=" ">
<path fill="none" stroke="#63b8ff" d="M2176.25,-303.41C2152.57,-332.44 2111.9,-375.95 2066,-397.6 1942.94,-455.62 1898.56,-437.6 1762.5,-437.6 1762.5,-437.6 1762.5,-437.6 1533.5,-437.6 1380.34,-437.6 1342.13,-424.4 1191,-399.6 1174.85,-396.95 1157.73,-393.63 1141.26,-390.17"/>
<polygon fill="#63b8ff" stroke="#63b8ff" points="2179.24,-305.27 2182.75,-295.27 2173.77,-300.9 2179.24,-305.27"/>
</a>
</g>
</g>
<!-- Node8 -->
<g id="Node000008" class="node">
<title>Node8</title>
<g id="a_Node000008"><a xlink:href="classcom_1_1example_1_1mybookshelf_1_1BookRecommendationFlow.html#a4dceb0fa4d170b8c7e5a7a6718593dfe" target="_top" xlink:title=" ">
<polygon fill="white" stroke="#666666" points="200,-345.6 0,-345.6 0,-315.6 200,-315.6 200,-345.6"/>
<text text-anchor="start" x="8" y="-333.6" font-family="Helvetica,sans-Serif" font-size="10.00">com.example.mybookshelf.</text>
<text text-anchor="middle" x="100" y="-322.6" font-family="Helvetica,sans-Serif" font-size="10.00">BookRecommendationFlow.handleNo</text>
</a>
</g>
</g>
<!-- Node1&#45;&gt;Node8 -->
<g id="edge17_Node000001_Node000008" class="edge">
<title>Node1&#45;&gt;Node8</title>
<g id="a_edge17_Node000001_Node000008"><a xlink:title=" ">
<path fill="none" stroke="#63b8ff" d="M2182.52,-303.97C2161.47,-340.72 2120.13,-402.47 2066,-432.6 1946.95,-498.84 1898.74,-475.6 1762.5,-475.6 1762.5,-475.6 1762.5,-475.6 569.5,-475.6 395.17,-475.6 200.01,-382.84 128.85,-345.7"/>
<polygon fill="#63b8ff" stroke="#63b8ff" points="2185.6,-305.64 2187.44,-295.2 2179.5,-302.22 2185.6,-305.64"/>
</a>
</g>
</g>
<!-- Node10 -->
<g id="Node000010" class="node">
<title>Node10</title>
<g id="a_Node000010"><a xlink:href="classcom_1_1example_1_1mybookshelf_1_1BookRecommendationFlow.html#a46c6733f27b3527d3934cee02cfcd7ac" target="_top" xlink:title=" ">
<polygon fill="white" stroke="#666666" points="1637,-197.1 1432,-197.1 1432,-156.1 1637,-156.1 1637,-197.1"/>
<text text-anchor="start" x="1440" y="-185.1" font-family="Helvetica,sans-Serif" font-size="10.00">com.example.mybookshelf.</text>
<text text-anchor="start" x="1440" y="-174.1" font-family="Helvetica,sans-Serif" font-size="10.00">BookRecommendationFlow.showFresh</text>
<text text-anchor="middle" x="1534.5" y="-163.1" font-family="Helvetica,sans-Serif" font-size="10.00">StartStep5</text>
</a>
</g>
</g>
<!-- Node1&#45;&gt;Node10 -->
<g id="edge25_Node000001_Node000010" class="edge">
<title>Node1&#45;&gt;Node10</title>
<g id="a_edge25_Node000001_Node000010"><a xlink:title=" ">
<path fill="none" stroke="#63b8ff" d="M2091.77,-263.07C1985.47,-250.97 1817.4,-230.28 1673,-205.6 1658.45,-203.11 1643.1,-200.18 1628.14,-197.15"/>
<polygon fill="#63b8ff" stroke="#63b8ff" points="2091.53,-266.57 2101.87,-264.22 2092.32,-259.61 2091.53,-266.57"/>
</a>
</g>
</g>
<!-- Node11 -->
<g id="Node000011" class="node">
<title>Node11</title>
<g id="a_Node000011"><a xlink:href="classcom_1_1example_1_1mybookshelf_1_1BookRecommendationFlow.html#ad10515cfcf8650b6830b68f15d393b3b" target="_top" xlink:title=" ">
<polygon fill="white" stroke="#666666" points="1396,-197.1 1191,-197.1 1191,-156.1 1396,-156.1 1396,-197.1"/>
<text text-anchor="start" x="1199" y="-185.1" font-family="Helvetica,sans-Serif" font-size="10.00">com.example.mybookshelf.</text>
<text text-anchor="start" x="1199" y="-174.1" font-family="Helvetica,sans-Serif" font-size="10.00">BookRecommendationFlow.showFresh</text>
<text text-anchor="middle" x="1293.5" y="-163.1" font-family="Helvetica,sans-Serif" font-size="10.00">StartStep4</text>
</a>
</g>
</g>
<!-- Node1&#45;&gt;Node11 -->
<g id="edge24_Node000001_Node000011" class="edge">
<title>Node1&#45;&gt;Node11</title>
<g id="a_edge24_Node000001_Node000011"><a xlink:title=" ">
<path fill="none" stroke="#63b8ff" d="M2179.76,-245.33C2157.51,-212.71 2116.52,-161.75 2066,-140.6 1821.26,-38.14 1493.93,-115.58 1357.91,-156.03"/>
<polygon fill="#63b8ff" stroke="#63b8ff" points="2177.08,-247.62 2185.54,-254.01 2182.91,-243.74 2177.08,-247.62"/>
</a>
</g>
</g>
<!-- Node12 -->
<g id="Node000012" class="node">
<title>Node12</title>
<g id="a_Node000012"><a xlink:href="classcom_1_1example_1_1mybookshelf_1_1BookRecommendationFlow.html#a2bc1c0125eb3c1fe64ed1ed3ee93d3eb" target="_top" xlink:title=" ">
<polygon fill="white" stroke="#666666" points="1155,-197.1 950,-197.1 950,-156.1 1155,-156.1 1155,-197.1"/>
<text text-anchor="start" x="958" y="-185.1" font-family="Helvetica,sans-Serif" font-size="10.00">com.example.mybookshelf.</text>
<text text-anchor="start" x="958" y="-174.1" font-family="Helvetica,sans-Serif" font-size="10.00">BookRecommendationFlow.showFresh</text>
<text text-anchor="middle" x="1052.5" y="-163.1" font-family="Helvetica,sans-Serif" font-size="10.00">StartStep3</text>
</a>
</g>
</g>
<!-- Node1&#45;&gt;Node12 -->
<g id="edge23_Node000001_Node000012" class="edge">
<title>Node1&#45;&gt;Node12</title>
<g id="a_edge23_Node000001_Node000012"><a xlink:title=" ">
<path fill="none" stroke="#63b8ff" d="M2185.53,-244.61C2166.46,-202.87 2125.86,-128.38 2066,-92.6 1949.17,-22.76 1898.61,-51.6 1762.5,-51.6 1762.5,-51.6 1762.5,-51.6 1533.5,-51.6 1369.67,-51.6 1184.24,-120.63 1099.8,-156.1"/>
<polygon fill="#63b8ff" stroke="#63b8ff" points="2182.44,-246.26 2189.7,-253.98 2188.83,-243.42 2182.44,-246.26"/>
</a>
</g>
</g>
<!-- Node13 -->
<g id="Node000013" class="node">
<title>Node13</title>
<g id="a_Node000013"><a xlink:href="classcom_1_1example_1_1mybookshelf_1_1BookRecommendationFlow.html#aaf567ca97b0d7f0c58ebba4d6f4b18bd" target="_top" xlink:title=" ">
<polygon fill="white" stroke="#666666" points="914,-197.1 709,-197.1 709,-156.1 914,-156.1 914,-197.1"/>
<text text-anchor="start" x="717" y="-185.1" font-family="Helvetica,sans-Serif" font-size="10.00">com.example.mybookshelf.</text>
<text text-anchor="start" x="717" y="-174.1" font-family="Helvetica,sans-Serif" font-size="10.00">BookRecommendationFlow.showFresh</text>
<text text-anchor="middle" x="811.5" y="-163.1" font-family="Helvetica,sans-Serif" font-size="10.00">StartStep2</text>
</a>
</g>
</g>
<!-- Node1&#45;&gt;Node13 -->
<g id="edge22_Node000001_Node000013" class="edge">
<title>Node1&#45;&gt;Node13</title>
<g id="a_edge22_Node000001_Node000013"><a xlink:title=" ">
<path fill="none" stroke="#63b8ff" d="M2190.5,-244.24C2176.06,-192.91 2139.16,-89.94 2066,-42.6 1952.24,31.03 1898,-13.6 1762.5,-13.6 1762.5,-13.6 1762.5,-13.6 1292.5,-13.6 1117.37,-13.6 924.46,-112.09 847.25,-155.95"/>
<polygon fill="#63b8ff" stroke="#63b8ff" points="2187.17,-245.34 2193.17,-254.08 2193.93,-243.51 2187.17,-245.34"/>
</a>
</g>
</g>
<!-- Node14 -->
<g id="Node000014" class="node">
<title>Node14</title>
<g id="a_Node000014"><a xlink:href="classcom_1_1example_1_1mybookshelf_1_1BookRecommendationFlow.html#a4c7dc337216592f7f214f69ce7009d37" target="_top" xlink:title=" ">
<polygon fill="white" stroke="#666666" points="673,-322.1 468,-322.1 468,-281.1 673,-281.1 673,-322.1"/>
<text text-anchor="start" x="476" y="-310.1" font-family="Helvetica,sans-Serif" font-size="10.00">com.example.mybookshelf.</text>
<text text-anchor="start" x="476" y="-299.1" font-family="Helvetica,sans-Serif" font-size="10.00">BookRecommendationFlow.showFresh</text>
<text text-anchor="middle" x="570.5" y="-288.1" font-family="Helvetica,sans-Serif" font-size="10.00">StartStep1</text>
</a>
</g>
</g>
<!-- Node1&#45;&gt;Node14 -->
<g id="edge21_Node000001_Node000014" class="edge">
<title>Node1&#45;&gt;Node14</title>
<g id="a_edge21_Node000001_Node000014"><a xlink:title=" ">
<path fill="none" stroke="#63b8ff" d="M2091.76,-285.75C2022.92,-292.41 1931.26,-300.22 1850,-303.6 1771.4,-306.87 1751.67,-303.8 1673,-303.6 1504.78,-303.15 1462.72,-301.6 1294.5,-301.6 1294.5,-301.6 1294.5,-301.6 1051.5,-301.6 920.88,-301.6 770.25,-301.6 673.1,-301.6"/>
<polygon fill="#63b8ff" stroke="#63b8ff" points="2092.14,-289.23 2101.75,-284.78 2091.46,-282.27 2092.14,-289.23"/>
</a>
</g>
</g>
<!-- Node2&#45;&gt;Node2 -->
<g id="edge16_Node000002_Node000002" class="edge">
<title>Node2&#45;&gt;Node2</title>
<g id="a_edge16_Node000002_Node000002"><a xlink:title=" ">
<path fill="none" stroke="#63b8ff" d="M2013.46,-190.19C2008.34,-194.57 1995.85,-197.6 1976,-197.6 1942.56,-197.6 1930.02,-189 1938.38,-179.87"/>
<polygon fill="#63b8ff" stroke="#63b8ff" points="2016.96,-189.92 2013.62,-179.87 2009.96,-189.82 2016.96,-189.92"/>
</a>
</g>
</g>
<!-- Node3 -->
<g id="Node000003" class="node">
<title>Node3</title>
<g id="a_Node000003"><a xlink:href="classcom_1_1example_1_1mybookshelf_1_1BookRecommendationFlow.html#a78dda71d2c403a463d824ff61b2ce27f" target="_top" xlink:title=" ">
<polygon fill="white" stroke="#666666" points="1850,-295.1 1673,-295.1 1673,-254.1 1850,-254.1 1850,-295.1"/>
<text text-anchor="start" x="1681" y="-283.1" font-family="Helvetica,sans-Serif" font-size="10.00">com.example.mybookshelf.</text>
<text text-anchor="start" x="1681" y="-272.1" font-family="Helvetica,sans-Serif" font-size="10.00">BookRecommendationFlow.build</text>
<text text-anchor="middle" x="1761.5" y="-261.1" font-family="Helvetica,sans-Serif" font-size="10.00">AIStringBased</text>
</a>
</g>
</g>
<!-- Node2&#45;&gt;Node3 -->
<g id="edge2_Node000002_Node000003" class="edge">
<title>Node2&#45;&gt;Node3</title>
<g id="a_edge2_Node000002_Node000003"><a xlink:title=" ">
<path fill="none" stroke="#63b8ff" d="M1936.71,-184.42C1898.79,-204.05 1840.97,-233.98 1802.47,-253.91"/>
<polygon fill="#63b8ff" stroke="#63b8ff" points="1938.63,-187.37 1945.9,-179.66 1935.41,-181.15 1938.63,-187.37"/>
</a>
</g>
</g>
<!-- Node9 -->
<g id="Node000009" class="node">
<title>Node9</title>
<g id="a_Node000009"><a xlink:href="classcom_1_1example_1_1mybookshelf_1_1BookRecommendationFlow.html#abe4c57ea57ed54c344739295e70066ff" target="_top" xlink:title=" ">
<polygon fill="white" stroke="#666666" points="1850,-197.1 1673,-197.1 1673,-156.1 1850,-156.1 1850,-197.1"/>
<text text-anchor="start" x="1681" y="-185.1" font-family="Helvetica,sans-Serif" font-size="10.00">com.example.mybookshelf.</text>
<text text-anchor="start" x="1681" y="-174.1" font-family="Helvetica,sans-Serif" font-size="10.00">BookRecommendationFlow.build</text>
<text text-anchor="middle" x="1761.5" y="-163.1" font-family="Helvetica,sans-Serif" font-size="10.00">AIStringFresh</text>
</a>
</g>
</g>
<!-- Node2&#45;&gt;Node9 -->
<g id="edge9_Node000002_Node000009" class="edge">
<title>Node2&#45;&gt;Node9</title>
<g id="a_edge9_Node000002_Node000009"><a xlink:title=" ">
<path fill="none" stroke="#63b8ff" d="M1875.78,-170.2C1867.21,-170.68 1858.58,-171.17 1850.11,-171.65"/>
<polygon fill="#63b8ff" stroke="#63b8ff" points="1876.02,-173.69 1885.8,-169.63 1875.62,-166.7 1876.02,-173.69"/>
</a>
</g>
</g>
<!-- Node3&#45;&gt;Node4 -->
<g id="edge3_Node000003_Node000004" class="edge">
<title>Node3&#45;&gt;Node4</title>
<g id="a_edge3_Node000003_Node000004"><a xlink:title=" ">
<path fill="none" stroke="#63b8ff" d="M1690.04,-298.4C1660.02,-308.54 1625.33,-320.25 1596.44,-330.01"/>
<polygon fill="#63b8ff" stroke="#63b8ff" points="1691.26,-301.68 1699.61,-295.16 1689.02,-295.05 1691.26,-301.68"/>
</a>
</g>
</g>
<!-- Node4&#45;&gt;Node5 -->
<g id="edge4_Node000004_Node000005" class="edge">
<title>Node4&#45;&gt;Node5</title>
<g id="a_edge4_Node000004_Node000005"><a xlink:title=" ">
<path fill="none" stroke="#63b8ff" d="M1422.82,-359.39C1413.56,-360.13 1404.23,-360.87 1395.05,-361.6"/>
<polygon fill="#63b8ff" stroke="#63b8ff" points="1423.14,-362.88 1432.84,-358.6 1422.59,-355.9 1423.14,-362.88"/>
</a>
</g>
</g>
<!-- Node5&#45;&gt;Node6 -->
<g id="edge5_Node000005_Node000006" class="edge">
<title>Node5&#45;&gt;Node6</title>
<g id="a_edge5_Node000005_Node000006"><a xlink:title=" ">
<path fill="none" stroke="#63b8ff" d="M1181.82,-369.6C1172.56,-369.6 1163.23,-369.6 1154.05,-369.6"/>
<polygon fill="#63b8ff" stroke="#63b8ff" points="1181.84,-373.1 1191.84,-369.6 1181.84,-366.1 1181.84,-373.1"/>
</a>
</g>
</g>
<!-- Node7 -->
<g id="Node000007" class="node">
<title>Node7</title>
<g id="a_Node000007"><a xlink:href="classcom_1_1example_1_1mybookshelf_1_1BookRecommendationFlow.html#a22f0dcaea578fbd7358e6237cd4873d4" target="_top" xlink:title=" ">
<polygon fill="white" stroke="#666666" points="432,-345.6 236,-345.6 236,-315.6 432,-315.6 432,-345.6"/>
<text text-anchor="start" x="244" y="-333.6" font-family="Helvetica,sans-Serif" font-size="10.00">com.example.mybookshelf.</text>
<text text-anchor="middle" x="334" y="-322.6" font-family="Helvetica,sans-Serif" font-size="10.00">BookRecommendationFlow.handleAI</text>
</a>
</g>
</g>
<!-- Node6&#45;&gt;Node7 -->
<g id="edge6_Node000006_Node000007" class="edge">
<title>Node6&#45;&gt;Node7</title>
<g id="a_edge6_Node000006_Node000007"><a xlink:title=" ">
<path fill="none" stroke="#63b8ff" d="M940.47,-363.55C801.13,-355.97 564.41,-343.08 432.01,-335.88"/>
<polygon fill="#63b8ff" stroke="#63b8ff" points="940.57,-367.06 950.74,-364.11 940.95,-360.07 940.57,-367.06"/>
</a>
</g>
</g>
<!-- Node7&#45;&gt;Node8 -->
<g id="edge7_Node000007_Node000008" class="edge">
<title>Node7&#45;&gt;Node8</title>
<g id="a_edge7_Node000007_Node000008"><a xlink:title=" ">
<path fill="none" stroke="#63b8ff" d="M225.95,-330.6C217.39,-330.6 208.77,-330.6 200.27,-330.6"/>
<polygon fill="#63b8ff" stroke="#63b8ff" points="225.96,-334.1 235.96,-330.6 225.96,-327.1 225.96,-334.1"/>
</a>
</g>
</g>
<!-- Node8&#45;&gt;Node2 -->
<g id="edge8_Node000008_Node000002" class="edge">
<title>Node8&#45;&gt;Node2</title>
<g id="a_edge8_Node000008_Node000002"><a xlink:title=" ">
<path fill="none" stroke="#63b8ff" d="M128.48,-309.07C198.04,-256.84 388.43,-127.6 569.5,-127.6 1535.5,-127.6 1535.5,-127.6 1535.5,-127.6 1675.53,-127.6 1710.69,-132.38 1850,-146.6 1861.56,-147.78 1873.69,-149.24 1885.66,-150.82"/>
<polygon fill="#63b8ff" stroke="#63b8ff" points="126.08,-306.5 120.23,-315.34 130.31,-312.08 126.08,-306.5"/>
</a>
</g>
</g>
<!-- Node9&#45;&gt;Node10 -->
<g id="edge10_Node000009_Node000010" class="edge">
<title>Node9&#45;&gt;Node10</title>
<g id="a_edge10_Node000009_Node000010"><a xlink:title=" ">
<path fill="none" stroke="#63b8ff" d="M1662.62,-176.6C1654.16,-176.6 1645.59,-176.6 1637.11,-176.6"/>
<polygon fill="#63b8ff" stroke="#63b8ff" points="1662.86,-180.1 1672.86,-176.6 1662.86,-173.1 1662.86,-180.1"/>
</a>
</g>
</g>
<!-- Node10&#45;&gt;Node11 -->
<g id="edge11_Node000010_Node000011" class="edge">
<title>Node10&#45;&gt;Node11</title>
<g id="a_edge11_Node000010_Node000011"><a xlink:title=" ">
<path fill="none" stroke="#63b8ff" d="M1421.78,-176.6C1413.22,-176.6 1404.6,-176.6 1396.11,-176.6"/>
<polygon fill="#63b8ff" stroke="#63b8ff" points="1421.8,-180.1 1431.8,-176.6 1421.8,-173.1 1421.8,-180.1"/>
</a>
</g>
</g>
<!-- Node11&#45;&gt;Node12 -->
<g id="edge12_Node000011_Node000012" class="edge">
<title>Node11&#45;&gt;Node12</title>
<g id="a_edge12_Node000011_Node000012"><a xlink:title=" ">
<path fill="none" stroke="#63b8ff" d="M1180.78,-176.6C1172.22,-176.6 1163.6,-176.6 1155.11,-176.6"/>
<polygon fill="#63b8ff" stroke="#63b8ff" points="1180.8,-180.1 1190.8,-176.6 1180.8,-173.1 1180.8,-180.1"/>
</a>
</g>
</g>
<!-- Node12&#45;&gt;Node13 -->
<g id="edge13_Node000012_Node000013" class="edge">
<title>Node12&#45;&gt;Node13</title>
<g id="a_edge13_Node000012_Node000013"><a xlink:title=" ">
<path fill="none" stroke="#63b8ff" d="M939.78,-176.6C931.22,-176.6 922.6,-176.6 914.11,-176.6"/>
<polygon fill="#63b8ff" stroke="#63b8ff" points="939.8,-180.1 949.8,-176.6 939.8,-173.1 939.8,-180.1"/>
</a>
</g>
</g>
<!-- Node13&#45;&gt;Node14 -->
<g id="edge14_Node000013_Node000014" class="edge">
<title>Node13&#45;&gt;Node14</title>
<g id="a_edge14_Node000013_Node000014"><a xlink:title=" ">
<path fill="none" stroke="#63b8ff" d="M762.4,-201.76C717.79,-225.08 652.23,-259.37 610.72,-281.08"/>
<polygon fill="#63b8ff" stroke="#63b8ff" points="764.06,-204.83 771.3,-197.1 760.82,-198.63 764.06,-204.83"/>
</a>
</g>
</g>
<!-- Node14&#45;&gt;Node7 -->
<g id="edge15_Node000014_Node000007" class="edge">
<title>Node14&#45;&gt;Node7</title>
<g id="a_edge15_Node000014_Node000007"><a xlink:title=" ">
<path fill="none" stroke="#63b8ff" d="M457.72,-315.42C449.22,-316.47 440.69,-317.53 432.29,-318.56"/>
<polygon fill="#63b8ff" stroke="#63b8ff" points="458.17,-318.89 467.67,-314.19 457.31,-311.94 458.17,-318.89"/>
</a>
</g>
</g>
</g>
</svg>
