<?xml version="1.0" encoding="UTF-8" standalone="no"?>
<!DOCTYPE svg PUBLIC "-//W3C//DTD SVG 1.1//EN"
 "http://www.w3.org/Graphics/SVG/1.1/DTD/svg11.dtd">
<!-- Generated by graphviz version 2.43.0 (0)
 -->
<!-- Title: com.example.mybookshelf.UIMaster.navigateToDetails Pages: 1 -->
<svg width="1995pt" height="564pt"
 viewBox="0.00 0.00 1995.00 564.22" xmlns="http://www.w3.org/2000/svg" xmlns:xlink="http://www.w3.org/1999/xlink">
<g id="graph0" class="graph" transform="scale(1 1) rotate(0) translate(4 560.22)">
<title>com.example.mybookshelf.UIMaster.navigateToDetails</title>
<!-- Node1 -->
<g id="Node000001" class="node">
<title>Node1</title>
<g id="a_Node000001"><a xlink:title=" ">
<polygon fill="#999999" stroke="#666666" points="152,-429 0,-429 0,-399 152,-399 152,-429"/>
<text text-anchor="start" x="8" y="-417" font-family="Helvetica,sans-Serif" font-size="10.00">com.example.mybookshelf.</text>
<text text-anchor="middle" x="76" y="-406" font-family="Helvetica,sans-Serif" font-size="10.00">UIMaster.navigateToDetails</text>
</a>
</g>
</g>
<!-- Node2 -->
<g id="Node000002" class="node">
<title>Node2</title>
<g id="a_Node000002"><a xlink:href="classcom_1_1example_1_1mybookshelf_1_1dataClass_1_1Book.html#a4109da1bdee13601576c6725d6e89e71" target="_top" xlink:title=" ">
<polygon fill="white" stroke="#666666" points="1765,-543 1591,-543 1591,-513 1765,-513 1765,-543"/>
<text text-anchor="start" x="1599" y="-531" font-family="Helvetica,sans-Serif" font-size="10.00">com.example.mybookshelf.data</text>
<text text-anchor="middle" x="1678" y="-520" font-family="Helvetica,sans-Serif" font-size="10.00">Class.Book.getName</text>
</a>
</g>
</g>
<!-- Node1&#45;&gt;Node2 -->
<g id="edge1_Node000001_Node000002" class="edge">
<title>Node1&#45;&gt;Node2</title>
<g id="a_edge1_Node000001_Node000002"><a xlink:title=" ">
<path fill="none" stroke="#63b8ff" d="M91.58,-429.22C111.42,-448.95 148.94,-482.83 188,-500 323.39,-559.51 368.11,-556 516,-556 516,-556 516,-556 1256,-556 1367.57,-556 1495.4,-546.09 1580.66,-538.06"/>
<polygon fill="#63b8ff" stroke="#63b8ff" points="1581.21,-541.52 1590.84,-537.09 1580.55,-534.55 1581.21,-541.52"/>
</a>
</g>
</g>
<!-- Node3 -->
<g id="Node000003" class="node">
<title>Node3</title>
<g id="a_Node000003"><a xlink:href="classcom_1_1example_1_1mybookshelf_1_1dataClass_1_1Book.html#a7c4ec1f3e154fad200b64643574e5c9c" target="_top" xlink:title=" ">
<polygon fill="white" stroke="#666666" points="362,-491 188,-491 188,-461 362,-461 362,-491"/>
<text text-anchor="start" x="196" y="-479" font-family="Helvetica,sans-Serif" font-size="10.00">com.example.mybookshelf.data</text>
<text text-anchor="middle" x="275" y="-468" font-family="Helvetica,sans-Serif" font-size="10.00">Class.Book.getStatus</text>
</a>
</g>
</g>
<!-- Node1&#45;&gt;Node3 -->
<g id="edge2_Node000001_Node000003" class="edge">
<title>Node1&#45;&gt;Node3</title>
<g id="a_edge2_Node000001_Node000003"><a xlink:title=" ">
<path fill="none" stroke="#63b8ff" d="M124.69,-429.01C152.31,-437.7 187.28,-448.71 216.42,-457.88"/>
<polygon fill="#63b8ff" stroke="#63b8ff" points="215.48,-461.25 226.07,-460.91 217.58,-454.57 215.48,-461.25"/>
</a>
</g>
</g>
<!-- Node4 -->
<g id="Node000004" class="node">
<title>Node4</title>
<g id="a_Node000004"><a xlink:href="classcom_1_1example_1_1mybookshelf_1_1UIMaster.html#ad30bff41c8ec833af2293c0b6c8b47b2" target="_top" xlink:title=" ">
<polygon fill="white" stroke="#666666" points="351,-367 199,-367 199,-337 351,-337 351,-367"/>
<text text-anchor="start" x="207" y="-355" font-family="Helvetica,sans-Serif" font-size="10.00">com.example.mybookshelf.</text>
<text text-anchor="middle" x="275" y="-344" font-family="Helvetica,sans-Serif" font-size="10.00">UIMaster.navigateToGoals</text>
</a>
</g>
</g>
<!-- Node1&#45;&gt;Node4 -->
<g id="edge3_Node000001_Node000004" class="edge">
<title>Node1&#45;&gt;Node4</title>
<g id="a_edge3_Node000001_Node000004"><a xlink:title=" ">
<path fill="none" stroke="#63b8ff" d="M124.69,-398.99C152.31,-390.3 187.28,-379.29 216.42,-370.12"/>
<polygon fill="#63b8ff" stroke="#63b8ff" points="217.58,-373.43 226.07,-367.09 215.48,-366.75 217.58,-373.43"/>
</a>
</g>
</g>
<!-- Node5 -->
<g id="Node000005" class="node">
<title>Node5</title>
<g id="a_Node000005"><a xlink:href="classcom_1_1example_1_1mybookshelf_1_1UIMaster.html#ac859db60f9068e6a87b633ef697d4d0f" target="_top" xlink:title=" ">
<polygon fill="white" stroke="#666666" points="595,-367 439,-367 439,-337 595,-337 595,-367"/>
<text text-anchor="start" x="447" y="-355" font-family="Helvetica,sans-Serif" font-size="10.00">com.example.mybookshelf.</text>
<text text-anchor="middle" x="517" y="-344" font-family="Helvetica,sans-Serif" font-size="10.00">UIMaster.navigateToSettings</text>
</a>
</g>
</g>
<!-- Node1&#45;&gt;Node5 -->
<g id="edge38_Node000001_Node000005" class="edge">
<title>Node1&#45;&gt;Node5</title>
<g id="a_edge38_Node000001_Node000005"><a xlink:title=" ">
<path fill="none" stroke="#63b8ff" d="M152.07,-404.45C209.58,-397.02 290.86,-386.28 362,-376 383.71,-372.86 407.12,-369.3 428.97,-365.91"/>
<polygon fill="#63b8ff" stroke="#63b8ff" points="429.55,-369.36 438.89,-364.36 428.47,-362.44 429.55,-369.36"/>
</a>
</g>
</g>
<!-- Node10 -->
<g id="Node000010" class="node">
<title>Node10</title>
<g id="a_Node000010"><a xlink:href="classcom_1_1example_1_1mybookshelf_1_1UIMaster.html#ad609d5e0b54e87afcb60aed6c66a792e" target="_top" xlink:title=" ">
<polygon fill="white" stroke="#666666" points="888,-528 710,-528 710,-498 888,-498 888,-528"/>
<text text-anchor="start" x="718" y="-516" font-family="Helvetica,sans-Serif" font-size="10.00">com.example.mybookshelf.</text>
<text text-anchor="middle" x="799" y="-505" font-family="Helvetica,sans-Serif" font-size="10.00">UIMaster.navigateToStartingPage</text>
</a>
</g>
</g>
<!-- Node1&#45;&gt;Node10 -->
<g id="edge39_Node000001_Node000010" class="edge">
<title>Node1&#45;&gt;Node10</title>
<g id="a_edge39_Node000001_Node000010"><a xlink:title=" ">
<path fill="none" stroke="#63b8ff" d="M152.03,-423.87C209.51,-431.46 290.78,-442.27 362,-452 478.12,-467.86 611.56,-486.61 699.91,-499.09"/>
<polygon fill="#63b8ff" stroke="#63b8ff" points="699.53,-502.57 709.92,-500.51 700.51,-495.64 699.53,-502.57"/>
</a>
</g>
</g>
<!-- Node17 -->
<g id="Node000017" class="node">
<title>Node17</title>
<g id="a_Node000017"><a xlink:href="classcom_1_1example_1_1mybookshelf_1_1UIMaster.html#aa3079f36c20fc1b0ec8c01197f06faa3" target="_top" xlink:title=" ">
<polygon fill="white" stroke="#666666" points="1331,-150 1179,-150 1179,-120 1331,-120 1331,-150"/>
<text text-anchor="start" x="1187" y="-138" font-family="Helvetica,sans-Serif" font-size="10.00">com.example.mybookshelf.</text>
<text text-anchor="middle" x="1255" y="-127" font-family="Helvetica,sans-Serif" font-size="10.00">UIMaster.navigateToStats</text>
</a>
</g>
</g>
<!-- Node1&#45;&gt;Node17 -->
<g id="edge40_Node000001_Node000017" class="edge">
<title>Node1&#45;&gt;Node17</title>
<g id="a_edge40_Node000001_Node000017"><a xlink:title=" ">
<path fill="none" stroke="#63b8ff" d="M86.33,-398.69C127.71,-332.96 301.97,-78 516,-78 516,-78 516,-78 800,-78 953.11,-78 991.78,-86.02 1143,-110 1156.21,-112.1 1170.21,-114.83 1183.64,-117.72"/>
<polygon fill="#63b8ff" stroke="#63b8ff" points="1183.26,-121.23 1193.78,-119.96 1184.77,-114.39 1183.26,-121.23"/>
</a>
</g>
</g>
<!-- Node4&#45;&gt;Node5 -->
<g id="edge4_Node000004_Node000005" class="edge">
<title>Node4&#45;&gt;Node5</title>
<g id="a_edge4_Node000004_Node000005"><a xlink:title=" ">
<path fill="none" stroke="#63b8ff" d="M351.28,-345.69C375.91,-345.18 403.49,-345.12 428.92,-345.48"/>
<polygon fill="#63b8ff" stroke="#63b8ff" points="428.86,-348.98 438.92,-345.65 428.98,-341.98 428.86,-348.98"/>
</a>
</g>
</g>
<!-- Node4&#45;&gt;Node10 -->
<g id="edge35_Node000004_Node000010" class="edge">
<title>Node4&#45;&gt;Node10</title>
<g id="a_edge35_Node000004_Node000010"><a xlink:title=" ">
<path fill="none" stroke="#63b8ff" d="M351.13,-366.97C366.62,-370 382.83,-373.14 398,-376 503.63,-395.93 549.61,-355.04 636,-419 664.12,-439.82 643.98,-468.05 672,-489 680.45,-495.32 690.08,-500.12 700.17,-503.75"/>
<polygon fill="#63b8ff" stroke="#63b8ff" points="699.38,-507.16 709.97,-506.88 701.51,-500.5 699.38,-507.16"/>
</a>
</g>
</g>
<!-- Node4&#45;&gt;Node17 -->
<g id="edge36_Node000004_Node000017" class="edge">
<title>Node4&#45;&gt;Node17</title>
<g id="a_edge36_Node000004_Node000017"><a xlink:title=" ">
<path fill="none" stroke="#63b8ff" d="M288.76,-336.68C309.46,-312.68 352.64,-266.06 398,-238 508.51,-169.64 544.32,-160.13 672,-136 845.96,-103.12 1054.42,-114.78 1168.67,-125.41"/>
<polygon fill="#63b8ff" stroke="#63b8ff" points="1168.47,-128.91 1178.76,-126.37 1169.13,-121.94 1168.47,-128.91"/>
</a>
</g>
</g>
<!-- Node30 -->
<g id="Node000030" class="node">
<title>Node30</title>
<g id="a_Node000030"><a xlink:href="classcom_1_1example_1_1mybookshelf_1_1LayoutManager_1_1CustomGoalAdapter.html#abad93cc513b4470ac284a0756e1c3f65" target="_top" xlink:title=" ">
<polygon fill="white" stroke="#666666" points="636,-319 398,-319 398,-289 636,-289 636,-319"/>
<text text-anchor="start" x="406" y="-307" font-family="Helvetica,sans-Serif" font-size="10.00">com.example.mybookshelf.</text>
<text text-anchor="middle" x="517" y="-296" font-family="Helvetica,sans-Serif" font-size="10.00">LayoutManager.CustomGoalAdapter.setGoals</text>
</a>
</g>
</g>
<!-- Node4&#45;&gt;Node30 -->
<g id="edge37_Node000004_Node000030" class="edge">
<title>Node4&#45;&gt;Node30</title>
<g id="a_edge37_Node000004_Node000030"><a xlink:title=" ">
<path fill="none" stroke="#63b8ff" d="M351.28,-336.94C376.63,-331.87 405.1,-326.18 431.14,-320.97"/>
<polygon fill="#63b8ff" stroke="#63b8ff" points="431.87,-324.4 440.99,-319 430.5,-317.53 431.87,-324.4"/>
</a>
</g>
</g>
<!-- Node5&#45;&gt;Node4 -->
<g id="edge9_Node000005_Node000004" class="edge">
<title>Node5&#45;&gt;Node4</title>
<g id="a_edge9_Node000005_Node000004"><a xlink:title=" ">
<path fill="none" stroke="#63b8ff" d="M438.92,-358.35C414.26,-358.83 386.8,-358.88 361.57,-358.5"/>
<polygon fill="#63b8ff" stroke="#63b8ff" points="361.34,-354.99 351.28,-358.31 361.22,-361.99 361.34,-354.99"/>
</a>
</g>
</g>
<!-- Node6 -->
<g id="Node000006" class="node">
<title>Node6</title>
<g id="a_Node000006"><a xlink:href="classcom_1_1example_1_1mybookshelf_1_1Authenticator.html#a57eb5913cd07c88e3f0771b4bf88bc0c" target="_top" xlink:title=" ">
<polygon fill="white" stroke="#666666" points="883,-346 715,-346 715,-316 883,-316 883,-346"/>
<text text-anchor="start" x="723" y="-334" font-family="Helvetica,sans-Serif" font-size="10.00">com.example.mybookshelf.</text>
<text text-anchor="middle" x="799" y="-323" font-family="Helvetica,sans-Serif" font-size="10.00">Authenticator.clearStoredToken</text>
</a>
</g>
</g>
<!-- Node5&#45;&gt;Node6 -->
<g id="edge5_Node000005_Node000006" class="edge">
<title>Node5&#45;&gt;Node6</title>
<g id="a_edge5_Node000005_Node000006"><a xlink:title=" ">
<path fill="none" stroke="#63b8ff" d="M595.25,-346.21C628.99,-343.68 668.86,-340.69 704.28,-338.03"/>
<polygon fill="#63b8ff" stroke="#63b8ff" points="704.91,-341.49 714.62,-337.25 704.39,-334.51 704.91,-341.49"/>
</a>
</g>
</g>
<!-- Node7 -->
<g id="Node000007" class="node">
<title>Node7</title>
<g id="a_Node000007"><a xlink:href="classcom_1_1example_1_1mybookshelf_1_1notifications_1_1NotificationScheduler.html#aaf3ebda4b3bc3da4f2c4e8cabb4a3602" target="_top" xlink:title=" ">
<polygon fill="white" stroke="#666666" points="921,-298 677,-298 677,-268 921,-268 921,-298"/>
<text text-anchor="start" x="685" y="-286" font-family="Helvetica,sans-Serif" font-size="10.00">com.example.mybookshelf.notifications.</text>
<text text-anchor="middle" x="799" y="-275" font-family="Helvetica,sans-Serif" font-size="10.00">NotificationScheduler.getDailyNotificationHour</text>
</a>
</g>
</g>
<!-- Node5&#45;&gt;Node7 -->
<g id="edge6_Node000005_Node000007" class="edge">
<title>Node5&#45;&gt;Node7</title>
<g id="a_edge6_Node000005_Node000007"><a xlink:title=" ">
<path fill="none" stroke="#63b8ff" d="M595.21,-340.09C609.02,-336.89 623.11,-332.92 636,-328 653.31,-321.4 654.65,-313.49 672,-307 678.02,-304.75 684.29,-302.7 690.67,-300.83"/>
<polygon fill="#63b8ff" stroke="#63b8ff" points="692.05,-304.08 700.77,-298.05 690.2,-297.33 692.05,-304.08"/>
</a>
</g>
</g>
<!-- Node8 -->
<g id="Node000008" class="node">
<title>Node8</title>
<g id="a_Node000008"><a xlink:href="classcom_1_1example_1_1mybookshelf_1_1notifications_1_1NotificationScheduler.html#ad29a9938277c2a671b0399cdc84c7844" target="_top" xlink:title=" ">
<polygon fill="white" stroke="#666666" points="926,-480 672,-480 672,-450 926,-450 926,-480"/>
<text text-anchor="start" x="680" y="-468" font-family="Helvetica,sans-Serif" font-size="10.00">com.example.mybookshelf.notifications.</text>
<text text-anchor="middle" x="799" y="-457" font-family="Helvetica,sans-Serif" font-size="10.00">NotificationScheduler.getDailyNotificationMinute</text>
</a>
</g>
</g>
<!-- Node5&#45;&gt;Node8 -->
<g id="edge7_Node000005_Node000008" class="edge">
<title>Node5&#45;&gt;Node8</title>
<g id="a_edge7_Node000005_Node000008"><a xlink:title=" ">
<path fill="none" stroke="#63b8ff" d="M595.23,-361.7C609.71,-366 624.03,-372.17 636,-381 661.02,-399.46 646.5,-423.2 672,-441 674.12,-442.48 676.3,-443.87 678.54,-445.18"/>
<polygon fill="#63b8ff" stroke="#63b8ff" points="676.96,-448.31 687.44,-449.86 680.22,-442.11 676.96,-448.31"/>
</a>
</g>
</g>
<!-- Node9 -->
<g id="Node000009" class="node">
<title>Node9</title>
<g id="a_Node000009"><a xlink:href="classcom_1_1example_1_1mybookshelf_1_1notifications_1_1NotificationScheduler.html#ac8a096801252bd85cf58f0b4ded28ebe" target="_top" xlink:title=" ">
<polygon fill="white" stroke="#666666" points="921,-432 677,-432 677,-402 921,-402 921,-432"/>
<text text-anchor="start" x="685" y="-420" font-family="Helvetica,sans-Serif" font-size="10.00">com.example.mybookshelf.notifications.</text>
<text text-anchor="middle" x="799" y="-409" font-family="Helvetica,sans-Serif" font-size="10.00">NotificationScheduler.isDailyNotificationActive</text>
</a>
</g>
</g>
<!-- Node5&#45;&gt;Node9 -->
<g id="edge8_Node000005_Node000009" class="edge">
<title>Node5&#45;&gt;Node9</title>
<g id="a_edge8_Node000005_Node000009"><a xlink:title=" ">
<path fill="none" stroke="#63b8ff" d="M582.05,-367.02C609.71,-373.5 642.44,-381.14 672,-388 688.3,-391.78 705.78,-395.82 722.39,-399.64"/>
<polygon fill="#63b8ff" stroke="#63b8ff" points="722.06,-403.16 732.59,-401.99 723.63,-396.34 722.06,-403.16"/>
</a>
</g>
</g>
<!-- Node5&#45;&gt;Node10 -->
<g id="edge10_Node000005_Node000010" class="edge">
<title>Node5&#45;&gt;Node10</title>
<g id="a_edge10_Node000005_Node000010"><a xlink:title=" ">
<path fill="none" stroke="#63b8ff" d="M595.03,-359.17C610.02,-363.62 624.6,-370.49 636,-381 673.19,-415.3 633.92,-455.69 672,-489 680.21,-496.18 689.9,-501.5 700.19,-505.39"/>
<polygon fill="#63b8ff" stroke="#63b8ff" points="699.2,-508.75 709.79,-508.58 701.41,-502.11 699.2,-508.75"/>
</a>
</g>
</g>
<!-- Node5&#45;&gt;Node17 -->
<g id="edge31_Node000005_Node000017" class="edge">
<title>Node5&#45;&gt;Node17</title>
<g id="a_edge31_Node000005_Node000017"><a xlink:title=" ">
<path fill="none" stroke="#63b8ff" d="M595,-349.29C610.18,-345.43 624.84,-338.86 636,-328 686.69,-278.69 618.09,-218.77 672,-173 708.93,-141.65 1015.82,-135.94 1168.47,-135.05"/>
<polygon fill="#63b8ff" stroke="#63b8ff" points="1168.76,-138.55 1178.74,-134.99 1168.72,-131.55 1168.76,-138.55"/>
</a>
</g>
</g>
<!-- Node28 -->
<g id="Node000028" class="node">
<title>Node28</title>
<g id="a_Node000028"><a xlink:href="classcom_1_1example_1_1mybookshelf_1_1UIMaster.html#a5d06d53d8ef756629247fde0f557a3d1" target="_top" xlink:title=" ">
<polygon fill="white" stroke="#666666" points="875,-212 723,-212 723,-182 875,-182 875,-212"/>
<text text-anchor="start" x="731" y="-200" font-family="Helvetica,sans-Serif" font-size="10.00">com.example.mybookshelf.</text>
<text text-anchor="middle" x="799" y="-189" font-family="Helvetica,sans-Serif" font-size="10.00">UIMaster.showLogin</text>
</a>
</g>
</g>
<!-- Node5&#45;&gt;Node28 -->
<g id="edge32_Node000005_Node000028" class="edge">
<title>Node5&#45;&gt;Node28</title>
<g id="a_edge32_Node000005_Node000028"><a xlink:title=" ">
<path fill="none" stroke="#63b8ff" d="M595.23,-346.5C609.78,-342.75 624.14,-336.93 636,-328 663.63,-307.2 647.25,-283.17 672,-259 691.39,-240.06 717.71,-225.88 741.27,-215.89"/>
<polygon fill="#63b8ff" stroke="#63b8ff" points="742.89,-219.01 750.83,-212 740.25,-212.53 742.89,-219.01"/>
</a>
</g>
</g>
<!-- Node11 -->
<g id="Node000011" class="node">
<title>Node11</title>
<g id="a_Node000011"><a xlink:href="classcom_1_1example_1_1mybookshelf_1_1UIMaster.html#aa6aad8404432bdaf23db9b41e99a6ed5" target="_top" xlink:title=" ">
<polygon fill="white" stroke="#666666" points="1143,-389 962,-389 962,-359 1143,-359 1143,-389"/>
<text text-anchor="start" x="970" y="-377" font-family="Helvetica,sans-Serif" font-size="10.00">com.example.mybookshelf.</text>
<text text-anchor="middle" x="1052.5" y="-366" font-family="Helvetica,sans-Serif" font-size="10.00">UIMaster.setupNavigationButtons</text>
</a>
</g>
</g>
<!-- Node10&#45;&gt;Node11 -->
<g id="edge11_Node000010_Node000011" class="edge">
<title>Node10&#45;&gt;Node11</title>
<g id="a_edge11_Node000010_Node000011"><a xlink:title=" ">
<path fill="none" stroke="#63b8ff" d="M888.14,-502.7C901.23,-499.34 914.26,-494.89 926,-489 970.57,-466.64 1010.91,-423.79 1033.23,-397.18"/>
<polygon fill="#63b8ff" stroke="#63b8ff" points="1036.18,-399.11 1039.83,-389.16 1030.77,-394.66 1036.18,-399.11"/>
</a>
</g>
</g>
<!-- Node11&#45;&gt;Node4 -->
<g id="edge18_Node000011_Node000004" class="edge">
<title>Node11&#45;&gt;Node4</title>
<g id="a_edge18_Node000011_Node000004"><a xlink:title=" ">
<path fill="none" stroke="#63b8ff" d="M1040.91,-358.65C1021.65,-332.28 978.06,-279.24 926,-259 816.56,-216.44 510.01,-244.76 398,-280 362.9,-291.04 327.15,-313.77 303.51,-330.76"/>
<polygon fill="#63b8ff" stroke="#63b8ff" points="301.36,-327.99 295.37,-336.72 305.5,-333.63 301.36,-327.99"/>
</a>
</g>
</g>
<!-- Node11&#45;&gt;Node5 -->
<g id="edge19_Node000011_Node000005" class="edge">
<title>Node11&#45;&gt;Node5</title>
<g id="a_edge19_Node000011_Node000005"><a xlink:title=" ">
<path fill="none" stroke="#63b8ff" d="M961.59,-370.29C862.27,-366.2 703.42,-359.65 605.2,-355.6"/>
<polygon fill="#63b8ff" stroke="#63b8ff" points="605.14,-352.09 595.01,-355.18 604.85,-359.08 605.14,-352.09"/>
</a>
</g>
</g>
<!-- Node12 -->
<g id="Node000012" class="node">
<title>Node12</title>
<g id="a_Node000012"><a xlink:href="classcom_1_1example_1_1mybookshelf_1_1UIMaster.html#a4636b546c38ace5aedccfd989edc0bb1" target="_top" xlink:title=" ">
<polygon fill="white" stroke="#666666" points="1331,-416 1179,-416 1179,-386 1331,-386 1331,-416"/>
<text text-anchor="start" x="1187" y="-404" font-family="Helvetica,sans-Serif" font-size="10.00">com.example.mybookshelf.</text>
<text text-anchor="middle" x="1255" y="-393" font-family="Helvetica,sans-Serif" font-size="10.00">UIMaster.handleListSearch</text>
</a>
</g>
</g>
<!-- Node11&#45;&gt;Node12 -->
<g id="edge12_Node000011_Node000012" class="edge">
<title>Node11&#45;&gt;Node12</title>
<g id="a_edge12_Node000011_Node000012"><a xlink:title=" ">
<path fill="none" stroke="#63b8ff" d="M1143.19,-386.08C1151.64,-387.22 1160.2,-388.37 1168.61,-389.5"/>
<polygon fill="#63b8ff" stroke="#63b8ff" points="1168.4,-393 1178.78,-390.87 1169.33,-386.07 1168.4,-393"/>
</a>
</g>
</g>
<!-- Node11&#45;&gt;Node17 -->
<g id="edge20_Node000011_Node000017" class="edge">
<title>Node11&#45;&gt;Node17</title>
<g id="a_edge20_Node000011_Node000017"><a xlink:title=" ">
<path fill="none" stroke="#63b8ff" d="M1066.35,-358.69C1100.58,-317.88 1194.15,-206.34 1234.76,-157.93"/>
<polygon fill="#63b8ff" stroke="#63b8ff" points="1237.51,-160.1 1241.26,-150.19 1232.15,-155.6 1237.51,-160.1"/>
</a>
</g>
</g>
<!-- Node13 -->
<g id="Node000013" class="node">
<title>Node13</title>
<g id="a_Node000013"><a xlink:href="classcom_1_1example_1_1mybookshelf_1_1UIMaster.html#a3e552449814fd4b18a4070128261c571" target="_top" xlink:title=" ">
<polygon fill="white" stroke="#666666" points="1537,-464 1385,-464 1385,-434 1537,-434 1537,-464"/>
<text text-anchor="start" x="1393" y="-452" font-family="Helvetica,sans-Serif" font-size="10.00">com.example.mybookshelf.</text>
<text text-anchor="middle" x="1461" y="-441" font-family="Helvetica,sans-Serif" font-size="10.00">UIMaster.fillSpinners</text>
</a>
</g>
</g>
<!-- Node12&#45;&gt;Node13 -->
<g id="edge13_Node000012_Node000013" class="edge">
<title>Node12&#45;&gt;Node13</title>
<g id="a_edge13_Node000012_Node000013"><a xlink:title=" ">
<path fill="none" stroke="#63b8ff" d="M1319.99,-416.06C1341.06,-421.01 1364.67,-426.57 1386.4,-431.68"/>
<polygon fill="#63b8ff" stroke="#63b8ff" points="1385.7,-435.11 1396.24,-434 1387.31,-428.3 1385.7,-435.11"/>
</a>
</g>
</g>
<!-- Node14 -->
<g id="Node000014" class="node">
<title>Node14</title>
<g id="a_Node000014"><a xlink:href="classcom_1_1example_1_1mybookshelf_1_1UIMaster.html#a39a8f40aa163994c415f165d94ee47fd" target="_top" xlink:title=" ">
<polygon fill="white" stroke="#666666" points="1537,-416 1385,-416 1385,-386 1537,-386 1537,-416"/>
<text text-anchor="start" x="1393" y="-404" font-family="Helvetica,sans-Serif" font-size="10.00">com.example.mybookshelf.</text>
<text text-anchor="middle" x="1461" y="-393" font-family="Helvetica,sans-Serif" font-size="10.00">UIMaster.filterBooks</text>
</a>
</g>
</g>
<!-- Node12&#45;&gt;Node14 -->
<g id="edge14_Node000012_Node000014" class="edge">
<title>Node12&#45;&gt;Node14</title>
<g id="a_edge14_Node000012_Node000014"><a xlink:title=" ">
<path fill="none" stroke="#63b8ff" d="M1331.09,-401C1345.17,-401 1359.99,-401 1374.36,-401"/>
<polygon fill="#63b8ff" stroke="#63b8ff" points="1374.73,-404.5 1384.72,-401 1374.72,-397.5 1374.73,-404.5"/>
</a>
</g>
</g>
<!-- Node14&#45;&gt;Node2 -->
<g id="edge17_Node000014_Node000002" class="edge">
<title>Node14&#45;&gt;Node2</title>
<g id="a_edge17_Node000014_Node000002"><a xlink:title=" ">
<path fill="none" stroke="#63b8ff" d="M1533.8,-416.02C1541.14,-418.58 1548.33,-421.56 1555,-425 1576.27,-435.99 1624.39,-479.05 1653.44,-505.9"/>
<polygon fill="#63b8ff" stroke="#63b8ff" points="1651.38,-508.76 1661.09,-513 1656.14,-503.63 1651.38,-508.76"/>
</a>
</g>
</g>
<!-- Node15 -->
<g id="Node000015" class="node">
<title>Node15</title>
<g id="a_Node000015"><a xlink:href="classcom_1_1example_1_1mybookshelf_1_1dataClass_1_1Book.html#a72061c36f82e9d925effeb02dc0da55d" target="_top" xlink:title=" ">
<polygon fill="white" stroke="#666666" points="1765,-392 1591,-392 1591,-362 1765,-362 1765,-392"/>
<text text-anchor="start" x="1599" y="-380" font-family="Helvetica,sans-Serif" font-size="10.00">com.example.mybookshelf.data</text>
<text text-anchor="middle" x="1678" y="-369" font-family="Helvetica,sans-Serif" font-size="10.00">Class.Book.getAuthor</text>
</a>
</g>
</g>
<!-- Node14&#45;&gt;Node15 -->
<g id="edge15_Node000014_Node000015" class="edge">
<title>Node14&#45;&gt;Node15</title>
<g id="a_edge15_Node000014_Node000015"><a xlink:title=" ">
<path fill="none" stroke="#63b8ff" d="M1537.2,-392.61C1551.27,-391.04 1566.15,-389.37 1580.75,-387.74"/>
<polygon fill="#63b8ff" stroke="#63b8ff" points="1581.25,-391.21 1590.8,-386.62 1580.48,-384.25 1581.25,-391.21"/>
</a>
</g>
</g>
<!-- Node16 -->
<g id="Node000016" class="node">
<title>Node16</title>
<g id="a_Node000016"><a xlink:href="classcom_1_1example_1_1mybookshelf_1_1dataClass_1_1Book.html#ab78862de4a0e97e9190086f397a88fd4" target="_top" xlink:title=" ">
<polygon fill="white" stroke="#666666" points="1765,-440 1591,-440 1591,-410 1765,-410 1765,-440"/>
<text text-anchor="start" x="1599" y="-428" font-family="Helvetica,sans-Serif" font-size="10.00">com.example.mybookshelf.data</text>
<text text-anchor="middle" x="1678" y="-417" font-family="Helvetica,sans-Serif" font-size="10.00">Class.Book.getGenre</text>
</a>
</g>
</g>
<!-- Node14&#45;&gt;Node16 -->
<g id="edge16_Node000014_Node000016" class="edge">
<title>Node14&#45;&gt;Node16</title>
<g id="a_edge16_Node000014_Node000016"><a xlink:title=" ">
<path fill="none" stroke="#63b8ff" d="M1537.2,-409.39C1551.27,-410.96 1566.15,-412.63 1580.75,-414.26"/>
<polygon fill="#63b8ff" stroke="#63b8ff" points="1580.48,-417.75 1590.8,-415.38 1581.25,-410.79 1580.48,-417.75"/>
</a>
</g>
</g>
<!-- Node18 -->
<g id="Node000018" class="node">
<title>Node18</title>
<g id="a_Node000018"><a xlink:href="classcom_1_1example_1_1mybookshelf_1_1UIMaster.html#aeadc13ea946b279afce35c39bb36f3b6" target="_top" xlink:title=" ">
<polygon fill="white" stroke="#666666" points="1537,-198 1385,-198 1385,-168 1537,-168 1537,-198"/>
<text text-anchor="start" x="1393" y="-186" font-family="Helvetica,sans-Serif" font-size="10.00">com.example.mybookshelf.</text>
<text text-anchor="middle" x="1461" y="-175" font-family="Helvetica,sans-Serif" font-size="10.00">UIMaster.initializeViews</text>
</a>
</g>
</g>
<!-- Node17&#45;&gt;Node18 -->
<g id="edge21_Node000017_Node000018" class="edge">
<title>Node17&#45;&gt;Node18</title>
<g id="a_edge21_Node000017_Node000018"><a xlink:title=" ">
<path fill="none" stroke="#63b8ff" d="M1319.99,-150.06C1341.06,-155.01 1364.67,-160.57 1386.4,-165.68"/>
<polygon fill="#63b8ff" stroke="#63b8ff" points="1385.7,-169.11 1396.24,-168 1387.31,-162.3 1385.7,-169.11"/>
</a>
</g>
</g>
<!-- Node19 -->
<g id="Node000019" class="node">
<title>Node19</title>
<g id="a_Node000019"><a xlink:href="classcom_1_1example_1_1mybookshelf_1_1UIMaster.html#a5c502183bab9192d9f38b42a28be7164" target="_top" xlink:title=" ">
<polygon fill="white" stroke="#666666" points="1542.5,-150 1379.5,-150 1379.5,-120 1542.5,-120 1542.5,-150"/>
<text text-anchor="start" x="1387.5" y="-138" font-family="Helvetica,sans-Serif" font-size="10.00">com.example.mybookshelf.</text>
<text text-anchor="middle" x="1461" y="-127" font-family="Helvetica,sans-Serif" font-size="10.00">UIMaster.loadChartDataAsync</text>
</a>
</g>
</g>
<!-- Node17&#45;&gt;Node19 -->
<g id="edge22_Node000017_Node000019" class="edge">
<title>Node17&#45;&gt;Node19</title>
<g id="a_edge22_Node000017_Node000019"><a xlink:title=" ">
<path fill="none" stroke="#63b8ff" d="M1331.09,-135C1343.46,-135 1356.4,-135 1369.11,-135"/>
<polygon fill="#63b8ff" stroke="#63b8ff" points="1369.24,-138.5 1379.24,-135 1369.24,-131.5 1369.24,-138.5"/>
</a>
</g>
</g>
<!-- Node27 -->
<g id="Node000027" class="node">
<title>Node27</title>
<g id="a_Node000027"><a xlink:href="classcom_1_1example_1_1mybookshelf_1_1UIMaster.html#a3bb75047e98f0333fa2fdfd173bc80b0" target="_top" xlink:title=" ">
<polygon fill="white" stroke="#666666" points="1555,-102 1367,-102 1367,-72 1555,-72 1555,-102"/>
<text text-anchor="start" x="1375" y="-90" font-family="Helvetica,sans-Serif" font-size="10.00">com.example.mybookshelf.</text>
<text text-anchor="middle" x="1461" y="-79" font-family="Helvetica,sans-Serif" font-size="10.00">UIMaster.setupNavigationListeners</text>
</a>
</g>
</g>
<!-- Node17&#45;&gt;Node27 -->
<g id="edge30_Node000017_Node000027" class="edge">
<title>Node17&#45;&gt;Node27</title>
<g id="a_edge30_Node000017_Node000027"><a xlink:title=" ">
<path fill="none" stroke="#63b8ff" d="M1319.99,-119.94C1341.06,-114.99 1364.67,-109.43 1386.4,-104.32"/>
<polygon fill="#63b8ff" stroke="#63b8ff" points="1387.31,-107.7 1396.24,-102 1385.7,-100.89 1387.31,-107.7"/>
</a>
</g>
</g>
<!-- Node20 -->
<g id="Node000020" class="node">
<title>Node20</title>
<g id="a_Node000020"><a xlink:href="classcom_1_1example_1_1mybookshelf_1_1UIMaster.html#a1d0b44fba73323953ffbbf69f4f3f4cb" target="_top" xlink:title=" ">
<polygon fill="white" stroke="#666666" points="1754,-126 1602,-126 1602,-96 1754,-96 1754,-126"/>
<text text-anchor="start" x="1610" y="-114" font-family="Helvetica,sans-Serif" font-size="10.00">com.example.mybookshelf.</text>
<text text-anchor="middle" x="1678" y="-103" font-family="Helvetica,sans-Serif" font-size="10.00">UIMaster.setupChart</text>
</a>
</g>
</g>
<!-- Node19&#45;&gt;Node20 -->
<g id="edge23_Node000019_Node000020" class="edge">
<title>Node19&#45;&gt;Node20</title>
<g id="a_edge23_Node000019_Node000020"><a xlink:title=" ">
<path fill="none" stroke="#63b8ff" d="M1542.67,-126C1558.75,-124.2 1575.69,-122.31 1591.92,-120.5"/>
<polygon fill="#63b8ff" stroke="#63b8ff" points="1592.37,-123.97 1601.92,-119.38 1591.59,-117.01 1592.37,-123.97"/>
</a>
</g>
</g>
<!-- Node26 -->
<g id="Node000026" class="node">
<title>Node26</title>
<g id="a_Node000026"><a xlink:href="classcom_1_1example_1_1mybookshelf_1_1UIMaster.html#a3beb8f5e82c56206227f83e05d2e2dba" target="_top" xlink:title=" ">
<polygon fill="white" stroke="#666666" points="1755.5,-174 1600.5,-174 1600.5,-144 1755.5,-144 1755.5,-174"/>
<text text-anchor="start" x="1608.5" y="-162" font-family="Helvetica,sans-Serif" font-size="10.00">com.example.mybookshelf.</text>
<text text-anchor="middle" x="1678" y="-151" font-family="Helvetica,sans-Serif" font-size="10.00">UIMaster.showErrorMessage</text>
</a>
</g>
</g>
<!-- Node19&#45;&gt;Node26 -->
<g id="edge29_Node000019_Node000026" class="edge">
<title>Node19&#45;&gt;Node26</title>
<g id="a_edge29_Node000019_Node000026"><a xlink:title=" ">
<path fill="none" stroke="#63b8ff" d="M1542.67,-144C1558.11,-145.73 1574.35,-147.54 1589.98,-149.29"/>
<polygon fill="#63b8ff" stroke="#63b8ff" points="1589.82,-152.79 1600.15,-150.42 1590.6,-145.83 1589.82,-152.79"/>
</a>
</g>
</g>
<!-- Node21 -->
<g id="Node000021" class="node">
<title>Node21</title>
<g id="a_Node000021"><a xlink:href="classcom_1_1example_1_1mybookshelf_1_1UIMaster.html#a66cf6ce29c43e6db34be85ae9990c102" target="_top" xlink:title=" ">
<polygon fill="white" stroke="#666666" points="1970,-222 1818,-222 1818,-192 1970,-192 1970,-222"/>
<text text-anchor="start" x="1826" y="-210" font-family="Helvetica,sans-Serif" font-size="10.00">com.example.mybookshelf.</text>
<text text-anchor="middle" x="1894" y="-199" font-family="Helvetica,sans-Serif" font-size="10.00">UIMaster.configureAxes</text>
</a>
</g>
</g>
<!-- Node20&#45;&gt;Node21 -->
<g id="edge24_Node000020_Node000021" class="edge">
<title>Node20&#45;&gt;Node21</title>
<g id="a_edge24_Node000020_Node000021"><a xlink:title=" ">
<path fill="none" stroke="#63b8ff" d="M1748.86,-126.14C1754.54,-128.66 1760.01,-131.59 1765,-135 1787.01,-150.05 1778.86,-168.14 1801,-183 1803.44,-184.64 1805.99,-186.17 1808.61,-187.59"/>
<polygon fill="#63b8ff" stroke="#63b8ff" points="1807.28,-190.83 1817.81,-192.04 1810.33,-184.53 1807.28,-190.83"/>
</a>
</g>
</g>
<!-- Node22 -->
<g id="Node000022" class="node">
<title>Node22</title>
<g id="a_Node000022"><a xlink:href="classcom_1_1example_1_1mybookshelf_1_1UIMaster.html#ae589c66b6b1826db14cd0185e2453c12" target="_top" xlink:title=" ">
<polygon fill="white" stroke="#666666" points="1970,-174 1818,-174 1818,-144 1970,-144 1970,-174"/>
<text text-anchor="start" x="1826" y="-162" font-family="Helvetica,sans-Serif" font-size="10.00">com.example.mybookshelf.</text>
<text text-anchor="middle" x="1894" y="-151" font-family="Helvetica,sans-Serif" font-size="10.00">UIMaster.configureChart</text>
</a>
</g>
</g>
<!-- Node20&#45;&gt;Node22 -->
<g id="edge25_Node000020_Node000022" class="edge">
<title>Node20&#45;&gt;Node22</title>
<g id="a_edge25_Node000020_Node000022"><a xlink:title=" ">
<path fill="none" stroke="#63b8ff" d="M1746.12,-126.06C1768.33,-131.04 1793.22,-136.62 1816.1,-141.75"/>
<polygon fill="#63b8ff" stroke="#63b8ff" points="1815.59,-145.22 1826.11,-144 1817.12,-138.39 1815.59,-145.22"/>
</a>
</g>
</g>
<!-- Node23 -->
<g id="Node000023" class="node">
<title>Node23</title>
<g id="a_Node000023"><a xlink:href="classcom_1_1example_1_1mybookshelf_1_1UIMaster.html#a2f446043c1019868262b5e49ddb58609" target="_top" xlink:title=" ">
<polygon fill="white" stroke="#666666" points="1983,-126 1805,-126 1805,-96 1983,-96 1983,-126"/>
<text text-anchor="start" x="1813" y="-114" font-family="Helvetica,sans-Serif" font-size="10.00">com.example.mybookshelf.</text>
<text text-anchor="middle" x="1894" y="-103" font-family="Helvetica,sans-Serif" font-size="10.00">UIMaster.convertMinutesToHours</text>
</a>
</g>
</g>
<!-- Node20&#45;&gt;Node23 -->
<g id="edge26_Node000020_Node000023" class="edge">
<title>Node20&#45;&gt;Node23</title>
<g id="a_edge26_Node000020_Node000023"><a xlink:title=" ">
<path fill="none" stroke="#63b8ff" d="M1754.15,-111C1767.2,-111 1780.95,-111 1794.51,-111"/>
<polygon fill="#63b8ff" stroke="#63b8ff" points="1794.83,-114.5 1804.83,-111 1794.83,-107.5 1794.83,-114.5"/>
</a>
</g>
</g>
<!-- Node24 -->
<g id="Node000024" class="node">
<title>Node24</title>
<g id="a_Node000024"><a xlink:href="classcom_1_1example_1_1mybookshelf_1_1UIMaster.html#a5368b8b93b9216d91a256a2302ea04c8" target="_top" xlink:title=" ">
<polygon fill="white" stroke="#666666" points="1987,-78 1801,-78 1801,-48 1987,-48 1987,-78"/>
<text text-anchor="start" x="1809" y="-66" font-family="Helvetica,sans-Serif" font-size="10.00">com.example.mybookshelf.</text>
<text text-anchor="middle" x="1894" y="-55" font-family="Helvetica,sans-Serif" font-size="10.00">UIMaster.displayTotalReadingTime</text>
</a>
</g>
</g>
<!-- Node20&#45;&gt;Node24 -->
<g id="edge27_Node000020_Node000024" class="edge">
<title>Node20&#45;&gt;Node24</title>
<g id="a_edge27_Node000020_Node000024"><a xlink:title=" ">
<path fill="none" stroke="#63b8ff" d="M1746.12,-95.94C1768.33,-90.96 1793.22,-85.38 1816.1,-80.25"/>
<polygon fill="#63b8ff" stroke="#63b8ff" points="1817.12,-83.61 1826.11,-78 1815.59,-76.78 1817.12,-83.61"/>
</a>
</g>
</g>
<!-- Node25 -->
<g id="Node000025" class="node">
<title>Node25</title>
<g id="a_Node000025"><a xlink:href="classcom_1_1example_1_1mybookshelf_1_1UIMaster.html#a897a27ba41fe604acf9472257ad18685" target="_top" xlink:title=" ">
<polygon fill="white" stroke="#666666" points="1970,-30 1818,-30 1818,0 1970,0 1970,-30"/>
<text text-anchor="start" x="1826" y="-18" font-family="Helvetica,sans-Serif" font-size="10.00">com.example.mybookshelf.</text>
<text text-anchor="middle" x="1894" y="-7" font-family="Helvetica,sans-Serif" font-size="10.00">UIMaster.filterValidEntries</text>
</a>
</g>
</g>
<!-- Node20&#45;&gt;Node25 -->
<g id="edge28_Node000020_Node000025" class="edge">
<title>Node20&#45;&gt;Node25</title>
<g id="a_edge28_Node000020_Node000025"><a xlink:title=" ">
<path fill="none" stroke="#63b8ff" d="M1700.52,-95.79C1724.16,-79.68 1763.76,-54.49 1801,-39 1806.05,-36.9 1811.33,-34.94 1816.7,-33.12"/>
<polygon fill="#63b8ff" stroke="#63b8ff" points="1817.98,-36.39 1826.43,-30 1815.84,-29.72 1817.98,-36.39"/>
</a>
</g>
</g>
<!-- Node29 -->
<g id="Node000029" class="node">
<title>Node29</title>
<g id="a_Node000029"><a xlink:href="classcom_1_1example_1_1mybookshelf_1_1UIMaster.html#a5f5bae724e7f3d3de15486430b3bc8c1" target="_top" xlink:title=" ">
<polygon fill="white" stroke="#666666" points="1128.5,-212 976.5,-212 976.5,-182 1128.5,-182 1128.5,-212"/>
<text text-anchor="start" x="984.5" y="-200" font-family="Helvetica,sans-Serif" font-size="10.00">com.example.mybookshelf.</text>
<text text-anchor="middle" x="1052.5" y="-189" font-family="Helvetica,sans-Serif" font-size="10.00">UIMaster.showRegister</text>
</a>
</g>
</g>
<!-- Node28&#45;&gt;Node29 -->
<g id="edge33_Node000028_Node000029" class="edge">
<title>Node28&#45;&gt;Node29</title>
<g id="a_edge33_Node000028_Node000029"><a xlink:title=" ">
<path fill="none" stroke="#63b8ff" d="M875.12,-190.76C903.73,-190.15 936.55,-190.09 966.05,-190.57"/>
<polygon fill="#63b8ff" stroke="#63b8ff" points="966.27,-194.07 976.34,-190.76 966.4,-187.07 966.27,-194.07"/>
</a>
</g>
</g>
<!-- Node29&#45;&gt;Node28 -->
<g id="edge34_Node000029_Node000028" class="edge">
<title>Node29&#45;&gt;Node28</title>
<g id="a_edge34_Node000029_Node000028"><a xlink:title=" ">
<path fill="none" stroke="#63b8ff" d="M976.34,-203.24C947.72,-203.85 914.9,-203.91 885.4,-203.43"/>
<polygon fill="#63b8ff" stroke="#63b8ff" points="885.18,-199.93 875.12,-203.24 885.05,-206.93 885.18,-199.93"/>
</a>
</g>
</g>
</g>
</svg>
