<?xml version="1.0" encoding="UTF-8" standalone="no"?>
<!DOCTYPE svg PUBLIC "-//W3C//DTD SVG 1.1//EN"
 "http://www.w3.org/Graphics/SVG/1.1/DTD/svg11.dtd">
<!-- Generated by graphviz version 2.43.0 (0)
 -->
<!-- Title: com.example.mybookshelf.UIMaster.showRegister Pages: 1 -->
<svg width="1535pt" height="143pt"
 viewBox="0.00 0.00 1535.00 142.96" xmlns="http://www.w3.org/2000/svg" xmlns:xlink="http://www.w3.org/1999/xlink">
<g id="graph0" class="graph" transform="scale(1 1) rotate(0) translate(4 138.96)">
<title>com.example.mybookshelf.UIMaster.showRegister</title>
<!-- Node1 -->
<g id="Node000001" class="node">
<title>Node1</title>
<g id="a_Node000001"><a xlink:title=" ">
<polygon fill="#999999" stroke="#666666" points="1527,-96.96 1375,-96.96 1375,-66.96 1527,-66.96 1527,-96.96"/>
<text text-anchor="start" x="1383" y="-84.96" font-family="Helvetica,sans-Serif" font-size="10.00">com.example.mybookshelf.</text>
<text text-anchor="middle" x="1451" y="-73.96" font-family="Helvetica,sans-Serif" font-size="10.00">UIMaster.showRegister</text>
</a>
</g>
</g>
<!-- Node2 -->
<g id="Node000002" class="node">
<title>Node2</title>
<g id="a_Node000002"><a xlink:href="classcom_1_1example_1_1mybookshelf_1_1UIMaster.html#a5d06d53d8ef756629247fde0f557a3d1" target="_top" xlink:title=" ">
<polygon fill="white" stroke="#666666" points="1339,-96.96 1187,-96.96 1187,-66.96 1339,-66.96 1339,-96.96"/>
<text text-anchor="start" x="1195" y="-84.96" font-family="Helvetica,sans-Serif" font-size="10.00">com.example.mybookshelf.</text>
<text text-anchor="middle" x="1263" y="-73.96" font-family="Helvetica,sans-Serif" font-size="10.00">UIMaster.showLogin</text>
</a>
</g>
</g>
<!-- Node1&#45;&gt;Node2 -->
<g id="edge1_Node000001_Node000002" class="edge">
<title>Node1&#45;&gt;Node2</title>
<g id="a_edge1_Node000001_Node000002"><a xlink:title=" ">
<path fill="none" stroke="#63b8ff" d="M1364.85,-75.23C1356.26,-75.19 1347.57,-75.22 1339.1,-75.33"/>
<polygon fill="#63b8ff" stroke="#63b8ff" points="1364.85,-78.73 1374.88,-75.33 1364.91,-71.74 1364.85,-78.73"/>
</a>
</g>
</g>
<!-- Node2&#45;&gt;Node1 -->
<g id="edge14_Node000002_Node000001" class="edge">
<title>Node2&#45;&gt;Node1</title>
<g id="a_edge14_Node000002_Node000001"><a xlink:title=" ">
<path fill="none" stroke="#63b8ff" d="M1349.13,-88.69C1357.72,-88.74 1366.4,-88.71 1374.88,-88.6"/>
<polygon fill="#63b8ff" stroke="#63b8ff" points="1349.13,-85.19 1339.1,-88.6 1349.06,-92.19 1349.13,-85.19"/>
</a>
</g>
</g>
<!-- Node3 -->
<g id="Node000003" class="node">
<title>Node3</title>
<g id="a_Node000003"><a xlink:href="classcom_1_1example_1_1mybookshelf_1_1UIMaster.html#ac859db60f9068e6a87b633ef697d4d0f" target="_top" xlink:title=" ">
<polygon fill="white" stroke="#666666" points="1151,-96.96 995,-96.96 995,-66.96 1151,-66.96 1151,-96.96"/>
<text text-anchor="start" x="1003" y="-84.96" font-family="Helvetica,sans-Serif" font-size="10.00">com.example.mybookshelf.</text>
<text text-anchor="middle" x="1073" y="-73.96" font-family="Helvetica,sans-Serif" font-size="10.00">UIMaster.navigateToSettings</text>
</a>
</g>
</g>
<!-- Node2&#45;&gt;Node3 -->
<g id="edge2_Node000002_Node000003" class="edge">
<title>Node2&#45;&gt;Node3</title>
<g id="a_edge2_Node000002_Node000003"><a xlink:title=" ">
<path fill="none" stroke="#63b8ff" d="M1176.88,-81.96C1168.31,-81.96 1159.63,-81.96 1151.15,-81.96"/>
<polygon fill="#63b8ff" stroke="#63b8ff" points="1176.89,-85.46 1186.89,-81.96 1176.89,-78.46 1176.89,-85.46"/>
</a>
</g>
</g>
<!-- Node4 -->
<g id="Node000004" class="node">
<title>Node4</title>
<g id="a_Node000004"><a xlink:href="classcom_1_1example_1_1mybookshelf_1_1UIMaster.html#ac2a608fcf86d3dbe14b4684dbbaf1431" target="_top" xlink:title=" ">
<polygon fill="white" stroke="#666666" points="340,-134.96 188,-134.96 188,-104.96 340,-104.96 340,-134.96"/>
<text text-anchor="start" x="196" y="-122.96" font-family="Helvetica,sans-Serif" font-size="10.00">com.example.mybookshelf.</text>
<text text-anchor="middle" x="264" y="-111.96" font-family="Helvetica,sans-Serif" font-size="10.00">UIMaster.navigateToDetails</text>
</a>
</g>
</g>
<!-- Node3&#45;&gt;Node4 -->
<g id="edge3_Node000003_Node000004" class="edge">
<title>Node3&#45;&gt;Node4</title>
<g id="a_edge3_Node000003_Node000004"><a xlink:title=" ">
<path fill="none" stroke="#63b8ff" d="M1000.82,-99.02C987.02,-101.78 972.61,-104.28 959,-105.96 735.2,-133.66 467.77,-128.35 340.08,-123.48"/>
<polygon fill="#63b8ff" stroke="#63b8ff" points="1001.66,-102.43 1010.75,-96.98 1000.25,-95.57 1001.66,-102.43"/>
</a>
</g>
</g>
<!-- Node6 -->
<g id="Node000006" class="node">
<title>Node6</title>
<g id="a_Node000006"><a xlink:href="classcom_1_1example_1_1mybookshelf_1_1UIMaster.html#ad30bff41c8ec833af2293c0b6c8b47b2" target="_top" xlink:title=" ">
<polygon fill="white" stroke="#666666" points="959,-96.96 807,-96.96 807,-66.96 959,-66.96 959,-96.96"/>
<text text-anchor="start" x="815" y="-84.96" font-family="Helvetica,sans-Serif" font-size="10.00">com.example.mybookshelf.</text>
<text text-anchor="middle" x="883" y="-73.96" font-family="Helvetica,sans-Serif" font-size="10.00">UIMaster.navigateToGoals</text>
</a>
</g>
</g>
<!-- Node3&#45;&gt;Node6 -->
<g id="edge5_Node000003_Node000006" class="edge">
<title>Node3&#45;&gt;Node6</title>
<g id="a_edge5_Node000003_Node000006"><a xlink:title=" ">
<path fill="none" stroke="#63b8ff" d="M984.91,-75.23C976.28,-75.19 967.56,-75.22 959.07,-75.34"/>
<polygon fill="#63b8ff" stroke="#63b8ff" points="984.96,-78.73 994.99,-75.31 985.02,-71.73 984.96,-78.73"/>
</a>
</g>
</g>
<!-- Node7 -->
<g id="Node000007" class="node">
<title>Node7</title>
<g id="a_Node000007"><a xlink:href="classcom_1_1example_1_1mybookshelf_1_1UIMaster.html#aa6aad8404432bdaf23db9b41e99a6ed5" target="_top" xlink:title=" ">
<polygon fill="white" stroke="#666666" points="771,-53.96 590,-53.96 590,-23.96 771,-23.96 771,-53.96"/>
<text text-anchor="start" x="598" y="-41.96" font-family="Helvetica,sans-Serif" font-size="10.00">com.example.mybookshelf.</text>
<text text-anchor="middle" x="680.5" y="-30.96" font-family="Helvetica,sans-Serif" font-size="10.00">UIMaster.setupNavigationButtons</text>
</a>
</g>
</g>
<!-- Node3&#45;&gt;Node7 -->
<g id="edge13_Node000003_Node000007" class="edge">
<title>Node3&#45;&gt;Node7</title>
<g id="a_edge13_Node000003_Node000007"><a xlink:title=" ">
<path fill="none" stroke="#63b8ff" d="M998.92,-64.87C985.69,-62.23 971.98,-59.78 959,-57.96 896.59,-49.24 825.7,-44.48 771.19,-41.9"/>
<polygon fill="#63b8ff" stroke="#63b8ff" points="998.43,-68.34 1008.93,-66.93 999.84,-61.49 998.43,-68.34"/>
</a>
</g>
</g>
<!-- Node5 -->
<g id="Node000005" class="node">
<title>Node5</title>
<g id="a_Node000005"><a xlink:href="classcom_1_1example_1_1mybookshelf_1_1UIMaster.html#a1533d0ed2384f2ec729cfcec7bd9a25f" target="_top" xlink:title=" ">
<polygon fill="white" stroke="#666666" points="152,-134.96 0,-134.96 0,-104.96 152,-104.96 152,-134.96"/>
<text text-anchor="start" x="8" y="-122.96" font-family="Helvetica,sans-Serif" font-size="10.00">com.example.mybookshelf.</text>
<text text-anchor="middle" x="76" y="-111.96" font-family="Helvetica,sans-Serif" font-size="10.00">UIMaster.createBookBox</text>
</a>
</g>
</g>
<!-- Node4&#45;&gt;Node5 -->
<g id="edge4_Node000004_Node000005" class="edge">
<title>Node4&#45;&gt;Node5</title>
<g id="a_edge4_Node000004_Node000005"><a xlink:title=" ">
<path fill="none" stroke="#63b8ff" d="M177.85,-119.96C169.26,-119.96 160.57,-119.96 152.1,-119.96"/>
<polygon fill="#63b8ff" stroke="#63b8ff" points="177.88,-123.46 187.88,-119.96 177.88,-116.46 177.88,-123.46"/>
</a>
</g>
</g>
<!-- Node6&#45;&gt;Node3 -->
<g id="edge7_Node000006_Node000003" class="edge">
<title>Node6&#45;&gt;Node3</title>
<g id="a_edge7_Node000006_Node000003"><a xlink:title=" ">
<path fill="none" stroke="#63b8ff" d="M969.12,-88.69C977.74,-88.74 986.46,-88.71 994.99,-88.61"/>
<polygon fill="#63b8ff" stroke="#63b8ff" points="969.1,-85.19 959.07,-88.59 969.03,-92.19 969.1,-85.19"/>
</a>
</g>
</g>
<!-- Node6&#45;&gt;Node4 -->
<g id="edge6_Node000006_Node000004" class="edge">
<title>Node6&#45;&gt;Node4</title>
<g id="a_edge6_Node000006_Node000004"><a xlink:title=" ">
<path fill="none" stroke="#63b8ff" d="M796.63,-87.22C675.56,-94.68 455.9,-108.21 340.48,-115.31"/>
<polygon fill="#63b8ff" stroke="#63b8ff" points="797.19,-90.69 806.96,-86.58 796.76,-83.71 797.19,-90.69"/>
</a>
</g>
</g>
<!-- Node6&#45;&gt;Node7 -->
<g id="edge8_Node000006_Node000007" class="edge">
<title>Node6&#45;&gt;Node7</title>
<g id="a_edge8_Node000006_Node000007"><a xlink:title=" ">
<path fill="none" stroke="#63b8ff" d="M801.67,-64.74C785.09,-61.18 767.76,-57.46 751.59,-53.99"/>
<polygon fill="#63b8ff" stroke="#63b8ff" points="801.36,-68.25 811.87,-66.92 802.83,-61.4 801.36,-68.25"/>
</a>
</g>
</g>
<!-- Node8 -->
<g id="Node000008" class="node">
<title>Node8</title>
<g id="a_Node000008"><a xlink:href="classcom_1_1example_1_1mybookshelf_1_1UIMaster.html#ad609d5e0b54e87afcb60aed6c66a792e" target="_top" xlink:title=" ">
<polygon fill="white" stroke="#666666" points="554,-72.96 376,-72.96 376,-42.96 554,-42.96 554,-72.96"/>
<text text-anchor="start" x="384" y="-60.96" font-family="Helvetica,sans-Serif" font-size="10.00">com.example.mybookshelf.</text>
<text text-anchor="middle" x="465" y="-49.96" font-family="Helvetica,sans-Serif" font-size="10.00">UIMaster.navigateToStartingPage</text>
</a>
</g>
</g>
<!-- Node7&#45;&gt;Node8 -->
<g id="edge9_Node000007_Node000008" class="edge">
<title>Node7&#45;&gt;Node8</title>
<g id="a_edge9_Node000007_Node000008"><a xlink:title=" ">
<path fill="none" stroke="#63b8ff" d="M579.82,-47.83C571.2,-48.6 562.53,-49.37 554.02,-50.13"/>
<polygon fill="#63b8ff" stroke="#63b8ff" points="580.23,-51.31 589.88,-46.94 579.61,-44.34 580.23,-51.31"/>
</a>
</g>
</g>
<!-- Node8&#45;&gt;Node3 -->
<g id="edge12_Node000008_Node000003" class="edge">
<title>Node8&#45;&gt;Node3</title>
<g id="a_edge12_Node000008_Node000003"><a xlink:title=" ">
<path fill="none" stroke="#63b8ff" d="M508.73,-39.18C532.21,-29.88 562.16,-19.65 590,-14.96 752.06,12.34 799.57,0.95 959,-38.96 986.49,-45.84 1016.41,-57.43 1038.55,-66.84"/>
<polygon fill="#63b8ff" stroke="#63b8ff" points="507.36,-35.96 499.41,-42.96 509.99,-42.45 507.36,-35.96"/>
</a>
</g>
</g>
<!-- Node8&#45;&gt;Node4 -->
<g id="edge10_Node000008_Node000004" class="edge">
<title>Node8&#45;&gt;Node4</title>
<g id="a_edge10_Node000008_Node000004"><a xlink:title=" ">
<path fill="none" stroke="#63b8ff" d="M406.1,-76C376.69,-85.17 341.37,-96.17 313.42,-104.88"/>
<polygon fill="#63b8ff" stroke="#63b8ff" points="407.32,-79.29 415.83,-72.97 405.24,-72.6 407.32,-79.29"/>
</a>
</g>
</g>
<!-- Node8&#45;&gt;Node6 -->
<g id="edge11_Node000008_Node000006" class="edge">
<title>Node8&#45;&gt;Node6</title>
<g id="a_edge11_Node000008_Node000006"><a xlink:title=" ">
<path fill="none" stroke="#63b8ff" d="M564.4,-63.64C638.58,-67.92 738.8,-73.7 806.67,-77.62"/>
<polygon fill="#63b8ff" stroke="#63b8ff" points="564.3,-60.13 554.12,-63.05 563.9,-67.12 564.3,-60.13"/>
</a>
</g>
</g>
</g>
</svg>
