<?xml version="1.0" encoding="UTF-8" standalone="no"?>
<!DOCTYPE svg PUBLIC "-//W3C//DTD SVG 1.1//EN"
 "http://www.w3.org/Graphics/SVG/1.1/DTD/svg11.dtd">
<!-- Generated by graphviz version 2.43.0 (0)
 -->
<!-- Title: com.example.mybookshelf.notifications.NotificationScheduler.changeDailyNotificationTime Pages: 1 -->
<!--zoomable 146 -->

<svg id="main" version="1.1" xmlns="http://www.w3.org/2000/svg" xmlns:xlink="http://www.w3.org/1999/xlink" xml:space="preserve" onload="init(evt)">

<style type="text/css"><![CDATA[
.node, .edge {opacity: 0.7;}
.node.selected, .edge.selected {opacity: 1;}
.edge:hover path { stroke: red; }
.edge:hover polygon { stroke: red; fill: red; }
]]></style>

<defs>
  <circle id="rim" cx="0" cy="0" r="7"/>
  <circle id="rim2" cx="0" cy="0" r="3.5"/>
  <g id="zoomPlus">
    <use xlink:href="#rim" fill="#404040"><set attributeName="fill" to="#808080" begin="zoomplus.mouseover" end="zoomplus.mouseout"/></use>
    <path d="M-4,0h8M0,-4v8" fill="none" stroke="white" stroke-width="1.5" pointer-events="none"/>
  </g>
  <g id="zoomMin">
    <use xlink:href="#rim" fill="#404040"><set attributeName="fill" to="#808080" begin="zoomminus.mouseover" end="zoomminus.mouseout"/></use>
    <path d="M-4,0h8" fill="none" stroke="white" stroke-width="1.5" pointer-events="none"/>
  </g>
  <g id="arrowUp" transform="translate(30 24)">
    <use xlink:href="#rim"/>
    <path pointer-events="none" fill="none" stroke="white" stroke-width="1.5" d="M0,-3.0v7 M-2.5,-0.5L0,-3.0L2.5,-0.5"/>
  </g>
  <g id="arrowRight" transform="rotate(90) translate(36 -43)">
    <use xlink:href="#rim"/>
    <path pointer-events="none" fill="none" stroke="white" stroke-width="1.5" d="M0,-3.0v7 M-2.5,-0.5L0,-3.0L2.5,-0.5"/>
  </g>
  <g id="arrowDown" transform="rotate(180) translate(-30 -48)">
    <use xlink:href="#rim"/>
    <path pointer-events="none" fill="none" stroke="white" stroke-width="1.5" d="M0,-3.0v7 M-2.5,-0.5L0,-3.0L2.5,-0.5"/>
  </g>
  <g id="arrowLeft" transform="rotate(270) translate(-36 17)">
    <use xlink:href="#rim"/>
    <path pointer-events="none" fill="none" stroke="white" stroke-width="1.5" d="M0,-3.0v7 M-2.5,-0.5L0,-3.0L2.5,-0.5"/>
  </g>
  <g id="resetDef">
    <use xlink:href="#rim2" fill="#404040"><set attributeName="fill" to="#808080" begin="reset.mouseover" end="reset.mouseout"/></use>
  </g>
</defs>
<script type="application/ecmascript">
var viewWidth = 557;
var viewHeight = 146;
var sectionId = 'dynsection-4';
</script>
<script type="application/ecmascript" xlink:href="svg.min.js"/>
<svg id="graph" class="graph">
<g id="viewport">
<title>com.example.mybookshelf.notifications.NotificationScheduler.changeDailyNotificationTime</title>
<!-- Node1 -->
<g id="Node000001" class="node">
<title>Node1</title>
<g id="a_Node000001"><a xlink:title=" ">
<polygon fill="#999999" stroke="#666666" points="265,-84 0,-84 0,-54 265,-54 265,-84"/>
<text text-anchor="start" x="8" y="-72" font-family="Helvetica,sans-Serif" font-size="10.00">com.example.mybookshelf.notifications.</text>
<text text-anchor="middle" x="132.5" y="-61" font-family="Helvetica,sans-Serif" font-size="10.00">NotificationScheduler.changeDailyNotificationTime</text>
</a>
</g>
</g>
<!-- Node2 -->
<g id="Node000002" class="node">
<title>Node2</title>
<g id="a_Node000002"><a xlink:href="classcom_1_1example_1_1mybookshelf_1_1notifications_1_1NotificationScheduler.html#afc96590cd792b862b32762b84cab085e" target="_top" xlink:title=" ">
<polygon fill="white" stroke="#666666" points="543,-138 307,-138 307,-108 543,-108 543,-138"/>
<text text-anchor="start" x="315" y="-126" font-family="Helvetica,sans-Serif" font-size="10.00">com.example.mybookshelf.notifications.</text>
<text text-anchor="middle" x="425" y="-115" font-family="Helvetica,sans-Serif" font-size="10.00">NotificationScheduler.cancelDailyNotification</text>
</a>
</g>
</g>
<!-- Node1&#45;&gt;Node2 -->
<g id="edge1_Node000001_Node000002" class="edge">
<title>Node1&#45;&gt;Node2</title>
<g id="a_edge1_Node000001_Node000002"><a xlink:title=" ">
<path fill="none" stroke="#63b8ff" d="M214.42,-84.04C251.33,-90.9 295.19,-99.06 333.22,-106.12"/>
<polygon fill="#63b8ff" stroke="#63b8ff" points="332.79,-109.61 343.26,-107.99 334.07,-102.72 332.79,-109.61"/>
</a>
</g>
</g>
<!-- Node3 -->
<g id="Node000003" class="node">
<title>Node3</title>
<g id="a_Node000003"><a xlink:href="classcom_1_1example_1_1mybookshelf_1_1notifications_1_1NotificationScheduler.html#afad2859e0654bc94cdec599cd6ae9949" target="_top" xlink:title=" ">
<polygon fill="white" stroke="#666666" points="535.5,-89.5 314.5,-89.5 314.5,-48.5 535.5,-48.5 535.5,-89.5"/>
<text text-anchor="start" x="322.5" y="-77.5" font-family="Helvetica,sans-Serif" font-size="10.00">com.example.mybookshelf.notifications.</text>
<text text-anchor="start" x="322.5" y="-66.5" font-family="Helvetica,sans-Serif" font-size="10.00">NotificationScheduler.getDailyNotification</text>
<text text-anchor="middle" x="425" y="-55.5" font-family="Helvetica,sans-Serif" font-size="10.00">Message</text>
</a>
</g>
</g>
<!-- Node1&#45;&gt;Node3 -->
<g id="edge2_Node000001_Node000003" class="edge">
<title>Node1&#45;&gt;Node3</title>
<g id="a_edge2_Node000001_Node000003"><a xlink:title=" ">
<path fill="none" stroke="#63b8ff" d="M265.15,-69C278.06,-69 291.12,-69 303.91,-69"/>
<polygon fill="#63b8ff" stroke="#63b8ff" points="304.1,-72.5 314.1,-69 304.1,-65.5 304.1,-72.5"/>
</a>
</g>
</g>
<!-- Node4 -->
<g id="Node000004" class="node">
<title>Node4</title>
<g id="a_Node000004"><a xlink:href="classcom_1_1example_1_1mybookshelf_1_1notifications_1_1NotificationScheduler.html#a5833d4c1b987dddea26acdad230c640f" target="_top" xlink:title=" ">
<polygon fill="white" stroke="#666666" points="549,-30 301,-30 301,0 549,0 549,-30"/>
<text text-anchor="start" x="309" y="-18" font-family="Helvetica,sans-Serif" font-size="10.00">com.example.mybookshelf.notifications.</text>
<text text-anchor="middle" x="425" y="-7" font-family="Helvetica,sans-Serif" font-size="10.00">NotificationScheduler.scheduleDailyNotification</text>
</a>
</g>
</g>
<!-- Node1&#45;&gt;Node4 -->
<g id="edge3_Node000001_Node000004" class="edge">
<title>Node1&#45;&gt;Node4</title>
<g id="a_edge3_Node000001_Node000004"><a xlink:title=" ">
<path fill="none" stroke="#63b8ff" d="M214.42,-53.96C251.33,-47.1 295.19,-38.94 333.22,-31.88"/>
<polygon fill="#63b8ff" stroke="#63b8ff" points="334.07,-35.28 343.26,-30.01 332.79,-28.39 334.07,-35.28"/>
</a>
</g>
</g>
</g>
</svg>

<g id="navigator" transform="translate(0 0)" fill="#404254">
  <rect fill="#f2f5e9" fill-opacity="0.5" stroke="#606060" stroke-width=".5" x="0" y="0" width="60" height="60"/>
  <use id="zoomplus" xlink:href="#zoomPlus" x="17" y="9" onmousedown="handleZoom(evt,'in')"/>
  <use id="zoomminus" xlink:href="#zoomMin" x="42" y="9" onmousedown="handleZoom(evt,'out')"/>
  <use id="reset" xlink:href="#resetDef" x="30" y="36" onmousedown="handleReset()"/>
   <use id="arrowup" xlink:href="#arrowUp" x="0" y="0" onmousedown="handlePan(0,-1)"/>
  <use id="arrowright" xlink:href="#arrowRight" x="0" y="0" onmousedown="handlePan(1,0)"/>
  <use id="arrowdown" xlink:href="#arrowDown" x="0" y="0" onmousedown="handlePan(0,1)"/>
  <use id="arrowleft" xlink:href="#arrowLeft" x="0" y="0" onmousedown="handlePan(-1,0)"/>
</g>
<svg viewBox="0 0 15 15" width="100%" height="30px" preserveAspectRatio="xMaxYMin meet">
 <g id="arrow_out" transform="scale(0.3 0.3)">
  <a xlink:href="classcom_1_1example_1_1mybookshelf_1_1notifications_1_1NotificationScheduler_a79dcce93490bc0df80c03c0a410672b2_cgraph_org.svg" target="_base">
   <rect id="button" ry="5" rx="5" y="6" x="6" height="38" width="38"
        fill="#f2f5e9" fill-opacity="0.5" stroke="#606060" stroke-width="1.0"/>
   <path id="arrow"
     d="M 11.500037,31.436501 C 11.940474,20.09759 22.043105,11.32322 32.158766,21.979434 L 37.068811,17.246167 C 37.068811,17.246167 37.088388,32 37.088388,32 L 22.160133,31.978069 C 22.160133,31.978069 26.997745,27.140456 26.997745,27.140456 C 18.528582,18.264221 13.291696,25.230495 11.500037,31.436501 z"
     style="fill:#404040;"/>
  </a>
 </g>
</svg>

<style type='text/css'>
<![CDATA[
[data-mouse-over-selected='false'] { opacity: 0.7; }
[data-mouse-over-selected='true']  { opacity: 1.0; }
]]>
</style>
<script type="application/ecmascript"><![CDATA[
document.addEventListener('DOMContentLoaded', (event) => {
  highlightEdges();
  highlightAdjacentNodes();
});
]]></script>
</svg>
