<?xml version="1.0" encoding="UTF-8" standalone="no"?>
<!DOCTYPE svg PUBLIC "-//W3C//DTD SVG 1.1//EN"
 "http://www.w3.org/Graphics/SVG/1.1/DTD/svg11.dtd">
<!-- Generated by graphviz version 2.43.0 (0)
 -->
<!-- Title: com.example.mybookshelf.notifications.NotificationReceiver Pages: 1 -->
<svg width="217pt" height="179pt"
 viewBox="0.00 0.00 217.00 179.00" xmlns="http://www.w3.org/2000/svg" xmlns:xlink="http://www.w3.org/1999/xlink">

<svg id="main" version="1.1" xmlns="http://www.w3.org/2000/svg" xmlns:xlink="http://www.w3.org/1999/xlink" xml:space="preserve">

<style type="text/css"><![CDATA[
.node, .edge {opacity: 0.7;}
.node.selected, .edge.selected {opacity: 1;}
.edge:hover path { stroke: red; }
.edge:hover polygon { stroke: red; fill: red; }
]]></style>
<script type="application/ecmascript" xlink:href="svg.min.js"/>
<svg id="graph" class="graph">
<g id="graph0" class="graph" transform="scale(1 1) rotate(0) translate(4 175)">
<title>com.example.mybookshelf.notifications.NotificationReceiver</title>
<!-- Node1 -->
<g id="Node000001" class="node">
<title>Node1</title>
<g id="a_Node000001"><a xlink:title=" ">
<polygon fill="#999999" stroke="transparent" points="209,-75 0,-75 0,0 209,0 209,-75"/>
<text text-anchor="start" x="5.5" y="-62.5" font-family="Helvetica,sans-Serif" font-size="10.00">com.example.mybookshelf.notifications.</text>
<text text-anchor="start" x="55" y="-51.5" font-family="Helvetica,sans-Serif" font-size="10.00">NotificationReceiver</text>
<text text-anchor="start" x="103" y="-36.5" font-family="Helvetica,sans-Serif" font-size="10.00"> </text>
<text text-anchor="start" x="29" y="-21.5" font-family="Helvetica,sans-Serif" font-size="10.00">+</text>
<text text-anchor="start" x="66.5" y="-21.5" font-family="Helvetica,sans-Serif" font-size="10.00">onReceive()</text>
<text text-anchor="start" x="31.5" y="-6.5" font-family="Helvetica,sans-Serif" font-size="10.00">&#45;</text>
<text text-anchor="start" x="66.5" y="-6.5" font-family="Helvetica,sans-Serif" font-size="10.00">showNotification()</text>
<polygon fill="#666666" stroke="#666666" points="0.5,-46.5 0.5,-46.5 209.5,-46.5 209.5,-46.5 0.5,-46.5"/>
<polygon fill="#666666" stroke="#666666" points="0.5,-31.5 0.5,-31.5 209.5,-31.5 209.5,-31.5 0.5,-31.5"/>
<polygon fill="none" stroke="#666666" points="0,0 0,-75 209,-75 209,0 0,0"/>
</a>
</g>
</g>
<!-- Node2 -->
<g id="Node000002" class="node">
<title>Node2</title>
<g id="a_Node000002"><a xlink:href="classBroadcastReceiver.html" target="_top" xlink:title=" ">
<polygon fill="white" stroke="transparent" points="111.5,-171 9.5,-171 9.5,-122 111.5,-122 111.5,-171"/>
<text text-anchor="start" x="14.5" y="-158.5" font-family="Helvetica,sans-Serif" font-size="10.00">BroadcastReceiver</text>
<text text-anchor="start" x="58.5" y="-143.5" font-family="Helvetica,sans-Serif" font-size="10.00"> </text>
<text text-anchor="start" x="58.5" y="-128.5" font-family="Helvetica,sans-Serif" font-size="10.00"> </text>
<polygon fill="#666666" stroke="#666666" points="9.5,-153.5 9.5,-153.5 111.5,-153.5 111.5,-153.5 9.5,-153.5"/>
<polygon fill="#666666" stroke="#666666" points="9.5,-138.5 9.5,-138.5 111.5,-138.5 111.5,-138.5 9.5,-138.5"/>
<polygon fill="none" stroke="#666666" points="9.5,-122 9.5,-171 111.5,-171 111.5,-122 9.5,-122"/>
</a>
</g>
</g>
<!-- Node2&#45;&gt;Node1 -->
<g id="edge1_Node000001_Node000002" class="edge">
<title>Node2&#45;&gt;Node1</title>
<g id="a_edge1_Node000001_Node000002"><a xlink:title=" ">
<path fill="none" stroke="#63b8ff" d="M74.15,-112.3C78.99,-100.54 84.45,-87.25 89.4,-75.22"/>
<polygon fill="none" stroke="#63b8ff" points="70.83,-111.17 70.27,-121.75 77.31,-113.84 70.83,-111.17"/>
</a>
</g>
</g>
<!-- Node3 -->
<g id="Node000003" class="node">
<title>Node3</title>
<g id="a_Node000003"><a xlink:title=" ">
<polygon fill="white" stroke="transparent" points="169,-171 130,-171 130,-122 169,-122 169,-171"/>
<text text-anchor="start" x="135.5" y="-158.5" font-family="Helvetica,sans-Serif" font-size="10.00">String</text>
<text text-anchor="start" x="148" y="-143.5" font-family="Helvetica,sans-Serif" font-size="10.00"> </text>
<text text-anchor="start" x="148" y="-128.5" font-family="Helvetica,sans-Serif" font-size="10.00"> </text>
<polygon fill="#666666" stroke="#666666" points="130.5,-153.5 130.5,-153.5 169.5,-153.5 169.5,-153.5 130.5,-153.5"/>
<polygon fill="#666666" stroke="#666666" points="130.5,-138.5 130.5,-138.5 169.5,-138.5 169.5,-138.5 130.5,-138.5"/>
<polygon fill="none" stroke="#666666" points="130,-122 130,-171 169,-171 169,-122 130,-122"/>
</a>
</g>
</g>
<!-- Node3&#45;&gt;Node1 -->
<g id="edge2_Node000001_Node000003" class="edge">
<title>Node3&#45;&gt;Node1</title>
<g id="a_edge2_Node000001_Node000003"><a xlink:title=" ">
<path fill="none" stroke="#63b8ff" d="M139.51,-121.75C135.11,-111.29 129.77,-98.6 124.61,-86.31"/>
<polygon fill="none" stroke="#63b8ff" points="124.59,-86.28 118.58,-82.3 119.94,-75.22 125.95,-79.2 124.59,-86.28"/>
</a>
</g>
<text text-anchor="middle" x="143.5" y="-96" font-family="Helvetica,sans-Serif" font-size="10.00" fill="grey"> &#45;TAG</text>
</g>
</g>
</svg>
</svg>

<style type='text/css'>
<![CDATA[
[data-mouse-over-selected='false'] { opacity: 0.7; }
[data-mouse-over-selected='true']  { opacity: 1.0; }
]]>
</style>
<script type="application/ecmascript"><![CDATA[
document.addEventListener('DOMContentLoaded', (event) => {
  highlightEdges();
  highlightAdjacentNodes();
});
]]></script>
</svg>
