<?xml version="1.0" encoding="UTF-8" standalone="no"?>
<!DOCTYPE svg PUBLIC "-//W3C//DTD SVG 1.1//EN"
 "http://www.w3.org/Graphics/SVG/1.1/DTD/svg11.dtd">
<!-- Generated by graphviz version 2.43.0 (0)
 -->
<!-- Title: com.example.mybookshelf.dataClass.Book.getImageUrl Pages: 1 -->
<svg width="679pt" height="146pt"
 viewBox="0.00 0.00 679.00 145.50" xmlns="http://www.w3.org/2000/svg" xmlns:xlink="http://www.w3.org/1999/xlink">
<g id="graph0" class="graph" transform="scale(1 1) rotate(0) translate(4 141.5)">
<title>com.example.mybookshelf.dataClass.Book.getImageUrl</title>
<!-- Node1 -->
<g id="Node000001" class="node">
<title>Node1</title>
<g id="a_Node000001"><a xlink:title=" ">
<polygon fill="#999999" stroke="#666666" points="671,-78 497,-78 497,-48 671,-48 671,-78"/>
<text text-anchor="start" x="505" y="-66" font-family="Helvetica,sans-Serif" font-size="10.00">com.example.mybookshelf.data</text>
<text text-anchor="middle" x="584" y="-55" font-family="Helvetica,sans-Serif" font-size="10.00">Class.Book.getImageUrl</text>
</a>
</g>
</g>
<!-- Node2 -->
<g id="Node000002" class="node">
<title>Node2</title>
<g id="a_Node000002"><a xlink:href="classcom_1_1example_1_1mybookshelf_1_1LayoutManager_1_1CostumeListAdapter.html#aecf267c9d5fc023c90187a13bc4ebe2e" target="_top" xlink:title=" ">
<polygon fill="white" stroke="#666666" points="461,-137.5 244,-137.5 244,-96.5 461,-96.5 461,-137.5"/>
<text text-anchor="start" x="252" y="-125.5" font-family="Helvetica,sans-Serif" font-size="10.00">com.example.mybookshelf.</text>
<text text-anchor="start" x="252" y="-114.5" font-family="Helvetica,sans-Serif" font-size="10.00">LayoutManager.CostumeListAdapter.bind</text>
<text text-anchor="middle" x="352.5" y="-103.5" font-family="Helvetica,sans-Serif" font-size="10.00">BookData</text>
</a>
</g>
</g>
<!-- Node1&#45;&gt;Node2 -->
<g id="edge1_Node000001_Node000002" class="edge">
<title>Node1&#45;&gt;Node2</title>
<g id="a_edge1_Node000001_Node000002"><a xlink:title=" ">
<path fill="none" stroke="#63b8ff" d="M509.21,-80.36C487.38,-85.5 463.27,-91.17 440.67,-96.49"/>
<polygon fill="#63b8ff" stroke="#63b8ff" points="510.14,-83.74 519.07,-78.04 508.54,-76.93 510.14,-83.74"/>
</a>
</g>
</g>
<!-- Node4 -->
<g id="Node000004" class="node">
<title>Node4</title>
<g id="a_Node000004"><a xlink:href="classcom_1_1example_1_1mybookshelf_1_1UIMaster.html#a1533d0ed2384f2ec729cfcec7bd9a25f" target="_top" xlink:title=" ">
<polygon fill="white" stroke="#666666" points="428.5,-78 276.5,-78 276.5,-48 428.5,-48 428.5,-78"/>
<text text-anchor="start" x="284.5" y="-66" font-family="Helvetica,sans-Serif" font-size="10.00">com.example.mybookshelf.</text>
<text text-anchor="middle" x="352.5" y="-55" font-family="Helvetica,sans-Serif" font-size="10.00">UIMaster.createBookBox</text>
</a>
</g>
</g>
<!-- Node1&#45;&gt;Node4 -->
<g id="edge3_Node000001_Node000004" class="edge">
<title>Node1&#45;&gt;Node4</title>
<g id="a_edge3_Node000001_Node000004"><a xlink:title=" ">
<path fill="none" stroke="#63b8ff" d="M486.83,-63C467.44,-63 447.33,-63 428.79,-63"/>
<polygon fill="#63b8ff" stroke="#63b8ff" points="486.89,-66.5 496.89,-63 486.89,-59.5 486.89,-66.5"/>
</a>
</g>
</g>
<!-- Node5 -->
<g id="Node000005" class="node">
<title>Node5</title>
<g id="a_Node000005"><a xlink:href="classcom_1_1example_1_1mybookshelf_1_1MainActivity.html#ab1625f7432f6fcc4f53a63d3b893065f" target="_top" xlink:title=" ">
<polygon fill="white" stroke="#666666" points="428.5,-30 276.5,-30 276.5,0 428.5,0 428.5,-30"/>
<text text-anchor="start" x="284.5" y="-18" font-family="Helvetica,sans-Serif" font-size="10.00">com.example.mybookshelf.</text>
<text text-anchor="middle" x="352.5" y="-7" font-family="Helvetica,sans-Serif" font-size="10.00">MainActivity.saveBook</text>
</a>
</g>
</g>
<!-- Node1&#45;&gt;Node5 -->
<g id="edge4_Node000001_Node000005" class="edge">
<title>Node1&#45;&gt;Node5</title>
<g id="a_edge4_Node000001_Node000005"><a xlink:title=" ">
<path fill="none" stroke="#63b8ff" d="M500.93,-45.83C476.19,-40.66 449.24,-35.02 425.23,-30"/>
<polygon fill="#63b8ff" stroke="#63b8ff" points="500.51,-49.32 511.01,-47.94 501.94,-42.47 500.51,-49.32"/>
</a>
</g>
</g>
<!-- Node3 -->
<g id="Node000003" class="node">
<title>Node3</title>
<g id="a_Node000003"><a xlink:href="classcom_1_1example_1_1mybookshelf_1_1LayoutManager_1_1CostumeListAdapter.html#a6195566266811486050ad2962a7a161f" target="_top" xlink:title=" ">
<polygon fill="white" stroke="#666666" points="208,-137.5 0,-137.5 0,-96.5 208,-96.5 208,-137.5"/>
<text text-anchor="start" x="8" y="-125.5" font-family="Helvetica,sans-Serif" font-size="10.00">com.example.mybookshelf.</text>
<text text-anchor="start" x="8" y="-114.5" font-family="Helvetica,sans-Serif" font-size="10.00">LayoutManager.CostumeListAdapter.on</text>
<text text-anchor="middle" x="104" y="-103.5" font-family="Helvetica,sans-Serif" font-size="10.00">BindViewHolder</text>
</a>
</g>
</g>
<!-- Node2&#45;&gt;Node3 -->
<g id="edge2_Node000002_Node000003" class="edge">
<title>Node2&#45;&gt;Node3</title>
<g id="a_edge2_Node000002_Node000003"><a xlink:title=" ">
<path fill="none" stroke="#63b8ff" d="M233.48,-117C225.05,-117 216.58,-117 208.24,-117"/>
<polygon fill="#63b8ff" stroke="#63b8ff" points="233.74,-120.5 243.74,-117 233.74,-113.5 233.74,-120.5"/>
</a>
</g>
</g>
</g>
</svg>
