<?xml version="1.0" encoding="UTF-8" standalone="no"?>
<!DOCTYPE svg PUBLIC "-//W3C//DTD SVG 1.1//EN"
 "http://www.w3.org/Graphics/SVG/1.1/DTD/svg11.dtd">
<!-- Generated by graphviz version 2.43.0 (0)
 -->
<!-- Title: com.example.mybookshelf.BookRecommendationFlow.buildAIStringFresh Pages: 1 -->
<svg width="2325pt" height="740pt"
 viewBox="0.00 0.00 2325.00 739.95" xmlns="http://www.w3.org/2000/svg" xmlns:xlink="http://www.w3.org/1999/xlink">
<g id="graph0" class="graph" transform="scale(1 1) rotate(0) translate(4 735.95)">
<title>com.example.mybookshelf.BookRecommendationFlow.buildAIStringFresh</title>
<!-- Node1 -->
<g id="Node000001" class="node">
<title>Node1</title>
<g id="a_Node000001"><a xlink:title=" ">
<polygon fill="#999999" stroke="#666666" points="177,-197.45 0,-197.45 0,-156.45 177,-156.45 177,-197.45"/>
<text text-anchor="start" x="8" y="-185.45" font-family="Helvetica,sans-Serif" font-size="10.00">com.example.mybookshelf.</text>
<text text-anchor="start" x="8" y="-174.45" font-family="Helvetica,sans-Serif" font-size="10.00">BookRecommendationFlow.build</text>
<text text-anchor="middle" x="88.5" y="-163.45" font-family="Helvetica,sans-Serif" font-size="10.00">AIStringFresh</text>
</a>
</g>
</g>
<!-- Node2 -->
<g id="Node000002" class="node">
<title>Node2</title>
<g id="a_Node000002"><a xlink:href="classcom_1_1example_1_1mybookshelf_1_1BookRecommendationFlow.html#ae50cf18619872a365eebe91c18d86e8d" target="_top" xlink:title=" ">
<polygon fill="white" stroke="#666666" points="393,-405.95 213,-405.95 213,-375.95 393,-375.95 393,-405.95"/>
<text text-anchor="start" x="221" y="-393.95" font-family="Helvetica,sans-Serif" font-size="10.00">com.example.mybookshelf.</text>
<text text-anchor="middle" x="303" y="-382.95" font-family="Helvetica,sans-Serif" font-size="10.00">BookRecommendationFlow.callAI</text>
</a>
</g>
</g>
<!-- Node1&#45;&gt;Node2 -->
<g id="edge1_Node000001_Node000002" class="edge">
<title>Node1&#45;&gt;Node2</title>
<g id="a_edge1_Node000001_Node000002"><a xlink:title=" ">
<path fill="none" stroke="#63b8ff" d="M109.88,-197.47C149.87,-237.75 238.37,-326.87 279.8,-368.59"/>
<polygon fill="#63b8ff" stroke="#63b8ff" points="277.43,-371.18 286.96,-375.81 282.4,-366.25 277.43,-371.18"/>
</a>
</g>
</g>
<!-- Node2&#45;&gt;Node2 -->
<g id="edge3_Node000002_Node000002" class="edge">
<title>Node2&#45;&gt;Node2</title>
<g id="a_edge3_Node000002_Node000002"><a xlink:title=" ">
<path fill="none" stroke="#63b8ff" d="M265.38,-406.23C257.02,-415.36 269.56,-423.95 303,-423.95 322.85,-423.95 335.34,-420.92 340.46,-416.55"/>
<polygon fill="#63b8ff" stroke="#63b8ff" points="343.96,-416.28 340.62,-406.23 336.96,-416.17 343.96,-416.28"/>
</a>
</g>
</g>
<!-- Node3 -->
<g id="Node000003" class="node">
<title>Node3</title>
<g id="a_Node000003"><a xlink:href="classcom_1_1example_1_1mybookshelf_1_1BookRecommendationFlow.html#a3855117e802e54923c308e0df6280c17" target="_top" xlink:title=" ">
<polygon fill="white" stroke="#666666" points="2317,-201.45 2123,-201.45 2123,-160.45 2317,-160.45 2317,-201.45"/>
<text text-anchor="start" x="2131" y="-189.45" font-family="Helvetica,sans-Serif" font-size="10.00">com.example.mybookshelf.</text>
<text text-anchor="start" x="2131" y="-178.45" font-family="Helvetica,sans-Serif" font-size="10.00">BookRecommendationFlow.addChat</text>
<text text-anchor="middle" x="2220" y="-167.45" font-family="Helvetica,sans-Serif" font-size="10.00">Message</text>
</a>
</g>
</g>
<!-- Node2&#45;&gt;Node3 -->
<g id="edge2_Node000002_Node000003" class="edge">
<title>Node2&#45;&gt;Node3</title>
<g id="a_edge2_Node000002_Node000003"><a xlink:title=" ">
<path fill="none" stroke="#63b8ff" d="M316.65,-375.69C337.61,-351.31 381.93,-303.53 429,-275.95 764.49,-79.4 871.67,-3.95 1260.5,-3.95 1260.5,-3.95 1260.5,-3.95 1744.5,-3.95 1898.09,-3.95 1949.21,17.9 2087,-49.95 2134.66,-73.42 2175.58,-120.83 2198.74,-151.72"/>
<polygon fill="#63b8ff" stroke="#63b8ff" points="2196.05,-153.97 2204.79,-159.96 2201.69,-149.83 2196.05,-153.97"/>
</a>
</g>
</g>
<!-- Node4 -->
<g id="Node000004" class="node">
<title>Node4</title>
<g id="a_Node000004"><a xlink:href="classcom_1_1example_1_1mybookshelf_1_1BookRecommendationFlow.html#a02b6d699653b58f244907bd10db53ab5" target="_top" xlink:title=" ">
<polygon fill="white" stroke="#666666" points="2312,-526.45 2128,-526.45 2128,-485.45 2312,-485.45 2312,-526.45"/>
<text text-anchor="start" x="2136" y="-514.45" font-family="Helvetica,sans-Serif" font-size="10.00">com.example.mybookshelf.</text>
<text text-anchor="start" x="2136" y="-503.45" font-family="Helvetica,sans-Serif" font-size="10.00">BookRecommendationFlow.create</text>
<text text-anchor="middle" x="2220" y="-492.45" font-family="Helvetica,sans-Serif" font-size="10.00">StyledGridButton</text>
</a>
</g>
</g>
<!-- Node2&#45;&gt;Node4 -->
<g id="edge4_Node000002_Node000004" class="edge">
<title>Node2&#45;&gt;Node4</title>
<g id="a_edge4_Node000002_Node000004"><a xlink:title=" ">
<path fill="none" stroke="#63b8ff" d="M315.88,-405.98C365.66,-467.12 565.04,-693.95 783,-693.95 783,-693.95 783,-693.95 1744.5,-693.95 1897.86,-693.95 1950.89,-722.62 2087,-651.95 2138.5,-625.21 2179.76,-569.7 2201.71,-535.36"/>
<polygon fill="#63b8ff" stroke="#63b8ff" points="2204.79,-537.03 2207.12,-526.69 2198.85,-533.32 2204.79,-537.03"/>
</a>
</g>
</g>
<!-- Node5 -->
<g id="Node000005" class="node">
<title>Node5</title>
<g id="a_Node000005"><a xlink:href="classcom_1_1example_1_1mybookshelf_1_1apis_1_1AiAPI.html#a4a45b91f0717302661d9e35ed956c049" target="_top" xlink:title=" ">
<polygon fill="white" stroke="#666666" points="627.5,-432.95 451.5,-432.95 451.5,-402.95 627.5,-402.95 627.5,-432.95"/>
<text text-anchor="start" x="459.5" y="-420.95" font-family="Helvetica,sans-Serif" font-size="10.00">com.example.mybookshelf.apis.</text>
<text text-anchor="middle" x="539.5" y="-409.95" font-family="Helvetica,sans-Serif" font-size="10.00">AiAPI.fetchResponse</text>
</a>
</g>
</g>
<!-- Node2&#45;&gt;Node5 -->
<g id="edge5_Node000002_Node000005" class="edge">
<title>Node2&#45;&gt;Node5</title>
<g id="a_edge5_Node000002_Node000005"><a xlink:title=" ">
<path fill="none" stroke="#63b8ff" d="M393.32,-401.24C408.93,-403.03 425.24,-404.91 441.05,-406.73"/>
<polygon fill="#63b8ff" stroke="#63b8ff" points="441.03,-410.25 451.36,-407.92 441.83,-403.3 441.03,-410.25"/>
</a>
</g>
</g>
<!-- Node6 -->
<g id="Node000006" class="node">
<title>Node6</title>
<g id="a_Node000006"><a xlink:href="classcom_1_1example_1_1mybookshelf_1_1BookRecommendationFlow.html#a4dceb0fa4d170b8c7e5a7a6718593dfe" target="_top" xlink:title=" ">
<polygon fill="white" stroke="#666666" points="639.5,-498.95 439.5,-498.95 439.5,-468.95 639.5,-468.95 639.5,-498.95"/>
<text text-anchor="start" x="447.5" y="-486.95" font-family="Helvetica,sans-Serif" font-size="10.00">com.example.mybookshelf.</text>
<text text-anchor="middle" x="539.5" y="-475.95" font-family="Helvetica,sans-Serif" font-size="10.00">BookRecommendationFlow.handleNo</text>
</a>
</g>
</g>
<!-- Node2&#45;&gt;Node6 -->
<g id="edge7_Node000002_Node000006" class="edge">
<title>Node2&#45;&gt;Node6</title>
<g id="a_edge7_Node000002_Node000006"><a xlink:title=" ">
<path fill="none" stroke="#63b8ff" d="M326.53,-406.02C350.85,-421.64 391.19,-445.72 429,-459.95 434.92,-462.18 441.09,-464.23 447.37,-466.11"/>
<polygon fill="#63b8ff" stroke="#63b8ff" points="446.72,-469.56 457.3,-468.92 448.63,-462.83 446.72,-469.56"/>
</a>
</g>
</g>
<!-- Node17 -->
<g id="Node000017" class="node">
<title>Node17</title>
<g id="a_Node000017"><a xlink:href="classcom_1_1example_1_1mybookshelf_1_1BookRecommendationFlow.html#ac62af5d6edeffa96b2862a609ebb40df" target="_top" xlink:title=" ">
<polygon fill="white" stroke="#666666" points="647.5,-384.45 431.5,-384.45 431.5,-343.45 647.5,-343.45 647.5,-384.45"/>
<text text-anchor="start" x="439.5" y="-372.45" font-family="Helvetica,sans-Serif" font-size="10.00">com.example.mybookshelf.</text>
<text text-anchor="start" x="439.5" y="-361.45" font-family="Helvetica,sans-Serif" font-size="10.00">BookRecommendationFlow.hideThinking</text>
<text text-anchor="middle" x="539.5" y="-350.45" font-family="Helvetica,sans-Serif" font-size="10.00">Animation</text>
</a>
</g>
</g>
<!-- Node2&#45;&gt;Node17 -->
<g id="edge38_Node000002_Node000017" class="edge">
<title>Node2&#45;&gt;Node17</title>
<g id="a_edge38_Node000002_Node000017"><a xlink:title=" ">
<path fill="none" stroke="#63b8ff" d="M393.32,-380.67C402.45,-379.62 411.81,-378.54 421.18,-377.46"/>
<polygon fill="#63b8ff" stroke="#63b8ff" points="421.8,-380.91 431.33,-376.29 420.99,-373.96 421.8,-380.91"/>
</a>
</g>
</g>
<!-- Node18 -->
<g id="Node000018" class="node">
<title>Node18</title>
<g id="a_Node000018"><a xlink:href="classcom_1_1example_1_1mybookshelf_1_1BookRecommendationFlow.html#a78597ba37409daeee77dcfa6236b2e6a" target="_top" xlink:title=" ">
<polygon fill="white" stroke="#666666" points="650,-325.45 429,-325.45 429,-284.45 650,-284.45 650,-325.45"/>
<text text-anchor="start" x="437" y="-313.45" font-family="Helvetica,sans-Serif" font-size="10.00">com.example.mybookshelf.</text>
<text text-anchor="start" x="437" y="-302.45" font-family="Helvetica,sans-Serif" font-size="10.00">BookRecommendationFlow.showThinking</text>
<text text-anchor="middle" x="539.5" y="-291.45" font-family="Helvetica,sans-Serif" font-size="10.00">Animation</text>
</a>
</g>
</g>
<!-- Node2&#45;&gt;Node18 -->
<g id="edge39_Node000002_Node000018" class="edge">
<title>Node2&#45;&gt;Node18</title>
<g id="a_edge39_Node000002_Node000018"><a xlink:title=" ">
<path fill="none" stroke="#63b8ff" d="M334.03,-375.93C359.02,-363.81 395.76,-346.87 429,-334.95 435.23,-332.72 441.72,-330.55 448.28,-328.48"/>
<polygon fill="#63b8ff" stroke="#63b8ff" points="449.4,-331.79 457.92,-325.5 447.33,-325.11 449.4,-331.79"/>
</a>
</g>
</g>
<!-- Node5&#45;&gt;Node5 -->
<g id="edge6_Node000005_Node000005" class="edge">
<title>Node5&#45;&gt;Node5</title>
<g id="a_edge6_Node000005_Node000005"><a xlink:title=" ">
<path fill="none" stroke="#63b8ff" d="M498.02,-433.23C488.8,-442.36 502.63,-450.95 539.5,-450.95 561.39,-450.95 575.16,-447.92 580.81,-443.55"/>
<polygon fill="#63b8ff" stroke="#63b8ff" points="584.31,-443.29 580.98,-433.23 577.31,-443.17 584.31,-443.29"/>
</a>
</g>
</g>
<!-- Node6&#45;&gt;Node3 -->
<g id="edge8_Node000006_Node000003" class="edge">
<title>Node6&#45;&gt;Node3</title>
<g id="a_edge8_Node000006_Node000003"><a xlink:title=" ">
<path fill="none" stroke="#63b8ff" d="M621.05,-468.89C630.91,-466.29 640.77,-463.32 650,-459.95 1046.11,-315.62 1079.92,-41.95 1501.5,-41.95 1501.5,-41.95 1501.5,-41.95 1744.5,-41.95 1900.62,-41.95 1939.22,-69.6 2087,-119.95 2115.61,-129.7 2146.32,-143.67 2170.92,-155.78"/>
<polygon fill="#63b8ff" stroke="#63b8ff" points="2169.52,-158.99 2180.03,-160.32 2172.64,-152.73 2169.52,-158.99"/>
</a>
</g>
</g>
<!-- Node6&#45;&gt;Node4 -->
<g id="edge9_Node000006_Node000004" class="edge">
<title>Node6&#45;&gt;Node4</title>
<g id="a_edge9_Node000006_Node000004"><a xlink:title=" ">
<path fill="none" stroke="#63b8ff" d="M564.33,-499.22C632.43,-541.31 834.83,-655.95 1019.5,-655.95 1019.5,-655.95 1019.5,-655.95 1744.5,-655.95 1897.71,-655.95 1946.27,-677.5 2087,-616.95 2130.56,-598.21 2170.74,-560.18 2195.05,-533.9"/>
<polygon fill="#63b8ff" stroke="#63b8ff" points="2197.65,-536.24 2201.78,-526.49 2192.47,-531.54 2197.65,-536.24"/>
</a>
</g>
</g>
<!-- Node7 -->
<g id="Node000007" class="node">
<title>Node7</title>
<g id="a_Node000007"><a xlink:href="classcom_1_1example_1_1mybookshelf_1_1BookRecommendationFlow.html#a22f0dcaea578fbd7358e6237cd4873d4" target="_top" xlink:title=" ">
<polygon fill="white" stroke="#666666" points="882,-498.95 686,-498.95 686,-468.95 882,-468.95 882,-498.95"/>
<text text-anchor="start" x="694" y="-486.95" font-family="Helvetica,sans-Serif" font-size="10.00">com.example.mybookshelf.</text>
<text text-anchor="middle" x="784" y="-475.95" font-family="Helvetica,sans-Serif" font-size="10.00">BookRecommendationFlow.handleAI</text>
</a>
</g>
</g>
<!-- Node6&#45;&gt;Node7 -->
<g id="edge10_Node000006_Node000007" class="edge">
<title>Node6&#45;&gt;Node7</title>
<g id="a_edge10_Node000006_Node000007"><a xlink:title=" ">
<path fill="none" stroke="#63b8ff" d="M639.83,-483.95C651.57,-483.95 663.59,-483.95 675.43,-483.95"/>
<polygon fill="#63b8ff" stroke="#63b8ff" points="675.78,-487.45 685.78,-483.95 675.78,-480.45 675.78,-487.45"/>
</a>
</g>
</g>
<!-- Node8 -->
<g id="Node000008" class="node">
<title>Node8</title>
<g id="a_Node000008"><a xlink:href="classcom_1_1example_1_1mybookshelf_1_1BookRecommendationFlow.html#a276e931dabe3e85af257a9d16ce7cc67" target="_top" xlink:title=" ">
<polygon fill="white" stroke="#666666" points="1604,-577.45 1401,-577.45 1401,-536.45 1604,-536.45 1604,-577.45"/>
<text text-anchor="start" x="1409" y="-565.45" font-family="Helvetica,sans-Serif" font-size="10.00">com.example.mybookshelf.</text>
<text text-anchor="start" x="1409" y="-554.45" font-family="Helvetica,sans-Serif" font-size="10.00">BookRecommendationFlow.showBook</text>
<text text-anchor="middle" x="1502.5" y="-543.45" font-family="Helvetica,sans-Serif" font-size="10.00">BasedStep1</text>
</a>
</g>
</g>
<!-- Node7&#45;&gt;Node8 -->
<g id="edge11_Node000007_Node000008" class="edge">
<title>Node7&#45;&gt;Node8</title>
<g id="a_edge11_Node000007_Node000008"><a xlink:title=" ">
<path fill="none" stroke="#63b8ff" d="M882,-493.84C1014.41,-507.33 1251.14,-531.45 1390.48,-545.64"/>
<polygon fill="#63b8ff" stroke="#63b8ff" points="1390.45,-549.16 1400.76,-546.69 1391.16,-542.19 1390.45,-549.16"/>
</a>
</g>
</g>
<!-- Node12 -->
<g id="Node000012" class="node">
<title>Node12</title>
<g id="a_Node000012"><a xlink:href="classcom_1_1example_1_1mybookshelf_1_1BookRecommendationFlow.html#a4c7dc337216592f7f214f69ce7009d37" target="_top" xlink:title=" ">
<polygon fill="white" stroke="#666666" points="1123,-445.45 918,-445.45 918,-404.45 1123,-404.45 1123,-445.45"/>
<text text-anchor="start" x="926" y="-433.45" font-family="Helvetica,sans-Serif" font-size="10.00">com.example.mybookshelf.</text>
<text text-anchor="start" x="926" y="-422.45" font-family="Helvetica,sans-Serif" font-size="10.00">BookRecommendationFlow.showFresh</text>
<text text-anchor="middle" x="1020.5" y="-411.45" font-family="Helvetica,sans-Serif" font-size="10.00">StartStep1</text>
</a>
</g>
</g>
<!-- Node7&#45;&gt;Node12 -->
<g id="edge22_Node000007_Node000012" class="edge">
<title>Node7&#45;&gt;Node12</title>
<g id="a_edge22_Node000007_Node000012"><a xlink:title=" ">
<path fill="none" stroke="#63b8ff" d="M844.78,-468.91C870.03,-462.56 900,-455.02 927.93,-447.99"/>
<polygon fill="#63b8ff" stroke="#63b8ff" points="928.87,-451.37 937.71,-445.53 927.16,-444.58 928.87,-451.37"/>
</a>
</g>
</g>
<!-- Node8&#45;&gt;Node3 -->
<g id="edge12_Node000008_Node000003" class="edge">
<title>Node8&#45;&gt;Node3</title>
<g id="a_edge12_Node000008_Node000003"><a xlink:title=" ">
<path fill="none" stroke="#63b8ff" d="M1547.75,-536.32C1646.13,-490.09 1889.89,-373.55 2087,-262.95 2118.6,-245.22 2153.38,-223.52 2179.3,-206.9"/>
<polygon fill="#63b8ff" stroke="#63b8ff" points="2181.22,-209.83 2187.74,-201.47 2177.43,-203.94 2181.22,-209.83"/>
</a>
</g>
</g>
<!-- Node8&#45;&gt;Node4 -->
<g id="edge13_Node000008_Node000004" class="edge">
<title>Node8&#45;&gt;Node4</title>
<g id="a_edge13_Node000008_Node000004"><a xlink:title=" ">
<path fill="none" stroke="#63b8ff" d="M1557.51,-577.51C1582.51,-585.96 1612.86,-594.75 1641,-598.95 1837.17,-628.25 1897.34,-641.04 2087,-582.95 2122.55,-572.06 2158.74,-550.02 2184.22,-532.3"/>
<polygon fill="#63b8ff" stroke="#63b8ff" points="2186.29,-535.11 2192.43,-526.47 2182.24,-529.4 2186.29,-535.11"/>
</a>
</g>
</g>
<!-- Node9 -->
<g id="Node000009" class="node">
<title>Node9</title>
<g id="a_Node000009"><a xlink:href="classcom_1_1example_1_1mybookshelf_1_1BookRecommendationFlow.html#a5c657be258c13c85848c7b7115f8a0b5" target="_top" xlink:title=" ">
<polygon fill="white" stroke="#666666" points="1845,-589.45 1642,-589.45 1642,-548.45 1845,-548.45 1845,-589.45"/>
<text text-anchor="start" x="1650" y="-577.45" font-family="Helvetica,sans-Serif" font-size="10.00">com.example.mybookshelf.</text>
<text text-anchor="start" x="1650" y="-566.45" font-family="Helvetica,sans-Serif" font-size="10.00">BookRecommendationFlow.showBook</text>
<text text-anchor="middle" x="1743.5" y="-555.45" font-family="Helvetica,sans-Serif" font-size="10.00">BasedStep2</text>
</a>
</g>
</g>
<!-- Node8&#45;&gt;Node9 -->
<g id="edge14_Node000008_Node000009" class="edge">
<title>Node8&#45;&gt;Node9</title>
<g id="a_edge14_Node000008_Node000009"><a xlink:title=" ">
<path fill="none" stroke="#63b8ff" d="M1604.16,-562.01C1613.35,-562.47 1622.68,-562.94 1631.94,-563.4"/>
<polygon fill="#63b8ff" stroke="#63b8ff" points="1631.79,-566.9 1641.95,-563.9 1632.14,-559.91 1631.79,-566.9"/>
</a>
</g>
</g>
<!-- Node9&#45;&gt;Node3 -->
<g id="edge15_Node000009_Node000003" class="edge">
<title>Node9&#45;&gt;Node3</title>
<g id="a_edge15_Node000009_Node000003"><a xlink:title=" ">
<path fill="none" stroke="#63b8ff" d="M1815.72,-548.43C1826.18,-544.28 1836.59,-539.46 1846,-533.95 1864.48,-523.14 1864.68,-514.53 1882,-501.95 1967.42,-439.92 2010.45,-454.66 2087,-381.95 2141.06,-330.61 2183.93,-253.08 2204.92,-210.89"/>
<polygon fill="#63b8ff" stroke="#63b8ff" points="2208.16,-212.22 2209.42,-201.7 2201.88,-209.14 2208.16,-212.22"/>
</a>
</g>
</g>
<!-- Node9&#45;&gt;Node4 -->
<g id="edge16_Node000009_Node000004" class="edge">
<title>Node9&#45;&gt;Node4</title>
<g id="a_edge16_Node000009_Node000004"><a xlink:title=" ">
<path fill="none" stroke="#63b8ff" d="M1845.29,-576.31C1914.13,-578.97 2007,-577.93 2087,-560.95 2116.07,-554.78 2146.82,-542.36 2171.32,-530.88"/>
<polygon fill="#63b8ff" stroke="#63b8ff" points="2172.87,-534.01 2180.38,-526.54 2169.85,-527.7 2172.87,-534.01"/>
</a>
</g>
</g>
<!-- Node10 -->
<g id="Node000010" class="node">
<title>Node10</title>
<g id="a_Node000010"><a xlink:href="classcom_1_1example_1_1mybookshelf_1_1BookRecommendationFlow.html#aa95301256c7f5377d1bc432189483b3c" target="_top" xlink:title=" ">
<polygon fill="white" stroke="#666666" points="2086,-551.45 1883,-551.45 1883,-510.45 2086,-510.45 2086,-551.45"/>
<text text-anchor="start" x="1891" y="-539.45" font-family="Helvetica,sans-Serif" font-size="10.00">com.example.mybookshelf.</text>
<text text-anchor="start" x="1891" y="-528.45" font-family="Helvetica,sans-Serif" font-size="10.00">BookRecommendationFlow.showBook</text>
<text text-anchor="middle" x="1984.5" y="-517.45" font-family="Helvetica,sans-Serif" font-size="10.00">BasedStep3</text>
</a>
</g>
</g>
<!-- Node9&#45;&gt;Node10 -->
<g id="edge17_Node000009_Node000010" class="edge">
<title>Node9&#45;&gt;Node10</title>
<g id="a_edge17_Node000009_Node000010"><a xlink:title=" ">
<path fill="none" stroke="#63b8ff" d="M1845.16,-552.95C1854.35,-551.49 1863.68,-550 1872.94,-548.53"/>
<polygon fill="#63b8ff" stroke="#63b8ff" points="1873.63,-551.97 1882.95,-546.94 1872.53,-545.05 1873.63,-551.97"/>
</a>
</g>
</g>
<!-- Node10&#45;&gt;Node3 -->
<g id="edge18_Node000010_Node000003" class="edge">
<title>Node10&#45;&gt;Node3</title>
<g id="a_edge18_Node000010_Node000003"><a xlink:title=" ">
<path fill="none" stroke="#63b8ff" d="M2007.34,-510.15C2029.08,-488.77 2062.63,-453.89 2087,-419.95 2137.58,-349.49 2183.3,-257.65 2205.26,-210.99"/>
<polygon fill="#63b8ff" stroke="#63b8ff" points="2208.51,-212.29 2209.58,-201.75 2202.17,-209.33 2208.51,-212.29"/>
</a>
</g>
</g>
<!-- Node10&#45;&gt;Node4 -->
<g id="edge21_Node000010_Node000004" class="edge">
<title>Node10&#45;&gt;Node4</title>
<g id="a_edge21_Node000010_Node000004"><a xlink:title=" ">
<path fill="none" stroke="#63b8ff" d="M2086.22,-520.17C2096.7,-519.05 2107.35,-517.91 2117.83,-516.78"/>
<polygon fill="#63b8ff" stroke="#63b8ff" points="2118.24,-520.26 2127.81,-515.72 2117.5,-513.3 2118.24,-520.26"/>
</a>
</g>
</g>
<!-- Node11 -->
<g id="Node000011" class="node">
<title>Node11</title>
<g id="a_Node000011"><a xlink:href="classcom_1_1example_1_1mybookshelf_1_1BookRecommendationFlow.html#a78dda71d2c403a463d824ff61b2ce27f" target="_top" xlink:title=" ">
<polygon fill="white" stroke="#666666" points="2308.5,-680.45 2131.5,-680.45 2131.5,-639.45 2308.5,-639.45 2308.5,-680.45"/>
<text text-anchor="start" x="2139.5" y="-668.45" font-family="Helvetica,sans-Serif" font-size="10.00">com.example.mybookshelf.</text>
<text text-anchor="start" x="2139.5" y="-657.45" font-family="Helvetica,sans-Serif" font-size="10.00">BookRecommendationFlow.build</text>
<text text-anchor="middle" x="2220" y="-646.45" font-family="Helvetica,sans-Serif" font-size="10.00">AIStringBased</text>
</a>
</g>
</g>
<!-- Node10&#45;&gt;Node11 -->
<g id="edge19_Node000010_Node000011" class="edge">
<title>Node10&#45;&gt;Node11</title>
<g id="a_edge19_Node000010_Node000011"><a xlink:title=" ">
<path fill="none" stroke="#63b8ff" d="M2022.76,-551.54C2063.59,-574.1 2129.14,-610.31 2173.11,-634.6"/>
<polygon fill="#63b8ff" stroke="#63b8ff" points="2171.43,-637.67 2181.88,-639.44 2174.82,-631.54 2171.43,-637.67"/>
</a>
</g>
</g>
<!-- Node11&#45;&gt;Node2 -->
<g id="edge20_Node000011_Node000002" class="edge">
<title>Node11&#45;&gt;Node2</title>
<g id="a_edge20_Node000011_Node000002"><a xlink:title=" ">
<path fill="none" stroke="#63b8ff" d="M2135.16,-680.49C2040.79,-701.77 1882.61,-731.95 1744.5,-731.95 783,-731.95 783,-731.95 783,-731.95 616.73,-731.95 556.65,-717.49 429,-610.95 364.54,-557.16 326.66,-461.07 311.6,-415.82"/>
<polygon fill="#63b8ff" stroke="#63b8ff" points="314.9,-414.65 308.49,-406.22 308.24,-416.81 314.9,-414.65"/>
</a>
</g>
</g>
<!-- Node12&#45;&gt;Node3 -->
<g id="edge23_Node000012_Node000003" class="edge">
<title>Node12&#45;&gt;Node3</title>
<g id="a_edge23_Node000012_Node000003"><a xlink:title=" ">
<path fill="none" stroke="#63b8ff" d="M1044.65,-404.42C1100.86,-355.9 1250.92,-234.24 1400,-180.95 1687.81,-78.08 1783.39,-114.78 2087,-149.95 2102.69,-151.77 2119.21,-154.76 2135.07,-158.19"/>
<polygon fill="#63b8ff" stroke="#63b8ff" points="2134.31,-161.61 2144.84,-160.38 2135.84,-154.78 2134.31,-161.61"/>
</a>
</g>
</g>
<!-- Node12&#45;&gt;Node4 -->
<g id="edge24_Node000012_Node000004" class="edge">
<title>Node12&#45;&gt;Node4</title>
<g id="a_edge24_Node000012_Node000004"><a xlink:title=" ">
<path fill="none" stroke="#63b8ff" d="M1123.15,-444.09C1220.02,-460.65 1370.17,-481.95 1501.5,-481.95 1501.5,-481.95 1501.5,-481.95 1744.5,-481.95 1873.36,-481.95 2021.65,-490.89 2117.67,-497.86"/>
<polygon fill="#63b8ff" stroke="#63b8ff" points="2117.43,-501.35 2127.66,-498.59 2117.94,-494.37 2117.43,-501.35"/>
</a>
</g>
</g>
<!-- Node13 -->
<g id="Node000013" class="node">
<title>Node13</title>
<g id="a_Node000013"><a xlink:href="classcom_1_1example_1_1mybookshelf_1_1BookRecommendationFlow.html#aaf567ca97b0d7f0c58ebba4d6f4b18bd" target="_top" xlink:title=" ">
<polygon fill="white" stroke="#666666" points="1364,-382.45 1159,-382.45 1159,-341.45 1364,-341.45 1364,-382.45"/>
<text text-anchor="start" x="1167" y="-370.45" font-family="Helvetica,sans-Serif" font-size="10.00">com.example.mybookshelf.</text>
<text text-anchor="start" x="1167" y="-359.45" font-family="Helvetica,sans-Serif" font-size="10.00">BookRecommendationFlow.showFresh</text>
<text text-anchor="middle" x="1261.5" y="-348.45" font-family="Helvetica,sans-Serif" font-size="10.00">StartStep2</text>
</a>
</g>
</g>
<!-- Node12&#45;&gt;Node13 -->
<g id="edge25_Node000012_Node000013" class="edge">
<title>Node12&#45;&gt;Node13</title>
<g id="a_edge25_Node000012_Node000013"><a xlink:title=" ">
<path fill="none" stroke="#63b8ff" d="M1099.43,-404.41C1122.89,-398.23 1148.8,-391.4 1172.85,-385.06"/>
<polygon fill="#63b8ff" stroke="#63b8ff" points="1173.9,-388.4 1182.68,-382.47 1172.12,-381.63 1173.9,-388.4"/>
</a>
</g>
</g>
<!-- Node13&#45;&gt;Node3 -->
<g id="edge26_Node000013_Node000003" class="edge">
<title>Node13&#45;&gt;Node3</title>
<g id="a_edge26_Node000013_Node000003"><a xlink:title=" ">
<path fill="none" stroke="#63b8ff" d="M1289.31,-341.4C1316.25,-321.39 1359.47,-291 1400,-269.95 1501.89,-217.04 1528.64,-200.54 1641,-176.95 1802.87,-142.97 1995.9,-154.4 2112.86,-166.86"/>
<polygon fill="#63b8ff" stroke="#63b8ff" points="2112.58,-170.35 2122.9,-167.95 2113.33,-163.39 2112.58,-170.35"/>
</a>
</g>
</g>
<!-- Node13&#45;&gt;Node4 -->
<g id="edge27_Node000013_Node000004" class="edge">
<title>Node13&#45;&gt;Node4</title>
<g id="a_edge27_Node000013_Node000004"><a xlink:title=" ">
<path fill="none" stroke="#63b8ff" d="M1364.23,-370C1520.72,-383.52 1829.43,-414.65 2087,-467.95 2106.09,-471.9 2126.45,-477.21 2145.32,-482.59"/>
<polygon fill="#63b8ff" stroke="#63b8ff" points="2144.46,-485.99 2155.04,-485.41 2146.41,-479.27 2144.46,-485.99"/>
</a>
</g>
</g>
<!-- Node14 -->
<g id="Node000014" class="node">
<title>Node14</title>
<g id="a_Node000014"><a xlink:href="classcom_1_1example_1_1mybookshelf_1_1BookRecommendationFlow.html#a2bc1c0125eb3c1fe64ed1ed3ee93d3eb" target="_top" xlink:title=" ">
<polygon fill="white" stroke="#666666" points="1605,-319.45 1400,-319.45 1400,-278.45 1605,-278.45 1605,-319.45"/>
<text text-anchor="start" x="1408" y="-307.45" font-family="Helvetica,sans-Serif" font-size="10.00">com.example.mybookshelf.</text>
<text text-anchor="start" x="1408" y="-296.45" font-family="Helvetica,sans-Serif" font-size="10.00">BookRecommendationFlow.showFresh</text>
<text text-anchor="middle" x="1502.5" y="-285.45" font-family="Helvetica,sans-Serif" font-size="10.00">StartStep3</text>
</a>
</g>
</g>
<!-- Node13&#45;&gt;Node14 -->
<g id="edge28_Node000013_Node000014" class="edge">
<title>Node13&#45;&gt;Node14</title>
<g id="a_edge28_Node000013_Node000014"><a xlink:title=" ">
<path fill="none" stroke="#63b8ff" d="M1340.43,-341.41C1363.89,-335.23 1389.8,-328.4 1413.85,-322.06"/>
<polygon fill="#63b8ff" stroke="#63b8ff" points="1414.9,-325.4 1423.68,-319.47 1413.12,-318.63 1414.9,-325.4"/>
</a>
</g>
</g>
<!-- Node14&#45;&gt;Node3 -->
<g id="edge29_Node000014_Node000003" class="edge">
<title>Node14&#45;&gt;Node3</title>
<g id="a_edge29_Node000014_Node000003"><a xlink:title=" ">
<path fill="none" stroke="#63b8ff" d="M1545.86,-278.42C1572.7,-265.93 1608.39,-250.25 1641,-238.95 1745.61,-202.7 1772.19,-190.07 1882,-175.95 1972.37,-164.34 1995.91,-174.23 2087,-175.95 2095.32,-176.11 2103.94,-176.32 2112.6,-176.57"/>
<polygon fill="#63b8ff" stroke="#63b8ff" points="2112.67,-180.08 2122.77,-176.88 2112.88,-173.08 2112.67,-180.08"/>
</a>
</g>
</g>
<!-- Node14&#45;&gt;Node4 -->
<g id="edge30_Node000014_Node000004" class="edge">
<title>Node14&#45;&gt;Node4</title>
<g id="a_edge30_Node000014_Node000004"><a xlink:title=" ">
<path fill="none" stroke="#63b8ff" d="M1605.07,-312.26C1723.68,-329.94 1924.36,-366.57 2087,-429.95 2120.28,-442.92 2155.19,-463.36 2180.74,-479.78"/>
<polygon fill="#63b8ff" stroke="#63b8ff" points="2179.08,-482.88 2189.37,-485.4 2182.9,-477.01 2179.08,-482.88"/>
</a>
</g>
</g>
<!-- Node15 -->
<g id="Node000015" class="node">
<title>Node15</title>
<g id="a_Node000015"><a xlink:href="classcom_1_1example_1_1mybookshelf_1_1BookRecommendationFlow.html#ad10515cfcf8650b6830b68f15d393b3b" target="_top" xlink:title=" ">
<polygon fill="white" stroke="#666666" points="1846,-288.45 1641,-288.45 1641,-247.45 1846,-247.45 1846,-288.45"/>
<text text-anchor="start" x="1649" y="-276.45" font-family="Helvetica,sans-Serif" font-size="10.00">com.example.mybookshelf.</text>
<text text-anchor="start" x="1649" y="-265.45" font-family="Helvetica,sans-Serif" font-size="10.00">BookRecommendationFlow.showFresh</text>
<text text-anchor="middle" x="1743.5" y="-254.45" font-family="Helvetica,sans-Serif" font-size="10.00">StartStep4</text>
</a>
</g>
</g>
<!-- Node14&#45;&gt;Node15 -->
<g id="edge31_Node000014_Node000015" class="edge">
<title>Node14&#45;&gt;Node15</title>
<g id="a_edge31_Node000014_Node000015"><a xlink:title=" ">
<path fill="none" stroke="#63b8ff" d="M1605.2,-285.76C1613.7,-284.66 1622.31,-283.54 1630.87,-282.43"/>
<polygon fill="#63b8ff" stroke="#63b8ff" points="1631.42,-285.89 1640.89,-281.13 1630.52,-278.95 1631.42,-285.89"/>
</a>
</g>
</g>
<!-- Node15&#45;&gt;Node3 -->
<g id="edge32_Node000015_Node000003" class="edge">
<title>Node15&#45;&gt;Node3</title>
<g id="a_edge32_Node000015_Node000003"><a xlink:title=" ">
<path fill="none" stroke="#63b8ff" d="M1846.21,-265.91C1915.05,-262.65 2007.55,-254.58 2087,-234.95 2114.69,-228.11 2144.19,-216.49 2168.27,-205.78"/>
<polygon fill="#63b8ff" stroke="#63b8ff" points="2169.88,-208.89 2177.55,-201.57 2167,-202.51 2169.88,-208.89"/>
</a>
</g>
</g>
<!-- Node15&#45;&gt;Node4 -->
<g id="edge33_Node000015_Node000004" class="edge">
<title>Node15&#45;&gt;Node4</title>
<g id="a_edge33_Node000015_Node000004"><a xlink:title=" ">
<path fill="none" stroke="#63b8ff" d="M1846.37,-273.26C1932.43,-279.36 2047.75,-291.81 2087,-315.95 2148.73,-353.92 2189.02,-432.76 2207.42,-475.99"/>
<polygon fill="#63b8ff" stroke="#63b8ff" points="2204.27,-477.51 2211.33,-485.41 2210.73,-474.83 2204.27,-477.51"/>
</a>
</g>
</g>
<!-- Node16 -->
<g id="Node000016" class="node">
<title>Node16</title>
<g id="a_Node000016"><a xlink:href="classcom_1_1example_1_1mybookshelf_1_1BookRecommendationFlow.html#a46c6733f27b3527d3934cee02cfcd7ac" target="_top" xlink:title=" ">
<polygon fill="white" stroke="#666666" points="2087,-225.45 1882,-225.45 1882,-184.45 2087,-184.45 2087,-225.45"/>
<text text-anchor="start" x="1890" y="-213.45" font-family="Helvetica,sans-Serif" font-size="10.00">com.example.mybookshelf.</text>
<text text-anchor="start" x="1890" y="-202.45" font-family="Helvetica,sans-Serif" font-size="10.00">BookRecommendationFlow.showFresh</text>
<text text-anchor="middle" x="1984.5" y="-191.45" font-family="Helvetica,sans-Serif" font-size="10.00">StartStep5</text>
</a>
</g>
</g>
<!-- Node15&#45;&gt;Node16 -->
<g id="edge34_Node000015_Node000016" class="edge">
<title>Node15&#45;&gt;Node16</title>
<g id="a_edge34_Node000015_Node000016"><a xlink:title=" ">
<path fill="none" stroke="#63b8ff" d="M1822.43,-247.41C1845.89,-241.23 1871.8,-234.4 1895.85,-228.06"/>
<polygon fill="#63b8ff" stroke="#63b8ff" points="1896.9,-231.4 1905.68,-225.47 1895.12,-224.63 1896.9,-231.4"/>
</a>
</g>
</g>
<!-- Node16&#45;&gt;Node1 -->
<g id="edge36_Node000016_Node000001" class="edge">
<title>Node16&#45;&gt;Node1</title>
<g id="a_edge36_Node000016_Node000001"><a xlink:title=" ">
<path fill="none" stroke="#63b8ff" d="M1881.96,-203.45C1551.91,-198.57 512.1,-183.2 187.38,-178.4"/>
<polygon fill="#63b8ff" stroke="#63b8ff" points="187.1,-174.9 177.05,-178.25 187,-181.89 187.1,-174.9"/>
</a>
</g>
</g>
<!-- Node16&#45;&gt;Node3 -->
<g id="edge35_Node000016_Node000003" class="edge">
<title>Node16&#45;&gt;Node3</title>
<g id="a_edge35_Node000016_Node000003"><a xlink:title=" ">
<path fill="none" stroke="#63b8ff" d="M2087.24,-194.5C2095.62,-193.63 2104.12,-192.76 2112.54,-191.9"/>
<polygon fill="#63b8ff" stroke="#63b8ff" points="2113.17,-195.35 2122.76,-190.84 2112.46,-188.39 2113.17,-195.35"/>
</a>
</g>
</g>
<!-- Node16&#45;&gt;Node4 -->
<g id="edge37_Node000016_Node000004" class="edge">
<title>Node16&#45;&gt;Node4</title>
<g id="a_edge37_Node000016_Node000004"><a xlink:title=" ">
<path fill="none" stroke="#63b8ff" d="M2021.78,-225.7C2042.58,-238.83 2068.2,-257.2 2087,-277.95 2143.07,-339.85 2186.31,-429.45 2206.5,-475.74"/>
<polygon fill="#63b8ff" stroke="#63b8ff" points="2203.4,-477.39 2210.56,-485.2 2209.83,-474.63 2203.4,-477.39"/>
</a>
</g>
</g>
</g>
</svg>
