<?xml version="1.0" encoding="UTF-8" standalone="no"?>
<!DOCTYPE svg PUBLIC "-//W3C//DTD SVG 1.1//EN"
 "http://www.w3.org/Graphics/SVG/1.1/DTD/svg11.dtd">
<!-- Generated by graphviz version 2.43.0 (0)
 -->
<!-- Title: com.example.mybookshelf.dataClass.Book.getId Pages: 1 -->
<svg width="942pt" height="294pt"
 viewBox="0.00 0.00 942.00 293.55" xmlns="http://www.w3.org/2000/svg" xmlns:xlink="http://www.w3.org/1999/xlink">
<g id="graph0" class="graph" transform="scale(1 1) rotate(0) translate(4 289.55)">
<title>com.example.mybookshelf.dataClass.Book.getId</title>
<!-- Node1 -->
<g id="Node000001" class="node">
<title>Node1</title>
<g id="a_Node000001"><a xlink:title=" ">
<polygon fill="#999999" stroke="#666666" points="934,-172.5 760,-172.5 760,-142.5 934,-142.5 934,-172.5"/>
<text text-anchor="start" x="768" y="-160.5" font-family="Helvetica,sans-Serif" font-size="10.00">com.example.mybookshelf.data</text>
<text text-anchor="middle" x="847" y="-149.5" font-family="Helvetica,sans-Serif" font-size="10.00">Class.Book.getId</text>
</a>
</g>
</g>
<!-- Node2 -->
<g id="Node000002" class="node">
<title>Node2</title>
<g id="a_Node000002"><a xlink:href="classcom_1_1example_1_1mybookshelf_1_1LayoutManager_1_1CostumeListAdapter.html#aecf267c9d5fc023c90187a13bc4ebe2e" target="_top" xlink:title=" ">
<polygon fill="white" stroke="#666666" points="461,-256 244,-256 244,-215 461,-215 461,-256"/>
<text text-anchor="start" x="252" y="-244" font-family="Helvetica,sans-Serif" font-size="10.00">com.example.mybookshelf.</text>
<text text-anchor="start" x="252" y="-233" font-family="Helvetica,sans-Serif" font-size="10.00">LayoutManager.CostumeListAdapter.bind</text>
<text text-anchor="middle" x="352.5" y="-222" font-family="Helvetica,sans-Serif" font-size="10.00">BookData</text>
</a>
</g>
</g>
<!-- Node1&#45;&gt;Node2 -->
<g id="edge1_Node000001_Node000002" class="edge">
<title>Node1&#45;&gt;Node2</title>
<g id="a_edge1_Node000001_Node000002"><a xlink:title=" ">
<path fill="none" stroke="#63b8ff" d="M828.7,-180.69C807.43,-207.05 768.63,-248.58 724,-265.5 620.66,-304.67 489.78,-278.01 414.45,-256.07"/>
<polygon fill="#63b8ff" stroke="#63b8ff" points="831.54,-182.75 834.97,-172.72 826.03,-178.42 831.54,-182.75"/>
</a>
</g>
</g>
<!-- Node4 -->
<g id="Node000004" class="node">
<title>Node4</title>
<g id="a_Node000004"><a xlink:href="classcom_1_1example_1_1mybookshelf_1_1UIMaster.html#a1533d0ed2384f2ec729cfcec7bd9a25f" target="_top" xlink:title=" ">
<polygon fill="white" stroke="#666666" points="686.5,-256.5 534.5,-256.5 534.5,-226.5 686.5,-226.5 686.5,-256.5"/>
<text text-anchor="start" x="542.5" y="-244.5" font-family="Helvetica,sans-Serif" font-size="10.00">com.example.mybookshelf.</text>
<text text-anchor="middle" x="610.5" y="-233.5" font-family="Helvetica,sans-Serif" font-size="10.00">UIMaster.createBookBox</text>
</a>
</g>
</g>
<!-- Node1&#45;&gt;Node4 -->
<g id="edge3_Node000001_Node000004" class="edge">
<title>Node1&#45;&gt;Node4</title>
<g id="a_edge3_Node000001_Node000004"><a xlink:title=" ">
<path fill="none" stroke="#63b8ff" d="M811.14,-177.52C787.27,-190.51 754.52,-206.92 724,-217.5 712.11,-221.62 699.26,-225.17 686.64,-228.17"/>
<polygon fill="#63b8ff" stroke="#63b8ff" points="813.09,-180.45 820.16,-172.55 809.71,-174.32 813.09,-180.45"/>
</a>
</g>
</g>
<!-- Node5 -->
<g id="Node000005" class="node">
<title>Node5</title>
<g id="a_Node000005"><a xlink:href="classcom_1_1example_1_1mybookshelf_1_1LayoutManager_1_1CostumeListAdapter.html#a73afe4df78d60ab38b9b7d8b9e804d05" target="_top" xlink:title=" ">
<polygon fill="white" stroke="#666666" points="724,-208 497,-208 497,-167 724,-167 724,-208"/>
<text text-anchor="start" x="505" y="-196" font-family="Helvetica,sans-Serif" font-size="10.00">com.example.mybookshelf.</text>
<text text-anchor="start" x="505" y="-185" font-family="Helvetica,sans-Serif" font-size="10.00">LayoutManager.CostumeListAdapter.create</text>
<text text-anchor="middle" x="610.5" y="-174" font-family="Helvetica,sans-Serif" font-size="10.00">TextWatcher</text>
</a>
</g>
</g>
<!-- Node1&#45;&gt;Node5 -->
<g id="edge4_Node000001_Node000005" class="edge">
<title>Node1&#45;&gt;Node5</title>
<g id="a_edge4_Node000001_Node000005"><a xlink:title=" ">
<path fill="none" stroke="#63b8ff" d="M749.5,-169.84C741.09,-170.92 732.53,-172.02 724,-173.11"/>
<polygon fill="#63b8ff" stroke="#63b8ff" points="750.2,-173.28 759.68,-168.54 749.32,-166.34 750.2,-173.28"/>
</a>
</g>
</g>
<!-- Node6 -->
<g id="Node000006" class="node">
<title>Node6</title>
<g id="a_Node000006"><a xlink:href="classcom_1_1example_1_1mybookshelf_1_1DataBaseConnection.html#a6bfa78cc6e4957456c3c0a7d6d5281dc" target="_top" xlink:title=" ">
<polygon fill="white" stroke="#666666" points="695,-149 526,-149 526,-108 695,-108 695,-149"/>
<text text-anchor="start" x="534" y="-137" font-family="Helvetica,sans-Serif" font-size="10.00">com.example.mybookshelf.</text>
<text text-anchor="start" x="534" y="-126" font-family="Helvetica,sans-Serif" font-size="10.00">DataBaseConnection.getRating</text>
<text text-anchor="middle" x="610.5" y="-115" font-family="Helvetica,sans-Serif" font-size="10.00">FromBook</text>
</a>
</g>
</g>
<!-- Node1&#45;&gt;Node6 -->
<g id="edge6_Node000001_Node000006" class="edge">
<title>Node1&#45;&gt;Node6</title>
<g id="a_edge6_Node000001_Node000006"><a xlink:title=" ">
<path fill="none" stroke="#63b8ff" d="M749.73,-145.59C731.68,-143.36 712.93,-141.04 695.29,-138.86"/>
<polygon fill="#63b8ff" stroke="#63b8ff" points="749.33,-149.07 759.68,-146.83 750.19,-142.12 749.33,-149.07"/>
</a>
</g>
</g>
<!-- Node7 -->
<g id="Node000007" class="node">
<title>Node7</title>
<g id="a_Node000007"><a xlink:href="classcom_1_1example_1_1mybookshelf_1_1MainActivity.html#a50ffabe98d3e06a1168741e025b21b58" target="_top" xlink:title=" ">
<polygon fill="white" stroke="#666666" points="697.5,-89.5 523.5,-89.5 523.5,-59.5 697.5,-59.5 697.5,-89.5"/>
<text text-anchor="start" x="531.5" y="-77.5" font-family="Helvetica,sans-Serif" font-size="10.00">com.example.mybookshelf.</text>
<text text-anchor="middle" x="610.5" y="-66.5" font-family="Helvetica,sans-Serif" font-size="10.00">MainActivity.handleBookChange</text>
</a>
</g>
</g>
<!-- Node1&#45;&gt;Node7 -->
<g id="edge7_Node000001_Node000007" class="edge">
<title>Node1&#45;&gt;Node7</title>
<g id="a_edge7_Node000001_Node000007"><a xlink:title=" ">
<path fill="none" stroke="#63b8ff" d="M809.63,-137.55C785.84,-125.18 753.76,-109.73 724,-99.5 713.12,-95.76 701.45,-92.44 689.9,-89.53"/>
<polygon fill="#63b8ff" stroke="#63b8ff" points="808.17,-140.74 818.65,-142.3 811.43,-134.54 808.17,-140.74"/>
</a>
</g>
</g>
<!-- Node8 -->
<g id="Node000008" class="node">
<title>Node8</title>
<g id="a_Node000008"><a xlink:href="classcom_1_1example_1_1mybookshelf_1_1DataBaseConnection.html#ab32626fd4493c33e19a7875ff500b2e6" target="_top" xlink:title=" ">
<polygon fill="white" stroke="#666666" points="702.5,-41 518.5,-41 518.5,0 702.5,0 702.5,-41"/>
<text text-anchor="start" x="526.5" y="-29" font-family="Helvetica,sans-Serif" font-size="10.00">com.example.mybookshelf.</text>
<text text-anchor="start" x="526.5" y="-18" font-family="Helvetica,sans-Serif" font-size="10.00">DataBaseConnection.removeBook</text>
<text text-anchor="middle" x="610.5" y="-7" font-family="Helvetica,sans-Serif" font-size="10.00">FromUser</text>
</a>
</g>
</g>
<!-- Node1&#45;&gt;Node8 -->
<g id="edge8_Node000001_Node000008" class="edge">
<title>Node1&#45;&gt;Node8</title>
<g id="a_edge8_Node000001_Node000008"><a xlink:title=" ">
<path fill="none" stroke="#63b8ff" d="M826.02,-134.59C803.56,-110.24 764.86,-72.31 724,-50.5 717.22,-46.88 709.98,-43.68 702.56,-40.84"/>
<polygon fill="#63b8ff" stroke="#63b8ff" points="823.68,-137.22 832.99,-142.28 828.87,-132.52 823.68,-137.22"/>
</a>
</g>
</g>
<!-- Node3 -->
<g id="Node000003" class="node">
<title>Node3</title>
<g id="a_Node000003"><a xlink:href="classcom_1_1example_1_1mybookshelf_1_1LayoutManager_1_1CostumeListAdapter.html#a6195566266811486050ad2962a7a161f" target="_top" xlink:title=" ">
<polygon fill="white" stroke="#666666" points="208,-256 0,-256 0,-215 208,-215 208,-256"/>
<text text-anchor="start" x="8" y="-244" font-family="Helvetica,sans-Serif" font-size="10.00">com.example.mybookshelf.</text>
<text text-anchor="start" x="8" y="-233" font-family="Helvetica,sans-Serif" font-size="10.00">LayoutManager.CostumeListAdapter.on</text>
<text text-anchor="middle" x="104" y="-222" font-family="Helvetica,sans-Serif" font-size="10.00">BindViewHolder</text>
</a>
</g>
</g>
<!-- Node2&#45;&gt;Node3 -->
<g id="edge2_Node000002_Node000003" class="edge">
<title>Node2&#45;&gt;Node3</title>
<g id="a_edge2_Node000002_Node000003"><a xlink:title=" ">
<path fill="none" stroke="#63b8ff" d="M233.48,-235.5C225.05,-235.5 216.58,-235.5 208.24,-235.5"/>
<polygon fill="#63b8ff" stroke="#63b8ff" points="233.74,-239 243.74,-235.5 233.74,-232 233.74,-239"/>
</a>
</g>
</g>
<!-- Node5&#45;&gt;Node2 -->
<g id="edge5_Node000005_Node000002" class="edge">
<title>Node5&#45;&gt;Node2</title>
<g id="a_edge5_Node000005_Node000002"><a xlink:title=" ">
<path fill="none" stroke="#63b8ff" d="M489.91,-209.92C480.38,-211.71 470.78,-213.51 461.33,-215.28"/>
<polygon fill="#63b8ff" stroke="#63b8ff" points="490.64,-213.35 499.82,-208.07 489.35,-206.47 490.64,-213.35"/>
</a>
</g>
</g>
</g>
</svg>
