<?xml version="1.0" encoding="UTF-8" standalone="no"?>
<!DOCTYPE svg PUBLIC "-//W3C//DTD SVG 1.1//EN"
 "http://www.w3.org/Graphics/SVG/1.1/DTD/svg11.dtd">
<!-- Generated by graphviz version 2.43.0 (0)
 -->
<!-- Title: com.example.mybookshelf.BookRecommendationFlow.showFreshStartStep1 Pages: 1 -->
<svg width="3042pt" height="799pt"
 viewBox="0.00 0.00 3042.00 798.93" xmlns="http://www.w3.org/2000/svg" xmlns:xlink="http://www.w3.org/1999/xlink">
<g id="graph0" class="graph" transform="scale(1 1) rotate(0) translate(4 794.93)">
<title>com.example.mybookshelf.BookRecommendationFlow.showFreshStartStep1</title>
<!-- Node1 -->
<g id="Node000001" class="node">
<title>Node1</title>
<g id="a_Node000001"><a xlink:title=" ">
<polygon fill="#999999" stroke="#666666" points="205,-738.43 0,-738.43 0,-697.43 205,-697.43 205,-738.43"/>
<text text-anchor="start" x="8" y="-726.43" font-family="Helvetica,sans-Serif" font-size="10.00">com.example.mybookshelf.</text>
<text text-anchor="start" x="8" y="-715.43" font-family="Helvetica,sans-Serif" font-size="10.00">BookRecommendationFlow.showFresh</text>
<text text-anchor="middle" x="102.5" y="-704.43" font-family="Helvetica,sans-Serif" font-size="10.00">StartStep1</text>
</a>
</g>
</g>
<!-- Node2 -->
<g id="Node000002" class="node">
<title>Node2</title>
<g id="a_Node000002"><a xlink:href="classcom_1_1example_1_1mybookshelf_1_1BookRecommendationFlow.html#a3855117e802e54923c308e0df6280c17" target="_top" xlink:title=" ">
<polygon fill="white" stroke="#666666" points="3034,-200.43 2840,-200.43 2840,-159.43 3034,-159.43 3034,-200.43"/>
<text text-anchor="start" x="2848" y="-188.43" font-family="Helvetica,sans-Serif" font-size="10.00">com.example.mybookshelf.</text>
<text text-anchor="start" x="2848" y="-177.43" font-family="Helvetica,sans-Serif" font-size="10.00">BookRecommendationFlow.addChat</text>
<text text-anchor="middle" x="2937" y="-166.43" font-family="Helvetica,sans-Serif" font-size="10.00">Message</text>
</a>
</g>
</g>
<!-- Node1&#45;&gt;Node2 -->
<g id="edge1_Node000001_Node000002" class="edge">
<title>Node1&#45;&gt;Node2</title>
<g id="a_edge1_Node000001_Node000002"><a xlink:title=" ">
<path fill="none" stroke="#63b8ff" d="M106.83,-697.09C126.85,-579.98 241.99,-8.93 583.5,-8.93 583.5,-8.93 583.5,-8.93 2464.5,-8.93 2616.06,-8.93 2667.7,25.35 2804,-40.93 2854.41,-65.44 2895.63,-117.87 2917.93,-150.87"/>
<polygon fill="#63b8ff" stroke="#63b8ff" points="2915.02,-152.81 2923.45,-159.22 2920.86,-148.95 2915.02,-152.81"/>
</a>
</g>
</g>
<!-- Node3 -->
<g id="Node000003" class="node">
<title>Node3</title>
<g id="a_Node000003"><a xlink:href="classcom_1_1example_1_1mybookshelf_1_1BookRecommendationFlow.html#a02b6d699653b58f244907bd10db53ab5" target="_top" xlink:title=" ">
<polygon fill="white" stroke="#666666" points="3029,-602.43 2845,-602.43 2845,-561.43 3029,-561.43 3029,-602.43"/>
<text text-anchor="start" x="2853" y="-590.43" font-family="Helvetica,sans-Serif" font-size="10.00">com.example.mybookshelf.</text>
<text text-anchor="start" x="2853" y="-579.43" font-family="Helvetica,sans-Serif" font-size="10.00">BookRecommendationFlow.create</text>
<text text-anchor="middle" x="2937" y="-568.43" font-family="Helvetica,sans-Serif" font-size="10.00">StyledGridButton</text>
</a>
</g>
</g>
<!-- Node1&#45;&gt;Node3 -->
<g id="edge2_Node000001_Node000003" class="edge">
<title>Node1&#45;&gt;Node3</title>
<g id="a_edge2_Node000001_Node000003"><a xlink:title=" ">
<path fill="none" stroke="#63b8ff" d="M169.07,-738.46C191.67,-744.89 217.27,-751.47 241,-755.93 391.38,-784.18 430.49,-790.93 583.5,-790.93 583.5,-790.93 583.5,-790.93 2464.5,-790.93 2619.94,-790.93 2667.62,-781.5 2804,-706.93 2848.61,-682.53 2889.35,-639.34 2913.42,-610.67"/>
<polygon fill="#63b8ff" stroke="#63b8ff" points="2916.39,-612.57 2920.05,-602.63 2910.99,-608.12 2916.39,-612.57"/>
</a>
</g>
</g>
<!-- Node4 -->
<g id="Node000004" class="node">
<title>Node4</title>
<g id="a_Node000004"><a xlink:href="classcom_1_1example_1_1mybookshelf_1_1BookRecommendationFlow.html#aaf567ca97b0d7f0c58ebba4d6f4b18bd" target="_top" xlink:title=" ">
<polygon fill="white" stroke="#666666" points="446,-695.43 241,-695.43 241,-654.43 446,-654.43 446,-695.43"/>
<text text-anchor="start" x="249" y="-683.43" font-family="Helvetica,sans-Serif" font-size="10.00">com.example.mybookshelf.</text>
<text text-anchor="start" x="249" y="-672.43" font-family="Helvetica,sans-Serif" font-size="10.00">BookRecommendationFlow.showFresh</text>
<text text-anchor="middle" x="343.5" y="-661.43" font-family="Helvetica,sans-Serif" font-size="10.00">StartStep2</text>
</a>
</g>
</g>
<!-- Node1&#45;&gt;Node4 -->
<g id="edge3_Node000001_Node000004" class="edge">
<title>Node1&#45;&gt;Node4</title>
<g id="a_edge3_Node000001_Node000004"><a xlink:title=" ">
<path fill="none" stroke="#63b8ff" d="M205.2,-699.63C213.7,-698.1 222.31,-696.55 230.87,-695.01"/>
<polygon fill="#63b8ff" stroke="#63b8ff" points="231.67,-698.42 240.89,-693.21 230.43,-691.53 231.67,-698.42"/>
</a>
</g>
</g>
<!-- Node4&#45;&gt;Node2 -->
<g id="edge4_Node000004_Node000002" class="edge">
<title>Node4&#45;&gt;Node2</title>
<g id="a_edge4_Node000004_Node000002"><a xlink:title=" ">
<path fill="none" stroke="#63b8ff" d="M349.16,-654.39C375.02,-546.16 511.28,-46.93 824.5,-46.93 824.5,-46.93 824.5,-46.93 2464.5,-46.93 2616.33,-46.93 2662.31,-30.35 2804,-84.93 2843.47,-100.13 2881.94,-130.06 2907.07,-152.29"/>
<polygon fill="#63b8ff" stroke="#63b8ff" points="2904.97,-155.11 2914.74,-159.2 2909.66,-149.91 2904.97,-155.11"/>
</a>
</g>
</g>
<!-- Node4&#45;&gt;Node3 -->
<g id="edge5_Node000004_Node000003" class="edge">
<title>Node4&#45;&gt;Node3</title>
<g id="a_edge5_Node000004_Node000003"><a xlink:title=" ">
<path fill="none" stroke="#63b8ff" d="M446.36,-688.36C543.38,-699.98 693.63,-714.93 824.5,-714.93 824.5,-714.93 824.5,-714.93 2464.5,-714.93 2616.71,-714.93 2661.54,-723.53 2804,-669.93 2841.68,-655.75 2879.37,-629.07 2904.77,-608.79"/>
<polygon fill="#63b8ff" stroke="#63b8ff" points="2907.01,-611.47 2912.57,-602.45 2902.6,-606.04 2907.01,-611.47"/>
</a>
</g>
</g>
<!-- Node5 -->
<g id="Node000005" class="node">
<title>Node5</title>
<g id="a_Node000005"><a xlink:href="classcom_1_1example_1_1mybookshelf_1_1BookRecommendationFlow.html#a2bc1c0125eb3c1fe64ed1ed3ee93d3eb" target="_top" xlink:title=" ">
<polygon fill="white" stroke="#666666" points="687,-667.43 482,-667.43 482,-626.43 687,-626.43 687,-667.43"/>
<text text-anchor="start" x="490" y="-655.43" font-family="Helvetica,sans-Serif" font-size="10.00">com.example.mybookshelf.</text>
<text text-anchor="start" x="490" y="-644.43" font-family="Helvetica,sans-Serif" font-size="10.00">BookRecommendationFlow.showFresh</text>
<text text-anchor="middle" x="584.5" y="-633.43" font-family="Helvetica,sans-Serif" font-size="10.00">StartStep3</text>
</a>
</g>
</g>
<!-- Node4&#45;&gt;Node5 -->
<g id="edge6_Node000004_Node000005" class="edge">
<title>Node4&#45;&gt;Node5</title>
<g id="a_edge6_Node000004_Node000005"><a xlink:title=" ">
<path fill="none" stroke="#63b8ff" d="M446.2,-663.01C454.7,-662.01 463.31,-661.01 471.87,-660"/>
<polygon fill="#63b8ff" stroke="#63b8ff" points="472.36,-663.47 481.89,-658.83 471.55,-656.52 472.36,-663.47"/>
</a>
</g>
</g>
<!-- Node5&#45;&gt;Node2 -->
<g id="edge7_Node000005_Node000002" class="edge">
<title>Node5&#45;&gt;Node2</title>
<g id="a_edge7_Node000005_Node000002"><a xlink:title=" ">
<path fill="none" stroke="#63b8ff" d="M591.57,-626.26C622.77,-524.86 774.87,-84.93 1065.5,-84.93 1065.5,-84.93 1065.5,-84.93 2464.5,-84.93 2616.54,-84.93 2656.78,-88.95 2804,-126.93 2831.02,-133.9 2859.91,-145.04 2883.75,-155.31"/>
<polygon fill="#63b8ff" stroke="#63b8ff" points="2882.39,-158.54 2892.96,-159.35 2885.2,-152.13 2882.39,-158.54"/>
</a>
</g>
</g>
<!-- Node5&#45;&gt;Node3 -->
<g id="edge8_Node000005_Node000003" class="edge">
<title>Node5&#45;&gt;Node3</title>
<g id="a_edge8_Node000005_Node000003"><a xlink:title=" ">
<path fill="none" stroke="#63b8ff" d="M687.45,-657C784.54,-665.71 934.83,-676.93 1065.5,-676.93 1065.5,-676.93 1065.5,-676.93 2464.5,-676.93 2616.49,-676.93 2656.9,-674.15 2804,-635.93 2831.4,-628.81 2860.65,-617.28 2884.64,-606.69"/>
<polygon fill="#63b8ff" stroke="#63b8ff" points="2886.2,-609.83 2893.89,-602.54 2883.34,-603.44 2886.2,-609.83"/>
</a>
</g>
</g>
<!-- Node6 -->
<g id="Node000006" class="node">
<title>Node6</title>
<g id="a_Node000006"><a xlink:href="classcom_1_1example_1_1mybookshelf_1_1BookRecommendationFlow.html#ad10515cfcf8650b6830b68f15d393b3b" target="_top" xlink:title=" ">
<polygon fill="white" stroke="#666666" points="928,-629.43 723,-629.43 723,-588.43 928,-588.43 928,-629.43"/>
<text text-anchor="start" x="731" y="-617.43" font-family="Helvetica,sans-Serif" font-size="10.00">com.example.mybookshelf.</text>
<text text-anchor="start" x="731" y="-606.43" font-family="Helvetica,sans-Serif" font-size="10.00">BookRecommendationFlow.showFresh</text>
<text text-anchor="middle" x="825.5" y="-595.43" font-family="Helvetica,sans-Serif" font-size="10.00">StartStep4</text>
</a>
</g>
</g>
<!-- Node5&#45;&gt;Node6 -->
<g id="edge9_Node000005_Node000006" class="edge">
<title>Node5&#45;&gt;Node6</title>
<g id="a_edge9_Node000005_Node000006"><a xlink:title=" ">
<path fill="none" stroke="#63b8ff" d="M687.2,-630.75C695.7,-629.4 704.31,-628.03 712.87,-626.67"/>
<polygon fill="#63b8ff" stroke="#63b8ff" points="713.56,-630.11 722.89,-625.08 712.46,-623.19 713.56,-630.11"/>
</a>
</g>
</g>
<!-- Node6&#45;&gt;Node2 -->
<g id="edge10_Node000006_Node000002" class="edge">
<title>Node6&#45;&gt;Node2</title>
<g id="a_edge10_Node000006_Node000002"><a xlink:title=" ">
<path fill="none" stroke="#63b8ff" d="M834.13,-588.35C869.9,-495.85 1030.36,-122.93 1292.5,-122.93 1292.5,-122.93 1292.5,-122.93 2464.5,-122.93 2590.72,-122.93 2734.59,-143.31 2829.86,-159.69"/>
<polygon fill="#63b8ff" stroke="#63b8ff" points="2829.34,-163.16 2839.79,-161.42 2830.53,-156.26 2829.34,-163.16"/>
</a>
</g>
</g>
<!-- Node6&#45;&gt;Node3 -->
<g id="edge11_Node000006_Node000003" class="edge">
<title>Node6&#45;&gt;Node3</title>
<g id="a_edge11_Node000006_Node000003"><a xlink:title=" ">
<path fill="none" stroke="#63b8ff" d="M928.19,-619.25C1022.52,-627.93 1166.84,-638.93 1292.5,-638.93 1292.5,-638.93 1292.5,-638.93 2464.5,-638.93 2615.98,-638.93 2654.11,-630.8 2804,-608.93 2814.09,-607.45 2824.56,-605.7 2835,-603.8"/>
<polygon fill="#63b8ff" stroke="#63b8ff" points="2835.8,-607.22 2844.99,-601.95 2834.52,-600.33 2835.8,-607.22"/>
</a>
</g>
</g>
<!-- Node7 -->
<g id="Node000007" class="node">
<title>Node7</title>
<g id="a_Node000007"><a xlink:href="classcom_1_1example_1_1mybookshelf_1_1BookRecommendationFlow.html#a46c6733f27b3527d3934cee02cfcd7ac" target="_top" xlink:title=" ">
<polygon fill="white" stroke="#666666" points="1169,-591.43 964,-591.43 964,-550.43 1169,-550.43 1169,-591.43"/>
<text text-anchor="start" x="972" y="-579.43" font-family="Helvetica,sans-Serif" font-size="10.00">com.example.mybookshelf.</text>
<text text-anchor="start" x="972" y="-568.43" font-family="Helvetica,sans-Serif" font-size="10.00">BookRecommendationFlow.showFresh</text>
<text text-anchor="middle" x="1066.5" y="-557.43" font-family="Helvetica,sans-Serif" font-size="10.00">StartStep5</text>
</a>
</g>
</g>
<!-- Node6&#45;&gt;Node7 -->
<g id="edge12_Node000006_Node000007" class="edge">
<title>Node6&#45;&gt;Node7</title>
<g id="a_edge12_Node000006_Node000007"><a xlink:title=" ">
<path fill="none" stroke="#63b8ff" d="M928.2,-592.75C936.7,-591.4 945.31,-590.03 953.87,-588.67"/>
<polygon fill="#63b8ff" stroke="#63b8ff" points="954.56,-592.11 963.89,-587.08 953.46,-585.19 954.56,-592.11"/>
</a>
</g>
</g>
<!-- Node7&#45;&gt;Node2 -->
<g id="edge13_Node000007_Node000002" class="edge">
<title>Node7&#45;&gt;Node2</title>
<g id="a_edge13_Node000007_Node000002"><a xlink:title=" ">
<path fill="none" stroke="#63b8ff" d="M1076.83,-550.31C1116.04,-467.17 1276.13,-160.93 1507,-160.93 1507,-160.93 1507,-160.93 2464.5,-160.93 2589.98,-160.93 2734.1,-167.73 2829.63,-173.19"/>
<polygon fill="#63b8ff" stroke="#63b8ff" points="2829.69,-176.7 2839.87,-173.78 2830.09,-169.71 2829.69,-176.7"/>
</a>
</g>
</g>
<!-- Node7&#45;&gt;Node3 -->
<g id="edge39_Node000007_Node000003" class="edge">
<title>Node7&#45;&gt;Node3</title>
<g id="a_edge39_Node000007_Node000003"><a xlink:title=" ">
<path fill="none" stroke="#63b8ff" d="M1169.05,-581.8C1258.04,-590.38 1390.94,-600.93 1507,-600.93 1507,-600.93 1507,-600.93 2464.5,-600.93 2592.16,-600.93 2739.1,-593.89 2834.55,-588.38"/>
<polygon fill="#63b8ff" stroke="#63b8ff" points="2834.99,-591.86 2844.77,-587.78 2834.59,-584.87 2834.99,-591.86"/>
</a>
</g>
</g>
<!-- Node8 -->
<g id="Node000008" class="node">
<title>Node8</title>
<g id="a_Node000008"><a xlink:href="classcom_1_1example_1_1mybookshelf_1_1BookRecommendationFlow.html#abe4c57ea57ed54c344739295e70066ff" target="_top" xlink:title=" ">
<polygon fill="white" stroke="#666666" points="1382,-477.43 1205,-477.43 1205,-436.43 1382,-436.43 1382,-477.43"/>
<text text-anchor="start" x="1213" y="-465.43" font-family="Helvetica,sans-Serif" font-size="10.00">com.example.mybookshelf.</text>
<text text-anchor="start" x="1213" y="-454.43" font-family="Helvetica,sans-Serif" font-size="10.00">BookRecommendationFlow.build</text>
<text text-anchor="middle" x="1293.5" y="-443.43" font-family="Helvetica,sans-Serif" font-size="10.00">AIStringFresh</text>
</a>
</g>
</g>
<!-- Node7&#45;&gt;Node8 -->
<g id="edge14_Node000007_Node000008" class="edge">
<title>Node7&#45;&gt;Node8</title>
<g id="a_edge14_Node000007_Node000008"><a xlink:title=" ">
<path fill="none" stroke="#63b8ff" d="M1107.99,-550.41C1145.78,-531.26 1202.29,-502.63 1242.8,-482.11"/>
<polygon fill="#63b8ff" stroke="#63b8ff" points="1244.62,-485.11 1251.96,-477.46 1241.46,-478.86 1244.62,-485.11"/>
</a>
</g>
</g>
<!-- Node9 -->
<g id="Node000009" class="node">
<title>Node9</title>
<g id="a_Node000009"><a xlink:href="classcom_1_1example_1_1mybookshelf_1_1BookRecommendationFlow.html#ae50cf18619872a365eebe91c18d86e8d" target="_top" xlink:title=" ">
<polygon fill="white" stroke="#666666" points="1598,-405.93 1418,-405.93 1418,-375.93 1598,-375.93 1598,-405.93"/>
<text text-anchor="start" x="1426" y="-393.93" font-family="Helvetica,sans-Serif" font-size="10.00">com.example.mybookshelf.</text>
<text text-anchor="middle" x="1508" y="-382.93" font-family="Helvetica,sans-Serif" font-size="10.00">BookRecommendationFlow.callAI</text>
</a>
</g>
</g>
<!-- Node8&#45;&gt;Node9 -->
<g id="edge15_Node000008_Node000009" class="edge">
<title>Node8&#45;&gt;Node9</title>
<g id="a_edge15_Node000008_Node000009"><a xlink:title=" ">
<path fill="none" stroke="#63b8ff" d="M1360.57,-436.4C1388.78,-427.64 1421.43,-417.5 1448.73,-409.02"/>
<polygon fill="#63b8ff" stroke="#63b8ff" points="1450.01,-412.29 1458.52,-405.98 1447.93,-405.61 1450.01,-412.29"/>
</a>
</g>
</g>
<!-- Node9&#45;&gt;Node2 -->
<g id="edge16_Node000009_Node000002" class="edge">
<title>Node9&#45;&gt;Node2</title>
<g id="a_edge16_Node000009_Node000002"><a xlink:title=" ">
<path fill="none" stroke="#63b8ff" d="M1514.57,-375.86C1528.45,-340.76 1568.29,-253.77 1634,-217.93 1772.32,-142.48 1830.44,-198.93 1988,-198.93 1988,-198.93 1988,-198.93 2464.5,-198.93 2589.98,-198.93 2734.1,-192.12 2829.63,-186.66"/>
<polygon fill="#63b8ff" stroke="#63b8ff" points="2830.09,-190.14 2839.87,-186.07 2829.69,-183.15 2830.09,-190.14"/>
</a>
</g>
</g>
<!-- Node9&#45;&gt;Node3 -->
<g id="edge18_Node000009_Node000003" class="edge">
<title>Node9&#45;&gt;Node3</title>
<g id="a_edge18_Node000009_Node000003"><a xlink:title=" ">
<path fill="none" stroke="#63b8ff" d="M1522.3,-406.08C1543.49,-429.18 1587.3,-472.83 1634,-494.93 1778.82,-563.43 1827.79,-562.93 1988,-562.93 1988,-562.93 1988,-562.93 2464.5,-562.93 2592.16,-562.93 2739.1,-569.96 2834.55,-575.47"/>
<polygon fill="#63b8ff" stroke="#63b8ff" points="2834.59,-578.98 2844.77,-576.07 2834.99,-571.99 2834.59,-578.98"/>
</a>
</g>
</g>
<!-- Node9&#45;&gt;Node9 -->
<g id="edge17_Node000009_Node000009" class="edge">
<title>Node9&#45;&gt;Node9</title>
<g id="a_edge17_Node000009_Node000009"><a xlink:title=" ">
<path fill="none" stroke="#63b8ff" d="M1470.38,-406.2C1462.02,-415.33 1474.56,-423.93 1508,-423.93 1527.85,-423.93 1540.34,-420.9 1545.46,-416.52"/>
<polygon fill="#63b8ff" stroke="#63b8ff" points="1548.96,-416.25 1545.62,-406.2 1541.96,-416.15 1548.96,-416.25"/>
</a>
</g>
</g>
<!-- Node10 -->
<g id="Node000010" class="node">
<title>Node10</title>
<g id="a_Node000010"><a xlink:href="classcom_1_1example_1_1mybookshelf_1_1apis_1_1AiAPI.html#a4a45b91f0717302661d9e35ed956c049" target="_top" xlink:title=" ">
<polygon fill="white" stroke="#666666" points="1832.5,-375.93 1656.5,-375.93 1656.5,-345.93 1832.5,-345.93 1832.5,-375.93"/>
<text text-anchor="start" x="1664.5" y="-363.93" font-family="Helvetica,sans-Serif" font-size="10.00">com.example.mybookshelf.apis.</text>
<text text-anchor="middle" x="1744.5" y="-352.93" font-family="Helvetica,sans-Serif" font-size="10.00">AiAPI.fetchResponse</text>
</a>
</g>
</g>
<!-- Node9&#45;&gt;Node10 -->
<g id="edge19_Node000009_Node000010" class="edge">
<title>Node9&#45;&gt;Node10</title>
<g id="a_edge19_Node000009_Node000010"><a xlink:title=" ">
<path fill="none" stroke="#63b8ff" d="M1598.32,-379.5C1613.93,-377.5 1630.24,-375.41 1646.05,-373.39"/>
<polygon fill="#63b8ff" stroke="#63b8ff" points="1646.89,-376.81 1656.36,-372.07 1646,-369.87 1646.89,-376.81"/>
</a>
</g>
</g>
<!-- Node11 -->
<g id="Node000011" class="node">
<title>Node11</title>
<g id="a_Node000011"><a xlink:href="classcom_1_1example_1_1mybookshelf_1_1BookRecommendationFlow.html#a4dceb0fa4d170b8c7e5a7a6718593dfe" target="_top" xlink:title=" ">
<polygon fill="white" stroke="#666666" points="1844.5,-485.93 1644.5,-485.93 1644.5,-455.93 1844.5,-455.93 1844.5,-485.93"/>
<text text-anchor="start" x="1652.5" y="-473.93" font-family="Helvetica,sans-Serif" font-size="10.00">com.example.mybookshelf.</text>
<text text-anchor="middle" x="1744.5" y="-462.93" font-family="Helvetica,sans-Serif" font-size="10.00">BookRecommendationFlow.handleNo</text>
</a>
</g>
</g>
<!-- Node9&#45;&gt;Node11 -->
<g id="edge21_Node000009_Node000011" class="edge">
<title>Node9&#45;&gt;Node11</title>
<g id="a_edge21_Node000009_Node000011"><a xlink:title=" ">
<path fill="none" stroke="#63b8ff" d="M1549.68,-405.99C1574.06,-414.92 1605.72,-426.32 1634,-435.93 1650.67,-441.59 1668.84,-447.5 1685.52,-452.82"/>
<polygon fill="#63b8ff" stroke="#63b8ff" points="1684.54,-456.19 1695.13,-455.88 1686.66,-449.51 1684.54,-456.19"/>
</a>
</g>
</g>
<!-- Node17 -->
<g id="Node000017" class="node">
<title>Node17</title>
<g id="a_Node000017"><a xlink:href="classcom_1_1example_1_1mybookshelf_1_1BookRecommendationFlow.html#ac62af5d6edeffa96b2862a609ebb40df" target="_top" xlink:title=" ">
<polygon fill="white" stroke="#666666" points="1852.5,-327.43 1636.5,-327.43 1636.5,-286.43 1852.5,-286.43 1852.5,-327.43"/>
<text text-anchor="start" x="1644.5" y="-315.43" font-family="Helvetica,sans-Serif" font-size="10.00">com.example.mybookshelf.</text>
<text text-anchor="start" x="1644.5" y="-304.43" font-family="Helvetica,sans-Serif" font-size="10.00">BookRecommendationFlow.hideThinking</text>
<text text-anchor="middle" x="1744.5" y="-293.43" font-family="Helvetica,sans-Serif" font-size="10.00">Animation</text>
</a>
</g>
</g>
<!-- Node9&#45;&gt;Node17 -->
<g id="edge37_Node000009_Node000017" class="edge">
<title>Node9&#45;&gt;Node17</title>
<g id="a_edge37_Node000009_Node000017"><a xlink:title=" ">
<path fill="none" stroke="#63b8ff" d="M1540.37,-375.91C1565.36,-364.31 1601.43,-348.36 1634,-336.93 1640.31,-334.71 1646.87,-332.55 1653.51,-330.48"/>
<polygon fill="#63b8ff" stroke="#63b8ff" points="1654.71,-333.77 1663.26,-327.51 1652.67,-327.08 1654.71,-333.77"/>
</a>
</g>
</g>
<!-- Node18 -->
<g id="Node000018" class="node">
<title>Node18</title>
<g id="a_Node000018"><a xlink:href="classcom_1_1example_1_1mybookshelf_1_1BookRecommendationFlow.html#a78597ba37409daeee77dcfa6236b2e6a" target="_top" xlink:title=" ">
<polygon fill="white" stroke="#666666" points="1855,-268.43 1634,-268.43 1634,-227.43 1855,-227.43 1855,-268.43"/>
<text text-anchor="start" x="1642" y="-256.43" font-family="Helvetica,sans-Serif" font-size="10.00">com.example.mybookshelf.</text>
<text text-anchor="start" x="1642" y="-245.43" font-family="Helvetica,sans-Serif" font-size="10.00">BookRecommendationFlow.showThinking</text>
<text text-anchor="middle" x="1744.5" y="-234.43" font-family="Helvetica,sans-Serif" font-size="10.00">Animation</text>
</a>
</g>
</g>
<!-- Node9&#45;&gt;Node18 -->
<g id="edge38_Node000009_Node000018" class="edge">
<title>Node9&#45;&gt;Node18</title>
<g id="a_edge38_Node000009_Node000018"><a xlink:title=" ">
<path fill="none" stroke="#63b8ff" d="M1521.17,-375.88C1541.78,-351.41 1586.04,-303.08 1634,-276.93 1636.76,-275.42 1639.6,-273.99 1642.51,-272.63"/>
<polygon fill="#63b8ff" stroke="#63b8ff" points="1644.18,-275.72 1651.96,-268.53 1641.39,-269.3 1644.18,-275.72"/>
</a>
</g>
</g>
<!-- Node10&#45;&gt;Node10 -->
<g id="edge20_Node000010_Node000010" class="edge">
<title>Node10&#45;&gt;Node10</title>
<g id="a_edge20_Node000010_Node000010"><a xlink:title=" ">
<path fill="none" stroke="#63b8ff" d="M1703.02,-376.2C1693.8,-385.33 1707.62,-393.93 1744.5,-393.93 1766.39,-393.93 1780.16,-390.9 1785.81,-386.52"/>
<polygon fill="#63b8ff" stroke="#63b8ff" points="1789.31,-386.26 1785.98,-376.2 1782.31,-386.14 1789.31,-386.26"/>
</a>
</g>
</g>
<!-- Node11&#45;&gt;Node2 -->
<g id="edge22_Node000011_Node000002" class="edge">
<title>Node11&#45;&gt;Node2</title>
<g id="a_edge22_Node000011_Node000002"><a xlink:title=" ">
<path fill="none" stroke="#63b8ff" d="M1793.91,-455.92C1897.46,-424.15 2148.43,-348.81 2362,-297.93 2467.31,-272.84 2494.68,-271.33 2601,-250.93 2691.14,-233.62 2714.32,-232.51 2804,-212.93 2817.97,-209.87 2832.71,-206.42 2847.08,-202.93"/>
<polygon fill="#63b8ff" stroke="#63b8ff" points="2848.08,-206.29 2856.96,-200.51 2846.41,-199.49 2848.08,-206.29"/>
</a>
</g>
</g>
<!-- Node11&#45;&gt;Node3 -->
<g id="edge23_Node000011_Node000003" class="edge">
<title>Node11&#45;&gt;Node3</title>
<g id="a_edge23_Node000011_Node000003"><a xlink:title=" ">
<path fill="none" stroke="#63b8ff" d="M1844.5,-478.15C1912.68,-483.14 2005.33,-489.92 2087,-495.93 2405.67,-519.37 2488.51,-498.21 2804,-548.93 2820.03,-551.5 2836.97,-555.07 2853.17,-558.92"/>
<polygon fill="#63b8ff" stroke="#63b8ff" points="2852.61,-562.39 2863.15,-561.35 2854.26,-555.58 2852.61,-562.39"/>
</a>
</g>
</g>
<!-- Node12 -->
<g id="Node000012" class="node">
<title>Node12</title>
<g id="a_Node000012"><a xlink:href="classcom_1_1example_1_1mybookshelf_1_1BookRecommendationFlow.html#a22f0dcaea578fbd7358e6237cd4873d4" target="_top" xlink:title=" ">
<polygon fill="white" stroke="#666666" points="2087,-534.93 1891,-534.93 1891,-504.93 2087,-504.93 2087,-534.93"/>
<text text-anchor="start" x="1899" y="-522.93" font-family="Helvetica,sans-Serif" font-size="10.00">com.example.mybookshelf.</text>
<text text-anchor="middle" x="1989" y="-511.93" font-family="Helvetica,sans-Serif" font-size="10.00">BookRecommendationFlow.handleAI</text>
</a>
</g>
</g>
<!-- Node11&#45;&gt;Node12 -->
<g id="edge24_Node000011_Node000012" class="edge">
<title>Node11&#45;&gt;Node12</title>
<g id="a_edge24_Node000011_Node000012"><a xlink:title=" ">
<path fill="none" stroke="#63b8ff" d="M1819.91,-485.96C1846.44,-491.32 1876.51,-497.4 1903.81,-502.91"/>
<polygon fill="#63b8ff" stroke="#63b8ff" points="1903.24,-506.37 1913.73,-504.92 1904.63,-499.51 1903.24,-506.37"/>
</a>
</g>
</g>
<!-- Node12&#45;&gt;Node1 -->
<g id="edge36_Node000012_Node000001" class="edge">
<title>Node12&#45;&gt;Node1</title>
<g id="a_edge36_Node000012_Node000001"><a xlink:title=" ">
<path fill="none" stroke="#63b8ff" d="M1971.2,-535.21C1912.43,-587.05 1708.75,-752.93 1509,-752.93 583.5,-752.93 583.5,-752.93 583.5,-752.93 457.21,-752.93 312.72,-740.72 215.54,-730.73"/>
<polygon fill="#63b8ff" stroke="#63b8ff" points="215.71,-727.23 205.41,-729.68 214.99,-734.19 215.71,-727.23"/>
</a>
</g>
</g>
<!-- Node13 -->
<g id="Node000013" class="node">
<title>Node13</title>
<g id="a_Node000013"><a xlink:href="classcom_1_1example_1_1mybookshelf_1_1BookRecommendationFlow.html#a276e931dabe3e85af257a9d16ce7cc67" target="_top" xlink:title=" ">
<polygon fill="white" stroke="#666666" points="2326,-468.43 2123,-468.43 2123,-427.43 2326,-427.43 2326,-468.43"/>
<text text-anchor="start" x="2131" y="-456.43" font-family="Helvetica,sans-Serif" font-size="10.00">com.example.mybookshelf.</text>
<text text-anchor="start" x="2131" y="-445.43" font-family="Helvetica,sans-Serif" font-size="10.00">BookRecommendationFlow.showBook</text>
<text text-anchor="middle" x="2224.5" y="-434.43" font-family="Helvetica,sans-Serif" font-size="10.00">BasedStep1</text>
</a>
</g>
</g>
<!-- Node12&#45;&gt;Node13 -->
<g id="edge25_Node000012_Node000013" class="edge">
<title>Node12&#45;&gt;Node13</title>
<g id="a_edge25_Node000012_Node000013"><a xlink:title=" ">
<path fill="none" stroke="#63b8ff" d="M2038.67,-504.92C2069.94,-495.28 2111.24,-482.54 2146.86,-471.56"/>
<polygon fill="#63b8ff" stroke="#63b8ff" points="2148.22,-474.8 2156.74,-468.51 2146.16,-468.11 2148.22,-474.8"/>
</a>
</g>
</g>
<!-- Node13&#45;&gt;Node2 -->
<g id="edge26_Node000013_Node000002" class="edge">
<title>Node13&#45;&gt;Node2</title>
<g id="a_edge26_Node000013_Node000002"><a xlink:title=" ">
<path fill="none" stroke="#63b8ff" d="M2272.82,-427.31C2299.06,-415.92 2332.3,-401.56 2362,-388.93 2467.96,-343.86 2490.68,-321.92 2601,-288.93 2688.94,-262.62 2717.44,-281.47 2804,-250.93 2836.38,-239.5 2870.44,-220.99 2895.86,-205.74"/>
<polygon fill="#63b8ff" stroke="#63b8ff" points="2897.75,-208.68 2904.47,-200.49 2894.11,-202.7 2897.75,-208.68"/>
</a>
</g>
</g>
<!-- Node13&#45;&gt;Node3 -->
<g id="edge27_Node000013_Node000003" class="edge">
<title>Node13&#45;&gt;Node3</title>
<g id="a_edge27_Node000013_Node000003"><a xlink:title=" ">
<path fill="none" stroke="#63b8ff" d="M2326.11,-454.22C2467.48,-463.86 2717.34,-484.03 2804,-510.93 2837.23,-521.24 2871.77,-540.15 2897.17,-555.87"/>
<polygon fill="#63b8ff" stroke="#63b8ff" points="2895.44,-558.91 2905.76,-561.27 2899.16,-552.98 2895.44,-558.91"/>
</a>
</g>
</g>
<!-- Node14 -->
<g id="Node000014" class="node">
<title>Node14</title>
<g id="a_Node000014"><a xlink:href="classcom_1_1example_1_1mybookshelf_1_1BookRecommendationFlow.html#a5c657be258c13c85848c7b7115f8a0b5" target="_top" xlink:title=" ">
<polygon fill="white" stroke="#666666" points="2565,-439.43 2362,-439.43 2362,-398.43 2565,-398.43 2565,-439.43"/>
<text text-anchor="start" x="2370" y="-427.43" font-family="Helvetica,sans-Serif" font-size="10.00">com.example.mybookshelf.</text>
<text text-anchor="start" x="2370" y="-416.43" font-family="Helvetica,sans-Serif" font-size="10.00">BookRecommendationFlow.showBook</text>
<text text-anchor="middle" x="2463.5" y="-405.43" font-family="Helvetica,sans-Serif" font-size="10.00">BasedStep2</text>
</a>
</g>
</g>
<!-- Node13&#45;&gt;Node14 -->
<g id="edge28_Node000013_Node000014" class="edge">
<title>Node13&#45;&gt;Node14</title>
<g id="a_edge28_Node000013_Node000014"><a xlink:title=" ">
<path fill="none" stroke="#63b8ff" d="M2326.01,-435.63C2334.53,-434.58 2343.18,-433.52 2351.78,-432.47"/>
<polygon fill="#63b8ff" stroke="#63b8ff" points="2352.33,-435.93 2361.83,-431.24 2351.48,-428.98 2352.33,-435.93"/>
</a>
</g>
</g>
<!-- Node14&#45;&gt;Node2 -->
<g id="edge29_Node000014_Node000002" class="edge">
<title>Node14&#45;&gt;Node2</title>
<g id="a_edge29_Node000014_Node000002"><a xlink:title=" ">
<path fill="none" stroke="#63b8ff" d="M2521.08,-398.4C2610.92,-365.64 2778.65,-303.71 2804,-288.93 2843.09,-266.13 2882.37,-231.89 2907.79,-207.89"/>
<polygon fill="#63b8ff" stroke="#63b8ff" points="2910.41,-210.23 2915.22,-200.79 2905.57,-205.17 2910.41,-210.23"/>
</a>
</g>
</g>
<!-- Node14&#45;&gt;Node3 -->
<g id="edge30_Node000014_Node000003" class="edge">
<title>Node14&#45;&gt;Node3</title>
<g id="a_edge30_Node000014_Node000003"><a xlink:title=" ">
<path fill="none" stroke="#63b8ff" d="M2565.35,-429.04C2649.62,-438.57 2762.45,-454.17 2804,-472.93 2846.22,-491.98 2885.97,-528.24 2910.6,-553.69"/>
<polygon fill="#63b8ff" stroke="#63b8ff" points="2908.31,-556.37 2917.74,-561.21 2913.39,-551.55 2908.31,-556.37"/>
</a>
</g>
</g>
<!-- Node15 -->
<g id="Node000015" class="node">
<title>Node15</title>
<g id="a_Node000015"><a xlink:href="classcom_1_1example_1_1mybookshelf_1_1BookRecommendationFlow.html#aa95301256c7f5377d1bc432189483b3c" target="_top" xlink:title=" ">
<polygon fill="white" stroke="#666666" points="2804,-420.43 2601,-420.43 2601,-379.43 2804,-379.43 2804,-420.43"/>
<text text-anchor="start" x="2609" y="-408.43" font-family="Helvetica,sans-Serif" font-size="10.00">com.example.mybookshelf.</text>
<text text-anchor="start" x="2609" y="-397.43" font-family="Helvetica,sans-Serif" font-size="10.00">BookRecommendationFlow.showBook</text>
<text text-anchor="middle" x="2702.5" y="-386.43" font-family="Helvetica,sans-Serif" font-size="10.00">BasedStep3</text>
</a>
</g>
</g>
<!-- Node14&#45;&gt;Node15 -->
<g id="edge31_Node000014_Node000015" class="edge">
<title>Node14&#45;&gt;Node15</title>
<g id="a_edge31_Node000014_Node000015"><a xlink:title=" ">
<path fill="none" stroke="#63b8ff" d="M2565.01,-410.87C2573.53,-410.18 2582.18,-409.49 2590.78,-408.8"/>
<polygon fill="#63b8ff" stroke="#63b8ff" points="2591.15,-412.28 2600.83,-408 2590.59,-405.31 2591.15,-412.28"/>
</a>
</g>
</g>
<!-- Node15&#45;&gt;Node2 -->
<g id="edge32_Node000015_Node000002" class="edge">
<title>Node15&#45;&gt;Node2</title>
<g id="a_edge32_Node000015_Node000002"><a xlink:title=" ">
<path fill="none" stroke="#63b8ff" d="M2779.12,-379.41C2787.93,-375.36 2796.46,-370.58 2804,-364.93 2833.3,-342.97 2889.51,-255.58 2918.2,-209.2"/>
<polygon fill="#63b8ff" stroke="#63b8ff" points="2921.29,-210.85 2923.56,-200.5 2915.33,-207.18 2921.29,-210.85"/>
</a>
</g>
</g>
<!-- Node15&#45;&gt;Node3 -->
<g id="edge35_Node000015_Node000003" class="edge">
<title>Node15&#45;&gt;Node3</title>
<g id="a_edge35_Node000015_Node000003"><a xlink:title=" ">
<path fill="none" stroke="#63b8ff" d="M2776.69,-420.47C2786.25,-424.56 2795.62,-429.35 2804,-434.93 2851.97,-466.84 2893.82,-520.17 2916.93,-553.07"/>
<polygon fill="#63b8ff" stroke="#63b8ff" points="2914.1,-555.13 2922.67,-561.36 2919.86,-551.15 2914.1,-555.13"/>
</a>
</g>
</g>
<!-- Node16 -->
<g id="Node000016" class="node">
<title>Node16</title>
<g id="a_Node000016"><a xlink:href="classcom_1_1example_1_1mybookshelf_1_1BookRecommendationFlow.html#a78dda71d2c403a463d824ff61b2ce27f" target="_top" xlink:title=" ">
<polygon fill="white" stroke="#666666" points="3025.5,-376.43 2848.5,-376.43 2848.5,-335.43 3025.5,-335.43 3025.5,-376.43"/>
<text text-anchor="start" x="2856.5" y="-364.43" font-family="Helvetica,sans-Serif" font-size="10.00">com.example.mybookshelf.</text>
<text text-anchor="start" x="2856.5" y="-353.43" font-family="Helvetica,sans-Serif" font-size="10.00">BookRecommendationFlow.build</text>
<text text-anchor="middle" x="2937" y="-342.43" font-family="Helvetica,sans-Serif" font-size="10.00">AIStringBased</text>
</a>
</g>
</g>
<!-- Node15&#45;&gt;Node16 -->
<g id="edge33_Node000015_Node000016" class="edge">
<title>Node15&#45;&gt;Node16</title>
<g id="a_edge33_Node000015_Node000016"><a xlink:title=" ">
<path fill="none" stroke="#63b8ff" d="M2804.13,-380.88C2815.52,-378.73 2827.11,-376.53 2838.46,-374.38"/>
<polygon fill="#63b8ff" stroke="#63b8ff" points="2839.19,-377.81 2848.36,-372.51 2837.88,-370.93 2839.19,-377.81"/>
</a>
</g>
</g>
<!-- Node16&#45;&gt;Node9 -->
<g id="edge34_Node000016_Node000009" class="edge">
<title>Node16&#45;&gt;Node9</title>
<g id="a_edge34_Node000016_Node000009"><a xlink:title=" ">
<path fill="none" stroke="#63b8ff" d="M2848.45,-343.14C2753.95,-330.46 2598.89,-312.93 2464.5,-312.93 2223.5,-312.93 2223.5,-312.93 2223.5,-312.93 2054.91,-312.93 2022.38,-382.78 1855,-402.93 1757.48,-414.66 1732.11,-407.62 1634,-402.93 1625.63,-402.52 1616.95,-401.97 1608.25,-401.33"/>
<polygon fill="#63b8ff" stroke="#63b8ff" points="1608.28,-397.82 1598.03,-400.52 1607.73,-404.8 1608.28,-397.82"/>
</a>
</g>
</g>
</g>
</svg>
