<?xml version="1.0" encoding="UTF-8" standalone="no"?>
<!DOCTYPE svg PUBLIC "-//W3C//DTD SVG 1.1//EN"
 "http://www.w3.org/Graphics/SVG/1.1/DTD/svg11.dtd">
<!-- Generated by graphviz version 2.43.0 (0)
 -->
<!-- Title: com.example.mybookshelf.UIMaster.ChartData Pages: 1 -->
<svg width="208pt" height="175pt"
 viewBox="0.00 0.00 208.00 175.00" xmlns="http://www.w3.org/2000/svg" xmlns:xlink="http://www.w3.org/1999/xlink">

<svg id="main" version="1.1" xmlns="http://www.w3.org/2000/svg" xmlns:xlink="http://www.w3.org/1999/xlink" xml:space="preserve">

<style type="text/css"><![CDATA[
.node, .edge {opacity: 0.7;}
.node.selected, .edge.selected {opacity: 1;}
.edge:hover path { stroke: red; }
.edge:hover polygon { stroke: red; fill: red; }
]]></style>
<script type="application/ecmascript" xlink:href="svg.min.js"/>
<svg id="graph" class="graph">
<g id="graph0" class="graph" transform="scale(1 1) rotate(0) translate(4 171)">
<title>com.example.mybookshelf.UIMaster.ChartData</title>
<!-- Node1 -->
<g id="Node000001" class="node">
<title>Node1</title>
<g id="a_Node000001"><a xlink:title=" ">
<polygon fill="#999999" stroke="transparent" points="146,-60 0,-60 0,0 146,0 146,-60"/>
<text text-anchor="start" x="5" y="-48" font-family="Helvetica,sans-Serif" font-size="10.00">com.example.mybookshelf.</text>
<text text-anchor="start" x="24.5" y="-37" font-family="Helvetica,sans-Serif" font-size="10.00">UIMaster.ChartData</text>
<text text-anchor="start" x="71" y="-22" font-family="Helvetica,sans-Serif" font-size="10.00"> </text>
<text text-anchor="start" x="20.5" y="-7" font-family="Helvetica,sans-Serif" font-size="10.00">~</text>
<text text-anchor="start" x="50" y="-7" font-family="Helvetica,sans-Serif" font-size="10.00">ChartData()</text>
<polygon fill="#666666" stroke="#666666" points="0,-32 0,-32 146,-32 146,-32 0,-32"/>
<polygon fill="#666666" stroke="#666666" points="0,-17 0,-17 146,-17 146,-17 0,-17"/>
<polygon fill="none" stroke="#666666" points="0,0 0,-60 146,-60 146,0 0,0"/>
</a>
</g>
</g>
<!-- Node2 -->
<g id="Node000002" class="node">
<title>Node2</title>
<g id="a_Node000002"><a xlink:title=" ">
<polygon fill="white" stroke="transparent" points="144.5,-167 1.5,-167 1.5,-118 144.5,-118 144.5,-167"/>
<text text-anchor="start" x="7" y="-154.5" font-family="Helvetica,sans-Serif" font-size="10.00">final ArrayList&lt; BarEntry &gt;</text>
<text text-anchor="start" x="71.5" y="-139.5" font-family="Helvetica,sans-Serif" font-size="10.00"> </text>
<text text-anchor="start" x="71.5" y="-124.5" font-family="Helvetica,sans-Serif" font-size="10.00"> </text>
<polygon fill="#666666" stroke="#666666" points="2,-149.5 2,-149.5 145,-149.5 145,-149.5 2,-149.5"/>
<polygon fill="#666666" stroke="#666666" points="2,-134.5 2,-134.5 145,-134.5 145,-134.5 2,-134.5"/>
<polygon fill="none" stroke="#666666" points="1.5,-118 1.5,-167 144.5,-167 144.5,-118 1.5,-118"/>
</a>
</g>
</g>
<!-- Node2&#45;&gt;Node1 -->
<g id="edge1_Node000001_Node000002" class="edge">
<title>Node2&#45;&gt;Node1</title>
<g id="a_edge1_Node000001_Node000002"><a xlink:title=" ">
<path fill="none" stroke="#63b8ff" d="M73,-117.79C73,-104.62 73,-87.84 73,-72.55"/>
<polygon fill="none" stroke="#63b8ff" points="73,-72.17 69,-66.17 73,-60.17 77,-66.17 73,-72.17"/>
</a>
</g>
<text text-anchor="middle" x="136.5" y="-92" font-family="Helvetica,sans-Serif" font-size="10.00" fill="grey"> ~completedBooksEntries</text>
<text text-anchor="middle" x="136.5" y="-81" font-family="Helvetica,sans-Serif" font-size="10.00" fill="grey">~readingTimeEntries</text>
</g>
</g>
</svg>
</svg>

<style type='text/css'>
<![CDATA[
[data-mouse-over-selected='false'] { opacity: 0.7; }
[data-mouse-over-selected='true']  { opacity: 1.0; }
]]>
</style>
<script type="application/ecmascript"><![CDATA[
document.addEventListener('DOMContentLoaded', (event) => {
  highlightEdges();
  highlightAdjacentNodes();
});
]]></script>
</svg>
