<?xml version="1.0" encoding="UTF-8" standalone="no"?>
<!DOCTYPE svg PUBLIC "-//W3C//DTD SVG 1.1//EN"
 "http://www.w3.org/Graphics/SVG/1.1/DTD/svg11.dtd">
<!-- Generated by graphviz version 2.43.0 (0)
 -->
<!-- Title: com.example.mybookshelf.UIMaster.setupNavigationButtons Pages: 1 -->
<svg width="1578pt" height="518pt"
 viewBox="0.00 0.00 1578.00 518.00" xmlns="http://www.w3.org/2000/svg" xmlns:xlink="http://www.w3.org/1999/xlink">
<g id="graph0" class="graph" transform="scale(1 1) rotate(0) translate(4 514)">
<title>com.example.mybookshelf.UIMaster.setupNavigationButtons</title>
<!-- Node1 -->
<g id="Node000001" class="node">
<title>Node1</title>
<g id="a_Node000001"><a xlink:title=" ">
<polygon fill="#999999" stroke="#666666" points="181,-203 0,-203 0,-173 181,-173 181,-203"/>
<text text-anchor="start" x="8" y="-191" font-family="Helvetica,sans-Serif" font-size="10.00">com.example.mybookshelf.</text>
<text text-anchor="middle" x="90.5" y="-180" font-family="Helvetica,sans-Serif" font-size="10.00">UIMaster.setupNavigationButtons</text>
</a>
</g>
</g>
<!-- Node2 -->
<g id="Node000002" class="node">
<title>Node2</title>
<g id="a_Node000002"><a xlink:href="classcom_1_1example_1_1mybookshelf_1_1UIMaster.html#a4636b546c38ace5aedccfd989edc0bb1" target="_top" xlink:title=" ">
<polygon fill="white" stroke="#666666" points="369,-438 217,-438 217,-408 369,-408 369,-438"/>
<text text-anchor="start" x="225" y="-426" font-family="Helvetica,sans-Serif" font-size="10.00">com.example.mybookshelf.</text>
<text text-anchor="middle" x="293" y="-415" font-family="Helvetica,sans-Serif" font-size="10.00">UIMaster.handleListSearch</text>
</a>
</g>
</g>
<!-- Node1&#45;&gt;Node2 -->
<g id="edge1_Node000001_Node000002" class="edge">
<title>Node1&#45;&gt;Node2</title>
<g id="a_edge1_Node000001_Node000002"><a xlink:title=" ">
<path fill="none" stroke="#63b8ff" d="M104.35,-203.06C138.5,-243.09 231.71,-352.33 272.47,-400.11"/>
<polygon fill="#63b8ff" stroke="#63b8ff" points="269.85,-402.43 279,-407.76 275.17,-397.88 269.85,-402.43"/>
</a>
</g>
</g>
<!-- Node8 -->
<g id="Node000008" class="node">
<title>Node8</title>
<g id="a_Node000008"><a xlink:href="classcom_1_1example_1_1mybookshelf_1_1UIMaster.html#ad30bff41c8ec833af2293c0b6c8b47b2" target="_top" xlink:title=" ">
<polygon fill="white" stroke="#666666" points="369,-203 217,-203 217,-173 369,-173 369,-203"/>
<text text-anchor="start" x="225" y="-191" font-family="Helvetica,sans-Serif" font-size="10.00">com.example.mybookshelf.</text>
<text text-anchor="middle" x="293" y="-180" font-family="Helvetica,sans-Serif" font-size="10.00">UIMaster.navigateToGoals</text>
</a>
</g>
</g>
<!-- Node1&#45;&gt;Node8 -->
<g id="edge7_Node000001_Node000008" class="edge">
<title>Node1&#45;&gt;Node8</title>
<g id="a_edge7_Node000001_Node000008"><a xlink:title=" ">
<path fill="none" stroke="#63b8ff" d="M181.19,-188C189.64,-188 198.2,-188 206.61,-188"/>
<polygon fill="#63b8ff" stroke="#63b8ff" points="206.78,-191.5 216.78,-188 206.78,-184.5 206.78,-191.5"/>
</a>
</g>
</g>
<!-- Node9 -->
<g id="Node000009" class="node">
<title>Node9</title>
<g id="a_Node000009"><a xlink:href="classcom_1_1example_1_1mybookshelf_1_1UIMaster.html#ac859db60f9068e6a87b633ef697d4d0f" target="_top" xlink:title=" ">
<polygon fill="white" stroke="#666666" points="602,-246 446,-246 446,-216 602,-216 602,-246"/>
<text text-anchor="start" x="454" y="-234" font-family="Helvetica,sans-Serif" font-size="10.00">com.example.mybookshelf.</text>
<text text-anchor="middle" x="524" y="-223" font-family="Helvetica,sans-Serif" font-size="10.00">UIMaster.navigateToSettings</text>
</a>
</g>
</g>
<!-- Node1&#45;&gt;Node9 -->
<g id="edge33_Node000001_Node000009" class="edge">
<title>Node1&#45;&gt;Node9</title>
<g id="a_edge33_Node000001_Node000009"><a xlink:title=" ">
<path fill="none" stroke="#63b8ff" d="M161.61,-203.04C179.59,-206.44 198.95,-209.72 217,-212 290.41,-221.26 374.32,-226.07 435.69,-228.52"/>
<polygon fill="#63b8ff" stroke="#63b8ff" points="435.59,-232.02 445.72,-228.91 435.86,-225.03 435.59,-232.02"/>
</a>
</g>
</g>
<!-- Node15 -->
<g id="Node000015" class="node">
<title>Node15</title>
<g id="a_Node000015"><a xlink:href="classcom_1_1example_1_1mybookshelf_1_1UIMaster.html#aa3079f36c20fc1b0ec8c01197f06faa3" target="_top" xlink:title=" ">
<polygon fill="white" stroke="#666666" points="882,-78 730,-78 730,-48 882,-48 882,-78"/>
<text text-anchor="start" x="738" y="-66" font-family="Helvetica,sans-Serif" font-size="10.00">com.example.mybookshelf.</text>
<text text-anchor="middle" x="806" y="-55" font-family="Helvetica,sans-Serif" font-size="10.00">UIMaster.navigateToStats</text>
</a>
</g>
</g>
<!-- Node1&#45;&gt;Node15 -->
<g id="edge34_Node000001_Node000015" class="edge">
<title>Node1&#45;&gt;Node15</title>
<g id="a_edge34_Node000001_Node000015"><a xlink:title=" ">
<path fill="none" stroke="#63b8ff" d="M113.94,-172.77C138.2,-157.15 178.57,-133.55 217,-122 390.1,-69.95 603.44,-61.6 719.65,-61.45"/>
<polygon fill="#63b8ff" stroke="#63b8ff" points="719.89,-64.95 729.9,-61.46 719.9,-57.95 719.89,-64.95"/>
</a>
</g>
</g>
<!-- Node3 -->
<g id="Node000003" class="node">
<title>Node3</title>
<g id="a_Node000003"><a xlink:href="classcom_1_1example_1_1mybookshelf_1_1UIMaster.html#a3e552449814fd4b18a4070128261c571" target="_top" xlink:title=" ">
<polygon fill="white" stroke="#666666" points="600,-486 448,-486 448,-456 600,-456 600,-486"/>
<text text-anchor="start" x="456" y="-474" font-family="Helvetica,sans-Serif" font-size="10.00">com.example.mybookshelf.</text>
<text text-anchor="middle" x="524" y="-463" font-family="Helvetica,sans-Serif" font-size="10.00">UIMaster.fillSpinners</text>
</a>
</g>
</g>
<!-- Node2&#45;&gt;Node3 -->
<g id="edge2_Node000002_Node000003" class="edge">
<title>Node2&#45;&gt;Node3</title>
<g id="a_edge2_Node000002_Node000003"><a xlink:title=" ">
<path fill="none" stroke="#63b8ff" d="M362.95,-438.05C376.87,-441.04 391.4,-444.15 405,-447 415.84,-449.27 427.25,-451.63 438.52,-453.95"/>
<polygon fill="#63b8ff" stroke="#63b8ff" points="437.88,-457.39 448.38,-455.97 439.28,-450.53 437.88,-457.39"/>
</a>
</g>
</g>
<!-- Node4 -->
<g id="Node000004" class="node">
<title>Node4</title>
<g id="a_Node000004"><a xlink:href="classcom_1_1example_1_1mybookshelf_1_1UIMaster.html#a39a8f40aa163994c415f165d94ee47fd" target="_top" xlink:title=" ">
<polygon fill="white" stroke="#666666" points="600,-438 448,-438 448,-408 600,-408 600,-438"/>
<text text-anchor="start" x="456" y="-426" font-family="Helvetica,sans-Serif" font-size="10.00">com.example.mybookshelf.</text>
<text text-anchor="middle" x="524" y="-415" font-family="Helvetica,sans-Serif" font-size="10.00">UIMaster.filterBooks</text>
</a>
</g>
</g>
<!-- Node2&#45;&gt;Node4 -->
<g id="edge3_Node000002_Node000004" class="edge">
<title>Node2&#45;&gt;Node4</title>
<g id="a_edge3_Node000002_Node000004"><a xlink:title=" ">
<path fill="none" stroke="#63b8ff" d="M369.3,-423C391.12,-423 415.1,-423 437.49,-423"/>
<polygon fill="#63b8ff" stroke="#63b8ff" points="437.65,-426.5 447.65,-423 437.65,-419.5 437.65,-426.5"/>
</a>
</g>
</g>
<!-- Node5 -->
<g id="Node000005" class="node">
<title>Node5</title>
<g id="a_Node000005"><a xlink:href="classcom_1_1example_1_1mybookshelf_1_1dataClass_1_1Book.html#a72061c36f82e9d925effeb02dc0da55d" target="_top" xlink:title=" ">
<polygon fill="white" stroke="#666666" points="893,-510 719,-510 719,-480 893,-480 893,-510"/>
<text text-anchor="start" x="727" y="-498" font-family="Helvetica,sans-Serif" font-size="10.00">com.example.mybookshelf.data</text>
<text text-anchor="middle" x="806" y="-487" font-family="Helvetica,sans-Serif" font-size="10.00">Class.Book.getAuthor</text>
</a>
</g>
</g>
<!-- Node4&#45;&gt;Node5 -->
<g id="edge4_Node000004_Node000005" class="edge">
<title>Node4&#45;&gt;Node5</title>
<g id="a_edge4_Node000004_Node000005"><a xlink:title=" ">
<path fill="none" stroke="#63b8ff" d="M600.27,-433.77C614.76,-437.1 629.59,-441.42 643,-447 660.75,-454.39 661.2,-463.72 679,-471 688.53,-474.9 698.72,-478.17 709.04,-480.91"/>
<polygon fill="#63b8ff" stroke="#63b8ff" points="708.39,-484.36 718.94,-483.39 710.09,-477.57 708.39,-484.36"/>
</a>
</g>
</g>
<!-- Node6 -->
<g id="Node000006" class="node">
<title>Node6</title>
<g id="a_Node000006"><a xlink:href="classcom_1_1example_1_1mybookshelf_1_1dataClass_1_1Book.html#ab78862de4a0e97e9190086f397a88fd4" target="_top" xlink:title=" ">
<polygon fill="white" stroke="#666666" points="893,-462 719,-462 719,-432 893,-432 893,-462"/>
<text text-anchor="start" x="727" y="-450" font-family="Helvetica,sans-Serif" font-size="10.00">com.example.mybookshelf.data</text>
<text text-anchor="middle" x="806" y="-439" font-family="Helvetica,sans-Serif" font-size="10.00">Class.Book.getGenre</text>
</a>
</g>
</g>
<!-- Node4&#45;&gt;Node6 -->
<g id="edge5_Node000004_Node000006" class="edge">
<title>Node4&#45;&gt;Node6</title>
<g id="a_edge5_Node000004_Node000006"><a xlink:title=" ">
<path fill="none" stroke="#63b8ff" d="M600.03,-429.43C633.36,-432.29 672.99,-435.68 708.48,-438.73"/>
<polygon fill="#63b8ff" stroke="#63b8ff" points="708.59,-442.25 718.86,-439.62 709.19,-435.27 708.59,-442.25"/>
</a>
</g>
</g>
<!-- Node7 -->
<g id="Node000007" class="node">
<title>Node7</title>
<g id="a_Node000007"><a xlink:href="classcom_1_1example_1_1mybookshelf_1_1dataClass_1_1Book.html#a4109da1bdee13601576c6725d6e89e71" target="_top" xlink:title=" ">
<polygon fill="white" stroke="#666666" points="893,-414 719,-414 719,-384 893,-384 893,-414"/>
<text text-anchor="start" x="727" y="-402" font-family="Helvetica,sans-Serif" font-size="10.00">com.example.mybookshelf.data</text>
<text text-anchor="middle" x="806" y="-391" font-family="Helvetica,sans-Serif" font-size="10.00">Class.Book.getName</text>
</a>
</g>
</g>
<!-- Node4&#45;&gt;Node7 -->
<g id="edge6_Node000004_Node000007" class="edge">
<title>Node4&#45;&gt;Node7</title>
<g id="a_edge6_Node000004_Node000007"><a xlink:title=" ">
<path fill="none" stroke="#63b8ff" d="M600.03,-416.57C633.36,-413.71 672.99,-410.32 708.48,-407.27"/>
<polygon fill="#63b8ff" stroke="#63b8ff" points="709.19,-410.73 718.86,-406.38 708.59,-403.75 709.19,-410.73"/>
</a>
</g>
</g>
<!-- Node8&#45;&gt;Node9 -->
<g id="edge8_Node000008_Node000009" class="edge">
<title>Node8&#45;&gt;Node9</title>
<g id="a_edge8_Node000008_Node000009"><a xlink:title=" ">
<path fill="none" stroke="#63b8ff" d="M369.3,-195.75C399.85,-200.9 434.64,-207.56 463.38,-213.8"/>
<polygon fill="#63b8ff" stroke="#63b8ff" points="462.76,-217.25 473.28,-215.98 464.27,-210.41 462.76,-217.25"/>
</a>
</g>
</g>
<!-- Node14 -->
<g id="Node000014" class="node">
<title>Node14</title>
<g id="a_Node000014"><a xlink:href="classcom_1_1example_1_1mybookshelf_1_1UIMaster.html#ad609d5e0b54e87afcb60aed6c66a792e" target="_top" xlink:title=" ">
<polygon fill="white" stroke="#666666" points="895,-126 717,-126 717,-96 895,-96 895,-126"/>
<text text-anchor="start" x="725" y="-114" font-family="Helvetica,sans-Serif" font-size="10.00">com.example.mybookshelf.</text>
<text text-anchor="middle" x="806" y="-103" font-family="Helvetica,sans-Serif" font-size="10.00">UIMaster.navigateToStartingPage</text>
</a>
</g>
</g>
<!-- Node8&#45;&gt;Node14 -->
<g id="edge30_Node000008_Node000014" class="edge">
<title>Node8&#45;&gt;Node14</title>
<g id="a_edge30_Node000008_Node000014"><a xlink:title=" ">
<path fill="none" stroke="#63b8ff" d="M369.2,-198.38C442.26,-205.2 554.77,-206.89 643,-169 663.22,-160.32 659.4,-145.02 679,-135 687.77,-130.52 697.28,-126.86 707,-123.89"/>
<polygon fill="#63b8ff" stroke="#63b8ff" points="708.1,-127.22 716.78,-121.14 706.2,-120.48 708.1,-127.22"/>
</a>
</g>
</g>
<!-- Node8&#45;&gt;Node15 -->
<g id="edge31_Node000008_Node000015" class="edge">
<title>Node8&#45;&gt;Node15</title>
<g id="a_edge31_Node000008_Node000015"><a xlink:title=" ">
<path fill="none" stroke="#63b8ff" d="M313.63,-172.79C334.9,-157.14 370.45,-133.36 405,-121 509.33,-83.68 637.15,-70.33 719.78,-65.58"/>
<polygon fill="#63b8ff" stroke="#63b8ff" points="720.09,-69.07 729.88,-65.03 719.71,-62.08 720.09,-69.07"/>
</a>
</g>
</g>
<!-- Node28 -->
<g id="Node000028" class="node">
<title>Node28</title>
<g id="a_Node000028"><a xlink:href="classcom_1_1example_1_1mybookshelf_1_1LayoutManager_1_1CustomGoalAdapter.html#abad93cc513b4470ac284a0756e1c3f65" target="_top" xlink:title=" ">
<polygon fill="white" stroke="#666666" points="643,-160 405,-160 405,-130 643,-130 643,-160"/>
<text text-anchor="start" x="413" y="-148" font-family="Helvetica,sans-Serif" font-size="10.00">com.example.mybookshelf.</text>
<text text-anchor="middle" x="524" y="-137" font-family="Helvetica,sans-Serif" font-size="10.00">LayoutManager.CustomGoalAdapter.setGoals</text>
</a>
</g>
</g>
<!-- Node8&#45;&gt;Node28 -->
<g id="edge32_Node000008_Node000028" class="edge">
<title>Node8&#45;&gt;Node28</title>
<g id="a_edge32_Node000008_Node000028"><a xlink:title=" ">
<path fill="none" stroke="#63b8ff" d="M369.3,-173.86C389.67,-170.04 411.92,-165.86 433.01,-161.9"/>
<polygon fill="#63b8ff" stroke="#63b8ff" points="433.75,-165.32 442.93,-160.04 432.45,-158.44 433.75,-165.32"/>
</a>
</g>
</g>
<!-- Node9&#45;&gt;Node8 -->
<g id="edge13_Node000009_Node000008" class="edge">
<title>Node9&#45;&gt;Node8</title>
<g id="a_edge13_Node000009_Node000008"><a xlink:title=" ">
<path fill="none" stroke="#63b8ff" d="M445.93,-222.95C415.87,-217.85 381.94,-211.35 353.78,-205.24"/>
<polygon fill="#63b8ff" stroke="#63b8ff" points="354.21,-201.75 343.69,-203.01 352.7,-208.58 354.21,-201.75"/>
</a>
</g>
</g>
<!-- Node10 -->
<g id="Node000010" class="node">
<title>Node10</title>
<g id="a_Node000010"><a xlink:href="classcom_1_1example_1_1mybookshelf_1_1Authenticator.html#a57eb5913cd07c88e3f0771b4bf88bc0c" target="_top" xlink:title=" ">
<polygon fill="white" stroke="#666666" points="890,-366 722,-366 722,-336 890,-336 890,-366"/>
<text text-anchor="start" x="730" y="-354" font-family="Helvetica,sans-Serif" font-size="10.00">com.example.mybookshelf.</text>
<text text-anchor="middle" x="806" y="-343" font-family="Helvetica,sans-Serif" font-size="10.00">Authenticator.clearStoredToken</text>
</a>
</g>
</g>
<!-- Node9&#45;&gt;Node10 -->
<g id="edge9_Node000009_Node000010" class="edge">
<title>Node9&#45;&gt;Node10</title>
<g id="a_edge9_Node000009_Node000010"><a xlink:title=" ">
<path fill="none" stroke="#63b8ff" d="M544.16,-246.26C572.11,-267.71 626.48,-306.46 679,-327 689.43,-331.08 700.62,-334.48 711.87,-337.31"/>
<polygon fill="#63b8ff" stroke="#63b8ff" points="711.22,-340.76 721.76,-339.66 712.83,-333.95 711.22,-340.76"/>
</a>
</g>
</g>
<!-- Node11 -->
<g id="Node000011" class="node">
<title>Node11</title>
<g id="a_Node000011"><a xlink:href="classcom_1_1example_1_1mybookshelf_1_1notifications_1_1NotificationScheduler.html#aaf3ebda4b3bc3da4f2c4e8cabb4a3602" target="_top" xlink:title=" ">
<polygon fill="white" stroke="#666666" points="928,-318 684,-318 684,-288 928,-288 928,-318"/>
<text text-anchor="start" x="692" y="-306" font-family="Helvetica,sans-Serif" font-size="10.00">com.example.mybookshelf.notifications.</text>
<text text-anchor="middle" x="806" y="-295" font-family="Helvetica,sans-Serif" font-size="10.00">NotificationScheduler.getDailyNotificationHour</text>
</a>
</g>
</g>
<!-- Node9&#45;&gt;Node11 -->
<g id="edge10_Node000009_Node000011" class="edge">
<title>Node9&#45;&gt;Node11</title>
<g id="a_edge10_Node000009_Node000011"><a xlink:title=" ">
<path fill="none" stroke="#63b8ff" d="M568.77,-246.1C599.38,-256.31 641.37,-269.59 679,-279 688.74,-281.44 698.96,-283.76 709.18,-285.93"/>
<polygon fill="#63b8ff" stroke="#63b8ff" points="708.47,-289.36 718.97,-287.97 709.9,-282.51 708.47,-289.36"/>
</a>
</g>
</g>
<!-- Node12 -->
<g id="Node000012" class="node">
<title>Node12</title>
<g id="a_Node000012"><a xlink:href="classcom_1_1example_1_1mybookshelf_1_1notifications_1_1NotificationScheduler.html#ad29a9938277c2a671b0399cdc84c7844" target="_top" xlink:title=" ">
<polygon fill="white" stroke="#666666" points="933,-270 679,-270 679,-240 933,-240 933,-270"/>
<text text-anchor="start" x="687" y="-258" font-family="Helvetica,sans-Serif" font-size="10.00">com.example.mybookshelf.notifications.</text>
<text text-anchor="middle" x="806" y="-247" font-family="Helvetica,sans-Serif" font-size="10.00">NotificationScheduler.getDailyNotificationMinute</text>
</a>
</g>
</g>
<!-- Node9&#45;&gt;Node12 -->
<g id="edge11_Node000009_Node000012" class="edge">
<title>Node9&#45;&gt;Node12</title>
<g id="a_edge11_Node000009_Node000012"><a xlink:title=" ">
<path fill="none" stroke="#63b8ff" d="M602.25,-237.62C622.91,-239.39 645.87,-241.36 668.69,-243.32"/>
<polygon fill="#63b8ff" stroke="#63b8ff" points="668.54,-246.82 678.81,-244.18 669.14,-239.84 668.54,-246.82"/>
</a>
</g>
</g>
<!-- Node13 -->
<g id="Node000013" class="node">
<title>Node13</title>
<g id="a_Node000013"><a xlink:href="classcom_1_1example_1_1mybookshelf_1_1notifications_1_1NotificationScheduler.html#ac8a096801252bd85cf58f0b4ded28ebe" target="_top" xlink:title=" ">
<polygon fill="white" stroke="#666666" points="928,-222 684,-222 684,-192 928,-192 928,-222"/>
<text text-anchor="start" x="692" y="-210" font-family="Helvetica,sans-Serif" font-size="10.00">com.example.mybookshelf.notifications.</text>
<text text-anchor="middle" x="806" y="-199" font-family="Helvetica,sans-Serif" font-size="10.00">NotificationScheduler.isDailyNotificationActive</text>
</a>
</g>
</g>
<!-- Node9&#45;&gt;Node13 -->
<g id="edge12_Node000009_Node000013" class="edge">
<title>Node9&#45;&gt;Node13</title>
<g id="a_edge12_Node000009_Node000013"><a xlink:title=" ">
<path fill="none" stroke="#63b8ff" d="M602.25,-224.38C624.45,-222.48 649.29,-220.35 673.78,-218.25"/>
<polygon fill="#63b8ff" stroke="#63b8ff" points="674.21,-221.72 683.87,-217.38 673.61,-214.75 674.21,-221.72"/>
</a>
</g>
</g>
<!-- Node9&#45;&gt;Node14 -->
<g id="edge14_Node000009_Node000014" class="edge">
<title>Node9&#45;&gt;Node14</title>
<g id="a_edge14_Node000009_Node000014"><a xlink:title=" ">
<path fill="none" stroke="#63b8ff" d="M602.26,-221.83C616.81,-217.49 631.16,-211.18 643,-202 669.72,-181.29 651.74,-155 679,-135 687.44,-128.81 697.02,-124.09 707.04,-120.49"/>
<polygon fill="#63b8ff" stroke="#63b8ff" points="708.31,-123.76 716.77,-117.39 706.18,-117.1 708.31,-123.76"/>
</a>
</g>
</g>
<!-- Node9&#45;&gt;Node15 -->
<g id="edge16_Node000009_Node000015" class="edge">
<title>Node9&#45;&gt;Node15</title>
<g id="a_edge16_Node000009_Node000015"><a xlink:title=" ">
<path fill="none" stroke="#63b8ff" d="M569.71,-215.89C593.99,-205.8 623.04,-190.41 643,-169 670.14,-139.89 647.87,-111.8 679,-87 690.86,-77.55 705.32,-71.43 720.17,-67.54"/>
<polygon fill="#63b8ff" stroke="#63b8ff" points="720.99,-70.94 729.95,-65.29 719.42,-64.12 720.99,-70.94"/>
</a>
</g>
</g>
<!-- Node26 -->
<g id="Node000026" class="node">
<title>Node26</title>
<g id="a_Node000026"><a xlink:href="classcom_1_1example_1_1mybookshelf_1_1UIMaster.html#a5d06d53d8ef756629247fde0f557a3d1" target="_top" xlink:title=" ">
<polygon fill="white" stroke="#666666" points="882,-174 730,-174 730,-144 882,-144 882,-174"/>
<text text-anchor="start" x="738" y="-162" font-family="Helvetica,sans-Serif" font-size="10.00">com.example.mybookshelf.</text>
<text text-anchor="middle" x="806" y="-151" font-family="Helvetica,sans-Serif" font-size="10.00">UIMaster.showLogin</text>
</a>
</g>
</g>
<!-- Node9&#45;&gt;Node26 -->
<g id="edge27_Node000009_Node000026" class="edge">
<title>Node9&#45;&gt;Node26</title>
<g id="a_edge27_Node000009_Node000026"><a xlink:title=" ">
<path fill="none" stroke="#63b8ff" d="M598.25,-215.96C613.26,-212.05 628.8,-207.4 643,-202 659.91,-195.57 661.93,-188.98 679,-183 691.94,-178.47 705.94,-174.73 719.74,-171.66"/>
<polygon fill="#63b8ff" stroke="#63b8ff" points="720.68,-175.04 729.74,-169.55 719.24,-168.19 720.68,-175.04"/>
</a>
</g>
</g>
<!-- Node14&#45;&gt;Node1 -->
<g id="edge15_Node000014_Node000001" class="edge">
<title>Node14&#45;&gt;Node1</title>
<g id="a_edge15_Node000014_Node000001"><a xlink:title=" ">
<path fill="none" stroke="#63b8ff" d="M716.88,-108.53C635.61,-107.35 511.75,-108.37 405,-121 318.04,-131.29 219.56,-154.24 156.56,-170.4"/>
<polygon fill="#63b8ff" stroke="#63b8ff" points="155.57,-167.04 146.76,-172.93 157.32,-173.82 155.57,-167.04"/>
</a>
</g>
</g>
<!-- Node16 -->
<g id="Node000016" class="node">
<title>Node16</title>
<g id="a_Node000016"><a xlink:href="classcom_1_1example_1_1mybookshelf_1_1UIMaster.html#aeadc13ea946b279afce35c39bb36f3b6" target="_top" xlink:title=" ">
<polygon fill="white" stroke="#666666" points="1139,-30 987,-30 987,0 1139,0 1139,-30"/>
<text text-anchor="start" x="995" y="-18" font-family="Helvetica,sans-Serif" font-size="10.00">com.example.mybookshelf.</text>
<text text-anchor="middle" x="1063" y="-7" font-family="Helvetica,sans-Serif" font-size="10.00">UIMaster.initializeViews</text>
</a>
</g>
</g>
<!-- Node15&#45;&gt;Node16 -->
<g id="edge17_Node000015_Node000016" class="edge">
<title>Node15&#45;&gt;Node16</title>
<g id="a_edge17_Node000015_Node000016"><a xlink:title=" ">
<path fill="none" stroke="#63b8ff" d="M882.13,-48.86C911.96,-43.24 946.41,-36.76 977.13,-30.97"/>
<polygon fill="#63b8ff" stroke="#63b8ff" points="977.79,-34.41 986.97,-29.12 976.49,-27.53 977.79,-34.41"/>
</a>
</g>
</g>
<!-- Node17 -->
<g id="Node000017" class="node">
<title>Node17</title>
<g id="a_Node000017"><a xlink:href="classcom_1_1example_1_1mybookshelf_1_1UIMaster.html#a5c502183bab9192d9f38b42a28be7164" target="_top" xlink:title=" ">
<polygon fill="white" stroke="#666666" points="1144.5,-126 981.5,-126 981.5,-96 1144.5,-96 1144.5,-126"/>
<text text-anchor="start" x="989.5" y="-114" font-family="Helvetica,sans-Serif" font-size="10.00">com.example.mybookshelf.</text>
<text text-anchor="middle" x="1063" y="-103" font-family="Helvetica,sans-Serif" font-size="10.00">UIMaster.loadChartDataAsync</text>
</a>
</g>
</g>
<!-- Node15&#45;&gt;Node17 -->
<g id="edge18_Node000015_Node000017" class="edge">
<title>Node15&#45;&gt;Node17</title>
<g id="a_edge18_Node000015_Node000017"><a xlink:title=" ">
<path fill="none" stroke="#63b8ff" d="M882.13,-77.14C910.38,-82.46 942.77,-88.56 972.22,-94.1"/>
<polygon fill="#63b8ff" stroke="#63b8ff" points="971.61,-97.55 982.08,-95.96 972.9,-90.67 971.61,-97.55"/>
</a>
</g>
</g>
<!-- Node25 -->
<g id="Node000025" class="node">
<title>Node25</title>
<g id="a_Node000025"><a xlink:href="classcom_1_1example_1_1mybookshelf_1_1UIMaster.html#a3bb75047e98f0333fa2fdfd173bc80b0" target="_top" xlink:title=" ">
<polygon fill="white" stroke="#666666" points="1157,-78 969,-78 969,-48 1157,-48 1157,-78"/>
<text text-anchor="start" x="977" y="-66" font-family="Helvetica,sans-Serif" font-size="10.00">com.example.mybookshelf.</text>
<text text-anchor="middle" x="1063" y="-55" font-family="Helvetica,sans-Serif" font-size="10.00">UIMaster.setupNavigationListeners</text>
</a>
</g>
</g>
<!-- Node15&#45;&gt;Node25 -->
<g id="edge26_Node000015_Node000025" class="edge">
<title>Node15&#45;&gt;Node25</title>
<g id="a_edge26_Node000015_Node000025"><a xlink:title=" ">
<path fill="none" stroke="#63b8ff" d="M882.13,-63C906.12,-63 933.11,-63 958.74,-63"/>
<polygon fill="#63b8ff" stroke="#63b8ff" points="958.87,-66.5 968.87,-63 958.87,-59.5 958.87,-66.5"/>
</a>
</g>
</g>
<!-- Node18 -->
<g id="Node000018" class="node">
<title>Node18</title>
<g id="a_Node000018"><a xlink:href="classcom_1_1example_1_1mybookshelf_1_1UIMaster.html#a1d0b44fba73323953ffbbf69f4f3f4cb" target="_top" xlink:title=" ">
<polygon fill="white" stroke="#666666" points="1346.5,-150 1194.5,-150 1194.5,-120 1346.5,-120 1346.5,-150"/>
<text text-anchor="start" x="1202.5" y="-138" font-family="Helvetica,sans-Serif" font-size="10.00">com.example.mybookshelf.</text>
<text text-anchor="middle" x="1270.5" y="-127" font-family="Helvetica,sans-Serif" font-size="10.00">UIMaster.setupChart</text>
</a>
</g>
</g>
<!-- Node17&#45;&gt;Node18 -->
<g id="edge19_Node000017_Node000018" class="edge">
<title>Node17&#45;&gt;Node18</title>
<g id="a_edge19_Node000017_Node000018"><a xlink:title=" ">
<path fill="none" stroke="#63b8ff" d="M1144.63,-120.42C1157.71,-121.94 1171.3,-123.53 1184.48,-125.07"/>
<polygon fill="#63b8ff" stroke="#63b8ff" points="1184.13,-128.55 1194.47,-126.24 1184.94,-121.6 1184.13,-128.55"/>
</a>
</g>
</g>
<!-- Node24 -->
<g id="Node000024" class="node">
<title>Node24</title>
<g id="a_Node000024"><a xlink:href="classcom_1_1example_1_1mybookshelf_1_1UIMaster.html#a3beb8f5e82c56206227f83e05d2e2dba" target="_top" xlink:title=" ">
<polygon fill="white" stroke="#666666" points="1348,-102 1193,-102 1193,-72 1348,-72 1348,-102"/>
<text text-anchor="start" x="1201" y="-90" font-family="Helvetica,sans-Serif" font-size="10.00">com.example.mybookshelf.</text>
<text text-anchor="middle" x="1270.5" y="-79" font-family="Helvetica,sans-Serif" font-size="10.00">UIMaster.showErrorMessage</text>
</a>
</g>
</g>
<!-- Node17&#45;&gt;Node24 -->
<g id="edge25_Node000017_Node000024" class="edge">
<title>Node17&#45;&gt;Node24</title>
<g id="a_edge25_Node000017_Node000024"><a xlink:title=" ">
<path fill="none" stroke="#63b8ff" d="M1144.63,-101.58C1157.14,-100.12 1170.11,-98.61 1182.75,-97.13"/>
<polygon fill="#63b8ff" stroke="#63b8ff" points="1183.27,-100.59 1192.8,-95.96 1182.46,-93.64 1183.27,-100.59"/>
</a>
</g>
</g>
<!-- Node19 -->
<g id="Node000019" class="node">
<title>Node19</title>
<g id="a_Node000019"><a xlink:href="classcom_1_1example_1_1mybookshelf_1_1UIMaster.html#a66cf6ce29c43e6db34be85ae9990c102" target="_top" xlink:title=" ">
<polygon fill="white" stroke="#666666" points="1553,-246 1401,-246 1401,-216 1553,-216 1553,-246"/>
<text text-anchor="start" x="1409" y="-234" font-family="Helvetica,sans-Serif" font-size="10.00">com.example.mybookshelf.</text>
<text text-anchor="middle" x="1477" y="-223" font-family="Helvetica,sans-Serif" font-size="10.00">UIMaster.configureAxes</text>
</a>
</g>
</g>
<!-- Node18&#45;&gt;Node19 -->
<g id="edge20_Node000018_Node000019" class="edge">
<title>Node18&#45;&gt;Node19</title>
<g id="a_edge20_Node000018_Node000019"><a xlink:title=" ">
<path fill="none" stroke="#63b8ff" d="M1290.75,-150.01C1312.34,-166.19 1348.94,-191.67 1384,-207 1388.7,-209.06 1393.62,-210.97 1398.62,-212.74"/>
<polygon fill="#63b8ff" stroke="#63b8ff" points="1397.74,-216.13 1408.34,-215.97 1399.95,-209.49 1397.74,-216.13"/>
</a>
</g>
</g>
<!-- Node20 -->
<g id="Node000020" class="node">
<title>Node20</title>
<g id="a_Node000020"><a xlink:href="classcom_1_1example_1_1mybookshelf_1_1UIMaster.html#ae589c66b6b1826db14cd0185e2453c12" target="_top" xlink:title=" ">
<polygon fill="white" stroke="#666666" points="1553,-198 1401,-198 1401,-168 1553,-168 1553,-198"/>
<text text-anchor="start" x="1409" y="-186" font-family="Helvetica,sans-Serif" font-size="10.00">com.example.mybookshelf.</text>
<text text-anchor="middle" x="1477" y="-175" font-family="Helvetica,sans-Serif" font-size="10.00">UIMaster.configureChart</text>
</a>
</g>
</g>
<!-- Node18&#45;&gt;Node20 -->
<g id="edge21_Node000018_Node000020" class="edge">
<title>Node18&#45;&gt;Node20</title>
<g id="a_edge21_Node000018_Node000020"><a xlink:title=" ">
<path fill="none" stroke="#63b8ff" d="M1335.64,-150.06C1356.77,-155.01 1380.43,-160.57 1402.22,-165.68"/>
<polygon fill="#63b8ff" stroke="#63b8ff" points="1401.55,-169.12 1412.08,-168 1403.15,-162.31 1401.55,-169.12"/>
</a>
</g>
</g>
<!-- Node21 -->
<g id="Node000021" class="node">
<title>Node21</title>
<g id="a_Node000021"><a xlink:href="classcom_1_1example_1_1mybookshelf_1_1UIMaster.html#a2f446043c1019868262b5e49ddb58609" target="_top" xlink:title=" ">
<polygon fill="white" stroke="#666666" points="1566,-150 1388,-150 1388,-120 1566,-120 1566,-150"/>
<text text-anchor="start" x="1396" y="-138" font-family="Helvetica,sans-Serif" font-size="10.00">com.example.mybookshelf.</text>
<text text-anchor="middle" x="1477" y="-127" font-family="Helvetica,sans-Serif" font-size="10.00">UIMaster.convertMinutesToHours</text>
</a>
</g>
</g>
<!-- Node18&#45;&gt;Node21 -->
<g id="edge22_Node000018_Node000021" class="edge">
<title>Node18&#45;&gt;Node21</title>
<g id="a_edge22_Node000018_Node000021"><a xlink:title=" ">
<path fill="none" stroke="#63b8ff" d="M1346.78,-135C1356.77,-135 1367.13,-135 1377.45,-135"/>
<polygon fill="#63b8ff" stroke="#63b8ff" points="1377.73,-138.5 1387.73,-135 1377.73,-131.5 1377.73,-138.5"/>
</a>
</g>
</g>
<!-- Node22 -->
<g id="Node000022" class="node">
<title>Node22</title>
<g id="a_Node000022"><a xlink:href="classcom_1_1example_1_1mybookshelf_1_1UIMaster.html#a5368b8b93b9216d91a256a2302ea04c8" target="_top" xlink:title=" ">
<polygon fill="white" stroke="#666666" points="1570,-102 1384,-102 1384,-72 1570,-72 1570,-102"/>
<text text-anchor="start" x="1392" y="-90" font-family="Helvetica,sans-Serif" font-size="10.00">com.example.mybookshelf.</text>
<text text-anchor="middle" x="1477" y="-79" font-family="Helvetica,sans-Serif" font-size="10.00">UIMaster.displayTotalReadingTime</text>
</a>
</g>
</g>
<!-- Node18&#45;&gt;Node22 -->
<g id="edge23_Node000018_Node000022" class="edge">
<title>Node18&#45;&gt;Node22</title>
<g id="a_edge23_Node000018_Node000022"><a xlink:title=" ">
<path fill="none" stroke="#63b8ff" d="M1335.64,-119.94C1356.77,-114.99 1380.43,-109.43 1402.22,-104.32"/>
<polygon fill="#63b8ff" stroke="#63b8ff" points="1403.15,-107.69 1412.08,-102 1401.55,-100.88 1403.15,-107.69"/>
</a>
</g>
</g>
<!-- Node23 -->
<g id="Node000023" class="node">
<title>Node23</title>
<g id="a_Node000023"><a xlink:href="classcom_1_1example_1_1mybookshelf_1_1UIMaster.html#a897a27ba41fe604acf9472257ad18685" target="_top" xlink:title=" ">
<polygon fill="white" stroke="#666666" points="1553,-54 1401,-54 1401,-24 1553,-24 1553,-54"/>
<text text-anchor="start" x="1409" y="-42" font-family="Helvetica,sans-Serif" font-size="10.00">com.example.mybookshelf.</text>
<text text-anchor="middle" x="1477" y="-31" font-family="Helvetica,sans-Serif" font-size="10.00">UIMaster.filterValidEntries</text>
</a>
</g>
</g>
<!-- Node18&#45;&gt;Node23 -->
<g id="edge24_Node000018_Node000023" class="edge">
<title>Node18&#45;&gt;Node23</title>
<g id="a_edge24_Node000018_Node000023"><a xlink:title=" ">
<path fill="none" stroke="#63b8ff" d="M1332.1,-119.98C1337.71,-117.43 1343.11,-114.46 1348,-111 1369.77,-95.6 1361.86,-77.86 1384,-63 1386.44,-61.36 1388.99,-59.83 1391.61,-58.41"/>
<polygon fill="#63b8ff" stroke="#63b8ff" points="1393.33,-61.47 1400.81,-53.96 1390.28,-55.17 1393.33,-61.47"/>
</a>
</g>
</g>
<!-- Node27 -->
<g id="Node000027" class="node">
<title>Node27</title>
<g id="a_Node000027"><a xlink:href="classcom_1_1example_1_1mybookshelf_1_1UIMaster.html#a5f5bae724e7f3d3de15486430b3bc8c1" target="_top" xlink:title=" ">
<polygon fill="white" stroke="#666666" points="1139,-174 987,-174 987,-144 1139,-144 1139,-174"/>
<text text-anchor="start" x="995" y="-162" font-family="Helvetica,sans-Serif" font-size="10.00">com.example.mybookshelf.</text>
<text text-anchor="middle" x="1063" y="-151" font-family="Helvetica,sans-Serif" font-size="10.00">UIMaster.showRegister</text>
</a>
</g>
</g>
<!-- Node26&#45;&gt;Node27 -->
<g id="edge28_Node000026_Node000027" class="edge">
<title>Node26&#45;&gt;Node27</title>
<g id="a_edge28_Node000026_Node000027"><a xlink:title=" ">
<path fill="none" stroke="#63b8ff" d="M882.13,-152.78C911.83,-152.14 946.11,-152.08 976.74,-152.59"/>
<polygon fill="#63b8ff" stroke="#63b8ff" points="976.9,-156.09 986.97,-152.79 977.04,-149.1 976.9,-156.09"/>
</a>
</g>
</g>
<!-- Node27&#45;&gt;Node26 -->
<g id="edge29_Node000027_Node000026" class="edge">
<title>Node27&#45;&gt;Node26</title>
<g id="a_edge29_Node000027_Node000026"><a xlink:title=" ">
<path fill="none" stroke="#63b8ff" d="M986.97,-165.21C957.28,-165.86 922.99,-165.92 892.36,-165.41"/>
<polygon fill="#63b8ff" stroke="#63b8ff" points="892.19,-161.91 882.13,-165.22 892.06,-168.91 892.19,-161.91"/>
</a>
</g>
</g>
</g>
</svg>
