<?xml version="1.0" encoding="UTF-8" standalone="no"?>
<!DOCTYPE svg PUBLIC "-//W3C//DTD SVG 1.1//EN"
 "http://www.w3.org/Graphics/SVG/1.1/DTD/svg11.dtd">
<!-- Generated by graphviz version 2.43.0 (0)
 -->
<!-- Title: com.example.mybookshelf.UIMaster.navigateToStats Pages: 1 -->
<svg width="1347pt" height="199pt"
 viewBox="0.00 0.00 1347.00 199.41" xmlns="http://www.w3.org/2000/svg" xmlns:xlink="http://www.w3.org/1999/xlink">
<g id="graph0" class="graph" transform="scale(1 1) rotate(0) translate(4 195.41)">
<title>com.example.mybookshelf.UIMaster.navigateToStats</title>
<!-- Node1 -->
<g id="Node000001" class="node">
<title>Node1</title>
<g id="a_Node000001"><a xlink:title=" ">
<polygon fill="#999999" stroke="#666666" points="1339,-113.41 1187,-113.41 1187,-83.41 1339,-83.41 1339,-113.41"/>
<text text-anchor="start" x="1195" y="-101.41" font-family="Helvetica,sans-Serif" font-size="10.00">com.example.mybookshelf.</text>
<text text-anchor="middle" x="1263" y="-90.41" font-family="Helvetica,sans-Serif" font-size="10.00">UIMaster.navigateToStats</text>
</a>
</g>
</g>
<!-- Node2 -->
<g id="Node000002" class="node">
<title>Node2</title>
<g id="a_Node000002"><a xlink:href="classcom_1_1example_1_1mybookshelf_1_1UIMaster.html#ac2a608fcf86d3dbe14b4684dbbaf1431" target="_top" xlink:title=" ">
<polygon fill="white" stroke="#666666" points="340,-146.41 188,-146.41 188,-116.41 340,-116.41 340,-146.41"/>
<text text-anchor="start" x="196" y="-134.41" font-family="Helvetica,sans-Serif" font-size="10.00">com.example.mybookshelf.</text>
<text text-anchor="middle" x="264" y="-123.41" font-family="Helvetica,sans-Serif" font-size="10.00">UIMaster.navigateToDetails</text>
</a>
</g>
</g>
<!-- Node1&#45;&gt;Node2 -->
<g id="edge1_Node000001_Node000002" class="edge">
<title>Node1&#45;&gt;Node2</title>
<g id="a_edge1_Node000001_Node000002"><a xlink:title=" ">
<path fill="none" stroke="#63b8ff" d="M1216.8,-117.15C1147.07,-144.31 1008.51,-191.41 886,-191.41 886,-191.41 886,-191.41 679.5,-191.41 554.25,-191.41 409.9,-164.25 328.85,-146.47"/>
<polygon fill="#63b8ff" stroke="#63b8ff" points="1218.15,-120.38 1226.17,-113.46 1215.58,-113.87 1218.15,-120.38"/>
</a>
</g>
</g>
<!-- Node4 -->
<g id="Node000004" class="node">
<title>Node4</title>
<g id="a_Node000004"><a xlink:href="classcom_1_1example_1_1mybookshelf_1_1UIMaster.html#ad30bff41c8ec833af2293c0b6c8b47b2" target="_top" xlink:title=" ">
<polygon fill="white" stroke="#666666" points="1151,-92.41 999,-92.41 999,-62.41 1151,-62.41 1151,-92.41"/>
<text text-anchor="start" x="1007" y="-80.41" font-family="Helvetica,sans-Serif" font-size="10.00">com.example.mybookshelf.</text>
<text text-anchor="middle" x="1075" y="-69.41" font-family="Helvetica,sans-Serif" font-size="10.00">UIMaster.navigateToGoals</text>
</a>
</g>
</g>
<!-- Node1&#45;&gt;Node4 -->
<g id="edge3_Node000001_Node000004" class="edge">
<title>Node1&#45;&gt;Node4</title>
<g id="a_edge3_Node000001_Node000004"><a xlink:title=" ">
<path fill="none" stroke="#63b8ff" d="M1176.85,-88.8C1168.26,-87.83 1159.57,-86.85 1151.1,-85.89"/>
<polygon fill="#63b8ff" stroke="#63b8ff" points="1176.55,-92.29 1186.88,-89.93 1177.34,-85.33 1176.55,-92.29"/>
</a>
</g>
</g>
<!-- Node5 -->
<g id="Node000005" class="node">
<title>Node5</title>
<g id="a_Node000005"><a xlink:href="classcom_1_1example_1_1mybookshelf_1_1UIMaster.html#ac859db60f9068e6a87b633ef697d4d0f" target="_top" xlink:title=" ">
<polygon fill="white" stroke="#666666" points="963,-135.41 807,-135.41 807,-105.41 963,-105.41 963,-135.41"/>
<text text-anchor="start" x="815" y="-123.41" font-family="Helvetica,sans-Serif" font-size="10.00">com.example.mybookshelf.</text>
<text text-anchor="middle" x="885" y="-112.41" font-family="Helvetica,sans-Serif" font-size="10.00">UIMaster.navigateToSettings</text>
</a>
</g>
</g>
<!-- Node1&#45;&gt;Node5 -->
<g id="edge14_Node000001_Node000005" class="edge">
<title>Node1&#45;&gt;Node5</title>
<g id="a_edge14_Node000001_Node000005"><a xlink:title=" ">
<path fill="none" stroke="#63b8ff" d="M1176.73,-103.4C1112.59,-107.15 1025.43,-112.25 963.32,-115.89"/>
<polygon fill="#63b8ff" stroke="#63b8ff" points="1177.04,-106.89 1186.81,-102.81 1176.63,-99.9 1177.04,-106.89"/>
</a>
</g>
</g>
<!-- Node6 -->
<g id="Node000006" class="node">
<title>Node6</title>
<g id="a_Node000006"><a xlink:href="classcom_1_1example_1_1mybookshelf_1_1UIMaster.html#aa6aad8404432bdaf23db9b41e99a6ed5" target="_top" xlink:title=" ">
<polygon fill="white" stroke="#666666" points="771,-49.41 590,-49.41 590,-19.41 771,-19.41 771,-49.41"/>
<text text-anchor="start" x="598" y="-37.41" font-family="Helvetica,sans-Serif" font-size="10.00">com.example.mybookshelf.</text>
<text text-anchor="middle" x="680.5" y="-26.41" font-family="Helvetica,sans-Serif" font-size="10.00">UIMaster.setupNavigationButtons</text>
</a>
</g>
</g>
<!-- Node1&#45;&gt;Node6 -->
<g id="edge15_Node000001_Node000006" class="edge">
<title>Node1&#45;&gt;Node6</title>
<g id="a_edge15_Node000001_Node000006"><a xlink:title=" ">
<path fill="none" stroke="#63b8ff" d="M1223.08,-78.98C1202.24,-69.52 1175.8,-59 1151,-53.41 1021.29,-24.16 866.41,-24.45 771.01,-28.53"/>
<polygon fill="#63b8ff" stroke="#63b8ff" points="1221.7,-82.2 1232.24,-83.23 1224.64,-75.85 1221.7,-82.2"/>
</a>
</g>
</g>
<!-- Node3 -->
<g id="Node000003" class="node">
<title>Node3</title>
<g id="a_Node000003"><a xlink:href="classcom_1_1example_1_1mybookshelf_1_1UIMaster.html#a1533d0ed2384f2ec729cfcec7bd9a25f" target="_top" xlink:title=" ">
<polygon fill="white" stroke="#666666" points="152,-146.41 0,-146.41 0,-116.41 152,-116.41 152,-146.41"/>
<text text-anchor="start" x="8" y="-134.41" font-family="Helvetica,sans-Serif" font-size="10.00">com.example.mybookshelf.</text>
<text text-anchor="middle" x="76" y="-123.41" font-family="Helvetica,sans-Serif" font-size="10.00">UIMaster.createBookBox</text>
</a>
</g>
</g>
<!-- Node2&#45;&gt;Node3 -->
<g id="edge2_Node000002_Node000003" class="edge">
<title>Node2&#45;&gt;Node3</title>
<g id="a_edge2_Node000002_Node000003"><a xlink:title=" ">
<path fill="none" stroke="#63b8ff" d="M177.85,-131.41C169.26,-131.41 160.57,-131.41 152.1,-131.41"/>
<polygon fill="#63b8ff" stroke="#63b8ff" points="177.88,-134.91 187.88,-131.41 177.88,-127.91 177.88,-134.91"/>
</a>
</g>
</g>
<!-- Node4&#45;&gt;Node2 -->
<g id="edge4_Node000004_Node000002" class="edge">
<title>Node4&#45;&gt;Node2</title>
<g id="a_edge4_Node000004_Node000002"><a xlink:title=" ">
<path fill="none" stroke="#63b8ff" d="M1021.53,-59.21C1003.18,-53.28 982.32,-47.04 963,-42.41 801.2,-3.62 754.88,11.9 590,-10.41 492.23,-23.64 467.28,-31.97 376,-69.41 344.14,-82.48 309.89,-102.64 288,-116.4"/>
<polygon fill="#63b8ff" stroke="#63b8ff" points="1020.58,-62.57 1031.17,-62.36 1022.75,-55.92 1020.58,-62.57"/>
</a>
</g>
</g>
<!-- Node4&#45;&gt;Node5 -->
<g id="edge5_Node000004_Node000005" class="edge">
<title>Node4&#45;&gt;Node5</title>
<g id="a_edge5_Node000004_Node000005"><a xlink:title=" ">
<path fill="none" stroke="#63b8ff" d="M989.03,-90.12C967.44,-94.93 945.21,-100.36 926.95,-105.36"/>
<polygon fill="#63b8ff" stroke="#63b8ff" points="989.87,-93.52 998.89,-87.96 988.37,-86.68 989.87,-93.52"/>
</a>
</g>
</g>
<!-- Node4&#45;&gt;Node6 -->
<g id="edge13_Node000004_Node000006" class="edge">
<title>Node4&#45;&gt;Node6</title>
<g id="a_edge13_Node000004_Node000006"><a xlink:title=" ">
<path fill="none" stroke="#63b8ff" d="M988.65,-66.45C979.99,-65.39 971.32,-64.36 963,-63.41 898.94,-56.07 826.57,-48.63 771.25,-43.13"/>
<polygon fill="#63b8ff" stroke="#63b8ff" points="988.44,-69.95 998.8,-67.69 989.3,-63 988.44,-69.95"/>
</a>
</g>
</g>
<!-- Node5&#45;&gt;Node2 -->
<g id="edge6_Node000005_Node000002" class="edge">
<title>Node5&#45;&gt;Node2</title>
<g id="a_edge6_Node000005_Node000002"><a xlink:title=" ">
<path fill="none" stroke="#63b8ff" d="M796.8,-121.96C674.84,-124.13 455.37,-128.03 340.21,-130.07"/>
<polygon fill="#63b8ff" stroke="#63b8ff" points="796.92,-125.46 806.85,-121.78 796.79,-118.46 796.92,-125.46"/>
</a>
</g>
</g>
<!-- Node5&#45;&gt;Node4 -->
<g id="edge7_Node000005_Node000004" class="edge">
<title>Node5&#45;&gt;Node4</title>
<g id="a_edge7_Node000005_Node000004"><a xlink:title=" ">
<path fill="none" stroke="#63b8ff" d="M973.02,-107.24C994.02,-102.54 1015.49,-97.27 1033.21,-92.42"/>
<polygon fill="#63b8ff" stroke="#63b8ff" points="972.1,-103.86 963.09,-109.43 973.61,-110.69 972.1,-103.86"/>
</a>
</g>
</g>
<!-- Node5&#45;&gt;Node6 -->
<g id="edge8_Node000005_Node000006" class="edge">
<title>Node5&#45;&gt;Node6</title>
<g id="a_edge8_Node000005_Node000006"><a xlink:title=" ">
<path fill="none" stroke="#63b8ff" d="M838.76,-101.2C801.96,-85.57 750.74,-63.81 716.88,-49.44"/>
<polygon fill="#63b8ff" stroke="#63b8ff" points="837.69,-104.55 848.26,-105.23 840.43,-98.1 837.69,-104.55"/>
</a>
</g>
</g>
<!-- Node7 -->
<g id="Node000007" class="node">
<title>Node7</title>
<g id="a_Node000007"><a xlink:href="classcom_1_1example_1_1mybookshelf_1_1UIMaster.html#ad609d5e0b54e87afcb60aed6c66a792e" target="_top" xlink:title=" ">
<polygon fill="white" stroke="#666666" points="554,-108.41 376,-108.41 376,-78.41 554,-78.41 554,-108.41"/>
<text text-anchor="start" x="384" y="-96.41" font-family="Helvetica,sans-Serif" font-size="10.00">com.example.mybookshelf.</text>
<text text-anchor="middle" x="465" y="-85.41" font-family="Helvetica,sans-Serif" font-size="10.00">UIMaster.navigateToStartingPage</text>
</a>
</g>
</g>
<!-- Node6&#45;&gt;Node7 -->
<g id="edge9_Node000006_Node000007" class="edge">
<title>Node6&#45;&gt;Node7</title>
<g id="a_edge9_Node000006_Node000007"><a xlink:title=" ">
<path fill="none" stroke="#63b8ff" d="M615.04,-52.22C584.81,-60.58 549.17,-70.43 520.33,-78.4"/>
<polygon fill="#63b8ff" stroke="#63b8ff" points="616.37,-55.49 625.07,-49.45 614.5,-48.74 616.37,-55.49"/>
</a>
</g>
</g>
<!-- Node7&#45;&gt;Node2 -->
<g id="edge10_Node000007_Node000002" class="edge">
<title>Node7&#45;&gt;Node2</title>
<g id="a_edge10_Node000007_Node000002"><a xlink:title=" ">
<path fill="none" stroke="#63b8ff" d="M375.5,-110.31C363.71,-112.56 351.7,-114.85 340.16,-117.06"/>
<polygon fill="#63b8ff" stroke="#63b8ff" points="376.18,-113.74 385.35,-108.43 374.87,-106.87 376.18,-113.74"/>
</a>
</g>
</g>
<!-- Node7&#45;&gt;Node4 -->
<g id="edge11_Node000007_Node000004" class="edge">
<title>Node7&#45;&gt;Node4</title>
<g id="a_edge11_Node000007_Node000004"><a xlink:title=" ">
<path fill="none" stroke="#63b8ff" d="M564.05,-90.83C685.34,-87.64 889.21,-82.27 998.84,-79.39"/>
<polygon fill="#63b8ff" stroke="#63b8ff" points="563.92,-87.33 554.02,-91.09 564.1,-94.33 563.92,-87.33"/>
</a>
</g>
</g>
<!-- Node7&#45;&gt;Node5 -->
<g id="edge12_Node000007_Node000005" class="edge">
<title>Node7&#45;&gt;Node5</title>
<g id="a_edge12_Node000007_Node000005"><a xlink:title=" ">
<path fill="none" stroke="#63b8ff" d="M564.56,-99.78C638.6,-104.56 738.58,-111.02 806.85,-115.43"/>
<polygon fill="#63b8ff" stroke="#63b8ff" points="564.49,-96.27 554.29,-99.11 564.04,-103.25 564.49,-96.27"/>
</a>
</g>
</g>
</g>
</svg>
