<?xml version="1.0" encoding="UTF-8" standalone="no"?>
<!DOCTYPE svg PUBLIC "-//W3C//DTD SVG 1.1//EN"
 "http://www.w3.org/Graphics/SVG/1.1/DTD/svg11.dtd">
<!-- Generated by graphviz version 2.43.0 (0)
 -->
<!-- Title: com.example.mybookshelf.UIMaster.fillSpinners Pages: 1 -->
<svg width="1535pt" height="124pt"
 viewBox="0.00 0.00 1535.00 124.00" xmlns="http://www.w3.org/2000/svg" xmlns:xlink="http://www.w3.org/1999/xlink">
<g id="graph0" class="graph" transform="scale(1 1) rotate(0) translate(4 120)">
<title>com.example.mybookshelf.UIMaster.fillSpinners</title>
<!-- Node1 -->
<g id="Node000001" class="node">
<title>Node1</title>
<g id="a_Node000001"><a xlink:title=" ">
<polygon fill="#999999" stroke="#666666" points="1527,-73 1375,-73 1375,-43 1527,-43 1527,-73"/>
<text text-anchor="start" x="1383" y="-61" font-family="Helvetica,sans-Serif" font-size="10.00">com.example.mybookshelf.</text>
<text text-anchor="middle" x="1451" y="-50" font-family="Helvetica,sans-Serif" font-size="10.00">UIMaster.fillSpinners</text>
</a>
</g>
</g>
<!-- Node2 -->
<g id="Node000002" class="node">
<title>Node2</title>
<g id="a_Node000002"><a xlink:href="classcom_1_1example_1_1mybookshelf_1_1UIMaster.html#a4636b546c38ace5aedccfd989edc0bb1" target="_top" xlink:title=" ">
<polygon fill="white" stroke="#666666" points="1339,-73 1187,-73 1187,-43 1339,-43 1339,-73"/>
<text text-anchor="start" x="1195" y="-61" font-family="Helvetica,sans-Serif" font-size="10.00">com.example.mybookshelf.</text>
<text text-anchor="middle" x="1263" y="-50" font-family="Helvetica,sans-Serif" font-size="10.00">UIMaster.handleListSearch</text>
</a>
</g>
</g>
<!-- Node1&#45;&gt;Node2 -->
<g id="edge1_Node000001_Node000002" class="edge">
<title>Node1&#45;&gt;Node2</title>
<g id="a_edge1_Node000001_Node000002"><a xlink:title=" ">
<path fill="none" stroke="#63b8ff" d="M1364.85,-58C1356.26,-58 1347.57,-58 1339.1,-58"/>
<polygon fill="#63b8ff" stroke="#63b8ff" points="1364.88,-61.5 1374.88,-58 1364.88,-54.5 1364.88,-61.5"/>
</a>
</g>
</g>
<!-- Node3 -->
<g id="Node000003" class="node">
<title>Node3</title>
<g id="a_Node000003"><a xlink:href="classcom_1_1example_1_1mybookshelf_1_1UIMaster.html#aa6aad8404432bdaf23db9b41e99a6ed5" target="_top" xlink:title=" ">
<polygon fill="white" stroke="#666666" points="1151,-73 970,-73 970,-43 1151,-43 1151,-73"/>
<text text-anchor="start" x="978" y="-61" font-family="Helvetica,sans-Serif" font-size="10.00">com.example.mybookshelf.</text>
<text text-anchor="middle" x="1060.5" y="-50" font-family="Helvetica,sans-Serif" font-size="10.00">UIMaster.setupNavigationButtons</text>
</a>
</g>
</g>
<!-- Node2&#45;&gt;Node3 -->
<g id="edge2_Node000002_Node000003" class="edge">
<title>Node2&#45;&gt;Node3</title>
<g id="a_edge2_Node000002_Node000003"><a xlink:title=" ">
<path fill="none" stroke="#63b8ff" d="M1176.55,-58C1168.1,-58 1159.5,-58 1151.01,-58"/>
<polygon fill="#63b8ff" stroke="#63b8ff" points="1176.77,-61.5 1186.77,-58 1176.77,-54.5 1176.77,-61.5"/>
</a>
</g>
</g>
<!-- Node4 -->
<g id="Node000004" class="node">
<title>Node4</title>
<g id="a_Node000004"><a xlink:href="classcom_1_1example_1_1mybookshelf_1_1UIMaster.html#ad609d5e0b54e87afcb60aed6c66a792e" target="_top" xlink:title=" ">
<polygon fill="white" stroke="#666666" points="934,-116 756,-116 756,-86 934,-86 934,-116"/>
<text text-anchor="start" x="764" y="-104" font-family="Helvetica,sans-Serif" font-size="10.00">com.example.mybookshelf.</text>
<text text-anchor="middle" x="845" y="-93" font-family="Helvetica,sans-Serif" font-size="10.00">UIMaster.navigateToStartingPage</text>
</a>
</g>
</g>
<!-- Node3&#45;&gt;Node4 -->
<g id="edge3_Node000003_Node000004" class="edge">
<title>Node3&#45;&gt;Node4</title>
<g id="a_edge3_Node000003_Node000004"><a xlink:title=" ">
<path fill="none" stroke="#63b8ff" d="M974.96,-75.03C957.01,-78.64 938.18,-82.43 920.63,-85.97"/>
<polygon fill="#63b8ff" stroke="#63b8ff" points="975.72,-78.44 984.83,-73.04 974.33,-71.58 975.72,-78.44"/>
</a>
</g>
</g>
<!-- Node5 -->
<g id="Node000005" class="node">
<title>Node5</title>
<g id="a_Node000005"><a xlink:href="classcom_1_1example_1_1mybookshelf_1_1UIMaster.html#ac2a608fcf86d3dbe14b4684dbbaf1431" target="_top" xlink:title=" ">
<polygon fill="white" stroke="#666666" points="340,-73 188,-73 188,-43 340,-43 340,-73"/>
<text text-anchor="start" x="196" y="-61" font-family="Helvetica,sans-Serif" font-size="10.00">com.example.mybookshelf.</text>
<text text-anchor="middle" x="264" y="-50" font-family="Helvetica,sans-Serif" font-size="10.00">UIMaster.navigateToDetails</text>
</a>
</g>
</g>
<!-- Node4&#45;&gt;Node5 -->
<g id="edge4_Node000004_Node000005" class="edge">
<title>Node4&#45;&gt;Node5</title>
<g id="a_edge4_Node000004_Node000005"><a xlink:title=" ">
<path fill="none" stroke="#63b8ff" d="M745.83,-102.53C650.79,-102.72 502.87,-99.58 376,-82 359.89,-79.77 342.63,-76.48 326.64,-73.05"/>
<polygon fill="#63b8ff" stroke="#63b8ff" points="746.01,-106.03 756,-102.5 745.99,-99.03 746.01,-106.03"/>
</a>
</g>
</g>
<!-- Node7 -->
<g id="Node000007" class="node">
<title>Node7</title>
<g id="a_Node000007"><a xlink:href="classcom_1_1example_1_1mybookshelf_1_1UIMaster.html#ad30bff41c8ec833af2293c0b6c8b47b2" target="_top" xlink:title=" ">
<polygon fill="white" stroke="#666666" points="720,-30 568,-30 568,0 720,0 720,-30"/>
<text text-anchor="start" x="576" y="-18" font-family="Helvetica,sans-Serif" font-size="10.00">com.example.mybookshelf.</text>
<text text-anchor="middle" x="644" y="-7" font-family="Helvetica,sans-Serif" font-size="10.00">UIMaster.navigateToGoals</text>
</a>
</g>
</g>
<!-- Node4&#45;&gt;Node7 -->
<g id="edge6_Node000004_Node000007" class="edge">
<title>Node4&#45;&gt;Node7</title>
<g id="a_edge6_Node000004_Node000007"><a xlink:title=" ">
<path fill="none" stroke="#63b8ff" d="M799.55,-81.79C763.37,-66.16 713.04,-44.4 679.77,-30.03"/>
<polygon fill="#63b8ff" stroke="#63b8ff" points="798.31,-85.07 808.88,-85.82 801.09,-78.64 798.31,-85.07"/>
</a>
</g>
</g>
<!-- Node8 -->
<g id="Node000008" class="node">
<title>Node8</title>
<g id="a_Node000008"><a xlink:href="classcom_1_1example_1_1mybookshelf_1_1UIMaster.html#ac859db60f9068e6a87b633ef697d4d0f" target="_top" xlink:title=" ">
<polygon fill="white" stroke="#666666" points="532,-73 376,-73 376,-43 532,-43 532,-73"/>
<text text-anchor="start" x="384" y="-61" font-family="Helvetica,sans-Serif" font-size="10.00">com.example.mybookshelf.</text>
<text text-anchor="middle" x="454" y="-50" font-family="Helvetica,sans-Serif" font-size="10.00">UIMaster.navigateToSettings</text>
</a>
</g>
</g>
<!-- Node4&#45;&gt;Node8 -->
<g id="edge13_Node000004_Node000008" class="edge">
<title>Node4&#45;&gt;Node8</title>
<g id="a_edge13_Node000004_Node000008"><a xlink:title=" ">
<path fill="none" stroke="#63b8ff" d="M745.68,-91.12C692.97,-85.71 626.91,-78.74 568,-72 556.41,-70.67 544.16,-69.21 532.17,-67.76"/>
<polygon fill="#63b8ff" stroke="#63b8ff" points="745.4,-94.61 755.7,-92.14 746.11,-87.64 745.4,-94.61"/>
</a>
</g>
</g>
<!-- Node6 -->
<g id="Node000006" class="node">
<title>Node6</title>
<g id="a_Node000006"><a xlink:href="classcom_1_1example_1_1mybookshelf_1_1UIMaster.html#a1533d0ed2384f2ec729cfcec7bd9a25f" target="_top" xlink:title=" ">
<polygon fill="white" stroke="#666666" points="152,-73 0,-73 0,-43 152,-43 152,-73"/>
<text text-anchor="start" x="8" y="-61" font-family="Helvetica,sans-Serif" font-size="10.00">com.example.mybookshelf.</text>
<text text-anchor="middle" x="76" y="-50" font-family="Helvetica,sans-Serif" font-size="10.00">UIMaster.createBookBox</text>
</a>
</g>
</g>
<!-- Node5&#45;&gt;Node6 -->
<g id="edge5_Node000005_Node000006" class="edge">
<title>Node5&#45;&gt;Node6</title>
<g id="a_edge5_Node000005_Node000006"><a xlink:title=" ">
<path fill="none" stroke="#63b8ff" d="M177.85,-58C169.26,-58 160.57,-58 152.1,-58"/>
<polygon fill="#63b8ff" stroke="#63b8ff" points="177.88,-61.5 187.88,-58 177.88,-54.5 177.88,-61.5"/>
</a>
</g>
</g>
<!-- Node7&#45;&gt;Node3 -->
<g id="edge12_Node000007_Node000003" class="edge">
<title>Node7&#45;&gt;Node3</title>
<g id="a_edge12_Node000007_Node000003"><a xlink:title=" ">
<path fill="none" stroke="#63b8ff" d="M730.32,-23.31C787.87,-28.98 865.53,-36.75 934,-44 945.55,-45.22 957.7,-46.54 969.71,-47.86"/>
<polygon fill="#63b8ff" stroke="#63b8ff" points="730.47,-19.81 720.17,-22.31 729.78,-26.78 730.47,-19.81"/>
</a>
</g>
</g>
<!-- Node7&#45;&gt;Node5 -->
<g id="edge7_Node000007_Node000005" class="edge">
<title>Node7&#45;&gt;Node5</title>
<g id="a_edge7_Node000007_Node000005"><a xlink:title=" ">
<path fill="none" stroke="#63b8ff" d="M557.6,-17.99C505.03,-20.59 436.38,-25.37 376,-34 360,-36.29 342.86,-39.57 326.95,-42.98"/>
<polygon fill="#63b8ff" stroke="#63b8ff" points="558.07,-21.47 567.89,-17.5 557.73,-14.48 558.07,-21.47"/>
</a>
</g>
</g>
<!-- Node7&#45;&gt;Node8 -->
<g id="edge8_Node000007_Node000008" class="edge">
<title>Node7&#45;&gt;Node8</title>
<g id="a_edge8_Node000007_Node000008"><a xlink:title=" ">
<path fill="none" stroke="#63b8ff" d="M558.03,-27.71C536.44,-32.52 514.21,-37.95 495.95,-42.95"/>
<polygon fill="#63b8ff" stroke="#63b8ff" points="558.87,-31.11 567.89,-25.55 557.37,-24.27 558.87,-31.11"/>
</a>
</g>
</g>
<!-- Node8&#45;&gt;Node3 -->
<g id="edge11_Node000008_Node000003" class="edge">
<title>Node8&#45;&gt;Node3</title>
<g id="a_edge11_Node000008_Node000003"><a xlink:title=" ">
<path fill="none" stroke="#63b8ff" d="M542.55,-58C656.61,-58 854.97,-58 969.98,-58"/>
<polygon fill="#63b8ff" stroke="#63b8ff" points="542.46,-54.5 532.46,-58 542.46,-61.5 542.46,-54.5"/>
</a>
</g>
</g>
<!-- Node8&#45;&gt;Node5 -->
<g id="edge9_Node000008_Node000005" class="edge">
<title>Node8&#45;&gt;Node5</title>
<g id="a_edge9_Node000008_Node000005"><a xlink:title=" ">
<path fill="none" stroke="#63b8ff" d="M365.91,-58C357.28,-58 348.56,-58 340.07,-58"/>
<polygon fill="#63b8ff" stroke="#63b8ff" points="365.99,-61.5 375.99,-58 365.99,-54.5 365.99,-61.5"/>
</a>
</g>
</g>
<!-- Node8&#45;&gt;Node7 -->
<g id="edge10_Node000008_Node000007" class="edge">
<title>Node8&#45;&gt;Node7</title>
<g id="a_edge10_Node000008_Node000007"><a xlink:title=" ">
<path fill="none" stroke="#63b8ff" d="M542.02,-44.83C563.02,-40.13 584.49,-34.86 602.21,-30.01"/>
<polygon fill="#63b8ff" stroke="#63b8ff" points="541.1,-41.45 532.09,-47.02 542.61,-48.28 541.1,-41.45"/>
</a>
</g>
</g>
</g>
</svg>
