<?xml version="1.0" encoding="UTF-8" standalone="no"?>
<!DOCTYPE svg PUBLIC "-//W3C//DTD SVG 1.1//EN"
 "http://www.w3.org/Graphics/SVG/1.1/DTD/svg11.dtd">
<!-- Generated by graphviz version 2.43.0 (0)
 -->
<!-- Title: com.example.mybookshelf.UIMaster.showLogin Pages: 1 -->
<svg width="1347pt" height="146pt"
 viewBox="0.00 0.00 1347.00 145.83" xmlns="http://www.w3.org/2000/svg" xmlns:xlink="http://www.w3.org/1999/xlink">
<g id="graph0" class="graph" transform="scale(1 1) rotate(0) translate(4 141.83)">
<title>com.example.mybookshelf.UIMaster.showLogin</title>
<!-- Node1 -->
<g id="Node000001" class="node">
<title>Node1</title>
<g id="a_Node000001"><a xlink:title=" ">
<polygon fill="#999999" stroke="#666666" points="1339,-51.83 1187,-51.83 1187,-21.83 1339,-21.83 1339,-51.83"/>
<text text-anchor="start" x="1195" y="-39.83" font-family="Helvetica,sans-Serif" font-size="10.00">com.example.mybookshelf.</text>
<text text-anchor="middle" x="1263" y="-28.83" font-family="Helvetica,sans-Serif" font-size="10.00">UIMaster.showLogin</text>
</a>
</g>
</g>
<!-- Node2 -->
<g id="Node000002" class="node">
<title>Node2</title>
<g id="a_Node000002"><a xlink:href="classcom_1_1example_1_1mybookshelf_1_1UIMaster.html#ac859db60f9068e6a87b633ef697d4d0f" target="_top" xlink:title=" ">
<polygon fill="white" stroke="#666666" points="1151,-99.83 995,-99.83 995,-69.83 1151,-69.83 1151,-99.83"/>
<text text-anchor="start" x="1003" y="-87.83" font-family="Helvetica,sans-Serif" font-size="10.00">com.example.mybookshelf.</text>
<text text-anchor="middle" x="1073" y="-76.83" font-family="Helvetica,sans-Serif" font-size="10.00">UIMaster.navigateToSettings</text>
</a>
</g>
</g>
<!-- Node1&#45;&gt;Node2 -->
<g id="edge1_Node000001_Node000002" class="edge">
<title>Node1&#45;&gt;Node2</title>
<g id="a_edge1_Node000001_Node000002"><a xlink:title=" ">
<path fill="none" stroke="#63b8ff" d="M1193.14,-54.41C1173.33,-59.47 1151.9,-64.94 1132.76,-69.83"/>
<polygon fill="#63b8ff" stroke="#63b8ff" points="1194.21,-57.75 1203.03,-51.89 1192.48,-50.97 1194.21,-57.75"/>
</a>
</g>
</g>
<!-- Node8 -->
<g id="Node000008" class="node">
<title>Node8</title>
<g id="a_Node000008"><a xlink:href="classcom_1_1example_1_1mybookshelf_1_1UIMaster.html#a5f5bae724e7f3d3de15486430b3bc8c1" target="_top" xlink:title=" ">
<polygon fill="white" stroke="#666666" points="1149,-51.83 997,-51.83 997,-21.83 1149,-21.83 1149,-51.83"/>
<text text-anchor="start" x="1005" y="-39.83" font-family="Helvetica,sans-Serif" font-size="10.00">com.example.mybookshelf.</text>
<text text-anchor="middle" x="1073" y="-28.83" font-family="Helvetica,sans-Serif" font-size="10.00">UIMaster.showRegister</text>
</a>
</g>
</g>
<!-- Node1&#45;&gt;Node8 -->
<g id="edge13_Node000001_Node000008" class="edge">
<title>Node1&#45;&gt;Node8</title>
<g id="a_edge13_Node000001_Node000008"><a xlink:title=" ">
<path fill="none" stroke="#63b8ff" d="M1176.65,-30.11C1167.53,-30.05 1158.3,-30.08 1149.3,-30.2"/>
<polygon fill="#63b8ff" stroke="#63b8ff" points="1176.85,-33.61 1186.89,-30.2 1176.92,-26.61 1176.85,-33.61"/>
</a>
</g>
</g>
<!-- Node3 -->
<g id="Node000003" class="node">
<title>Node3</title>
<g id="a_Node000003"><a xlink:href="classcom_1_1example_1_1mybookshelf_1_1UIMaster.html#ac2a608fcf86d3dbe14b4684dbbaf1431" target="_top" xlink:title=" ">
<polygon fill="white" stroke="#666666" points="340,-137.83 188,-137.83 188,-107.83 340,-107.83 340,-137.83"/>
<text text-anchor="start" x="196" y="-125.83" font-family="Helvetica,sans-Serif" font-size="10.00">com.example.mybookshelf.</text>
<text text-anchor="middle" x="264" y="-114.83" font-family="Helvetica,sans-Serif" font-size="10.00">UIMaster.navigateToDetails</text>
</a>
</g>
</g>
<!-- Node2&#45;&gt;Node3 -->
<g id="edge2_Node000002_Node000003" class="edge">
<title>Node2&#45;&gt;Node3</title>
<g id="a_edge2_Node000002_Node000003"><a xlink:title=" ">
<path fill="none" stroke="#63b8ff" d="M1000.82,-101.89C987.02,-104.65 972.61,-107.15 959,-108.83 735.2,-136.53 467.77,-131.22 340.08,-126.35"/>
<polygon fill="#63b8ff" stroke="#63b8ff" points="1001.66,-105.29 1010.75,-99.85 1000.25,-98.44 1001.66,-105.29"/>
</a>
</g>
</g>
<!-- Node5 -->
<g id="Node000005" class="node">
<title>Node5</title>
<g id="a_Node000005"><a xlink:href="classcom_1_1example_1_1mybookshelf_1_1UIMaster.html#ad30bff41c8ec833af2293c0b6c8b47b2" target="_top" xlink:title=" ">
<polygon fill="white" stroke="#666666" points="959,-99.83 807,-99.83 807,-69.83 959,-69.83 959,-99.83"/>
<text text-anchor="start" x="815" y="-87.83" font-family="Helvetica,sans-Serif" font-size="10.00">com.example.mybookshelf.</text>
<text text-anchor="middle" x="883" y="-76.83" font-family="Helvetica,sans-Serif" font-size="10.00">UIMaster.navigateToGoals</text>
</a>
</g>
</g>
<!-- Node2&#45;&gt;Node5 -->
<g id="edge4_Node000002_Node000005" class="edge">
<title>Node2&#45;&gt;Node5</title>
<g id="a_edge4_Node000002_Node000005"><a xlink:title=" ">
<path fill="none" stroke="#63b8ff" d="M984.91,-78.1C976.28,-78.06 967.56,-78.09 959.07,-78.2"/>
<polygon fill="#63b8ff" stroke="#63b8ff" points="984.96,-81.6 994.99,-78.18 985.02,-74.6 984.96,-81.6"/>
</a>
</g>
</g>
<!-- Node6 -->
<g id="Node000006" class="node">
<title>Node6</title>
<g id="a_Node000006"><a xlink:href="classcom_1_1example_1_1mybookshelf_1_1UIMaster.html#aa6aad8404432bdaf23db9b41e99a6ed5" target="_top" xlink:title=" ">
<polygon fill="white" stroke="#666666" points="771,-56.83 590,-56.83 590,-26.83 771,-26.83 771,-56.83"/>
<text text-anchor="start" x="598" y="-44.83" font-family="Helvetica,sans-Serif" font-size="10.00">com.example.mybookshelf.</text>
<text text-anchor="middle" x="680.5" y="-33.83" font-family="Helvetica,sans-Serif" font-size="10.00">UIMaster.setupNavigationButtons</text>
</a>
</g>
</g>
<!-- Node2&#45;&gt;Node6 -->
<g id="edge12_Node000002_Node000006" class="edge">
<title>Node2&#45;&gt;Node6</title>
<g id="a_edge12_Node000002_Node000006"><a xlink:title=" ">
<path fill="none" stroke="#63b8ff" d="M998.92,-67.74C985.69,-65.1 971.98,-62.64 959,-60.83 896.59,-52.11 825.7,-47.34 771.19,-44.76"/>
<polygon fill="#63b8ff" stroke="#63b8ff" points="998.43,-71.21 1008.93,-69.79 999.84,-64.35 998.43,-71.21"/>
</a>
</g>
</g>
<!-- Node4 -->
<g id="Node000004" class="node">
<title>Node4</title>
<g id="a_Node000004"><a xlink:href="classcom_1_1example_1_1mybookshelf_1_1UIMaster.html#a1533d0ed2384f2ec729cfcec7bd9a25f" target="_top" xlink:title=" ">
<polygon fill="white" stroke="#666666" points="152,-137.83 0,-137.83 0,-107.83 152,-107.83 152,-137.83"/>
<text text-anchor="start" x="8" y="-125.83" font-family="Helvetica,sans-Serif" font-size="10.00">com.example.mybookshelf.</text>
<text text-anchor="middle" x="76" y="-114.83" font-family="Helvetica,sans-Serif" font-size="10.00">UIMaster.createBookBox</text>
</a>
</g>
</g>
<!-- Node3&#45;&gt;Node4 -->
<g id="edge3_Node000003_Node000004" class="edge">
<title>Node3&#45;&gt;Node4</title>
<g id="a_edge3_Node000003_Node000004"><a xlink:title=" ">
<path fill="none" stroke="#63b8ff" d="M177.85,-122.83C169.26,-122.83 160.57,-122.83 152.1,-122.83"/>
<polygon fill="#63b8ff" stroke="#63b8ff" points="177.88,-126.33 187.88,-122.83 177.88,-119.33 177.88,-126.33"/>
</a>
</g>
</g>
<!-- Node5&#45;&gt;Node2 -->
<g id="edge6_Node000005_Node000002" class="edge">
<title>Node5&#45;&gt;Node2</title>
<g id="a_edge6_Node000005_Node000002"><a xlink:title=" ">
<path fill="none" stroke="#63b8ff" d="M969.12,-91.55C977.74,-91.61 986.46,-91.58 994.99,-91.48"/>
<polygon fill="#63b8ff" stroke="#63b8ff" points="969.1,-88.05 959.07,-91.46 969.03,-95.05 969.1,-88.05"/>
</a>
</g>
</g>
<!-- Node5&#45;&gt;Node3 -->
<g id="edge5_Node000005_Node000003" class="edge">
<title>Node5&#45;&gt;Node3</title>
<g id="a_edge5_Node000005_Node000003"><a xlink:title=" ">
<path fill="none" stroke="#63b8ff" d="M796.63,-90.09C675.56,-97.54 455.9,-111.07 340.48,-118.18"/>
<polygon fill="#63b8ff" stroke="#63b8ff" points="797.19,-93.56 806.96,-89.45 796.76,-86.57 797.19,-93.56"/>
</a>
</g>
</g>
<!-- Node5&#45;&gt;Node6 -->
<g id="edge7_Node000005_Node000006" class="edge">
<title>Node5&#45;&gt;Node6</title>
<g id="a_edge7_Node000005_Node000006"><a xlink:title=" ">
<path fill="none" stroke="#63b8ff" d="M801.67,-67.6C785.09,-64.05 767.76,-60.33 751.59,-56.86"/>
<polygon fill="#63b8ff" stroke="#63b8ff" points="801.36,-71.12 811.87,-69.79 802.83,-64.27 801.36,-71.12"/>
</a>
</g>
</g>
<!-- Node7 -->
<g id="Node000007" class="node">
<title>Node7</title>
<g id="a_Node000007"><a xlink:href="classcom_1_1example_1_1mybookshelf_1_1UIMaster.html#ad609d5e0b54e87afcb60aed6c66a792e" target="_top" xlink:title=" ">
<polygon fill="white" stroke="#666666" points="554,-75.83 376,-75.83 376,-45.83 554,-45.83 554,-75.83"/>
<text text-anchor="start" x="384" y="-63.83" font-family="Helvetica,sans-Serif" font-size="10.00">com.example.mybookshelf.</text>
<text text-anchor="middle" x="465" y="-52.83" font-family="Helvetica,sans-Serif" font-size="10.00">UIMaster.navigateToStartingPage</text>
</a>
</g>
</g>
<!-- Node6&#45;&gt;Node7 -->
<g id="edge8_Node000006_Node000007" class="edge">
<title>Node6&#45;&gt;Node7</title>
<g id="a_edge8_Node000006_Node000007"><a xlink:title=" ">
<path fill="none" stroke="#63b8ff" d="M579.82,-50.7C571.2,-51.47 562.53,-52.24 554.02,-53"/>
<polygon fill="#63b8ff" stroke="#63b8ff" points="580.23,-54.18 589.88,-49.81 579.61,-47.21 580.23,-54.18"/>
</a>
</g>
</g>
<!-- Node7&#45;&gt;Node2 -->
<g id="edge11_Node000007_Node000002" class="edge">
<title>Node7&#45;&gt;Node2</title>
<g id="a_edge11_Node000007_Node000002"><a xlink:title=" ">
<path fill="none" stroke="#63b8ff" d="M508.73,-42.05C532.21,-32.75 562.16,-22.52 590,-17.83 752.06,9.47 802.3,7.73 959,-41.83 976.25,-47.29 978.29,-53.89 995,-60.83 1002.63,-64 1010.83,-66.98 1018.94,-69.7"/>
<polygon fill="#63b8ff" stroke="#63b8ff" points="507.36,-38.83 499.41,-45.83 509.99,-45.31 507.36,-38.83"/>
</a>
</g>
</g>
<!-- Node7&#45;&gt;Node3 -->
<g id="edge9_Node000007_Node000003" class="edge">
<title>Node7&#45;&gt;Node3</title>
<g id="a_edge9_Node000007_Node000003"><a xlink:title=" ">
<path fill="none" stroke="#63b8ff" d="M406.1,-78.87C376.69,-88.03 341.37,-99.04 313.42,-107.75"/>
<polygon fill="#63b8ff" stroke="#63b8ff" points="407.32,-82.15 415.83,-75.84 405.24,-75.47 407.32,-82.15"/>
</a>
</g>
</g>
<!-- Node7&#45;&gt;Node5 -->
<g id="edge10_Node000007_Node000005" class="edge">
<title>Node7&#45;&gt;Node5</title>
<g id="a_edge10_Node000007_Node000005"><a xlink:title=" ">
<path fill="none" stroke="#63b8ff" d="M564.4,-66.51C638.58,-70.79 738.8,-76.57 806.67,-80.48"/>
<polygon fill="#63b8ff" stroke="#63b8ff" points="564.3,-63 554.12,-65.91 563.9,-69.98 564.3,-63"/>
</a>
</g>
</g>
<!-- Node8&#45;&gt;Node1 -->
<g id="edge14_Node000008_Node000001" class="edge">
<title>Node8&#45;&gt;Node1</title>
<g id="a_edge14_Node000008_Node000001"><a xlink:title=" ">
<path fill="none" stroke="#63b8ff" d="M1159.54,-43.56C1168.66,-43.61 1177.9,-43.58 1186.89,-43.46"/>
<polygon fill="#63b8ff" stroke="#63b8ff" points="1159.33,-40.05 1149.3,-43.46 1159.27,-47.05 1159.33,-40.05"/>
</a>
</g>
</g>
</g>
</svg>
