<?xml version="1.0" encoding="UTF-8" standalone="no"?>
<!DOCTYPE svg PUBLIC "-//W3C//DTD SVG 1.1//EN"
 "http://www.w3.org/Graphics/SVG/1.1/DTD/svg11.dtd">
<!-- Generated by graphviz version 2.43.0 (0)
 -->
<!-- Title: com.example.mybookshelf.UIMaster.handleListSearch Pages: 1 -->
<svg width="558pt" height="134pt"
 viewBox="0.00 0.00 558.00 134.00" xmlns="http://www.w3.org/2000/svg" xmlns:xlink="http://www.w3.org/1999/xlink">
<g id="graph0" class="graph" transform="scale(1 1) rotate(0) translate(4 130)">
<title>com.example.mybookshelf.UIMaster.handleListSearch</title>
<!-- Node1 -->
<g id="Node000001" class="node">
<title>Node1</title>
<g id="a_Node000001"><a xlink:title=" ">
<polygon fill="#999999" stroke="#666666" points="152,-102 0,-102 0,-72 152,-72 152,-102"/>
<text text-anchor="start" x="8" y="-90" font-family="Helvetica,sans-Serif" font-size="10.00">com.example.mybookshelf.</text>
<text text-anchor="middle" x="76" y="-79" font-family="Helvetica,sans-Serif" font-size="10.00">UIMaster.handleListSearch</text>
</a>
</g>
</g>
<!-- Node2 -->
<g id="Node000002" class="node">
<title>Node2</title>
<g id="a_Node000002"><a xlink:href="classcom_1_1example_1_1mybookshelf_1_1UIMaster.html#a3e552449814fd4b18a4070128261c571" target="_top" xlink:title=" ">
<polygon fill="white" stroke="#666666" points="340,-126 188,-126 188,-96 340,-96 340,-126"/>
<text text-anchor="start" x="196" y="-114" font-family="Helvetica,sans-Serif" font-size="10.00">com.example.mybookshelf.</text>
<text text-anchor="middle" x="264" y="-103" font-family="Helvetica,sans-Serif" font-size="10.00">UIMaster.fillSpinners</text>
</a>
</g>
</g>
<!-- Node1&#45;&gt;Node2 -->
<g id="edge1_Node000001_Node000002" class="edge">
<title>Node1&#45;&gt;Node2</title>
<g id="a_edge1_Node000001_Node000002"><a xlink:title=" ">
<path fill="none" stroke="#63b8ff" d="M152.12,-96.69C160.6,-97.79 169.28,-98.91 177.87,-100.02"/>
<polygon fill="#63b8ff" stroke="#63b8ff" points="177.54,-103.5 187.9,-101.31 178.43,-96.56 177.54,-103.5"/>
</a>
</g>
</g>
<!-- Node3 -->
<g id="Node000003" class="node">
<title>Node3</title>
<g id="a_Node000003"><a xlink:href="classcom_1_1example_1_1mybookshelf_1_1UIMaster.html#a39a8f40aa163994c415f165d94ee47fd" target="_top" xlink:title=" ">
<polygon fill="white" stroke="#666666" points="340,-78 188,-78 188,-48 340,-48 340,-78"/>
<text text-anchor="start" x="196" y="-66" font-family="Helvetica,sans-Serif" font-size="10.00">com.example.mybookshelf.</text>
<text text-anchor="middle" x="264" y="-55" font-family="Helvetica,sans-Serif" font-size="10.00">UIMaster.filterBooks</text>
</a>
</g>
</g>
<!-- Node1&#45;&gt;Node3 -->
<g id="edge2_Node000001_Node000003" class="edge">
<title>Node1&#45;&gt;Node3</title>
<g id="a_edge2_Node000001_Node000003"><a xlink:title=" ">
<path fill="none" stroke="#63b8ff" d="M152.12,-77.31C160.6,-76.21 169.28,-75.09 177.87,-73.98"/>
<polygon fill="#63b8ff" stroke="#63b8ff" points="178.43,-77.44 187.9,-72.69 177.54,-70.5 178.43,-77.44"/>
</a>
</g>
</g>
<!-- Node4 -->
<g id="Node000004" class="node">
<title>Node4</title>
<g id="a_Node000004"><a xlink:href="classcom_1_1example_1_1mybookshelf_1_1dataClass_1_1Book.html#a72061c36f82e9d925effeb02dc0da55d" target="_top" xlink:title=" ">
<polygon fill="white" stroke="#666666" points="550,-126 376,-126 376,-96 550,-96 550,-126"/>
<text text-anchor="start" x="384" y="-114" font-family="Helvetica,sans-Serif" font-size="10.00">com.example.mybookshelf.data</text>
<text text-anchor="middle" x="463" y="-103" font-family="Helvetica,sans-Serif" font-size="10.00">Class.Book.getAuthor</text>
</a>
</g>
</g>
<!-- Node3&#45;&gt;Node4 -->
<g id="edge3_Node000003_Node000004" class="edge">
<title>Node3&#45;&gt;Node4</title>
<g id="a_edge3_Node000003_Node000004"><a xlink:title=" ">
<path fill="none" stroke="#63b8ff" d="M326.79,-78.06C347.05,-82.99 369.73,-88.52 390.64,-93.61"/>
<polygon fill="#63b8ff" stroke="#63b8ff" points="389.88,-97.03 400.43,-96 391.54,-90.23 389.88,-97.03"/>
</a>
</g>
</g>
<!-- Node5 -->
<g id="Node000005" class="node">
<title>Node5</title>
<g id="a_Node000005"><a xlink:href="classcom_1_1example_1_1mybookshelf_1_1dataClass_1_1Book.html#ab78862de4a0e97e9190086f397a88fd4" target="_top" xlink:title=" ">
<polygon fill="white" stroke="#666666" points="550,-78 376,-78 376,-48 550,-48 550,-78"/>
<text text-anchor="start" x="384" y="-66" font-family="Helvetica,sans-Serif" font-size="10.00">com.example.mybookshelf.data</text>
<text text-anchor="middle" x="463" y="-55" font-family="Helvetica,sans-Serif" font-size="10.00">Class.Book.getGenre</text>
</a>
</g>
</g>
<!-- Node3&#45;&gt;Node5 -->
<g id="edge4_Node000003_Node000005" class="edge">
<title>Node3&#45;&gt;Node5</title>
<g id="a_edge4_Node000003_Node000005"><a xlink:title=" ">
<path fill="none" stroke="#63b8ff" d="M340.04,-63C348.48,-63 357.16,-63 365.82,-63"/>
<polygon fill="#63b8ff" stroke="#63b8ff" points="365.96,-66.5 375.96,-63 365.96,-59.5 365.96,-66.5"/>
</a>
</g>
</g>
<!-- Node6 -->
<g id="Node000006" class="node">
<title>Node6</title>
<g id="a_Node000006"><a xlink:href="classcom_1_1example_1_1mybookshelf_1_1dataClass_1_1Book.html#a4109da1bdee13601576c6725d6e89e71" target="_top" xlink:title=" ">
<polygon fill="white" stroke="#666666" points="550,-30 376,-30 376,0 550,0 550,-30"/>
<text text-anchor="start" x="384" y="-18" font-family="Helvetica,sans-Serif" font-size="10.00">com.example.mybookshelf.data</text>
<text text-anchor="middle" x="463" y="-7" font-family="Helvetica,sans-Serif" font-size="10.00">Class.Book.getName</text>
</a>
</g>
</g>
<!-- Node3&#45;&gt;Node6 -->
<g id="edge5_Node000003_Node000006" class="edge">
<title>Node3&#45;&gt;Node6</title>
<g id="a_edge5_Node000003_Node000006"><a xlink:title=" ">
<path fill="none" stroke="#63b8ff" d="M326.79,-47.94C347.05,-43.01 369.73,-37.48 390.64,-32.39"/>
<polygon fill="#63b8ff" stroke="#63b8ff" points="391.54,-35.77 400.43,-30 389.88,-28.97 391.54,-35.77"/>
</a>
</g>
</g>
</g>
</svg>
