<?xml version="1.0" encoding="UTF-8" standalone="no"?>
<!DOCTYPE svg PUBLIC "-//W3C//DTD SVG 1.1//EN"
 "http://www.w3.org/Graphics/SVG/1.1/DTD/svg11.dtd">
<!-- Generated by graphviz version 2.43.0 (0)
 -->
<!-- Title: com.example.mybookshelf.BookRecommendationFlow.showFreshStartStep2 Pages: 1 -->
<!--zoomable 764 -->

<svg id="main" version="1.1" xmlns="http://www.w3.org/2000/svg" xmlns:xlink="http://www.w3.org/1999/xlink" xml:space="preserve" onload="init(evt)">

<style type="text/css"><![CDATA[
.node, .edge {opacity: 0.7;}
.node.selected, .edge.selected {opacity: 1;}
.edge:hover path { stroke: red; }
.edge:hover polygon { stroke: red; fill: red; }
]]></style>

<defs>
  <circle id="rim" cx="0" cy="0" r="7"/>
  <circle id="rim2" cx="0" cy="0" r="3.5"/>
  <g id="zoomPlus">
    <use xlink:href="#rim" fill="#404040"><set attributeName="fill" to="#808080" begin="zoomplus.mouseover" end="zoomplus.mouseout"/></use>
    <path d="M-4,0h8M0,-4v8" fill="none" stroke="white" stroke-width="1.5" pointer-events="none"/>
  </g>
  <g id="zoomMin">
    <use xlink:href="#rim" fill="#404040"><set attributeName="fill" to="#808080" begin="zoomminus.mouseover" end="zoomminus.mouseout"/></use>
    <path d="M-4,0h8" fill="none" stroke="white" stroke-width="1.5" pointer-events="none"/>
  </g>
  <g id="arrowUp" transform="translate(30 24)">
    <use xlink:href="#rim"/>
    <path pointer-events="none" fill="none" stroke="white" stroke-width="1.5" d="M0,-3.0v7 M-2.5,-0.5L0,-3.0L2.5,-0.5"/>
  </g>
  <g id="arrowRight" transform="rotate(90) translate(36 -43)">
    <use xlink:href="#rim"/>
    <path pointer-events="none" fill="none" stroke="white" stroke-width="1.5" d="M0,-3.0v7 M-2.5,-0.5L0,-3.0L2.5,-0.5"/>
  </g>
  <g id="arrowDown" transform="rotate(180) translate(-30 -48)">
    <use xlink:href="#rim"/>
    <path pointer-events="none" fill="none" stroke="white" stroke-width="1.5" d="M0,-3.0v7 M-2.5,-0.5L0,-3.0L2.5,-0.5"/>
  </g>
  <g id="arrowLeft" transform="rotate(270) translate(-36 17)">
    <use xlink:href="#rim"/>
    <path pointer-events="none" fill="none" stroke="white" stroke-width="1.5" d="M0,-3.0v7 M-2.5,-0.5L0,-3.0L2.5,-0.5"/>
  </g>
  <g id="resetDef">
    <use xlink:href="#rim2" fill="#404040"><set attributeName="fill" to="#808080" begin="reset.mouseover" end="reset.mouseout"/></use>
  </g>
</defs>
<script type="application/ecmascript">
var viewWidth = 2803;
var viewHeight = 764;
var sectionId = 'dynsection-22';
</script>
<script type="application/ecmascript" xlink:href="svg.min.js"/>
<svg id="graph" class="graph">
<g id="viewport">
<title>com.example.mybookshelf.BookRecommendationFlow.showFreshStartStep2</title>
<!-- Node1 -->
<g id="Node000001" class="node">
<title>Node1</title>
<g id="a_Node000001"><a xlink:title=" ">
<polygon fill="#999999" stroke="#666666" points="205,-249.5 0,-249.5 0,-208.5 205,-208.5 205,-249.5"/>
<text text-anchor="start" x="8" y="-237.5" font-family="Helvetica,sans-Serif" font-size="10.00">com.example.mybookshelf.</text>
<text text-anchor="start" x="8" y="-226.5" font-family="Helvetica,sans-Serif" font-size="10.00">BookRecommendationFlow.showFresh</text>
<text text-anchor="middle" x="102.5" y="-215.5" font-family="Helvetica,sans-Serif" font-size="10.00">StartStep2</text>
</a>
</g>
</g>
<!-- Node2 -->
<g id="Node000002" class="node">
<title>Node2</title>
<g id="a_Node000002"><a xlink:href="classcom_1_1example_1_1mybookshelf_1_1BookRecommendationFlow.html#a3855117e802e54923c308e0df6280c17" target="_top" xlink:title=" ">
<polygon fill="white" stroke="#666666" points="2795,-602.5 2601,-602.5 2601,-561.5 2795,-561.5 2795,-602.5"/>
<text text-anchor="start" x="2609" y="-590.5" font-family="Helvetica,sans-Serif" font-size="10.00">com.example.mybookshelf.</text>
<text text-anchor="start" x="2609" y="-579.5" font-family="Helvetica,sans-Serif" font-size="10.00">BookRecommendationFlow.addChat</text>
<text text-anchor="middle" x="2698" y="-568.5" font-family="Helvetica,sans-Serif" font-size="10.00">Message</text>
</a>
</g>
</g>
<!-- Node1&#45;&gt;Node2 -->
<g id="edge1_Node000001_Node000002" class="edge">
<title>Node1&#45;&gt;Node2</title>
<g id="a_edge1_Node000001_Node000002"><a xlink:title=" ">
<path fill="none" stroke="#63b8ff" d="M110.47,-249.54C144.77,-346.42 305.3,-753 583.5,-753 583.5,-753 583.5,-753 2224.5,-753 2377.33,-753 2427.06,-770.79 2565,-705 2610.8,-683.15 2651.5,-639.69 2675.21,-610.73"/>
<polygon fill="#63b8ff" stroke="#63b8ff" points="2678.19,-612.6 2681.72,-602.61 2672.73,-608.22 2678.19,-612.6"/>
</a>
</g>
</g>
<!-- Node3 -->
<g id="Node000003" class="node">
<title>Node3</title>
<g id="a_Node000003"><a xlink:href="classcom_1_1example_1_1mybookshelf_1_1BookRecommendationFlow.html#a02b6d699653b58f244907bd10db53ab5" target="_top" xlink:title=" ">
<polygon fill="white" stroke="#666666" points="2790,-200.5 2606,-200.5 2606,-159.5 2790,-159.5 2790,-200.5"/>
<text text-anchor="start" x="2614" y="-188.5" font-family="Helvetica,sans-Serif" font-size="10.00">com.example.mybookshelf.</text>
<text text-anchor="start" x="2614" y="-177.5" font-family="Helvetica,sans-Serif" font-size="10.00">BookRecommendationFlow.create</text>
<text text-anchor="middle" x="2698" y="-166.5" font-family="Helvetica,sans-Serif" font-size="10.00">StyledGridButton</text>
</a>
</g>
</g>
<!-- Node1&#45;&gt;Node3 -->
<g id="edge2_Node000001_Node000003" class="edge">
<title>Node1&#45;&gt;Node3</title>
<g id="a_edge2_Node000001_Node000003"><a xlink:title=" ">
<path fill="none" stroke="#63b8ff" d="M119.34,-208.36C142.75,-179.3 189.43,-126.69 241,-98 378.44,-21.53 426.22,-9 583.5,-9 583.5,-9 583.5,-9 2224.5,-9 2376.5,-9 2428.3,25.46 2565,-41 2615.42,-65.5 2656.64,-117.94 2678.93,-150.94"/>
<polygon fill="#63b8ff" stroke="#63b8ff" points="2676.02,-152.88 2684.45,-159.29 2681.86,-149.02 2676.02,-152.88"/>
</a>
</g>
</g>
<!-- Node4 -->
<g id="Node000004" class="node">
<title>Node4</title>
<g id="a_Node000004"><a xlink:href="classcom_1_1example_1_1mybookshelf_1_1BookRecommendationFlow.html#a2bc1c0125eb3c1fe64ed1ed3ee93d3eb" target="_top" xlink:title=" ">
<polygon fill="white" stroke="#666666" points="446,-254.5 241,-254.5 241,-213.5 446,-213.5 446,-254.5"/>
<text text-anchor="start" x="249" y="-242.5" font-family="Helvetica,sans-Serif" font-size="10.00">com.example.mybookshelf.</text>
<text text-anchor="start" x="249" y="-231.5" font-family="Helvetica,sans-Serif" font-size="10.00">BookRecommendationFlow.showFresh</text>
<text text-anchor="middle" x="343.5" y="-220.5" font-family="Helvetica,sans-Serif" font-size="10.00">StartStep3</text>
</a>
</g>
</g>
<!-- Node1&#45;&gt;Node4 -->
<g id="edge3_Node000001_Node000004" class="edge">
<title>Node1&#45;&gt;Node4</title>
<g id="a_edge3_Node000001_Node000004"><a xlink:title=" ">
<path fill="none" stroke="#63b8ff" d="M205.2,-231.12C213.7,-231.3 222.31,-231.48 230.87,-231.66"/>
<polygon fill="#63b8ff" stroke="#63b8ff" points="230.82,-235.16 240.89,-231.87 230.96,-228.16 230.82,-235.16"/>
</a>
</g>
</g>
<!-- Node4&#45;&gt;Node2 -->
<g id="edge4_Node000004_Node000002" class="edge">
<title>Node4&#45;&gt;Node2</title>
<g id="a_edge4_Node000004_Node000002"><a xlink:title=" ">
<path fill="none" stroke="#63b8ff" d="M352.74,-254.66C390.93,-346.73 560.24,-715 824.5,-715 824.5,-715 824.5,-715 2224.5,-715 2377.27,-715 2421.88,-721.43 2565,-668 2601.83,-654.24 2638.92,-628.82 2664.37,-609.17"/>
<polygon fill="#63b8ff" stroke="#63b8ff" points="2666.83,-611.68 2672.53,-602.75 2662.51,-606.18 2666.83,-611.68"/>
</a>
</g>
</g>
<!-- Node4&#45;&gt;Node3 -->
<g id="edge5_Node000004_Node000003" class="edge">
<title>Node4&#45;&gt;Node3</title>
<g id="a_edge5_Node000004_Node000003"><a xlink:title=" ">
<path fill="none" stroke="#63b8ff" d="M389.31,-213.45C499.5,-164.87 793.45,-47 1051.5,-47 1051.5,-47 1051.5,-47 2224.5,-47 2376.72,-47 2423,-29.16 2565,-84 2604.83,-99.38 2643.51,-129.91 2668.59,-152.44"/>
<polygon fill="#63b8ff" stroke="#63b8ff" points="2666.5,-155.27 2676.24,-159.44 2671.22,-150.1 2666.5,-155.27"/>
</a>
</g>
</g>
<!-- Node5 -->
<g id="Node000005" class="node">
<title>Node5</title>
<g id="a_Node000005"><a xlink:href="classcom_1_1example_1_1mybookshelf_1_1BookRecommendationFlow.html#ad10515cfcf8650b6830b68f15d393b3b" target="_top" xlink:title=" ">
<polygon fill="white" stroke="#666666" points="687,-326.5 482,-326.5 482,-285.5 687,-285.5 687,-326.5"/>
<text text-anchor="start" x="490" y="-314.5" font-family="Helvetica,sans-Serif" font-size="10.00">com.example.mybookshelf.</text>
<text text-anchor="start" x="490" y="-303.5" font-family="Helvetica,sans-Serif" font-size="10.00">BookRecommendationFlow.showFresh</text>
<text text-anchor="middle" x="584.5" y="-292.5" font-family="Helvetica,sans-Serif" font-size="10.00">StartStep4</text>
</a>
</g>
</g>
<!-- Node4&#45;&gt;Node5 -->
<g id="edge6_Node000004_Node000005" class="edge">
<title>Node4&#45;&gt;Node5</title>
<g id="a_edge6_Node000004_Node000005"><a xlink:title=" ">
<path fill="none" stroke="#63b8ff" d="M412.67,-254.53C441.68,-263.27 475.67,-273.51 505.66,-282.55"/>
<polygon fill="#63b8ff" stroke="#63b8ff" points="504.66,-285.9 515.24,-285.43 506.68,-279.2 504.66,-285.9"/>
</a>
</g>
</g>
<!-- Node5&#45;&gt;Node2 -->
<g id="edge7_Node000005_Node000002" class="edge">
<title>Node5&#45;&gt;Node2</title>
<g id="a_edge7_Node000005_Node000002"><a xlink:title=" ">
<path fill="none" stroke="#63b8ff" d="M597.54,-326.74C644.59,-404.87 824.77,-677 1051.5,-677 1051.5,-677 1051.5,-677 2224.5,-677 2376.98,-677 2417.35,-673.06 2565,-635 2592.02,-628.03 2620.91,-616.89 2644.75,-606.61"/>
<polygon fill="#63b8ff" stroke="#63b8ff" points="2646.2,-609.8 2653.96,-602.58 2643.39,-603.38 2646.2,-609.8"/>
</a>
</g>
</g>
<!-- Node5&#45;&gt;Node3 -->
<g id="edge8_Node000005_Node000003" class="edge">
<title>Node5&#45;&gt;Node3</title>
<g id="a_edge8_Node000005_Node000003"><a xlink:title=" ">
<path fill="none" stroke="#63b8ff" d="M634.69,-285.4C770.35,-230.54 1162.29,-85 1502.5,-85 1502.5,-85 1502.5,-85 2224.5,-85 2376.93,-85 2417.47,-87.68 2565,-126 2592.4,-133.11 2621.65,-144.64 2645.64,-155.22"/>
<polygon fill="#63b8ff" stroke="#63b8ff" points="2644.34,-158.48 2654.89,-159.37 2647.2,-152.09 2644.34,-158.48"/>
</a>
</g>
</g>
<!-- Node6 -->
<g id="Node000006" class="node">
<title>Node6</title>
<g id="a_Node000006"><a xlink:href="classcom_1_1example_1_1mybookshelf_1_1BookRecommendationFlow.html#a46c6733f27b3527d3934cee02cfcd7ac" target="_top" xlink:title=" ">
<polygon fill="white" stroke="#666666" points="928,-362.5 723,-362.5 723,-321.5 928,-321.5 928,-362.5"/>
<text text-anchor="start" x="731" y="-350.5" font-family="Helvetica,sans-Serif" font-size="10.00">com.example.mybookshelf.</text>
<text text-anchor="start" x="731" y="-339.5" font-family="Helvetica,sans-Serif" font-size="10.00">BookRecommendationFlow.showFresh</text>
<text text-anchor="middle" x="825.5" y="-328.5" font-family="Helvetica,sans-Serif" font-size="10.00">StartStep5</text>
</a>
</g>
</g>
<!-- Node5&#45;&gt;Node6 -->
<g id="edge9_Node000005_Node000006" class="edge">
<title>Node5&#45;&gt;Node6</title>
<g id="a_edge9_Node000005_Node000006"><a xlink:title=" ">
<path fill="none" stroke="#63b8ff" d="M687.2,-321.32C695.7,-322.59 704.31,-323.89 712.87,-325.18"/>
<polygon fill="#63b8ff" stroke="#63b8ff" points="712.48,-328.66 722.89,-326.69 713.52,-321.74 712.48,-328.66"/>
</a>
</g>
</g>
<!-- Node6&#45;&gt;Node2 -->
<g id="edge10_Node000006_Node000002" class="edge">
<title>Node6&#45;&gt;Node2</title>
<g id="a_edge10_Node000006_Node000002"><a xlink:title=" ">
<path fill="none" stroke="#63b8ff" d="M841.83,-362.88C893.4,-430.48 1068.47,-639 1266,-639 1266,-639 1266,-639 2224.5,-639 2376.46,-639 2414.58,-629.6 2565,-608 2573.48,-606.78 2582.25,-605.37 2591.03,-603.86"/>
<polygon fill="#63b8ff" stroke="#63b8ff" points="2591.71,-607.3 2600.95,-602.12 2590.5,-600.41 2591.71,-607.3"/>
</a>
</g>
</g>
<!-- Node6&#45;&gt;Node3 -->
<g id="edge39_Node000006_Node000003" class="edge">
<title>Node6&#45;&gt;Node3</title>
<g id="a_edge39_Node000006_Node000003"><a xlink:title=" ">
<path fill="none" stroke="#63b8ff" d="M876.4,-321.39C1013.09,-266.88 1406.14,-123 1747,-123 1747,-123 1747,-123 2224.5,-123 2353.38,-123 2500.62,-144.16 2596,-160.69"/>
<polygon fill="#63b8ff" stroke="#63b8ff" points="2595.48,-164.15 2605.93,-162.43 2596.68,-157.26 2595.48,-164.15"/>
</a>
</g>
</g>
<!-- Node7 -->
<g id="Node000007" class="node">
<title>Node7</title>
<g id="a_Node000007"><a xlink:href="classcom_1_1example_1_1mybookshelf_1_1BookRecommendationFlow.html#abe4c57ea57ed54c344739295e70066ff" target="_top" xlink:title=" ">
<polygon fill="white" stroke="#666666" points="1141,-380.5 964,-380.5 964,-339.5 1141,-339.5 1141,-380.5"/>
<text text-anchor="start" x="972" y="-368.5" font-family="Helvetica,sans-Serif" font-size="10.00">com.example.mybookshelf.</text>
<text text-anchor="start" x="972" y="-357.5" font-family="Helvetica,sans-Serif" font-size="10.00">BookRecommendationFlow.build</text>
<text text-anchor="middle" x="1052.5" y="-346.5" font-family="Helvetica,sans-Serif" font-size="10.00">AIStringFresh</text>
</a>
</g>
</g>
<!-- Node6&#45;&gt;Node7 -->
<g id="edge11_Node000006_Node000007" class="edge">
<title>Node6&#45;&gt;Node7</title>
<g id="a_edge11_Node000006_Node000007"><a xlink:title=" ">
<path fill="none" stroke="#63b8ff" d="M928.14,-350.13C936.58,-350.8 945.11,-351.48 953.53,-352.16"/>
<polygon fill="#63b8ff" stroke="#63b8ff" points="953.48,-355.67 963.73,-352.97 954.04,-348.69 953.48,-355.67"/>
</a>
</g>
</g>
<!-- Node8 -->
<g id="Node000008" class="node">
<title>Node8</title>
<g id="a_Node000008"><a xlink:href="classcom_1_1example_1_1mybookshelf_1_1BookRecommendationFlow.html#ae50cf18619872a365eebe91c18d86e8d" target="_top" xlink:title=" ">
<polygon fill="white" stroke="#666666" points="1357,-384 1177,-384 1177,-354 1357,-354 1357,-384"/>
<text text-anchor="start" x="1185" y="-372" font-family="Helvetica,sans-Serif" font-size="10.00">com.example.mybookshelf.</text>
<text text-anchor="middle" x="1267" y="-361" font-family="Helvetica,sans-Serif" font-size="10.00">BookRecommendationFlow.callAI</text>
</a>
</g>
</g>
<!-- Node7&#45;&gt;Node8 -->
<g id="edge12_Node000007_Node000008" class="edge">
<title>Node7&#45;&gt;Node8</title>
<g id="a_edge12_Node000007_Node000008"><a xlink:title=" ">
<path fill="none" stroke="#63b8ff" d="M1141.16,-363.71C1149.62,-364.07 1158.25,-364.43 1166.81,-364.8"/>
<polygon fill="#63b8ff" stroke="#63b8ff" points="1166.69,-368.29 1176.83,-365.22 1166.98,-361.3 1166.69,-368.29"/>
</a>
</g>
</g>
<!-- Node8&#45;&gt;Node2 -->
<g id="edge13_Node000008_Node000002" class="edge">
<title>Node8&#45;&gt;Node2</title>
<g id="a_edge13_Node000008_Node000002"><a xlink:title=" ">
<path fill="none" stroke="#63b8ff" d="M1278.52,-384.2C1297.97,-411.17 1342.24,-467.42 1393,-498 1533.36,-582.54 1583.14,-601 1747,-601 1747,-601 1747,-601 2224.5,-601 2350.25,-601 2494.67,-594.19 2590.4,-588.73"/>
<polygon fill="#63b8ff" stroke="#63b8ff" points="2590.89,-592.21 2600.67,-588.14 2590.48,-585.22 2590.89,-592.21"/>
</a>
</g>
</g>
<!-- Node8&#45;&gt;Node3 -->
<g id="edge15_Node000008_Node000003" class="edge">
<title>Node8&#45;&gt;Node3</title>
<g id="a_edge15_Node000008_Node000003"><a xlink:title=" ">
<path fill="none" stroke="#63b8ff" d="M1275.04,-353.86C1290.85,-321.86 1332.6,-247.87 1393,-218 1586.17,-122.47 2146.54,-184.22 2362,-180 2440.54,-178.46 2529.46,-178.54 2595.94,-178.97"/>
<polygon fill="#63b8ff" stroke="#63b8ff" points="2595.97,-182.47 2605.99,-179.03 2596.02,-175.47 2595.97,-182.47"/>
</a>
</g>
</g>
<!-- Node8&#45;&gt;Node8 -->
<g id="edge14_Node000008_Node000008" class="edge">
<title>Node8&#45;&gt;Node8</title>
<g id="a_edge14_Node000008_Node000008"><a xlink:title=" ">
<path fill="none" stroke="#63b8ff" d="M1229.38,-384.27C1221.02,-393.4 1233.56,-402 1267,-402 1286.85,-402 1299.34,-398.97 1304.46,-394.59"/>
<polygon fill="#63b8ff" stroke="#63b8ff" points="1307.96,-394.32 1304.62,-384.27 1300.96,-394.22 1307.96,-394.32"/>
</a>
</g>
</g>
<!-- Node9 -->
<g id="Node000009" class="node">
<title>Node9</title>
<g id="a_Node000009"><a xlink:href="classcom_1_1example_1_1mybookshelf_1_1apis_1_1AiAPI.html#a4a45b91f0717302661d9e35ed956c049" target="_top" xlink:title=" ">
<polygon fill="white" stroke="#666666" points="1591.5,-257 1415.5,-257 1415.5,-227 1591.5,-227 1591.5,-257"/>
<text text-anchor="start" x="1423.5" y="-245" font-family="Helvetica,sans-Serif" font-size="10.00">com.example.mybookshelf.apis.</text>
<text text-anchor="middle" x="1503.5" y="-234" font-family="Helvetica,sans-Serif" font-size="10.00">AiAPI.fetchResponse</text>
</a>
</g>
</g>
<!-- Node8&#45;&gt;Node9 -->
<g id="edge16_Node000008_Node000009" class="edge">
<title>Node8&#45;&gt;Node9</title>
<g id="a_edge16_Node000008_Node000009"><a xlink:title=" ">
<path fill="none" stroke="#63b8ff" d="M1287.51,-353.91C1311.43,-335.91 1353.63,-305.64 1393,-285 1410.4,-275.87 1430.18,-267.54 1448.1,-260.68"/>
<polygon fill="#63b8ff" stroke="#63b8ff" points="1449.7,-263.82 1457.84,-257.03 1447.24,-257.26 1449.7,-263.82"/>
</a>
</g>
</g>
<!-- Node10 -->
<g id="Node000010" class="node">
<title>Node10</title>
<g id="a_Node000010"><a xlink:href="classcom_1_1example_1_1mybookshelf_1_1BookRecommendationFlow.html#a4dceb0fa4d170b8c7e5a7a6718593dfe" target="_top" xlink:title=" ">
<polygon fill="white" stroke="#666666" points="1603.5,-442 1403.5,-442 1403.5,-412 1603.5,-412 1603.5,-442"/>
<text text-anchor="start" x="1411.5" y="-430" font-family="Helvetica,sans-Serif" font-size="10.00">com.example.mybookshelf.</text>
<text text-anchor="middle" x="1503.5" y="-419" font-family="Helvetica,sans-Serif" font-size="10.00">BookRecommendationFlow.handleNo</text>
</a>
</g>
</g>
<!-- Node8&#45;&gt;Node10 -->
<g id="edge18_Node000008_Node000010" class="edge">
<title>Node8&#45;&gt;Node10</title>
<g id="a_edge18_Node000008_Node000010"><a xlink:title=" ">
<path fill="none" stroke="#63b8ff" d="M1321.07,-384.06C1343.24,-390.19 1369.3,-397.18 1393,-403 1402.19,-405.25 1411.84,-407.52 1421.44,-409.7"/>
<polygon fill="#63b8ff" stroke="#63b8ff" points="1420.88,-413.17 1431.4,-411.95 1422.42,-406.34 1420.88,-413.17"/>
</a>
</g>
</g>
<!-- Node17 -->
<g id="Node000017" class="node">
<title>Node17</title>
<g id="a_Node000017"><a xlink:href="classcom_1_1example_1_1mybookshelf_1_1BookRecommendationFlow.html#ac62af5d6edeffa96b2862a609ebb40df" target="_top" xlink:title=" ">
<polygon fill="white" stroke="#666666" points="1611.5,-393.5 1395.5,-393.5 1395.5,-352.5 1611.5,-352.5 1611.5,-393.5"/>
<text text-anchor="start" x="1403.5" y="-381.5" font-family="Helvetica,sans-Serif" font-size="10.00">com.example.mybookshelf.</text>
<text text-anchor="start" x="1403.5" y="-370.5" font-family="Helvetica,sans-Serif" font-size="10.00">BookRecommendationFlow.hideThinking</text>
<text text-anchor="middle" x="1503.5" y="-359.5" font-family="Helvetica,sans-Serif" font-size="10.00">Animation</text>
</a>
</g>
</g>
<!-- Node8&#45;&gt;Node17 -->
<g id="edge37_Node000008_Node000017" class="edge">
<title>Node8&#45;&gt;Node17</title>
<g id="a_edge37_Node000008_Node000017"><a xlink:title=" ">
<path fill="none" stroke="#63b8ff" d="M1357.32,-370.52C1366.45,-370.68 1375.81,-370.84 1385.18,-370.99"/>
<polygon fill="#63b8ff" stroke="#63b8ff" points="1385.27,-374.5 1395.33,-371.17 1385.39,-367.5 1385.27,-374.5"/>
</a>
</g>
</g>
<!-- Node18 -->
<g id="Node000018" class="node">
<title>Node18</title>
<g id="a_Node000018"><a xlink:href="classcom_1_1example_1_1mybookshelf_1_1BookRecommendationFlow.html#a78597ba37409daeee77dcfa6236b2e6a" target="_top" xlink:title=" ">
<polygon fill="white" stroke="#666666" points="1614,-334.5 1393,-334.5 1393,-293.5 1614,-293.5 1614,-334.5"/>
<text text-anchor="start" x="1401" y="-322.5" font-family="Helvetica,sans-Serif" font-size="10.00">com.example.mybookshelf.</text>
<text text-anchor="start" x="1401" y="-311.5" font-family="Helvetica,sans-Serif" font-size="10.00">BookRecommendationFlow.showThinking</text>
<text text-anchor="middle" x="1503.5" y="-300.5" font-family="Helvetica,sans-Serif" font-size="10.00">Animation</text>
</a>
</g>
</g>
<!-- Node8&#45;&gt;Node18 -->
<g id="edge38_Node000008_Node000018" class="edge">
<title>Node8&#45;&gt;Node18</title>
<g id="a_edge38_Node000008_Node000018"><a xlink:title=" ">
<path fill="none" stroke="#63b8ff" d="M1332.08,-353.97C1354.49,-348.71 1380.18,-342.69 1404.7,-336.93"/>
<polygon fill="#63b8ff" stroke="#63b8ff" points="1405.83,-340.26 1414.76,-334.57 1404.23,-333.45 1405.83,-340.26"/>
</a>
</g>
</g>
<!-- Node9&#45;&gt;Node9 -->
<g id="edge17_Node000009_Node000009" class="edge">
<title>Node9&#45;&gt;Node9</title>
<g id="a_edge17_Node000009_Node000009"><a xlink:title=" ">
<path fill="none" stroke="#63b8ff" d="M1462.02,-257.27C1452.8,-266.4 1466.62,-275 1503.5,-275 1525.39,-275 1539.16,-271.97 1544.81,-267.59"/>
<polygon fill="#63b8ff" stroke="#63b8ff" points="1548.31,-267.33 1544.98,-257.27 1541.31,-267.21 1548.31,-267.33"/>
</a>
</g>
</g>
<!-- Node10&#45;&gt;Node2 -->
<g id="edge19_Node000010_Node000002" class="edge">
<title>Node10&#45;&gt;Node2</title>
<g id="a_edge19_Node000010_Node000002"><a xlink:title=" ">
<path fill="none" stroke="#63b8ff" d="M1603.61,-439.88C1825.82,-468.76 2362.25,-538.49 2590.9,-568.2"/>
<polygon fill="#63b8ff" stroke="#63b8ff" points="2590.52,-571.69 2600.89,-569.5 2591.42,-564.74 2590.52,-571.69"/>
</a>
</g>
</g>
<!-- Node10&#45;&gt;Node3 -->
<g id="edge20_Node000010_Node000003" class="edge">
<title>Node10&#45;&gt;Node3</title>
<g id="a_edge20_Node000010_Node000003"><a xlink:title=" ">
<path fill="none" stroke="#63b8ff" d="M1599.16,-411.93C1604.4,-409.38 1609.4,-406.43 1614,-403 1640.48,-383.26 1623.93,-358.27 1650,-338 1796.37,-224.15 2362.31,-191.61 2595.6,-182.94"/>
<polygon fill="#63b8ff" stroke="#63b8ff" points="2595.91,-186.43 2605.78,-182.57 2595.66,-179.43 2595.91,-186.43"/>
</a>
</g>
</g>
<!-- Node11 -->
<g id="Node000011" class="node">
<title>Node11</title>
<g id="a_Node000011"><a xlink:href="classcom_1_1example_1_1mybookshelf_1_1BookRecommendationFlow.html#a22f0dcaea578fbd7358e6237cd4873d4" target="_top" xlink:title=" ">
<polygon fill="white" stroke="#666666" points="1846,-377 1650,-377 1650,-347 1846,-347 1846,-377"/>
<text text-anchor="start" x="1658" y="-365" font-family="Helvetica,sans-Serif" font-size="10.00">com.example.mybookshelf.</text>
<text text-anchor="middle" x="1748" y="-354" font-family="Helvetica,sans-Serif" font-size="10.00">BookRecommendationFlow.handleAI</text>
</a>
</g>
</g>
<!-- Node10&#45;&gt;Node11 -->
<g id="edge21_Node000010_Node000011" class="edge">
<title>Node10&#45;&gt;Node11</title>
<g id="a_edge21_Node000010_Node000011"><a xlink:title=" ">
<path fill="none" stroke="#63b8ff" d="M1577.15,-411.96C1589.49,-409.16 1602.14,-406.12 1614,-403 1639.77,-396.21 1668.03,-387.66 1691.84,-380.13"/>
<polygon fill="#63b8ff" stroke="#63b8ff" points="1692.95,-383.45 1701.41,-377.08 1690.82,-376.78 1692.95,-383.45"/>
</a>
</g>
</g>
<!-- Node12 -->
<g id="Node000012" class="node">
<title>Node12</title>
<g id="a_Node000012"><a xlink:href="classcom_1_1example_1_1mybookshelf_1_1BookRecommendationFlow.html#a276e931dabe3e85af257a9d16ce7cc67" target="_top" xlink:title=" ">
<polygon fill="white" stroke="#666666" points="2085,-382.5 1882,-382.5 1882,-341.5 2085,-341.5 2085,-382.5"/>
<text text-anchor="start" x="1890" y="-370.5" font-family="Helvetica,sans-Serif" font-size="10.00">com.example.mybookshelf.</text>
<text text-anchor="start" x="1890" y="-359.5" font-family="Helvetica,sans-Serif" font-size="10.00">BookRecommendationFlow.showBook</text>
<text text-anchor="middle" x="1983.5" y="-348.5" font-family="Helvetica,sans-Serif" font-size="10.00">BasedStep1</text>
</a>
</g>
</g>
<!-- Node11&#45;&gt;Node12 -->
<g id="edge22_Node000011_Node000012" class="edge">
<title>Node11&#45;&gt;Node12</title>
<g id="a_edge22_Node000011_Node000012"><a xlink:title=" ">
<path fill="none" stroke="#63b8ff" d="M1846.33,-362C1854.79,-362 1863.38,-362 1871.93,-362"/>
<polygon fill="#63b8ff" stroke="#63b8ff" points="1871.94,-365.5 1881.94,-362 1871.94,-358.5 1871.94,-365.5"/>
</a>
</g>
</g>
<!-- Node16 -->
<g id="Node000016" class="node">
<title>Node16</title>
<g id="a_Node000016"><a xlink:href="classcom_1_1example_1_1mybookshelf_1_1BookRecommendationFlow.html#a4c7dc337216592f7f214f69ce7009d37" target="_top" xlink:title=" ">
<polygon fill="white" stroke="#666666" points="2326,-268.5 2121,-268.5 2121,-227.5 2326,-227.5 2326,-268.5"/>
<text text-anchor="start" x="2129" y="-256.5" font-family="Helvetica,sans-Serif" font-size="10.00">com.example.mybookshelf.</text>
<text text-anchor="start" x="2129" y="-245.5" font-family="Helvetica,sans-Serif" font-size="10.00">BookRecommendationFlow.showFresh</text>
<text text-anchor="middle" x="2223.5" y="-234.5" font-family="Helvetica,sans-Serif" font-size="10.00">StartStep1</text>
</a>
</g>
</g>
<!-- Node11&#45;&gt;Node16 -->
<g id="edge33_Node000011_Node000016" class="edge">
<title>Node11&#45;&gt;Node16</title>
<g id="a_edge33_Node000011_Node000016"><a xlink:title=" ">
<path fill="none" stroke="#63b8ff" d="M1811.39,-346.98C1892.03,-327.56 2033.25,-293.56 2127.32,-270.91"/>
<polygon fill="#63b8ff" stroke="#63b8ff" points="2128.23,-274.29 2137.13,-268.55 2126.59,-267.49 2128.23,-274.29"/>
</a>
</g>
</g>
<!-- Node12&#45;&gt;Node2 -->
<g id="edge23_Node000012_Node000002" class="edge">
<title>Node12&#45;&gt;Node2</title>
<g id="a_edge23_Node000012_Node000002"><a xlink:title=" ">
<path fill="none" stroke="#63b8ff" d="M2047.85,-382.51C2122.76,-406.68 2251.26,-447.87 2362,-482 2449.07,-508.83 2549.22,-538.58 2617.17,-558.6"/>
<polygon fill="#63b8ff" stroke="#63b8ff" points="2616.37,-562.01 2626.95,-561.48 2618.35,-555.3 2616.37,-562.01"/>
</a>
</g>
</g>
<!-- Node12&#45;&gt;Node3 -->
<g id="edge24_Node000012_Node000003" class="edge">
<title>Node12&#45;&gt;Node3</title>
<g id="a_edge24_Node000012_Node000003"><a xlink:title=" ">
<path fill="none" stroke="#63b8ff" d="M2081.07,-341.47C2094.48,-338.62 2108.08,-335.74 2121,-333 2219.66,-312.07 2469.09,-270.19 2565,-239 2593.15,-229.84 2623.38,-216.6 2647.8,-204.98"/>
<polygon fill="#63b8ff" stroke="#63b8ff" points="2649.36,-208.11 2656.85,-200.62 2646.32,-201.8 2649.36,-208.11"/>
</a>
</g>
</g>
<!-- Node13 -->
<g id="Node000013" class="node">
<title>Node13</title>
<g id="a_Node000013"><a xlink:href="classcom_1_1example_1_1mybookshelf_1_1BookRecommendationFlow.html#a5c657be258c13c85848c7b7115f8a0b5" target="_top" xlink:title=" ">
<polygon fill="white" stroke="#666666" points="2325,-382.5 2122,-382.5 2122,-341.5 2325,-341.5 2325,-382.5"/>
<text text-anchor="start" x="2130" y="-370.5" font-family="Helvetica,sans-Serif" font-size="10.00">com.example.mybookshelf.</text>
<text text-anchor="start" x="2130" y="-359.5" font-family="Helvetica,sans-Serif" font-size="10.00">BookRecommendationFlow.showBook</text>
<text text-anchor="middle" x="2223.5" y="-348.5" font-family="Helvetica,sans-Serif" font-size="10.00">BasedStep2</text>
</a>
</g>
</g>
<!-- Node12&#45;&gt;Node13 -->
<g id="edge25_Node000012_Node000013" class="edge">
<title>Node12&#45;&gt;Node13</title>
<g id="a_edge25_Node000012_Node000013"><a xlink:title=" ">
<path fill="none" stroke="#63b8ff" d="M2085.09,-362C2093.94,-362 2102.93,-362 2111.85,-362"/>
<polygon fill="#63b8ff" stroke="#63b8ff" points="2111.89,-365.5 2121.89,-362 2111.89,-358.5 2111.89,-365.5"/>
</a>
</g>
</g>
<!-- Node13&#45;&gt;Node2 -->
<g id="edge26_Node000013_Node000002" class="edge">
<title>Node13&#45;&gt;Node2</title>
<g id="a_edge26_Node000013_Node000002"><a xlink:title=" ">
<path fill="none" stroke="#63b8ff" d="M2268.63,-382.61C2295.53,-395.07 2330.64,-411.17 2362,-425 2451.66,-464.52 2476.65,-468.63 2565,-511 2594.47,-525.12 2626.79,-542.48 2652.07,-556.49"/>
<polygon fill="#63b8ff" stroke="#63b8ff" points="2650.61,-559.68 2661.05,-561.49 2654.01,-553.57 2650.61,-559.68"/>
</a>
</g>
</g>
<!-- Node13&#45;&gt;Node3 -->
<g id="edge27_Node000013_Node000003" class="edge">
<title>Node13&#45;&gt;Node3</title>
<g id="a_edge27_Node000013_Node000003"><a xlink:title=" ">
<path fill="none" stroke="#63b8ff" d="M2321.47,-341.49C2421.13,-320.38 2562.19,-290.36 2565,-289 2606.46,-268.93 2646.09,-233.22 2670.92,-208.15"/>
<polygon fill="#63b8ff" stroke="#63b8ff" points="2673.67,-210.35 2678.14,-200.74 2668.65,-205.47 2673.67,-210.35"/>
</a>
</g>
</g>
<!-- Node14 -->
<g id="Node000014" class="node">
<title>Node14</title>
<g id="a_Node000014"><a xlink:href="classcom_1_1example_1_1mybookshelf_1_1BookRecommendationFlow.html#aa95301256c7f5377d1bc432189483b3c" target="_top" xlink:title=" ">
<polygon fill="white" stroke="#666666" points="2565,-382.5 2362,-382.5 2362,-341.5 2565,-341.5 2565,-382.5"/>
<text text-anchor="start" x="2370" y="-370.5" font-family="Helvetica,sans-Serif" font-size="10.00">com.example.mybookshelf.</text>
<text text-anchor="start" x="2370" y="-359.5" font-family="Helvetica,sans-Serif" font-size="10.00">BookRecommendationFlow.showBook</text>
<text text-anchor="middle" x="2463.5" y="-348.5" font-family="Helvetica,sans-Serif" font-size="10.00">BasedStep3</text>
</a>
</g>
</g>
<!-- Node13&#45;&gt;Node14 -->
<g id="edge28_Node000013_Node000014" class="edge">
<title>Node13&#45;&gt;Node14</title>
<g id="a_edge28_Node000013_Node000014"><a xlink:title=" ">
<path fill="none" stroke="#63b8ff" d="M2325.09,-362C2333.94,-362 2342.93,-362 2351.85,-362"/>
<polygon fill="#63b8ff" stroke="#63b8ff" points="2351.89,-365.5 2361.89,-362 2351.89,-358.5 2351.89,-365.5"/>
</a>
</g>
</g>
<!-- Node14&#45;&gt;Node2 -->
<g id="edge29_Node000014_Node000002" class="edge">
<title>Node14&#45;&gt;Node2</title>
<g id="a_edge29_Node000014_Node000002"><a xlink:title=" ">
<path fill="none" stroke="#63b8ff" d="M2541.46,-382.59C2549.85,-386.61 2557.91,-391.36 2565,-397 2588.46,-415.63 2584,-429.32 2601,-454 2624.93,-488.72 2654.25,-527.29 2674.14,-552.92"/>
<polygon fill="#63b8ff" stroke="#63b8ff" points="2671.6,-555.35 2680.5,-561.09 2677.12,-551.05 2671.6,-555.35"/>
</a>
</g>
</g>
<!-- Node14&#45;&gt;Node3 -->
<g id="edge32_Node000014_Node000003" class="edge">
<title>Node14&#45;&gt;Node3</title>
<g id="a_edge32_Node000014_Node000003"><a xlink:title=" ">
<path fill="none" stroke="#63b8ff" d="M2537.69,-341.45C2547.25,-337.36 2556.62,-332.57 2565,-327 2612.97,-295.08 2654.82,-241.75 2677.93,-208.86"/>
<polygon fill="#63b8ff" stroke="#63b8ff" points="2680.86,-210.77 2683.67,-200.56 2675.1,-206.79 2680.86,-210.77"/>
</a>
</g>
</g>
<!-- Node15 -->
<g id="Node000015" class="node">
<title>Node15</title>
<g id="a_Node000015"><a xlink:href="classcom_1_1example_1_1mybookshelf_1_1BookRecommendationFlow.html#a78dda71d2c403a463d824ff61b2ce27f" target="_top" xlink:title=" ">
<polygon fill="white" stroke="#666666" points="2786.5,-444.5 2609.5,-444.5 2609.5,-403.5 2786.5,-403.5 2786.5,-444.5"/>
<text text-anchor="start" x="2617.5" y="-432.5" font-family="Helvetica,sans-Serif" font-size="10.00">com.example.mybookshelf.</text>
<text text-anchor="start" x="2617.5" y="-421.5" font-family="Helvetica,sans-Serif" font-size="10.00">BookRecommendationFlow.build</text>
<text text-anchor="middle" x="2698" y="-410.5" font-family="Helvetica,sans-Serif" font-size="10.00">AIStringBased</text>
</a>
</g>
</g>
<!-- Node14&#45;&gt;Node15 -->
<g id="edge30_Node000014_Node000015" class="edge">
<title>Node14&#45;&gt;Node15</title>
<g id="a_edge30_Node000014_Node000015"><a xlink:title=" ">
<path fill="none" stroke="#63b8ff" d="M2541.6,-382.56C2563.59,-388.42 2587.7,-394.85 2610.23,-400.86"/>
<polygon fill="#63b8ff" stroke="#63b8ff" points="2609.55,-404.3 2620.11,-403.49 2611.35,-397.53 2609.55,-404.3"/>
</a>
</g>
</g>
<!-- Node15&#45;&gt;Node8 -->
<g id="edge31_Node000015_Node000008" class="edge">
<title>Node15&#45;&gt;Node8</title>
<g id="a_edge31_Node000015_Node000008"><a xlink:title=" ">
<path fill="none" stroke="#63b8ff" d="M2609.26,-444.56C2475.35,-474.09 2211.57,-525 1984.5,-525 1747,-525 1747,-525 1747,-525 1586.27,-525 1541.46,-512.6 1393,-451 1356.12,-435.69 1318.42,-409.16 1294.2,-390.43"/>
<polygon fill="#63b8ff" stroke="#63b8ff" points="1296.25,-387.59 1286.22,-384.16 1291.93,-393.09 1296.25,-387.59"/>
</a>
</g>
</g>
<!-- Node16&#45;&gt;Node1 -->
<g id="edge36_Node000016_Node000001" class="edge">
<title>Node16&#45;&gt;Node1</title>
<g id="a_edge36_Node000016_Node000001"><a xlink:title=" ">
<path fill="none" stroke="#63b8ff" d="M2120.95,-227.93C1891.34,-184.36 1314.21,-85 826.5,-85 583.5,-85 583.5,-85 583.5,-85 419.98,-85 237.83,-162.62 152.55,-203.88"/>
<polygon fill="#63b8ff" stroke="#63b8ff" points="150.82,-200.83 143.37,-208.36 153.9,-207.12 150.82,-200.83"/>
</a>
</g>
</g>
<!-- Node16&#45;&gt;Node2 -->
<g id="edge34_Node000016_Node000002" class="edge">
<title>Node16&#45;&gt;Node2</title>
<g id="a_edge34_Node000016_Node000002"><a xlink:title=" ">
<path fill="none" stroke="#63b8ff" d="M2253.84,-268.5C2275.4,-284.48 2304.56,-308.09 2326,-333 2346.04,-356.28 2336.51,-374.85 2362,-392 2437.85,-443.01 2485.51,-379.86 2565,-425 2592.9,-440.84 2646.92,-512.16 2676.47,-553.01"/>
<polygon fill="#63b8ff" stroke="#63b8ff" points="2673.7,-555.16 2682.38,-561.23 2679.38,-551.07 2673.7,-555.16"/>
</a>
</g>
</g>
<!-- Node16&#45;&gt;Node3 -->
<g id="edge35_Node000016_Node000003" class="edge">
<title>Node16&#45;&gt;Node3</title>
<g id="a_edge35_Node000016_Node000003"><a xlink:title=" ">
<path fill="none" stroke="#63b8ff" d="M2326.34,-241.34C2394.27,-235.97 2485.4,-226.96 2565,-213 2580.61,-210.26 2597.1,-206.69 2612.94,-202.91"/>
<polygon fill="#63b8ff" stroke="#63b8ff" points="2613.81,-206.3 2622.7,-200.54 2612.16,-199.5 2613.81,-206.3"/>
</a>
</g>
</g>
</g>
</svg>

<g id="navigator" transform="translate(0 0)" fill="#404254">
  <rect fill="#f2f5e9" fill-opacity="0.5" stroke="#606060" stroke-width=".5" x="0" y="0" width="60" height="60"/>
  <use id="zoomplus" xlink:href="#zoomPlus" x="17" y="9" onmousedown="handleZoom(evt,'in')"/>
  <use id="zoomminus" xlink:href="#zoomMin" x="42" y="9" onmousedown="handleZoom(evt,'out')"/>
  <use id="reset" xlink:href="#resetDef" x="30" y="36" onmousedown="handleReset()"/>
   <use id="arrowup" xlink:href="#arrowUp" x="0" y="0" onmousedown="handlePan(0,-1)"/>
  <use id="arrowright" xlink:href="#arrowRight" x="0" y="0" onmousedown="handlePan(1,0)"/>
  <use id="arrowdown" xlink:href="#arrowDown" x="0" y="0" onmousedown="handlePan(0,1)"/>
  <use id="arrowleft" xlink:href="#arrowLeft" x="0" y="0" onmousedown="handlePan(-1,0)"/>
</g>
<svg viewBox="0 0 15 15" width="100%" height="30px" preserveAspectRatio="xMaxYMin meet">
 <g id="arrow_out" transform="scale(0.3 0.3)">
  <a xlink:href="classcom_1_1example_1_1mybookshelf_1_1BookRecommendationFlow_aaf567ca97b0d7f0c58ebba4d6f4b18bd_cgraph_org.svg" target="_base">
   <rect id="button" ry="5" rx="5" y="6" x="6" height="38" width="38"
        fill="#f2f5e9" fill-opacity="0.5" stroke="#606060" stroke-width="1.0"/>
   <path id="arrow"
     d="M 11.500037,31.436501 C 11.940474,20.09759 22.043105,11.32322 32.158766,21.979434 L 37.068811,17.246167 C 37.068811,17.246167 37.088388,32 37.088388,32 L 22.160133,31.978069 C 22.160133,31.978069 26.997745,27.140456 26.997745,27.140456 C 18.528582,18.264221 13.291696,25.230495 11.500037,31.436501 z"
     style="fill:#404040;"/>
  </a>
 </g>
</svg>

<style type='text/css'>
<![CDATA[
[data-mouse-over-selected='false'] { opacity: 0.7; }
[data-mouse-over-selected='true']  { opacity: 1.0; }
]]>
</style>
<script type="application/ecmascript"><![CDATA[
document.addEventListener('DOMContentLoaded', (event) => {
  highlightEdges();
  highlightAdjacentNodes();
});
]]></script>
</svg>
