<?xml version="1.0" encoding="UTF-8" standalone="no"?>
<!DOCTYPE svg PUBLIC "-//W3C//DTD SVG 1.1//EN"
 "http://www.w3.org/Graphics/SVG/1.1/DTD/svg11.dtd">
<!-- Generated by graphviz version 2.43.0 (0)
 -->
<!-- Title: BroadcastReceiver Pages: 1 -->
<svg width="444pt" height="168pt"
 viewBox="0.00 0.00 444.00 168.00" xmlns="http://www.w3.org/2000/svg" xmlns:xlink="http://www.w3.org/1999/xlink">
<g id="graph0" class="graph" transform="scale(1 1) rotate(0) translate(4 164)">
<title>BroadcastReceiver</title>
<!-- Node1 -->
<g id="Node000001" class="node">
<title>Node1</title>
<g id="a_Node000001"><a xlink:title=" ">
<polygon fill="#999999" stroke="transparent" points="268.5,-160 166.5,-160 166.5,-111 268.5,-111 268.5,-160"/>
<text text-anchor="start" x="171.5" y="-147.5" font-family="Helvetica,sans-Serif" font-size="10.00">BroadcastReceiver</text>
<text text-anchor="start" x="215.5" y="-132.5" font-family="Helvetica,sans-Serif" font-size="10.00"> </text>
<text text-anchor="start" x="215.5" y="-117.5" font-family="Helvetica,sans-Serif" font-size="10.00"> </text>
<polygon fill="#666666" stroke="#666666" points="166.5,-142.5 166.5,-142.5 268.5,-142.5 268.5,-142.5 166.5,-142.5"/>
<polygon fill="#666666" stroke="#666666" points="166.5,-127.5 166.5,-127.5 268.5,-127.5 268.5,-127.5 166.5,-127.5"/>
<polygon fill="none" stroke="#666666" points="166.5,-111 166.5,-160 268.5,-160 268.5,-111 166.5,-111"/>
</a>
</g>
</g>
<!-- Node2 -->
<g id="Node000002" class="node">
<title>Node2</title>
<g id="a_Node000002"><a xlink:href="classcom_1_1example_1_1mybookshelf_1_1notifications_1_1BootCompletedReceiver.html" target="_top" xlink:title=" ">
<polygon fill="white" stroke="transparent" points="209,-67.5 0,-67.5 0,-7.5 209,-7.5 209,-67.5"/>
<text text-anchor="start" x="5.5" y="-55.5" font-family="Helvetica,sans-Serif" font-size="10.00">com.example.mybookshelf.notifications.</text>
<text text-anchor="start" x="45.5" y="-44.5" font-family="Helvetica,sans-Serif" font-size="10.00">BootCompletedReceiver</text>
<text text-anchor="start" x="39" y="-29.5" font-family="Helvetica,sans-Serif" font-size="10.00">&#45;</text>
<text text-anchor="start" x="81.5" y="-29.5" font-family="Helvetica,sans-Serif" font-size="10.00">TAG</text>
<text text-anchor="start" x="36.5" y="-14.5" font-family="Helvetica,sans-Serif" font-size="10.00">+</text>
<text text-anchor="start" x="81.5" y="-14.5" font-family="Helvetica,sans-Serif" font-size="10.00">onReceive()</text>
<polygon fill="#666666" stroke="#666666" points="0.5,-39.5 0.5,-39.5 209.5,-39.5 209.5,-39.5 0.5,-39.5"/>
<polygon fill="#666666" stroke="#666666" points="0.5,-24.5 0.5,-24.5 79.5,-24.5 79.5,-24.5 0.5,-24.5"/>
<polygon fill="#666666" stroke="#666666" points="79.5,-24.5 79.5,-24.5 209.5,-24.5 209.5,-24.5 79.5,-24.5"/>
<polygon fill="none" stroke="#666666" points="0,-7.5 0,-67.5 209,-67.5 209,-7.5 0,-7.5"/>
</a>
</g>
</g>
<!-- Node1&#45;&gt;Node2 -->
<g id="edge1_Node000001_Node000002" class="edge">
<title>Node1&#45;&gt;Node2</title>
<g id="a_edge1_Node000001_Node000002"><a xlink:title=" ">
<path fill="none" stroke="#63b8ff" d="M181.76,-104.14C168.09,-92.52 152.53,-79.31 138.98,-67.79"/>
<polygon fill="none" stroke="#63b8ff" points="179.68,-106.96 189.57,-110.77 184.21,-101.63 179.68,-106.96"/>
</a>
</g>
</g>
<!-- Node3 -->
<g id="Node000003" class="node">
<title>Node3</title>
<g id="a_Node000003"><a xlink:href="classcom_1_1example_1_1mybookshelf_1_1notifications_1_1NotificationReceiver.html" target="_top" xlink:title=" ">
<polygon fill="white" stroke="transparent" points="436,-75 227,-75 227,0 436,0 436,-75"/>
<text text-anchor="start" x="232.5" y="-62.5" font-family="Helvetica,sans-Serif" font-size="10.00">com.example.mybookshelf.notifications.</text>
<text text-anchor="start" x="282" y="-51.5" font-family="Helvetica,sans-Serif" font-size="10.00">NotificationReceiver</text>
<text text-anchor="start" x="258.5" y="-36.5" font-family="Helvetica,sans-Serif" font-size="10.00">&#45;</text>
<text text-anchor="start" x="293.5" y="-36.5" font-family="Helvetica,sans-Serif" font-size="10.00">TAG</text>
<text text-anchor="start" x="256" y="-21.5" font-family="Helvetica,sans-Serif" font-size="10.00">+</text>
<text text-anchor="start" x="293.5" y="-21.5" font-family="Helvetica,sans-Serif" font-size="10.00">onReceive()</text>
<text text-anchor="start" x="258.5" y="-6.5" font-family="Helvetica,sans-Serif" font-size="10.00">&#45;</text>
<text text-anchor="start" x="293.5" y="-6.5" font-family="Helvetica,sans-Serif" font-size="10.00">showNotification()</text>
<polygon fill="#666666" stroke="#666666" points="227.5,-46.5 227.5,-46.5 436.5,-46.5 436.5,-46.5 227.5,-46.5"/>
<polygon fill="#666666" stroke="#666666" points="227.5,-31.5 227.5,-31.5 291.5,-31.5 291.5,-31.5 227.5,-31.5"/>
<polygon fill="#666666" stroke="#666666" points="291.5,-31.5 291.5,-31.5 436.5,-31.5 436.5,-31.5 291.5,-31.5"/>
<polygon fill="none" stroke="#666666" points="227,0 227,-75 436,-75 436,0 227,0"/>
</a>
</g>
</g>
<!-- Node1&#45;&gt;Node3 -->
<g id="edge2_Node000001_Node000003" class="edge">
<title>Node1&#45;&gt;Node3</title>
<g id="a_edge2_Node000001_Node000003"><a xlink:title=" ">
<path fill="none" stroke="#63b8ff" d="M253.45,-104.23C264.45,-94.96 276.67,-84.67 288.11,-75.04"/>
<polygon fill="none" stroke="#63b8ff" points="251.07,-101.65 245.68,-110.77 255.58,-107.01 251.07,-101.65"/>
</a>
</g>
</g>
</g>
</svg>
