<?xml version="1.0" encoding="UTF-8" standalone="no"?>
<!DOCTYPE svg PUBLIC "-//W3C//DTD SVG 1.1//EN"
 "http://www.w3.org/Graphics/SVG/1.1/DTD/svg11.dtd">
<!-- Generated by graphviz version 2.43.0 (0)
 -->
<!-- Title: com.example.mybookshelf.notifications.NotificationScheduler.changeDailyNotificationMessage Pages: 1 -->
<!--zoomable 230 -->

<svg id="main" version="1.1" xmlns="http://www.w3.org/2000/svg" xmlns:xlink="http://www.w3.org/1999/xlink" xml:space="preserve" onload="init(evt)">

<style type="text/css"><![CDATA[
.node, .edge {opacity: 0.7;}
.node.selected, .edge.selected {opacity: 1;}
.edge:hover path { stroke: red; }
.edge:hover polygon { stroke: red; fill: red; }
]]></style>

<defs>
  <circle id="rim" cx="0" cy="0" r="7"/>
  <circle id="rim2" cx="0" cy="0" r="3.5"/>
  <g id="zoomPlus">
    <use xlink:href="#rim" fill="#404040"><set attributeName="fill" to="#808080" begin="zoomplus.mouseover" end="zoomplus.mouseout"/></use>
    <path d="M-4,0h8M0,-4v8" fill="none" stroke="white" stroke-width="1.5" pointer-events="none"/>
  </g>
  <g id="zoomMin">
    <use xlink:href="#rim" fill="#404040"><set attributeName="fill" to="#808080" begin="zoomminus.mouseover" end="zoomminus.mouseout"/></use>
    <path d="M-4,0h8" fill="none" stroke="white" stroke-width="1.5" pointer-events="none"/>
  </g>
  <g id="arrowUp" transform="translate(30 24)">
    <use xlink:href="#rim"/>
    <path pointer-events="none" fill="none" stroke="white" stroke-width="1.5" d="M0,-3.0v7 M-2.5,-0.5L0,-3.0L2.5,-0.5"/>
  </g>
  <g id="arrowRight" transform="rotate(90) translate(36 -43)">
    <use xlink:href="#rim"/>
    <path pointer-events="none" fill="none" stroke="white" stroke-width="1.5" d="M0,-3.0v7 M-2.5,-0.5L0,-3.0L2.5,-0.5"/>
  </g>
  <g id="arrowDown" transform="rotate(180) translate(-30 -48)">
    <use xlink:href="#rim"/>
    <path pointer-events="none" fill="none" stroke="white" stroke-width="1.5" d="M0,-3.0v7 M-2.5,-0.5L0,-3.0L2.5,-0.5"/>
  </g>
  <g id="arrowLeft" transform="rotate(270) translate(-36 17)">
    <use xlink:href="#rim"/>
    <path pointer-events="none" fill="none" stroke="white" stroke-width="1.5" d="M0,-3.0v7 M-2.5,-0.5L0,-3.0L2.5,-0.5"/>
  </g>
  <g id="resetDef">
    <use xlink:href="#rim2" fill="#404040"><set attributeName="fill" to="#808080" begin="reset.mouseover" end="reset.mouseout"/></use>
  </g>
</defs>
<script type="application/ecmascript">
var viewWidth = 538;
var viewHeight = 230;
var sectionId = 'dynsection-3';
</script>
<script type="application/ecmascript" xlink:href="svg.min.js"/>
<svg id="graph" class="graph">
<g id="viewport">
<title>com.example.mybookshelf.notifications.NotificationScheduler.changeDailyNotificationMessage</title>
<!-- Node1 -->
<g id="Node000001" class="node">
<title>Node1</title>
<g id="a_Node000001"><a xlink:title=" ">
<polygon fill="#999999" stroke="#666666" points="240,-131.5 0,-131.5 0,-90.5 240,-90.5 240,-131.5"/>
<text text-anchor="start" x="8" y="-119.5" font-family="Helvetica,sans-Serif" font-size="10.00">com.example.mybookshelf.notifications.</text>
<text text-anchor="start" x="8" y="-108.5" font-family="Helvetica,sans-Serif" font-size="10.00">NotificationScheduler.changeDailyNotification</text>
<text text-anchor="middle" x="120" y="-97.5" font-family="Helvetica,sans-Serif" font-size="10.00">Message</text>
</a>
</g>
</g>
<!-- Node2 -->
<g id="Node000002" class="node">
<title>Node2</title>
<g id="a_Node000002"><a xlink:href="classcom_1_1example_1_1mybookshelf_1_1notifications_1_1NotificationScheduler.html#afc96590cd792b862b32762b84cab085e" target="_top" xlink:title=" ">
<polygon fill="white" stroke="#666666" points="521,-222 285,-222 285,-192 521,-192 521,-222"/>
<text text-anchor="start" x="293" y="-210" font-family="Helvetica,sans-Serif" font-size="10.00">com.example.mybookshelf.notifications.</text>
<text text-anchor="middle" x="403" y="-199" font-family="Helvetica,sans-Serif" font-size="10.00">NotificationScheduler.cancelDailyNotification</text>
</a>
</g>
</g>
<!-- Node1&#45;&gt;Node2 -->
<g id="edge1_Node000001_Node000002" class="edge">
<title>Node1&#45;&gt;Node2</title>
<g id="a_edge1_Node000001_Node000002"><a xlink:title=" ">
<path fill="none" stroke="#63b8ff" d="M158.48,-131.61C189.23,-147.73 234.34,-169.58 276,-183 283.38,-185.38 291.08,-187.55 298.88,-189.53"/>
<polygon fill="#63b8ff" stroke="#63b8ff" points="298.25,-192.98 308.79,-191.94 299.9,-186.18 298.25,-192.98"/>
</a>
</g>
</g>
<!-- Node3 -->
<g id="Node000003" class="node">
<title>Node3</title>
<g id="a_Node000003"><a xlink:href="classcom_1_1example_1_1mybookshelf_1_1notifications_1_1NotificationScheduler.html#aaf3ebda4b3bc3da4f2c4e8cabb4a3602" target="_top" xlink:title=" ">
<polygon fill="white" stroke="#666666" points="525,-174 281,-174 281,-144 525,-144 525,-174"/>
<text text-anchor="start" x="289" y="-162" font-family="Helvetica,sans-Serif" font-size="10.00">com.example.mybookshelf.notifications.</text>
<text text-anchor="middle" x="403" y="-151" font-family="Helvetica,sans-Serif" font-size="10.00">NotificationScheduler.getDailyNotificationHour</text>
</a>
</g>
</g>
<!-- Node1&#45;&gt;Node3 -->
<g id="edge2_Node000001_Node000003" class="edge">
<title>Node1&#45;&gt;Node3</title>
<g id="a_edge2_Node000001_Node000003"><a xlink:title=" ">
<path fill="none" stroke="#63b8ff" d="M240.17,-131.36C261.38,-134.98 283.25,-138.72 303.8,-142.23"/>
<polygon fill="#63b8ff" stroke="#63b8ff" points="303.32,-145.69 313.77,-143.93 304.5,-138.79 303.32,-145.69"/>
</a>
</g>
</g>
<!-- Node4 -->
<g id="Node000004" class="node">
<title>Node4</title>
<g id="a_Node000004"><a xlink:href="classcom_1_1example_1_1mybookshelf_1_1notifications_1_1NotificationScheduler.html#ad29a9938277c2a671b0399cdc84c7844" target="_top" xlink:title=" ">
<polygon fill="white" stroke="#666666" points="530,-126 276,-126 276,-96 530,-96 530,-126"/>
<text text-anchor="start" x="284" y="-114" font-family="Helvetica,sans-Serif" font-size="10.00">com.example.mybookshelf.notifications.</text>
<text text-anchor="middle" x="403" y="-103" font-family="Helvetica,sans-Serif" font-size="10.00">NotificationScheduler.getDailyNotificationMinute</text>
</a>
</g>
</g>
<!-- Node1&#45;&gt;Node4 -->
<g id="edge3_Node000001_Node000004" class="edge">
<title>Node1&#45;&gt;Node4</title>
<g id="a_edge3_Node000001_Node000004"><a xlink:title=" ">
<path fill="none" stroke="#63b8ff" d="M240.17,-111C248.66,-111 257.26,-111 265.84,-111"/>
<polygon fill="#63b8ff" stroke="#63b8ff" points="265.89,-114.5 275.89,-111 265.89,-107.5 265.89,-114.5"/>
</a>
</g>
</g>
<!-- Node5 -->
<g id="Node000005" class="node">
<title>Node5</title>
<g id="a_Node000005"><a xlink:href="classcom_1_1example_1_1mybookshelf_1_1notifications_1_1NotificationScheduler.html#ac8a096801252bd85cf58f0b4ded28ebe" target="_top" xlink:title=" ">
<polygon fill="white" stroke="#666666" points="525,-78 281,-78 281,-48 525,-48 525,-78"/>
<text text-anchor="start" x="289" y="-66" font-family="Helvetica,sans-Serif" font-size="10.00">com.example.mybookshelf.notifications.</text>
<text text-anchor="middle" x="403" y="-55" font-family="Helvetica,sans-Serif" font-size="10.00">NotificationScheduler.isDailyNotificationActive</text>
</a>
</g>
</g>
<!-- Node1&#45;&gt;Node5 -->
<g id="edge4_Node000001_Node000005" class="edge">
<title>Node1&#45;&gt;Node5</title>
<g id="a_edge4_Node000001_Node000005"><a xlink:title=" ">
<path fill="none" stroke="#63b8ff" d="M240.17,-90.64C261.38,-87.02 283.25,-83.28 303.8,-79.77"/>
<polygon fill="#63b8ff" stroke="#63b8ff" points="304.5,-83.21 313.77,-78.07 303.32,-76.31 304.5,-83.21"/>
</a>
</g>
</g>
<!-- Node6 -->
<g id="Node000006" class="node">
<title>Node6</title>
<g id="a_Node000006"><a xlink:href="classcom_1_1example_1_1mybookshelf_1_1notifications_1_1NotificationScheduler.html#a5833d4c1b987dddea26acdad230c640f" target="_top" xlink:title=" ">
<polygon fill="white" stroke="#666666" points="527,-30 279,-30 279,0 527,0 527,-30"/>
<text text-anchor="start" x="287" y="-18" font-family="Helvetica,sans-Serif" font-size="10.00">com.example.mybookshelf.notifications.</text>
<text text-anchor="middle" x="403" y="-7" font-family="Helvetica,sans-Serif" font-size="10.00">NotificationScheduler.scheduleDailyNotification</text>
</a>
</g>
</g>
<!-- Node1&#45;&gt;Node6 -->
<g id="edge5_Node000001_Node000006" class="edge">
<title>Node1&#45;&gt;Node6</title>
<g id="a_edge5_Node000001_Node000006"><a xlink:title=" ">
<path fill="none" stroke="#63b8ff" d="M158.48,-90.39C189.23,-74.27 234.34,-52.42 276,-39 283.38,-36.62 291.08,-34.45 298.88,-32.47"/>
<polygon fill="#63b8ff" stroke="#63b8ff" points="299.9,-35.82 308.79,-30.06 298.25,-29.02 299.9,-35.82"/>
</a>
</g>
</g>
</g>
</svg>

<g id="navigator" transform="translate(0 0)" fill="#404254">
  <rect fill="#f2f5e9" fill-opacity="0.5" stroke="#606060" stroke-width=".5" x="0" y="0" width="60" height="60"/>
  <use id="zoomplus" xlink:href="#zoomPlus" x="17" y="9" onmousedown="handleZoom(evt,'in')"/>
  <use id="zoomminus" xlink:href="#zoomMin" x="42" y="9" onmousedown="handleZoom(evt,'out')"/>
  <use id="reset" xlink:href="#resetDef" x="30" y="36" onmousedown="handleReset()"/>
   <use id="arrowup" xlink:href="#arrowUp" x="0" y="0" onmousedown="handlePan(0,-1)"/>
  <use id="arrowright" xlink:href="#arrowRight" x="0" y="0" onmousedown="handlePan(1,0)"/>
  <use id="arrowdown" xlink:href="#arrowDown" x="0" y="0" onmousedown="handlePan(0,1)"/>
  <use id="arrowleft" xlink:href="#arrowLeft" x="0" y="0" onmousedown="handlePan(-1,0)"/>
</g>
<svg viewBox="0 0 15 15" width="100%" height="30px" preserveAspectRatio="xMaxYMin meet">
 <g id="arrow_out" transform="scale(0.3 0.3)">
  <a xlink:href="classcom_1_1example_1_1mybookshelf_1_1notifications_1_1NotificationScheduler_afeb40a8c5551b18f32abe21dcc0e130a_cgraph_org.svg" target="_base">
   <rect id="button" ry="5" rx="5" y="6" x="6" height="38" width="38"
        fill="#f2f5e9" fill-opacity="0.5" stroke="#606060" stroke-width="1.0"/>
   <path id="arrow"
     d="M 11.500037,31.436501 C 11.940474,20.09759 22.043105,11.32322 32.158766,21.979434 L 37.068811,17.246167 C 37.068811,17.246167 37.088388,32 37.088388,32 L 22.160133,31.978069 C 22.160133,31.978069 26.997745,27.140456 26.997745,27.140456 C 18.528582,18.264221 13.291696,25.230495 11.500037,31.436501 z"
     style="fill:#404040;"/>
  </a>
 </g>
</svg>

<style type='text/css'>
<![CDATA[
[data-mouse-over-selected='false'] { opacity: 0.7; }
[data-mouse-over-selected='true']  { opacity: 1.0; }
]]>
</style>
<script type="application/ecmascript"><![CDATA[
document.addEventListener('DOMContentLoaded', (event) => {
  highlightEdges();
  highlightAdjacentNodes();
});
]]></script>
</svg>
