<?xml version="1.0" encoding="UTF-8" standalone="no"?>
<!DOCTYPE svg PUBLIC "-//W3C//DTD SVG 1.1//EN"
 "http://www.w3.org/Graphics/SVG/1.1/DTD/svg11.dtd">
<!-- Generated by graphviz version 2.43.0 (0)
 -->
<!-- Title: com.example.mybookshelf.notifications.NotificationScheduler.isDailyNotificationActive Pages: 1 -->
<!--zoomable 166 -->

<svg id="main" version="1.1" xmlns="http://www.w3.org/2000/svg" xmlns:xlink="http://www.w3.org/1999/xlink" xml:space="preserve" onload="init(evt)">

<style type="text/css"><![CDATA[
.node, .edge {opacity: 0.7;}
.node.selected, .edge.selected {opacity: 1;}
.edge:hover path { stroke: red; }
.edge:hover polygon { stroke: red; fill: red; }
]]></style>

<defs>
  <circle id="rim" cx="0" cy="0" r="7"/>
  <circle id="rim2" cx="0" cy="0" r="3.5"/>
  <g id="zoomPlus">
    <use xlink:href="#rim" fill="#404040"><set attributeName="fill" to="#808080" begin="zoomplus.mouseover" end="zoomplus.mouseout"/></use>
    <path d="M-4,0h8M0,-4v8" fill="none" stroke="white" stroke-width="1.5" pointer-events="none"/>
  </g>
  <g id="zoomMin">
    <use xlink:href="#rim" fill="#404040"><set attributeName="fill" to="#808080" begin="zoomminus.mouseover" end="zoomminus.mouseout"/></use>
    <path d="M-4,0h8" fill="none" stroke="white" stroke-width="1.5" pointer-events="none"/>
  </g>
  <g id="arrowUp" transform="translate(30 24)">
    <use xlink:href="#rim"/>
    <path pointer-events="none" fill="none" stroke="white" stroke-width="1.5" d="M0,-3.0v7 M-2.5,-0.5L0,-3.0L2.5,-0.5"/>
  </g>
  <g id="arrowRight" transform="rotate(90) translate(36 -43)">
    <use xlink:href="#rim"/>
    <path pointer-events="none" fill="none" stroke="white" stroke-width="1.5" d="M0,-3.0v7 M-2.5,-0.5L0,-3.0L2.5,-0.5"/>
  </g>
  <g id="arrowDown" transform="rotate(180) translate(-30 -48)">
    <use xlink:href="#rim"/>
    <path pointer-events="none" fill="none" stroke="white" stroke-width="1.5" d="M0,-3.0v7 M-2.5,-0.5L0,-3.0L2.5,-0.5"/>
  </g>
  <g id="arrowLeft" transform="rotate(270) translate(-36 17)">
    <use xlink:href="#rim"/>
    <path pointer-events="none" fill="none" stroke="white" stroke-width="1.5" d="M0,-3.0v7 M-2.5,-0.5L0,-3.0L2.5,-0.5"/>
  </g>
  <g id="resetDef">
    <use xlink:href="#rim2" fill="#404040"><set attributeName="fill" to="#808080" begin="reset.mouseover" end="reset.mouseout"/></use>
  </g>
</defs>
<script type="application/ecmascript">
var viewWidth = 1523;
var viewHeight = 166;
var sectionId = 'dynsection-9';
</script>
<script type="application/ecmascript" xlink:href="svg.min.js"/>
<svg id="graph" class="graph">
<g id="viewport">
<title>com.example.mybookshelf.notifications.NotificationScheduler.isDailyNotificationActive</title>
<!-- Node1 -->
<g id="Node000001" class="node">
<title>Node1</title>
<g id="a_Node000001"><a xlink:title=" ">
<polygon fill="#999999" stroke="#666666" points="1515,-98.28 1271,-98.28 1271,-68.28 1515,-68.28 1515,-98.28"/>
<text text-anchor="start" x="1279" y="-86.28" font-family="Helvetica,sans-Serif" font-size="10.00">com.example.mybookshelf.notifications.</text>
<text text-anchor="middle" x="1393" y="-75.28" font-family="Helvetica,sans-Serif" font-size="10.00">NotificationScheduler.isDailyNotificationActive</text>
</a>
</g>
</g>
<!-- Node2 -->
<g id="Node000002" class="node">
<title>Node2</title>
<g id="a_Node000002"><a xlink:href="classcom_1_1example_1_1mybookshelf_1_1notifications_1_1NotificationScheduler.html#afeb40a8c5551b18f32abe21dcc0e130a" target="_top" xlink:title=" ">
<polygon fill="white" stroke="#666666" points="1235,-157.78 995,-157.78 995,-116.78 1235,-116.78 1235,-157.78"/>
<text text-anchor="start" x="1003" y="-145.78" font-family="Helvetica,sans-Serif" font-size="10.00">com.example.mybookshelf.notifications.</text>
<text text-anchor="start" x="1003" y="-134.78" font-family="Helvetica,sans-Serif" font-size="10.00">NotificationScheduler.changeDailyNotification</text>
<text text-anchor="middle" x="1115" y="-123.78" font-family="Helvetica,sans-Serif" font-size="10.00">Message</text>
</a>
</g>
</g>
<!-- Node1&#45;&gt;Node2 -->
<g id="edge1_Node000001_Node000002" class="edge">
<title>Node1&#45;&gt;Node2</title>
<g id="a_edge1_Node000001_Node000002"><a xlink:title=" ">
<path fill="none" stroke="#63b8ff" d="M1305.03,-100.29C1278.31,-105.52 1248.62,-111.33 1220.83,-116.77"/>
<polygon fill="#63b8ff" stroke="#63b8ff" points="1305.98,-103.67 1315.12,-98.32 1304.63,-96.8 1305.98,-103.67"/>
</a>
</g>
</g>
<!-- Node3 -->
<g id="Node000003" class="node">
<title>Node3</title>
<g id="a_Node000003"><a xlink:href="classcom_1_1example_1_1mybookshelf_1_1UIMaster.html#ac859db60f9068e6a87b633ef697d4d0f" target="_top" xlink:title=" ">
<polygon fill="white" stroke="#666666" points="1193,-98.28 1037,-98.28 1037,-68.28 1193,-68.28 1193,-98.28"/>
<text text-anchor="start" x="1045" y="-86.28" font-family="Helvetica,sans-Serif" font-size="10.00">com.example.mybookshelf.</text>
<text text-anchor="middle" x="1115" y="-75.28" font-family="Helvetica,sans-Serif" font-size="10.00">UIMaster.navigateToSettings</text>
</a>
</g>
</g>
<!-- Node1&#45;&gt;Node3 -->
<g id="edge2_Node000001_Node000003" class="edge">
<title>Node1&#45;&gt;Node3</title>
<g id="a_edge2_Node000001_Node000003"><a xlink:title=" ">
<path fill="none" stroke="#63b8ff" d="M1260.71,-83.28C1237.62,-83.28 1214.28,-83.28 1193.27,-83.28"/>
<polygon fill="#63b8ff" stroke="#63b8ff" points="1260.94,-86.78 1270.94,-83.28 1260.94,-79.78 1260.94,-86.78"/>
</a>
</g>
</g>
<!-- Node9 -->
<g id="Node000009" class="node">
<title>Node9</title>
<g id="a_Node000009"><a xlink:href="classcom_1_1example_1_1mybookshelf_1_1notifications_1_1NotificationScheduler.html#ae2ade14f140458ae3bdac1c7e0ac35d8" target="_top" xlink:title=" ">
<polygon fill="white" stroke="#666666" points="1233,-50.28 997,-50.28 997,-20.28 1233,-20.28 1233,-50.28"/>
<text text-anchor="start" x="1005" y="-38.28" font-family="Helvetica,sans-Serif" font-size="10.00">com.example.mybookshelf.notifications.</text>
<text text-anchor="middle" x="1115" y="-27.28" font-family="Helvetica,sans-Serif" font-size="10.00">NotificationScheduler.toggleDailyNotification</text>
</a>
</g>
</g>
<!-- Node1&#45;&gt;Node9 -->
<g id="edge14_Node000001_Node000009" class="edge">
<title>Node1&#45;&gt;Node9</title>
<g id="a_edge14_Node000001_Node000009"><a xlink:title=" ">
<path fill="none" stroke="#63b8ff" d="M1295.28,-66.46C1264.99,-61.19 1231.78,-55.41 1202.26,-50.28"/>
<polygon fill="#63b8ff" stroke="#63b8ff" points="1294.98,-69.96 1305.43,-68.22 1296.18,-63.06 1294.98,-69.96"/>
</a>
</g>
</g>
<!-- Node4 -->
<g id="Node000004" class="node">
<title>Node4</title>
<g id="a_Node000004"><a xlink:href="classcom_1_1example_1_1mybookshelf_1_1UIMaster.html#ac2a608fcf86d3dbe14b4684dbbaf1431" target="_top" xlink:title=" ">
<polygon fill="white" stroke="#666666" points="340,-136.28 188,-136.28 188,-106.28 340,-106.28 340,-136.28"/>
<text text-anchor="start" x="196" y="-124.28" font-family="Helvetica,sans-Serif" font-size="10.00">com.example.mybookshelf.</text>
<text text-anchor="middle" x="264" y="-113.28" font-family="Helvetica,sans-Serif" font-size="10.00">UIMaster.navigateToDetails</text>
</a>
</g>
</g>
<!-- Node3&#45;&gt;Node4 -->
<g id="edge3_Node000003_Node000004" class="edge">
<title>Node3&#45;&gt;Node4</title>
<g id="a_edge3_Node000003_Node000004"><a xlink:title=" ">
<path fill="none" stroke="#63b8ff" d="M1026.93,-98.58C1004.84,-101.96 981.1,-105.16 959,-107.28 734.67,-128.72 467.76,-126.31 340.18,-123.45"/>
<polygon fill="#63b8ff" stroke="#63b8ff" points="1027.62,-102.02 1036.96,-97.02 1026.54,-95.1 1027.62,-102.02"/>
</a>
</g>
</g>
<!-- Node6 -->
<g id="Node000006" class="node">
<title>Node6</title>
<g id="a_Node000006"><a xlink:href="classcom_1_1example_1_1mybookshelf_1_1UIMaster.html#ad30bff41c8ec833af2293c0b6c8b47b2" target="_top" xlink:title=" ">
<polygon fill="white" stroke="#666666" points="959,-98.28 807,-98.28 807,-68.28 959,-68.28 959,-98.28"/>
<text text-anchor="start" x="815" y="-86.28" font-family="Helvetica,sans-Serif" font-size="10.00">com.example.mybookshelf.</text>
<text text-anchor="middle" x="883" y="-75.28" font-family="Helvetica,sans-Serif" font-size="10.00">UIMaster.navigateToGoals</text>
</a>
</g>
</g>
<!-- Node3&#45;&gt;Node6 -->
<g id="edge5_Node000003_Node000006" class="edge">
<title>Node3&#45;&gt;Node6</title>
<g id="a_edge5_Node000003_Node000006"><a xlink:title=" ">
<path fill="none" stroke="#63b8ff" d="M1026.66,-76.7C1004.4,-76.41 980.66,-76.48 959.07,-76.9"/>
<polygon fill="#63b8ff" stroke="#63b8ff" points="1026.72,-80.2 1036.77,-76.86 1026.83,-73.21 1026.72,-80.2"/>
</a>
</g>
</g>
<!-- Node7 -->
<g id="Node000007" class="node">
<title>Node7</title>
<g id="a_Node000007"><a xlink:href="classcom_1_1example_1_1mybookshelf_1_1UIMaster.html#aa6aad8404432bdaf23db9b41e99a6ed5" target="_top" xlink:title=" ">
<polygon fill="white" stroke="#666666" points="771,-55.28 590,-55.28 590,-25.28 771,-25.28 771,-55.28"/>
<text text-anchor="start" x="598" y="-43.28" font-family="Helvetica,sans-Serif" font-size="10.00">com.example.mybookshelf.</text>
<text text-anchor="middle" x="680.5" y="-32.28" font-family="Helvetica,sans-Serif" font-size="10.00">UIMaster.setupNavigationButtons</text>
</a>
</g>
</g>
<!-- Node3&#45;&gt;Node7 -->
<g id="edge13_Node000003_Node000007" class="edge">
<title>Node3&#45;&gt;Node7</title>
<g id="a_edge13_Node000003_Node000007"><a xlink:title=" ">
<path fill="none" stroke="#63b8ff" d="M1026.88,-68.45C1004.79,-65.06 981.06,-61.73 959,-59.28 896.37,-52.3 825.48,-47.5 771.03,-44.47"/>
<polygon fill="#63b8ff" stroke="#63b8ff" points="1026.49,-71.93 1036.91,-70.01 1027.57,-65.02 1026.49,-71.93"/>
</a>
</g>
</g>
<!-- Node5 -->
<g id="Node000005" class="node">
<title>Node5</title>
<g id="a_Node000005"><a xlink:href="classcom_1_1example_1_1mybookshelf_1_1UIMaster.html#a1533d0ed2384f2ec729cfcec7bd9a25f" target="_top" xlink:title=" ">
<polygon fill="white" stroke="#666666" points="152,-136.28 0,-136.28 0,-106.28 152,-106.28 152,-136.28"/>
<text text-anchor="start" x="8" y="-124.28" font-family="Helvetica,sans-Serif" font-size="10.00">com.example.mybookshelf.</text>
<text text-anchor="middle" x="76" y="-113.28" font-family="Helvetica,sans-Serif" font-size="10.00">UIMaster.createBookBox</text>
</a>
</g>
</g>
<!-- Node4&#45;&gt;Node5 -->
<g id="edge4_Node000004_Node000005" class="edge">
<title>Node4&#45;&gt;Node5</title>
<g id="a_edge4_Node000004_Node000005"><a xlink:title=" ">
<path fill="none" stroke="#63b8ff" d="M177.85,-121.28C169.26,-121.28 160.57,-121.28 152.1,-121.28"/>
<polygon fill="#63b8ff" stroke="#63b8ff" points="177.88,-124.78 187.88,-121.28 177.88,-117.78 177.88,-124.78"/>
</a>
</g>
</g>
<!-- Node6&#45;&gt;Node3 -->
<g id="edge7_Node000006_Node000003" class="edge">
<title>Node6&#45;&gt;Node3</title>
<g id="a_edge7_Node000006_Node000003"><a xlink:title=" ">
<path fill="none" stroke="#63b8ff" d="M969.13,-89.82C991.29,-90.13 1015.04,-90.09 1036.77,-89.69"/>
<polygon fill="#63b8ff" stroke="#63b8ff" points="969.13,-86.32 959.07,-89.65 969.01,-93.32 969.13,-86.32"/>
</a>
</g>
</g>
<!-- Node6&#45;&gt;Node4 -->
<g id="edge6_Node000006_Node000004" class="edge">
<title>Node6&#45;&gt;Node4</title>
<g id="a_edge6_Node000006_Node000004"><a xlink:title=" ">
<path fill="none" stroke="#63b8ff" d="M796.63,-88.53C675.56,-95.99 455.9,-109.52 340.48,-116.63"/>
<polygon fill="#63b8ff" stroke="#63b8ff" points="797.19,-92.01 806.96,-87.9 796.76,-85.02 797.19,-92.01"/>
</a>
</g>
</g>
<!-- Node6&#45;&gt;Node7 -->
<g id="edge8_Node000006_Node000007" class="edge">
<title>Node6&#45;&gt;Node7</title>
<g id="a_edge8_Node000006_Node000007"><a xlink:title=" ">
<path fill="none" stroke="#63b8ff" d="M801.67,-66.05C785.09,-62.49 767.76,-58.78 751.59,-55.31"/>
<polygon fill="#63b8ff" stroke="#63b8ff" points="801.36,-69.56 811.87,-68.24 802.83,-62.72 801.36,-69.56"/>
</a>
</g>
</g>
<!-- Node8 -->
<g id="Node000008" class="node">
<title>Node8</title>
<g id="a_Node000008"><a xlink:href="classcom_1_1example_1_1mybookshelf_1_1UIMaster.html#ad609d5e0b54e87afcb60aed6c66a792e" target="_top" xlink:title=" ">
<polygon fill="white" stroke="#666666" points="554,-74.28 376,-74.28 376,-44.28 554,-44.28 554,-74.28"/>
<text text-anchor="start" x="384" y="-62.28" font-family="Helvetica,sans-Serif" font-size="10.00">com.example.mybookshelf.</text>
<text text-anchor="middle" x="465" y="-51.28" font-family="Helvetica,sans-Serif" font-size="10.00">UIMaster.navigateToStartingPage</text>
</a>
</g>
</g>
<!-- Node7&#45;&gt;Node8 -->
<g id="edge9_Node000007_Node000008" class="edge">
<title>Node7&#45;&gt;Node8</title>
<g id="a_edge9_Node000007_Node000008"><a xlink:title=" ">
<path fill="none" stroke="#63b8ff" d="M579.82,-49.15C571.2,-49.91 562.53,-50.69 554.02,-51.44"/>
<polygon fill="#63b8ff" stroke="#63b8ff" points="580.23,-52.62 589.88,-48.25 579.61,-45.65 580.23,-52.62"/>
</a>
</g>
</g>
<!-- Node8&#45;&gt;Node3 -->
<g id="edge12_Node000008_Node000003" class="edge">
<title>Node8&#45;&gt;Node3</title>
<g id="a_edge12_Node000008_Node000003"><a xlink:title=" ">
<path fill="none" stroke="#63b8ff" d="M508.73,-40.5C532.21,-31.19 562.16,-20.97 590,-16.28 752.12,11.04 801.43,4.63 959,-42.28 975.96,-47.32 978.2,-53.71 995,-59.28 1008.3,-63.69 1022.73,-67.42 1036.79,-70.54"/>
<polygon fill="#63b8ff" stroke="#63b8ff" points="507.36,-37.27 499.41,-44.27 509.99,-43.76 507.36,-37.27"/>
</a>
</g>
</g>
<!-- Node8&#45;&gt;Node4 -->
<g id="edge10_Node000008_Node000004" class="edge">
<title>Node8&#45;&gt;Node4</title>
<g id="a_edge10_Node000008_Node000004"><a xlink:title=" ">
<path fill="none" stroke="#63b8ff" d="M406.1,-77.32C376.69,-86.48 341.37,-97.48 313.42,-106.19"/>
<polygon fill="#63b8ff" stroke="#63b8ff" points="407.32,-80.6 415.83,-74.28 405.24,-73.92 407.32,-80.6"/>
</a>
</g>
</g>
<!-- Node8&#45;&gt;Node6 -->
<g id="edge11_Node000008_Node000006" class="edge">
<title>Node8&#45;&gt;Node6</title>
<g id="a_edge11_Node000008_Node000006"><a xlink:title=" ">
<path fill="none" stroke="#63b8ff" d="M564.4,-64.95C638.58,-69.23 738.8,-75.01 806.67,-78.93"/>
<polygon fill="#63b8ff" stroke="#63b8ff" points="564.3,-61.44 554.12,-64.36 563.9,-68.43 564.3,-61.44"/>
</a>
</g>
</g>
</g>
</svg>

<g id="navigator" transform="translate(0 0)" fill="#404254">
  <rect fill="#f2f5e9" fill-opacity="0.5" stroke="#606060" stroke-width=".5" x="0" y="0" width="60" height="60"/>
  <use id="zoomplus" xlink:href="#zoomPlus" x="17" y="9" onmousedown="handleZoom(evt,'in')"/>
  <use id="zoomminus" xlink:href="#zoomMin" x="42" y="9" onmousedown="handleZoom(evt,'out')"/>
  <use id="reset" xlink:href="#resetDef" x="30" y="36" onmousedown="handleReset()"/>
   <use id="arrowup" xlink:href="#arrowUp" x="0" y="0" onmousedown="handlePan(0,-1)"/>
  <use id="arrowright" xlink:href="#arrowRight" x="0" y="0" onmousedown="handlePan(1,0)"/>
  <use id="arrowdown" xlink:href="#arrowDown" x="0" y="0" onmousedown="handlePan(0,1)"/>
  <use id="arrowleft" xlink:href="#arrowLeft" x="0" y="0" onmousedown="handlePan(-1,0)"/>
</g>
<svg viewBox="0 0 15 15" width="100%" height="30px" preserveAspectRatio="xMaxYMin meet">
 <g id="arrow_out" transform="scale(0.3 0.3)">
  <a xlink:href="classcom_1_1example_1_1mybookshelf_1_1notifications_1_1NotificationScheduler_ac8a096801252bd85cf58f0b4ded28ebe_icgraph_org.svg" target="_base">
   <rect id="button" ry="5" rx="5" y="6" x="6" height="38" width="38"
        fill="#f2f5e9" fill-opacity="0.5" stroke="#606060" stroke-width="1.0"/>
   <path id="arrow"
     d="M 11.500037,31.436501 C 11.940474,20.09759 22.043105,11.32322 32.158766,21.979434 L 37.068811,17.246167 C 37.068811,17.246167 37.088388,32 37.088388,32 L 22.160133,31.978069 C 22.160133,31.978069 26.997745,27.140456 26.997745,27.140456 C 18.528582,18.264221 13.291696,25.230495 11.500037,31.436501 z"
     style="fill:#404040;"/>
  </a>
 </g>
</svg>

<style type='text/css'>
<![CDATA[
[data-mouse-over-selected='false'] { opacity: 0.7; }
[data-mouse-over-selected='true']  { opacity: 1.0; }
]]>
</style>
<script type="application/ecmascript"><![CDATA[
document.addEventListener('DOMContentLoaded', (event) => {
  highlightEdges();
  highlightAdjacentNodes();
});
]]></script>
</svg>
