<?xml version="1.0" encoding="UTF-8" standalone="no"?>
<!DOCTYPE svg PUBLIC "-//W3C//DTD SVG 1.1//EN"
 "http://www.w3.org/Graphics/SVG/1.1/DTD/svg11.dtd">
<!-- Generated by graphviz version 2.43.0 (0)
 -->
<!-- Title: com.example.mybookshelf.notifications.NotificationScheduler.getDailyNotificationHour Pages: 1 -->
<svg width="1523pt" height="217pt"
 viewBox="0.00 0.00 1523.00 217.42" xmlns="http://www.w3.org/2000/svg" xmlns:xlink="http://www.w3.org/1999/xlink">
<g id="graph0" class="graph" transform="scale(1 1) rotate(0) translate(4 213.42)">
<title>com.example.mybookshelf.notifications.NotificationScheduler.getDailyNotificationHour</title>
<!-- Node1 -->
<g id="Node000001" class="node">
<title>Node1</title>
<g id="a_Node000001"><a xlink:title=" ">
<polygon fill="#999999" stroke="#666666" points="1515,-144.92 1271,-144.92 1271,-114.92 1515,-114.92 1515,-144.92"/>
<text text-anchor="start" x="1279" y="-132.92" font-family="Helvetica,sans-Serif" font-size="10.00">com.example.mybookshelf.notifications.</text>
<text text-anchor="middle" x="1393" y="-121.92" font-family="Helvetica,sans-Serif" font-size="10.00">NotificationScheduler.getDailyNotificationHour</text>
</a>
</g>
</g>
<!-- Node2 -->
<g id="Node000002" class="node">
<title>Node2</title>
<g id="a_Node000002"><a xlink:href="classcom_1_1example_1_1mybookshelf_1_1notifications_1_1NotificationScheduler.html#afeb40a8c5551b18f32abe21dcc0e130a" target="_top" xlink:title=" ">
<polygon fill="white" stroke="#666666" points="1235,-209.42 995,-209.42 995,-168.42 1235,-168.42 1235,-209.42"/>
<text text-anchor="start" x="1003" y="-197.42" font-family="Helvetica,sans-Serif" font-size="10.00">com.example.mybookshelf.notifications.</text>
<text text-anchor="start" x="1003" y="-186.42" font-family="Helvetica,sans-Serif" font-size="10.00">NotificationScheduler.changeDailyNotification</text>
<text text-anchor="middle" x="1115" y="-175.42" font-family="Helvetica,sans-Serif" font-size="10.00">Message</text>
</a>
</g>
</g>
<!-- Node1&#45;&gt;Node2 -->
<g id="edge1_Node000001_Node000002" class="edge">
<title>Node1&#45;&gt;Node2</title>
<g id="a_edge1_Node000001_Node000002"><a xlink:title=" ">
<path fill="none" stroke="#63b8ff" d="M1311.69,-147.08C1280.51,-153.75 1244.54,-161.44 1212.01,-168.39"/>
<polygon fill="#63b8ff" stroke="#63b8ff" points="1312.59,-150.47 1321.64,-144.96 1311.13,-143.63 1312.59,-150.47"/>
</a>
</g>
</g>
<!-- Node3 -->
<g id="Node000003" class="node">
<title>Node3</title>
<g id="a_Node000003"><a xlink:href="classcom_1_1example_1_1mybookshelf_1_1notifications_1_1NotificationScheduler.html#a46f062698cb770f1def693f3e18ce7ba" target="_top" xlink:title=" ">
<polygon fill="white" stroke="#666666" points="1225.5,-150.42 1004.5,-150.42 1004.5,-109.42 1225.5,-109.42 1225.5,-150.42"/>
<text text-anchor="start" x="1012.5" y="-138.42" font-family="Helvetica,sans-Serif" font-size="10.00">com.example.mybookshelf.notifications.</text>
<text text-anchor="start" x="1012.5" y="-127.42" font-family="Helvetica,sans-Serif" font-size="10.00">NotificationScheduler.getDailyNotification</text>
<text text-anchor="middle" x="1115" y="-116.42" font-family="Helvetica,sans-Serif" font-size="10.00">TimeString</text>
</a>
</g>
</g>
<!-- Node1&#45;&gt;Node3 -->
<g id="edge2_Node000001_Node000003" class="edge">
<title>Node1&#45;&gt;Node3</title>
<g id="a_edge2_Node000001_Node000003"><a xlink:title=" ">
<path fill="none" stroke="#63b8ff" d="M1260.67,-129.92C1248.95,-129.92 1237.17,-129.92 1225.66,-129.92"/>
<polygon fill="#63b8ff" stroke="#63b8ff" points="1260.94,-133.42 1270.94,-129.92 1260.94,-126.42 1260.94,-133.42"/>
</a>
</g>
</g>
<!-- Node4 -->
<g id="Node000004" class="node">
<title>Node4</title>
<g id="a_Node000004"><a xlink:href="classcom_1_1example_1_1mybookshelf_1_1UIMaster.html#ac859db60f9068e6a87b633ef697d4d0f" target="_top" xlink:title=" ">
<polygon fill="white" stroke="#666666" points="1193,-90.92 1037,-90.92 1037,-60.92 1193,-60.92 1193,-90.92"/>
<text text-anchor="start" x="1045" y="-78.92" font-family="Helvetica,sans-Serif" font-size="10.00">com.example.mybookshelf.</text>
<text text-anchor="middle" x="1115" y="-67.92" font-family="Helvetica,sans-Serif" font-size="10.00">UIMaster.navigateToSettings</text>
</a>
</g>
</g>
<!-- Node1&#45;&gt;Node4 -->
<g id="edge3_Node000001_Node000004" class="edge">
<title>Node1&#45;&gt;Node4</title>
<g id="a_edge3_Node000001_Node000004"><a xlink:title=" ">
<path fill="none" stroke="#63b8ff" d="M1305.13,-112.92C1269.16,-105.88 1227.8,-97.79 1192.95,-90.97"/>
<polygon fill="#63b8ff" stroke="#63b8ff" points="1304.63,-116.39 1315.12,-114.88 1305.98,-109.52 1304.63,-116.39"/>
</a>
</g>
</g>
<!-- Node5 -->
<g id="Node000005" class="node">
<title>Node5</title>
<g id="a_Node000005"><a xlink:href="classcom_1_1example_1_1mybookshelf_1_1UIMaster.html#ac2a608fcf86d3dbe14b4684dbbaf1431" target="_top" xlink:title=" ">
<polygon fill="white" stroke="#666666" points="340,-128.92 188,-128.92 188,-98.92 340,-98.92 340,-128.92"/>
<text text-anchor="start" x="196" y="-116.92" font-family="Helvetica,sans-Serif" font-size="10.00">com.example.mybookshelf.</text>
<text text-anchor="middle" x="264" y="-105.92" font-family="Helvetica,sans-Serif" font-size="10.00">UIMaster.navigateToDetails</text>
</a>
</g>
</g>
<!-- Node4&#45;&gt;Node5 -->
<g id="edge4_Node000004_Node000005" class="edge">
<title>Node4&#45;&gt;Node5</title>
<g id="a_edge4_Node000004_Node000005"><a xlink:title=" ">
<path fill="none" stroke="#63b8ff" d="M1026.93,-91.22C1004.84,-94.6 981.1,-97.8 959,-99.92 734.67,-121.37 467.76,-118.95 340.18,-116.09"/>
<polygon fill="#63b8ff" stroke="#63b8ff" points="1027.62,-94.66 1036.96,-89.66 1026.54,-87.74 1027.62,-94.66"/>
</a>
</g>
</g>
<!-- Node7 -->
<g id="Node000007" class="node">
<title>Node7</title>
<g id="a_Node000007"><a xlink:href="classcom_1_1example_1_1mybookshelf_1_1UIMaster.html#ad30bff41c8ec833af2293c0b6c8b47b2" target="_top" xlink:title=" ">
<polygon fill="white" stroke="#666666" points="959,-90.92 807,-90.92 807,-60.92 959,-60.92 959,-90.92"/>
<text text-anchor="start" x="815" y="-78.92" font-family="Helvetica,sans-Serif" font-size="10.00">com.example.mybookshelf.</text>
<text text-anchor="middle" x="883" y="-67.92" font-family="Helvetica,sans-Serif" font-size="10.00">UIMaster.navigateToGoals</text>
</a>
</g>
</g>
<!-- Node4&#45;&gt;Node7 -->
<g id="edge6_Node000004_Node000007" class="edge">
<title>Node4&#45;&gt;Node7</title>
<g id="a_edge6_Node000004_Node000007"><a xlink:title=" ">
<path fill="none" stroke="#63b8ff" d="M1026.66,-69.34C1004.4,-69.05 980.66,-69.12 959.07,-69.54"/>
<polygon fill="#63b8ff" stroke="#63b8ff" points="1026.72,-72.85 1036.77,-69.5 1026.83,-65.85 1026.72,-72.85"/>
</a>
</g>
</g>
<!-- Node8 -->
<g id="Node000008" class="node">
<title>Node8</title>
<g id="a_Node000008"><a xlink:href="classcom_1_1example_1_1mybookshelf_1_1UIMaster.html#aa6aad8404432bdaf23db9b41e99a6ed5" target="_top" xlink:title=" ">
<polygon fill="white" stroke="#666666" points="771,-47.92 590,-47.92 590,-17.92 771,-17.92 771,-47.92"/>
<text text-anchor="start" x="598" y="-35.92" font-family="Helvetica,sans-Serif" font-size="10.00">com.example.mybookshelf.</text>
<text text-anchor="middle" x="680.5" y="-24.92" font-family="Helvetica,sans-Serif" font-size="10.00">UIMaster.setupNavigationButtons</text>
</a>
</g>
</g>
<!-- Node4&#45;&gt;Node8 -->
<g id="edge14_Node000004_Node000008" class="edge">
<title>Node4&#45;&gt;Node8</title>
<g id="a_edge14_Node000004_Node000008"><a xlink:title=" ">
<path fill="none" stroke="#63b8ff" d="M1026.88,-61.09C1004.79,-57.7 981.06,-54.38 959,-51.92 896.37,-44.94 825.48,-40.14 771.03,-37.11"/>
<polygon fill="#63b8ff" stroke="#63b8ff" points="1026.49,-64.58 1036.91,-62.65 1027.57,-57.66 1026.49,-64.58"/>
</a>
</g>
</g>
<!-- Node6 -->
<g id="Node000006" class="node">
<title>Node6</title>
<g id="a_Node000006"><a xlink:href="classcom_1_1example_1_1mybookshelf_1_1UIMaster.html#a1533d0ed2384f2ec729cfcec7bd9a25f" target="_top" xlink:title=" ">
<polygon fill="white" stroke="#666666" points="152,-128.92 0,-128.92 0,-98.92 152,-98.92 152,-128.92"/>
<text text-anchor="start" x="8" y="-116.92" font-family="Helvetica,sans-Serif" font-size="10.00">com.example.mybookshelf.</text>
<text text-anchor="middle" x="76" y="-105.92" font-family="Helvetica,sans-Serif" font-size="10.00">UIMaster.createBookBox</text>
</a>
</g>
</g>
<!-- Node5&#45;&gt;Node6 -->
<g id="edge5_Node000005_Node000006" class="edge">
<title>Node5&#45;&gt;Node6</title>
<g id="a_edge5_Node000005_Node000006"><a xlink:title=" ">
<path fill="none" stroke="#63b8ff" d="M177.85,-113.92C169.26,-113.92 160.57,-113.92 152.1,-113.92"/>
<polygon fill="#63b8ff" stroke="#63b8ff" points="177.88,-117.42 187.88,-113.92 177.88,-110.42 177.88,-117.42"/>
</a>
</g>
</g>
<!-- Node7&#45;&gt;Node4 -->
<g id="edge8_Node000007_Node000004" class="edge">
<title>Node7&#45;&gt;Node4</title>
<g id="a_edge8_Node000007_Node000004"><a xlink:title=" ">
<path fill="none" stroke="#63b8ff" d="M969.13,-82.46C991.29,-82.77 1015.04,-82.73 1036.77,-82.33"/>
<polygon fill="#63b8ff" stroke="#63b8ff" points="969.13,-78.96 959.07,-82.29 969.01,-85.96 969.13,-78.96"/>
</a>
</g>
</g>
<!-- Node7&#45;&gt;Node5 -->
<g id="edge7_Node000007_Node000005" class="edge">
<title>Node7&#45;&gt;Node5</title>
<g id="a_edge7_Node000007_Node000005"><a xlink:title=" ">
<path fill="none" stroke="#63b8ff" d="M796.63,-81.18C675.56,-88.63 455.9,-102.16 340.48,-109.27"/>
<polygon fill="#63b8ff" stroke="#63b8ff" points="797.19,-84.65 806.96,-80.54 796.76,-77.66 797.19,-84.65"/>
</a>
</g>
</g>
<!-- Node7&#45;&gt;Node8 -->
<g id="edge9_Node000007_Node000008" class="edge">
<title>Node7&#45;&gt;Node8</title>
<g id="a_edge9_Node000007_Node000008"><a xlink:title=" ">
<path fill="none" stroke="#63b8ff" d="M801.67,-58.69C785.09,-55.13 767.76,-51.42 751.59,-47.95"/>
<polygon fill="#63b8ff" stroke="#63b8ff" points="801.36,-62.2 811.87,-60.88 802.83,-55.36 801.36,-62.2"/>
</a>
</g>
</g>
<!-- Node9 -->
<g id="Node000009" class="node">
<title>Node9</title>
<g id="a_Node000009"><a xlink:href="classcom_1_1example_1_1mybookshelf_1_1UIMaster.html#ad609d5e0b54e87afcb60aed6c66a792e" target="_top" xlink:title=" ">
<polygon fill="white" stroke="#666666" points="554,-66.92 376,-66.92 376,-36.92 554,-36.92 554,-66.92"/>
<text text-anchor="start" x="384" y="-54.92" font-family="Helvetica,sans-Serif" font-size="10.00">com.example.mybookshelf.</text>
<text text-anchor="middle" x="465" y="-43.92" font-family="Helvetica,sans-Serif" font-size="10.00">UIMaster.navigateToStartingPage</text>
</a>
</g>
</g>
<!-- Node8&#45;&gt;Node9 -->
<g id="edge10_Node000008_Node000009" class="edge">
<title>Node8&#45;&gt;Node9</title>
<g id="a_edge10_Node000008_Node000009"><a xlink:title=" ">
<path fill="none" stroke="#63b8ff" d="M579.82,-41.79C571.2,-42.56 562.53,-43.33 554.02,-44.08"/>
<polygon fill="#63b8ff" stroke="#63b8ff" points="580.23,-45.27 589.88,-40.89 579.61,-38.29 580.23,-45.27"/>
</a>
</g>
</g>
<!-- Node9&#45;&gt;Node4 -->
<g id="edge13_Node000009_Node000004" class="edge">
<title>Node9&#45;&gt;Node4</title>
<g id="a_edge13_Node000009_Node000004"><a xlink:title=" ">
<path fill="none" stroke="#63b8ff" d="M508.73,-33.14C532.21,-23.83 562.16,-13.61 590,-8.92 765.45,20.64 975.91,-33.08 1067.56,-60.83"/>
<polygon fill="#63b8ff" stroke="#63b8ff" points="507.36,-29.91 499.41,-36.91 509.99,-36.4 507.36,-29.91"/>
</a>
</g>
</g>
<!-- Node9&#45;&gt;Node5 -->
<g id="edge11_Node000009_Node000005" class="edge">
<title>Node9&#45;&gt;Node5</title>
<g id="a_edge11_Node000009_Node000005"><a xlink:title=" ">
<path fill="none" stroke="#63b8ff" d="M406.1,-69.96C376.69,-79.12 341.37,-90.13 313.42,-98.83"/>
<polygon fill="#63b8ff" stroke="#63b8ff" points="407.32,-73.24 415.83,-66.93 405.24,-66.56 407.32,-73.24"/>
</a>
</g>
</g>
<!-- Node9&#45;&gt;Node7 -->
<g id="edge12_Node000009_Node000007" class="edge">
<title>Node9&#45;&gt;Node7</title>
<g id="a_edge12_Node000009_Node000007"><a xlink:title=" ">
<path fill="none" stroke="#63b8ff" d="M564.4,-57.59C638.58,-61.87 738.8,-67.66 806.67,-71.57"/>
<polygon fill="#63b8ff" stroke="#63b8ff" points="564.3,-54.08 554.12,-57 563.9,-61.07 564.3,-54.08"/>
</a>
</g>
</g>
</g>
</svg>
