<?xml version="1.0" encoding="UTF-8" standalone="no"?>
<!DOCTYPE svg PUBLIC "-//W3C//DTD SVG 1.1//EN"
 "http://www.w3.org/Graphics/SVG/1.1/DTD/svg11.dtd">
<!-- Generated by graphviz version 2.43.0 (0)
 -->
<!-- Title: com.example.mybookshelf.notifications.NotificationReceiver Pages: 1 -->
<svg width="217pt" height="168pt"
 viewBox="0.00 0.00 217.00 168.00" xmlns="http://www.w3.org/2000/svg" xmlns:xlink="http://www.w3.org/1999/xlink">
<g id="graph0" class="graph" transform="scale(1 1) rotate(0) translate(4 164)">
<title>com.example.mybookshelf.notifications.NotificationReceiver</title>
<!-- Node1 -->
<g id="Node000001" class="node">
<title>Node1</title>
<g id="a_Node000001"><a xlink:title=" ">
<polygon fill="#999999" stroke="transparent" points="209,-75 0,-75 0,0 209,0 209,-75"/>
<text text-anchor="start" x="5.5" y="-62.5" font-family="Helvetica,sans-Serif" font-size="10.00">com.example.mybookshelf.notifications.</text>
<text text-anchor="start" x="55" y="-51.5" font-family="Helvetica,sans-Serif" font-size="10.00">NotificationReceiver</text>
<text text-anchor="start" x="31.5" y="-36.5" font-family="Helvetica,sans-Serif" font-size="10.00">&#45;</text>
<text text-anchor="start" x="66.5" y="-36.5" font-family="Helvetica,sans-Serif" font-size="10.00">TAG</text>
<text text-anchor="start" x="29" y="-21.5" font-family="Helvetica,sans-Serif" font-size="10.00">+</text>
<text text-anchor="start" x="66.5" y="-21.5" font-family="Helvetica,sans-Serif" font-size="10.00">onReceive()</text>
<text text-anchor="start" x="31.5" y="-6.5" font-family="Helvetica,sans-Serif" font-size="10.00">&#45;</text>
<text text-anchor="start" x="66.5" y="-6.5" font-family="Helvetica,sans-Serif" font-size="10.00">showNotification()</text>
<polygon fill="#666666" stroke="#666666" points="0.5,-46.5 0.5,-46.5 209.5,-46.5 209.5,-46.5 0.5,-46.5"/>
<polygon fill="#666666" stroke="#666666" points="0.5,-31.5 0.5,-31.5 64.5,-31.5 64.5,-31.5 0.5,-31.5"/>
<polygon fill="#666666" stroke="#666666" points="64.5,-31.5 64.5,-31.5 209.5,-31.5 209.5,-31.5 64.5,-31.5"/>
<polygon fill="none" stroke="#666666" points="0,0 0,-75 209,-75 209,0 0,0"/>
</a>
</g>
</g>
<!-- Node2 -->
<g id="Node000002" class="node">
<title>Node2</title>
<g id="a_Node000002"><a xlink:href="classBroadcastReceiver.html" target="_top" xlink:title=" ">
<polygon fill="white" stroke="transparent" points="155.5,-160 53.5,-160 53.5,-111 155.5,-111 155.5,-160"/>
<text text-anchor="start" x="58.5" y="-147.5" font-family="Helvetica,sans-Serif" font-size="10.00">BroadcastReceiver</text>
<text text-anchor="start" x="102.5" y="-132.5" font-family="Helvetica,sans-Serif" font-size="10.00"> </text>
<text text-anchor="start" x="102.5" y="-117.5" font-family="Helvetica,sans-Serif" font-size="10.00"> </text>
<polygon fill="#666666" stroke="#666666" points="53.5,-142.5 53.5,-142.5 155.5,-142.5 155.5,-142.5 53.5,-142.5"/>
<polygon fill="#666666" stroke="#666666" points="53.5,-127.5 53.5,-127.5 155.5,-127.5 155.5,-127.5 53.5,-127.5"/>
<polygon fill="none" stroke="#666666" points="53.5,-111 53.5,-160 155.5,-160 155.5,-111 53.5,-111"/>
</a>
</g>
</g>
<!-- Node2&#45;&gt;Node1 -->
<g id="edge1_Node000001_Node000002" class="edge">
<title>Node2&#45;&gt;Node1</title>
<g id="a_edge1_Node000001_Node000002"><a xlink:title=" ">
<path fill="none" stroke="#63b8ff" d="M104.5,-100.68C104.5,-92.38 104.5,-83.46 104.5,-75.04"/>
<polygon fill="none" stroke="#63b8ff" points="101,-100.77 104.5,-110.77 108,-100.77 101,-100.77"/>
</a>
</g>
</g>
</g>
</svg>
