<?xml version="1.0" encoding="UTF-8" standalone="no"?>
<!DOCTYPE svg PUBLIC "-//W3C//DTD SVG 1.1//EN"
 "http://www.w3.org/Graphics/SVG/1.1/DTD/svg11.dtd">
<!-- Generated by graphviz version 2.43.0 (0)
 -->
<!-- Title: com.example.mybookshelf.LayoutManager.CostumeListAdapter.onBindViewHolder Pages: 1 -->
<svg width="942pt" height="232pt"
 viewBox="0.00 0.00 942.00 231.50" xmlns="http://www.w3.org/2000/svg" xmlns:xlink="http://www.w3.org/1999/xlink">
<g id="graph0" class="graph" transform="scale(1 1) rotate(0) translate(4 227.5)">
<title>com.example.mybookshelf.LayoutManager.CostumeListAdapter.onBindViewHolder</title>
<!-- Node1 -->
<g id="Node000001" class="node">
<title>Node1</title>
<g id="a_Node000001"><a xlink:title=" ">
<polygon fill="#999999" stroke="#666666" points="208,-131.5 0,-131.5 0,-90.5 208,-90.5 208,-131.5"/>
<text text-anchor="start" x="8" y="-119.5" font-family="Helvetica,sans-Serif" font-size="10.00">com.example.mybookshelf.</text>
<text text-anchor="start" x="8" y="-108.5" font-family="Helvetica,sans-Serif" font-size="10.00">LayoutManager.CostumeListAdapter.on</text>
<text text-anchor="middle" x="104" y="-97.5" font-family="Helvetica,sans-Serif" font-size="10.00">BindViewHolder</text>
</a>
</g>
</g>
<!-- Node2 -->
<g id="Node000002" class="node">
<title>Node2</title>
<g id="a_Node000002"><a xlink:href="classcom_1_1example_1_1mybookshelf_1_1LayoutManager_1_1CostumeListAdapter.html#aecf267c9d5fc023c90187a13bc4ebe2e" target="_top" xlink:title=" ">
<polygon fill="white" stroke="#666666" points="461,-131.5 244,-131.5 244,-90.5 461,-90.5 461,-131.5"/>
<text text-anchor="start" x="252" y="-119.5" font-family="Helvetica,sans-Serif" font-size="10.00">com.example.mybookshelf.</text>
<text text-anchor="start" x="252" y="-108.5" font-family="Helvetica,sans-Serif" font-size="10.00">LayoutManager.CostumeListAdapter.bind</text>
<text text-anchor="middle" x="352.5" y="-97.5" font-family="Helvetica,sans-Serif" font-size="10.00">BookData</text>
</a>
</g>
</g>
<!-- Node1&#45;&gt;Node2 -->
<g id="edge1_Node000001_Node000002" class="edge">
<title>Node1&#45;&gt;Node2</title>
<g id="a_edge1_Node000001_Node000002"><a xlink:title=" ">
<path fill="none" stroke="#63b8ff" d="M208.11,-111C216.46,-111 224.93,-111 233.37,-111"/>
<polygon fill="#63b8ff" stroke="#63b8ff" points="233.64,-114.5 243.64,-111 233.64,-107.5 233.64,-114.5"/>
</a>
</g>
</g>
<!-- Node3 -->
<g id="Node000003" class="node">
<title>Node3</title>
<g id="a_Node000003"><a xlink:href="classcom_1_1example_1_1mybookshelf_1_1LayoutManager_1_1CostumeListAdapter.html#a73afe4df78d60ab38b9b7d8b9e804d05" target="_top" xlink:title=" ">
<polygon fill="white" stroke="#666666" points="724,-223.5 497,-223.5 497,-182.5 724,-182.5 724,-223.5"/>
<text text-anchor="start" x="505" y="-211.5" font-family="Helvetica,sans-Serif" font-size="10.00">com.example.mybookshelf.</text>
<text text-anchor="start" x="505" y="-200.5" font-family="Helvetica,sans-Serif" font-size="10.00">LayoutManager.CostumeListAdapter.create</text>
<text text-anchor="middle" x="610.5" y="-189.5" font-family="Helvetica,sans-Serif" font-size="10.00">TextWatcher</text>
</a>
</g>
</g>
<!-- Node2&#45;&gt;Node3 -->
<g id="edge2_Node000002_Node000003" class="edge">
<title>Node2&#45;&gt;Node3</title>
<g id="a_edge2_Node000002_Node000003"><a xlink:title=" ">
<path fill="none" stroke="#63b8ff" d="M402.62,-131.59C430.18,-142.87 465.28,-156.79 497,-168 507.92,-171.86 519.52,-175.73 530.96,-179.41"/>
<polygon fill="#63b8ff" stroke="#63b8ff" points="529.92,-182.75 540.51,-182.45 532.04,-176.08 529.92,-182.75"/>
</a>
</g>
</g>
<!-- Node4 -->
<g id="Node000004" class="node">
<title>Node4</title>
<g id="a_Node000004"><a xlink:href="classcom_1_1example_1_1mybookshelf_1_1dataClass_1_1Book.html#ab76b4ec7891e641d4c1a70a564805ffb" target="_top" xlink:title=" ">
<polygon fill="white" stroke="#666666" points="934,-193 760,-193 760,-163 934,-163 934,-193"/>
<text text-anchor="start" x="768" y="-181" font-family="Helvetica,sans-Serif" font-size="10.00">com.example.mybookshelf.data</text>
<text text-anchor="middle" x="847" y="-170" font-family="Helvetica,sans-Serif" font-size="10.00">Class.Book.getId</text>
</a>
</g>
</g>
<!-- Node2&#45;&gt;Node4 -->
<g id="edge5_Node000002_Node000004" class="edge">
<title>Node2&#45;&gt;Node4</title>
<g id="a_edge5_Node000002_Node000004"><a xlink:title=" ">
<path fill="none" stroke="#63b8ff" d="M461.16,-129.52C473.24,-131.45 485.38,-133.31 497,-135 582.22,-147.37 679.49,-159.16 749.66,-167.26"/>
<polygon fill="#63b8ff" stroke="#63b8ff" points="749.47,-170.76 759.81,-168.43 750.27,-163.81 749.47,-170.76"/>
</a>
</g>
</g>
<!-- Node5 -->
<g id="Node000005" class="node">
<title>Node5</title>
<g id="a_Node000005"><a xlink:href="classcom_1_1example_1_1mybookshelf_1_1dataClass_1_1Book.html#a72061c36f82e9d925effeb02dc0da55d" target="_top" xlink:title=" ">
<polygon fill="white" stroke="#666666" points="697.5,-126 523.5,-126 523.5,-96 697.5,-96 697.5,-126"/>
<text text-anchor="start" x="531.5" y="-114" font-family="Helvetica,sans-Serif" font-size="10.00">com.example.mybookshelf.data</text>
<text text-anchor="middle" x="610.5" y="-103" font-family="Helvetica,sans-Serif" font-size="10.00">Class.Book.getAuthor</text>
</a>
</g>
</g>
<!-- Node2&#45;&gt;Node5 -->
<g id="edge4_Node000002_Node000005" class="edge">
<title>Node2&#45;&gt;Node5</title>
<g id="a_edge4_Node000002_Node000005"><a xlink:title=" ">
<path fill="none" stroke="#63b8ff" d="M461.33,-111C478.41,-111 495.99,-111 512.8,-111"/>
<polygon fill="#63b8ff" stroke="#63b8ff" points="513.16,-114.5 523.16,-111 513.16,-107.5 513.16,-114.5"/>
</a>
</g>
</g>
<!-- Node6 -->
<g id="Node000006" class="node">
<title>Node6</title>
<g id="a_Node000006"><a xlink:href="classcom_1_1example_1_1mybookshelf_1_1dataClass_1_1Book.html#a20229b9b1dcc454fc3f09a50e719294c" target="_top" xlink:title=" ">
<polygon fill="white" stroke="#666666" points="697.5,-78 523.5,-78 523.5,-48 697.5,-48 697.5,-78"/>
<text text-anchor="start" x="531.5" y="-66" font-family="Helvetica,sans-Serif" font-size="10.00">com.example.mybookshelf.data</text>
<text text-anchor="middle" x="610.5" y="-55" font-family="Helvetica,sans-Serif" font-size="10.00">Class.Book.getImageUrl</text>
</a>
</g>
</g>
<!-- Node2&#45;&gt;Node6 -->
<g id="edge6_Node000002_Node000006" class="edge">
<title>Node2&#45;&gt;Node6</title>
<g id="a_edge6_Node000002_Node000006"><a xlink:title=" ">
<path fill="none" stroke="#63b8ff" d="M461.33,-90.78C480.67,-87.16 500.64,-83.41 519.42,-79.89"/>
<polygon fill="#63b8ff" stroke="#63b8ff" points="520.23,-83.3 529.42,-78.02 518.94,-76.42 520.23,-83.3"/>
</a>
</g>
</g>
<!-- Node7 -->
<g id="Node000007" class="node">
<title>Node7</title>
<g id="a_Node000007"><a xlink:href="classcom_1_1example_1_1mybookshelf_1_1dataClass_1_1Book.html#a4109da1bdee13601576c6725d6e89e71" target="_top" xlink:title=" ">
<polygon fill="white" stroke="#666666" points="697.5,-30 523.5,-30 523.5,0 697.5,0 697.5,-30"/>
<text text-anchor="start" x="531.5" y="-18" font-family="Helvetica,sans-Serif" font-size="10.00">com.example.mybookshelf.data</text>
<text text-anchor="middle" x="610.5" y="-7" font-family="Helvetica,sans-Serif" font-size="10.00">Class.Book.getName</text>
</a>
</g>
</g>
<!-- Node2&#45;&gt;Node7 -->
<g id="edge7_Node000002_Node000007" class="edge">
<title>Node2&#45;&gt;Node7</title>
<g id="a_edge7_Node000002_Node000007"><a xlink:title=" ">
<path fill="none" stroke="#63b8ff" d="M388.37,-90.34C416.76,-74.3 458.34,-52.57 497,-39 503.46,-36.73 510.2,-34.64 517.04,-32.72"/>
<polygon fill="#63b8ff" stroke="#63b8ff" points="518.35,-36 527.1,-30.03 516.54,-29.23 518.35,-36"/>
</a>
</g>
</g>
<!-- Node3&#45;&gt;Node4 -->
<g id="edge3_Node000003_Node000004" class="edge">
<title>Node3&#45;&gt;Node4</title>
<g id="a_edge3_Node000003_Node000004"><a xlink:title=" ">
<path fill="none" stroke="#63b8ff" d="M724.29,-190.98C732.79,-190.07 741.33,-189.16 749.73,-188.26"/>
<polygon fill="#63b8ff" stroke="#63b8ff" points="750.3,-191.72 759.88,-187.18 749.56,-184.76 750.3,-191.72"/>
</a>
</g>
</g>
</g>
</svg>
