<?xml version="1.0" encoding="UTF-8" standalone="no"?>
<!DOCTYPE svg PUBLIC "-//W3C//DTD SVG 1.1//EN"
 "http://www.w3.org/Graphics/SVG/1.1/DTD/svg11.dtd">
<!-- Generated by graphviz version 2.43.0 (0)
 -->
<!-- Title: com.example.mybookshelf.BookRecommendationFlow.handleNo Pages: 1 -->
<svg width="2331pt" height="817pt"
 viewBox="0.00 0.00 2331.00 817.44" xmlns="http://www.w3.org/2000/svg" xmlns:xlink="http://www.w3.org/1999/xlink">
<g id="graph0" class="graph" transform="scale(1 1) rotate(0) translate(4 813.44)">
<title>com.example.mybookshelf.BookRecommendationFlow.handleNo</title>
<!-- Node1 -->
<g id="Node000001" class="node">
<title>Node1</title>
<g id="a_Node000001"><a xlink:title=" ">
<polygon fill="#999999" stroke="#666666" points="200,-609.44 0,-609.44 0,-579.44 200,-579.44 200,-609.44"/>
<text text-anchor="start" x="8" y="-597.44" font-family="Helvetica,sans-Serif" font-size="10.00">com.example.mybookshelf.</text>
<text text-anchor="middle" x="100" y="-586.44" font-family="Helvetica,sans-Serif" font-size="10.00">BookRecommendationFlow.handleNo</text>
</a>
</g>
</g>
<!-- Node2 -->
<g id="Node000002" class="node">
<title>Node2</title>
<g id="a_Node000002"><a xlink:href="classcom_1_1example_1_1mybookshelf_1_1BookRecommendationFlow.html#a3855117e802e54923c308e0df6280c17" target="_top" xlink:title=" ">
<polygon fill="white" stroke="#666666" points="2309.5,-620.94 2115.5,-620.94 2115.5,-579.94 2309.5,-579.94 2309.5,-620.94"/>
<text text-anchor="start" x="2123.5" y="-608.94" font-family="Helvetica,sans-Serif" font-size="10.00">com.example.mybookshelf.</text>
<text text-anchor="start" x="2123.5" y="-597.94" font-family="Helvetica,sans-Serif" font-size="10.00">BookRecommendationFlow.addChat</text>
<text text-anchor="middle" x="2212.5" y="-586.94" font-family="Helvetica,sans-Serif" font-size="10.00">Message</text>
</a>
</g>
</g>
<!-- Node1&#45;&gt;Node2 -->
<g id="edge1_Node000001_Node000002" class="edge">
<title>Node1&#45;&gt;Node2</title>
<g id="a_edge1_Node000001_Node000002"><a xlink:title=" ">
<path fill="none" stroke="#63b8ff" d="M111.75,-609.44C132.49,-637.22 180.85,-696.63 236,-727.44 369.25,-801.89 416.86,-809.44 569.5,-809.44 569.5,-809.44 569.5,-809.44 1762.5,-809.44 1902.7,-809.44 1942.23,-789.29 2066,-723.44 2112.98,-698.45 2158.37,-656.29 2185.62,-628.42"/>
<polygon fill="#63b8ff" stroke="#63b8ff" points="2188.39,-630.59 2192.81,-620.96 2183.35,-625.73 2188.39,-630.59"/>
</a>
</g>
</g>
<!-- Node3 -->
<g id="Node000003" class="node">
<title>Node3</title>
<g id="a_Node000003"><a xlink:href="classcom_1_1example_1_1mybookshelf_1_1BookRecommendationFlow.html#a02b6d699653b58f244907bd10db53ab5" target="_top" xlink:title=" ">
<polygon fill="white" stroke="#666666" points="2304.5,-196.94 2120.5,-196.94 2120.5,-155.94 2304.5,-155.94 2304.5,-196.94"/>
<text text-anchor="start" x="2128.5" y="-184.94" font-family="Helvetica,sans-Serif" font-size="10.00">com.example.mybookshelf.</text>
<text text-anchor="start" x="2128.5" y="-173.94" font-family="Helvetica,sans-Serif" font-size="10.00">BookRecommendationFlow.create</text>
<text text-anchor="middle" x="2212.5" y="-162.94" font-family="Helvetica,sans-Serif" font-size="10.00">StyledGridButton</text>
</a>
</g>
</g>
<!-- Node1&#45;&gt;Node3 -->
<g id="edge2_Node000001_Node000003" class="edge">
<title>Node1&#45;&gt;Node3</title>
<g id="a_edge2_Node000001_Node000003"><a xlink:title=" ">
<path fill="none" stroke="#63b8ff" d="M104.74,-579.29C128.49,-487.1 267.02,-5.44 569.5,-5.44 569.5,-5.44 569.5,-5.44 1762.5,-5.44 1898.18,-5.44 1942.87,18.57 2066,-38.44 2119.07,-63.01 2165.14,-114.76 2190.55,-147.44"/>
<polygon fill="#63b8ff" stroke="#63b8ff" points="2188.01,-149.88 2196.86,-155.71 2193.58,-145.63 2188.01,-149.88"/>
</a>
</g>
</g>
<!-- Node4 -->
<g id="Node000004" class="node">
<title>Node4</title>
<g id="a_Node000004"><a xlink:href="classcom_1_1example_1_1mybookshelf_1_1BookRecommendationFlow.html#a22f0dcaea578fbd7358e6237cd4873d4" target="_top" xlink:title=" ">
<polygon fill="white" stroke="#666666" points="432,-433.44 236,-433.44 236,-403.44 432,-403.44 432,-433.44"/>
<text text-anchor="start" x="244" y="-421.44" font-family="Helvetica,sans-Serif" font-size="10.00">com.example.mybookshelf.</text>
<text text-anchor="middle" x="334" y="-410.44" font-family="Helvetica,sans-Serif" font-size="10.00">BookRecommendationFlow.handleAI</text>
</a>
</g>
</g>
<!-- Node1&#45;&gt;Node4 -->
<g id="edge3_Node000001_Node000004" class="edge">
<title>Node1&#45;&gt;Node4</title>
<g id="a_edge3_Node000001_Node000004"><a xlink:title=" ">
<path fill="none" stroke="#63b8ff" d="M120.78,-579.43C162.03,-548.15 257.32,-475.85 304.91,-439.75"/>
<polygon fill="#63b8ff" stroke="#63b8ff" points="307.09,-442.49 312.94,-433.66 302.86,-436.91 307.09,-442.49"/>
</a>
</g>
</g>
<!-- Node5 -->
<g id="Node000005" class="node">
<title>Node5</title>
<g id="a_Node000005"><a xlink:href="classcom_1_1example_1_1mybookshelf_1_1BookRecommendationFlow.html#a276e931dabe3e85af257a9d16ce7cc67" target="_top" xlink:title=" ">
<polygon fill="white" stroke="#666666" points="1154,-188.94 951,-188.94 951,-147.94 1154,-147.94 1154,-188.94"/>
<text text-anchor="start" x="959" y="-176.94" font-family="Helvetica,sans-Serif" font-size="10.00">com.example.mybookshelf.</text>
<text text-anchor="start" x="959" y="-165.94" font-family="Helvetica,sans-Serif" font-size="10.00">BookRecommendationFlow.showBook</text>
<text text-anchor="middle" x="1052.5" y="-154.94" font-family="Helvetica,sans-Serif" font-size="10.00">BasedStep1</text>
</a>
</g>
</g>
<!-- Node4&#45;&gt;Node5 -->
<g id="edge4_Node000004_Node000005" class="edge">
<title>Node4&#45;&gt;Node5</title>
<g id="a_edge4_Node000004_Node000005"><a xlink:title=" ">
<path fill="none" stroke="#63b8ff" d="M378.21,-403.36C498.28,-361.47 836.77,-243.37 982.9,-192.37"/>
<polygon fill="#63b8ff" stroke="#63b8ff" points="984.38,-195.57 992.67,-188.97 982.07,-188.96 984.38,-195.57"/>
</a>
</g>
</g>
<!-- Node13 -->
<g id="Node000013" class="node">
<title>Node13</title>
<g id="a_Node000013"><a xlink:href="classcom_1_1example_1_1mybookshelf_1_1BookRecommendationFlow.html#a4c7dc337216592f7f214f69ce7009d37" target="_top" xlink:title=" ">
<polygon fill="white" stroke="#666666" points="673,-438.94 468,-438.94 468,-397.94 673,-397.94 673,-438.94"/>
<text text-anchor="start" x="476" y="-426.94" font-family="Helvetica,sans-Serif" font-size="10.00">com.example.mybookshelf.</text>
<text text-anchor="start" x="476" y="-415.94" font-family="Helvetica,sans-Serif" font-size="10.00">BookRecommendationFlow.showFresh</text>
<text text-anchor="middle" x="570.5" y="-404.94" font-family="Helvetica,sans-Serif" font-size="10.00">StartStep1</text>
</a>
</g>
</g>
<!-- Node4&#45;&gt;Node13 -->
<g id="edge23_Node000004_Node000013" class="edge">
<title>Node4&#45;&gt;Node13</title>
<g id="a_edge23_Node000004_Node000013"><a xlink:title=" ">
<path fill="none" stroke="#63b8ff" d="M432.07,-418.44C440.59,-418.44 449.25,-418.44 457.86,-418.44"/>
<polygon fill="#63b8ff" stroke="#63b8ff" points="457.95,-421.94 467.95,-418.44 457.95,-414.94 457.95,-421.94"/>
</a>
</g>
</g>
<!-- Node5&#45;&gt;Node2 -->
<g id="edge5_Node000005_Node000002" class="edge">
<title>Node5&#45;&gt;Node2</title>
<g id="a_edge5_Node000005_Node000002"><a xlink:title=" ">
<path fill="none" stroke="#63b8ff" d="M1062.73,-189C1090.3,-250.1 1171.31,-427.65 1191,-448.44 1308.01,-571.96 1363.36,-619.44 1533.5,-619.44 1533.5,-619.44 1533.5,-619.44 1762.5,-619.44 1879.82,-619.44 2014.22,-612.89 2105.16,-607.48"/>
<polygon fill="#63b8ff" stroke="#63b8ff" points="2105.43,-610.97 2115.2,-606.87 2105.01,-603.98 2105.43,-610.97"/>
</a>
</g>
</g>
<!-- Node5&#45;&gt;Node3 -->
<g id="edge6_Node000005_Node000003" class="edge">
<title>Node5&#45;&gt;Node3</title>
<g id="a_edge6_Node000005_Node000003"><a xlink:title=" ">
<path fill="none" stroke="#63b8ff" d="M1154.3,-148.8C1166.63,-146.79 1179.08,-144.94 1191,-143.44 1342.41,-124.43 1380.9,-119.44 1533.5,-119.44 1533.5,-119.44 1533.5,-119.44 1762.5,-119.44 1897.81,-119.44 1932.23,-123.09 2066,-143.44 2083.72,-146.14 2102.49,-149.78 2120.44,-153.67"/>
<polygon fill="#63b8ff" stroke="#63b8ff" points="2119.8,-157.12 2130.32,-155.86 2121.31,-150.28 2119.8,-157.12"/>
</a>
</g>
</g>
<!-- Node6 -->
<g id="Node000006" class="node">
<title>Node6</title>
<g id="a_Node000006"><a xlink:href="classcom_1_1example_1_1mybookshelf_1_1BookRecommendationFlow.html#a5c657be258c13c85848c7b7115f8a0b5" target="_top" xlink:title=" ">
<polygon fill="white" stroke="#666666" points="1395,-283.94 1192,-283.94 1192,-242.94 1395,-242.94 1395,-283.94"/>
<text text-anchor="start" x="1200" y="-271.94" font-family="Helvetica,sans-Serif" font-size="10.00">com.example.mybookshelf.</text>
<text text-anchor="start" x="1200" y="-260.94" font-family="Helvetica,sans-Serif" font-size="10.00">BookRecommendationFlow.showBook</text>
<text text-anchor="middle" x="1293.5" y="-249.94" font-family="Helvetica,sans-Serif" font-size="10.00">BasedStep2</text>
</a>
</g>
</g>
<!-- Node5&#45;&gt;Node6 -->
<g id="edge7_Node000005_Node000006" class="edge">
<title>Node5&#45;&gt;Node6</title>
<g id="a_edge7_Node000005_Node000006"><a xlink:title=" ">
<path fill="none" stroke="#63b8ff" d="M1105.36,-189.05C1142.32,-203.74 1192.14,-223.55 1231.09,-239.03"/>
<polygon fill="#63b8ff" stroke="#63b8ff" points="1230.16,-242.43 1240.74,-242.87 1232.74,-235.92 1230.16,-242.43"/>
</a>
</g>
</g>
<!-- Node6&#45;&gt;Node2 -->
<g id="edge8_Node000006_Node000002" class="edge">
<title>Node6&#45;&gt;Node2</title>
<g id="a_edge8_Node000006_Node000002"><a xlink:title=" ">
<path fill="none" stroke="#63b8ff" d="M1312.61,-284.19C1333.62,-308.64 1368.85,-350.84 1396,-389.44 1413.67,-414.57 1407.17,-430.35 1432,-448.44 1538.08,-525.71 1917.46,-572.12 2105,-590.83"/>
<polygon fill="#63b8ff" stroke="#63b8ff" points="2104.85,-594.33 2115.15,-591.83 2105.54,-587.37 2104.85,-594.33"/>
</a>
</g>
</g>
<!-- Node6&#45;&gt;Node3 -->
<g id="edge9_Node000006_Node000003" class="edge">
<title>Node6&#45;&gt;Node3</title>
<g id="a_edge9_Node000006_Node000003"><a xlink:title=" ">
<path fill="none" stroke="#63b8ff" d="M1347.89,-242.86C1373.03,-234.08 1403.65,-224.67 1432,-219.44 1672.23,-175.13 1960.57,-171.9 2110.21,-173.87"/>
<polygon fill="#63b8ff" stroke="#63b8ff" points="2110.25,-177.37 2120.3,-174.01 2110.35,-170.37 2110.25,-177.37"/>
</a>
</g>
</g>
<!-- Node7 -->
<g id="Node000007" class="node">
<title>Node7</title>
<g id="a_Node000007"><a xlink:href="classcom_1_1example_1_1mybookshelf_1_1BookRecommendationFlow.html#aa95301256c7f5377d1bc432189483b3c" target="_top" xlink:title=" ">
<polygon fill="white" stroke="#666666" points="1636,-321.94 1433,-321.94 1433,-280.94 1636,-280.94 1636,-321.94"/>
<text text-anchor="start" x="1441" y="-309.94" font-family="Helvetica,sans-Serif" font-size="10.00">com.example.mybookshelf.</text>
<text text-anchor="start" x="1441" y="-298.94" font-family="Helvetica,sans-Serif" font-size="10.00">BookRecommendationFlow.showBook</text>
<text text-anchor="middle" x="1534.5" y="-287.94" font-family="Helvetica,sans-Serif" font-size="10.00">BasedStep3</text>
</a>
</g>
</g>
<!-- Node6&#45;&gt;Node7 -->
<g id="edge10_Node000006_Node000007" class="edge">
<title>Node6&#45;&gt;Node7</title>
<g id="a_edge10_Node000006_Node000007"><a xlink:title=" ">
<path fill="none" stroke="#63b8ff" d="M1395.16,-279.45C1404.35,-280.91 1413.68,-282.39 1422.94,-283.86"/>
<polygon fill="#63b8ff" stroke="#63b8ff" points="1422.53,-287.34 1432.95,-285.45 1423.63,-280.43 1422.53,-287.34"/>
</a>
</g>
</g>
<!-- Node7&#45;&gt;Node2 -->
<g id="edge11_Node000007_Node000002" class="edge">
<title>Node7&#45;&gt;Node2</title>
<g id="a_edge11_Node000007_Node000002"><a xlink:title=" ">
<path fill="none" stroke="#63b8ff" d="M1563.88,-322.17C1585.5,-338.82 1615.16,-363.62 1637,-389.44 1656.84,-412.89 1647.26,-431.68 1673,-448.44 1746.82,-496.52 1983.77,-468.84 2066,-500.44 2109.75,-517.25 2153.14,-549.66 2181,-573.03"/>
<polygon fill="#63b8ff" stroke="#63b8ff" points="2178.9,-575.84 2188.78,-579.66 2183.44,-570.51 2178.9,-575.84"/>
</a>
</g>
</g>
<!-- Node7&#45;&gt;Node3 -->
<g id="edge22_Node000007_Node000003" class="edge">
<title>Node7&#45;&gt;Node3</title>
<g id="a_edge22_Node000007_Node000003"><a xlink:title=" ">
<path fill="none" stroke="#63b8ff" d="M1636.23,-293.11C1778.57,-281.04 2025.83,-258.89 2066,-247.44 2102.46,-237.05 2140.9,-217.89 2169.11,-202.09"/>
<polygon fill="#63b8ff" stroke="#63b8ff" points="2170.93,-205.09 2177.89,-197.1 2167.47,-199 2170.93,-205.09"/>
</a>
</g>
</g>
<!-- Node8 -->
<g id="Node000008" class="node">
<title>Node8</title>
<g id="a_Node000008"><a xlink:href="classcom_1_1example_1_1mybookshelf_1_1BookRecommendationFlow.html#a78dda71d2c403a463d824ff61b2ce27f" target="_top" xlink:title=" ">
<polygon fill="white" stroke="#666666" points="1850,-340.94 1673,-340.94 1673,-299.94 1850,-299.94 1850,-340.94"/>
<text text-anchor="start" x="1681" y="-328.94" font-family="Helvetica,sans-Serif" font-size="10.00">com.example.mybookshelf.</text>
<text text-anchor="start" x="1681" y="-317.94" font-family="Helvetica,sans-Serif" font-size="10.00">BookRecommendationFlow.build</text>
<text text-anchor="middle" x="1761.5" y="-306.94" font-family="Helvetica,sans-Serif" font-size="10.00">AIStringBased</text>
</a>
</g>
</g>
<!-- Node7&#45;&gt;Node8 -->
<g id="edge12_Node000007_Node000008" class="edge">
<title>Node7&#45;&gt;Node8</title>
<g id="a_edge12_Node000007_Node000008"><a xlink:title=" ">
<path fill="none" stroke="#63b8ff" d="M1636.15,-309.94C1645.08,-310.69 1654.11,-311.46 1663.01,-312.21"/>
<polygon fill="#63b8ff" stroke="#63b8ff" points="1662.73,-315.7 1672.99,-313.05 1663.32,-308.72 1662.73,-315.7"/>
</a>
</g>
</g>
<!-- Node9 -->
<g id="Node000009" class="node">
<title>Node9</title>
<g id="a_Node000009"><a xlink:href="classcom_1_1example_1_1mybookshelf_1_1BookRecommendationFlow.html#ae50cf18619872a365eebe91c18d86e8d" target="_top" xlink:title=" ">
<polygon fill="white" stroke="#666666" points="2066,-421.44 1886,-421.44 1886,-391.44 2066,-391.44 2066,-421.44"/>
<text text-anchor="start" x="1894" y="-409.44" font-family="Helvetica,sans-Serif" font-size="10.00">com.example.mybookshelf.</text>
<text text-anchor="middle" x="1976" y="-398.44" font-family="Helvetica,sans-Serif" font-size="10.00">BookRecommendationFlow.callAI</text>
</a>
</g>
</g>
<!-- Node8&#45;&gt;Node9 -->
<g id="edge13_Node000008_Node000009" class="edge">
<title>Node8&#45;&gt;Node9</title>
<g id="a_edge13_Node000008_Node000009"><a xlink:title=" ">
<path fill="none" stroke="#63b8ff" d="M1813.4,-341.04C1848.27,-355.15 1894.17,-373.73 1928.14,-387.47"/>
<polygon fill="#63b8ff" stroke="#63b8ff" points="1927.24,-390.89 1937.83,-391.4 1929.87,-384.4 1927.24,-390.89"/>
</a>
</g>
</g>
<!-- Node9&#45;&gt;Node1 -->
<g id="edge19_Node000009_Node000001" class="edge">
<title>Node9&#45;&gt;Node1</title>
<g id="a_edge19_Node000009_Node000001"><a xlink:title=" ">
<path fill="none" stroke="#63b8ff" d="M1966.79,-421.66C1928.29,-490.74 1758.17,-771.44 1535.5,-771.44 569.5,-771.44 569.5,-771.44 569.5,-771.44 394.4,-771.44 204.86,-661.91 131.96,-615.17"/>
<polygon fill="#63b8ff" stroke="#63b8ff" points="133.55,-612.03 123.26,-609.53 129.75,-617.91 133.55,-612.03"/>
</a>
</g>
</g>
<!-- Node9&#45;&gt;Node2 -->
<g id="edge14_Node000009_Node000002" class="edge">
<title>Node9&#45;&gt;Node2</title>
<g id="a_edge14_Node000009_Node000002"><a xlink:title=" ">
<path fill="none" stroke="#63b8ff" d="M2014.41,-421.57C2031.28,-429.5 2050.78,-440.32 2066,-453.44 2086.47,-471.09 2083.83,-482.43 2102,-502.44 2125.37,-528.18 2154.88,-554.28 2177.38,-573.07"/>
<polygon fill="#63b8ff" stroke="#63b8ff" points="2175.39,-575.97 2185.33,-579.65 2179.86,-570.58 2175.39,-575.97"/>
</a>
</g>
</g>
<!-- Node9&#45;&gt;Node3 -->
<g id="edge16_Node000009_Node000003" class="edge">
<title>Node9&#45;&gt;Node3</title>
<g id="a_edge16_Node000009_Node000003"><a xlink:title=" ">
<path fill="none" stroke="#63b8ff" d="M2042.01,-391.33C2050.59,-387.65 2058.86,-383.08 2066,-377.44 2090.1,-358.39 2084.6,-343.75 2102,-318.44 2129.93,-277.82 2165.21,-233.11 2188.06,-204.92"/>
<polygon fill="#63b8ff" stroke="#63b8ff" points="2190.84,-207.04 2194.44,-197.08 2185.41,-202.62 2190.84,-207.04"/>
</a>
</g>
</g>
<!-- Node9&#45;&gt;Node9 -->
<g id="edge15_Node000009_Node000009" class="edge">
<title>Node9&#45;&gt;Node9</title>
<g id="a_edge15_Node000009_Node000009"><a xlink:title=" ">
<path fill="none" stroke="#63b8ff" d="M1938.38,-421.72C1930.02,-430.85 1942.56,-439.44 1976,-439.44 1995.85,-439.44 2008.34,-436.41 2013.46,-432.04"/>
<polygon fill="#63b8ff" stroke="#63b8ff" points="2016.96,-431.77 2013.62,-421.72 2009.96,-431.66 2016.96,-431.77"/>
</a>
</g>
</g>
<!-- Node10 -->
<g id="Node000010" class="node">
<title>Node10</title>
<g id="a_Node000010"><a xlink:href="classcom_1_1example_1_1mybookshelf_1_1apis_1_1AiAPI.html#a4a45b91f0717302661d9e35ed956c049" target="_top" xlink:title=" ">
<polygon fill="white" stroke="#666666" points="2300.5,-475.44 2124.5,-475.44 2124.5,-445.44 2300.5,-445.44 2300.5,-475.44"/>
<text text-anchor="start" x="2132.5" y="-463.44" font-family="Helvetica,sans-Serif" font-size="10.00">com.example.mybookshelf.apis.</text>
<text text-anchor="middle" x="2212.5" y="-452.44" font-family="Helvetica,sans-Serif" font-size="10.00">AiAPI.fetchResponse</text>
</a>
</g>
</g>
<!-- Node9&#45;&gt;Node10 -->
<g id="edge17_Node000009_Node000010" class="edge">
<title>Node9&#45;&gt;Node10</title>
<g id="a_edge17_Node000009_Node000010"><a xlink:title=" ">
<path fill="none" stroke="#63b8ff" d="M2038.61,-421.48C2058.79,-426.34 2081.34,-431.7 2102,-436.44 2111.67,-438.66 2121.84,-440.95 2131.92,-443.19"/>
<polygon fill="#63b8ff" stroke="#63b8ff" points="2131.42,-446.67 2141.94,-445.41 2132.94,-439.83 2131.42,-446.67"/>
</a>
</g>
</g>
<!-- Node11 -->
<g id="Node000011" class="node">
<title>Node11</title>
<g id="a_Node000011"><a xlink:href="classcom_1_1example_1_1mybookshelf_1_1BookRecommendationFlow.html#ac62af5d6edeffa96b2862a609ebb40df" target="_top" xlink:title=" ">
<polygon fill="white" stroke="#666666" points="2320.5,-426.94 2104.5,-426.94 2104.5,-385.94 2320.5,-385.94 2320.5,-426.94"/>
<text text-anchor="start" x="2112.5" y="-414.94" font-family="Helvetica,sans-Serif" font-size="10.00">com.example.mybookshelf.</text>
<text text-anchor="start" x="2112.5" y="-403.94" font-family="Helvetica,sans-Serif" font-size="10.00">BookRecommendationFlow.hideThinking</text>
<text text-anchor="middle" x="2212.5" y="-392.94" font-family="Helvetica,sans-Serif" font-size="10.00">Animation</text>
</a>
</g>
</g>
<!-- Node9&#45;&gt;Node11 -->
<g id="edge20_Node000009_Node000011" class="edge">
<title>Node9&#45;&gt;Node11</title>
<g id="a_edge20_Node000009_Node000011"><a xlink:title=" ">
<path fill="none" stroke="#63b8ff" d="M2066.32,-406.44C2075.45,-406.44 2084.81,-406.44 2094.18,-406.44"/>
<polygon fill="#63b8ff" stroke="#63b8ff" points="2094.33,-409.94 2104.33,-406.44 2094.33,-402.94 2094.33,-409.94"/>
</a>
</g>
</g>
<!-- Node12 -->
<g id="Node000012" class="node">
<title>Node12</title>
<g id="a_Node000012"><a xlink:href="classcom_1_1example_1_1mybookshelf_1_1BookRecommendationFlow.html#a78597ba37409daeee77dcfa6236b2e6a" target="_top" xlink:title=" ">
<polygon fill="white" stroke="#666666" points="2323,-367.94 2102,-367.94 2102,-326.94 2323,-326.94 2323,-367.94"/>
<text text-anchor="start" x="2110" y="-355.94" font-family="Helvetica,sans-Serif" font-size="10.00">com.example.mybookshelf.</text>
<text text-anchor="start" x="2110" y="-344.94" font-family="Helvetica,sans-Serif" font-size="10.00">BookRecommendationFlow.showThinking</text>
<text text-anchor="middle" x="2212.5" y="-333.94" font-family="Helvetica,sans-Serif" font-size="10.00">Animation</text>
</a>
</g>
</g>
<!-- Node9&#45;&gt;Node12 -->
<g id="edge21_Node000009_Node000012" class="edge">
<title>Node9&#45;&gt;Node12</title>
<g id="a_edge21_Node000009_Node000012"><a xlink:title=" ">
<path fill="none" stroke="#63b8ff" d="M2036.78,-391.4C2062.03,-385.05 2092,-377.51 2119.93,-370.48"/>
<polygon fill="#63b8ff" stroke="#63b8ff" points="2120.87,-373.85 2129.71,-368.02 2119.16,-367.06 2120.87,-373.85"/>
</a>
</g>
</g>
<!-- Node10&#45;&gt;Node10 -->
<g id="edge18_Node000010_Node000010" class="edge">
<title>Node10&#45;&gt;Node10</title>
<g id="a_edge18_Node000010_Node000010"><a xlink:title=" ">
<path fill="none" stroke="#63b8ff" d="M2171.02,-475.72C2161.8,-484.85 2175.62,-493.44 2212.5,-493.44 2234.39,-493.44 2248.16,-490.41 2253.81,-486.04"/>
<polygon fill="#63b8ff" stroke="#63b8ff" points="2257.31,-485.77 2253.98,-475.72 2250.31,-485.65 2257.31,-485.77"/>
</a>
</g>
</g>
<!-- Node13&#45;&gt;Node2 -->
<g id="edge24_Node000013_Node000002" class="edge">
<title>Node13&#45;&gt;Node2</title>
<g id="a_edge24_Node000013_Node000002"><a xlink:title=" ">
<path fill="none" stroke="#63b8ff" d="M587.23,-439.11C642.5,-509.19 836.2,-733.44 1051.5,-733.44 1051.5,-733.44 1051.5,-733.44 1762.5,-733.44 1898.86,-733.44 1937.7,-734.63 2066,-688.44 2106.65,-673.8 2148.38,-647.14 2176.67,-626.99"/>
<polygon fill="#63b8ff" stroke="#63b8ff" points="2178.94,-629.66 2185,-620.96 2174.84,-623.98 2178.94,-629.66"/>
</a>
</g>
</g>
<!-- Node13&#45;&gt;Node3 -->
<g id="edge25_Node000013_Node000003" class="edge">
<title>Node13&#45;&gt;Node3</title>
<g id="a_edge25_Node000013_Node000003"><a xlink:title=" ">
<path fill="none" stroke="#63b8ff" d="M585.83,-397.83C630.8,-335.09 776.52,-146.06 950,-70.44 1089.97,-9.43 1139.81,-43.44 1292.5,-43.44 1292.5,-43.44 1292.5,-43.44 1762.5,-43.44 1898.33,-43.44 1938.54,-32.48 2066,-79.44 2109.3,-95.39 2152.47,-126.6 2180.41,-149.32"/>
<polygon fill="#63b8ff" stroke="#63b8ff" points="2178.28,-152.1 2188.22,-155.78 2182.74,-146.71 2178.28,-152.1"/>
</a>
</g>
</g>
<!-- Node14 -->
<g id="Node000014" class="node">
<title>Node14</title>
<g id="a_Node000014"><a xlink:href="classcom_1_1example_1_1mybookshelf_1_1BookRecommendationFlow.html#aaf567ca97b0d7f0c58ebba4d6f4b18bd" target="_top" xlink:title=" ">
<polygon fill="white" stroke="#666666" points="914,-438.94 709,-438.94 709,-397.94 914,-397.94 914,-438.94"/>
<text text-anchor="start" x="717" y="-426.94" font-family="Helvetica,sans-Serif" font-size="10.00">com.example.mybookshelf.</text>
<text text-anchor="start" x="717" y="-415.94" font-family="Helvetica,sans-Serif" font-size="10.00">BookRecommendationFlow.showFresh</text>
<text text-anchor="middle" x="811.5" y="-404.94" font-family="Helvetica,sans-Serif" font-size="10.00">StartStep2</text>
</a>
</g>
</g>
<!-- Node13&#45;&gt;Node14 -->
<g id="edge26_Node000013_Node000014" class="edge">
<title>Node13&#45;&gt;Node14</title>
<g id="a_edge26_Node000013_Node000014"><a xlink:title=" ">
<path fill="none" stroke="#63b8ff" d="M673.2,-418.44C681.7,-418.44 690.31,-418.44 698.87,-418.44"/>
<polygon fill="#63b8ff" stroke="#63b8ff" points="698.89,-421.94 708.89,-418.44 698.89,-414.94 698.89,-421.94"/>
</a>
</g>
</g>
<!-- Node14&#45;&gt;Node2 -->
<g id="edge27_Node000014_Node000002" class="edge">
<title>Node14&#45;&gt;Node2</title>
<g id="a_edge27_Node000014_Node000002"><a xlink:title=" ">
<path fill="none" stroke="#63b8ff" d="M831.23,-439.26C891.36,-503.68 1087.56,-695.44 1292.5,-695.44 1292.5,-695.44 1292.5,-695.44 1762.5,-695.44 1898.44,-695.44 1934.25,-690.94 2066,-657.44 2097.4,-649.46 2131.17,-636.52 2158.26,-624.99"/>
<polygon fill="#63b8ff" stroke="#63b8ff" points="2159.75,-628.15 2167.55,-620.97 2156.98,-621.72 2159.75,-628.15"/>
</a>
</g>
</g>
<!-- Node14&#45;&gt;Node3 -->
<g id="edge28_Node000014_Node000003" class="edge">
<title>Node14&#45;&gt;Node3</title>
<g id="a_edge28_Node000014_Node000003"><a xlink:title=" ">
<path fill="none" stroke="#63b8ff" d="M816.05,-397.89C826.29,-345.38 861.01,-205.74 950,-139.44 1073.81,-47.2 1138.11,-81.44 1292.5,-81.44 1292.5,-81.44 1292.5,-81.44 1762.5,-81.44 1898.33,-81.44 1934.44,-83.62 2066,-117.44 2098.23,-125.73 2132.82,-139.53 2160.18,-151.71"/>
<polygon fill="#63b8ff" stroke="#63b8ff" points="2158.99,-155.01 2169.54,-155.93 2161.87,-148.63 2158.99,-155.01"/>
</a>
</g>
</g>
<!-- Node15 -->
<g id="Node000015" class="node">
<title>Node15</title>
<g id="a_Node000015"><a xlink:href="classcom_1_1example_1_1mybookshelf_1_1BookRecommendationFlow.html#a2bc1c0125eb3c1fe64ed1ed3ee93d3eb" target="_top" xlink:title=" ">
<polygon fill="white" stroke="#666666" points="1155,-438.94 950,-438.94 950,-397.94 1155,-397.94 1155,-438.94"/>
<text text-anchor="start" x="958" y="-426.94" font-family="Helvetica,sans-Serif" font-size="10.00">com.example.mybookshelf.</text>
<text text-anchor="start" x="958" y="-415.94" font-family="Helvetica,sans-Serif" font-size="10.00">BookRecommendationFlow.showFresh</text>
<text text-anchor="middle" x="1052.5" y="-404.94" font-family="Helvetica,sans-Serif" font-size="10.00">StartStep3</text>
</a>
</g>
</g>
<!-- Node14&#45;&gt;Node15 -->
<g id="edge29_Node000014_Node000015" class="edge">
<title>Node14&#45;&gt;Node15</title>
<g id="a_edge29_Node000014_Node000015"><a xlink:title=" ">
<path fill="none" stroke="#63b8ff" d="M914.2,-418.44C922.7,-418.44 931.31,-418.44 939.87,-418.44"/>
<polygon fill="#63b8ff" stroke="#63b8ff" points="939.89,-421.94 949.89,-418.44 939.89,-414.94 939.89,-421.94"/>
</a>
</g>
</g>
<!-- Node15&#45;&gt;Node2 -->
<g id="edge30_Node000015_Node000002" class="edge">
<title>Node15&#45;&gt;Node2</title>
<g id="a_edge30_Node000015_Node000002"><a xlink:title=" ">
<path fill="none" stroke="#63b8ff" d="M1059.64,-438.97C1074.15,-483.48 1115.19,-588.42 1191,-633.44 1322.2,-711.36 1380.9,-657.44 1533.5,-657.44 1533.5,-657.44 1533.5,-657.44 1762.5,-657.44 1897.81,-657.44 1932.23,-653.79 2066,-633.44 2083.72,-630.75 2102.49,-627.1 2120.44,-623.21"/>
<polygon fill="#63b8ff" stroke="#63b8ff" points="2121.31,-626.6 2130.32,-621.02 2119.8,-619.76 2121.31,-626.6"/>
</a>
</g>
</g>
<!-- Node15&#45;&gt;Node3 -->
<g id="edge31_Node000015_Node000003" class="edge">
<title>Node15&#45;&gt;Node3</title>
<g id="a_edge31_Node000015_Node000003"><a xlink:title=" ">
<path fill="none" stroke="#63b8ff" d="M1062.79,-397.8C1081.3,-359.19 1126.58,-276.19 1191,-234.44 1321.92,-149.58 1377.48,-157.44 1533.5,-157.44 1533.5,-157.44 1533.5,-157.44 1762.5,-157.44 1882.07,-157.44 2019.39,-164.25 2110.36,-169.72"/>
<polygon fill="#63b8ff" stroke="#63b8ff" points="2110.2,-173.21 2120.39,-170.32 2110.62,-166.22 2110.2,-173.21"/>
</a>
</g>
</g>
<!-- Node16 -->
<g id="Node000016" class="node">
<title>Node16</title>
<g id="a_Node000016"><a xlink:href="classcom_1_1example_1_1mybookshelf_1_1BookRecommendationFlow.html#ad10515cfcf8650b6830b68f15d393b3b" target="_top" xlink:title=" ">
<polygon fill="white" stroke="#666666" points="1396,-438.94 1191,-438.94 1191,-397.94 1396,-397.94 1396,-438.94"/>
<text text-anchor="start" x="1199" y="-426.94" font-family="Helvetica,sans-Serif" font-size="10.00">com.example.mybookshelf.</text>
<text text-anchor="start" x="1199" y="-415.94" font-family="Helvetica,sans-Serif" font-size="10.00">BookRecommendationFlow.showFresh</text>
<text text-anchor="middle" x="1293.5" y="-404.94" font-family="Helvetica,sans-Serif" font-size="10.00">StartStep4</text>
</a>
</g>
</g>
<!-- Node15&#45;&gt;Node16 -->
<g id="edge32_Node000015_Node000016" class="edge">
<title>Node15&#45;&gt;Node16</title>
<g id="a_edge32_Node000015_Node000016"><a xlink:title=" ">
<path fill="none" stroke="#63b8ff" d="M1155.2,-418.44C1163.7,-418.44 1172.31,-418.44 1180.87,-418.44"/>
<polygon fill="#63b8ff" stroke="#63b8ff" points="1180.89,-421.94 1190.89,-418.44 1180.89,-414.94 1180.89,-421.94"/>
</a>
</g>
</g>
<!-- Node16&#45;&gt;Node2 -->
<g id="edge33_Node000016_Node000002" class="edge">
<title>Node16&#45;&gt;Node2</title>
<g id="a_edge33_Node000016_Node000002"><a xlink:title=" ">
<path fill="none" stroke="#63b8ff" d="M1307.5,-439.16C1328.93,-471.21 1375.05,-531.8 1432,-557.44 1491.75,-584.34 1906.06,-595.14 2105.14,-598.81"/>
<polygon fill="#63b8ff" stroke="#63b8ff" points="2105.27,-602.31 2115.33,-598.99 2105.4,-595.31 2105.27,-602.31"/>
</a>
</g>
</g>
<!-- Node16&#45;&gt;Node3 -->
<g id="edge34_Node000016_Node000003" class="edge">
<title>Node16&#45;&gt;Node3</title>
<g id="a_edge34_Node000016_Node000003"><a xlink:title=" ">
<path fill="none" stroke="#63b8ff" d="M1307.1,-397.7C1328.32,-364.83 1374.54,-301.55 1432,-272.44 1491.33,-242.38 1913,-202.38 2110.24,-185.05"/>
<polygon fill="#63b8ff" stroke="#63b8ff" points="2110.67,-188.53 2120.33,-184.17 2110.06,-181.55 2110.67,-188.53"/>
</a>
</g>
</g>
<!-- Node17 -->
<g id="Node000017" class="node">
<title>Node17</title>
<g id="a_Node000017"><a xlink:href="classcom_1_1example_1_1mybookshelf_1_1BookRecommendationFlow.html#a46c6733f27b3527d3934cee02cfcd7ac" target="_top" xlink:title=" ">
<polygon fill="white" stroke="#666666" points="1637,-438.94 1432,-438.94 1432,-397.94 1637,-397.94 1637,-438.94"/>
<text text-anchor="start" x="1440" y="-426.94" font-family="Helvetica,sans-Serif" font-size="10.00">com.example.mybookshelf.</text>
<text text-anchor="start" x="1440" y="-415.94" font-family="Helvetica,sans-Serif" font-size="10.00">BookRecommendationFlow.showFresh</text>
<text text-anchor="middle" x="1534.5" y="-404.94" font-family="Helvetica,sans-Serif" font-size="10.00">StartStep5</text>
</a>
</g>
</g>
<!-- Node16&#45;&gt;Node17 -->
<g id="edge35_Node000016_Node000017" class="edge">
<title>Node16&#45;&gt;Node17</title>
<g id="a_edge35_Node000016_Node000017"><a xlink:title=" ">
<path fill="none" stroke="#63b8ff" d="M1396.2,-418.44C1404.7,-418.44 1413.31,-418.44 1421.87,-418.44"/>
<polygon fill="#63b8ff" stroke="#63b8ff" points="1421.89,-421.94 1431.89,-418.44 1421.89,-414.94 1421.89,-421.94"/>
</a>
</g>
</g>
<!-- Node17&#45;&gt;Node2 -->
<g id="edge36_Node000017_Node000002" class="edge">
<title>Node17&#45;&gt;Node2</title>
<g id="a_edge36_Node000017_Node000002"><a xlink:title=" ">
<path fill="none" stroke="#63b8ff" d="M1572.24,-439.06C1599.28,-453.28 1637.37,-471.37 1673,-481.44 1842.32,-529.32 1897.27,-479.5 2066,-529.44 2102.24,-540.17 2140.54,-559.21 2168.75,-574.87"/>
<polygon fill="#63b8ff" stroke="#63b8ff" points="2167.11,-577.97 2177.54,-579.83 2170.55,-571.87 2167.11,-577.97"/>
</a>
</g>
</g>
<!-- Node17&#45;&gt;Node3 -->
<g id="edge39_Node000017_Node000003" class="edge">
<title>Node17&#45;&gt;Node3</title>
<g id="a_edge39_Node000017_Node000003"><a xlink:title=" ">
<path fill="none" stroke="#63b8ff" d="M1632.14,-397.87C1720.59,-379 1839.33,-353.51 1850,-350.44 1948.1,-322.26 1974.76,-318.2 2066,-272.44 2105.76,-252.5 2147.83,-223.81 2176.45,-202.99"/>
<polygon fill="#63b8ff" stroke="#63b8ff" points="2178.53,-205.81 2184.52,-197.07 2174.38,-200.16 2178.53,-205.81"/>
</a>
</g>
</g>
<!-- Node18 -->
<g id="Node000018" class="node">
<title>Node18</title>
<g id="a_Node000018"><a xlink:href="classcom_1_1example_1_1mybookshelf_1_1BookRecommendationFlow.html#abe4c57ea57ed54c344739295e70066ff" target="_top" xlink:title=" ">
<polygon fill="white" stroke="#666666" points="1850,-438.94 1673,-438.94 1673,-397.94 1850,-397.94 1850,-438.94"/>
<text text-anchor="start" x="1681" y="-426.94" font-family="Helvetica,sans-Serif" font-size="10.00">com.example.mybookshelf.</text>
<text text-anchor="start" x="1681" y="-415.94" font-family="Helvetica,sans-Serif" font-size="10.00">BookRecommendationFlow.build</text>
<text text-anchor="middle" x="1761.5" y="-404.94" font-family="Helvetica,sans-Serif" font-size="10.00">AIStringFresh</text>
</a>
</g>
</g>
<!-- Node17&#45;&gt;Node18 -->
<g id="edge37_Node000017_Node000018" class="edge">
<title>Node17&#45;&gt;Node18</title>
<g id="a_edge37_Node000017_Node000018"><a xlink:title=" ">
<path fill="none" stroke="#63b8ff" d="M1637.14,-418.44C1645.58,-418.44 1654.11,-418.44 1662.53,-418.44"/>
<polygon fill="#63b8ff" stroke="#63b8ff" points="1662.73,-421.94 1672.73,-418.44 1662.73,-414.94 1662.73,-421.94"/>
</a>
</g>
</g>
<!-- Node18&#45;&gt;Node9 -->
<g id="edge38_Node000018_Node000009" class="edge">
<title>Node18&#45;&gt;Node9</title>
<g id="a_edge38_Node000018_Node000009"><a xlink:title=" ">
<path fill="none" stroke="#63b8ff" d="M1850.16,-413.49C1858.62,-413.01 1867.25,-412.53 1875.81,-412.04"/>
<polygon fill="#63b8ff" stroke="#63b8ff" points="1876.04,-415.53 1885.83,-411.48 1875.64,-408.55 1876.04,-415.53"/>
</a>
</g>
</g>
</g>
</svg>
