<?xml version="1.0" encoding="UTF-8" standalone="no"?>
<!DOCTYPE svg PUBLIC "-//W3C//DTD SVG 1.1//EN"
 "http://www.w3.org/Graphics/SVG/1.1/DTD/svg11.dtd">
<!-- Generated by graphviz version 2.43.0 (0)
 -->
<!-- Title: /app/doc_state/github_reposRepoArchDocGenContext/EliasSchaffer/MyBookShelf/src/main/java/com/example/mybookshelf/LayoutManager/CustomGoalAdapter.java Pages: 1 -->
<svg width="3464pt" height="148pt"
 viewBox="0.00 0.00 3464.00 148.00" xmlns="http://www.w3.org/2000/svg" xmlns:xlink="http://www.w3.org/1999/xlink">
<g id="graph0" class="graph" transform="scale(1 1) rotate(0) translate(4 144)">
<title>/app/doc_state/github_reposRepoArchDocGenContext/EliasSchaffer/MyBookShelf/src/main/java/com/example/mybookshelf/LayoutManager/CustomGoalAdapter.java</title>
<!-- Node1 -->
<g id="Node000001" class="node">
<title>Node1</title>
<g id="a_Node000001"><a xlink:title=" ">
<polygon fill="#999999" stroke="#666666" points="1770,-140 1545,-140 1545,-66 1770,-66 1770,-140"/>
<text text-anchor="start" x="1553" y="-128" font-family="Helvetica,sans-Serif" font-size="10.00">/app/doc_state/github</text>
<text text-anchor="start" x="1553" y="-117" font-family="Helvetica,sans-Serif" font-size="10.00">_reposRepoArchDocGenContext</text>
<text text-anchor="start" x="1553" y="-106" font-family="Helvetica,sans-Serif" font-size="10.00">/EliasSchaffer/MyBookShelf</text>
<text text-anchor="start" x="1553" y="-95" font-family="Helvetica,sans-Serif" font-size="10.00">/src/main/java/com/example</text>
<text text-anchor="start" x="1553" y="-84" font-family="Helvetica,sans-Serif" font-size="10.00">/mybookshelf/LayoutManager/CustomGoal</text>
<text text-anchor="middle" x="1657.5" y="-73" font-family="Helvetica,sans-Serif" font-size="10.00">Adapter.java</text>
</a>
</g>
</g>
<!-- Node2 -->
<g id="Node000002" class="node">
<title>Node2</title>
<g id="a_Node000002"><a xlink:title=" ">
<polygon fill="#e0e0e0" stroke="#999999" points="115,-24.5 0,-24.5 0,-5.5 115,-5.5 115,-24.5"/>
<text text-anchor="middle" x="57.5" y="-12.5" font-family="Helvetica,sans-Serif" font-size="10.00">android.app.Activity</text>
</a>
</g>
</g>
<!-- Node1&#45;&gt;Node2 -->
<g id="edge1_Node000001_Node000002" class="edge">
<title>Node1&#45;&gt;Node2</title>
<g id="a_edge1_Node000001_Node000002"><a xlink:title=" ">
<path fill="none" stroke="#63b8ff" d="M1544.93,-102.82C1290.64,-103.34 652.79,-97.17 124.5,-30 117.61,-29.12 110.37,-27.92 103.31,-26.58"/>
<polygon fill="#63b8ff" stroke="#63b8ff" points="103.63,-23.07 93.14,-24.54 102.26,-29.94 103.63,-23.07"/>
</a>
</g>
</g>
<!-- Node3 -->
<g id="Node000003" class="node">
<title>Node3</title>
<g id="a_Node000003"><a xlink:title=" ">
<polygon fill="#e0e0e0" stroke="#999999" points="267.5,-24.5 133.5,-24.5 133.5,-5.5 267.5,-5.5 267.5,-24.5"/>
<text text-anchor="middle" x="200.5" y="-12.5" font-family="Helvetica,sans-Serif" font-size="10.00">android.content.Context</text>
</a>
</g>
</g>
<!-- Node1&#45;&gt;Node3 -->
<g id="edge2_Node000001_Node000003" class="edge">
<title>Node1&#45;&gt;Node3</title>
<g id="a_edge2_Node000001_Node000003"><a xlink:title=" ">
<path fill="none" stroke="#63b8ff" d="M1544.75,-101.08C1308.66,-98.06 745.33,-85.17 276.5,-30 268.35,-29.04 259.76,-27.74 251.41,-26.32"/>
<polygon fill="#63b8ff" stroke="#63b8ff" points="251.83,-22.84 241.37,-24.54 250.61,-29.73 251.83,-22.84"/>
</a>
</g>
</g>
<!-- Node4 -->
<g id="Node000004" class="node">
<title>Node4</title>
<g id="a_Node000004"><a xlink:title=" ">
<polygon fill="#e0e0e0" stroke="#999999" points="411.5,-24.5 285.5,-24.5 285.5,-5.5 411.5,-5.5 411.5,-24.5"/>
<text text-anchor="middle" x="348.5" y="-12.5" font-family="Helvetica,sans-Serif" font-size="10.00">android.graphics.Color</text>
</a>
</g>
</g>
<!-- Node1&#45;&gt;Node4 -->
<g id="edge3_Node000001_Node000004" class="edge">
<title>Node1&#45;&gt;Node4</title>
<g id="a_edge3_Node000001_Node000004"><a xlink:title=" ">
<path fill="none" stroke="#63b8ff" d="M1544.89,-100.48C1326.97,-96.44 832.7,-81.83 420.5,-30 412.94,-29.05 404.99,-27.78 397.24,-26.39"/>
<polygon fill="#63b8ff" stroke="#63b8ff" points="397.68,-22.91 387.21,-24.51 396.39,-29.79 397.68,-22.91"/>
</a>
</g>
</g>
<!-- Node5 -->
<g id="Node000005" class="node">
<title>Node5</title>
<g id="a_Node000005"><a xlink:title=" ">
<polygon fill="#e0e0e0" stroke="#999999" points="551.5,-24.5 429.5,-24.5 429.5,-5.5 551.5,-5.5 551.5,-24.5"/>
<text text-anchor="middle" x="490.5" y="-12.5" font-family="Helvetica,sans-Serif" font-size="10.00">android.graphics.Rect</text>
</a>
</g>
</g>
<!-- Node1&#45;&gt;Node5 -->
<g id="edge4_Node000001_Node000005" class="edge">
<title>Node1&#45;&gt;Node5</title>
<g id="a_edge4_Node000001_Node000005"><a xlink:title=" ">
<path fill="none" stroke="#63b8ff" d="M1544.9,-99.5C1345.62,-94 918.11,-77.29 560.5,-30 553.32,-29.05 545.77,-27.81 538.39,-26.45"/>
<polygon fill="#63b8ff" stroke="#63b8ff" points="538.97,-23 528.49,-24.55 537.65,-29.87 538.97,-23"/>
</a>
</g>
</g>
<!-- Node6 -->
<g id="Node000006" class="node">
<title>Node6</title>
<g id="a_Node000006"><a xlink:title=" ">
<polygon fill="#e0e0e0" stroke="#999999" points="719,-30 570,-30 570,0 719,0 719,-30"/>
<text text-anchor="start" x="578" y="-18" font-family="Helvetica,sans-Serif" font-size="10.00">android.graphics.drawable.</text>
<text text-anchor="middle" x="644.5" y="-7" font-family="Helvetica,sans-Serif" font-size="10.00">GradientDrawable</text>
</a>
</g>
</g>
<!-- Node1&#45;&gt;Node6 -->
<g id="edge5_Node000001_Node000006" class="edge">
<title>Node1&#45;&gt;Node6</title>
<g id="a_edge5_Node000001_Node000006"><a xlink:title=" ">
<path fill="none" stroke="#63b8ff" d="M1544.93,-96.47C1371.83,-87.26 1029.75,-66.24 729.33,-30.02"/>
<polygon fill="#63b8ff" stroke="#63b8ff" points="729.45,-26.51 719.11,-28.78 728.61,-33.46 729.45,-26.51"/>
</a>
</g>
</g>
<!-- Node7 -->
<g id="Node000007" class="node">
<title>Node7</title>
<g id="a_Node000007"><a xlink:title=" ">
<polygon fill="#e0e0e0" stroke="#999999" points="885.5,-24.5 737.5,-24.5 737.5,-5.5 885.5,-5.5 885.5,-24.5"/>
<text text-anchor="middle" x="811.5" y="-12.5" font-family="Helvetica,sans-Serif" font-size="10.00">android.util.DisplayMetrics</text>
</a>
</g>
</g>
<!-- Node1&#45;&gt;Node7 -->
<g id="edge6_Node000001_Node000007" class="edge">
<title>Node1&#45;&gt;Node7</title>
<g id="a_edge6_Node000001_Node000007"><a xlink:title=" ">
<path fill="none" stroke="#63b8ff" d="M1544.74,-93.95C1395.59,-82.7 1124.7,-60.23 894.5,-30 886.06,-28.89 877.17,-27.56 868.47,-26.17"/>
<polygon fill="#63b8ff" stroke="#63b8ff" points="868.81,-22.68 858.38,-24.52 867.68,-29.59 868.81,-22.68"/>
</a>
</g>
</g>
<!-- Node8 -->
<g id="Node000008" class="node">
<title>Node8</title>
<g id="a_Node000008"><a xlink:title=" ">
<polygon fill="#e0e0e0" stroke="#999999" points="1021.5,-24.5 903.5,-24.5 903.5,-5.5 1021.5,-5.5 1021.5,-24.5"/>
<text text-anchor="middle" x="962.5" y="-12.5" font-family="Helvetica,sans-Serif" font-size="10.00">android.view.Gravity</text>
</a>
</g>
</g>
<!-- Node1&#45;&gt;Node8 -->
<g id="edge7_Node000001_Node000008" class="edge">
<title>Node1&#45;&gt;Node8</title>
<g id="a_edge7_Node000001_Node000008"><a xlink:title=" ">
<path fill="none" stroke="#63b8ff" d="M1544.96,-92.11C1419.15,-80.35 1209.56,-58.66 1030.5,-30 1024.17,-28.99 1017.54,-27.79 1011.01,-26.53"/>
<polygon fill="#63b8ff" stroke="#63b8ff" points="1011.36,-23.03 1000.87,-24.52 1010,-29.9 1011.36,-23.03"/>
</a>
</g>
</g>
<!-- Node9 -->
<g id="Node000009" class="node">
<title>Node9</title>
<g id="a_Node000009"><a xlink:title=" ">
<polygon fill="#e0e0e0" stroke="#999999" points="1145.5,-24.5 1039.5,-24.5 1039.5,-5.5 1145.5,-5.5 1145.5,-24.5"/>
<text text-anchor="middle" x="1092.5" y="-12.5" font-family="Helvetica,sans-Serif" font-size="10.00">android.view.View</text>
</a>
</g>
</g>
<!-- Node1&#45;&gt;Node9 -->
<g id="edge8_Node000001_Node000009" class="edge">
<title>Node1&#45;&gt;Node9</title>
<g id="a_edge8_Node000001_Node000009"><a xlink:title=" ">
<path fill="none" stroke="#63b8ff" d="M1544.71,-88.47C1442.49,-75.59 1287.89,-54.57 1154.5,-30 1149.14,-29.01 1143.54,-27.89 1138,-26.71"/>
<polygon fill="#63b8ff" stroke="#63b8ff" points="1138.65,-23.27 1128.14,-24.56 1137.16,-30.11 1138.65,-23.27"/>
</a>
</g>
</g>
<!-- Node10 -->
<g id="Node000010" class="node">
<title>Node10</title>
<g id="a_Node000010"><a xlink:title=" ">
<polygon fill="#e0e0e0" stroke="#999999" points="1299,-24.5 1164,-24.5 1164,-5.5 1299,-5.5 1299,-24.5"/>
<text text-anchor="middle" x="1231.5" y="-12.5" font-family="Helvetica,sans-Serif" font-size="10.00">android.view.ViewGroup</text>
</a>
</g>
</g>
<!-- Node1&#45;&gt;Node10 -->
<g id="edge9_Node000001_Node000010" class="edge">
<title>Node1&#45;&gt;Node10</title>
<g id="a_edge9_Node000001_Node000010"><a xlink:title=" ">
<path fill="none" stroke="#63b8ff" d="M1544.74,-79.24C1460.15,-62.16 1348.25,-39.57 1283.64,-26.53"/>
<polygon fill="#63b8ff" stroke="#63b8ff" points="1284.18,-23.06 1273.69,-24.52 1282.79,-29.93 1284.18,-23.06"/>
</a>
</g>
</g>
<!-- Node11 -->
<g id="Node000011" class="node">
<title>Node11</title>
<g id="a_Node000011"><a xlink:title=" ">
<polygon fill="#e0e0e0" stroke="#999999" points="1481.5,-24.5 1317.5,-24.5 1317.5,-5.5 1481.5,-5.5 1481.5,-24.5"/>
<text text-anchor="middle" x="1399.5" y="-12.5" font-family="Helvetica,sans-Serif" font-size="10.00">android.view.WindowManager</text>
</a>
</g>
</g>
<!-- Node1&#45;&gt;Node11 -->
<g id="edge10_Node000001_Node000011" class="edge">
<title>Node1&#45;&gt;Node11</title>
<g id="a_edge10_Node000001_Node000011"><a xlink:title=" ">
<path fill="none" stroke="#63b8ff" d="M1549.21,-65.9C1508.25,-52.25 1464.44,-37.65 1434.86,-27.79"/>
<polygon fill="#63b8ff" stroke="#63b8ff" points="1435.62,-24.35 1425.02,-24.51 1433.4,-30.99 1435.62,-24.35"/>
</a>
</g>
</g>
<!-- Node12 -->
<g id="Node000012" class="node">
<title>Node12</title>
<g id="a_Node000012"><a xlink:title=" ">
<polygon fill="#e0e0e0" stroke="#999999" points="1657,-24.5 1500,-24.5 1500,-5.5 1657,-5.5 1657,-24.5"/>
<text text-anchor="middle" x="1578.5" y="-12.5" font-family="Helvetica,sans-Serif" font-size="10.00">android.view.WindowMetrics</text>
</a>
</g>
</g>
<!-- Node1&#45;&gt;Node12 -->
<g id="edge11_Node000001_Node000012" class="edge">
<title>Node1&#45;&gt;Node12</title>
<g id="a_edge11_Node000001_Node000012"><a xlink:title=" ">
<path fill="none" stroke="#63b8ff" d="M1624,-65.53C1613.33,-53.91 1602.06,-41.65 1593.41,-32.23"/>
<polygon fill="#63b8ff" stroke="#63b8ff" points="1595.9,-29.77 1586.56,-24.77 1590.75,-34.51 1595.9,-29.77"/>
</a>
</g>
</g>
<!-- Node13 -->
<g id="Node000013" class="node">
<title>Node13</title>
<g id="a_Node000013"><a xlink:title=" ">
<polygon fill="#e0e0e0" stroke="#999999" points="1800,-24.5 1675,-24.5 1675,-5.5 1800,-5.5 1800,-24.5"/>
<text text-anchor="middle" x="1737.5" y="-12.5" font-family="Helvetica,sans-Serif" font-size="10.00">android.widget.Button</text>
</a>
</g>
</g>
<!-- Node1&#45;&gt;Node13 -->
<g id="edge12_Node000001_Node000013" class="edge">
<title>Node1&#45;&gt;Node13</title>
<g id="a_edge12_Node000001_Node000013"><a xlink:title=" ">
<path fill="none" stroke="#63b8ff" d="M1691.43,-65.53C1702.23,-53.91 1713.64,-41.65 1722.4,-32.23"/>
<polygon fill="#63b8ff" stroke="#63b8ff" points="1725.09,-34.48 1729.34,-24.77 1719.96,-29.71 1725.09,-34.48"/>
</a>
</g>
</g>
<!-- Node14 -->
<g id="Node000014" class="node">
<title>Node14</title>
<g id="a_Node000014"><a xlink:title=" ">
<polygon fill="#e0e0e0" stroke="#999999" points="1974.5,-24.5 1818.5,-24.5 1818.5,-5.5 1974.5,-5.5 1974.5,-24.5"/>
<text text-anchor="middle" x="1896.5" y="-12.5" font-family="Helvetica,sans-Serif" font-size="10.00">android.widget.FrameLayout</text>
</a>
</g>
</g>
<!-- Node1&#45;&gt;Node14 -->
<g id="edge13_Node000001_Node000014" class="edge">
<title>Node1&#45;&gt;Node14</title>
<g id="a_edge13_Node000001_Node000014"><a xlink:title=" ">
<path fill="none" stroke="#63b8ff" d="M1757.82,-65.9C1795.59,-52.31 1835.99,-37.77 1863.38,-27.92"/>
<polygon fill="#63b8ff" stroke="#63b8ff" points="1864.63,-31.19 1872.86,-24.51 1862.26,-24.6 1864.63,-31.19"/>
</a>
</g>
</g>
<!-- Node15 -->
<g id="Node000015" class="node">
<title>Node15</title>
<g id="a_Node000015"><a xlink:title=" ">
<polygon fill="#e0e0e0" stroke="#999999" points="2148,-24.5 1993,-24.5 1993,-5.5 2148,-5.5 2148,-24.5"/>
<text text-anchor="middle" x="2070.5" y="-12.5" font-family="Helvetica,sans-Serif" font-size="10.00">android.widget.LinearLayout</text>
</a>
</g>
</g>
<!-- Node1&#45;&gt;Node15 -->
<g id="edge14_Node000001_Node000015" class="edge">
<title>Node1&#45;&gt;Node15</title>
<g id="a_edge14_Node000001_Node000015"><a xlink:title=" ">
<path fill="none" stroke="#63b8ff" d="M1770.08,-78.56C1851.53,-61.6 1957.75,-39.48 2019.62,-26.6"/>
<polygon fill="#63b8ff" stroke="#63b8ff" points="2020.45,-30 2029.52,-24.53 2019.02,-23.14 2020.45,-30"/>
</a>
</g>
</g>
<!-- Node16 -->
<g id="Node000016" class="node">
<title>Node16</title>
<g id="a_Node000016"><a xlink:title=" ">
<polygon fill="#e0e0e0" stroke="#999999" points="2317,-24.5 2166,-24.5 2166,-5.5 2317,-5.5 2317,-24.5"/>
<text text-anchor="middle" x="2241.5" y="-12.5" font-family="Helvetica,sans-Serif" font-size="10.00">android.widget.ProgressBar</text>
</a>
</g>
</g>
<!-- Node1&#45;&gt;Node16 -->
<g id="edge15_Node000001_Node000016" class="edge">
<title>Node1&#45;&gt;Node16</title>
<g id="a_edge15_Node000001_Node000016"><a xlink:title=" ">
<path fill="none" stroke="#63b8ff" d="M1770.3,-86.48C1871.71,-72.36 2024.69,-50.63 2157.5,-30 2165.2,-28.8 2173.3,-27.51 2181.3,-26.2"/>
<polygon fill="#63b8ff" stroke="#63b8ff" points="2182.04,-29.62 2191.34,-24.55 2180.9,-22.72 2182.04,-29.62"/>
</a>
</g>
</g>
<!-- Node17 -->
<g id="Node000017" class="node">
<title>Node17</title>
<g id="a_Node000017"><a xlink:title=" ">
<polygon fill="#e0e0e0" stroke="#999999" points="2472,-24.5 2335,-24.5 2335,-5.5 2472,-5.5 2472,-24.5"/>
<text text-anchor="middle" x="2403.5" y="-12.5" font-family="Helvetica,sans-Serif" font-size="10.00">android.widget.TextView</text>
</a>
</g>
</g>
<!-- Node1&#45;&gt;Node17 -->
<g id="edge16_Node000001_Node000017" class="edge">
<title>Node1&#45;&gt;Node17</title>
<g id="a_edge16_Node000001_Node000017"><a xlink:title=" ">
<path fill="none" stroke="#63b8ff" d="M1770.26,-92.38C1903.5,-80.44 2131.69,-58.16 2326.5,-30 2333.98,-28.92 2341.85,-27.65 2349.57,-26.32"/>
<polygon fill="#63b8ff" stroke="#63b8ff" points="2350.37,-29.73 2359.61,-24.55 2349.16,-22.84 2350.37,-29.73"/>
</a>
</g>
</g>
<!-- Node18 -->
<g id="Node000018" class="node">
<title>Node18</title>
<g id="a_Node000018"><a xlink:title=" ">
<polygon fill="#e0e0e0" stroke="#999999" points="2647,-24.5 2490,-24.5 2490,-5.5 2647,-5.5 2647,-24.5"/>
<text text-anchor="middle" x="2568.5" y="-12.5" font-family="Helvetica,sans-Serif" font-size="10.00">androidx.annotation.NonNull</text>
</a>
</g>
</g>
<!-- Node1&#45;&gt;Node18 -->
<g id="edge17_Node000001_Node000018" class="edge">
<title>Node1&#45;&gt;Node18</title>
<g id="a_edge17_Node000001_Node000018"><a xlink:title=" ">
<path fill="none" stroke="#63b8ff" d="M1770.06,-94.76C1928.97,-83.94 2228.01,-61.43 2481.5,-30 2490.53,-28.88 2500.06,-27.53 2509.37,-26.1"/>
<polygon fill="#63b8ff" stroke="#63b8ff" points="2510.02,-29.55 2519.36,-24.54 2508.94,-22.63 2510.02,-29.55"/>
</a>
</g>
</g>
<!-- Node19 -->
<g id="Node000019" class="node">
<title>Node19</title>
<g id="a_Node000019"><a xlink:title=" ">
<polygon fill="#e0e0e0" stroke="#999999" points="2828,-30 2665,-30 2665,0 2828,0 2828,-30"/>
<text text-anchor="start" x="2673" y="-18" font-family="Helvetica,sans-Serif" font-size="10.00">androidx.recyclerview.widget.</text>
<text text-anchor="middle" x="2746.5" y="-7" font-family="Helvetica,sans-Serif" font-size="10.00">RecyclerView</text>
</a>
</g>
</g>
<!-- Node1&#45;&gt;Node19 -->
<g id="edge18_Node000001_Node000019" class="edge">
<title>Node1&#45;&gt;Node19</title>
<g id="a_edge18_Node000001_Node000019"><a xlink:title=" ">
<path fill="none" stroke="#63b8ff" d="M1770.14,-96.91C1953.54,-87.95 2328.22,-66.85 2654.5,-30.17"/>
<polygon fill="#63b8ff" stroke="#63b8ff" points="2655.08,-33.63 2664.62,-29.03 2654.29,-26.68 2655.08,-33.63"/>
</a>
</g>
</g>
<!-- Node20 -->
<g id="Node000020" class="node">
<title>Node20</title>
<g id="a_Node000020"><a xlink:title=" ">
<polygon fill="#e0e0e0" stroke="#999999" points="2998.5,-30 2846.5,-30 2846.5,0 2998.5,0 2998.5,-30"/>
<text text-anchor="start" x="2854.5" y="-18" font-family="Helvetica,sans-Serif" font-size="10.00">com.example.mybookshelf.</text>
<text text-anchor="middle" x="2922.5" y="-7" font-family="Helvetica,sans-Serif" font-size="10.00">DataBaseConnection</text>
</a>
</g>
</g>
<!-- Node1&#45;&gt;Node20 -->
<g id="edge19_Node000001_Node000020" class="edge">
<title>Node1&#45;&gt;Node20</title>
<g id="a_edge19_Node000001_Node000020"><a xlink:title=" ">
<path fill="none" stroke="#63b8ff" d="M1770.09,-98.96C1978.65,-92.5 2439.2,-74.27 2836.14,-30.08"/>
<polygon fill="#63b8ff" stroke="#63b8ff" points="2836.55,-33.55 2846.1,-28.96 2835.77,-26.6 2836.55,-33.55"/>
</a>
</g>
</g>
<!-- Node21 -->
<g id="Node000021" class="node">
<title>Node21</title>
<g id="a_Node000021"><a xlink:title=" ">
<polygon fill="#e0e0e0" stroke="#999999" points="3168.5,-30 3016.5,-30 3016.5,0 3168.5,0 3168.5,-30"/>
<text text-anchor="start" x="3024.5" y="-18" font-family="Helvetica,sans-Serif" font-size="10.00">com.example.mybookshelf.</text>
<text text-anchor="middle" x="3092.5" y="-7" font-family="Helvetica,sans-Serif" font-size="10.00">MainActivity</text>
</a>
</g>
</g>
<!-- Node1&#45;&gt;Node21 -->
<g id="edge20_Node000001_Node000021" class="edge">
<title>Node1&#45;&gt;Node21</title>
<g id="a_edge20_Node000001_Node000021"><a xlink:title=" ">
<path fill="none" stroke="#63b8ff" d="M1770.29,-100.17C2000.78,-95.52 2542.45,-79.91 3005.85,-30.1"/>
<polygon fill="#63b8ff" stroke="#63b8ff" points="3006.53,-33.55 3016.1,-28.99 3005.78,-26.59 3006.53,-33.55"/>
</a>
</g>
</g>
<!-- Node22 -->
<g id="Node000022" class="node">
<title>Node22</title>
<g id="a_Node000022"><a xlink:title=" ">
<polygon fill="#e0e0e0" stroke="#999999" points="3360.5,-30 3186.5,-30 3186.5,0 3360.5,0 3360.5,-30"/>
<text text-anchor="start" x="3194.5" y="-18" font-family="Helvetica,sans-Serif" font-size="10.00">com.example.mybookshelf.data</text>
<text text-anchor="middle" x="3273.5" y="-7" font-family="Helvetica,sans-Serif" font-size="10.00">Class.Goal</text>
</a>
</g>
</g>
<!-- Node1&#45;&gt;Node22 -->
<g id="edge21_Node000001_Node000022" class="edge">
<title>Node1&#45;&gt;Node22</title>
<g id="a_edge21_Node000001_Node000022"><a xlink:title=" ">
<path fill="none" stroke="#63b8ff" d="M1770.27,-100.41C2021.23,-96.07 2644.9,-80.75 3176.25,-30.05"/>
<polygon fill="#63b8ff" stroke="#63b8ff" points="3176.8,-33.52 3186.42,-29.08 3176.14,-26.55 3176.8,-33.52"/>
</a>
</g>
</g>
<!-- Node23 -->
<g id="Node000023" class="node">
<title>Node23</title>
<g id="a_Node000023"><a xlink:title=" ">
<polygon fill="#e0e0e0" stroke="#999999" points="3456,-24.5 3379,-24.5 3379,-5.5 3456,-5.5 3456,-24.5"/>
<text text-anchor="middle" x="3417.5" y="-12.5" font-family="Helvetica,sans-Serif" font-size="10.00">java.util.List</text>
</a>
</g>
</g>
<!-- Node1&#45;&gt;Node23 -->
<g id="edge22_Node000001_Node000023" class="edge">
<title>Node1&#45;&gt;Node23</title>
<g id="a_edge22_Node000001_Node000023"><a xlink:title=" ">
<path fill="none" stroke="#63b8ff" d="M1770.06,-100.81C2099.88,-96.77 3060.18,-80.84 3369.5,-30 3373.74,-29.3 3378.13,-28.35 3382.47,-27.27"/>
<polygon fill="#63b8ff" stroke="#63b8ff" points="3383.63,-30.58 3392.35,-24.57 3381.79,-23.83 3383.63,-30.58"/>
</a>
</g>
</g>
</g>
</svg>
