<?xml version="1.0" encoding="UTF-8" standalone="no"?>
<!DOCTYPE svg PUBLIC "-//W3C//DTD SVG 1.1//EN"
 "http://www.w3.org/Graphics/SVG/1.1/DTD/svg11.dtd">
<!-- Generated by graphviz version 2.43.0 (0)
 -->
<!-- Title: /app/doc_state/github_reposRepoArchDocGenContext/EliasSchaffer/MyBookShelf/src/main/java/com/example/mybookshelf/DataBaseConnection.java Pages: 1 -->
<!--zoomable 137 -->

<svg id="main" version="1.1" xmlns="http://www.w3.org/2000/svg" xmlns:xlink="http://www.w3.org/1999/xlink" xml:space="preserve" onload="init(evt)">

<style type="text/css"><![CDATA[
.node, .edge {opacity: 0.7;}
.node.selected, .edge.selected {opacity: 1;}
.edge:hover path { stroke: red; }
.edge:hover polygon { stroke: red; fill: red; }
]]></style>

<defs>
  <circle id="rim" cx="0" cy="0" r="7"/>
  <circle id="rim2" cx="0" cy="0" r="3.5"/>
  <g id="zoomPlus">
    <use xlink:href="#rim" fill="#404040"><set attributeName="fill" to="#808080" begin="zoomplus.mouseover" end="zoomplus.mouseout"/></use>
    <path d="M-4,0h8M0,-4v8" fill="none" stroke="white" stroke-width="1.5" pointer-events="none"/>
  </g>
  <g id="zoomMin">
    <use xlink:href="#rim" fill="#404040"><set attributeName="fill" to="#808080" begin="zoomminus.mouseover" end="zoomminus.mouseout"/></use>
    <path d="M-4,0h8" fill="none" stroke="white" stroke-width="1.5" pointer-events="none"/>
  </g>
  <g id="arrowUp" transform="translate(30 24)">
    <use xlink:href="#rim"/>
    <path pointer-events="none" fill="none" stroke="white" stroke-width="1.5" d="M0,-3.0v7 M-2.5,-0.5L0,-3.0L2.5,-0.5"/>
  </g>
  <g id="arrowRight" transform="rotate(90) translate(36 -43)">
    <use xlink:href="#rim"/>
    <path pointer-events="none" fill="none" stroke="white" stroke-width="1.5" d="M0,-3.0v7 M-2.5,-0.5L0,-3.0L2.5,-0.5"/>
  </g>
  <g id="arrowDown" transform="rotate(180) translate(-30 -48)">
    <use xlink:href="#rim"/>
    <path pointer-events="none" fill="none" stroke="white" stroke-width="1.5" d="M0,-3.0v7 M-2.5,-0.5L0,-3.0L2.5,-0.5"/>
  </g>
  <g id="arrowLeft" transform="rotate(270) translate(-36 17)">
    <use xlink:href="#rim"/>
    <path pointer-events="none" fill="none" stroke="white" stroke-width="1.5" d="M0,-3.0v7 M-2.5,-0.5L0,-3.0L2.5,-0.5"/>
  </g>
  <g id="resetDef">
    <use xlink:href="#rim2" fill="#404040"><set attributeName="fill" to="#808080" begin="reset.mouseover" end="reset.mouseout"/></use>
  </g>
</defs>
<script type="application/ecmascript">
var viewWidth = 6261;
var viewHeight = 137;
var sectionId = 'dynsection-0';
</script>
<script type="application/ecmascript" xlink:href="svg.min.js"/>
<svg id="graph" class="graph">
<g id="viewport">
<title>/app/doc_state/github_reposRepoArchDocGenContext/EliasSchaffer/MyBookShelf/src/main/java/com/example/mybookshelf/DataBaseConnection.java</title>
<!-- Node1 -->
<g id="Node000001" class="node">
<title>Node1</title>
<g id="a_Node000001"><a xlink:title=" ">
<polygon fill="#999999" stroke="#666666" points="3332.5,-129 3120.5,-129 3120.5,-66 3332.5,-66 3332.5,-129"/>
<text text-anchor="start" x="3128.5" y="-117" font-family="Helvetica,sans-Serif" font-size="10.00">/app/doc_state/github</text>
<text text-anchor="start" x="3128.5" y="-106" font-family="Helvetica,sans-Serif" font-size="10.00">_reposRepoArchDocGenContext</text>
<text text-anchor="start" x="3128.5" y="-95" font-family="Helvetica,sans-Serif" font-size="10.00">/EliasSchaffer/MyBookShelf</text>
<text text-anchor="start" x="3128.5" y="-84" font-family="Helvetica,sans-Serif" font-size="10.00">/src/main/java/com/example</text>
<text text-anchor="middle" x="3226.5" y="-73" font-family="Helvetica,sans-Serif" font-size="10.00">/mybookshelf/DataBaseConnection.java</text>
</a>
</g>
</g>
<!-- Node2 -->
<g id="Node000002" class="node">
<title>Node2</title>
<g id="a_Node000002"><a xlink:title=" ">
<polygon fill="#e0e0e0" stroke="#999999" points="115,-24.5 0,-24.5 0,-5.5 115,-5.5 115,-24.5"/>
<text text-anchor="middle" x="57.5" y="-12.5" font-family="Helvetica,sans-Serif" font-size="10.00">android.app.Activity</text>
</a>
</g>
</g>
<!-- Node1&#45;&gt;Node2 -->
<g id="edge1_Node000001_Node000002" class="edge">
<title>Node1&#45;&gt;Node2</title>
<g id="a_edge1_Node000001_Node000002"><a xlink:title=" ">
<path fill="none" stroke="#63b8ff" d="M3120.12,-96.85C2646.1,-98.03 723.41,-98.4 124.5,-30 117.28,-29.17 109.68,-27.94 102.3,-26.55"/>
<polygon fill="#63b8ff" stroke="#63b8ff" points="102.92,-23.1 92.42,-24.57 101.54,-29.97 102.92,-23.1"/>
</a>
</g>
</g>
<!-- Node3 -->
<g id="Node000003" class="node">
<title>Node3</title>
<g id="a_Node000003"><a xlink:title=" ">
<polygon fill="#e0e0e0" stroke="#999999" points="265.5,-24.5 133.5,-24.5 133.5,-5.5 265.5,-5.5 265.5,-24.5"/>
<text text-anchor="middle" x="199.5" y="-12.5" font-family="Helvetica,sans-Serif" font-size="10.00">android.app.AlertDialog</text>
</a>
</g>
</g>
<!-- Node1&#45;&gt;Node3 -->
<g id="edge2_Node000001_Node000003" class="edge">
<title>Node1&#45;&gt;Node3</title>
<g id="a_edge2_Node000001_Node000003"><a xlink:title=" ">
<path fill="none" stroke="#63b8ff" d="M3120.33,-96.41C2661.06,-95.69 843.02,-89.07 274.5,-30 266.07,-29.12 257.17,-27.81 248.57,-26.34"/>
<polygon fill="#63b8ff" stroke="#63b8ff" points="249.1,-22.88 238.64,-24.54 247.86,-29.77 249.1,-22.88"/>
</a>
</g>
</g>
<!-- Node4 -->
<g id="Node000004" class="node">
<title>Node4</title>
<g id="a_Node000004"><a xlink:title=" ">
<polygon fill="#e0e0e0" stroke="#999999" points="455,-24.5 284,-24.5 284,-5.5 455,-5.5 455,-24.5"/>
<text text-anchor="middle" x="369.5" y="-12.5" font-family="Helvetica,sans-Serif" font-size="10.00">android.content.DialogInterface</text>
</a>
</g>
</g>
<!-- Node1&#45;&gt;Node4 -->
<g id="edge3_Node000001_Node000004" class="edge">
<title>Node1&#45;&gt;Node4</title>
<g id="a_edge3_Node000001_Node000004"><a xlink:title=" ">
<path fill="none" stroke="#63b8ff" d="M3120.24,-95.68C2679.62,-92.01 994.54,-75.27 464.5,-30 453.19,-29.03 441.19,-27.59 429.65,-26"/>
<polygon fill="#63b8ff" stroke="#63b8ff" points="430.05,-22.52 419.66,-24.56 429.06,-29.45 430.05,-22.52"/>
</a>
</g>
</g>
<!-- Node5 -->
<g id="Node000005" class="node">
<title>Node5</title>
<g id="a_Node000005"><a xlink:title=" ">
<polygon fill="#e0e0e0" stroke="#999999" points="565.5,-24.5 473.5,-24.5 473.5,-5.5 565.5,-5.5 565.5,-24.5"/>
<text text-anchor="middle" x="519.5" y="-12.5" font-family="Helvetica,sans-Serif" font-size="10.00">android.util.Log</text>
</a>
</g>
</g>
<!-- Node1&#45;&gt;Node5 -->
<g id="edge4_Node000001_Node000005" class="edge">
<title>Node1&#45;&gt;Node5</title>
<g id="a_edge4_Node000001_Node000005"><a xlink:title=" ">
<path fill="none" stroke="#63b8ff" d="M3120.34,-97.01C2690.59,-98.59 1078.93,-99.62 574.5,-30 569.07,-29.25 563.4,-28.17 557.86,-26.93"/>
<polygon fill="#63b8ff" stroke="#63b8ff" points="558.63,-23.51 548.09,-24.57 556.99,-30.32 558.63,-23.51"/>
</a>
</g>
</g>
<!-- Node6 -->
<g id="Node000006" class="node">
<title>Node6</title>
<g id="a_Node000006"><a xlink:title=" ">
<polygon fill="#e0e0e0" stroke="#999999" points="689.5,-24.5 583.5,-24.5 583.5,-5.5 689.5,-5.5 689.5,-24.5"/>
<text text-anchor="middle" x="636.5" y="-12.5" font-family="Helvetica,sans-Serif" font-size="10.00">android.view.View</text>
</a>
</g>
</g>
<!-- Node1&#45;&gt;Node6 -->
<g id="edge5_Node000001_Node000006" class="edge">
<title>Node1&#45;&gt;Node6</title>
<g id="a_edge5_Node000001_Node000006"><a xlink:title=" ">
<path fill="none" stroke="#63b8ff" d="M3120.44,-96.48C2703.74,-95.95 1178.27,-89.89 698.5,-30 692.1,-29.2 685.4,-28.04 678.86,-26.72"/>
<polygon fill="#63b8ff" stroke="#63b8ff" points="679.3,-23.23 668.79,-24.55 677.83,-30.08 679.3,-23.23"/>
</a>
</g>
</g>
<!-- Node7 -->
<g id="Node000007" class="node">
<title>Node7</title>
<g id="a_Node000007"><a xlink:title=" ">
<polygon fill="#e0e0e0" stroke="#999999" points="881.5,-30 707.5,-30 707.5,0 881.5,0 881.5,-30"/>
<text text-anchor="start" x="715.5" y="-18" font-family="Helvetica,sans-Serif" font-size="10.00">com.example.mybookshelf.data</text>
<text text-anchor="middle" x="794.5" y="-7" font-family="Helvetica,sans-Serif" font-size="10.00">Class.Book</text>
</a>
</g>
</g>
<!-- Node1&#45;&gt;Node7 -->
<g id="edge6_Node000001_Node000007" class="edge">
<title>Node1&#45;&gt;Node7</title>
<g id="a_edge6_Node000001_Node000007"><a xlink:title=" ">
<path fill="none" stroke="#63b8ff" d="M3120.26,-95.12C2726.91,-89.76 1352.8,-68.7 891.63,-30.01"/>
<polygon fill="#63b8ff" stroke="#63b8ff" points="891.83,-26.51 881.57,-29.15 891.24,-33.49 891.83,-26.51"/>
</a>
</g>
</g>
<!-- Node8 -->
<g id="Node000008" class="node">
<title>Node8</title>
<g id="a_Node000008"><a xlink:title=" ">
<polygon fill="#e0e0e0" stroke="#999999" points="1073.5,-30 899.5,-30 899.5,0 1073.5,0 1073.5,-30"/>
<text text-anchor="start" x="907.5" y="-18" font-family="Helvetica,sans-Serif" font-size="10.00">com.example.mybookshelf.data</text>
<text text-anchor="middle" x="986.5" y="-7" font-family="Helvetica,sans-Serif" font-size="10.00">Class.Goal</text>
</a>
</g>
</g>
<!-- Node1&#45;&gt;Node8 -->
<g id="edge7_Node000001_Node000008" class="edge">
<title>Node1&#45;&gt;Node8</title>
<g id="a_edge7_Node000001_Node000008"><a xlink:title=" ">
<path fill="none" stroke="#63b8ff" d="M3120.41,-94.81C2748.66,-88.64 1505.25,-65.85 1083.68,-30.01"/>
<polygon fill="#63b8ff" stroke="#63b8ff" points="1083.83,-26.52 1073.57,-29.14 1083.23,-33.49 1083.83,-26.52"/>
</a>
</g>
</g>
<!-- Node9 -->
<g id="Node000009" class="node">
<title>Node9</title>
<g id="a_Node000009"><a xlink:title=" ">
<polygon fill="#e0e0e0" stroke="#999999" points="1265.5,-30 1091.5,-30 1091.5,0 1265.5,0 1265.5,-30"/>
<text text-anchor="start" x="1099.5" y="-18" font-family="Helvetica,sans-Serif" font-size="10.00">com.example.mybookshelf.data</text>
<text text-anchor="middle" x="1178.5" y="-7" font-family="Helvetica,sans-Serif" font-size="10.00">Class.Notification</text>
</a>
</g>
</g>
<!-- Node1&#45;&gt;Node9 -->
<g id="edge8_Node000001_Node000009" class="edge">
<title>Node1&#45;&gt;Node9</title>
<g id="a_edge8_Node000001_Node000009"><a xlink:title=" ">
<path fill="none" stroke="#63b8ff" d="M3120.45,-97.01C2827.95,-97.52 1985.06,-93.04 1275.74,-30.04"/>
<polygon fill="#63b8ff" stroke="#63b8ff" points="1275.84,-26.53 1265.57,-29.13 1275.22,-33.5 1275.84,-26.53"/>
</a>
</g>
</g>
<!-- Node10 -->
<g id="Node000010" class="node">
<title>Node10</title>
<g id="a_Node000010"><a xlink:title=" ">
<polygon fill="#e0e0e0" stroke="#999999" points="1457.5,-30 1283.5,-30 1283.5,0 1457.5,0 1457.5,-30"/>
<text text-anchor="start" x="1291.5" y="-18" font-family="Helvetica,sans-Serif" font-size="10.00">com.example.mybookshelf.data</text>
<text text-anchor="middle" x="1370.5" y="-7" font-family="Helvetica,sans-Serif" font-size="10.00">Class.User</text>
</a>
</g>
</g>
<!-- Node1&#45;&gt;Node10 -->
<g id="edge9_Node000001_Node000010" class="edge">
<title>Node1&#45;&gt;Node10</title>
<g id="a_edge9_Node000001_Node000010"><a xlink:title=" ">
<path fill="none" stroke="#63b8ff" d="M3120.36,-96.44C2847.59,-95.44 2099.77,-87.32 1467.8,-30.05"/>
<polygon fill="#63b8ff" stroke="#63b8ff" points="1467.85,-26.54 1457.57,-29.11 1467.21,-33.51 1467.85,-26.54"/>
</a>
</g>
</g>
<!-- Node11 -->
<g id="Node000011" class="node">
<title>Node11</title>
<g id="a_Node000011"><a xlink:title=" ">
<polygon fill="#e0e0e0" stroke="#999999" points="1663,-30 1476,-30 1476,0 1663,0 1663,-30"/>
<text text-anchor="start" x="1484" y="-18" font-family="Helvetica,sans-Serif" font-size="10.00">com.github.mikephil.charting.data.</text>
<text text-anchor="middle" x="1569.5" y="-7" font-family="Helvetica,sans-Serif" font-size="10.00">BarEntry</text>
</a>
</g>
</g>
<!-- Node1&#45;&gt;Node11 -->
<g id="edge10_Node000001_Node000011" class="edge">
<title>Node1&#45;&gt;Node11</title>
<g id="a_edge10_Node000001_Node000011"><a xlink:title=" ">
<path fill="none" stroke="#63b8ff" d="M3120.29,-95.33C2869.99,-91.85 2223.44,-78.58 1673.33,-30.01"/>
<polygon fill="#63b8ff" stroke="#63b8ff" points="1673.48,-26.51 1663.21,-29.11 1672.86,-33.48 1673.48,-26.51"/>
</a>
</g>
</g>
<!-- Node12 -->
<g id="Node000012" class="node">
<title>Node12</title>
<g id="a_Node000012"><a xlink:title=" ">
<polygon fill="#e0e0e0" stroke="#999999" points="1751.5,-24.5 1681.5,-24.5 1681.5,-5.5 1751.5,-5.5 1751.5,-24.5"/>
<text text-anchor="middle" x="1716.5" y="-12.5" font-family="Helvetica,sans-Serif" font-size="10.00">java.io.File</text>
</a>
</g>
</g>
<!-- Node1&#45;&gt;Node12 -->
<g id="edge11_Node000001_Node000012" class="edge">
<title>Node1&#45;&gt;Node12</title>
<g id="a_edge11_Node000001_Node000012"><a xlink:title=" ">
<path fill="none" stroke="#63b8ff" d="M3120.3,-95.3C2829.01,-91.42 2021.81,-76.66 1760.5,-30 1756.81,-29.34 1753,-28.46 1749.24,-27.45"/>
<polygon fill="#63b8ff" stroke="#63b8ff" points="1750.09,-24.05 1739.5,-24.57 1748.1,-30.76 1750.09,-24.05"/>
</a>
</g>
</g>
<!-- Node13 -->
<g id="Node000013" class="node">
<title>Node13</title>
<g id="a_Node000013"><a xlink:title=" ">
<polygon fill="#e0e0e0" stroke="#999999" points="1907.5,-24.5 1769.5,-24.5 1769.5,-5.5 1907.5,-5.5 1907.5,-24.5"/>
<text text-anchor="middle" x="1838.5" y="-12.5" font-family="Helvetica,sans-Serif" font-size="10.00">java.io.FileOutputStream</text>
</a>
</g>
</g>
<!-- Node1&#45;&gt;Node13 -->
<g id="edge12_Node000001_Node000013" class="edge">
<title>Node1&#45;&gt;Node13</title>
<g id="a_edge12_Node000001_Node000013"><a xlink:title=" ">
<path fill="none" stroke="#63b8ff" d="M3120.42,-95.67C2897.01,-92.92 2361.91,-81.07 1916.5,-30 1908.05,-29.03 1899.13,-27.71 1890.47,-26.27"/>
<polygon fill="#63b8ff" stroke="#63b8ff" points="1890.91,-22.8 1880.46,-24.54 1889.71,-29.69 1890.91,-22.8"/>
</a>
</g>
</g>
<!-- Node14 -->
<g id="Node000014" class="node">
<title>Node14</title>
<g id="a_Node000014"><a xlink:title=" ">
<polygon fill="#e0e0e0" stroke="#999999" points="2039,-24.5 1926,-24.5 1926,-5.5 2039,-5.5 2039,-24.5"/>
<text text-anchor="middle" x="1982.5" y="-12.5" font-family="Helvetica,sans-Serif" font-size="10.00">java.io.InputStream</text>
</a>
</g>
</g>
<!-- Node1&#45;&gt;Node14 -->
<g id="edge13_Node000001_Node000014" class="edge">
<title>Node1&#45;&gt;Node14</title>
<g id="a_edge13_Node000001_Node000014"><a xlink:title=" ">
<path fill="none" stroke="#63b8ff" d="M3120.29,-96.04C2913.05,-93.92 2440.63,-83.09 2047.5,-30 2041.04,-29.13 2034.28,-27.96 2027.65,-26.67"/>
<polygon fill="#63b8ff" stroke="#63b8ff" points="2027.91,-23.15 2017.41,-24.56 2026.5,-30.01 2027.91,-23.15"/>
</a>
</g>
</g>
<!-- Node15 -->
<g id="Node000015" class="node">
<title>Node15</title>
<g id="a_Node000015"><a xlink:title=" ">
<polygon fill="#e0e0e0" stroke="#999999" points="2178,-24.5 2057,-24.5 2057,-5.5 2178,-5.5 2178,-24.5"/>
<text text-anchor="middle" x="2117.5" y="-12.5" font-family="Helvetica,sans-Serif" font-size="10.00">java.io.OutputStream</text>
</a>
</g>
</g>
<!-- Node1&#45;&gt;Node15 -->
<g id="edge14_Node000001_Node000015" class="edge">
<title>Node1&#45;&gt;Node15</title>
<g id="a_edge14_Node000001_Node000015"><a xlink:title=" ">
<path fill="none" stroke="#63b8ff" d="M3120.48,-94.49C2931.86,-89.85 2525.92,-75.07 2186.5,-30 2179.58,-29.08 2172.31,-27.88 2165.2,-26.56"/>
<polygon fill="#63b8ff" stroke="#63b8ff" points="2165.43,-23.04 2154.94,-24.56 2164.09,-29.91 2165.43,-23.04"/>
</a>
</g>
</g>
<!-- Node16 -->
<g id="Node000016" class="node">
<title>Node16</title>
<g id="a_Node000016"><a xlink:title=" ">
<polygon fill="#e0e0e0" stroke="#999999" points="2321,-24.5 2196,-24.5 2196,-5.5 2321,-5.5 2321,-24.5"/>
<text text-anchor="middle" x="2258.5" y="-12.5" font-family="Helvetica,sans-Serif" font-size="10.00">java.security.KeyStore</text>
</a>
</g>
</g>
<!-- Node1&#45;&gt;Node16 -->
<g id="edge15_Node000001_Node000016" class="edge">
<title>Node1&#45;&gt;Node16</title>
<g id="a_edge15_Node000001_Node000016"><a xlink:title=" ">
<path fill="none" stroke="#63b8ff" d="M3120.22,-92.67C2952.01,-85.7 2614.39,-68 2330.5,-30 2323.21,-29.02 2315.55,-27.78 2308.05,-26.43"/>
<polygon fill="#63b8ff" stroke="#63b8ff" points="2308.45,-22.94 2297.97,-24.55 2307.16,-29.82 2308.45,-22.94"/>
</a>
</g>
</g>
<!-- Node17 -->
<g id="Node000017" class="node">
<title>Node17</title>
<g id="a_Node000017"><a xlink:title=" ">
<polygon fill="#e0e0e0" stroke="#999999" points="2495.5,-24.5 2339.5,-24.5 2339.5,-5.5 2495.5,-5.5 2495.5,-24.5"/>
<text text-anchor="middle" x="2417.5" y="-12.5" font-family="Helvetica,sans-Serif" font-size="10.00">java.security.MessageDigest</text>
</a>
</g>
</g>
<!-- Node1&#45;&gt;Node17 -->
<g id="edge16_Node000001_Node000017" class="edge">
<title>Node1&#45;&gt;Node17</title>
<g id="a_edge16_Node000001_Node000017"><a xlink:title=" ">
<path fill="none" stroke="#63b8ff" d="M3120.43,-88.99C2979.46,-78.49 2722.74,-57.58 2504.5,-30 2495.47,-28.86 2485.94,-27.49 2476.63,-26.07"/>
<polygon fill="#63b8ff" stroke="#63b8ff" points="2477.07,-22.59 2466.65,-24.5 2475.99,-29.51 2477.07,-22.59"/>
</a>
</g>
</g>
<!-- Node18 -->
<g id="Node000018" class="node">
<title>Node18</title>
<g id="a_Node000018"><a xlink:title=" ">
<polygon fill="#e0e0e0" stroke="#999999" points="2679.5,-30 2513.5,-30 2513.5,0 2679.5,0 2679.5,-30"/>
<text text-anchor="start" x="2521.5" y="-18" font-family="Helvetica,sans-Serif" font-size="10.00">java.security.NoSuchAlgorithm</text>
<text text-anchor="middle" x="2596.5" y="-7" font-family="Helvetica,sans-Serif" font-size="10.00">Exception</text>
</a>
</g>
</g>
<!-- Node1&#45;&gt;Node18 -->
<g id="edge17_Node000001_Node000018" class="edge">
<title>Node1&#45;&gt;Node18</title>
<g id="a_edge17_Node000001_Node000018"><a xlink:title=" ">
<path fill="none" stroke="#63b8ff" d="M3120.48,-84.28C3014.22,-71.84 2845.68,-51.54 2689.97,-30.18"/>
<polygon fill="#63b8ff" stroke="#63b8ff" points="2690.11,-26.67 2679.73,-28.77 2689.16,-33.6 2690.11,-26.67"/>
</a>
</g>
</g>
<!-- Node19 -->
<g id="Node000019" class="node">
<title>Node19</title>
<g id="a_Node000019"><a xlink:title=" ">
<polygon fill="#e0e0e0" stroke="#999999" points="2811,-24.5 2698,-24.5 2698,-5.5 2811,-5.5 2811,-24.5"/>
<text text-anchor="middle" x="2754.5" y="-12.5" font-family="Helvetica,sans-Serif" font-size="10.00">java.sql.Connection</text>
</a>
</g>
</g>
<!-- Node1&#45;&gt;Node19 -->
<g id="edge18_Node000001_Node000019" class="edge">
<title>Node1&#45;&gt;Node19</title>
<g id="a_edge18_Node000001_Node000019"><a xlink:title=" ">
<path fill="none" stroke="#63b8ff" d="M3120.41,-80.66C3038.13,-68.01 2921.33,-49.27 2819.5,-30 2814.04,-28.97 2808.34,-27.83 2802.68,-26.66"/>
<polygon fill="#63b8ff" stroke="#63b8ff" points="2803.09,-23.17 2792.59,-24.54 2801.65,-30.02 2803.09,-23.17"/>
</a>
</g>
</g>
<!-- Node20 -->
<g id="Node000020" class="node">
<title>Node20</title>
<g id="a_Node000020"><a xlink:title=" ">
<polygon fill="#e0e0e0" stroke="#999999" points="2910,-24.5 2829,-24.5 2829,-5.5 2910,-5.5 2910,-24.5"/>
<text text-anchor="middle" x="2869.5" y="-12.5" font-family="Helvetica,sans-Serif" font-size="10.00">java.sql.Date</text>
</a>
</g>
</g>
<!-- Node1&#45;&gt;Node20 -->
<g id="edge19_Node000001_Node000020" class="edge">
<title>Node1&#45;&gt;Node20</title>
<g id="a_edge19_Node000001_Node000020"><a xlink:title=" ">
<path fill="none" stroke="#63b8ff" d="M3120.26,-75.36C3060.72,-63.06 2985.23,-46.72 2918.5,-30 2915.09,-29.15 2911.56,-28.22 2908.03,-27.27"/>
<polygon fill="#63b8ff" stroke="#63b8ff" points="2908.75,-23.83 2898.18,-24.53 2906.88,-30.58 2908.75,-23.83"/>
</a>
</g>
</g>
<!-- Node21 -->
<g id="Node000021" class="node">
<title>Node21</title>
<g id="a_Node000021"><a xlink:title=" ">
<polygon fill="#e0e0e0" stroke="#999999" points="3059,-24.5 2928,-24.5 2928,-5.5 3059,-5.5 3059,-24.5"/>
<text text-anchor="middle" x="2993.5" y="-12.5" font-family="Helvetica,sans-Serif" font-size="10.00">java.sql.DriverManager</text>
</a>
</g>
</g>
<!-- Node1&#45;&gt;Node21 -->
<g id="edge20_Node000001_Node000021" class="edge">
<title>Node1&#45;&gt;Node21</title>
<g id="a_edge20_Node000001_Node000021"><a xlink:title=" ">
<path fill="none" stroke="#63b8ff" d="M3138.08,-65.95C3099.62,-52.66 3056.81,-37.87 3027.83,-27.86"/>
<polygon fill="#63b8ff" stroke="#63b8ff" points="3028.78,-24.49 3018.18,-24.53 3026.49,-31.1 3028.78,-24.49"/>
</a>
</g>
</g>
<!-- Node22 -->
<g id="Node000022" class="node">
<title>Node22</title>
<g id="a_Node000022"><a xlink:title=" ">
<polygon fill="#e0e0e0" stroke="#999999" points="3229.5,-24.5 3077.5,-24.5 3077.5,-5.5 3229.5,-5.5 3229.5,-24.5"/>
<text text-anchor="middle" x="3153.5" y="-12.5" font-family="Helvetica,sans-Serif" font-size="10.00">java.sql.PreparedStatement</text>
</a>
</g>
</g>
<!-- Node1&#45;&gt;Node22 -->
<g id="edge21_Node000001_Node000022" class="edge">
<title>Node1&#45;&gt;Node22</title>
<g id="a_edge21_Node000001_Node000022"><a xlink:title=" ">
<path fill="none" stroke="#63b8ff" d="M3198.49,-65.61C3188.16,-54.22 3176.88,-41.78 3168.19,-32.2"/>
<polygon fill="#63b8ff" stroke="#63b8ff" points="3170.63,-29.68 3161.32,-24.62 3165.45,-34.38 3170.63,-29.68"/>
</a>
</g>
</g>
<!-- Node23 -->
<g id="Node000023" class="node">
<title>Node23</title>
<g id="a_Node000023"><a xlink:title=" ">
<polygon fill="#e0e0e0" stroke="#999999" points="3351.5,-24.5 3247.5,-24.5 3247.5,-5.5 3351.5,-5.5 3351.5,-24.5"/>
<text text-anchor="middle" x="3299.5" y="-12.5" font-family="Helvetica,sans-Serif" font-size="10.00">java.sql.ResultSet</text>
</a>
</g>
</g>
<!-- Node1&#45;&gt;Node23 -->
<g id="edge22_Node000001_Node000023" class="edge">
<title>Node1&#45;&gt;Node23</title>
<g id="a_edge22_Node000001_Node000023"><a xlink:title=" ">
<path fill="none" stroke="#63b8ff" d="M3254.51,-65.61C3264.84,-54.22 3276.12,-41.78 3284.81,-32.2"/>
<polygon fill="#63b8ff" stroke="#63b8ff" points="3287.55,-34.38 3291.68,-24.62 3282.37,-29.68 3287.55,-34.38"/>
</a>
</g>
</g>
<!-- Node24 -->
<g id="Node000024" class="node">
<title>Node24</title>
<g id="a_Node000024"><a xlink:title=" ">
<polygon fill="#e0e0e0" stroke="#999999" points="3495,-24.5 3370,-24.5 3370,-5.5 3495,-5.5 3495,-24.5"/>
<text text-anchor="middle" x="3432.5" y="-12.5" font-family="Helvetica,sans-Serif" font-size="10.00">java.sql.SQLException</text>
</a>
</g>
</g>
<!-- Node1&#45;&gt;Node24 -->
<g id="edge23_Node000001_Node000024" class="edge">
<title>Node1&#45;&gt;Node24</title>
<g id="a_edge23_Node000001_Node000024"><a xlink:title=" ">
<path fill="none" stroke="#63b8ff" d="M3304.67,-65.95C3338.23,-52.84 3375.53,-38.26 3401.14,-28.26"/>
<polygon fill="#63b8ff" stroke="#63b8ff" points="3402.64,-31.43 3410.68,-24.53 3400.09,-24.91 3402.64,-31.43"/>
</a>
</g>
</g>
<!-- Node25 -->
<g id="Node000025" class="node">
<title>Node25</title>
<g id="a_Node000025"><a xlink:title=" ">
<polygon fill="#e0e0e0" stroke="#999999" points="3677.5,-24.5 3513.5,-24.5 3513.5,-5.5 3677.5,-5.5 3677.5,-24.5"/>
<text text-anchor="middle" x="3595.5" y="-12.5" font-family="Helvetica,sans-Serif" font-size="10.00">java.sql.SQLTimeoutException</text>
</a>
</g>
</g>
<!-- Node1&#45;&gt;Node25 -->
<g id="edge24_Node000001_Node000025" class="edge">
<title>Node1&#45;&gt;Node25</title>
<g id="a_edge24_Node000001_Node000025"><a xlink:title=" ">
<path fill="none" stroke="#63b8ff" d="M3332.74,-73.32C3403.14,-57.96 3492.21,-38.53 3546.47,-26.7"/>
<polygon fill="#63b8ff" stroke="#63b8ff" points="3547.49,-30.06 3556.51,-24.51 3546,-23.22 3547.49,-30.06"/>
</a>
</g>
</g>
<!-- Node26 -->
<g id="Node000026" class="node">
<title>Node26</title>
<g id="a_Node000026"><a xlink:title=" ">
<polygon fill="#e0e0e0" stroke="#999999" points="3805,-24.5 3696,-24.5 3696,-5.5 3805,-5.5 3805,-24.5"/>
<text text-anchor="middle" x="3750.5" y="-12.5" font-family="Helvetica,sans-Serif" font-size="10.00">java.sql.Statement</text>
</a>
</g>
</g>
<!-- Node1&#45;&gt;Node26 -->
<g id="edge25_Node000001_Node000026" class="edge">
<title>Node1&#45;&gt;Node26</title>
<g id="a_edge25_Node000001_Node000026"><a xlink:title=" ">
<path fill="none" stroke="#63b8ff" d="M3332.82,-83.33C3426.28,-71.23 3565.82,-51.89 3686.5,-30 3692.03,-29 3697.8,-27.86 3703.52,-26.68"/>
<polygon fill="#63b8ff" stroke="#63b8ff" points="3704.64,-30.02 3713.7,-24.52 3703.19,-23.17 3704.64,-30.02"/>
</a>
</g>
</g>
<!-- Node27 -->
<g id="Node000027" class="node">
<title>Node27</title>
<g id="a_Node000027"><a xlink:title=" ">
<polygon fill="#e0e0e0" stroke="#999999" points="3906,-24.5 3823,-24.5 3823,-5.5 3906,-5.5 3906,-24.5"/>
<text text-anchor="middle" x="3864.5" y="-12.5" font-family="Helvetica,sans-Serif" font-size="10.00">java.sql.Time</text>
</a>
</g>
</g>
<!-- Node1&#45;&gt;Node27 -->
<g id="edge26_Node000001_Node000027" class="edge">
<title>Node1&#45;&gt;Node27</title>
<g id="a_edge26_Node000001_Node000027"><a xlink:title=" ">
<path fill="none" stroke="#63b8ff" d="M3332.7,-89.64C3451.06,-80.8 3647.75,-62.56 3814.5,-30 3818.68,-29.18 3823.02,-28.19 3827.32,-27.12"/>
<polygon fill="#63b8ff" stroke="#63b8ff" points="3828.41,-30.45 3837.18,-24.5 3826.62,-23.68 3828.41,-30.45"/>
</a>
</g>
</g>
<!-- Node28 -->
<g id="Node000028" class="node">
<title>Node28</title>
<g id="a_Node000028"><a xlink:title=" ">
<polygon fill="#e0e0e0" stroke="#999999" points="4039,-24.5 3924,-24.5 3924,-5.5 4039,-5.5 4039,-24.5"/>
<text text-anchor="middle" x="3981.5" y="-12.5" font-family="Helvetica,sans-Serif" font-size="10.00">java.time.LocalDate</text>
</a>
</g>
</g>
<!-- Node1&#45;&gt;Node28 -->
<g id="edge27_Node000001_Node000028" class="edge">
<title>Node1&#45;&gt;Node28</title>
<g id="a_edge27_Node000001_Node000028"><a xlink:title=" ">
<path fill="none" stroke="#63b8ff" d="M3332.6,-89.99C3468.3,-80.81 3710.31,-61.56 3915.5,-30 3921.81,-29.03 3928.42,-27.84 3934.92,-26.56"/>
<polygon fill="#63b8ff" stroke="#63b8ff" points="3935.88,-29.94 3944.98,-24.51 3934.48,-23.08 3935.88,-29.94"/>
</a>
</g>
</g>
<!-- Node29 -->
<g id="Node000029" class="node">
<title>Node29</title>
<g id="a_Node000029"><a xlink:title=" ">
<polygon fill="#e0e0e0" stroke="#999999" points="4197.5,-24.5 4057.5,-24.5 4057.5,-5.5 4197.5,-5.5 4197.5,-24.5"/>
<text text-anchor="middle" x="4127.5" y="-12.5" font-family="Helvetica,sans-Serif" font-size="10.00">java.time.LocalDateTime</text>
</a>
</g>
</g>
<!-- Node1&#45;&gt;Node29 -->
<g id="edge28_Node000001_Node000029" class="edge">
<title>Node1&#45;&gt;Node29</title>
<g id="a_edge28_Node000001_Node000029"><a xlink:title=" ">
<path fill="none" stroke="#63b8ff" d="M3332.59,-91.14C3489.51,-82.47 3792.54,-62.96 4048.5,-30 4056.65,-28.95 4065.24,-27.64 4073.64,-26.25"/>
<polygon fill="#63b8ff" stroke="#63b8ff" points="4074.47,-29.65 4083.74,-24.52 4073.29,-22.76 4074.47,-29.65"/>
</a>
</g>
</g>
<!-- Node30 -->
<g id="Node000030" class="node">
<title>Node30</title>
<g id="a_Node000030"><a xlink:title=" ">
<polygon fill="#e0e0e0" stroke="#999999" points="4331.5,-24.5 4215.5,-24.5 4215.5,-5.5 4331.5,-5.5 4331.5,-24.5"/>
<text text-anchor="middle" x="4273.5" y="-12.5" font-family="Helvetica,sans-Serif" font-size="10.00">java.time.LocalTime</text>
</a>
</g>
</g>
<!-- Node1&#45;&gt;Node30 -->
<g id="edge29_Node000001_Node000030" class="edge">
<title>Node1&#45;&gt;Node30</title>
<g id="a_edge29_Node000001_Node000030"><a xlink:title=" ">
<path fill="none" stroke="#63b8ff" d="M3332.85,-94.09C3513.29,-88.94 3890.59,-73.51 4206.5,-30 4213.22,-29.07 4220.28,-27.86 4227.19,-26.54"/>
<polygon fill="#63b8ff" stroke="#63b8ff" points="4228.03,-29.95 4237.15,-24.55 4226.66,-23.08 4228.03,-29.95"/>
</a>
</g>
</g>
<!-- Node31 -->
<g id="Node000031" class="node">
<title>Node31</title>
<g id="a_Node000031"><a xlink:title=" ">
<polygon fill="#e0e0e0" stroke="#999999" points="4449.5,-24.5 4349.5,-24.5 4349.5,-5.5 4449.5,-5.5 4449.5,-24.5"/>
<text text-anchor="middle" x="4399.5" y="-12.5" font-family="Helvetica,sans-Serif" font-size="10.00">java.time.ZoneId</text>
</a>
</g>
</g>
<!-- Node1&#45;&gt;Node31 -->
<g id="edge30_Node000001_Node000031" class="edge">
<title>Node1&#45;&gt;Node31</title>
<g id="a_edge30_Node000001_Node000031"><a xlink:title=" ">
<path fill="none" stroke="#63b8ff" d="M3332.72,-96.27C3531.59,-94.48 3973.2,-84.12 4340.5,-30 4346.3,-29.14 4352.38,-28 4358.33,-26.73"/>
<polygon fill="#63b8ff" stroke="#63b8ff" points="4359.18,-30.12 4368.16,-24.5 4357.63,-23.3 4359.18,-30.12"/>
</a>
</g>
</g>
<!-- Node32 -->
<g id="Node000032" class="node">
<title>Node32</title>
<g id="a_Node000032"><a xlink:title=" ">
<polygon fill="#e0e0e0" stroke="#999999" points="4571,-24.5 4468,-24.5 4468,-5.5 4571,-5.5 4571,-24.5"/>
<text text-anchor="middle" x="4519.5" y="-12.5" font-family="Helvetica,sans-Serif" font-size="10.00">java.util.ArrayList</text>
</a>
</g>
</g>
<!-- Node1&#45;&gt;Node32 -->
<g id="edge31_Node000001_Node000032" class="edge">
<title>Node1&#45;&gt;Node32</title>
<g id="a_edge31_Node000001_Node000032"><a xlink:title=" ">
<path fill="none" stroke="#63b8ff" d="M3332.56,-96.88C3546.56,-96.31 4044.88,-88.19 4458.5,-30 4464.5,-29.16 4470.77,-28.02 4476.92,-26.75"/>
<polygon fill="#63b8ff" stroke="#63b8ff" points="4478.06,-30.08 4487.09,-24.53 4476.57,-23.24 4478.06,-30.08"/>
</a>
</g>
</g>
<!-- Node33 -->
<g id="Node000033" class="node">
<title>Node33</title>
<g id="a_Node000033"><a xlink:title=" ">
<polygon fill="#e0e0e0" stroke="#999999" points="4702,-24.5 4589,-24.5 4589,-5.5 4702,-5.5 4702,-24.5"/>
<text text-anchor="middle" x="4645.5" y="-12.5" font-family="Helvetica,sans-Serif" font-size="10.00">java.util.Collections</text>
</a>
</g>
</g>
<!-- Node1&#45;&gt;Node33 -->
<g id="edge32_Node000001_Node000033" class="edge">
<title>Node1&#45;&gt;Node33</title>
<g id="a_edge32_Node000001_Node000033"><a xlink:title=" ">
<path fill="none" stroke="#63b8ff" d="M3332.8,-97.15C3561.88,-97.27 4118.76,-90.65 4580.5,-30 4587.19,-29.12 4594.21,-27.91 4601.07,-26.57"/>
<polygon fill="#63b8ff" stroke="#63b8ff" points="4601.85,-29.99 4610.94,-24.54 4600.44,-23.13 4601.85,-29.99"/>
</a>
</g>
</g>
<!-- Node34 -->
<g id="Node000034" class="node">
<title>Node34</title>
<g id="a_Node000034"><a xlink:title=" ">
<polygon fill="#e0e0e0" stroke="#999999" points="4797,-24.5 4720,-24.5 4720,-5.5 4797,-5.5 4797,-24.5"/>
<text text-anchor="middle" x="4758.5" y="-12.5" font-family="Helvetica,sans-Serif" font-size="10.00">java.util.List</text>
</a>
</g>
</g>
<!-- Node1&#45;&gt;Node34 -->
<g id="edge33_Node000001_Node000034" class="edge">
<title>Node1&#45;&gt;Node34</title>
<g id="a_edge33_Node000001_Node000034"><a xlink:title=" ">
<path fill="none" stroke="#63b8ff" d="M3332.71,-95.12C3626.53,-90.75 4445.97,-74.8 4711.5,-30 4715.66,-29.3 4719.96,-28.35 4724.2,-27.26"/>
<polygon fill="#63b8ff" stroke="#63b8ff" points="4725.2,-30.62 4733.89,-24.56 4723.32,-23.88 4725.2,-30.62"/>
</a>
</g>
</g>
<!-- Node35 -->
<g id="Node000035" class="node">
<title>Node35</title>
<g id="a_Node000035"><a xlink:title=" ">
<polygon fill="#e0e0e0" stroke="#999999" points="4900,-24.5 4815,-24.5 4815,-5.5 4900,-5.5 4900,-24.5"/>
<text text-anchor="middle" x="4857.5" y="-12.5" font-family="Helvetica,sans-Serif" font-size="10.00">java.util.UUID</text>
</a>
</g>
</g>
<!-- Node1&#45;&gt;Node35 -->
<g id="edge34_Node000001_Node000035" class="edge">
<title>Node1&#45;&gt;Node35</title>
<g id="a_edge34_Node000001_Node000035"><a xlink:title=" ">
<path fill="none" stroke="#63b8ff" d="M3332.53,-95.16C3638.84,-90.78 4521.34,-74.55 4806.5,-30 4811.24,-29.26 4816.17,-28.24 4821.01,-27.08"/>
<polygon fill="#63b8ff" stroke="#63b8ff" points="4821.95,-30.46 4830.75,-24.56 4820.19,-23.68 4821.95,-30.46"/>
</a>
</g>
</g>
<!-- Node36 -->
<g id="Node000036" class="node">
<title>Node36</title>
<g id="a_Node000036"><a xlink:title=" ">
<polygon fill="#e0e0e0" stroke="#999999" points="5061,-30 4918,-30 4918,0 5061,0 5061,-30"/>
<text text-anchor="start" x="4926" y="-18" font-family="Helvetica,sans-Serif" font-size="10.00">java.util.concurrent.Count</text>
<text text-anchor="middle" x="4989.5" y="-7" font-family="Helvetica,sans-Serif" font-size="10.00">DownLatch</text>
</a>
</g>
</g>
<!-- Node1&#45;&gt;Node36 -->
<g id="edge35_Node000001_Node000036" class="edge">
<title>Node1&#45;&gt;Node36</title>
<g id="a_edge35_Node000001_Node000036"><a xlink:title=" ">
<path fill="none" stroke="#63b8ff" d="M3332.7,-97.22C3597.44,-97.96 4307.94,-93.42 4907.46,-30.13"/>
<polygon fill="#63b8ff" stroke="#63b8ff" points="4908.03,-33.59 4917.61,-29.05 4907.29,-26.62 4908.03,-33.59"/>
</a>
</g>
</g>
<!-- Node37 -->
<g id="Node000037" class="node">
<title>Node37</title>
<g id="a_Node000037"><a xlink:title=" ">
<polygon fill="#e0e0e0" stroke="#999999" points="5235.5,-30 5079.5,-30 5079.5,0 5235.5,0 5235.5,-30"/>
<text text-anchor="start" x="5087.5" y="-18" font-family="Helvetica,sans-Serif" font-size="10.00">java.util.concurrent.Executor</text>
<text text-anchor="middle" x="5157.5" y="-7" font-family="Helvetica,sans-Serif" font-size="10.00">Service</text>
</a>
</g>
</g>
<!-- Node1&#45;&gt;Node37 -->
<g id="edge36_Node000001_Node000037" class="edge">
<title>Node1&#45;&gt;Node37</title>
<g id="a_edge36_Node000001_Node000037"><a xlink:title=" ">
<path fill="none" stroke="#63b8ff" d="M3332.57,-97.25C3614.13,-98.25 4403.79,-94.65 5069.03,-30.05"/>
<polygon fill="#63b8ff" stroke="#63b8ff" points="5069.69,-33.51 5079.3,-29.05 5069.01,-26.54 5069.69,-33.51"/>
</a>
</g>
</g>
<!-- Node38 -->
<g id="Node000038" class="node">
<title>Node38</title>
<g id="a_Node000038"><a xlink:title=" ">
<polygon fill="#e0e0e0" stroke="#999999" points="5415,-24.5 5254,-24.5 5254,-5.5 5415,-5.5 5415,-24.5"/>
<text text-anchor="middle" x="5334.5" y="-12.5" font-family="Helvetica,sans-Serif" font-size="10.00">java.util.concurrent.Executors</text>
</a>
</g>
</g>
<!-- Node1&#45;&gt;Node38 -->
<g id="edge37_Node000001_Node000038" class="edge">
<title>Node1&#45;&gt;Node38</title>
<g id="a_edge37_Node000001_Node000038"><a xlink:title=" ">
<path fill="none" stroke="#63b8ff" d="M3332.55,-94.71C3692.79,-88.35 4868.01,-65.35 5244.5,-30 5254.88,-29.03 5265.88,-27.62 5276.5,-26.08"/>
<polygon fill="#63b8ff" stroke="#63b8ff" points="5277.16,-29.52 5286.53,-24.57 5276.12,-22.6 5277.16,-29.52"/>
</a>
</g>
</g>
<!-- Node39 -->
<g id="Node000039" class="node">
<title>Node39</title>
<g id="a_Node000039"><a xlink:title=" ">
<polygon fill="#e0e0e0" stroke="#999999" points="5578,-24.5 5433,-24.5 5433,-5.5 5578,-5.5 5578,-24.5"/>
<text text-anchor="middle" x="5505.5" y="-12.5" font-family="Helvetica,sans-Serif" font-size="10.00">java.util.concurrent.Future</text>
</a>
</g>
</g>
<!-- Node1&#45;&gt;Node39 -->
<g id="edge38_Node000001_Node000039" class="edge">
<title>Node1&#45;&gt;Node39</title>
<g id="a_edge38_Node000001_Node000039"><a xlink:title=" ">
<path fill="none" stroke="#63b8ff" d="M3332.66,-95.27C3713.66,-90.56 5011.43,-71.74 5424.5,-30 5433.68,-29.07 5443.38,-27.72 5452.76,-26.22"/>
<polygon fill="#63b8ff" stroke="#63b8ff" points="5453.49,-29.65 5462.78,-24.54 5452.34,-22.74 5453.49,-29.65"/>
</a>
</g>
</g>
<!-- Node40 -->
<g id="Node000040" class="node">
<title>Node40</title>
<g id="a_Node000040"><a xlink:title=" ">
<polygon fill="#e0e0e0" stroke="#999999" points="5755,-24.5 5596,-24.5 5596,-5.5 5755,-5.5 5755,-24.5"/>
<text text-anchor="middle" x="5675.5" y="-12.5" font-family="Helvetica,sans-Serif" font-size="10.00">java.util.concurrent.TimeUnit</text>
</a>
</g>
</g>
<!-- Node1&#45;&gt;Node40 -->
<g id="edge39_Node000001_Node000040" class="edge">
<title>Node1&#45;&gt;Node40</title>
<g id="a_edge39_Node000001_Node000040"><a xlink:title=" ">
<path fill="none" stroke="#63b8ff" d="M3332.53,-95.34C3731.23,-90.7 5140.55,-71.67 5587.5,-30 5597.77,-29.04 5608.66,-27.63 5619.16,-26.07"/>
<polygon fill="#63b8ff" stroke="#63b8ff" points="5619.71,-29.53 5629.06,-24.54 5618.64,-22.61 5619.71,-29.53"/>
</a>
</g>
</g>
<!-- Node41 -->
<g id="Node000041" class="node">
<title>Node41</title>
<g id="a_Node000041"><a xlink:title=" ">
<polygon fill="#e0e0e0" stroke="#999999" points="5924,-30 5773,-30 5773,0 5924,0 5924,-30"/>
<text text-anchor="start" x="5781" y="-18" font-family="Helvetica,sans-Serif" font-size="10.00">java.util.concurrent.atomic.</text>
<text text-anchor="middle" x="5848.5" y="-7" font-family="Helvetica,sans-Serif" font-size="10.00">AtomicLong</text>
</a>
</g>
</g>
<!-- Node1&#45;&gt;Node41 -->
<g id="edge40_Node000001_Node000041" class="edge">
<title>Node1&#45;&gt;Node41</title>
<g id="a_edge40_Node000001_Node000041"><a xlink:title=" ">
<path fill="none" stroke="#63b8ff" d="M3332.54,-95.69C3747.19,-92.21 5260.3,-76.6 5762.33,-30.11"/>
<polygon fill="#63b8ff" stroke="#63b8ff" points="5762.93,-33.57 5772.56,-29.14 5762.27,-26.6 5762.93,-33.57"/>
</a>
</g>
</g>
<!-- Node42 -->
<g id="Node000042" class="node">
<title>Node42</title>
<g id="a_Node000042"><a xlink:title=" ">
<polygon fill="#e0e0e0" stroke="#999999" points="6094.5,-24.5 5942.5,-24.5 5942.5,-5.5 6094.5,-5.5 6094.5,-24.5"/>
<text text-anchor="middle" x="6018.5" y="-12.5" font-family="Helvetica,sans-Serif" font-size="10.00">java.util.function.Consumer</text>
</a>
</g>
</g>
<!-- Node1&#45;&gt;Node42 -->
<g id="edge41_Node000001_Node000042" class="edge">
<title>Node1&#45;&gt;Node42</title>
<g id="a_edge41_Node000001_Node000042"><a xlink:title=" ">
<path fill="none" stroke="#63b8ff" d="M3332.87,-95.86C3768.18,-92.93 5415.3,-78.8 5933.5,-30 5943.44,-29.06 5953.97,-27.66 5964.12,-26.11"/>
<polygon fill="#63b8ff" stroke="#63b8ff" points="5964.78,-29.55 5974.1,-24.51 5963.67,-22.63 5964.78,-29.55"/>
</a>
</g>
</g>
<!-- Node43 -->
<g id="Node000043" class="node">
<title>Node43</title>
<g id="a_Node000043"><a xlink:title=" ">
<polygon fill="#e0e0e0" stroke="#999999" points="6252.5,-30 6112.5,-30 6112.5,0 6252.5,0 6252.5,-30"/>
<text text-anchor="start" x="6120.5" y="-18" font-family="Helvetica,sans-Serif" font-size="10.00">at.favre.lib.crypto.bcrypt.</text>
<text text-anchor="middle" x="6182.5" y="-7" font-family="Helvetica,sans-Serif" font-size="10.00">BCrypt</text>
</a>
</g>
</g>
<!-- Node1&#45;&gt;Node43 -->
<g id="edge42_Node000001_Node000043" class="edge">
<title>Node1&#45;&gt;Node43</title>
<g id="a_edge42_Node000001_Node000043"><a xlink:title=" ">
<path fill="none" stroke="#63b8ff" d="M3332.61,-96.21C3781.81,-94.66 5529.61,-85.2 6102.36,-29.98"/>
<polygon fill="#63b8ff" stroke="#63b8ff" points="6102.76,-33.46 6112.37,-29 6102.07,-26.49 6102.76,-33.46"/>
</a>
</g>
</g>
</g>
</svg>

<g id="navigator" transform="translate(0 0)" fill="#404254">
  <rect fill="#f2f5e9" fill-opacity="0.5" stroke="#606060" stroke-width=".5" x="0" y="0" width="60" height="60"/>
  <use id="zoomplus" xlink:href="#zoomPlus" x="17" y="9" onmousedown="handleZoom(evt,'in')"/>
  <use id="zoomminus" xlink:href="#zoomMin" x="42" y="9" onmousedown="handleZoom(evt,'out')"/>
  <use id="reset" xlink:href="#resetDef" x="30" y="36" onmousedown="handleReset()"/>
   <use id="arrowup" xlink:href="#arrowUp" x="0" y="0" onmousedown="handlePan(0,-1)"/>
  <use id="arrowright" xlink:href="#arrowRight" x="0" y="0" onmousedown="handlePan(1,0)"/>
  <use id="arrowdown" xlink:href="#arrowDown" x="0" y="0" onmousedown="handlePan(0,1)"/>
  <use id="arrowleft" xlink:href="#arrowLeft" x="0" y="0" onmousedown="handlePan(-1,0)"/>
</g>
<svg viewBox="0 0 15 15" width="100%" height="30px" preserveAspectRatio="xMaxYMin meet">
 <g id="arrow_out" transform="scale(0.3 0.3)">
  <a xlink:href="DataBaseConnection_8java__incl_org.svg" target="_base">
   <rect id="button" ry="5" rx="5" y="6" x="6" height="38" width="38"
        fill="#f2f5e9" fill-opacity="0.5" stroke="#606060" stroke-width="1.0"/>
   <path id="arrow"
     d="M 11.500037,31.436501 C 11.940474,20.09759 22.043105,11.32322 32.158766,21.979434 L 37.068811,17.246167 C 37.068811,17.246167 37.088388,32 37.088388,32 L 22.160133,31.978069 C 22.160133,31.978069 26.997745,27.140456 26.997745,27.140456 C 18.528582,18.264221 13.291696,25.230495 11.500037,31.436501 z"
     style="fill:#404040;"/>
  </a>
 </g>
</svg>

<style type='text/css'>
<![CDATA[
[data-mouse-over-selected='false'] { opacity: 0.7; }
[data-mouse-over-selected='true']  { opacity: 1.0; }
]]>
</style>
<script type="application/ecmascript"><![CDATA[
document.addEventListener('DOMContentLoaded', (event) => {
  highlightEdges();
  highlightAdjacentNodes();
});
]]></script>
</svg>
