<?xml version="1.0" encoding="UTF-8" standalone="no"?>
<!DOCTYPE svg PUBLIC "-//W3C//DTD SVG 1.1//EN"
 "http://www.w3.org/Graphics/SVG/1.1/DTD/svg11.dtd">
<!-- Generated by graphviz version 2.43.0 (0)
 -->
<!-- Title: Graphical Class Hierarchy Pages: 1 -->
<svg width="367pt" height="86pt"
 viewBox="0.00 0.00 367.00 86.00" xmlns="http://www.w3.org/2000/svg" xmlns:xlink="http://www.w3.org/1999/xlink">
<g id="graph0" class="graph" transform="scale(1 1) rotate(0) translate(4 82)">
<title>Graphical Class Hierarchy</title>
<!-- Node0 -->
<g id="Node000000" class="node">
<title>Node0</title>
<g id="a_Node000000"><a xlink:href="classBroadcastReceiver.html" target="_top" xlink:title=" ">
<polygon fill="white" stroke="#666666" points="108,-48.5 0,-48.5 0,-29.5 108,-29.5 108,-48.5"/>
<text text-anchor="middle" x="54" y="-36.5" font-family="Helvetica,sans-Serif" font-size="10.00">BroadcastReceiver</text>
</a>
</g>
</g>
<!-- Node1 -->
<g id="Node000001" class="node">
<title>Node1</title>
<g id="a_Node000001"><a xlink:href="classcom_1_1example_1_1mybookshelf_1_1notifications_1_1BootCompletedReceiver.html" target="_top" xlink:title=" ">
<polygon fill="white" stroke="#666666" points="359,-78 144,-78 144,-48 359,-48 359,-78"/>
<text text-anchor="start" x="152" y="-66" font-family="Helvetica,sans-Serif" font-size="10.00">com.example.mybookshelf.notifications.</text>
<text text-anchor="middle" x="251.5" y="-55" font-family="Helvetica,sans-Serif" font-size="10.00">BootCompletedReceiver</text>
</a>
</g>
</g>
<!-- Node0&#45;&gt;Node1 -->
<g id="edge1_Node000000_Node000001" class="edge">
<title>Node0&#45;&gt;Node1</title>
<g id="a_edge1_Node000000_Node000001"><a xlink:title=" ">
<path fill="none" stroke="#63b8ff" d="M118.1,-46.75C126.42,-47.77 135.12,-48.84 143.92,-49.92"/>
<polygon fill="#63b8ff" stroke="#63b8ff" points="118.51,-43.27 108.16,-45.53 117.66,-50.22 118.51,-43.27"/>
</a>
</g>
</g>
<!-- Node2 -->
<g id="Node000002" class="node">
<title>Node2</title>
<g id="a_Node000002"><a xlink:href="classcom_1_1example_1_1mybookshelf_1_1notifications_1_1NotificationReceiver.html" target="_top" xlink:title=" ">
<polygon fill="white" stroke="#666666" points="359,-30 144,-30 144,0 359,0 359,-30"/>
<text text-anchor="start" x="152" y="-18" font-family="Helvetica,sans-Serif" font-size="10.00">com.example.mybookshelf.notifications.</text>
<text text-anchor="middle" x="251.5" y="-7" font-family="Helvetica,sans-Serif" font-size="10.00">NotificationReceiver</text>
</a>
</g>
</g>
<!-- Node0&#45;&gt;Node2 -->
<g id="edge2_Node000000_Node000002" class="edge">
<title>Node0&#45;&gt;Node2</title>
<g id="a_edge2_Node000000_Node000002"><a xlink:title=" ">
<path fill="none" stroke="#63b8ff" d="M118.1,-31.25C126.42,-30.23 135.12,-29.16 143.92,-28.08"/>
<polygon fill="#63b8ff" stroke="#63b8ff" points="117.66,-27.78 108.16,-32.47 118.51,-34.73 117.66,-27.78"/>
</a>
</g>
</g>
</g>
</svg>
