<?xml version="1.0" encoding="UTF-8" standalone="no"?>
<!DOCTYPE svg PUBLIC "-//W3C//DTD SVG 1.1//EN"
 "http://www.w3.org/Graphics/SVG/1.1/DTD/svg11.dtd">
<!-- Generated by graphviz version 2.43.0 (0)
 -->
<!-- Title: Graphical Class Hierarchy Pages: 1 -->
<svg width="361pt" height="86pt"
 viewBox="0.00 0.00 361.00 86.00" xmlns="http://www.w3.org/2000/svg" xmlns:xlink="http://www.w3.org/1999/xlink">
<g id="graph0" class="graph" transform="scale(1 1) rotate(0) translate(4 82)">
<title>Graphical Class Hierarchy</title>
<!-- Node0 -->
<g id="Node000000" class="node">
<title>Node0</title>
<g id="a_Node000000"><a xlink:title=" ">
<polygon fill="#e0e0e0" stroke="#999999" points="123,-48.5 0,-48.5 0,-29.5 123,-29.5 123,-48.5"/>
<text text-anchor="middle" x="61.5" y="-36.5" font-family="Helvetica,sans-Serif" font-size="10.00">RecyclerView.Adapter</text>
</a>
</g>
</g>
<!-- Node1 -->
<g id="Node000001" class="node">
<title>Node1</title>
<g id="a_Node000001"><a xlink:href="classcom_1_1example_1_1mybookshelf_1_1LayoutManager_1_1CostumeListAdapter.html" target="_top" xlink:title=" ">
<polygon fill="white" stroke="#666666" points="353,-78 159,-78 159,-48 353,-48 353,-78"/>
<text text-anchor="start" x="167" y="-66" font-family="Helvetica,sans-Serif" font-size="10.00">com.example.mybookshelf.</text>
<text text-anchor="middle" x="256" y="-55" font-family="Helvetica,sans-Serif" font-size="10.00">LayoutManager.CostumeListAdapter</text>
</a>
</g>
</g>
<!-- Node0&#45;&gt;Node1 -->
<g id="edge6_Node000000_Node000001" class="edge">
<title>Node0&#45;&gt;Node1</title>
<g id="a_edge6_Node000000_Node000001"><a xlink:title=" ">
<path fill="none" stroke="#63b8ff" d="M133.16,-47.81C141.5,-48.85 150.12,-49.92 158.74,-51"/>
<polygon fill="#63b8ff" stroke="#63b8ff" points="133.5,-44.32 123.14,-46.56 132.63,-51.27 133.5,-44.32"/>
</a>
</g>
</g>
<!-- Node2 -->
<g id="Node000002" class="node">
<title>Node2</title>
<g id="a_Node000002"><a xlink:href="classcom_1_1example_1_1mybookshelf_1_1LayoutManager_1_1CustomGoalAdapter.html" target="_top" xlink:title=" ">
<polygon fill="white" stroke="#666666" points="352.5,-30 159.5,-30 159.5,0 352.5,0 352.5,-30"/>
<text text-anchor="start" x="167.5" y="-18" font-family="Helvetica,sans-Serif" font-size="10.00">com.example.mybookshelf.</text>
<text text-anchor="middle" x="256" y="-7" font-family="Helvetica,sans-Serif" font-size="10.00">LayoutManager.CustomGoalAdapter</text>
</a>
</g>
</g>
<!-- Node0&#45;&gt;Node2 -->
<g id="edge7_Node000000_Node000002" class="edge">
<title>Node0&#45;&gt;Node2</title>
<g id="a_edge7_Node000000_Node000002"><a xlink:title=" ">
<path fill="none" stroke="#63b8ff" d="M133.08,-30.2C141.67,-29.13 150.56,-28.02 159.44,-26.91"/>
<polygon fill="#63b8ff" stroke="#63b8ff" points="132.63,-26.73 123.14,-31.44 133.5,-33.68 132.63,-26.73"/>
</a>
</g>
</g>
</g>
</svg>
