<?xml version="1.0" encoding="UTF-8" standalone="no"?>
<!DOCTYPE svg PUBLIC "-//W3C//DTD SVG 1.1//EN"
 "http://www.w3.org/Graphics/SVG/1.1/DTD/svg11.dtd">
<!-- Generated by graphviz version 2.43.0 (0)
 -->
<!-- Title: com.example.mybookshelf.apis.BooksAPI.BookCallback.onBookFetched Pages: 1 -->
<svg width="430pt" height="86pt"
 viewBox="0.00 0.00 430.00 86.00" xmlns="http://www.w3.org/2000/svg" xmlns:xlink="http://www.w3.org/1999/xlink">
<g id="graph0" class="graph" transform="scale(1 1) rotate(0) translate(4 82)">
<title>com.example.mybookshelf.apis.BooksAPI.BookCallback.onBookFetched</title>
<!-- Node1 -->
<g id="Node000001" class="node">
<title>Node1</title>
<g id="a_Node000001"><a xlink:title=" ">
<polygon fill="#999999" stroke="#666666" points="422,-54 212,-54 212,-24 422,-24 422,-54"/>
<text text-anchor="start" x="220" y="-42" font-family="Helvetica,sans-Serif" font-size="10.00">com.example.mybookshelf.apis.</text>
<text text-anchor="middle" x="317" y="-31" font-family="Helvetica,sans-Serif" font-size="10.00">BooksAPI.BookCallback.onBookFetched</text>
</a>
</g>
</g>
<!-- Node2 -->
<g id="Node000002" class="node">
<title>Node2</title>
<g id="a_Node000002"><a xlink:href="classcom_1_1example_1_1mybookshelf_1_1apis_1_1BooksAPI.html#a8a2a962adad00e7ab410b7b23c13a45e" target="_top" xlink:title=" ">
<polygon fill="white" stroke="#666666" points="176,-78 0,-78 0,-48 176,-48 176,-78"/>
<text text-anchor="start" x="8" y="-66" font-family="Helvetica,sans-Serif" font-size="10.00">com.example.mybookshelf.apis.</text>
<text text-anchor="middle" x="88" y="-55" font-family="Helvetica,sans-Serif" font-size="10.00">BooksAPI.getMultipleBooks</text>
</a>
</g>
</g>
<!-- Node1&#45;&gt;Node2 -->
<g id="edge1_Node000001_Node000002" class="edge">
<title>Node1&#45;&gt;Node2</title>
<g id="a_edge1_Node000001_Node000002"><a xlink:title=" ">
<path fill="none" stroke="#63b8ff" d="M201.75,-51.08C193.18,-51.99 184.62,-52.89 176.25,-53.78"/>
<polygon fill="#63b8ff" stroke="#63b8ff" points="202.22,-54.55 211.8,-50.02 201.49,-47.59 202.22,-54.55"/>
</a>
</g>
</g>
<!-- Node3 -->
<g id="Node000003" class="node">
<title>Node3</title>
<g id="a_Node000003"><a xlink:href="classcom_1_1example_1_1mybookshelf_1_1apis_1_1BooksAPI.html#ac350a4b300b12277d646f8dc3fd57aef" target="_top" xlink:title=" ">
<polygon fill="white" stroke="#666666" points="176,-30 0,-30 0,0 176,0 176,-30"/>
<text text-anchor="start" x="8" y="-18" font-family="Helvetica,sans-Serif" font-size="10.00">com.example.mybookshelf.apis.</text>
<text text-anchor="middle" x="88" y="-7" font-family="Helvetica,sans-Serif" font-size="10.00">BooksAPI.getOneBook</text>
</a>
</g>
</g>
<!-- Node1&#45;&gt;Node3 -->
<g id="edge2_Node000001_Node000003" class="edge">
<title>Node1&#45;&gt;Node3</title>
<g id="a_edge2_Node000001_Node000003"><a xlink:title=" ">
<path fill="none" stroke="#63b8ff" d="M201.75,-26.92C193.18,-26.01 184.62,-25.11 176.25,-24.22"/>
<polygon fill="#63b8ff" stroke="#63b8ff" points="201.49,-30.41 211.8,-27.98 202.22,-23.45 201.49,-30.41"/>
</a>
</g>
</g>
</g>
</svg>
