<?xml version="1.0" encoding="UTF-8" standalone="no"?>
<!DOCTYPE svg PUBLIC "-//W3C//DTD SVG 1.1//EN"
 "http://www.w3.org/Graphics/SVG/1.1/DTD/svg11.dtd">
<!-- Generated by graphviz version 2.43.0 (0)
 -->
<!-- Title: com.example.mybookshelf.ApiResponseCallback Pages: 1 -->
<svg width="220pt" height="554pt"
 viewBox="0.00 0.00 220.00 554.00" xmlns="http://www.w3.org/2000/svg" xmlns:xlink="http://www.w3.org/1999/xlink">
<g id="graph0" class="graph" transform="scale(1 1) rotate(0) translate(4 550)">
<title>com.example.mybookshelf.ApiResponseCallback</title>
<!-- Node1 -->
<g id="Node000001" class="node">
<title>Node1</title>
<g id="a_Node000001"><a xlink:title=" ">
<polygon fill="#999999" stroke="transparent" points="179,-546 33,-546 33,-471 179,-471 179,-546"/>
<text text-anchor="start" x="38" y="-533.5" font-family="Helvetica,sans-Serif" font-size="10.00">com.example.mybookshelf.</text>
<text text-anchor="start" x="53" y="-522.5" font-family="Helvetica,sans-Serif" font-size="10.00">ApiResponseCallback</text>
<text text-anchor="start" x="104" y="-507.5" font-family="Helvetica,sans-Serif" font-size="10.00"> </text>
<text text-anchor="start" x="53.5" y="-492.5" font-family="Helvetica,sans-Serif" font-size="10.00">+</text>
<text text-anchor="start" x="83" y="-492.5" font-family="Helvetica,sans-Serif" font-size="10.00">onSuccess()</text>
<text text-anchor="start" x="53.5" y="-477.5" font-family="Helvetica,sans-Serif" font-size="10.00">+</text>
<text text-anchor="start" x="83" y="-477.5" font-family="Helvetica,sans-Serif" font-size="10.00">onFailure()</text>
<polygon fill="#666666" stroke="#666666" points="33,-517.5 33,-517.5 179,-517.5 179,-517.5 33,-517.5"/>
<polygon fill="#666666" stroke="#666666" points="33,-502.5 33,-502.5 179,-502.5 179,-502.5 33,-502.5"/>
<polygon fill="none" stroke="#666666" points="33,-471 33,-546 179,-546 179,-471 33,-471"/>
</a>
</g>
</g>
<!-- Node2 -->
<g id="Node000002" class="node">
<title>Node2</title>
<g id="a_Node000002"><a xlink:href="classcom_1_1example_1_1mybookshelf_1_1MainActivity.html" target="_top" xlink:title=" ">
<polygon fill="white" stroke="transparent" points="212,-435 0,-435 0,0 212,0 212,-435"/>
<text text-anchor="start" x="38" y="-422.5" font-family="Helvetica,sans-Serif" font-size="10.00">com.example.mybookshelf.</text>
<text text-anchor="start" x="75" y="-411.5" font-family="Helvetica,sans-Serif" font-size="10.00">MainActivity</text>
<text text-anchor="start" x="4" y="-396.5" font-family="Helvetica,sans-Serif" font-size="10.00">~</text>
<text text-anchor="start" x="17" y="-396.5" font-family="Helvetica,sans-Serif" font-size="10.00">db</text>
<text text-anchor="start" x="6.5" y="-381.5" font-family="Helvetica,sans-Serif" font-size="10.00">&#45;</text>
<text text-anchor="start" x="17" y="-381.5" font-family="Helvetica,sans-Serif" font-size="10.00">addBookButton</text>
<text text-anchor="start" x="6.5" y="-366.5" font-family="Helvetica,sans-Serif" font-size="10.00">&#45;</text>
<text text-anchor="start" x="17" y="-366.5" font-family="Helvetica,sans-Serif" font-size="10.00">auth</text>
<text text-anchor="start" x="6.5" y="-351.5" font-family="Helvetica,sans-Serif" font-size="10.00">&#45;</text>
<text text-anchor="start" x="17" y="-351.5" font-family="Helvetica,sans-Serif" font-size="10.00">booksAPI</text>
<text text-anchor="start" x="6.5" y="-336.5" font-family="Helvetica,sans-Serif" font-size="10.00">&#45;</text>
<text text-anchor="start" x="17" y="-336.5" font-family="Helvetica,sans-Serif" font-size="10.00">ai</text>
<text text-anchor="start" x="6.5" y="-321.5" font-family="Helvetica,sans-Serif" font-size="10.00">&#45;</text>
<text text-anchor="start" x="17" y="-321.5" font-family="Helvetica,sans-Serif" font-size="10.00">uiMaster</text>
<text text-anchor="start" x="6.5" y="-306.5" font-family="Helvetica,sans-Serif" font-size="10.00">&#45;</text>
<text text-anchor="start" x="17" y="-306.5" font-family="Helvetica,sans-Serif" font-size="10.00">search</text>
<text text-anchor="start" x="6.5" y="-291.5" font-family="Helvetica,sans-Serif" font-size="10.00">&#45;</text>
<text text-anchor="start" x="17" y="-291.5" font-family="Helvetica,sans-Serif" font-size="10.00">searchView</text>
<text text-anchor="start" x="6.5" y="-276.5" font-family="Helvetica,sans-Serif" font-size="10.00">&#45;</text>
<text text-anchor="start" x="17" y="-276.5" font-family="Helvetica,sans-Serif" font-size="10.00">timeSpentReadingTextView</text>
<text text-anchor="start" x="6.5" y="-261.5" font-family="Helvetica,sans-Serif" font-size="10.00">&#45;</text>
<text text-anchor="start" x="17" y="-261.5" font-family="Helvetica,sans-Serif" font-size="10.00">goToStarting</text>
<text text-anchor="start" x="6.5" y="-246.5" font-family="Helvetica,sans-Serif" font-size="10.00">&#45;</text>
<text text-anchor="start" x="17" y="-246.5" font-family="Helvetica,sans-Serif" font-size="10.00">logedindUser</text>
<text text-anchor="start" x="6.5" y="-231.5" font-family="Helvetica,sans-Serif" font-size="10.00">&#45;</text>
<text text-anchor="start" x="17" y="-231.5" font-family="Helvetica,sans-Serif" font-size="10.00">handler</text>
<text text-anchor="start" x="6.5" y="-216.5" font-family="Helvetica,sans-Serif" font-size="10.00">&#45;</text>
<text text-anchor="start" x="17" y="-216.5" font-family="Helvetica,sans-Serif" font-size="10.00">loadingOverlay</text>
<text text-anchor="start" x="6.5" y="-201.5" font-family="Helvetica,sans-Serif" font-size="10.00">&#45;</text>
<text text-anchor="start" x="17" y="-201.5" font-family="Helvetica,sans-Serif" font-size="10.00">REQUEST_CODE_POST_NOTIFICATIONS</text>
<text text-anchor="start" x="4" y="-186.5" font-family="Helvetica,sans-Serif" font-size="10.00">+</text>
<text text-anchor="start" x="17" y="-186.5" font-family="Helvetica,sans-Serif" font-size="10.00">handleSearch()</text>
<text text-anchor="start" x="4" y="-171.5" font-family="Helvetica,sans-Serif" font-size="10.00">+</text>
<text text-anchor="start" x="17" y="-171.5" font-family="Helvetica,sans-Serif" font-size="10.00">handleRegister()</text>
<text text-anchor="start" x="4" y="-156.5" font-family="Helvetica,sans-Serif" font-size="10.00">+</text>
<text text-anchor="start" x="17" y="-156.5" font-family="Helvetica,sans-Serif" font-size="10.00">handleLogin()</text>
<text text-anchor="start" x="4" y="-141.5" font-family="Helvetica,sans-Serif" font-size="10.00">+</text>
<text text-anchor="start" x="17" y="-141.5" font-family="Helvetica,sans-Serif" font-size="10.00">saveBook()</text>
<text text-anchor="start" x="4" y="-126.5" font-family="Helvetica,sans-Serif" font-size="10.00">+</text>
<text text-anchor="start" x="17" y="-126.5" font-family="Helvetica,sans-Serif" font-size="10.00">removeBook()</text>
<text text-anchor="start" x="4" y="-111.5" font-family="Helvetica,sans-Serif" font-size="10.00">+</text>
<text text-anchor="start" x="17" y="-111.5" font-family="Helvetica,sans-Serif" font-size="10.00">getUser()</text>
<text text-anchor="start" x="4" y="-96.5" font-family="Helvetica,sans-Serif" font-size="10.00">+</text>
<text text-anchor="start" x="17" y="-96.5" font-family="Helvetica,sans-Serif" font-size="10.00">onSuccess()</text>
<text text-anchor="start" x="4" y="-81.5" font-family="Helvetica,sans-Serif" font-size="10.00">+</text>
<text text-anchor="start" x="17" y="-81.5" font-family="Helvetica,sans-Serif" font-size="10.00">handleBookChange()</text>
<text text-anchor="start" x="4" y="-66.5" font-family="Helvetica,sans-Serif" font-size="10.00">+</text>
<text text-anchor="start" x="17" y="-66.5" font-family="Helvetica,sans-Serif" font-size="10.00">onFailure()</text>
<text text-anchor="start" x="4" y="-51.5" font-family="Helvetica,sans-Serif" font-size="10.00">+</text>
<text text-anchor="start" x="17" y="-51.5" font-family="Helvetica,sans-Serif" font-size="10.00">getDb()</text>
<text text-anchor="start" x="4" y="-36.5" font-family="Helvetica,sans-Serif" font-size="10.00">+</text>
<text text-anchor="start" x="17" y="-36.5" font-family="Helvetica,sans-Serif" font-size="10.00">setLoadingVisibility()</text>
<text text-anchor="start" x="4" y="-21.5" font-family="Helvetica,sans-Serif" font-size="10.00">#</text>
<text text-anchor="start" x="17" y="-21.5" font-family="Helvetica,sans-Serif" font-size="10.00">onCreate()</text>
<text text-anchor="start" x="6.5" y="-6.5" font-family="Helvetica,sans-Serif" font-size="10.00">&#45;</text>
<text text-anchor="start" x="17" y="-6.5" font-family="Helvetica,sans-Serif" font-size="10.00">showResponseDialog()</text>
<polygon fill="#666666" stroke="#666666" points="0,-406.5 0,-406.5 212,-406.5 212,-406.5 0,-406.5"/>
<polygon fill="#666666" stroke="#666666" points="0,-196.5 0,-196.5 15,-196.5 15,-196.5 0,-196.5"/>
<polygon fill="#666666" stroke="#666666" points="15,-196.5 15,-196.5 212,-196.5 212,-196.5 15,-196.5"/>
<polygon fill="none" stroke="#666666" points="0,0 0,-435 212,-435 212,0 0,0"/>
</a>
</g>
</g>
<!-- Node1&#45;&gt;Node2 -->
<g id="edge1_Node000001_Node000002" class="edge">
<title>Node1&#45;&gt;Node2</title>
<g id="a_edge1_Node000001_Node000002"><a xlink:title=" ">
<path fill="none" stroke="#63b8ff" d="M106,-460.66C106,-452.8 106,-444.22 106,-435.13"/>
<polygon fill="none" stroke="#63b8ff" points="102.5,-460.9 106,-470.9 109.5,-460.9 102.5,-460.9"/>
</a>
</g>
</g>
</g>
</svg>
