<?xml version="1.0" encoding="UTF-8" standalone="no"?>
<!DOCTYPE svg PUBLIC "-//W3C//DTD SVG 1.1//EN"
 "http://www.w3.org/Graphics/SVG/1.1/DTD/svg11.dtd">
<!-- Generated by graphviz version 2.43.0 (0)
 -->
<!-- Title: /app/doc_state/github_reposRepoArchDocGenContext/EliasSchaffer/MyBookShelf/src/main/java/com/example/mybookshelf/notifications/NotificationScheduler.java Pages: 1 -->
<!--zoomable 148 -->

<svg id="main" version="1.1" xmlns="http://www.w3.org/2000/svg" xmlns:xlink="http://www.w3.org/1999/xlink" xml:space="preserve" onload="init(evt)">

<style type="text/css"><![CDATA[
.node, .edge {opacity: 0.7;}
.node.selected, .edge.selected {opacity: 1;}
.edge:hover path { stroke: red; }
.edge:hover polygon { stroke: red; fill: red; }
]]></style>

<defs>
  <circle id="rim" cx="0" cy="0" r="7"/>
  <circle id="rim2" cx="0" cy="0" r="3.5"/>
  <g id="zoomPlus">
    <use xlink:href="#rim" fill="#404040"><set attributeName="fill" to="#808080" begin="zoomplus.mouseover" end="zoomplus.mouseout"/></use>
    <path d="M-4,0h8M0,-4v8" fill="none" stroke="white" stroke-width="1.5" pointer-events="none"/>
  </g>
  <g id="zoomMin">
    <use xlink:href="#rim" fill="#404040"><set attributeName="fill" to="#808080" begin="zoomminus.mouseover" end="zoomminus.mouseout"/></use>
    <path d="M-4,0h8" fill="none" stroke="white" stroke-width="1.5" pointer-events="none"/>
  </g>
  <g id="arrowUp" transform="translate(30 24)">
    <use xlink:href="#rim"/>
    <path pointer-events="none" fill="none" stroke="white" stroke-width="1.5" d="M0,-3.0v7 M-2.5,-0.5L0,-3.0L2.5,-0.5"/>
  </g>
  <g id="arrowRight" transform="rotate(90) translate(36 -43)">
    <use xlink:href="#rim"/>
    <path pointer-events="none" fill="none" stroke="white" stroke-width="1.5" d="M0,-3.0v7 M-2.5,-0.5L0,-3.0L2.5,-0.5"/>
  </g>
  <g id="arrowDown" transform="rotate(180) translate(-30 -48)">
    <use xlink:href="#rim"/>
    <path pointer-events="none" fill="none" stroke="white" stroke-width="1.5" d="M0,-3.0v7 M-2.5,-0.5L0,-3.0L2.5,-0.5"/>
  </g>
  <g id="arrowLeft" transform="rotate(270) translate(-36 17)">
    <use xlink:href="#rim"/>
    <path pointer-events="none" fill="none" stroke="white" stroke-width="1.5" d="M0,-3.0v7 M-2.5,-0.5L0,-3.0L2.5,-0.5"/>
  </g>
  <g id="resetDef">
    <use xlink:href="#rim2" fill="#404040"><set attributeName="fill" to="#808080" begin="reset.mouseover" end="reset.mouseout"/></use>
  </g>
</defs>
<script type="application/ecmascript">
var viewWidth = 2753;
var viewHeight = 148;
var sectionId = 'dynsection-0';
</script>
<script type="application/ecmascript" xlink:href="svg.min.js"/>
<svg id="graph" class="graph">
<g id="viewport">
<title>/app/doc_state/github_reposRepoArchDocGenContext/EliasSchaffer/MyBookShelf/src/main/java/com/example/mybookshelf/notifications/NotificationScheduler.java</title>
<!-- Node1 -->
<g id="Node000001" class="node">
<title>Node1</title>
<g id="a_Node000001"><a xlink:title=" ">
<polygon fill="#999999" stroke="#666666" points="1525,-140 1319,-140 1319,-66 1525,-66 1525,-140"/>
<text text-anchor="start" x="1327" y="-128" font-family="Helvetica,sans-Serif" font-size="10.00">/app/doc_state/github</text>
<text text-anchor="start" x="1327" y="-117" font-family="Helvetica,sans-Serif" font-size="10.00">_reposRepoArchDocGenContext</text>
<text text-anchor="start" x="1327" y="-106" font-family="Helvetica,sans-Serif" font-size="10.00">/EliasSchaffer/MyBookShelf</text>
<text text-anchor="start" x="1327" y="-95" font-family="Helvetica,sans-Serif" font-size="10.00">/src/main/java/com/example</text>
<text text-anchor="start" x="1327" y="-84" font-family="Helvetica,sans-Serif" font-size="10.00">/mybookshelf/notifications/Notification</text>
<text text-anchor="middle" x="1422" y="-73" font-family="Helvetica,sans-Serif" font-size="10.00">Scheduler.java</text>
</a>
</g>
</g>
<!-- Node2 -->
<g id="Node000002" class="node">
<title>Node2</title>
<g id="a_Node000002"><a xlink:title=" ">
<polygon fill="#e0e0e0" stroke="#999999" points="174,-24.5 0,-24.5 0,-5.5 174,-5.5 174,-24.5"/>
<text text-anchor="middle" x="87" y="-12.5" font-family="Helvetica,sans-Serif" font-size="10.00">android.annotation.SuppressLint</text>
</a>
</g>
</g>
<!-- Node1&#45;&gt;Node2 -->
<g id="edge1_Node000001_Node000002" class="edge">
<title>Node1&#45;&gt;Node2</title>
<g id="a_edge1_Node000001_Node000002"><a xlink:title=" ">
<path fill="none" stroke="#63b8ff" d="M1318.96,-99.04C1106.22,-92.25 603.14,-72.76 183,-30 172.22,-28.9 160.8,-27.47 149.74,-25.95"/>
<polygon fill="#63b8ff" stroke="#63b8ff" points="150.11,-22.47 139.71,-24.53 149.12,-29.4 150.11,-22.47"/>
</a>
</g>
</g>
<!-- Node3 -->
<g id="Node000003" class="node">
<title>Node3</title>
<g id="a_Node000003"><a xlink:title=" ">
<polygon fill="#e0e0e0" stroke="#999999" points="341.5,-24.5 192.5,-24.5 192.5,-5.5 341.5,-5.5 341.5,-24.5"/>
<text text-anchor="middle" x="267" y="-12.5" font-family="Helvetica,sans-Serif" font-size="10.00">android.app.AlarmManager</text>
</a>
</g>
</g>
<!-- Node1&#45;&gt;Node3 -->
<g id="edge2_Node000001_Node000003" class="edge">
<title>Node1&#45;&gt;Node3</title>
<g id="a_edge2_Node000001_Node000003"><a xlink:title=" ">
<path fill="none" stroke="#63b8ff" d="M1318.95,-98.51C1127.52,-91.26 704.3,-71.67 350,-30 341.14,-28.96 331.79,-27.62 322.68,-26.18"/>
<polygon fill="#63b8ff" stroke="#63b8ff" points="322.98,-22.68 312.55,-24.53 321.85,-29.59 322.98,-22.68"/>
</a>
</g>
</g>
<!-- Node4 -->
<g id="Node000004" class="node">
<title>Node4</title>
<g id="a_Node000004"><a xlink:title=" ">
<polygon fill="#e0e0e0" stroke="#999999" points="504.5,-24.5 359.5,-24.5 359.5,-5.5 504.5,-5.5 504.5,-24.5"/>
<text text-anchor="middle" x="432" y="-12.5" font-family="Helvetica,sans-Serif" font-size="10.00">android.app.PendingIntent</text>
</a>
</g>
</g>
<!-- Node1&#45;&gt;Node4 -->
<g id="edge3_Node000001_Node000004" class="edge">
<title>Node1&#45;&gt;Node4</title>
<g id="a_edge3_Node000001_Node000004"><a xlink:title=" ">
<path fill="none" stroke="#63b8ff" d="M1318.88,-96.85C1150.14,-87.75 804.69,-66.27 514,-30 505.36,-28.92 496.24,-27.57 487.34,-26.15"/>
<polygon fill="#63b8ff" stroke="#63b8ff" points="487.87,-22.69 477.43,-24.51 486.73,-29.59 487.87,-22.69"/>
</a>
</g>
</g>
<!-- Node5 -->
<g id="Node000005" class="node">
<title>Node5</title>
<g id="a_Node000005"><a xlink:title=" ">
<polygon fill="#e0e0e0" stroke="#999999" points="657,-24.5 523,-24.5 523,-5.5 657,-5.5 657,-24.5"/>
<text text-anchor="middle" x="590" y="-12.5" font-family="Helvetica,sans-Serif" font-size="10.00">android.content.Context</text>
</a>
</g>
</g>
<!-- Node1&#45;&gt;Node5 -->
<g id="edge4_Node000001_Node000005" class="edge">
<title>Node1&#45;&gt;Node5</title>
<g id="a_edge4_Node000001_Node000005"><a xlink:title=" ">
<path fill="none" stroke="#63b8ff" d="M1318.95,-95.05C1173.13,-84.56 898.43,-62.41 666,-30 658.34,-28.93 650.27,-27.63 642.37,-26.27"/>
<polygon fill="#63b8ff" stroke="#63b8ff" points="642.96,-22.81 632.5,-24.51 641.73,-29.71 642.96,-22.81"/>
</a>
</g>
</g>
<!-- Node6 -->
<g id="Node000006" class="node">
<title>Node6</title>
<g id="a_Node000006"><a xlink:title=" ">
<polygon fill="#e0e0e0" stroke="#999999" points="800.5,-24.5 675.5,-24.5 675.5,-5.5 800.5,-5.5 800.5,-24.5"/>
<text text-anchor="middle" x="738" y="-12.5" font-family="Helvetica,sans-Serif" font-size="10.00">android.content.Intent</text>
</a>
</g>
</g>
<!-- Node1&#45;&gt;Node6 -->
<g id="edge5_Node000001_Node000006" class="edge">
<title>Node1&#45;&gt;Node6</title>
<g id="a_edge5_Node000001_Node000006"><a xlink:title=" ">
<path fill="none" stroke="#63b8ff" d="M1318.81,-92.24C1196.9,-80.17 988.12,-57.75 810,-30 803.24,-28.95 796.14,-27.72 789.15,-26.43"/>
<polygon fill="#63b8ff" stroke="#63b8ff" points="789.5,-22.94 779.03,-24.53 788.21,-29.82 789.5,-22.94"/>
</a>
</g>
</g>
<!-- Node7 -->
<g id="Node000007" class="node">
<title>Node7</title>
<g id="a_Node000007"><a xlink:title=" ">
<polygon fill="#e0e0e0" stroke="#999999" points="1007,-24.5 819,-24.5 819,-5.5 1007,-5.5 1007,-24.5"/>
<text text-anchor="middle" x="913" y="-12.5" font-family="Helvetica,sans-Serif" font-size="10.00">android.content.SharedPreferences</text>
</a>
</g>
</g>
<!-- Node1&#45;&gt;Node7 -->
<g id="edge6_Node000001_Node000007" class="edge">
<title>Node1&#45;&gt;Node7</title>
<g id="a_edge6_Node000001_Node000007"><a xlink:title=" ">
<path fill="none" stroke="#63b8ff" d="M1319,-84.6C1215.29,-67.08 1058.83,-40.64 973.59,-26.24"/>
<polygon fill="#63b8ff" stroke="#63b8ff" points="974,-22.76 963.56,-24.54 972.84,-29.66 974,-22.76"/>
</a>
</g>
</g>
<!-- Node8 -->
<g id="Node000008" class="node">
<title>Node8</title>
<g id="a_Node000008"><a xlink:title=" ">
<polygon fill="#e0e0e0" stroke="#999999" points="1120.5,-24.5 1025.5,-24.5 1025.5,-5.5 1120.5,-5.5 1120.5,-24.5"/>
<text text-anchor="middle" x="1073" y="-12.5" font-family="Helvetica,sans-Serif" font-size="10.00">android.os.Build</text>
</a>
</g>
</g>
<!-- Node1&#45;&gt;Node8 -->
<g id="edge7_Node000001_Node000008" class="edge">
<title>Node1&#45;&gt;Node8</title>
<g id="a_edge7_Node000001_Node000008"><a xlink:title=" ">
<path fill="none" stroke="#63b8ff" d="M1318.71,-76.55C1251.76,-60.05 1167.94,-39.4 1117.53,-26.97"/>
<polygon fill="#63b8ff" stroke="#63b8ff" points="1118.15,-23.52 1107.6,-24.53 1116.47,-30.32 1118.15,-23.52"/>
</a>
</g>
</g>
<!-- Node9 -->
<g id="Node000009" class="node">
<title>Node9</title>
<g id="a_Node000009"><a xlink:title=" ">
<polygon fill="#e0e0e0" stroke="#999999" points="1231,-24.5 1139,-24.5 1139,-5.5 1231,-5.5 1231,-24.5"/>
<text text-anchor="middle" x="1185" y="-12.5" font-family="Helvetica,sans-Serif" font-size="10.00">android.util.Log</text>
</a>
</g>
</g>
<!-- Node1&#45;&gt;Node9 -->
<g id="edge8_Node000001_Node000009" class="edge">
<title>Node1&#45;&gt;Node9</title>
<g id="a_edge8_Node000001_Node000009"><a xlink:title=" ">
<path fill="none" stroke="#63b8ff" d="M1322.52,-65.9C1285.23,-52.37 1245.36,-37.9 1218.2,-28.05"/>
<polygon fill="#63b8ff" stroke="#63b8ff" points="1219.04,-24.63 1208.45,-24.51 1216.65,-31.21 1219.04,-24.63"/>
</a>
</g>
</g>
<!-- Node10 -->
<g id="Node000010" class="node">
<title>Node10</title>
<g id="a_Node000010"><a xlink:title=" ">
<polygon fill="#e0e0e0" stroke="#999999" points="1413,-30 1249,-30 1249,0 1413,0 1413,-30"/>
<text text-anchor="start" x="1257" y="-18" font-family="Helvetica,sans-Serif" font-size="10.00">androidx.core.app.Notification</text>
<text text-anchor="middle" x="1331" y="-7" font-family="Helvetica,sans-Serif" font-size="10.00">Compat</text>
</a>
</g>
</g>
<!-- Node1&#45;&gt;Node10 -->
<g id="edge9_Node000001_Node000010" class="edge">
<title>Node1&#45;&gt;Node10</title>
<g id="a_edge9_Node000001_Node000010"><a xlink:title=" ">
<path fill="none" stroke="#63b8ff" d="M1383.67,-65.78C1373.45,-56.12 1362.74,-46 1353.66,-37.42"/>
<polygon fill="#63b8ff" stroke="#63b8ff" points="1355.83,-34.65 1346.16,-30.33 1351.02,-39.74 1355.83,-34.65"/>
</a>
</g>
</g>
<!-- Node11 -->
<g id="Node000011" class="node">
<title>Node11</title>
<g id="a_Node000011"><a xlink:title=" ">
<polygon fill="#e0e0e0" stroke="#999999" points="1595,-30 1431,-30 1431,0 1595,0 1595,-30"/>
<text text-anchor="start" x="1439" y="-18" font-family="Helvetica,sans-Serif" font-size="10.00">androidx.core.app.Notification</text>
<text text-anchor="middle" x="1513" y="-7" font-family="Helvetica,sans-Serif" font-size="10.00">ManagerCompat</text>
</a>
</g>
</g>
<!-- Node1&#45;&gt;Node11 -->
<g id="edge10_Node000001_Node000011" class="edge">
<title>Node1&#45;&gt;Node11</title>
<g id="a_edge10_Node000001_Node000011"><a xlink:title=" ">
<path fill="none" stroke="#63b8ff" d="M1460.33,-65.78C1470.55,-56.12 1481.26,-46 1490.34,-37.42"/>
<polygon fill="#63b8ff" stroke="#63b8ff" points="1492.98,-39.74 1497.84,-30.33 1488.17,-34.65 1492.98,-39.74"/>
</a>
</g>
</g>
<!-- Node12 -->
<g id="Node000012" class="node">
<title>Node12</title>
<g id="a_Node000012"><a xlink:title=" ">
<polygon fill="#e0e0e0" stroke="#999999" points="1772.5,-24.5 1613.5,-24.5 1613.5,-5.5 1772.5,-5.5 1772.5,-24.5"/>
<text text-anchor="middle" x="1693" y="-12.5" font-family="Helvetica,sans-Serif" font-size="10.00">com.example.mybookshelf.R</text>
</a>
</g>
</g>
<!-- Node1&#45;&gt;Node12 -->
<g id="edge11_Node000001_Node000012" class="edge">
<title>Node1&#45;&gt;Node12</title>
<g id="a_edge11_Node000001_Node000012"><a xlink:title=" ">
<path fill="none" stroke="#63b8ff" d="M1525.23,-69.24C1571.32,-54.62 1622.69,-38.31 1656.3,-27.65"/>
<polygon fill="#63b8ff" stroke="#63b8ff" points="1657.66,-30.89 1666.14,-24.52 1655.55,-24.21 1657.66,-30.89"/>
</a>
</g>
</g>
<!-- Node13 -->
<g id="Node000013" class="node">
<title>Node13</title>
<g id="a_Node000013"><a xlink:title=" ">
<polygon fill="#e0e0e0" stroke="#999999" points="1965,-30 1791,-30 1791,0 1965,0 1965,-30"/>
<text text-anchor="start" x="1799" y="-18" font-family="Helvetica,sans-Serif" font-size="10.00">com.example.mybookshelf.data</text>
<text text-anchor="middle" x="1878" y="-7" font-family="Helvetica,sans-Serif" font-size="10.00">Class.Goal</text>
</a>
</g>
</g>
<!-- Node1&#45;&gt;Node13 -->
<g id="edge12_Node000001_Node000013" class="edge">
<title>Node1&#45;&gt;Node13</title>
<g id="a_edge12_Node000001_Node000013"><a xlink:title=" ">
<path fill="none" stroke="#63b8ff" d="M1525.19,-82.54C1606.28,-67.25 1717.81,-46.21 1793.62,-31.91"/>
<polygon fill="#63b8ff" stroke="#63b8ff" points="1794.43,-35.32 1803.6,-30.03 1793.13,-28.44 1794.43,-35.32"/>
</a>
</g>
</g>
<!-- Node14 -->
<g id="Node000014" class="node">
<title>Node14</title>
<g id="a_Node000014"><a xlink:title=" ">
<polygon fill="#e0e0e0" stroke="#999999" points="2123,-24.5 1983,-24.5 1983,-5.5 2123,-5.5 2123,-24.5"/>
<text text-anchor="middle" x="2053" y="-12.5" font-family="Helvetica,sans-Serif" font-size="10.00">java.time.LocalDateTime</text>
</a>
</g>
</g>
<!-- Node1&#45;&gt;Node14 -->
<g id="edge13_Node000001_Node000014" class="edge">
<title>Node1&#45;&gt;Node14</title>
<g id="a_edge13_Node000001_Node000014"><a xlink:title=" ">
<path fill="none" stroke="#63b8ff" d="M1525.21,-89.97C1636.25,-76.69 1817.94,-53.99 1974,-30 1981.37,-28.87 1989.11,-27.6 1996.75,-26.29"/>
<polygon fill="#63b8ff" stroke="#63b8ff" points="1997.43,-29.73 2006.69,-24.57 1996.24,-22.83 1997.43,-29.73"/>
</a>
</g>
</g>
<!-- Node15 -->
<g id="Node000015" class="node">
<title>Node15</title>
<g id="a_Node000015"><a xlink:title=" ">
<polygon fill="#e0e0e0" stroke="#999999" points="2241,-24.5 2141,-24.5 2141,-5.5 2241,-5.5 2241,-24.5"/>
<text text-anchor="middle" x="2191" y="-12.5" font-family="Helvetica,sans-Serif" font-size="10.00">java.time.ZoneId</text>
</a>
</g>
</g>
<!-- Node1&#45;&gt;Node15 -->
<g id="edge14_Node000001_Node000015" class="edge">
<title>Node1&#45;&gt;Node15</title>
<g id="a_edge14_Node000001_Node000015"><a xlink:title=" ">
<path fill="none" stroke="#63b8ff" d="M1525.16,-95.82C1663.84,-86.54 1917.74,-66.12 2132,-30 2137.39,-29.09 2143.01,-27.98 2148.56,-26.78"/>
<polygon fill="#63b8ff" stroke="#63b8ff" points="2149.41,-30.17 2158.39,-24.55 2147.86,-23.35 2149.41,-30.17"/>
</a>
</g>
</g>
<!-- Node16 -->
<g id="Node000016" class="node">
<title>Node16</title>
<g id="a_Node000016"><a xlink:title=" ">
<polygon fill="#e0e0e0" stroke="#999999" points="2404.5,-24.5 2259.5,-24.5 2259.5,-5.5 2404.5,-5.5 2404.5,-24.5"/>
<text text-anchor="middle" x="2332" y="-12.5" font-family="Helvetica,sans-Serif" font-size="10.00">java.time.ZonedDateTime</text>
</a>
</g>
</g>
<!-- Node1&#45;&gt;Node16 -->
<g id="edge15_Node000001_Node000016" class="edge">
<title>Node1&#45;&gt;Node16</title>
<g id="a_edge15_Node000001_Node000016"><a xlink:title=" ">
<path fill="none" stroke="#63b8ff" d="M1525.24,-95.77C1682.19,-85.67 1990.07,-63.43 2250,-30 2258.44,-28.91 2267.34,-27.59 2276.05,-26.19"/>
<polygon fill="#63b8ff" stroke="#63b8ff" points="2276.83,-29.6 2286.13,-24.52 2275.69,-22.7 2276.83,-29.6"/>
</a>
</g>
</g>
<!-- Node17 -->
<g id="Node000017" class="node">
<title>Node17</title>
<g id="a_Node000017"><a xlink:title=" ">
<polygon fill="#e0e0e0" stroke="#999999" points="2525.5,-24.5 2422.5,-24.5 2422.5,-5.5 2525.5,-5.5 2525.5,-24.5"/>
<text text-anchor="middle" x="2474" y="-12.5" font-family="Helvetica,sans-Serif" font-size="10.00">java.util.Calendar</text>
</a>
</g>
</g>
<!-- Node1&#45;&gt;Node17 -->
<g id="edge16_Node000001_Node000017" class="edge">
<title>Node1&#45;&gt;Node17</title>
<g id="a_edge16_Node000001_Node000017"><a xlink:title=" ">
<path fill="none" stroke="#63b8ff" d="M1525.05,-99.83C1705.95,-94.85 2091.99,-78.94 2414,-30 2419.76,-29.12 2425.78,-27.99 2431.7,-26.74"/>
<polygon fill="#63b8ff" stroke="#63b8ff" points="2432.48,-30.15 2441.48,-24.57 2430.96,-23.32 2432.48,-30.15"/>
</a>
</g>
</g>
<!-- Node18 -->
<g id="Node000018" class="node">
<title>Node18</title>
<g id="a_Node000018"><a xlink:title=" ">
<polygon fill="#e0e0e0" stroke="#999999" points="2626.5,-24.5 2543.5,-24.5 2543.5,-5.5 2626.5,-5.5 2626.5,-24.5"/>
<text text-anchor="middle" x="2585" y="-12.5" font-family="Helvetica,sans-Serif" font-size="10.00">java.util.Date</text>
</a>
</g>
</g>
<!-- Node1&#45;&gt;Node18 -->
<g id="edge17_Node000001_Node000018" class="edge">
<title>Node1&#45;&gt;Node18</title>
<g id="a_edge17_Node000001_Node000018"><a xlink:title=" ">
<path fill="none" stroke="#63b8ff" d="M1525.26,-102.47C1722.81,-101.79 2167.32,-92.66 2535,-30 2539.47,-29.24 2544.11,-28.24 2548.69,-27.12"/>
<polygon fill="#63b8ff" stroke="#63b8ff" points="2549.73,-30.46 2558.51,-24.53 2547.94,-23.69 2549.73,-30.46"/>
</a>
</g>
</g>
<!-- Node19 -->
<g id="Node000019" class="node">
<title>Node19</title>
<g id="a_Node000019"><a xlink:title=" ">
<polygon fill="#e0e0e0" stroke="#999999" points="2745,-24.5 2645,-24.5 2645,-5.5 2745,-5.5 2745,-24.5"/>
<text text-anchor="middle" x="2695" y="-12.5" font-family="Helvetica,sans-Serif" font-size="10.00">java.util.Random</text>
</a>
</g>
</g>
<!-- Node1&#45;&gt;Node19 -->
<g id="edge18_Node000001_Node000019" class="edge">
<title>Node1&#45;&gt;Node19</title>
<g id="a_edge18_Node000001_Node000019"><a xlink:title=" ">
<path fill="none" stroke="#63b8ff" d="M1525.34,-101.9C1735.61,-100.38 2227.89,-90.06 2636,-30 2641.8,-29.15 2647.88,-28 2653.83,-26.73"/>
<polygon fill="#63b8ff" stroke="#63b8ff" points="2654.68,-30.13 2663.66,-24.5 2653.13,-23.3 2654.68,-30.13"/>
</a>
</g>
</g>
</g>
</svg>

<g id="navigator" transform="translate(0 0)" fill="#404254">
  <rect fill="#f2f5e9" fill-opacity="0.5" stroke="#606060" stroke-width=".5" x="0" y="0" width="60" height="60"/>
  <use id="zoomplus" xlink:href="#zoomPlus" x="17" y="9" onmousedown="handleZoom(evt,'in')"/>
  <use id="zoomminus" xlink:href="#zoomMin" x="42" y="9" onmousedown="handleZoom(evt,'out')"/>
  <use id="reset" xlink:href="#resetDef" x="30" y="36" onmousedown="handleReset()"/>
   <use id="arrowup" xlink:href="#arrowUp" x="0" y="0" onmousedown="handlePan(0,-1)"/>
  <use id="arrowright" xlink:href="#arrowRight" x="0" y="0" onmousedown="handlePan(1,0)"/>
  <use id="arrowdown" xlink:href="#arrowDown" x="0" y="0" onmousedown="handlePan(0,1)"/>
  <use id="arrowleft" xlink:href="#arrowLeft" x="0" y="0" onmousedown="handlePan(-1,0)"/>
</g>
<svg viewBox="0 0 15 15" width="100%" height="30px" preserveAspectRatio="xMaxYMin meet">
 <g id="arrow_out" transform="scale(0.3 0.3)">
  <a xlink:href="NotificationScheduler_8java__incl_org.svg" target="_base">
   <rect id="button" ry="5" rx="5" y="6" x="6" height="38" width="38"
        fill="#f2f5e9" fill-opacity="0.5" stroke="#606060" stroke-width="1.0"/>
   <path id="arrow"
     d="M 11.500037,31.436501 C 11.940474,20.09759 22.043105,11.32322 32.158766,21.979434 L 37.068811,17.246167 C 37.068811,17.246167 37.088388,32 37.088388,32 L 22.160133,31.978069 C 22.160133,31.978069 26.997745,27.140456 26.997745,27.140456 C 18.528582,18.264221 13.291696,25.230495 11.500037,31.436501 z"
     style="fill:#404040;"/>
  </a>
 </g>
</svg>

<style type='text/css'>
<![CDATA[
[data-mouse-over-selected='false'] { opacity: 0.7; }
[data-mouse-over-selected='true']  { opacity: 1.0; }
]]>
</style>
<script type="application/ecmascript"><![CDATA[
document.addEventListener('DOMContentLoaded', (event) => {
  highlightEdges();
  highlightAdjacentNodes();
});
]]></script>
</svg>
