<?xml version="1.0" encoding="UTF-8" standalone="no"?>
<!DOCTYPE svg PUBLIC "-//W3C//DTD SVG 1.1//EN"
 "http://www.w3.org/Graphics/SVG/1.1/DTD/svg11.dtd">
<!-- Generated by graphviz version 2.43.0 (0)
 -->
<!-- Title: /app/doc_state/github_reposRepoArchDocGenContext/EliasSchaffer/MyBookShelf/src/main/java/com/example/mybookshelf/notifications/NotificationReceiver.java Pages: 1 -->
<svg width="1555pt" height="148pt"
 viewBox="0.00 0.00 1555.00 148.00" xmlns="http://www.w3.org/2000/svg" xmlns:xlink="http://www.w3.org/1999/xlink">
<g id="graph0" class="graph" transform="scale(1 1) rotate(0) translate(4 144)">
<title>/app/doc_state/github_reposRepoArchDocGenContext/EliasSchaffer/MyBookShelf/src/main/java/com/example/mybookshelf/notifications/NotificationReceiver.java</title>
<!-- Node1 -->
<g id="Node000001" class="node">
<title>Node1</title>
<g id="a_Node000001"><a xlink:title=" ">
<polygon fill="#999999" stroke="#666666" points="827.5,-140 621.5,-140 621.5,-66 827.5,-66 827.5,-140"/>
<text text-anchor="start" x="629.5" y="-128" font-family="Helvetica,sans-Serif" font-size="10.00">/app/doc_state/github</text>
<text text-anchor="start" x="629.5" y="-117" font-family="Helvetica,sans-Serif" font-size="10.00">_reposRepoArchDocGenContext</text>
<text text-anchor="start" x="629.5" y="-106" font-family="Helvetica,sans-Serif" font-size="10.00">/EliasSchaffer/MyBookShelf</text>
<text text-anchor="start" x="629.5" y="-95" font-family="Helvetica,sans-Serif" font-size="10.00">/src/main/java/com/example</text>
<text text-anchor="start" x="629.5" y="-84" font-family="Helvetica,sans-Serif" font-size="10.00">/mybookshelf/notifications/Notification</text>
<text text-anchor="middle" x="724.5" y="-73" font-family="Helvetica,sans-Serif" font-size="10.00">Receiver.java</text>
</a>
</g>
</g>
<!-- Node2 -->
<g id="Node000002" class="node">
<title>Node2</title>
<g id="a_Node000002"><a xlink:title=" ">
<polygon fill="#e0e0e0" stroke="#999999" points="99,-24.5 0,-24.5 0,-5.5 99,-5.5 99,-24.5"/>
<text text-anchor="middle" x="49.5" y="-12.5" font-family="Helvetica,sans-Serif" font-size="10.00">android.Manifest</text>
</a>
</g>
</g>
<!-- Node1&#45;&gt;Node2 -->
<g id="edge1_Node000001_Node000002" class="edge">
<title>Node1&#45;&gt;Node2</title>
<g id="a_edge1_Node000001_Node000002"><a xlink:title=" ">
<path fill="none" stroke="#63b8ff" d="M621.32,-93.79C498.35,-83.13 286.93,-62 107.5,-30 102.4,-29.09 97.09,-28 91.83,-26.84"/>
<polygon fill="#63b8ff" stroke="#63b8ff" points="92.4,-23.38 81.87,-24.54 90.83,-30.2 92.4,-23.38"/>
</a>
</g>
</g>
<!-- Node3 -->
<g id="Node000003" class="node">
<title>Node3</title>
<g id="a_Node000003"><a xlink:title=" ">
<polygon fill="#e0e0e0" stroke="#999999" points="262,-30 117,-30 117,0 262,0 262,-30"/>
<text text-anchor="start" x="125" y="-18" font-family="Helvetica,sans-Serif" font-size="10.00">android.content.Broadcast</text>
<text text-anchor="middle" x="189.5" y="-7" font-family="Helvetica,sans-Serif" font-size="10.00">Receiver</text>
</a>
</g>
</g>
<!-- Node1&#45;&gt;Node3 -->
<g id="edge2_Node000001_Node000003" class="edge">
<title>Node1&#45;&gt;Node3</title>
<g id="a_edge2_Node000001_Node000003"><a xlink:title=" ">
<path fill="none" stroke="#63b8ff" d="M621.45,-85.97C532.01,-71.97 398.77,-50.93 272.6,-30.17"/>
<polygon fill="#63b8ff" stroke="#63b8ff" points="272.81,-26.66 262.37,-28.49 271.67,-33.56 272.81,-26.66"/>
</a>
</g>
</g>
<!-- Node4 -->
<g id="Node000004" class="node">
<title>Node4</title>
<g id="a_Node000004"><a xlink:title=" ">
<polygon fill="#e0e0e0" stroke="#999999" points="414.5,-24.5 280.5,-24.5 280.5,-5.5 414.5,-5.5 414.5,-24.5"/>
<text text-anchor="middle" x="347.5" y="-12.5" font-family="Helvetica,sans-Serif" font-size="10.00">android.content.Context</text>
</a>
</g>
</g>
<!-- Node1&#45;&gt;Node4 -->
<g id="edge3_Node000001_Node000004" class="edge">
<title>Node1&#45;&gt;Node4</title>
<g id="a_edge3_Node000001_Node000004"><a xlink:title=" ">
<path fill="none" stroke="#63b8ff" d="M621.48,-78.5C547.6,-61.65 451.48,-39.72 394.94,-26.82"/>
<polygon fill="#63b8ff" stroke="#63b8ff" points="395.38,-23.33 384.85,-24.52 393.82,-30.16 395.38,-23.33"/>
</a>
</g>
</g>
<!-- Node5 -->
<g id="Node000005" class="node">
<title>Node5</title>
<g id="a_Node000005"><a xlink:title=" ">
<polygon fill="#e0e0e0" stroke="#999999" points="558,-24.5 433,-24.5 433,-5.5 558,-5.5 558,-24.5"/>
<text text-anchor="middle" x="495.5" y="-12.5" font-family="Helvetica,sans-Serif" font-size="10.00">android.content.Intent</text>
</a>
</g>
</g>
<!-- Node1&#45;&gt;Node5 -->
<g id="edge4_Node000001_Node000005" class="edge">
<title>Node1&#45;&gt;Node5</title>
<g id="a_edge4_Node000001_Node000005"><a xlink:title=" ">
<path fill="none" stroke="#63b8ff" d="M628.38,-65.9C592.35,-52.37 553.82,-37.9 527.58,-28.05"/>
<polygon fill="#63b8ff" stroke="#63b8ff" points="528.75,-24.75 518.15,-24.51 526.29,-31.3 528.75,-24.75"/>
</a>
</g>
</g>
<!-- Node6 -->
<g id="Node000006" class="node">
<title>Node6</title>
<g id="a_Node000006"><a xlink:title=" ">
<polygon fill="#e0e0e0" stroke="#999999" points="731,-30 576,-30 576,0 731,0 731,-30"/>
<text text-anchor="start" x="584" y="-18" font-family="Helvetica,sans-Serif" font-size="10.00">android.content.pm.Package</text>
<text text-anchor="middle" x="653.5" y="-7" font-family="Helvetica,sans-Serif" font-size="10.00">Manager</text>
</a>
</g>
</g>
<!-- Node1&#45;&gt;Node6 -->
<g id="edge5_Node000001_Node000006" class="edge">
<title>Node1&#45;&gt;Node6</title>
<g id="a_edge5_Node000001_Node000006"><a xlink:title=" ">
<path fill="none" stroke="#63b8ff" d="M694.39,-65.53C686.68,-56.19 678.62,-46.43 671.72,-38.07"/>
<polygon fill="#63b8ff" stroke="#63b8ff" points="674.32,-35.72 665.25,-30.24 668.92,-40.18 674.32,-35.72"/>
</a>
</g>
</g>
<!-- Node7 -->
<g id="Node000007" class="node">
<title>Node7</title>
<g id="a_Node000007"><a xlink:title=" ">
<polygon fill="#e0e0e0" stroke="#999999" points="841.5,-24.5 749.5,-24.5 749.5,-5.5 841.5,-5.5 841.5,-24.5"/>
<text text-anchor="middle" x="795.5" y="-12.5" font-family="Helvetica,sans-Serif" font-size="10.00">android.util.Log</text>
</a>
</g>
</g>
<!-- Node1&#45;&gt;Node7 -->
<g id="edge6_Node000001_Node000007" class="edge">
<title>Node1&#45;&gt;Node7</title>
<g id="a_edge6_Node000001_Node000007"><a xlink:title=" ">
<path fill="none" stroke="#63b8ff" d="M754.61,-65.53C764.1,-54.03 774.12,-41.9 781.86,-32.52"/>
<polygon fill="#63b8ff" stroke="#63b8ff" points="784.59,-34.71 788.26,-24.77 779.19,-30.26 784.59,-34.71"/>
</a>
</g>
</g>
<!-- Node8 -->
<g id="Node000008" class="node">
<title>Node8</title>
<g id="a_Node000008"><a xlink:title=" ">
<polygon fill="#e0e0e0" stroke="#999999" points="1005,-30 860,-30 860,0 1005,0 1005,-30"/>
<text text-anchor="start" x="868" y="-18" font-family="Helvetica,sans-Serif" font-size="10.00">androidx.core.app.Activity</text>
<text text-anchor="middle" x="932.5" y="-7" font-family="Helvetica,sans-Serif" font-size="10.00">Compat</text>
</a>
</g>
</g>
<!-- Node1&#45;&gt;Node8 -->
<g id="edge7_Node000001_Node000008" class="edge">
<title>Node1&#45;&gt;Node8</title>
<g id="a_edge7_Node000001_Node000008"><a xlink:title=" ">
<path fill="none" stroke="#63b8ff" d="M811.81,-65.9C838.56,-54.84 866.82,-43.16 889.27,-33.87"/>
<polygon fill="#63b8ff" stroke="#63b8ff" points="890.61,-37.11 898.51,-30.05 887.93,-30.64 890.61,-37.11"/>
</a>
</g>
</g>
<!-- Node9 -->
<g id="Node000009" class="node">
<title>Node9</title>
<g id="a_Node000009"><a xlink:title=" ">
<polygon fill="#e0e0e0" stroke="#999999" points="1187.5,-30 1023.5,-30 1023.5,0 1187.5,0 1187.5,-30"/>
<text text-anchor="start" x="1031.5" y="-18" font-family="Helvetica,sans-Serif" font-size="10.00">androidx.core.app.Notification</text>
<text text-anchor="middle" x="1105.5" y="-7" font-family="Helvetica,sans-Serif" font-size="10.00">Compat</text>
</a>
</g>
</g>
<!-- Node1&#45;&gt;Node9 -->
<g id="edge8_Node000001_Node000009" class="edge">
<title>Node1&#45;&gt;Node9</title>
<g id="a_edge8_Node000001_Node000009"><a xlink:title=" ">
<path fill="none" stroke="#63b8ff" d="M827.6,-78.73C892.81,-64.01 975.46,-45.35 1033.61,-32.23"/>
<polygon fill="#63b8ff" stroke="#63b8ff" points="1034.47,-35.62 1043.45,-30.01 1032.93,-28.79 1034.47,-35.62"/>
</a>
</g>
</g>
<!-- Node10 -->
<g id="Node000010" class="node">
<title>Node10</title>
<g id="a_Node000010"><a xlink:title=" ">
<polygon fill="#e0e0e0" stroke="#999999" points="1369.5,-30 1205.5,-30 1205.5,0 1369.5,0 1369.5,-30"/>
<text text-anchor="start" x="1213.5" y="-18" font-family="Helvetica,sans-Serif" font-size="10.00">androidx.core.app.Notification</text>
<text text-anchor="middle" x="1287.5" y="-7" font-family="Helvetica,sans-Serif" font-size="10.00">ManagerCompat</text>
</a>
</g>
</g>
<!-- Node1&#45;&gt;Node10 -->
<g id="edge9_Node000001_Node000010" class="edge">
<title>Node1&#45;&gt;Node10</title>
<g id="a_edge9_Node000001_Node000010"><a xlink:title=" ">
<path fill="none" stroke="#63b8ff" d="M827.63,-86.31C920.92,-72.1 1062.39,-50.54 1195.21,-30.2"/>
<polygon fill="#63b8ff" stroke="#63b8ff" points="1195.81,-33.65 1205.16,-28.67 1194.75,-26.73 1195.81,-33.65"/>
</a>
</g>
</g>
<!-- Node11 -->
<g id="Node000011" class="node">
<title>Node11</title>
<g id="a_Node000011"><a xlink:title=" ">
<polygon fill="#e0e0e0" stroke="#999999" points="1547,-24.5 1388,-24.5 1388,-5.5 1547,-5.5 1547,-24.5"/>
<text text-anchor="middle" x="1467.5" y="-12.5" font-family="Helvetica,sans-Serif" font-size="10.00">com.example.mybookshelf.R</text>
</a>
</g>
</g>
<!-- Node1&#45;&gt;Node11 -->
<g id="edge10_Node000001_Node000011" class="edge">
<title>Node1&#45;&gt;Node11</title>
<g id="a_edge10_Node000001_Node000011"><a xlink:title=" ">
<path fill="none" stroke="#63b8ff" d="M827.76,-92.13C956.8,-79.44 1184.33,-55.95 1378.5,-30 1387.29,-28.83 1396.54,-27.49 1405.63,-26.11"/>
<polygon fill="#63b8ff" stroke="#63b8ff" points="1406.44,-29.53 1415.79,-24.55 1405.38,-22.61 1406.44,-29.53"/>
</a>
</g>
</g>
</g>
</svg>
