<?xml version="1.0" encoding="UTF-8" standalone="no"?>
<!DOCTYPE svg PUBLIC "-//W3C//DTD SVG 1.1//EN"
 "http://www.w3.org/Graphics/SVG/1.1/DTD/svg11.dtd">
<!-- Generated by graphviz version 2.43.0 (0)
 -->
<!-- Title: /app/doc_state/github_reposRepoArchDocGenContext/EliasSchaffer/MyBookShelf/src/main/java/com/example/mybookshelf/Search.java Pages: 1 -->
<svg width="1427pt" height="137pt"
 viewBox="0.00 0.00 1426.50 137.00" xmlns="http://www.w3.org/2000/svg" xmlns:xlink="http://www.w3.org/1999/xlink">
<g id="graph0" class="graph" transform="scale(1 1) rotate(0) translate(4 133)">
<title>/app/doc_state/github_reposRepoArchDocGenContext/EliasSchaffer/MyBookShelf/src/main/java/com/example/mybookshelf/Search.java</title>
<!-- Node1 -->
<g id="Node000001" class="node">
<title>Node1</title>
<g id="a_Node000001"><a xlink:title=" ">
<polygon fill="#999999" stroke="#666666" points="790.5,-129 618.5,-129 618.5,-66 790.5,-66 790.5,-129"/>
<text text-anchor="start" x="626.5" y="-117" font-family="Helvetica,sans-Serif" font-size="10.00">/app/doc_state/github</text>
<text text-anchor="start" x="626.5" y="-106" font-family="Helvetica,sans-Serif" font-size="10.00">_reposRepoArchDocGenContext</text>
<text text-anchor="start" x="626.5" y="-95" font-family="Helvetica,sans-Serif" font-size="10.00">/EliasSchaffer/MyBookShelf</text>
<text text-anchor="start" x="626.5" y="-84" font-family="Helvetica,sans-Serif" font-size="10.00">/src/main/java/com/example</text>
<text text-anchor="middle" x="704.5" y="-73" font-family="Helvetica,sans-Serif" font-size="10.00">/mybookshelf/Search.java</text>
</a>
</g>
</g>
<!-- Node2 -->
<g id="Node000002" class="node">
<title>Node2</title>
<g id="a_Node000002"><a xlink:title=" ">
<polygon fill="#e0e0e0" stroke="#999999" points="155,-24.5 0,-24.5 0,-5.5 155,-5.5 155,-24.5"/>
<text text-anchor="middle" x="77.5" y="-12.5" font-family="Helvetica,sans-Serif" font-size="10.00">android.widget.LinearLayout</text>
</a>
</g>
</g>
<!-- Node1&#45;&gt;Node2 -->
<g id="edge1_Node000001_Node000002" class="edge">
<title>Node1&#45;&gt;Node2</title>
<g id="a_edge1_Node000001_Node000002"><a xlink:title=" ">
<path fill="none" stroke="#63b8ff" d="M618.33,-86.88C511.64,-74.75 324.42,-52.71 164.5,-30 156.12,-28.81 147.29,-27.48 138.61,-26.13"/>
<polygon fill="#63b8ff" stroke="#63b8ff" points="138.94,-22.64 128.52,-24.53 137.85,-29.55 138.94,-22.64"/>
</a>
</g>
</g>
<!-- Node3 -->
<g id="Node000003" class="node">
<title>Node3</title>
<g id="a_Node000003"><a xlink:title=" ">
<polygon fill="#e0e0e0" stroke="#999999" points="333.5,-30 173.5,-30 173.5,0 333.5,0 333.5,-30"/>
<text text-anchor="start" x="181.5" y="-18" font-family="Helvetica,sans-Serif" font-size="10.00">androidx.appcompat.app.App</text>
<text text-anchor="middle" x="253.5" y="-7" font-family="Helvetica,sans-Serif" font-size="10.00">CompatActivity</text>
</a>
</g>
</g>
<!-- Node1&#45;&gt;Node3 -->
<g id="edge2_Node000001_Node000003" class="edge">
<title>Node1&#45;&gt;Node3</title>
<g id="a_edge2_Node000001_Node000003"><a xlink:title=" ">
<path fill="none" stroke="#63b8ff" d="M618.34,-81.12C539.15,-66.99 422.24,-46.12 342.24,-31.84"/>
<polygon fill="#63b8ff" stroke="#63b8ff" points="342.64,-28.36 332.18,-30.04 341.41,-35.25 342.64,-28.36"/>
</a>
</g>
</g>
<!-- Node4 -->
<g id="Node000004" class="node">
<title>Node4</title>
<g id="a_Node000004"><a xlink:title=" ">
<polygon fill="#e0e0e0" stroke="#999999" points="429,-24.5 352,-24.5 352,-5.5 429,-5.5 429,-24.5"/>
<text text-anchor="middle" x="390.5" y="-12.5" font-family="Helvetica,sans-Serif" font-size="10.00">java.util.List</text>
</a>
</g>
</g>
<!-- Node1&#45;&gt;Node4 -->
<g id="edge3_Node000001_Node000004" class="edge">
<title>Node1&#45;&gt;Node4</title>
<g id="a_edge3_Node000001_Node000004"><a xlink:title=" ">
<path fill="none" stroke="#63b8ff" d="M618.27,-76.07C565.84,-63.4 497.63,-46.44 437.5,-30 434.38,-29.15 431.15,-28.24 427.91,-27.31"/>
<polygon fill="#63b8ff" stroke="#63b8ff" points="428.86,-23.94 418.28,-24.5 426.9,-30.66 428.86,-23.94"/>
</a>
</g>
</g>
<!-- Node5 -->
<g id="Node000005" class="node">
<title>Node5</title>
<g id="a_Node000005"><a xlink:title=" ">
<polygon fill="#e0e0e0" stroke="#999999" points="608,-24.5 447,-24.5 447,-5.5 608,-5.5 608,-24.5"/>
<text text-anchor="middle" x="527.5" y="-12.5" font-family="Helvetica,sans-Serif" font-size="10.00">java.util.concurrent.Executors</text>
</a>
</g>
</g>
<!-- Node1&#45;&gt;Node5 -->
<g id="edge4_Node000001_Node000005" class="edge">
<title>Node1&#45;&gt;Node5</title>
<g id="a_edge4_Node000001_Node000005"><a xlink:title=" ">
<path fill="none" stroke="#63b8ff" d="M637.33,-65.95C609.01,-53.07 577.58,-38.78 555.63,-28.79"/>
<polygon fill="#63b8ff" stroke="#63b8ff" points="556.8,-25.48 546.25,-24.53 553.9,-31.85 556.8,-25.48"/>
</a>
</g>
</g>
<!-- Node6 -->
<g id="Node000006" class="node">
<title>Node6</title>
<g id="a_Node000006"><a xlink:title=" ">
<polygon fill="#e0e0e0" stroke="#999999" points="782.5,-30 626.5,-30 626.5,0 782.5,0 782.5,-30"/>
<text text-anchor="start" x="634.5" y="-18" font-family="Helvetica,sans-Serif" font-size="10.00">java.util.concurrent.Executor</text>
<text text-anchor="middle" x="704.5" y="-7" font-family="Helvetica,sans-Serif" font-size="10.00">Service</text>
</a>
</g>
</g>
<!-- Node1&#45;&gt;Node6 -->
<g id="edge5_Node000001_Node000006" class="edge">
<title>Node1&#45;&gt;Node6</title>
<g id="a_edge5_Node000001_Node000006"><a xlink:title=" ">
<path fill="none" stroke="#63b8ff" d="M704.5,-65.61C704.5,-57.19 704.5,-48.2 704.5,-40.22"/>
<polygon fill="#63b8ff" stroke="#63b8ff" points="708,-40.1 704.5,-30.1 701,-40.1 708,-40.1"/>
</a>
</g>
</g>
<!-- Node7 -->
<g id="Node000007" class="node">
<title>Node7</title>
<g id="a_Node000007"><a xlink:title=" ">
<polygon fill="#e0e0e0" stroke="#999999" points="910,-24.5 801,-24.5 801,-5.5 910,-5.5 910,-24.5"/>
<text text-anchor="middle" x="855.5" y="-12.5" font-family="Helvetica,sans-Serif" font-size="10.00">android.os.Handler</text>
</a>
</g>
</g>
<!-- Node1&#45;&gt;Node7 -->
<g id="edge6_Node000001_Node000007" class="edge">
<title>Node1&#45;&gt;Node7</title>
<g id="a_edge6_Node000001_Node000007"><a xlink:title=" ">
<path fill="none" stroke="#63b8ff" d="M762.02,-65.84C785.72,-53.2 811.94,-39.22 830.56,-29.3"/>
<polygon fill="#63b8ff" stroke="#63b8ff" points="832.38,-32.29 839.55,-24.5 829.08,-26.12 832.38,-32.29"/>
</a>
</g>
</g>
<!-- Node8 -->
<g id="Node000008" class="node">
<title>Node8</title>
<g id="a_Node000008"><a xlink:title=" ">
<polygon fill="#e0e0e0" stroke="#999999" points="1032.5,-24.5 928.5,-24.5 928.5,-5.5 1032.5,-5.5 1032.5,-24.5"/>
<text text-anchor="middle" x="980.5" y="-12.5" font-family="Helvetica,sans-Serif" font-size="10.00">android.os.Looper</text>
</a>
</g>
</g>
<!-- Node1&#45;&gt;Node8 -->
<g id="edge7_Node000001_Node000008" class="edge">
<title>Node1&#45;&gt;Node8</title>
<g id="a_edge7_Node000001_Node000008"><a xlink:title=" ">
<path fill="none" stroke="#63b8ff" d="M790.69,-71.36C841.07,-56.67 902.23,-38.83 941.26,-27.45"/>
<polygon fill="#63b8ff" stroke="#63b8ff" points="942.55,-30.72 951.17,-24.56 940.59,-24 942.55,-30.72"/>
</a>
</g>
</g>
<!-- Node9 -->
<g id="Node000009" class="node">
<title>Node9</title>
<g id="a_Node000009"><a xlink:title=" ">
<polygon fill="#e0e0e0" stroke="#999999" points="1226.5,-30 1050.5,-30 1050.5,0 1226.5,0 1226.5,-30"/>
<text text-anchor="start" x="1058.5" y="-18" font-family="Helvetica,sans-Serif" font-size="10.00">com.example.mybookshelf.apis.</text>
<text text-anchor="middle" x="1138.5" y="-7" font-family="Helvetica,sans-Serif" font-size="10.00">BooksAPI</text>
</a>
</g>
</g>
<!-- Node1&#45;&gt;Node9 -->
<g id="edge8_Node000001_Node000009" class="edge">
<title>Node1&#45;&gt;Node9</title>
<g id="a_edge8_Node000001_Node000009"><a xlink:title=" ">
<path fill="none" stroke="#63b8ff" d="M790.5,-80.55C866.54,-66.44 976.86,-45.98 1052.8,-31.9"/>
<polygon fill="#63b8ff" stroke="#63b8ff" points="1053.62,-35.3 1062.82,-30.04 1052.35,-28.42 1053.62,-35.3"/>
</a>
</g>
</g>
<!-- Node10 -->
<g id="Node000010" class="node">
<title>Node10</title>
<g id="a_Node000010"><a xlink:title=" ">
<polygon fill="#e0e0e0" stroke="#999999" points="1418.5,-30 1244.5,-30 1244.5,0 1418.5,0 1418.5,-30"/>
<text text-anchor="start" x="1252.5" y="-18" font-family="Helvetica,sans-Serif" font-size="10.00">com.example.mybookshelf.data</text>
<text text-anchor="middle" x="1331.5" y="-7" font-family="Helvetica,sans-Serif" font-size="10.00">Class.Book</text>
</a>
</g>
</g>
<!-- Node1&#45;&gt;Node10 -->
<g id="edge9_Node000001_Node000010" class="edge">
<title>Node1&#45;&gt;Node10</title>
<g id="a_edge9_Node000001_Node000010"><a xlink:title=" ">
<path fill="none" stroke="#63b8ff" d="M790.56,-86.26C893.49,-73.9 1071.28,-52.16 1234.18,-30.16"/>
<polygon fill="#63b8ff" stroke="#63b8ff" points="1234.95,-33.59 1244.39,-28.78 1234.01,-26.65 1234.95,-33.59"/>
</a>
</g>
</g>
</g>
</svg>
