<?xml version="1.0" encoding="UTF-8" standalone="no"?>
<!DOCTYPE svg PUBLIC "-//W3C//DTD SVG 1.1//EN"
 "http://www.w3.org/Graphics/SVG/1.1/DTD/svg11.dtd">
<!-- Generated by graphviz version 2.43.0 (0)
 -->
<!-- Title: com.example.mybookshelf.BookRecommendationFlow.handleAI Pages: 1 -->
<svg width="2325pt" height="933pt"
 viewBox="0.00 0.00 2325.00 933.37" xmlns="http://www.w3.org/2000/svg" xmlns:xlink="http://www.w3.org/1999/xlink">
<g id="graph0" class="graph" transform="scale(1 1) rotate(0) translate(4 929.37)">
<title>com.example.mybookshelf.BookRecommendationFlow.handleAI</title>
<!-- Node1 -->
<g id="Node000001" class="node">
<title>Node1</title>
<g id="a_Node000001"><a xlink:title=" ">
<polygon fill="#999999" stroke="#666666" points="196,-443.63 0,-443.63 0,-413.63 196,-413.63 196,-443.63"/>
<text text-anchor="start" x="8" y="-431.63" font-family="Helvetica,sans-Serif" font-size="10.00">com.example.mybookshelf.</text>
<text text-anchor="middle" x="98" y="-420.63" font-family="Helvetica,sans-Serif" font-size="10.00">BookRecommendationFlow.handleAI</text>
</a>
</g>
</g>
<!-- Node2 -->
<g id="Node000002" class="node">
<title>Node2</title>
<g id="a_Node000002"><a xlink:href="$classcom_1_1example_1_1mybookshelf_1_1BookRecommendationFlow.html#a276e931dabe3e85af257a9d16ce7cc67" xlink:title=" ">
<polygon fill="white" stroke="#666666" points="918,-776.13 715,-776.13 715,-735.13 918,-735.13 918,-776.13"/>
<text text-anchor="start" x="723" y="-764.13" font-family="Helvetica,sans-Serif" font-size="10.00">com.example.mybookshelf.</text>
<text text-anchor="start" x="723" y="-753.13" font-family="Helvetica,sans-Serif" font-size="10.00">BookRecommendationFlow.showBook</text>
<text text-anchor="middle" x="816.5" y="-742.13" font-family="Helvetica,sans-Serif" font-size="10.00">BasedStep1</text>
</a>
</g>
</g>
<!-- Node1&#45;&gt;Node2 -->
<g id="edge79_Node000001_Node000002" class="edge">
<title>Node1&#45;&gt;Node2</title>
<g id="a_edge79_Node000001_Node000002"><a xlink:title=" ">
<path fill="none" stroke="#63b8ff" d="M132.12,-443.74C245.66,-495.56 619.86,-666.34 760.99,-730.75"/>
<polygon fill="#63b8ff" stroke="#63b8ff" points="759.79,-734.05 770.34,-735.02 762.7,-727.68 759.79,-734.05"/>
</a>
</g>
</g>
<!-- Node13 -->
<g id="Node000013" class="node">
<title>Node13</title>
<g id="a_Node000013"><a xlink:href="$classcom_1_1example_1_1mybookshelf_1_1BookRecommendationFlow.html#a4c7dc337216592f7f214f69ce7009d37" xlink:title=" ">
<polygon fill="white" stroke="#666666" points="437,-449.13 232,-449.13 232,-408.13 437,-408.13 437,-449.13"/>
<text text-anchor="start" x="240" y="-437.13" font-family="Helvetica,sans-Serif" font-size="10.00">com.example.mybookshelf.</text>
<text text-anchor="start" x="240" y="-426.13" font-family="Helvetica,sans-Serif" font-size="10.00">BookRecommendationFlow.showFresh</text>
<text text-anchor="middle" x="334.5" y="-415.13" font-family="Helvetica,sans-Serif" font-size="10.00">StartStep1</text>
</a>
</g>
</g>
<!-- Node1&#45;&gt;Node13 -->
<g id="edge101_Node000001_Node000013" class="edge">
<title>Node1&#45;&gt;Node13</title>
<g id="a_edge101_Node000001_Node000013"><a xlink:title=" ">
<path fill="none" stroke="#63b8ff" d="M196.07,-428.63C204.59,-428.63 213.25,-428.63 221.86,-428.63"/>
<polygon fill="#63b8ff" stroke="#63b8ff" points="221.95,-432.13 231.95,-428.63 221.95,-425.13 221.95,-432.13"/>
</a>
</g>
</g>
<!-- Node3 -->
<g id="Node000003" class="node">
<title>Node3</title>
<g id="a_Node000003"><a xlink:href="$classcom_1_1example_1_1mybookshelf_1_1BookRecommendationFlow.html#a3855117e802e54923c308e0df6280c17" xlink:title=" ">
<polygon fill="white" stroke="#666666" points="2317,-230.13 2123,-230.13 2123,-189.13 2317,-189.13 2317,-230.13"/>
<text text-anchor="start" x="2131" y="-218.13" font-family="Helvetica,sans-Serif" font-size="10.00">com.example.mybookshelf.</text>
<text text-anchor="start" x="2131" y="-207.13" font-family="Helvetica,sans-Serif" font-size="10.00">BookRecommendationFlow.addChat</text>
<text text-anchor="middle" x="2220" y="-196.13" font-family="Helvetica,sans-Serif" font-size="10.00">Message</text>
</a>
</g>
</g>
<!-- Node2&#45;&gt;Node3 -->
<g id="edge80_Node000002_Node000003" class="edge">
<title>Node2&#45;&gt;Node3</title>
<g id="a_edge80_Node000002_Node000003"><a xlink:title=" ">
<path fill="none" stroke="#63b8ff" d="M823.88,-735.07C844.95,-667.99 913.3,-456.38 955,-398.63 1064.71,-246.67 1110.08,-152.63 1297.5,-152.63 1297.5,-152.63 1297.5,-152.63 1741,-152.63 1869.54,-152.63 2016.17,-173.2 2112.75,-189.63"/>
<polygon fill="#63b8ff" stroke="#63b8ff" points="2112.37,-193.11 2122.81,-191.35 2113.55,-186.21 2112.37,-193.11"/>
</a>
</g>
</g>
<!-- Node4 -->
<g id="Node000004" class="node">
<title>Node4</title>
<g id="a_Node000004"><a xlink:href="$classcom_1_1example_1_1mybookshelf_1_1BookRecommendationFlow.html#a02b6d699653b58f244907bd10db53ab5" xlink:title=" ">
<polygon fill="white" stroke="#666666" points="2312,-768.13 2128,-768.13 2128,-727.13 2312,-727.13 2312,-768.13"/>
<text text-anchor="start" x="2136" y="-756.13" font-family="Helvetica,sans-Serif" font-size="10.00">com.example.mybookshelf.</text>
<text text-anchor="start" x="2136" y="-745.13" font-family="Helvetica,sans-Serif" font-size="10.00">BookRecommendationFlow.create</text>
<text text-anchor="middle" x="2220" y="-734.13" font-family="Helvetica,sans-Serif" font-size="10.00">StyledGridButton</text>
</a>
</g>
</g>
<!-- Node2&#45;&gt;Node4 -->
<g id="edge81_Node000002_Node000004" class="edge">
<title>Node2&#45;&gt;Node4</title>
<g id="a_edge81_Node000002_Node000004"><a xlink:title=" ">
<path fill="none" stroke="#63b8ff" d="M852.95,-776.19C879.98,-790.77 918.62,-809.34 955,-818.63 1102.86,-856.35 1144.9,-842.63 1297.5,-842.63 1297.5,-842.63 1297.5,-842.63 1741,-842.63 1895.15,-842.63 1938.91,-861.43 2087,-818.63 2120.77,-808.87 2155.65,-789.64 2181.07,-773.65"/>
<polygon fill="#63b8ff" stroke="#63b8ff" points="2183.12,-776.5 2189.65,-768.15 2179.34,-770.6 2183.12,-776.5"/>
</a>
</g>
</g>
<!-- Node5 -->
<g id="Node000005" class="node">
<title>Node5</title>
<g id="a_Node000005"><a xlink:href="$classcom_1_1example_1_1mybookshelf_1_1BookRecommendationFlow.html#a5c657be258c13c85848c7b7115f8a0b5" xlink:title=" ">
<polygon fill="white" stroke="#666666" points="1159,-728.13 956,-728.13 956,-687.13 1159,-687.13 1159,-728.13"/>
<text text-anchor="start" x="964" y="-716.13" font-family="Helvetica,sans-Serif" font-size="10.00">com.example.mybookshelf.</text>
<text text-anchor="start" x="964" y="-705.13" font-family="Helvetica,sans-Serif" font-size="10.00">BookRecommendationFlow.showBook</text>
<text text-anchor="middle" x="1057.5" y="-694.13" font-family="Helvetica,sans-Serif" font-size="10.00">BasedStep2</text>
</a>
</g>
</g>
<!-- Node2&#45;&gt;Node5 -->
<g id="edge82_Node000002_Node000005" class="edge">
<title>Node2&#45;&gt;Node5</title>
<g id="a_edge82_Node000002_Node000005"><a xlink:title=" ">
<path fill="none" stroke="#63b8ff" d="M918.16,-735.41C927.35,-733.56 936.68,-731.69 945.94,-729.83"/>
<polygon fill="#63b8ff" stroke="#63b8ff" points="946.84,-733.22 955.95,-727.82 945.46,-726.36 946.84,-733.22"/>
</a>
</g>
</g>
<!-- Node5&#45;&gt;Node3 -->
<g id="edge83_Node000005_Node000003" class="edge">
<title>Node5&#45;&gt;Node3</title>
<g id="a_edge83_Node000005_Node000003"><a xlink:title=" ">
<path fill="none" stroke="#63b8ff" d="M1066.76,-686.72C1092.93,-620.82 1173.6,-420.54 1196,-398.63 1279.01,-317.4 1325.6,-330.47 1437,-297.63 1529.24,-270.43 1554.68,-272.29 1650,-259.63 1810.67,-238.28 1998.11,-223.81 2112.65,-216.14"/>
<polygon fill="#63b8ff" stroke="#63b8ff" points="2113.07,-219.62 2122.82,-215.46 2112.61,-212.63 2113.07,-219.62"/>
</a>
</g>
</g>
<!-- Node5&#45;&gt;Node4 -->
<g id="edge84_Node000005_Node000004" class="edge">
<title>Node5&#45;&gt;Node4</title>
<g id="a_edge84_Node000005_Node000004"><a xlink:title=" ">
<path fill="none" stroke="#63b8ff" d="M1129.36,-728.2C1150.63,-733.69 1174.12,-739.07 1196,-742.63 1340.49,-766.11 1378.11,-766.63 1524.5,-766.63 1524.5,-766.63 1524.5,-766.63 1741,-766.63 1871.15,-766.63 2021.07,-759.51 2117.79,-753.98"/>
<polygon fill="#63b8ff" stroke="#63b8ff" points="2118.07,-757.47 2127.85,-753.4 2117.67,-750.48 2118.07,-757.47"/>
</a>
</g>
</g>
<!-- Node6 -->
<g id="Node000006" class="node">
<title>Node6</title>
<g id="a_Node000006"><a xlink:href="$classcom_1_1example_1_1mybookshelf_1_1BookRecommendationFlow.html#aa95301256c7f5377d1bc432189483b3c" xlink:title=" ">
<polygon fill="white" stroke="#666666" points="1400,-681.13 1197,-681.13 1197,-640.13 1400,-640.13 1400,-681.13"/>
<text text-anchor="start" x="1205" y="-669.13" font-family="Helvetica,sans-Serif" font-size="10.00">com.example.mybookshelf.</text>
<text text-anchor="start" x="1205" y="-658.13" font-family="Helvetica,sans-Serif" font-size="10.00">BookRecommendationFlow.showBook</text>
<text text-anchor="middle" x="1298.5" y="-647.13" font-family="Helvetica,sans-Serif" font-size="10.00">BasedStep3</text>
</a>
</g>
</g>
<!-- Node5&#45;&gt;Node6 -->
<g id="edge85_Node000005_Node000006" class="edge">
<title>Node5&#45;&gt;Node6</title>
<g id="a_edge85_Node000005_Node000006"><a xlink:title=" ">
<path fill="none" stroke="#63b8ff" d="M1159.16,-687.83C1168.35,-686.02 1177.68,-684.19 1186.94,-682.37"/>
<polygon fill="#63b8ff" stroke="#63b8ff" points="1187.81,-685.76 1196.95,-680.4 1186.46,-678.89 1187.81,-685.76"/>
</a>
</g>
</g>
<!-- Node6&#45;&gt;Node3 -->
<g id="edge86_Node000006_Node000003" class="edge">
<title>Node6&#45;&gt;Node3</title>
<g id="a_edge86_Node000006_Node000003"><a xlink:title=" ">
<path fill="none" stroke="#63b8ff" d="M1311.26,-639.85C1332.25,-604.46 1379.4,-532.19 1437,-489.63 1602.07,-367.64 1670.23,-380.3 1866,-318.63 1962.24,-288.31 1991.2,-298.31 2087,-266.63 2114.09,-257.67 2143.31,-245.34 2167.36,-234.44"/>
<polygon fill="#63b8ff" stroke="#63b8ff" points="2169.01,-237.54 2176.64,-230.19 2166.09,-231.17 2169.01,-237.54"/>
</a>
</g>
</g>
<!-- Node6&#45;&gt;Node4 -->
<g id="edge100_Node000006_Node000004" class="edge">
<title>Node6&#45;&gt;Node4</title>
<g id="a_edge100_Node000006_Node000004"><a xlink:title=" ">
<path fill="none" stroke="#63b8ff" d="M1400.21,-661.86C1550.59,-664.98 1842.34,-675.96 2087,-714.63 2103.13,-717.17 2120.18,-720.75 2136.48,-724.62"/>
<polygon fill="#63b8ff" stroke="#63b8ff" points="2135.96,-728.1 2146.51,-727.06 2137.62,-721.3 2135.96,-728.1"/>
</a>
</g>
</g>
<!-- Node7 -->
<g id="Node000007" class="node">
<title>Node7</title>
<g id="a_Node000007"><a xlink:href="$classcom_1_1example_1_1mybookshelf_1_1BookRecommendationFlow.html#a78dda71d2c403a463d824ff61b2ce27f" xlink:title=" ">
<polygon fill="white" stroke="#666666" points="1614,-633.13 1437,-633.13 1437,-592.13 1614,-592.13 1614,-633.13"/>
<text text-anchor="start" x="1445" y="-621.13" font-family="Helvetica,sans-Serif" font-size="10.00">com.example.mybookshelf.</text>
<text text-anchor="start" x="1445" y="-610.13" font-family="Helvetica,sans-Serif" font-size="10.00">BookRecommendationFlow.build</text>
<text text-anchor="middle" x="1525.5" y="-599.13" font-family="Helvetica,sans-Serif" font-size="10.00">AIStringBased</text>
</a>
</g>
</g>
<!-- Node6&#45;&gt;Node7 -->
<g id="edge87_Node000006_Node000007" class="edge">
<title>Node6&#45;&gt;Node7</title>
<g id="a_edge87_Node000006_Node000007"><a xlink:title=" ">
<path fill="none" stroke="#63b8ff" d="M1395.9,-640.06C1406.2,-637.86 1416.69,-635.62 1427.01,-633.42"/>
<polygon fill="#63b8ff" stroke="#63b8ff" points="1427.79,-636.84 1436.84,-631.33 1426.33,-629.99 1427.79,-636.84"/>
</a>
</g>
</g>
<!-- Node8 -->
<g id="Node000008" class="node">
<title>Node8</title>
<g id="a_Node000008"><a xlink:href="$classcom_1_1example_1_1mybookshelf_1_1BookRecommendationFlow.html#ae50cf18619872a365eebe91c18d86e8d" xlink:title=" ">
<polygon fill="white" stroke="#666666" points="1830,-538.63 1650,-538.63 1650,-508.63 1830,-508.63 1830,-538.63"/>
<text text-anchor="start" x="1658" y="-526.63" font-family="Helvetica,sans-Serif" font-size="10.00">com.example.mybookshelf.</text>
<text text-anchor="middle" x="1740" y="-515.63" font-family="Helvetica,sans-Serif" font-size="10.00">BookRecommendationFlow.callAI</text>
</a>
</g>
</g>
<!-- Node7&#45;&gt;Node8 -->
<g id="edge88_Node000007_Node000008" class="edge">
<title>Node7&#45;&gt;Node8</title>
<g id="a_edge88_Node000007_Node000008"><a xlink:title=" ">
<path fill="none" stroke="#63b8ff" d="M1575.52,-592.1C1611.15,-577.17 1659.01,-557.13 1693.74,-542.58"/>
<polygon fill="#63b8ff" stroke="#63b8ff" points="1695.29,-545.73 1703.16,-538.64 1692.59,-539.27 1695.29,-545.73"/>
</a>
</g>
</g>
<!-- Node8&#45;&gt;Node3 -->
<g id="edge89_Node000008_Node000003" class="edge">
<title>Node8&#45;&gt;Node3</title>
<g id="a_edge89_Node000008_Node000003"><a xlink:title=" ">
<path fill="none" stroke="#63b8ff" d="M1748.12,-508.13C1764.1,-475.27 1806.14,-398.56 1866,-361.63 1951.16,-309.08 1996.52,-361.36 2087,-318.63 2128.65,-298.96 2168.24,-263.16 2193.01,-237.97"/>
<polygon fill="#63b8ff" stroke="#63b8ff" points="2195.77,-240.14 2200.21,-230.52 2190.74,-235.28 2195.77,-240.14"/>
</a>
</g>
</g>
<!-- Node8&#45;&gt;Node4 -->
<g id="edge91_Node000008_Node000004" class="edge">
<title>Node8&#45;&gt;Node4</title>
<g id="a_edge91_Node000008_Node000004"><a xlink:title=" ">
<path fill="none" stroke="#63b8ff" d="M1753.48,-538.71C1774.2,-562.67 1818.19,-609.13 1866,-632.63 1955.88,-676.8 1992.75,-642.75 2087,-676.63 2119.2,-688.2 2153.15,-706.61 2178.55,-721.79"/>
<polygon fill="#63b8ff" stroke="#63b8ff" points="2176.8,-724.82 2187.17,-727.01 2180.43,-718.83 2176.8,-724.82"/>
</a>
</g>
</g>
<!-- Node8&#45;&gt;Node8 -->
<g id="edge90_Node000008_Node000008" class="edge">
<title>Node8&#45;&gt;Node8</title>
<g id="a_edge90_Node000008_Node000008"><a xlink:title=" ">
<path fill="none" stroke="#63b8ff" d="M1702.38,-538.9C1694.02,-548.03 1706.56,-556.63 1740,-556.63 1759.85,-556.63 1772.34,-553.6 1777.46,-549.22"/>
<polygon fill="#63b8ff" stroke="#63b8ff" points="1780.96,-548.95 1777.62,-538.9 1773.96,-548.85 1780.96,-548.95"/>
</a>
</g>
</g>
<!-- Node9 -->
<g id="Node000009" class="node">
<title>Node9</title>
<g id="a_Node000009"><a xlink:href="$classcom_1_1example_1_1mybookshelf_1_1apis_1_1AiAPI.html#a4a45b91f0717302661d9e35ed956c049" xlink:title=" ">
<polygon fill="white" stroke="#666666" points="2064.5,-546.63 1888.5,-546.63 1888.5,-516.63 2064.5,-516.63 2064.5,-546.63"/>
<text text-anchor="start" x="1896.5" y="-534.63" font-family="Helvetica,sans-Serif" font-size="10.00">com.example.mybookshelf.apis.</text>
<text text-anchor="middle" x="1976.5" y="-523.63" font-family="Helvetica,sans-Serif" font-size="10.00">AiAPI.fetchResponse</text>
</a>
</g>
</g>
<!-- Node8&#45;&gt;Node9 -->
<g id="edge92_Node000008_Node000009" class="edge">
<title>Node8&#45;&gt;Node9</title>
<g id="a_edge92_Node000008_Node000009"><a xlink:title=" ">
<path fill="none" stroke="#63b8ff" d="M1830.32,-526.67C1845.93,-527.21 1862.24,-527.76 1878.05,-528.3"/>
<polygon fill="#63b8ff" stroke="#63b8ff" points="1878.25,-531.81 1888.36,-528.65 1878.49,-524.81 1878.25,-531.81"/>
</a>
</g>
</g>
<!-- Node10 -->
<g id="Node000010" class="node">
<title>Node10</title>
<g id="a_Node000010"><a xlink:href="$classcom_1_1example_1_1mybookshelf_1_1BookRecommendationFlow.html#a4dceb0fa4d170b8c7e5a7a6718593dfe" xlink:title=" ">
<polygon fill="white" stroke="#666666" points="2076.5,-400.63 1876.5,-400.63 1876.5,-370.63 2076.5,-370.63 2076.5,-400.63"/>
<text text-anchor="start" x="1884.5" y="-388.63" font-family="Helvetica,sans-Serif" font-size="10.00">com.example.mybookshelf.</text>
<text text-anchor="middle" x="1976.5" y="-377.63" font-family="Helvetica,sans-Serif" font-size="10.00">BookRecommendationFlow.handleNo</text>
</a>
</g>
</g>
<!-- Node8&#45;&gt;Node10 -->
<g id="edge94_Node000008_Node000010" class="edge">
<title>Node8&#45;&gt;Node10</title>
<g id="a_edge94_Node000008_Node000010"><a xlink:title=" ">
<path fill="none" stroke="#63b8ff" d="M1765.3,-508.55C1790.39,-493.05 1830.73,-468.32 1866,-447.63 1890.4,-433.31 1918.13,-417.61 1939.59,-405.59"/>
<polygon fill="#63b8ff" stroke="#63b8ff" points="1941.35,-408.62 1948.37,-400.68 1937.93,-402.51 1941.35,-408.62"/>
</a>
</g>
</g>
<!-- Node11 -->
<g id="Node000011" class="node">
<title>Node11</title>
<g id="a_Node000011"><a xlink:href="$classcom_1_1example_1_1mybookshelf_1_1BookRecommendationFlow.html#ac62af5d6edeffa96b2862a609ebb40df" xlink:title=" ">
<polygon fill="white" stroke="#666666" points="2084.5,-498.13 1868.5,-498.13 1868.5,-457.13 2084.5,-457.13 2084.5,-498.13"/>
<text text-anchor="start" x="1876.5" y="-486.13" font-family="Helvetica,sans-Serif" font-size="10.00">com.example.mybookshelf.</text>
<text text-anchor="start" x="1876.5" y="-475.13" font-family="Helvetica,sans-Serif" font-size="10.00">BookRecommendationFlow.hideThinking</text>
<text text-anchor="middle" x="1976.5" y="-464.13" font-family="Helvetica,sans-Serif" font-size="10.00">Animation</text>
</a>
</g>
</g>
<!-- Node8&#45;&gt;Node11 -->
<g id="edge98_Node000008_Node000011" class="edge">
<title>Node8&#45;&gt;Node11</title>
<g id="a_edge98_Node000008_Node000011"><a xlink:title=" ">
<path fill="none" stroke="#63b8ff" d="M1817.78,-508.56C1831.57,-505.86 1846.2,-502.99 1860.78,-500.13"/>
<polygon fill="#63b8ff" stroke="#63b8ff" points="1861.72,-503.51 1870.86,-498.15 1860.37,-496.64 1861.72,-503.51"/>
</a>
</g>
</g>
<!-- Node12 -->
<g id="Node000012" class="node">
<title>Node12</title>
<g id="a_Node000012"><a xlink:href="$classcom_1_1example_1_1mybookshelf_1_1BookRecommendationFlow.html#a78597ba37409daeee77dcfa6236b2e6a" xlink:title=" ">
<polygon fill="white" stroke="#666666" points="2087,-624.13 1866,-624.13 1866,-583.13 2087,-583.13 2087,-624.13"/>
<text text-anchor="start" x="1874" y="-612.13" font-family="Helvetica,sans-Serif" font-size="10.00">com.example.mybookshelf.</text>
<text text-anchor="start" x="1874" y="-601.13" font-family="Helvetica,sans-Serif" font-size="10.00">BookRecommendationFlow.showThinking</text>
<text text-anchor="middle" x="1976.5" y="-590.13" font-family="Helvetica,sans-Serif" font-size="10.00">Animation</text>
</a>
</g>
</g>
<!-- Node8&#45;&gt;Node12 -->
<g id="edge99_Node000008_Node000012" class="edge">
<title>Node8&#45;&gt;Node12</title>
<g id="a_edge99_Node000008_Node000012"><a xlink:title=" ">
<path fill="none" stroke="#63b8ff" d="M1775.63,-538.7C1800.5,-549.23 1834.98,-563.21 1866,-573.63 1872.68,-575.87 1879.63,-578.07 1886.64,-580.2"/>
<polygon fill="#63b8ff" stroke="#63b8ff" points="1885.65,-583.55 1896.23,-583.05 1887.64,-576.84 1885.65,-583.55"/>
</a>
</g>
</g>
<!-- Node9&#45;&gt;Node9 -->
<g id="edge93_Node000009_Node000009" class="edge">
<title>Node9&#45;&gt;Node9</title>
<g id="a_edge93_Node000009_Node000009"><a xlink:title=" ">
<path fill="none" stroke="#63b8ff" d="M1935.02,-546.9C1925.8,-556.03 1939.62,-564.63 1976.5,-564.63 1998.39,-564.63 2012.16,-561.6 2017.81,-557.22"/>
<polygon fill="#63b8ff" stroke="#63b8ff" points="2021.31,-556.96 2017.98,-546.9 2014.31,-556.84 2021.31,-556.96"/>
</a>
</g>
</g>
<!-- Node10&#45;&gt;Node1 -->
<g id="edge97_Node000010_Node000001" class="edge">
<title>Node10&#45;&gt;Node1</title>
<g id="a_edge97_Node000010_Node000001"><a xlink:title=" ">
<path fill="none" stroke="#63b8ff" d="M1953.64,-370.49C1854.97,-303.7 1439.36,-38.63 1058.5,-38.63 574.5,-38.63 574.5,-38.63 574.5,-38.63 342.44,-38.63 161.67,-319.76 112.37,-404.64"/>
<polygon fill="#63b8ff" stroke="#63b8ff" points="109.33,-402.92 107.39,-413.34 115.4,-406.4 109.33,-402.92"/>
</a>
</g>
</g>
<!-- Node10&#45;&gt;Node3 -->
<g id="edge95_Node000010_Node000003" class="edge">
<title>Node10&#45;&gt;Node3</title>
<g id="a_edge95_Node000010_Node000003"><a xlink:title=" ">
<path fill="none" stroke="#63b8ff" d="M2056.66,-370.6C2067.27,-366.91 2077.69,-362.32 2087,-356.63 2136.42,-326.39 2178.09,-272.06 2200.72,-238.59"/>
<polygon fill="#63b8ff" stroke="#63b8ff" points="2203.71,-240.42 2206.32,-230.15 2197.88,-236.55 2203.71,-240.42"/>
</a>
</g>
</g>
<!-- Node10&#45;&gt;Node4 -->
<g id="edge96_Node000010_Node000004" class="edge">
<title>Node10&#45;&gt;Node4</title>
<g id="a_edge96_Node000010_Node000004"><a xlink:title=" ">
<path fill="none" stroke="#63b8ff" d="M2065.37,-400.66C2073.22,-404.36 2080.6,-408.95 2087,-414.63 2179.06,-496.38 2207.68,-650.84 2215.92,-716.66"/>
<polygon fill="#63b8ff" stroke="#63b8ff" points="2212.47,-717.28 2217.11,-726.8 2219.42,-716.46 2212.47,-717.28"/>
</a>
</g>
</g>
<!-- Node13&#45;&gt;Node3 -->
<g id="edge102_Node000013_Node000003" class="edge">
<title>Node13&#45;&gt;Node3</title>
<g id="a_edge102_Node000013_Node000003"><a xlink:title=" ">
<path fill="none" stroke="#63b8ff" d="M353.82,-407.94C405.06,-351.28 556.48,-192.08 714,-105.63 853.57,-29.02 897.29,-0.63 1056.5,-0.63 1056.5,-0.63 1056.5,-0.63 1741,-0.63 1897.55,-0.63 1950.14,9.38 2087,-66.63 2136.75,-94.26 2178.18,-147.44 2200.7,-180.58"/>
<polygon fill="#63b8ff" stroke="#63b8ff" points="2197.82,-182.57 2206.28,-188.96 2203.65,-178.69 2197.82,-182.57"/>
</a>
</g>
</g>
<!-- Node13&#45;&gt;Node4 -->
<g id="edge103_Node000013_Node000004" class="edge">
<title>Node13&#45;&gt;Node4</title>
<g id="a_edge103_Node000013_Node000004"><a xlink:title=" ">
<path fill="none" stroke="#63b8ff" d="M343.5,-449.37C380.94,-542.63 548.45,-918.63 815.5,-918.63 815.5,-918.63 815.5,-918.63 1741,-918.63 1895.7,-918.63 1947.65,-947.82 2087,-880.63 2135.62,-857.18 2176.66,-808.27 2199.52,-776.74"/>
<polygon fill="#63b8ff" stroke="#63b8ff" points="2202.55,-778.53 2205.48,-768.35 2196.84,-774.47 2202.55,-778.53"/>
</a>
</g>
</g>
<!-- Node14 -->
<g id="Node000014" class="node">
<title>Node14</title>
<g id="a_Node000014"><a xlink:href="$classcom_1_1example_1_1mybookshelf_1_1BookRecommendationFlow.html#aaf567ca97b0d7f0c58ebba4d6f4b18bd" xlink:title=" ">
<polygon fill="white" stroke="#666666" points="678,-449.13 473,-449.13 473,-408.13 678,-408.13 678,-449.13"/>
<text text-anchor="start" x="481" y="-437.13" font-family="Helvetica,sans-Serif" font-size="10.00">com.example.mybookshelf.</text>
<text text-anchor="start" x="481" y="-426.13" font-family="Helvetica,sans-Serif" font-size="10.00">BookRecommendationFlow.showFresh</text>
<text text-anchor="middle" x="575.5" y="-415.13" font-family="Helvetica,sans-Serif" font-size="10.00">StartStep2</text>
</a>
</g>
</g>
<!-- Node13&#45;&gt;Node14 -->
<g id="edge104_Node000013_Node000014" class="edge">
<title>Node13&#45;&gt;Node14</title>
<g id="a_edge104_Node000013_Node000014"><a xlink:title=" ">
<path fill="none" stroke="#63b8ff" d="M437.2,-428.63C445.7,-428.63 454.31,-428.63 462.87,-428.63"/>
<polygon fill="#63b8ff" stroke="#63b8ff" points="462.89,-432.13 472.89,-428.63 462.89,-425.13 462.89,-432.13"/>
</a>
</g>
</g>
<!-- Node14&#45;&gt;Node3 -->
<g id="edge105_Node000014_Node000003" class="edge">
<title>Node14&#45;&gt;Node3</title>
<g id="a_edge105_Node000014_Node000003"><a xlink:title=" ">
<path fill="none" stroke="#63b8ff" d="M592.17,-407.76C639.25,-346.81 786.67,-168.44 955,-90.63 996.34,-71.52 1010.96,-76.63 1056.5,-76.63 1056.5,-76.63 1056.5,-76.63 1741,-76.63 1895.35,-76.63 1943.35,-50.15 2087,-106.63 2128.92,-123.11 2168.46,-157.38 2193.14,-181.86"/>
<polygon fill="#63b8ff" stroke="#63b8ff" points="2190.79,-184.46 2200.31,-189.11 2195.77,-179.54 2190.79,-184.46"/>
</a>
</g>
</g>
<!-- Node14&#45;&gt;Node4 -->
<g id="edge106_Node000014_Node000004" class="edge">
<title>Node14&#45;&gt;Node4</title>
<g id="a_edge106_Node000014_Node000004"><a xlink:title=" ">
<path fill="none" stroke="#63b8ff" d="M578.21,-449.48C584.35,-510.58 610.8,-690.82 714,-784.63 830.98,-890.96 898.41,-880.63 1056.5,-880.63 1056.5,-880.63 1056.5,-880.63 1741,-880.63 1895.48,-880.63 1943.07,-903.73 2087,-847.63 2128.03,-831.63 2167.21,-798.98 2192.07,-775.33"/>
<polygon fill="#63b8ff" stroke="#63b8ff" points="2194.57,-777.78 2199.31,-768.31 2189.7,-772.76 2194.57,-777.78"/>
</a>
</g>
</g>
<!-- Node15 -->
<g id="Node000015" class="node">
<title>Node15</title>
<g id="a_Node000015"><a xlink:href="$classcom_1_1example_1_1mybookshelf_1_1BookRecommendationFlow.html#a2bc1c0125eb3c1fe64ed1ed3ee93d3eb" xlink:title=" ">
<polygon fill="white" stroke="#666666" points="919,-449.13 714,-449.13 714,-408.13 919,-408.13 919,-449.13"/>
<text text-anchor="start" x="722" y="-437.13" font-family="Helvetica,sans-Serif" font-size="10.00">com.example.mybookshelf.</text>
<text text-anchor="start" x="722" y="-426.13" font-family="Helvetica,sans-Serif" font-size="10.00">BookRecommendationFlow.showFresh</text>
<text text-anchor="middle" x="816.5" y="-415.13" font-family="Helvetica,sans-Serif" font-size="10.00">StartStep3</text>
</a>
</g>
</g>
<!-- Node14&#45;&gt;Node15 -->
<g id="edge107_Node000014_Node000015" class="edge">
<title>Node14&#45;&gt;Node15</title>
<g id="a_edge107_Node000014_Node000015"><a xlink:title=" ">
<path fill="none" stroke="#63b8ff" d="M678.2,-428.63C686.7,-428.63 695.31,-428.63 703.87,-428.63"/>
<polygon fill="#63b8ff" stroke="#63b8ff" points="703.89,-432.13 713.89,-428.63 703.89,-425.13 703.89,-432.13"/>
</a>
</g>
</g>
<!-- Node15&#45;&gt;Node3 -->
<g id="edge108_Node000015_Node000003" class="edge">
<title>Node15&#45;&gt;Node3</title>
<g id="a_edge108_Node000015_Node000003"><a xlink:title=" ">
<path fill="none" stroke="#63b8ff" d="M820.21,-407.97C828.63,-353.13 859.74,-203.66 955,-138.63 1081.03,-52.59 1144.9,-114.63 1297.5,-114.63 1297.5,-114.63 1297.5,-114.63 1741,-114.63 1895.15,-114.63 1938.91,-95.82 2087,-138.63 2120.77,-148.39 2155.65,-167.61 2181.07,-183.6"/>
<polygon fill="#63b8ff" stroke="#63b8ff" points="2179.34,-186.65 2189.65,-189.1 2183.12,-180.75 2179.34,-186.65"/>
</a>
</g>
</g>
<!-- Node15&#45;&gt;Node4 -->
<g id="edge109_Node000015_Node000004" class="edge">
<title>Node15&#45;&gt;Node4</title>
<g id="a_edge109_Node000015_Node000004"><a xlink:title=" ">
<path fill="none" stroke="#63b8ff" d="M820.21,-449.44C828.68,-505.56 860.02,-660.84 955,-736.63 1076.31,-833.42 1142.31,-804.63 1297.5,-804.63 1297.5,-804.63 1297.5,-804.63 1741,-804.63 1895.35,-804.63 1934.25,-796.79 2087,-774.63 2097.09,-773.16 2107.56,-771.41 2118.01,-769.52"/>
<polygon fill="#63b8ff" stroke="#63b8ff" points="2118.8,-772.93 2127.99,-767.67 2117.52,-766.05 2118.8,-772.93"/>
</a>
</g>
</g>
<!-- Node16 -->
<g id="Node000016" class="node">
<title>Node16</title>
<g id="a_Node000016"><a xlink:href="$classcom_1_1example_1_1mybookshelf_1_1BookRecommendationFlow.html#ad10515cfcf8650b6830b68f15d393b3b" xlink:title=" ">
<polygon fill="white" stroke="#666666" points="1160,-449.13 955,-449.13 955,-408.13 1160,-408.13 1160,-449.13"/>
<text text-anchor="start" x="963" y="-437.13" font-family="Helvetica,sans-Serif" font-size="10.00">com.example.mybookshelf.</text>
<text text-anchor="start" x="963" y="-426.13" font-family="Helvetica,sans-Serif" font-size="10.00">BookRecommendationFlow.showFresh</text>
<text text-anchor="middle" x="1057.5" y="-415.13" font-family="Helvetica,sans-Serif" font-size="10.00">StartStep4</text>
</a>
</g>
</g>
<!-- Node15&#45;&gt;Node16 -->
<g id="edge110_Node000015_Node000016" class="edge">
<title>Node15&#45;&gt;Node16</title>
<g id="a_edge110_Node000015_Node000016"><a xlink:title=" ">
<path fill="none" stroke="#63b8ff" d="M919.2,-428.63C927.7,-428.63 936.31,-428.63 944.87,-428.63"/>
<polygon fill="#63b8ff" stroke="#63b8ff" points="944.89,-432.13 954.89,-428.63 944.89,-425.13 944.89,-432.13"/>
</a>
</g>
</g>
<!-- Node16&#45;&gt;Node3 -->
<g id="edge111_Node000016_Node000003" class="edge">
<title>Node16&#45;&gt;Node3</title>
<g id="a_edge111_Node000016_Node000003"><a xlink:title=" ">
<path fill="none" stroke="#63b8ff" d="M1067.56,-408.06C1085.68,-369.75 1130.34,-288.12 1196,-252.63 1351.63,-168.5 1883.67,-189.2 2112.72,-202.57"/>
<polygon fill="#63b8ff" stroke="#63b8ff" points="2112.54,-206.07 2122.73,-203.16 2112.96,-199.08 2112.54,-206.07"/>
</a>
</g>
</g>
<!-- Node16&#45;&gt;Node4 -->
<g id="edge112_Node000016_Node000004" class="edge">
<title>Node16&#45;&gt;Node4</title>
<g id="a_edge112_Node000016_Node000004"><a xlink:title=" ">
<path fill="none" stroke="#63b8ff" d="M1062.56,-449.23C1073.7,-499.85 1109.89,-630.45 1196,-689.63 1317.18,-772.89 1377.47,-728.63 1524.5,-728.63 1524.5,-728.63 1524.5,-728.63 1741,-728.63 1871.15,-728.63 2021.07,-735.74 2117.79,-741.27"/>
<polygon fill="#63b8ff" stroke="#63b8ff" points="2117.67,-744.77 2127.85,-741.85 2118.07,-737.78 2117.67,-744.77"/>
</a>
</g>
</g>
<!-- Node17 -->
<g id="Node000017" class="node">
<title>Node17</title>
<g id="a_Node000017"><a xlink:href="$classcom_1_1example_1_1mybookshelf_1_1BookRecommendationFlow.html#a46c6733f27b3527d3934cee02cfcd7ac" xlink:title=" ">
<polygon fill="white" stroke="#666666" points="1401,-449.13 1196,-449.13 1196,-408.13 1401,-408.13 1401,-449.13"/>
<text text-anchor="start" x="1204" y="-437.13" font-family="Helvetica,sans-Serif" font-size="10.00">com.example.mybookshelf.</text>
<text text-anchor="start" x="1204" y="-426.13" font-family="Helvetica,sans-Serif" font-size="10.00">BookRecommendationFlow.showFresh</text>
<text text-anchor="middle" x="1298.5" y="-415.13" font-family="Helvetica,sans-Serif" font-size="10.00">StartStep5</text>
</a>
</g>
</g>
<!-- Node16&#45;&gt;Node17 -->
<g id="edge113_Node000016_Node000017" class="edge">
<title>Node16&#45;&gt;Node17</title>
<g id="a_edge113_Node000016_Node000017"><a xlink:title=" ">
<path fill="none" stroke="#63b8ff" d="M1160.2,-428.63C1168.7,-428.63 1177.31,-428.63 1185.87,-428.63"/>
<polygon fill="#63b8ff" stroke="#63b8ff" points="1185.89,-432.13 1195.89,-428.63 1185.89,-425.13 1185.89,-432.13"/>
</a>
</g>
</g>
<!-- Node17&#45;&gt;Node3 -->
<g id="edge114_Node000017_Node000003" class="edge">
<title>Node17&#45;&gt;Node3</title>
<g id="a_edge114_Node000017_Node000003"><a xlink:title=" ">
<path fill="none" stroke="#63b8ff" d="M1340.93,-408.11C1405.34,-377.2 1534.13,-319.26 1650,-290.63 1839.69,-243.76 1894.67,-277.07 2087,-242.63 2102.35,-239.88 2118.57,-236.35 2134.18,-232.63"/>
<polygon fill="#63b8ff" stroke="#63b8ff" points="2135.45,-235.92 2144.34,-230.16 2133.8,-229.12 2135.45,-235.92"/>
</a>
</g>
</g>
<!-- Node17&#45;&gt;Node4 -->
<g id="edge117_Node000017_Node000004" class="edge">
<title>Node17&#45;&gt;Node4</title>
<g id="a_edge117_Node000017_Node000004"><a xlink:title=" ">
<path fill="none" stroke="#63b8ff" d="M1401.35,-425.07C1601.49,-418.96 2031.47,-410.43 2087,-447.63 2179.96,-509.89 2207.99,-653.49 2215.99,-716.75"/>
<polygon fill="#63b8ff" stroke="#63b8ff" points="2212.54,-717.37 2217.19,-726.89 2219.49,-716.55 2212.54,-717.37"/>
</a>
</g>
</g>
<!-- Node18 -->
<g id="Node000018" class="node">
<title>Node18</title>
<g id="a_Node000018"><a xlink:href="$classcom_1_1example_1_1mybookshelf_1_1BookRecommendationFlow.html#abe4c57ea57ed54c344739295e70066ff" xlink:title=" ">
<polygon fill="white" stroke="#666666" points="1614,-540.13 1437,-540.13 1437,-499.13 1614,-499.13 1614,-540.13"/>
<text text-anchor="start" x="1445" y="-528.13" font-family="Helvetica,sans-Serif" font-size="10.00">com.example.mybookshelf.</text>
<text text-anchor="start" x="1445" y="-517.13" font-family="Helvetica,sans-Serif" font-size="10.00">BookRecommendationFlow.build</text>
<text text-anchor="middle" x="1525.5" y="-506.13" font-family="Helvetica,sans-Serif" font-size="10.00">AIStringFresh</text>
</a>
</g>
</g>
<!-- Node17&#45;&gt;Node18 -->
<g id="edge115_Node000017_Node000018" class="edge">
<title>Node17&#45;&gt;Node18</title>
<g id="a_edge115_Node000017_Node000018"><a xlink:title=" ">
<path fill="none" stroke="#63b8ff" d="M1350.27,-449.16C1384.07,-462.83 1428.62,-480.85 1464.21,-495.24"/>
<polygon fill="#63b8ff" stroke="#63b8ff" points="1462.94,-498.5 1473.52,-499.01 1465.56,-492.01 1462.94,-498.5"/>
</a>
</g>
</g>
<!-- Node18&#45;&gt;Node8 -->
<g id="edge116_Node000018_Node000008" class="edge">
<title>Node18&#45;&gt;Node8</title>
<g id="a_edge116_Node000018_Node000008"><a xlink:title=" ">
<path fill="none" stroke="#63b8ff" d="M1614.16,-521.28C1622.62,-521.43 1631.25,-521.6 1639.81,-521.76"/>
<polygon fill="#63b8ff" stroke="#63b8ff" points="1639.76,-525.26 1649.83,-521.95 1639.89,-518.26 1639.76,-525.26"/>
</a>
</g>
</g>
</g>
</svg>
