<?xml version="1.0" encoding="UTF-8" standalone="no"?>
<!DOCTYPE svg PUBLIC "-//W3C//DTD SVG 1.1//EN"
 "http://www.w3.org/Graphics/SVG/1.1/DTD/svg11.dtd">
<!-- Generated by graphviz version 2.43.0 (0)
 -->
<!-- Title: com.example.mybookshelf.notifications.NotificationScheduler.changeDailyNotificationTime Pages: 1 -->
<svg width="557pt" height="146pt"
 viewBox="0.00 0.00 557.00 146.00" xmlns="http://www.w3.org/2000/svg" xmlns:xlink="http://www.w3.org/1999/xlink">
<g id="graph0" class="graph" transform="scale(1 1) rotate(0) translate(4 142)">
<title>com.example.mybookshelf.notifications.NotificationScheduler.changeDailyNotificationTime</title>
<!-- Node1 -->
<g id="Node000001" class="node">
<title>Node1</title>
<g id="a_Node000001"><a xlink:title=" ">
<polygon fill="#999999" stroke="#666666" points="265,-84 0,-84 0,-54 265,-54 265,-84"/>
<text text-anchor="start" x="8" y="-72" font-family="Helvetica,sans-Serif" font-size="10.00">com.example.mybookshelf.notifications.</text>
<text text-anchor="middle" x="132.5" y="-61" font-family="Helvetica,sans-Serif" font-size="10.00">NotificationScheduler.changeDailyNotificationTime</text>
</a>
</g>
</g>
<!-- Node2 -->
<g id="Node000002" class="node">
<title>Node2</title>
<g id="a_Node000002"><a xlink:href="$classcom_1_1example_1_1mybookshelf_1_1notifications_1_1NotificationScheduler.html#afc96590cd792b862b32762b84cab085e" xlink:title=" ">
<polygon fill="white" stroke="#666666" points="543,-138 307,-138 307,-108 543,-108 543,-138"/>
<text text-anchor="start" x="315" y="-126" font-family="Helvetica,sans-Serif" font-size="10.00">com.example.mybookshelf.notifications.</text>
<text text-anchor="middle" x="425" y="-115" font-family="Helvetica,sans-Serif" font-size="10.00">NotificationScheduler.cancelDailyNotification</text>
</a>
</g>
</g>
<!-- Node1&#45;&gt;Node2 -->
<g id="edge7_Node000001_Node000002" class="edge">
<title>Node1&#45;&gt;Node2</title>
<g id="a_edge7_Node000001_Node000002"><a xlink:title=" ">
<path fill="none" stroke="#63b8ff" d="M214.42,-84.04C251.33,-90.9 295.19,-99.06 333.22,-106.12"/>
<polygon fill="#63b8ff" stroke="#63b8ff" points="332.79,-109.61 343.26,-107.99 334.07,-102.72 332.79,-109.61"/>
</a>
</g>
</g>
<!-- Node3 -->
<g id="Node000003" class="node">
<title>Node3</title>
<g id="a_Node000003"><a xlink:href="$classcom_1_1example_1_1mybookshelf_1_1notifications_1_1NotificationScheduler.html#afad2859e0654bc94cdec599cd6ae9949" xlink:title=" ">
<polygon fill="white" stroke="#666666" points="535.5,-89.5 314.5,-89.5 314.5,-48.5 535.5,-48.5 535.5,-89.5"/>
<text text-anchor="start" x="322.5" y="-77.5" font-family="Helvetica,sans-Serif" font-size="10.00">com.example.mybookshelf.notifications.</text>
<text text-anchor="start" x="322.5" y="-66.5" font-family="Helvetica,sans-Serif" font-size="10.00">NotificationScheduler.getDailyNotification</text>
<text text-anchor="middle" x="425" y="-55.5" font-family="Helvetica,sans-Serif" font-size="10.00">Message</text>
</a>
</g>
</g>
<!-- Node1&#45;&gt;Node3 -->
<g id="edge8_Node000001_Node000003" class="edge">
<title>Node1&#45;&gt;Node3</title>
<g id="a_edge8_Node000001_Node000003"><a xlink:title=" ">
<path fill="none" stroke="#63b8ff" d="M265.15,-69C278.06,-69 291.12,-69 303.91,-69"/>
<polygon fill="#63b8ff" stroke="#63b8ff" points="304.1,-72.5 314.1,-69 304.1,-65.5 304.1,-72.5"/>
</a>
</g>
</g>
<!-- Node4 -->
<g id="Node000004" class="node">
<title>Node4</title>
<g id="a_Node000004"><a xlink:href="$classcom_1_1example_1_1mybookshelf_1_1notifications_1_1NotificationScheduler.html#a5833d4c1b987dddea26acdad230c640f" xlink:title=" ">
<polygon fill="white" stroke="#666666" points="549,-30 301,-30 301,0 549,0 549,-30"/>
<text text-anchor="start" x="309" y="-18" font-family="Helvetica,sans-Serif" font-size="10.00">com.example.mybookshelf.notifications.</text>
<text text-anchor="middle" x="425" y="-7" font-family="Helvetica,sans-Serif" font-size="10.00">NotificationScheduler.scheduleDailyNotification</text>
</a>
</g>
</g>
<!-- Node1&#45;&gt;Node4 -->
<g id="edge9_Node000001_Node000004" class="edge">
<title>Node1&#45;&gt;Node4</title>
<g id="a_edge9_Node000001_Node000004"><a xlink:title=" ">
<path fill="none" stroke="#63b8ff" d="M214.42,-53.96C251.33,-47.1 295.19,-38.94 333.22,-31.88"/>
<polygon fill="#63b8ff" stroke="#63b8ff" points="334.07,-35.28 343.26,-30.01 332.79,-28.39 334.07,-35.28"/>
</a>
</g>
</g>
</g>
</svg>
