<?xml version="1.0" encoding="UTF-8" standalone="no"?>
<!DOCTYPE svg PUBLIC "-//W3C//DTD SVG 1.1//EN"
 "http://www.w3.org/Graphics/SVG/1.1/DTD/svg11.dtd">
<!-- Generated by graphviz version 2.43.0 (0)
 -->
<!-- Title: com.example.mybookshelf.BookRecommendationFlow.showFreshStartStep4 Pages: 1 -->
<svg width="2552pt" height="165pt"
 viewBox="0.00 0.00 2552.00 165.00" xmlns="http://www.w3.org/2000/svg" xmlns:xlink="http://www.w3.org/1999/xlink">
<g id="graph0" class="graph" transform="scale(1 1) rotate(0) translate(4 161)">
<title>com.example.mybookshelf.BookRecommendationFlow.showFreshStartStep4</title>
<!-- Node1 -->
<g id="Node000001" class="node">
<title>Node1</title>
<g id="a_Node000001"><a xlink:title=" ">
<polygon fill="#999999" stroke="#666666" points="2544,-44.5 2339,-44.5 2339,-3.5 2544,-3.5 2544,-44.5"/>
<text text-anchor="start" x="2347" y="-32.5" font-family="Helvetica,sans-Serif" font-size="10.00">com.example.mybookshelf.</text>
<text text-anchor="start" x="2347" y="-21.5" font-family="Helvetica,sans-Serif" font-size="10.00">BookRecommendationFlow.showFresh</text>
<text text-anchor="middle" x="2441.5" y="-10.5" font-family="Helvetica,sans-Serif" font-size="10.00">StartStep4</text>
</a>
</g>
</g>
<!-- Node2 -->
<g id="Node000002" class="node">
<title>Node2</title>
<g id="a_Node000002"><a xlink:href="$classcom_1_1example_1_1mybookshelf_1_1BookRecommendationFlow.html#a2bc1c0125eb3c1fe64ed1ed3ee93d3eb" xlink:title=" ">
<polygon fill="white" stroke="#666666" points="2303,-69.5 2098,-69.5 2098,-28.5 2303,-28.5 2303,-69.5"/>
<text text-anchor="start" x="2106" y="-57.5" font-family="Helvetica,sans-Serif" font-size="10.00">com.example.mybookshelf.</text>
<text text-anchor="start" x="2106" y="-46.5" font-family="Helvetica,sans-Serif" font-size="10.00">BookRecommendationFlow.showFresh</text>
<text text-anchor="middle" x="2200.5" y="-35.5" font-family="Helvetica,sans-Serif" font-size="10.00">StartStep3</text>
</a>
</g>
</g>
<!-- Node1&#45;&gt;Node2 -->
<g id="edge31_Node000001_Node000002" class="edge">
<title>Node1&#45;&gt;Node2</title>
<g id="a_edge31_Node000001_Node000002"><a xlink:title=" ">
<path fill="none" stroke="#63b8ff" d="M2328.78,-35.69C2320.22,-36.58 2311.6,-37.48 2303.11,-38.37"/>
<polygon fill="#63b8ff" stroke="#63b8ff" points="2329.21,-39.16 2338.8,-34.64 2328.49,-32.2 2329.21,-39.16"/>
</a>
</g>
</g>
<!-- Node3 -->
<g id="Node000003" class="node">
<title>Node3</title>
<g id="a_Node000003"><a xlink:href="$classcom_1_1example_1_1mybookshelf_1_1BookRecommendationFlow.html#aaf567ca97b0d7f0c58ebba4d6f4b18bd" xlink:title=" ">
<polygon fill="white" stroke="#666666" points="2062,-69.5 1857,-69.5 1857,-28.5 2062,-28.5 2062,-69.5"/>
<text text-anchor="start" x="1865" y="-57.5" font-family="Helvetica,sans-Serif" font-size="10.00">com.example.mybookshelf.</text>
<text text-anchor="start" x="1865" y="-46.5" font-family="Helvetica,sans-Serif" font-size="10.00">BookRecommendationFlow.showFresh</text>
<text text-anchor="middle" x="1959.5" y="-35.5" font-family="Helvetica,sans-Serif" font-size="10.00">StartStep2</text>
</a>
</g>
</g>
<!-- Node2&#45;&gt;Node3 -->
<g id="edge32_Node000002_Node000003" class="edge">
<title>Node2&#45;&gt;Node3</title>
<g id="a_edge32_Node000002_Node000003"><a xlink:title=" ">
<path fill="none" stroke="#63b8ff" d="M2087.78,-49C2079.22,-49 2070.6,-49 2062.11,-49"/>
<polygon fill="#63b8ff" stroke="#63b8ff" points="2087.8,-52.5 2097.8,-49 2087.8,-45.5 2087.8,-52.5"/>
</a>
</g>
</g>
<!-- Node4 -->
<g id="Node000004" class="node">
<title>Node4</title>
<g id="a_Node000004"><a xlink:href="$classcom_1_1example_1_1mybookshelf_1_1BookRecommendationFlow.html#a4c7dc337216592f7f214f69ce7009d37" xlink:title=" ">
<polygon fill="white" stroke="#666666" points="1821,-92.5 1616,-92.5 1616,-51.5 1821,-51.5 1821,-92.5"/>
<text text-anchor="start" x="1624" y="-80.5" font-family="Helvetica,sans-Serif" font-size="10.00">com.example.mybookshelf.</text>
<text text-anchor="start" x="1624" y="-69.5" font-family="Helvetica,sans-Serif" font-size="10.00">BookRecommendationFlow.showFresh</text>
<text text-anchor="middle" x="1718.5" y="-58.5" font-family="Helvetica,sans-Serif" font-size="10.00">StartStep1</text>
</a>
</g>
</g>
<!-- Node3&#45;&gt;Node4 -->
<g id="edge33_Node000003_Node000004" class="edge">
<title>Node3&#45;&gt;Node4</title>
<g id="a_edge33_Node000003_Node000004"><a xlink:title=" ">
<path fill="none" stroke="#63b8ff" d="M1846.78,-59.75C1838.22,-60.58 1829.6,-61.4 1821.11,-62.22"/>
<polygon fill="#63b8ff" stroke="#63b8ff" points="1847.18,-63.23 1856.8,-58.79 1846.51,-56.26 1847.18,-63.23"/>
</a>
</g>
</g>
<!-- Node5 -->
<g id="Node000005" class="node">
<title>Node5</title>
<g id="a_Node000005"><a xlink:href="$classcom_1_1example_1_1mybookshelf_1_1BookRecommendationFlow.html#a22f0dcaea578fbd7358e6237cd4873d4" xlink:title=" ">
<polygon fill="white" stroke="#666666" points="1580,-87 1384,-87 1384,-57 1580,-57 1580,-87"/>
<text text-anchor="start" x="1392" y="-75" font-family="Helvetica,sans-Serif" font-size="10.00">com.example.mybookshelf.</text>
<text text-anchor="middle" x="1482" y="-64" font-family="Helvetica,sans-Serif" font-size="10.00">BookRecommendationFlow.handleAI</text>
</a>
</g>
</g>
<!-- Node4&#45;&gt;Node5 -->
<g id="edge34_Node000004_Node000005" class="edge">
<title>Node4&#45;&gt;Node5</title>
<g id="a_edge34_Node000004_Node000005"><a xlink:title=" ">
<path fill="none" stroke="#63b8ff" d="M1605.44,-72C1597.04,-72 1588.6,-72 1580.29,-72"/>
<polygon fill="#63b8ff" stroke="#63b8ff" points="1605.67,-75.5 1615.67,-72 1605.67,-68.5 1605.67,-75.5"/>
</a>
</g>
</g>
<!-- Node6 -->
<g id="Node000006" class="node">
<title>Node6</title>
<g id="a_Node000006"><a xlink:href="$classcom_1_1example_1_1mybookshelf_1_1BookRecommendationFlow.html#a4dceb0fa4d170b8c7e5a7a6718593dfe" xlink:title=" ">
<polygon fill="white" stroke="#666666" points="1348,-87 1148,-87 1148,-57 1348,-57 1348,-87"/>
<text text-anchor="start" x="1156" y="-75" font-family="Helvetica,sans-Serif" font-size="10.00">com.example.mybookshelf.</text>
<text text-anchor="middle" x="1248" y="-64" font-family="Helvetica,sans-Serif" font-size="10.00">BookRecommendationFlow.handleNo</text>
</a>
</g>
</g>
<!-- Node5&#45;&gt;Node6 -->
<g id="edge35_Node000005_Node000006" class="edge">
<title>Node5&#45;&gt;Node6</title>
<g id="a_edge35_Node000005_Node000006"><a xlink:title=" ">
<path fill="none" stroke="#63b8ff" d="M1373.95,-72C1365.39,-72 1356.77,-72 1348.27,-72"/>
<polygon fill="#63b8ff" stroke="#63b8ff" points="1373.96,-75.5 1383.96,-72 1373.96,-68.5 1373.96,-75.5"/>
</a>
</g>
</g>
<!-- Node7 -->
<g id="Node000007" class="node">
<title>Node7</title>
<g id="a_Node000007"><a xlink:href="$classcom_1_1example_1_1mybookshelf_1_1BookRecommendationFlow.html#ae50cf18619872a365eebe91c18d86e8d" xlink:title=" ">
<polygon fill="white" stroke="#666666" points="1112,-87 932,-87 932,-57 1112,-57 1112,-87"/>
<text text-anchor="start" x="940" y="-75" font-family="Helvetica,sans-Serif" font-size="10.00">com.example.mybookshelf.</text>
<text text-anchor="middle" x="1022" y="-64" font-family="Helvetica,sans-Serif" font-size="10.00">BookRecommendationFlow.callAI</text>
</a>
</g>
</g>
<!-- Node6&#45;&gt;Node7 -->
<g id="edge36_Node000006_Node000007" class="edge">
<title>Node6&#45;&gt;Node7</title>
<g id="a_edge36_Node000006_Node000007"><a xlink:title=" ">
<path fill="none" stroke="#63b8ff" d="M1137.77,-72C1129.22,-72 1120.66,-72 1112.27,-72"/>
<polygon fill="#63b8ff" stroke="#63b8ff" points="1137.77,-75.5 1147.77,-72 1137.77,-68.5 1137.77,-75.5"/>
</a>
</g>
</g>
<!-- Node7&#45;&gt;Node7 -->
<g id="edge45_Node000007_Node000007" class="edge">
<title>Node7&#45;&gt;Node7</title>
<g id="a_edge45_Node000007_Node000007"><a xlink:title=" ">
<path fill="none" stroke="#63b8ff" d="M1059.46,-97.6C1054.34,-101.97 1041.85,-105 1022,-105 988.56,-105 976.02,-96.41 984.38,-87.28"/>
<polygon fill="#63b8ff" stroke="#63b8ff" points="1062.96,-97.33 1059.62,-87.28 1055.96,-97.22 1062.96,-97.33"/>
</a>
</g>
</g>
<!-- Node8 -->
<g id="Node000008" class="node">
<title>Node8</title>
<g id="a_Node000008"><a xlink:href="$classcom_1_1example_1_1mybookshelf_1_1BookRecommendationFlow.html#a78dda71d2c403a463d824ff61b2ce27f" xlink:title=" ">
<polygon fill="white" stroke="#666666" points="896,-128.5 719,-128.5 719,-87.5 896,-87.5 896,-128.5"/>
<text text-anchor="start" x="727" y="-116.5" font-family="Helvetica,sans-Serif" font-size="10.00">com.example.mybookshelf.</text>
<text text-anchor="start" x="727" y="-105.5" font-family="Helvetica,sans-Serif" font-size="10.00">BookRecommendationFlow.build</text>
<text text-anchor="middle" x="807.5" y="-94.5" font-family="Helvetica,sans-Serif" font-size="10.00">AIStringBased</text>
</a>
</g>
</g>
<!-- Node7&#45;&gt;Node8 -->
<g id="edge37_Node000007_Node000008" class="edge">
<title>Node7&#45;&gt;Node8</title>
<g id="a_edge37_Node000007_Node000008"><a xlink:title=" ">
<path fill="none" stroke="#63b8ff" d="M922.55,-88.68C913.78,-90.16 904.93,-91.66 896.25,-93.13"/>
<polygon fill="#63b8ff" stroke="#63b8ff" points="923.14,-92.13 932.42,-87.01 921.98,-85.23 923.14,-92.13"/>
</a>
</g>
</g>
<!-- Node12 -->
<g id="Node000012" class="node">
<title>Node12</title>
<g id="a_Node000012"><a xlink:href="$classcom_1_1example_1_1mybookshelf_1_1BookRecommendationFlow.html#abe4c57ea57ed54c344739295e70066ff" xlink:title=" ">
<polygon fill="white" stroke="#666666" points="896,-69.5 719,-69.5 719,-28.5 896,-28.5 896,-69.5"/>
<text text-anchor="start" x="727" y="-57.5" font-family="Helvetica,sans-Serif" font-size="10.00">com.example.mybookshelf.</text>
<text text-anchor="start" x="727" y="-46.5" font-family="Helvetica,sans-Serif" font-size="10.00">BookRecommendationFlow.build</text>
<text text-anchor="middle" x="807.5" y="-35.5" font-family="Helvetica,sans-Serif" font-size="10.00">AIStringFresh</text>
</a>
</g>
</g>
<!-- Node7&#45;&gt;Node12 -->
<g id="edge42_Node000007_Node000012" class="edge">
<title>Node7&#45;&gt;Node12</title>
<g id="a_edge42_Node000007_Node000012"><a xlink:title=" ">
<path fill="none" stroke="#63b8ff" d="M921.78,-61.26C913.21,-60.33 904.58,-59.4 896.11,-58.48"/>
<polygon fill="#63b8ff" stroke="#63b8ff" points="921.49,-64.75 931.8,-62.35 922.24,-57.79 921.49,-64.75"/>
</a>
</g>
</g>
<!-- Node9 -->
<g id="Node000009" class="node">
<title>Node9</title>
<g id="a_Node000009"><a xlink:href="$classcom_1_1example_1_1mybookshelf_1_1BookRecommendationFlow.html#aa95301256c7f5377d1bc432189483b3c" xlink:title=" ">
<polygon fill="white" stroke="#666666" points="682,-128.5 479,-128.5 479,-87.5 682,-87.5 682,-128.5"/>
<text text-anchor="start" x="487" y="-116.5" font-family="Helvetica,sans-Serif" font-size="10.00">com.example.mybookshelf.</text>
<text text-anchor="start" x="487" y="-105.5" font-family="Helvetica,sans-Serif" font-size="10.00">BookRecommendationFlow.showBook</text>
<text text-anchor="middle" x="580.5" y="-94.5" font-family="Helvetica,sans-Serif" font-size="10.00">BasedStep3</text>
</a>
</g>
</g>
<!-- Node8&#45;&gt;Node9 -->
<g id="edge38_Node000008_Node000009" class="edge">
<title>Node8&#45;&gt;Node9</title>
<g id="a_edge38_Node000008_Node000009"><a xlink:title=" ">
<path fill="none" stroke="#63b8ff" d="M708.69,-108C699.96,-108 691.11,-108 682.35,-108"/>
<polygon fill="#63b8ff" stroke="#63b8ff" points="708.86,-111.5 718.86,-108 708.86,-104.5 708.86,-111.5"/>
</a>
</g>
</g>
<!-- Node10 -->
<g id="Node000010" class="node">
<title>Node10</title>
<g id="a_Node000010"><a xlink:href="$classcom_1_1example_1_1mybookshelf_1_1BookRecommendationFlow.html#a5c657be258c13c85848c7b7115f8a0b5" xlink:title=" ">
<polygon fill="white" stroke="#666666" points="442,-128.5 239,-128.5 239,-87.5 442,-87.5 442,-128.5"/>
<text text-anchor="start" x="247" y="-116.5" font-family="Helvetica,sans-Serif" font-size="10.00">com.example.mybookshelf.</text>
<text text-anchor="start" x="247" y="-105.5" font-family="Helvetica,sans-Serif" font-size="10.00">BookRecommendationFlow.showBook</text>
<text text-anchor="middle" x="340.5" y="-94.5" font-family="Helvetica,sans-Serif" font-size="10.00">BasedStep2</text>
</a>
</g>
</g>
<!-- Node9&#45;&gt;Node10 -->
<g id="edge39_Node000009_Node000010" class="edge">
<title>Node9&#45;&gt;Node10</title>
<g id="a_edge39_Node000009_Node000010"><a xlink:title=" ">
<path fill="none" stroke="#63b8ff" d="M468.87,-108C459.95,-108 450.96,-108 442.11,-108"/>
<polygon fill="#63b8ff" stroke="#63b8ff" points="468.91,-111.5 478.91,-108 468.91,-104.5 468.91,-111.5"/>
</a>
</g>
</g>
<!-- Node11 -->
<g id="Node000011" class="node">
<title>Node11</title>
<g id="a_Node000011"><a xlink:href="$classcom_1_1example_1_1mybookshelf_1_1BookRecommendationFlow.html#a276e931dabe3e85af257a9d16ce7cc67" xlink:title=" ">
<polygon fill="white" stroke="#666666" points="203,-152.5 0,-152.5 0,-111.5 203,-111.5 203,-152.5"/>
<text text-anchor="start" x="8" y="-140.5" font-family="Helvetica,sans-Serif" font-size="10.00">com.example.mybookshelf.</text>
<text text-anchor="start" x="8" y="-129.5" font-family="Helvetica,sans-Serif" font-size="10.00">BookRecommendationFlow.showBook</text>
<text text-anchor="middle" x="101.5" y="-118.5" font-family="Helvetica,sans-Serif" font-size="10.00">BasedStep1</text>
</a>
</g>
</g>
<!-- Node10&#45;&gt;Node11 -->
<g id="edge40_Node000010_Node000011" class="edge">
<title>Node10&#45;&gt;Node11</title>
<g id="a_edge40_Node000010_Node000011"><a xlink:title=" ">
<path fill="none" stroke="#63b8ff" d="M228.94,-119.2C220.34,-120.07 211.69,-120.94 203.17,-121.81"/>
<polygon fill="#63b8ff" stroke="#63b8ff" points="229.39,-122.67 238.99,-118.18 228.69,-115.7 229.39,-122.67"/>
</a>
</g>
</g>
<!-- Node11&#45;&gt;Node5 -->
<g id="edge41_Node000011_Node000005" class="edge">
<title>Node11&#45;&gt;Node5</title>
<g id="a_edge41_Node000011_Node000005"><a xlink:title=" ">
<path fill="none" stroke="#63b8ff" d="M213.46,-141.11C310.08,-148.26 453.96,-157 579.5,-157 1023,-157 1023,-157 1023,-157 1174.63,-157 1349.84,-111.4 1432.74,-87"/>
<polygon fill="#63b8ff" stroke="#63b8ff" points="213.62,-137.61 203.38,-140.36 213.09,-144.59 213.62,-137.61"/>
</a>
</g>
</g>
<!-- Node13 -->
<g id="Node000013" class="node">
<title>Node13</title>
<g id="a_Node000013"><a xlink:href="$classcom_1_1example_1_1mybookshelf_1_1BookRecommendationFlow.html#a46c6733f27b3527d3934cee02cfcd7ac" xlink:title=" ">
<polygon fill="white" stroke="#666666" points="683,-45.5 478,-45.5 478,-4.5 683,-4.5 683,-45.5"/>
<text text-anchor="start" x="486" y="-33.5" font-family="Helvetica,sans-Serif" font-size="10.00">com.example.mybookshelf.</text>
<text text-anchor="start" x="486" y="-22.5" font-family="Helvetica,sans-Serif" font-size="10.00">BookRecommendationFlow.showFresh</text>
<text text-anchor="middle" x="580.5" y="-11.5" font-family="Helvetica,sans-Serif" font-size="10.00">StartStep5</text>
</a>
</g>
</g>
<!-- Node12&#45;&gt;Node13 -->
<g id="edge43_Node000012_Node000013" class="edge">
<title>Node12&#45;&gt;Node13</title>
<g id="a_edge43_Node000012_Node000013"><a xlink:title=" ">
<path fill="none" stroke="#63b8ff" d="M708.9,-38.59C700.35,-37.68 691.68,-36.75 683.11,-35.84"/>
<polygon fill="#63b8ff" stroke="#63b8ff" points="708.55,-42.07 718.86,-39.65 709.29,-35.11 708.55,-42.07"/>
</a>
</g>
</g>
<!-- Node13&#45;&gt;Node1 -->
<g id="edge44_Node000013_Node000001" class="edge">
<title>Node13&#45;&gt;Node1</title>
<g id="a_edge44_Node000013_Node000001"><a xlink:title=" ">
<path fill="none" stroke="#63b8ff" d="M693.18,-15.14C781.95,-8.14 909.33,0 1021,0 1960.5,0 1960.5,0 1960.5,0 2091.29,0 2241.87,-9 2338.98,-15.97"/>
<polygon fill="#63b8ff" stroke="#63b8ff" points="692.78,-11.66 683.09,-15.94 693.34,-18.63 692.78,-11.66"/>
</a>
</g>
</g>
</g>
</svg>
