<?xml version="1.0" encoding="UTF-8" standalone="no"?>
<!DOCTYPE svg PUBLIC "-//W3C//DTD SVG 1.1//EN"
 "http://www.w3.org/Graphics/SVG/1.1/DTD/svg11.dtd">
<!-- Generated by graphviz version 2.43.0 (0)
 -->
<!-- Title: com.example.mybookshelf.BookRecommendationFlow.showBookBasedStep3 Pages: 1 -->
<svg width="2791pt" height="137pt"
 viewBox="0.00 0.00 2791.00 136.50" xmlns="http://www.w3.org/2000/svg" xmlns:xlink="http://www.w3.org/1999/xlink">
<g id="graph0" class="graph" transform="scale(1 1) rotate(0) translate(4 132.5)">
<title>com.example.mybookshelf.BookRecommendationFlow.showBookBasedStep3</title>
<!-- Node1 -->
<g id="Node000001" class="node">
<title>Node1</title>
<g id="a_Node000001"><a xlink:title=" ">
<polygon fill="#999999" stroke="#666666" points="2783,-65 2580,-65 2580,-24 2783,-24 2783,-65"/>
<text text-anchor="start" x="2588" y="-53" font-family="Helvetica,sans-Serif" font-size="10.00">com.example.mybookshelf.</text>
<text text-anchor="start" x="2588" y="-42" font-family="Helvetica,sans-Serif" font-size="10.00">BookRecommendationFlow.showBook</text>
<text text-anchor="middle" x="2681.5" y="-31" font-family="Helvetica,sans-Serif" font-size="10.00">BasedStep3</text>
</a>
</g>
</g>
<!-- Node2 -->
<g id="Node000002" class="node">
<title>Node2</title>
<g id="a_Node000002"><a xlink:href="$classcom_1_1example_1_1mybookshelf_1_1BookRecommendationFlow.html#a5c657be258c13c85848c7b7115f8a0b5" xlink:title=" ">
<polygon fill="white" stroke="#666666" points="2544,-90 2341,-90 2341,-49 2544,-49 2544,-90"/>
<text text-anchor="start" x="2349" y="-78" font-family="Helvetica,sans-Serif" font-size="10.00">com.example.mybookshelf.</text>
<text text-anchor="start" x="2349" y="-67" font-family="Helvetica,sans-Serif" font-size="10.00">BookRecommendationFlow.showBook</text>
<text text-anchor="middle" x="2442.5" y="-56" font-family="Helvetica,sans-Serif" font-size="10.00">BasedStep2</text>
</a>
</g>
</g>
<!-- Node1&#45;&gt;Node2 -->
<g id="edge31_Node000001_Node000002" class="edge">
<title>Node1&#45;&gt;Node2</title>
<g id="a_edge31_Node000001_Node000002"><a xlink:title=" ">
<path fill="none" stroke="#63b8ff" d="M2569.94,-56.16C2561.34,-57.07 2552.69,-57.98 2544.17,-58.88"/>
<polygon fill="#63b8ff" stroke="#63b8ff" points="2570.41,-59.63 2579.99,-55.1 2569.68,-52.67 2570.41,-59.63"/>
</a>
</g>
</g>
<!-- Node3 -->
<g id="Node000003" class="node">
<title>Node3</title>
<g id="a_Node000003"><a xlink:href="$classcom_1_1example_1_1mybookshelf_1_1BookRecommendationFlow.html#a276e931dabe3e85af257a9d16ce7cc67" xlink:title=" ">
<polygon fill="white" stroke="#666666" points="2305,-90 2102,-90 2102,-49 2305,-49 2305,-90"/>
<text text-anchor="start" x="2110" y="-78" font-family="Helvetica,sans-Serif" font-size="10.00">com.example.mybookshelf.</text>
<text text-anchor="start" x="2110" y="-67" font-family="Helvetica,sans-Serif" font-size="10.00">BookRecommendationFlow.showBook</text>
<text text-anchor="middle" x="2203.5" y="-56" font-family="Helvetica,sans-Serif" font-size="10.00">BasedStep1</text>
</a>
</g>
</g>
<!-- Node2&#45;&gt;Node3 -->
<g id="edge32_Node000002_Node000003" class="edge">
<title>Node2&#45;&gt;Node3</title>
<g id="a_edge32_Node000002_Node000003"><a xlink:title=" ">
<path fill="none" stroke="#63b8ff" d="M2330.94,-69.5C2322.34,-69.5 2313.69,-69.5 2305.17,-69.5"/>
<polygon fill="#63b8ff" stroke="#63b8ff" points="2330.99,-73 2340.99,-69.5 2330.99,-66 2330.99,-73"/>
</a>
</g>
</g>
<!-- Node4 -->
<g id="Node000004" class="node">
<title>Node4</title>
<g id="a_Node000004"><a xlink:href="$classcom_1_1example_1_1mybookshelf_1_1BookRecommendationFlow.html#a22f0dcaea578fbd7358e6237cd4873d4" xlink:title=" ">
<polygon fill="white" stroke="#666666" points="2066,-84.5 1870,-84.5 1870,-54.5 2066,-54.5 2066,-84.5"/>
<text text-anchor="start" x="1878" y="-72.5" font-family="Helvetica,sans-Serif" font-size="10.00">com.example.mybookshelf.</text>
<text text-anchor="middle" x="1968" y="-61.5" font-family="Helvetica,sans-Serif" font-size="10.00">BookRecommendationFlow.handleAI</text>
</a>
</g>
</g>
<!-- Node3&#45;&gt;Node4 -->
<g id="edge33_Node000003_Node000004" class="edge">
<title>Node3&#45;&gt;Node4</title>
<g id="a_edge33_Node000003_Node000004"><a xlink:title=" ">
<path fill="none" stroke="#63b8ff" d="M2091.74,-69.5C2083.16,-69.5 2074.54,-69.5 2066.06,-69.5"/>
<polygon fill="#63b8ff" stroke="#63b8ff" points="2091.78,-73 2101.78,-69.5 2091.78,-66 2091.78,-73"/>
</a>
</g>
</g>
<!-- Node5 -->
<g id="Node000005" class="node">
<title>Node5</title>
<g id="a_Node000005"><a xlink:href="$classcom_1_1example_1_1mybookshelf_1_1BookRecommendationFlow.html#a4dceb0fa4d170b8c7e5a7a6718593dfe" xlink:title=" ">
<polygon fill="white" stroke="#666666" points="1834,-83.5 1634,-83.5 1634,-53.5 1834,-53.5 1834,-83.5"/>
<text text-anchor="start" x="1642" y="-71.5" font-family="Helvetica,sans-Serif" font-size="10.00">com.example.mybookshelf.</text>
<text text-anchor="middle" x="1734" y="-60.5" font-family="Helvetica,sans-Serif" font-size="10.00">BookRecommendationFlow.handleNo</text>
</a>
</g>
</g>
<!-- Node4&#45;&gt;Node5 -->
<g id="edge34_Node000004_Node000005" class="edge">
<title>Node4&#45;&gt;Node5</title>
<g id="a_edge34_Node000004_Node000005"><a xlink:title=" ">
<path fill="none" stroke="#63b8ff" d="M1859.95,-69.04C1851.39,-69 1842.77,-68.96 1834.27,-68.93"/>
<polygon fill="#63b8ff" stroke="#63b8ff" points="1859.94,-72.54 1869.96,-69.08 1859.97,-65.54 1859.94,-72.54"/>
</a>
</g>
</g>
<!-- Node6 -->
<g id="Node000006" class="node">
<title>Node6</title>
<g id="a_Node000006"><a xlink:href="$classcom_1_1example_1_1mybookshelf_1_1BookRecommendationFlow.html#ae50cf18619872a365eebe91c18d86e8d" xlink:title=" ">
<polygon fill="white" stroke="#666666" points="1598,-82.5 1418,-82.5 1418,-52.5 1598,-52.5 1598,-82.5"/>
<text text-anchor="start" x="1426" y="-70.5" font-family="Helvetica,sans-Serif" font-size="10.00">com.example.mybookshelf.</text>
<text text-anchor="middle" x="1508" y="-59.5" font-family="Helvetica,sans-Serif" font-size="10.00">BookRecommendationFlow.callAI</text>
</a>
</g>
</g>
<!-- Node5&#45;&gt;Node6 -->
<g id="edge35_Node000005_Node000006" class="edge">
<title>Node5&#45;&gt;Node6</title>
<g id="a_edge35_Node000005_Node000006"><a xlink:title=" ">
<path fill="none" stroke="#63b8ff" d="M1623.77,-68.01C1615.22,-67.97 1606.66,-67.94 1598.27,-67.9"/>
<polygon fill="#63b8ff" stroke="#63b8ff" points="1623.76,-71.51 1633.77,-68.06 1623.79,-64.51 1623.76,-71.51"/>
</a>
</g>
</g>
<!-- Node6&#45;&gt;Node6 -->
<g id="edge45_Node000006_Node000006" class="edge">
<title>Node6&#45;&gt;Node6</title>
<g id="a_edge45_Node000006_Node000006"><a xlink:title=" ">
<path fill="none" stroke="#63b8ff" d="M1545.46,-93.1C1540.34,-97.47 1527.85,-100.5 1508,-100.5 1474.56,-100.5 1462.02,-91.91 1470.38,-82.78"/>
<polygon fill="#63b8ff" stroke="#63b8ff" points="1548.96,-92.83 1545.62,-82.78 1541.96,-92.72 1548.96,-92.83"/>
</a>
</g>
</g>
<!-- Node7 -->
<g id="Node000007" class="node">
<title>Node7</title>
<g id="a_Node000007"><a xlink:href="$classcom_1_1example_1_1mybookshelf_1_1BookRecommendationFlow.html#a78dda71d2c403a463d824ff61b2ce27f" xlink:title=" ">
<polygon fill="white" stroke="#666666" points="1382,-41 1205,-41 1205,0 1382,0 1382,-41"/>
<text text-anchor="start" x="1213" y="-29" font-family="Helvetica,sans-Serif" font-size="10.00">com.example.mybookshelf.</text>
<text text-anchor="start" x="1213" y="-18" font-family="Helvetica,sans-Serif" font-size="10.00">BookRecommendationFlow.build</text>
<text text-anchor="middle" x="1293.5" y="-7" font-family="Helvetica,sans-Serif" font-size="10.00">AIStringBased</text>
</a>
</g>
</g>
<!-- Node6&#45;&gt;Node7 -->
<g id="edge36_Node000006_Node000007" class="edge">
<title>Node6&#45;&gt;Node7</title>
<g id="a_edge36_Node000006_Node000007"><a xlink:title=" ">
<path fill="none" stroke="#63b8ff" d="M1429.27,-50.31C1413.99,-46.93 1397.85,-43.36 1382.26,-39.91"/>
<polygon fill="#63b8ff" stroke="#63b8ff" points="1428.66,-53.76 1439.18,-52.5 1430.17,-46.92 1428.66,-53.76"/>
</a>
</g>
</g>
<!-- Node8 -->
<g id="Node000008" class="node">
<title>Node8</title>
<g id="a_Node000008"><a xlink:href="$classcom_1_1example_1_1mybookshelf_1_1BookRecommendationFlow.html#abe4c57ea57ed54c344739295e70066ff" xlink:title=" ">
<polygon fill="white" stroke="#666666" points="1382,-100 1205,-100 1205,-59 1382,-59 1382,-100"/>
<text text-anchor="start" x="1213" y="-88" font-family="Helvetica,sans-Serif" font-size="10.00">com.example.mybookshelf.</text>
<text text-anchor="start" x="1213" y="-77" font-family="Helvetica,sans-Serif" font-size="10.00">BookRecommendationFlow.build</text>
<text text-anchor="middle" x="1293.5" y="-66" font-family="Helvetica,sans-Serif" font-size="10.00">AIStringFresh</text>
</a>
</g>
</g>
<!-- Node6&#45;&gt;Node8 -->
<g id="edge38_Node000006_Node000008" class="edge">
<title>Node6&#45;&gt;Node8</title>
<g id="a_edge38_Node000006_Node000008"><a xlink:title=" ">
<path fill="none" stroke="#63b8ff" d="M1407.78,-73.1C1399.21,-73.59 1390.58,-74.07 1382.11,-74.55"/>
<polygon fill="#63b8ff" stroke="#63b8ff" points="1408.02,-76.6 1417.8,-72.54 1407.62,-69.61 1408.02,-76.6"/>
</a>
</g>
</g>
<!-- Node7&#45;&gt;Node1 -->
<g id="edge37_Node000007_Node000001" class="edge">
<title>Node7&#45;&gt;Node1</title>
<g id="a_edge37_Node000007_Node000001"><a xlink:title=" ">
<path fill="none" stroke="#63b8ff" d="M1392.34,-20.5C1481.2,-20.5 1615.9,-20.5 1733,-20.5 2204.5,-20.5 2204.5,-20.5 2204.5,-20.5 2334.2,-20.5 2483.53,-29.5 2579.82,-36.47"/>
<polygon fill="#63b8ff" stroke="#63b8ff" points="1392.27,-17 1382.27,-20.5 1392.27,-24 1392.27,-17"/>
</a>
</g>
</g>
<!-- Node9 -->
<g id="Node000009" class="node">
<title>Node9</title>
<g id="a_Node000009"><a xlink:href="$classcom_1_1example_1_1mybookshelf_1_1BookRecommendationFlow.html#a46c6733f27b3527d3934cee02cfcd7ac" xlink:title=" ">
<polygon fill="white" stroke="#666666" points="1169,-100 964,-100 964,-59 1169,-59 1169,-100"/>
<text text-anchor="start" x="972" y="-88" font-family="Helvetica,sans-Serif" font-size="10.00">com.example.mybookshelf.</text>
<text text-anchor="start" x="972" y="-77" font-family="Helvetica,sans-Serif" font-size="10.00">BookRecommendationFlow.showFresh</text>
<text text-anchor="middle" x="1066.5" y="-66" font-family="Helvetica,sans-Serif" font-size="10.00">StartStep5</text>
</a>
</g>
</g>
<!-- Node8&#45;&gt;Node9 -->
<g id="edge39_Node000008_Node000009" class="edge">
<title>Node8&#45;&gt;Node9</title>
<g id="a_edge39_Node000008_Node000009"><a xlink:title=" ">
<path fill="none" stroke="#63b8ff" d="M1194.62,-79.5C1186.16,-79.5 1177.59,-79.5 1169.11,-79.5"/>
<polygon fill="#63b8ff" stroke="#63b8ff" points="1194.86,-83 1204.86,-79.5 1194.86,-76 1194.86,-83"/>
</a>
</g>
</g>
<!-- Node10 -->
<g id="Node000010" class="node">
<title>Node10</title>
<g id="a_Node000010"><a xlink:href="$classcom_1_1example_1_1mybookshelf_1_1BookRecommendationFlow.html#ad10515cfcf8650b6830b68f15d393b3b" xlink:title=" ">
<polygon fill="white" stroke="#666666" points="928,-100 723,-100 723,-59 928,-59 928,-100"/>
<text text-anchor="start" x="731" y="-88" font-family="Helvetica,sans-Serif" font-size="10.00">com.example.mybookshelf.</text>
<text text-anchor="start" x="731" y="-77" font-family="Helvetica,sans-Serif" font-size="10.00">BookRecommendationFlow.showFresh</text>
<text text-anchor="middle" x="825.5" y="-66" font-family="Helvetica,sans-Serif" font-size="10.00">StartStep4</text>
</a>
</g>
</g>
<!-- Node9&#45;&gt;Node10 -->
<g id="edge40_Node000009_Node000010" class="edge">
<title>Node9&#45;&gt;Node10</title>
<g id="a_edge40_Node000009_Node000010"><a xlink:title=" ">
<path fill="none" stroke="#63b8ff" d="M953.78,-79.5C945.22,-79.5 936.6,-79.5 928.11,-79.5"/>
<polygon fill="#63b8ff" stroke="#63b8ff" points="953.8,-83 963.8,-79.5 953.8,-76 953.8,-83"/>
</a>
</g>
</g>
<!-- Node11 -->
<g id="Node000011" class="node">
<title>Node11</title>
<g id="a_Node000011"><a xlink:href="$classcom_1_1example_1_1mybookshelf_1_1BookRecommendationFlow.html#a2bc1c0125eb3c1fe64ed1ed3ee93d3eb" xlink:title=" ">
<polygon fill="white" stroke="#666666" points="687,-100 482,-100 482,-59 687,-59 687,-100"/>
<text text-anchor="start" x="490" y="-88" font-family="Helvetica,sans-Serif" font-size="10.00">com.example.mybookshelf.</text>
<text text-anchor="start" x="490" y="-77" font-family="Helvetica,sans-Serif" font-size="10.00">BookRecommendationFlow.showFresh</text>
<text text-anchor="middle" x="584.5" y="-66" font-family="Helvetica,sans-Serif" font-size="10.00">StartStep3</text>
</a>
</g>
</g>
<!-- Node10&#45;&gt;Node11 -->
<g id="edge41_Node000010_Node000011" class="edge">
<title>Node10&#45;&gt;Node11</title>
<g id="a_edge41_Node000010_Node000011"><a xlink:title=" ">
<path fill="none" stroke="#63b8ff" d="M712.78,-79.5C704.22,-79.5 695.6,-79.5 687.11,-79.5"/>
<polygon fill="#63b8ff" stroke="#63b8ff" points="712.8,-83 722.8,-79.5 712.8,-76 712.8,-83"/>
</a>
</g>
</g>
<!-- Node12 -->
<g id="Node000012" class="node">
<title>Node12</title>
<g id="a_Node000012"><a xlink:href="$classcom_1_1example_1_1mybookshelf_1_1BookRecommendationFlow.html#aaf567ca97b0d7f0c58ebba4d6f4b18bd" xlink:title=" ">
<polygon fill="white" stroke="#666666" points="446,-100 241,-100 241,-59 446,-59 446,-100"/>
<text text-anchor="start" x="249" y="-88" font-family="Helvetica,sans-Serif" font-size="10.00">com.example.mybookshelf.</text>
<text text-anchor="start" x="249" y="-77" font-family="Helvetica,sans-Serif" font-size="10.00">BookRecommendationFlow.showFresh</text>
<text text-anchor="middle" x="343.5" y="-66" font-family="Helvetica,sans-Serif" font-size="10.00">StartStep2</text>
</a>
</g>
</g>
<!-- Node11&#45;&gt;Node12 -->
<g id="edge42_Node000011_Node000012" class="edge">
<title>Node11&#45;&gt;Node12</title>
<g id="a_edge42_Node000011_Node000012"><a xlink:title=" ">
<path fill="none" stroke="#63b8ff" d="M471.78,-79.5C463.22,-79.5 454.6,-79.5 446.11,-79.5"/>
<polygon fill="#63b8ff" stroke="#63b8ff" points="471.8,-83 481.8,-79.5 471.8,-76 471.8,-83"/>
</a>
</g>
</g>
<!-- Node13 -->
<g id="Node000013" class="node">
<title>Node13</title>
<g id="a_Node000013"><a xlink:href="$classcom_1_1example_1_1mybookshelf_1_1BookRecommendationFlow.html#a4c7dc337216592f7f214f69ce7009d37" xlink:title=" ">
<polygon fill="white" stroke="#666666" points="205,-124 0,-124 0,-83 205,-83 205,-124"/>
<text text-anchor="start" x="8" y="-112" font-family="Helvetica,sans-Serif" font-size="10.00">com.example.mybookshelf.</text>
<text text-anchor="start" x="8" y="-101" font-family="Helvetica,sans-Serif" font-size="10.00">BookRecommendationFlow.showFresh</text>
<text text-anchor="middle" x="102.5" y="-90" font-family="Helvetica,sans-Serif" font-size="10.00">StartStep1</text>
</a>
</g>
</g>
<!-- Node12&#45;&gt;Node13 -->
<g id="edge43_Node000012_Node000013" class="edge">
<title>Node12&#45;&gt;Node13</title>
<g id="a_edge43_Node000012_Node000013"><a xlink:title=" ">
<path fill="none" stroke="#63b8ff" d="M230.78,-90.72C222.22,-91.58 213.6,-92.44 205.11,-93.3"/>
<polygon fill="#63b8ff" stroke="#63b8ff" points="231.2,-94.19 240.8,-89.71 230.5,-87.23 231.2,-94.19"/>
</a>
</g>
</g>
<!-- Node13&#45;&gt;Node4 -->
<g id="edge44_Node000013_Node000004" class="edge">
<title>Node13&#45;&gt;Node4</title>
<g id="a_edge44_Node000013_Node000004"><a xlink:title=" ">
<path fill="none" stroke="#63b8ff" d="M215.16,-112.61C312.39,-119.76 457.17,-128.5 583.5,-128.5 1509,-128.5 1509,-128.5 1509,-128.5 1646.49,-128.5 1805.32,-102.02 1895.18,-84.54"/>
<polygon fill="#63b8ff" stroke="#63b8ff" points="215.25,-109.11 205.02,-111.86 214.73,-116.09 215.25,-109.11"/>
</a>
</g>
</g>
</g>
</svg>
