<?xml version="1.0" encoding="UTF-8" standalone="no"?>
<!DOCTYPE svg PUBLIC "-//W3C//DTD SVG 1.1//EN"
 "http://www.w3.org/Graphics/SVG/1.1/DTD/svg11.dtd">
<!-- Generated by graphviz version 2.43.0 (0)
 -->
<!-- Title: com.example.mybookshelf.apis.BooksAPI.getMultipleBooks Pages: 1 -->
<svg width="430pt" height="86pt"
 viewBox="0.00 0.00 430.00 86.00" xmlns="http://www.w3.org/2000/svg" xmlns:xlink="http://www.w3.org/1999/xlink">
<g id="graph0" class="graph" transform="scale(1 1) rotate(0) translate(4 82)">
<title>com.example.mybookshelf.apis.BooksAPI.getMultipleBooks</title>
<!-- Node1 -->
<g id="Node000001" class="node">
<title>Node1</title>
<g id="a_Node000001"><a xlink:title=" ">
<polygon fill="#999999" stroke="#666666" points="176,-54 0,-54 0,-24 176,-24 176,-54"/>
<text text-anchor="start" x="8" y="-42" font-family="Helvetica,sans-Serif" font-size="10.00">com.example.mybookshelf.apis.</text>
<text text-anchor="middle" x="88" y="-31" font-family="Helvetica,sans-Serif" font-size="10.00">BooksAPI.getMultipleBooks</text>
</a>
</g>
</g>
<!-- Node2 -->
<g id="Node000002" class="node">
<title>Node2</title>
<g id="a_Node000002"><a xlink:href="$classcom_1_1example_1_1mybookshelf_1_1apis_1_1BooksAPI.html#aa9d3aee665891e612035b5d0ffe1f93e" xlink:title=" ">
<polygon fill="white" stroke="#666666" points="405,-78 229,-78 229,-48 405,-48 405,-78"/>
<text text-anchor="start" x="237" y="-66" font-family="Helvetica,sans-Serif" font-size="10.00">com.example.mybookshelf.apis.</text>
<text text-anchor="middle" x="317" y="-55" font-family="Helvetica,sans-Serif" font-size="10.00">BooksAPI.fetchBooks</text>
</a>
</g>
</g>
<!-- Node1&#45;&gt;Node2 -->
<g id="edge5_Node000001_Node000002" class="edge">
<title>Node1&#45;&gt;Node2</title>
<g id="a_edge5_Node000001_Node000002"><a xlink:title=" ">
<path fill="none" stroke="#63b8ff" d="M176.11,-48.21C190,-49.68 204.44,-51.21 218.55,-52.7"/>
<polygon fill="#63b8ff" stroke="#63b8ff" points="218.43,-56.2 228.74,-53.77 219.17,-49.24 218.43,-56.2"/>
</a>
</g>
</g>
<!-- Node3 -->
<g id="Node000003" class="node">
<title>Node3</title>
<g id="a_Node000003"><a xlink:href="$interfacecom_1_1example_1_1mybookshelf_1_1apis_1_1BooksAPI_1_1BookCallback.html#a3e72ba2e384dd024c32999bda2af65d4" xlink:title=" ">
<polygon fill="white" stroke="#666666" points="422,-30 212,-30 212,0 422,0 422,-30"/>
<text text-anchor="start" x="220" y="-18" font-family="Helvetica,sans-Serif" font-size="10.00">com.example.mybookshelf.apis.</text>
<text text-anchor="middle" x="317" y="-7" font-family="Helvetica,sans-Serif" font-size="10.00">BooksAPI.BookCallback.onBookFetched</text>
</a>
</g>
</g>
<!-- Node1&#45;&gt;Node3 -->
<g id="edge6_Node000001_Node000003" class="edge">
<title>Node1&#45;&gt;Node3</title>
<g id="a_edge6_Node000001_Node000003"><a xlink:title=" ">
<path fill="none" stroke="#63b8ff" d="M176.11,-29.79C184.47,-28.91 193.03,-28 201.6,-27.1"/>
<polygon fill="#63b8ff" stroke="#63b8ff" points="202.07,-30.57 211.65,-26.03 201.33,-23.6 202.07,-30.57"/>
</a>
</g>
</g>
</g>
</svg>
