<?xml version="1.0" encoding="UTF-8" standalone="no"?>
<!DOCTYPE svg PUBLIC "-//W3C//DTD SVG 1.1//EN"
 "http://www.w3.org/Graphics/SVG/1.1/DTD/svg11.dtd">
<!-- Generated by graphviz version 2.43.0 (0)
 -->
<!-- Title: com.example.mybookshelf.BookRecommendationFlow.showFreshStartStep3 Pages: 1 -->
<svg width="2564pt" height="746pt"
 viewBox="0.00 0.00 2564.00 746.13" xmlns="http://www.w3.org/2000/svg" xmlns:xlink="http://www.w3.org/1999/xlink">
<g id="graph0" class="graph" transform="scale(1 1) rotate(0) translate(4 742.13)">
<title>com.example.mybookshelf.BookRecommendationFlow.showFreshStartStep3</title>
<!-- Node1 -->
<g id="Node000001" class="node">
<title>Node1</title>
<g id="a_Node000001"><a xlink:title=" ">
<polygon fill="#999999" stroke="#666666" points="205,-354.64 0,-354.64 0,-313.64 205,-313.64 205,-354.64"/>
<text text-anchor="start" x="8" y="-342.64" font-family="Helvetica,sans-Serif" font-size="10.00">com.example.mybookshelf.</text>
<text text-anchor="start" x="8" y="-331.64" font-family="Helvetica,sans-Serif" font-size="10.00">BookRecommendationFlow.showFresh</text>
<text text-anchor="middle" x="102.5" y="-320.64" font-family="Helvetica,sans-Serif" font-size="10.00">StartStep3</text>
</a>
</g>
</g>
<!-- Node2 -->
<g id="Node000002" class="node">
<title>Node2</title>
<g id="a_Node000002"><a xlink:href="$classcom_1_1example_1_1mybookshelf_1_1BookRecommendationFlow.html#a3855117e802e54923c308e0df6280c17" xlink:title=" ">
<polygon fill="white" stroke="#666666" points="2556,-567.64 2362,-567.64 2362,-526.64 2556,-526.64 2556,-567.64"/>
<text text-anchor="start" x="2370" y="-555.64" font-family="Helvetica,sans-Serif" font-size="10.00">com.example.mybookshelf.</text>
<text text-anchor="start" x="2370" y="-544.64" font-family="Helvetica,sans-Serif" font-size="10.00">BookRecommendationFlow.addChat</text>
<text text-anchor="middle" x="2459" y="-533.64" font-family="Helvetica,sans-Serif" font-size="10.00">Message</text>
</a>
</g>
</g>
<!-- Node1&#45;&gt;Node2 -->
<g id="edge79_Node000001_Node000002" class="edge">
<title>Node1&#45;&gt;Node2</title>
<g id="a_edge79_Node000001_Node000002"><a xlink:title=" ">
<path fill="none" stroke="#63b8ff" d="M114.48,-354.68C160.02,-436.8 343.03,-737.14 583.5,-737.14 583.5,-737.14 583.5,-737.14 1983.5,-737.14 2137.89,-737.14 2188.81,-749.96 2326,-679.14 2373.38,-654.68 2414.38,-607.13 2437.63,-576.28"/>
<polygon fill="#63b8ff" stroke="#63b8ff" points="2440.58,-578.18 2443.71,-568.06 2434.95,-574.02 2440.58,-578.18"/>
</a>
</g>
</g>
<!-- Node3 -->
<g id="Node000003" class="node">
<title>Node3</title>
<g id="a_Node000003"><a xlink:href="$classcom_1_1example_1_1mybookshelf_1_1BookRecommendationFlow.html#a02b6d699653b58f244907bd10db53ab5" xlink:title=" ">
<polygon fill="white" stroke="#666666" points="2551,-200.64 2367,-200.64 2367,-159.64 2551,-159.64 2551,-200.64"/>
<text text-anchor="start" x="2375" y="-188.64" font-family="Helvetica,sans-Serif" font-size="10.00">com.example.mybookshelf.</text>
<text text-anchor="start" x="2375" y="-177.64" font-family="Helvetica,sans-Serif" font-size="10.00">BookRecommendationFlow.create</text>
<text text-anchor="middle" x="2459" y="-166.64" font-family="Helvetica,sans-Serif" font-size="10.00">StyledGridButton</text>
</a>
</g>
</g>
<!-- Node1&#45;&gt;Node3 -->
<g id="edge80_Node000001_Node000003" class="edge">
<title>Node1&#45;&gt;Node3</title>
<g id="a_edge80_Node000001_Node000003"><a xlink:title=" ">
<path fill="none" stroke="#63b8ff" d="M118.69,-313.31C172.96,-241.58 365.62,-9.14 583.5,-9.14 583.5,-9.14 583.5,-9.14 1983.5,-9.14 2136.39,-9.14 2188.48,25.66 2326,-41.14 2376.42,-65.63 2417.64,-118.07 2439.94,-151.08"/>
<polygon fill="#63b8ff" stroke="#63b8ff" points="2437.02,-153.01 2445.45,-159.43 2442.86,-149.15 2437.02,-153.01"/>
</a>
</g>
</g>
<!-- Node4 -->
<g id="Node000004" class="node">
<title>Node4</title>
<g id="a_Node000004"><a xlink:href="$classcom_1_1example_1_1mybookshelf_1_1BookRecommendationFlow.html#ad10515cfcf8650b6830b68f15d393b3b" xlink:title=" ">
<polygon fill="white" stroke="#666666" points="446,-359.64 241,-359.64 241,-318.64 446,-318.64 446,-359.64"/>
<text text-anchor="start" x="249" y="-347.64" font-family="Helvetica,sans-Serif" font-size="10.00">com.example.mybookshelf.</text>
<text text-anchor="start" x="249" y="-336.64" font-family="Helvetica,sans-Serif" font-size="10.00">BookRecommendationFlow.showFresh</text>
<text text-anchor="middle" x="343.5" y="-325.64" font-family="Helvetica,sans-Serif" font-size="10.00">StartStep4</text>
</a>
</g>
</g>
<!-- Node1&#45;&gt;Node4 -->
<g id="edge81_Node000001_Node000004" class="edge">
<title>Node1&#45;&gt;Node4</title>
<g id="a_edge81_Node000001_Node000004"><a xlink:title=" ">
<path fill="none" stroke="#63b8ff" d="M205.2,-336.27C213.7,-336.44 222.31,-336.62 230.87,-336.8"/>
<polygon fill="#63b8ff" stroke="#63b8ff" points="230.82,-340.3 240.89,-337.01 230.96,-333.3 230.82,-340.3"/>
</a>
</g>
</g>
<!-- Node4&#45;&gt;Node2 -->
<g id="edge82_Node000004_Node000002" class="edge">
<title>Node4&#45;&gt;Node2</title>
<g id="a_edge82_Node000004_Node000002"><a xlink:title=" ">
<path fill="none" stroke="#63b8ff" d="M357.02,-359.79C405.17,-436.28 586.87,-699.14 810.5,-699.14 810.5,-699.14 810.5,-699.14 1983.5,-699.14 2138.28,-699.14 2182.7,-694.63 2326,-636.14 2363.18,-620.96 2400.67,-594.35 2426.14,-574.17"/>
<polygon fill="#63b8ff" stroke="#63b8ff" points="2428.38,-576.86 2433.98,-567.86 2423.99,-571.4 2428.38,-576.86"/>
</a>
</g>
</g>
<!-- Node4&#45;&gt;Node3 -->
<g id="edge83_Node000004_Node000003" class="edge">
<title>Node4&#45;&gt;Node3</title>
<g id="a_edge83_Node000004_Node000003"><a xlink:title=" ">
<path fill="none" stroke="#63b8ff" d="M361.12,-318.61C416.94,-252.14 605.71,-47.14 810.5,-47.14 810.5,-47.14 810.5,-47.14 1983.5,-47.14 2136.66,-47.14 2183.05,-30.16 2326,-85.14 2365.47,-100.32 2403.95,-130.26 2429.07,-152.49"/>
<polygon fill="#63b8ff" stroke="#63b8ff" points="2426.98,-155.31 2436.75,-159.41 2431.66,-150.11 2426.98,-155.31"/>
</a>
</g>
</g>
<!-- Node5 -->
<g id="Node000005" class="node">
<title>Node5</title>
<g id="a_Node000005"><a xlink:href="$classcom_1_1example_1_1mybookshelf_1_1BookRecommendationFlow.html#a46c6733f27b3527d3934cee02cfcd7ac" xlink:title=" ">
<polygon fill="white" stroke="#666666" points="687,-427.64 482,-427.64 482,-386.64 687,-386.64 687,-427.64"/>
<text text-anchor="start" x="490" y="-415.64" font-family="Helvetica,sans-Serif" font-size="10.00">com.example.mybookshelf.</text>
<text text-anchor="start" x="490" y="-404.64" font-family="Helvetica,sans-Serif" font-size="10.00">BookRecommendationFlow.showFresh</text>
<text text-anchor="middle" x="584.5" y="-393.64" font-family="Helvetica,sans-Serif" font-size="10.00">StartStep5</text>
</a>
</g>
</g>
<!-- Node4&#45;&gt;Node5 -->
<g id="edge84_Node000004_Node000005" class="edge">
<title>Node4&#45;&gt;Node5</title>
<g id="a_edge84_Node000004_Node000005"><a xlink:title=" ">
<path fill="none" stroke="#63b8ff" d="M416.86,-359.72C443.53,-367.31 473.94,-375.97 501.41,-383.78"/>
<polygon fill="#63b8ff" stroke="#63b8ff" points="500.81,-387.25 511.39,-386.62 502.73,-380.52 500.81,-387.25"/>
</a>
</g>
</g>
<!-- Node5&#45;&gt;Node2 -->
<g id="edge85_Node000005_Node000002" class="edge">
<title>Node5&#45;&gt;Node2</title>
<g id="a_edge85_Node000005_Node000002"><a xlink:title=" ">
<path fill="none" stroke="#63b8ff" d="M604.23,-427.92C661.06,-488.59 839.05,-661.14 1025,-661.14 1025,-661.14 1025,-661.14 1983.5,-661.14 2136.16,-661.14 2308.99,-604.66 2397.97,-571.21"/>
<polygon fill="#63b8ff" stroke="#63b8ff" points="2399.25,-574.47 2407.35,-567.65 2396.76,-567.92 2399.25,-574.47"/>
</a>
</g>
</g>
<!-- Node5&#45;&gt;Node3 -->
<g id="edge117_Node000005_Node000003" class="edge">
<title>Node5&#45;&gt;Node3</title>
<g id="a_edge117_Node000005_Node000003"><a xlink:title=" ">
<path fill="none" stroke="#63b8ff" d="M599.03,-386.51C647.47,-315.44 820.21,-85.14 1025,-85.14 1025,-85.14 1025,-85.14 1983.5,-85.14 2136.86,-85.14 2177.48,-88.91 2326,-127.14 2353.02,-134.09 2381.91,-145.24 2405.75,-155.51"/>
<polygon fill="#63b8ff" stroke="#63b8ff" points="2404.39,-158.74 2414.96,-159.55 2407.2,-152.33 2404.39,-158.74"/>
</a>
</g>
</g>
<!-- Node6 -->
<g id="Node000006" class="node">
<title>Node6</title>
<g id="a_Node000006"><a xlink:href="$classcom_1_1example_1_1mybookshelf_1_1BookRecommendationFlow.html#abe4c57ea57ed54c344739295e70066ff" xlink:title=" ">
<polygon fill="white" stroke="#666666" points="900,-461.64 723,-461.64 723,-420.64 900,-420.64 900,-461.64"/>
<text text-anchor="start" x="731" y="-449.64" font-family="Helvetica,sans-Serif" font-size="10.00">com.example.mybookshelf.</text>
<text text-anchor="start" x="731" y="-438.64" font-family="Helvetica,sans-Serif" font-size="10.00">BookRecommendationFlow.build</text>
<text text-anchor="middle" x="811.5" y="-427.64" font-family="Helvetica,sans-Serif" font-size="10.00">AIStringFresh</text>
</a>
</g>
</g>
<!-- Node5&#45;&gt;Node6 -->
<g id="edge86_Node000005_Node000006" class="edge">
<title>Node5&#45;&gt;Node6</title>
<g id="a_edge86_Node000005_Node000006"><a xlink:title=" ">
<path fill="none" stroke="#63b8ff" d="M687.14,-422.5C695.68,-423.79 704.3,-425.09 712.81,-426.38"/>
<polygon fill="#63b8ff" stroke="#63b8ff" points="712.32,-429.84 722.73,-427.87 713.36,-422.92 712.32,-429.84"/>
</a>
</g>
</g>
<!-- Node7 -->
<g id="Node000007" class="node">
<title>Node7</title>
<g id="a_Node000007"><a xlink:href="$classcom_1_1example_1_1mybookshelf_1_1BookRecommendationFlow.html#ae50cf18619872a365eebe91c18d86e8d" xlink:title=" ">
<polygon fill="white" stroke="#666666" points="1116,-473.14 936,-473.14 936,-443.14 1116,-443.14 1116,-473.14"/>
<text text-anchor="start" x="944" y="-461.14" font-family="Helvetica,sans-Serif" font-size="10.00">com.example.mybookshelf.</text>
<text text-anchor="middle" x="1026" y="-450.14" font-family="Helvetica,sans-Serif" font-size="10.00">BookRecommendationFlow.callAI</text>
</a>
</g>
</g>
<!-- Node6&#45;&gt;Node7 -->
<g id="edge87_Node000006_Node000007" class="edge">
<title>Node6&#45;&gt;Node7</title>
<g id="a_edge87_Node000006_Node000007"><a xlink:title=" ">
<path fill="none" stroke="#63b8ff" d="M900.16,-448.15C908.62,-448.83 917.25,-449.52 925.81,-450.2"/>
<polygon fill="#63b8ff" stroke="#63b8ff" points="925.58,-453.7 935.83,-451 926.14,-446.72 925.58,-453.7"/>
</a>
</g>
</g>
<!-- Node7&#45;&gt;Node2 -->
<g id="edge88_Node000007_Node000002" class="edge">
<title>Node7&#45;&gt;Node2</title>
<g id="a_edge88_Node000007_Node000002"><a xlink:title=" ">
<path fill="none" stroke="#63b8ff" d="M1038.85,-473.21C1059.01,-497.47 1102.62,-544.28 1152,-562.14 1244.37,-595.54 1274.78,-562.82 1373,-562.14 1731.8,-559.66 2157.31,-552.56 2351.64,-549.1"/>
<polygon fill="#63b8ff" stroke="#63b8ff" points="2351.91,-552.59 2361.85,-548.91 2351.79,-545.59 2351.91,-552.59"/>
</a>
</g>
</g>
<!-- Node7&#45;&gt;Node3 -->
<g id="edge90_Node000007_Node000003" class="edge">
<title>Node7&#45;&gt;Node3</title>
<g id="a_edge90_Node000007_Node000003"><a xlink:title=" ">
<path fill="none" stroke="#63b8ff" d="M1037.55,-442.87C1084.19,-377.34 1279.7,-123.14 1506,-123.14 1506,-123.14 1506,-123.14 1983.5,-123.14 2113.12,-123.14 2261.24,-144.36 2357.01,-160.91"/>
<polygon fill="#63b8ff" stroke="#63b8ff" points="2356.53,-164.38 2366.98,-162.65 2357.73,-157.48 2356.53,-164.38"/>
</a>
</g>
</g>
<!-- Node7&#45;&gt;Node7 -->
<g id="edge89_Node000007_Node000007" class="edge">
<title>Node7&#45;&gt;Node7</title>
<g id="a_edge89_Node000007_Node000007"><a xlink:title=" ">
<path fill="none" stroke="#63b8ff" d="M988.38,-473.41C980.02,-482.54 992.56,-491.14 1026,-491.14 1045.85,-491.14 1058.34,-488.11 1063.46,-483.74"/>
<polygon fill="#63b8ff" stroke="#63b8ff" points="1066.96,-483.47 1063.62,-473.41 1059.96,-483.36 1066.96,-483.47"/>
</a>
</g>
</g>
<!-- Node8 -->
<g id="Node000008" class="node">
<title>Node8</title>
<g id="a_Node000008"><a xlink:href="$classcom_1_1example_1_1mybookshelf_1_1apis_1_1AiAPI.html#a4a45b91f0717302661d9e35ed956c049" xlink:title=" ">
<polygon fill="white" stroke="#666666" points="1350.5,-535.14 1174.5,-535.14 1174.5,-505.14 1350.5,-505.14 1350.5,-535.14"/>
<text text-anchor="start" x="1182.5" y="-523.14" font-family="Helvetica,sans-Serif" font-size="10.00">com.example.mybookshelf.apis.</text>
<text text-anchor="middle" x="1262.5" y="-512.14" font-family="Helvetica,sans-Serif" font-size="10.00">AiAPI.fetchResponse</text>
</a>
</g>
</g>
<!-- Node7&#45;&gt;Node8 -->
<g id="edge91_Node000007_Node000008" class="edge">
<title>Node7&#45;&gt;Node8</title>
<g id="a_edge91_Node000007_Node000008"><a xlink:title=" ">
<path fill="none" stroke="#63b8ff" d="M1073.35,-473.19C1096.8,-480.55 1125.77,-489.29 1152,-496.14 1160.78,-498.43 1170,-500.69 1179.2,-502.84"/>
<polygon fill="#63b8ff" stroke="#63b8ff" points="1178.62,-506.3 1189.15,-505.13 1180.19,-499.48 1178.62,-506.3"/>
</a>
</g>
</g>
<!-- Node9 -->
<g id="Node000009" class="node">
<title>Node9</title>
<g id="a_Node000009"><a xlink:href="$classcom_1_1example_1_1mybookshelf_1_1BookRecommendationFlow.html#a4dceb0fa4d170b8c7e5a7a6718593dfe" xlink:title=" ">
<polygon fill="white" stroke="#666666" points="1362.5,-368.14 1162.5,-368.14 1162.5,-338.14 1362.5,-338.14 1362.5,-368.14"/>
<text text-anchor="start" x="1170.5" y="-356.14" font-family="Helvetica,sans-Serif" font-size="10.00">com.example.mybookshelf.</text>
<text text-anchor="middle" x="1262.5" y="-345.14" font-family="Helvetica,sans-Serif" font-size="10.00">BookRecommendationFlow.handleNo</text>
</a>
</g>
</g>
<!-- Node7&#45;&gt;Node9 -->
<g id="edge93_Node000007_Node000009" class="edge">
<title>Node7&#45;&gt;Node9</title>
<g id="a_edge93_Node000007_Node000009"><a xlink:title=" ">
<path fill="none" stroke="#63b8ff" d="M1046.17,-442.85C1069.74,-424.79 1111.6,-395.07 1152,-378.14 1158.16,-375.56 1164.64,-373.22 1171.23,-371.1"/>
<polygon fill="#63b8ff" stroke="#63b8ff" points="1172.39,-374.41 1180.95,-368.16 1170.37,-367.71 1172.39,-374.41"/>
</a>
</g>
</g>
<!-- Node17 -->
<g id="Node000017" class="node">
<title>Node17</title>
<g id="a_Node000017"><a xlink:href="$classcom_1_1example_1_1mybookshelf_1_1BookRecommendationFlow.html#ac62af5d6edeffa96b2862a609ebb40df" xlink:title=" ">
<polygon fill="white" stroke="#666666" points="1370.5,-486.64 1154.5,-486.64 1154.5,-445.64 1370.5,-445.64 1370.5,-486.64"/>
<text text-anchor="start" x="1162.5" y="-474.64" font-family="Helvetica,sans-Serif" font-size="10.00">com.example.mybookshelf.</text>
<text text-anchor="start" x="1162.5" y="-463.64" font-family="Helvetica,sans-Serif" font-size="10.00">BookRecommendationFlow.hideThinking</text>
<text text-anchor="middle" x="1262.5" y="-452.64" font-family="Helvetica,sans-Serif" font-size="10.00">Animation</text>
</a>
</g>
</g>
<!-- Node7&#45;&gt;Node17 -->
<g id="edge115_Node000007_Node000017" class="edge">
<title>Node7&#45;&gt;Node17</title>
<g id="a_edge115_Node000007_Node000017"><a xlink:title=" ">
<path fill="none" stroke="#63b8ff" d="M1116.32,-461.19C1125.45,-461.5 1134.81,-461.82 1144.18,-462.14"/>
<polygon fill="#63b8ff" stroke="#63b8ff" points="1144.22,-465.64 1154.33,-462.48 1144.45,-458.64 1144.22,-465.64"/>
</a>
</g>
</g>
<!-- Node18 -->
<g id="Node000018" class="node">
<title>Node18</title>
<g id="a_Node000018"><a xlink:href="$classcom_1_1example_1_1mybookshelf_1_1BookRecommendationFlow.html#a78597ba37409daeee77dcfa6236b2e6a" xlink:title=" ">
<polygon fill="white" stroke="#666666" points="1373,-427.64 1152,-427.64 1152,-386.64 1373,-386.64 1373,-427.64"/>
<text text-anchor="start" x="1160" y="-415.64" font-family="Helvetica,sans-Serif" font-size="10.00">com.example.mybookshelf.</text>
<text text-anchor="start" x="1160" y="-404.64" font-family="Helvetica,sans-Serif" font-size="10.00">BookRecommendationFlow.showThinking</text>
<text text-anchor="middle" x="1262.5" y="-393.64" font-family="Helvetica,sans-Serif" font-size="10.00">Animation</text>
</a>
</g>
</g>
<!-- Node7&#45;&gt;Node18 -->
<g id="edge116_Node000007_Node000018" class="edge">
<title>Node7&#45;&gt;Node18</title>
<g id="a_edge116_Node000007_Node000018"><a xlink:title=" ">
<path fill="none" stroke="#63b8ff" d="M1096.09,-443.11C1115.13,-438.97 1136.22,-434.38 1156.79,-429.91"/>
<polygon fill="#63b8ff" stroke="#63b8ff" points="1157.81,-433.27 1166.84,-427.73 1156.32,-426.43 1157.81,-433.27"/>
</a>
</g>
</g>
<!-- Node8&#45;&gt;Node8 -->
<g id="edge92_Node000008_Node000008" class="edge">
<title>Node8&#45;&gt;Node8</title>
<g id="a_edge92_Node000008_Node000008"><a xlink:title=" ">
<path fill="none" stroke="#63b8ff" d="M1221.02,-535.41C1211.8,-544.54 1225.62,-553.14 1262.5,-553.14 1284.39,-553.14 1298.16,-550.11 1303.81,-545.74"/>
<polygon fill="#63b8ff" stroke="#63b8ff" points="1307.31,-545.47 1303.98,-535.41 1300.31,-545.35 1307.31,-545.47"/>
</a>
</g>
</g>
<!-- Node9&#45;&gt;Node2 -->
<g id="edge94_Node000009_Node000002" class="edge">
<title>Node9&#45;&gt;Node2</title>
<g id="a_edge94_Node000009_Node000002"><a xlink:title=" ">
<path fill="none" stroke="#63b8ff" d="M1335.65,-368.15C1513.12,-404.91 1967.59,-497.98 2121,-519.14 2197.89,-529.74 2285.25,-536.86 2351.75,-541.27"/>
<polygon fill="#63b8ff" stroke="#63b8ff" points="2351.62,-544.77 2361.82,-541.92 2352.07,-537.78 2351.62,-544.77"/>
</a>
</g>
</g>
<!-- Node9&#45;&gt;Node3 -->
<g id="edge95_Node000009_Node000003" class="edge">
<title>Node9&#45;&gt;Node3</title>
<g id="a_edge95_Node000009_Node000003"><a xlink:title=" ">
<path fill="none" stroke="#63b8ff" d="M1312.63,-338C1442.82,-299.02 1808.19,-196.89 2121,-178.14 2200.02,-173.4 2289.65,-174.23 2356.6,-176.06"/>
<polygon fill="#63b8ff" stroke="#63b8ff" points="2356.63,-179.57 2366.73,-176.35 2356.83,-172.57 2356.63,-179.57"/>
</a>
</g>
</g>
<!-- Node10 -->
<g id="Node000010" class="node">
<title>Node10</title>
<g id="a_Node000010"><a xlink:href="$classcom_1_1example_1_1mybookshelf_1_1BookRecommendationFlow.html#a22f0dcaea578fbd7358e6237cd4873d4" xlink:title=" ">
<polygon fill="white" stroke="#666666" points="1605,-368.14 1409,-368.14 1409,-338.14 1605,-338.14 1605,-368.14"/>
<text text-anchor="start" x="1417" y="-356.14" font-family="Helvetica,sans-Serif" font-size="10.00">com.example.mybookshelf.</text>
<text text-anchor="middle" x="1507" y="-345.14" font-family="Helvetica,sans-Serif" font-size="10.00">BookRecommendationFlow.handleAI</text>
</a>
</g>
</g>
<!-- Node9&#45;&gt;Node10 -->
<g id="edge96_Node000009_Node000010" class="edge">
<title>Node9&#45;&gt;Node10</title>
<g id="a_edge96_Node000009_Node000010"><a xlink:title=" ">
<path fill="none" stroke="#63b8ff" d="M1362.83,-353.14C1374.57,-353.14 1386.59,-353.14 1398.43,-353.14"/>
<polygon fill="#63b8ff" stroke="#63b8ff" points="1398.78,-356.64 1408.78,-353.14 1398.78,-349.64 1398.78,-356.64"/>
</a>
</g>
</g>
<!-- Node11 -->
<g id="Node000011" class="node">
<title>Node11</title>
<g id="a_Node000011"><a xlink:href="$classcom_1_1example_1_1mybookshelf_1_1BookRecommendationFlow.html#a276e931dabe3e85af257a9d16ce7cc67" xlink:title=" ">
<polygon fill="white" stroke="#666666" points="1844,-388.64 1641,-388.64 1641,-347.64 1844,-347.64 1844,-388.64"/>
<text text-anchor="start" x="1649" y="-376.64" font-family="Helvetica,sans-Serif" font-size="10.00">com.example.mybookshelf.</text>
<text text-anchor="start" x="1649" y="-365.64" font-family="Helvetica,sans-Serif" font-size="10.00">BookRecommendationFlow.showBook</text>
<text text-anchor="middle" x="1742.5" y="-354.64" font-family="Helvetica,sans-Serif" font-size="10.00">BasedStep1</text>
</a>
</g>
</g>
<!-- Node10&#45;&gt;Node11 -->
<g id="edge97_Node000010_Node000011" class="edge">
<title>Node10&#45;&gt;Node11</title>
<g id="a_edge97_Node000010_Node000011"><a xlink:title=" ">
<path fill="none" stroke="#63b8ff" d="M1605.33,-359.39C1613.79,-359.93 1622.38,-360.49 1630.93,-361.04"/>
<polygon fill="#63b8ff" stroke="#63b8ff" points="1630.73,-364.53 1640.94,-361.68 1631.18,-357.54 1630.73,-364.53"/>
</a>
</g>
</g>
<!-- Node15 -->
<g id="Node000015" class="node">
<title>Node15</title>
<g id="a_Node000015"><a xlink:href="$classcom_1_1example_1_1mybookshelf_1_1BookRecommendationFlow.html#a4c7dc337216592f7f214f69ce7009d37" xlink:title=" ">
<polygon fill="white" stroke="#666666" points="2085,-320.64 1880,-320.64 1880,-279.64 2085,-279.64 2085,-320.64"/>
<text text-anchor="start" x="1888" y="-308.64" font-family="Helvetica,sans-Serif" font-size="10.00">com.example.mybookshelf.</text>
<text text-anchor="start" x="1888" y="-297.64" font-family="Helvetica,sans-Serif" font-size="10.00">BookRecommendationFlow.showFresh</text>
<text text-anchor="middle" x="1982.5" y="-286.64" font-family="Helvetica,sans-Serif" font-size="10.00">StartStep1</text>
</a>
</g>
</g>
<!-- Node10&#45;&gt;Node15 -->
<g id="edge108_Node000010_Node000015" class="edge">
<title>Node10&#45;&gt;Node15</title>
<g id="a_edge108_Node000010_Node000015"><a xlink:title=" ">
<path fill="none" stroke="#63b8ff" d="M1605.25,-342.25C1682.07,-333.65 1789.36,-321.64 1869.72,-312.65"/>
<polygon fill="#63b8ff" stroke="#63b8ff" points="1870.33,-316.1 1879.88,-311.51 1869.55,-309.15 1870.33,-316.1"/>
</a>
</g>
</g>
<!-- Node11&#45;&gt;Node2 -->
<g id="edge98_Node000011_Node000002" class="edge">
<title>Node11&#45;&gt;Node2</title>
<g id="a_edge98_Node000011_Node000002"><a xlink:title=" ">
<path fill="none" stroke="#63b8ff" d="M1802.07,-388.67C1875.77,-413.94 2006.57,-456.98 2121,-485.14 2197.51,-503.96 2285.06,-519.9 2351.75,-530.91"/>
<polygon fill="#63b8ff" stroke="#63b8ff" points="2351.41,-534.4 2361.85,-532.56 2352.55,-527.49 2351.41,-534.4"/>
</a>
</g>
</g>
<!-- Node11&#45;&gt;Node3 -->
<g id="edge99_Node000011_Node000003" class="edge">
<title>Node11&#45;&gt;Node3</title>
<g id="a_edge99_Node000011_Node000003"><a xlink:title=" ">
<path fill="none" stroke="#63b8ff" d="M1766.43,-347.61C1792.25,-325.56 1836.34,-291 1880,-271.14 2035.99,-200.16 2237.41,-183.21 2356.63,-179.91"/>
<polygon fill="#63b8ff" stroke="#63b8ff" points="2356.93,-183.4 2366.84,-179.65 2356.76,-176.4 2356.93,-183.4"/>
</a>
</g>
</g>
<!-- Node12 -->
<g id="Node000012" class="node">
<title>Node12</title>
<g id="a_Node000012"><a xlink:href="$classcom_1_1example_1_1mybookshelf_1_1BookRecommendationFlow.html#a5c657be258c13c85848c7b7115f8a0b5" xlink:title=" ">
<polygon fill="white" stroke="#666666" points="2084,-393.64 1881,-393.64 1881,-352.64 2084,-352.64 2084,-393.64"/>
<text text-anchor="start" x="1889" y="-381.64" font-family="Helvetica,sans-Serif" font-size="10.00">com.example.mybookshelf.</text>
<text text-anchor="start" x="1889" y="-370.64" font-family="Helvetica,sans-Serif" font-size="10.00">BookRecommendationFlow.showBook</text>
<text text-anchor="middle" x="1982.5" y="-359.64" font-family="Helvetica,sans-Serif" font-size="10.00">BasedStep2</text>
</a>
</g>
</g>
<!-- Node11&#45;&gt;Node12 -->
<g id="edge100_Node000011_Node000012" class="edge">
<title>Node11&#45;&gt;Node12</title>
<g id="a_edge100_Node000011_Node000012"><a xlink:title=" ">
<path fill="none" stroke="#63b8ff" d="M1844.09,-370.25C1852.94,-370.44 1861.93,-370.63 1870.85,-370.81"/>
<polygon fill="#63b8ff" stroke="#63b8ff" points="1870.82,-374.31 1880.89,-371.02 1870.97,-367.32 1870.82,-374.31"/>
</a>
</g>
</g>
<!-- Node12&#45;&gt;Node2 -->
<g id="edge101_Node000012_Node000002" class="edge">
<title>Node12&#45;&gt;Node2</title>
<g id="a_edge101_Node000012_Node000002"><a xlink:title=" ">
<path fill="none" stroke="#63b8ff" d="M2015.96,-393.79C2043.11,-410.27 2083.35,-432.89 2121,-447.14 2208.52,-480.27 2236.68,-467.25 2326,-495.14 2351.11,-502.98 2378.24,-513.32 2401.33,-522.72"/>
<polygon fill="#63b8ff" stroke="#63b8ff" points="2400.05,-525.98 2410.63,-526.55 2402.71,-519.51 2400.05,-525.98"/>
</a>
</g>
</g>
<!-- Node12&#45;&gt;Node3 -->
<g id="edge102_Node000012_Node000003" class="edge">
<title>Node12&#45;&gt;Node3</title>
<g id="a_edge102_Node000012_Node000003"><a xlink:title=" ">
<path fill="none" stroke="#63b8ff" d="M2084.17,-359.64C2177.39,-346.61 2304.74,-327.28 2326,-316.14 2374.49,-290.73 2415.7,-240.92 2438.62,-209.14"/>
<polygon fill="#63b8ff" stroke="#63b8ff" points="2441.67,-210.88 2444.58,-200.69 2435.96,-206.84 2441.67,-210.88"/>
</a>
</g>
</g>
<!-- Node13 -->
<g id="Node000013" class="node">
<title>Node13</title>
<g id="a_Node000013"><a xlink:href="$classcom_1_1example_1_1mybookshelf_1_1BookRecommendationFlow.html#aa95301256c7f5377d1bc432189483b3c" xlink:title=" ">
<polygon fill="white" stroke="#666666" points="2325,-404.64 2122,-404.64 2122,-363.64 2325,-363.64 2325,-404.64"/>
<text text-anchor="start" x="2130" y="-392.64" font-family="Helvetica,sans-Serif" font-size="10.00">com.example.mybookshelf.</text>
<text text-anchor="start" x="2130" y="-381.64" font-family="Helvetica,sans-Serif" font-size="10.00">BookRecommendationFlow.showBook</text>
<text text-anchor="middle" x="2223.5" y="-370.64" font-family="Helvetica,sans-Serif" font-size="10.00">BasedStep3</text>
</a>
</g>
</g>
<!-- Node12&#45;&gt;Node13 -->
<g id="edge103_Node000012_Node000013" class="edge">
<title>Node12&#45;&gt;Node13</title>
<g id="a_edge103_Node000012_Node000013"><a xlink:title=" ">
<path fill="none" stroke="#63b8ff" d="M2084.16,-377.77C2093.35,-378.19 2102.68,-378.62 2111.94,-379.05"/>
<polygon fill="#63b8ff" stroke="#63b8ff" points="2111.8,-382.55 2121.95,-379.51 2112.12,-375.55 2111.8,-382.55"/>
</a>
</g>
</g>
<!-- Node13&#45;&gt;Node2 -->
<g id="edge104_Node000013_Node000002" class="edge">
<title>Node13&#45;&gt;Node2</title>
<g id="a_edge104_Node000013_Node000002"><a xlink:title=" ">
<path fill="none" stroke="#63b8ff" d="M2300.42,-404.71C2309.45,-408.75 2318.21,-413.52 2326,-419.14 2347.34,-434.53 2343.84,-447.1 2362,-466.14 2380.62,-485.66 2403.66,-505.22 2422.5,-520.24"/>
<polygon fill="#63b8ff" stroke="#63b8ff" points="2420.54,-523.15 2430.56,-526.59 2424.87,-517.65 2420.54,-523.15"/>
</a>
</g>
</g>
<!-- Node13&#45;&gt;Node3 -->
<g id="edge107_Node000013_Node000003" class="edge">
<title>Node13&#45;&gt;Node3</title>
<g id="a_edge107_Node000013_Node000003"><a xlink:title=" ">
<path fill="none" stroke="#63b8ff" d="M2300.11,-363.61C2309.24,-359.56 2318.11,-354.77 2326,-349.14 2378.66,-311.55 2420.65,-247.12 2442.19,-209.61"/>
<polygon fill="#63b8ff" stroke="#63b8ff" points="2445.36,-211.12 2447.22,-200.69 2439.26,-207.68 2445.36,-211.12"/>
</a>
</g>
</g>
<!-- Node14 -->
<g id="Node000014" class="node">
<title>Node14</title>
<g id="a_Node000014"><a xlink:href="$classcom_1_1example_1_1mybookshelf_1_1BookRecommendationFlow.html#a78dda71d2c403a463d824ff61b2ce27f" xlink:title=" ">
<polygon fill="white" stroke="#666666" points="2547.5,-456.64 2370.5,-456.64 2370.5,-415.64 2547.5,-415.64 2547.5,-456.64"/>
<text text-anchor="start" x="2378.5" y="-444.64" font-family="Helvetica,sans-Serif" font-size="10.00">com.example.mybookshelf.</text>
<text text-anchor="start" x="2378.5" y="-433.64" font-family="Helvetica,sans-Serif" font-size="10.00">BookRecommendationFlow.build</text>
<text text-anchor="middle" x="2459" y="-422.64" font-family="Helvetica,sans-Serif" font-size="10.00">AIStringBased</text>
</a>
</g>
</g>
<!-- Node13&#45;&gt;Node14 -->
<g id="edge105_Node000013_Node000014" class="edge">
<title>Node13&#45;&gt;Node14</title>
<g id="a_edge105_Node000013_Node000014"><a xlink:title=" ">
<path fill="none" stroke="#63b8ff" d="M2316.79,-404.69C2331.08,-407.87 2345.88,-411.17 2360.29,-414.38"/>
<polygon fill="#63b8ff" stroke="#63b8ff" points="2359.67,-417.83 2370.19,-416.58 2361.19,-410.99 2359.67,-417.83"/>
</a>
</g>
</g>
<!-- Node14&#45;&gt;Node7 -->
<g id="edge106_Node000014_Node000007" class="edge">
<title>Node14&#45;&gt;Node7</title>
<g id="a_edge106_Node000014_Node000007"><a xlink:title=" ">
<path fill="none" stroke="#63b8ff" d="M2370.25,-453.87C2186.32,-490.04 1746.49,-571.24 1373,-599.14 1275.05,-606.45 1241.58,-639.43 1152,-599.14 1098.78,-575.2 1059.03,-516.15 1039.83,-482.56"/>
<polygon fill="#63b8ff" stroke="#63b8ff" points="1042.66,-480.45 1034.74,-473.41 1036.54,-483.85 1042.66,-480.45"/>
</a>
</g>
</g>
<!-- Node15&#45;&gt;Node2 -->
<g id="edge109_Node000015_Node000002" class="edge">
<title>Node15&#45;&gt;Node2</title>
<g id="a_edge109_Node000015_Node000002"><a xlink:title=" ">
<path fill="none" stroke="#63b8ff" d="M2049.26,-320.76C2062.11,-326.86 2074.76,-334.56 2085,-344.14 2110.54,-368.05 2092.68,-393.59 2121,-414.14 2195.69,-468.33 2241.14,-410.86 2326,-447.14 2366.25,-464.34 2405.31,-496.45 2430.36,-519.65"/>
<polygon fill="#63b8ff" stroke="#63b8ff" points="2428,-522.23 2437.67,-526.54 2432.8,-517.14 2428,-522.23"/>
</a>
</g>
</g>
<!-- Node15&#45;&gt;Node3 -->
<g id="edge110_Node000015_Node000003" class="edge">
<title>Node15&#45;&gt;Node3</title>
<g id="a_edge110_Node000015_Node000003"><a xlink:title=" ">
<path fill="none" stroke="#63b8ff" d="M2045.1,-279.55C2068.7,-272.01 2095.96,-263.72 2121,-257.14 2211.12,-233.43 2235.23,-234.22 2326,-213.14 2339.42,-210.02 2353.58,-206.61 2367.45,-203.2"/>
<polygon fill="#63b8ff" stroke="#63b8ff" points="2368.61,-206.52 2377.48,-200.73 2366.93,-199.73 2368.61,-206.52"/>
</a>
</g>
</g>
<!-- Node16 -->
<g id="Node000016" class="node">
<title>Node16</title>
<g id="a_Node000016"><a xlink:href="$classcom_1_1example_1_1mybookshelf_1_1BookRecommendationFlow.html#aaf567ca97b0d7f0c58ebba4d6f4b18bd" xlink:title=" ">
<polygon fill="white" stroke="#666666" points="2326,-306.64 2121,-306.64 2121,-265.64 2326,-265.64 2326,-306.64"/>
<text text-anchor="start" x="2129" y="-294.64" font-family="Helvetica,sans-Serif" font-size="10.00">com.example.mybookshelf.</text>
<text text-anchor="start" x="2129" y="-283.64" font-family="Helvetica,sans-Serif" font-size="10.00">BookRecommendationFlow.showFresh</text>
<text text-anchor="middle" x="2223.5" y="-272.64" font-family="Helvetica,sans-Serif" font-size="10.00">StartStep2</text>
</a>
</g>
</g>
<!-- Node15&#45;&gt;Node16 -->
<g id="edge111_Node000015_Node000016" class="edge">
<title>Node15&#45;&gt;Node16</title>
<g id="a_edge111_Node000015_Node000016"><a xlink:title=" ">
<path fill="none" stroke="#63b8ff" d="M2085.2,-294.18C2093.7,-293.68 2102.31,-293.18 2110.87,-292.68"/>
<polygon fill="#63b8ff" stroke="#63b8ff" points="2111.11,-296.17 2120.89,-292.09 2110.7,-289.18 2111.11,-296.17"/>
</a>
</g>
</g>
<!-- Node16&#45;&gt;Node1 -->
<g id="edge114_Node000016_Node000001" class="edge">
<title>Node16&#45;&gt;Node1</title>
<g id="a_edge114_Node000016_Node000001"><a xlink:title=" ">
<path fill="none" stroke="#63b8ff" d="M2153.8,-265.63C2061.42,-239.91 1891.62,-199.14 1743.5,-199.14 583.5,-199.14 583.5,-199.14 583.5,-199.14 422.46,-199.14 242.01,-270.42 155.39,-309.39"/>
<polygon fill="#63b8ff" stroke="#63b8ff" points="153.7,-306.31 146.05,-313.63 156.6,-312.69 153.7,-306.31"/>
</a>
</g>
</g>
<!-- Node16&#45;&gt;Node2 -->
<g id="edge112_Node000016_Node000002" class="edge">
<title>Node16&#45;&gt;Node2</title>
<g id="a_edge112_Node000016_Node000002"><a xlink:title=" ">
<path fill="none" stroke="#63b8ff" d="M2267.26,-306.7C2287.59,-318.38 2310.72,-334.77 2326,-355.14 2357.13,-396.62 2333.07,-423.09 2362,-466.14 2376.31,-487.42 2397.73,-506.24 2416.71,-520.37"/>
<polygon fill="#63b8ff" stroke="#63b8ff" points="2414.79,-523.31 2424.94,-526.33 2418.89,-517.63 2414.79,-523.31"/>
</a>
</g>
</g>
<!-- Node16&#45;&gt;Node3 -->
<g id="edge113_Node000016_Node000003" class="edge">
<title>Node16&#45;&gt;Node3</title>
<g id="a_edge113_Node000016_Node000003"><a xlink:title=" ">
<path fill="none" stroke="#63b8ff" d="M2289.27,-265.56C2301.6,-261.15 2314.3,-256.26 2326,-251.14 2356.36,-237.84 2389.18,-220.2 2414.5,-205.83"/>
<polygon fill="#63b8ff" stroke="#63b8ff" points="2416.53,-208.71 2423.47,-200.7 2413.05,-202.63 2416.53,-208.71"/>
</a>
</g>
</g>
</g>
</svg>
