<?xml version="1.0" encoding="UTF-8" standalone="no"?>
<!DOCTYPE svg PUBLIC "-//W3C//DTD SVG 1.1//EN"
 "http://www.w3.org/Graphics/SVG/1.1/DTD/svg11.dtd">
<!-- Generated by graphviz version 2.43.0 (0)
 -->
<!-- Title: com.example.mybookshelf.UIMaster.setupChart Pages: 1 -->
<svg width="382pt" height="230pt"
 viewBox="0.00 0.00 382.00 230.00" xmlns="http://www.w3.org/2000/svg" xmlns:xlink="http://www.w3.org/1999/xlink">
<g id="graph0" class="graph" transform="scale(1 1) rotate(0) translate(4 226)">
<title>com.example.mybookshelf.UIMaster.setupChart</title>
<!-- Node1 -->
<g id="Node000001" class="node">
<title>Node1</title>
<g id="a_Node000001"><a xlink:title=" ">
<polygon fill="#999999" stroke="#666666" points="152,-126 0,-126 0,-96 152,-96 152,-126"/>
<text text-anchor="start" x="8" y="-114" font-family="Helvetica,sans-Serif" font-size="10.00">com.example.mybookshelf.</text>
<text text-anchor="middle" x="76" y="-103" font-family="Helvetica,sans-Serif" font-size="10.00">UIMaster.setupChart</text>
</a>
</g>
</g>
<!-- Node2 -->
<g id="Node000002" class="node">
<title>Node2</title>
<g id="a_Node000002"><a xlink:href="$classcom_1_1example_1_1mybookshelf_1_1UIMaster.html#a66cf6ce29c43e6db34be85ae9990c102" xlink:title=" ">
<polygon fill="white" stroke="#666666" points="357,-222 205,-222 205,-192 357,-192 357,-222"/>
<text text-anchor="start" x="213" y="-210" font-family="Helvetica,sans-Serif" font-size="10.00">com.example.mybookshelf.</text>
<text text-anchor="middle" x="281" y="-199" font-family="Helvetica,sans-Serif" font-size="10.00">UIMaster.configureAxes</text>
</a>
</g>
</g>
<!-- Node1&#45;&gt;Node2 -->
<g id="edge11_Node000001_Node000002" class="edge">
<title>Node1&#45;&gt;Node2</title>
<g id="a_edge11_Node000001_Node000002"><a xlink:title=" ">
<path fill="none" stroke="#63b8ff" d="M95.96,-126.03C117.23,-142.22 153.32,-167.71 188,-183 192.6,-185.03 197.41,-186.92 202.31,-188.66"/>
<polygon fill="#63b8ff" stroke="#63b8ff" points="201.23,-191.99 211.83,-191.86 203.46,-185.36 201.23,-191.99"/>
</a>
</g>
</g>
<!-- Node3 -->
<g id="Node000003" class="node">
<title>Node3</title>
<g id="a_Node000003"><a xlink:href="$classcom_1_1example_1_1mybookshelf_1_1UIMaster.html#ae589c66b6b1826db14cd0185e2453c12" xlink:title=" ">
<polygon fill="white" stroke="#666666" points="357,-174 205,-174 205,-144 357,-144 357,-174"/>
<text text-anchor="start" x="213" y="-162" font-family="Helvetica,sans-Serif" font-size="10.00">com.example.mybookshelf.</text>
<text text-anchor="middle" x="281" y="-151" font-family="Helvetica,sans-Serif" font-size="10.00">UIMaster.configureChart</text>
</a>
</g>
</g>
<!-- Node1&#45;&gt;Node3 -->
<g id="edge12_Node000001_Node000003" class="edge">
<title>Node1&#45;&gt;Node3</title>
<g id="a_edge12_Node000001_Node000003"><a xlink:title=" ">
<path fill="none" stroke="#63b8ff" d="M140.67,-126.06C161.65,-131.01 185.13,-136.57 206.76,-141.68"/>
<polygon fill="#63b8ff" stroke="#63b8ff" points="206.02,-145.1 216.55,-144 207.63,-138.29 206.02,-145.1"/>
</a>
</g>
</g>
<!-- Node4 -->
<g id="Node000004" class="node">
<title>Node4</title>
<g id="a_Node000004"><a xlink:href="$classcom_1_1example_1_1mybookshelf_1_1UIMaster.html#a2f446043c1019868262b5e49ddb58609" xlink:title=" ">
<polygon fill="white" stroke="#666666" points="370,-126 192,-126 192,-96 370,-96 370,-126"/>
<text text-anchor="start" x="200" y="-114" font-family="Helvetica,sans-Serif" font-size="10.00">com.example.mybookshelf.</text>
<text text-anchor="middle" x="281" y="-103" font-family="Helvetica,sans-Serif" font-size="10.00">UIMaster.convertMinutesToHours</text>
</a>
</g>
</g>
<!-- Node1&#45;&gt;Node4 -->
<g id="edge13_Node000001_Node000004" class="edge">
<title>Node1&#45;&gt;Node4</title>
<g id="a_edge13_Node000001_Node000004"><a xlink:title=" ">
<path fill="none" stroke="#63b8ff" d="M152.01,-111C161.75,-111 171.85,-111 181.89,-111"/>
<polygon fill="#63b8ff" stroke="#63b8ff" points="181.91,-114.5 191.91,-111 181.91,-107.5 181.91,-114.5"/>
</a>
</g>
</g>
<!-- Node5 -->
<g id="Node000005" class="node">
<title>Node5</title>
<g id="a_Node000005"><a xlink:href="$classcom_1_1example_1_1mybookshelf_1_1UIMaster.html#a5368b8b93b9216d91a256a2302ea04c8" xlink:title=" ">
<polygon fill="white" stroke="#666666" points="374,-78 188,-78 188,-48 374,-48 374,-78"/>
<text text-anchor="start" x="196" y="-66" font-family="Helvetica,sans-Serif" font-size="10.00">com.example.mybookshelf.</text>
<text text-anchor="middle" x="281" y="-55" font-family="Helvetica,sans-Serif" font-size="10.00">UIMaster.displayTotalReadingTime</text>
</a>
</g>
</g>
<!-- Node1&#45;&gt;Node5 -->
<g id="edge14_Node000001_Node000005" class="edge">
<title>Node1&#45;&gt;Node5</title>
<g id="a_edge14_Node000001_Node000005"><a xlink:title=" ">
<path fill="none" stroke="#63b8ff" d="M140.67,-95.94C161.65,-90.99 185.13,-85.43 206.76,-80.32"/>
<polygon fill="#63b8ff" stroke="#63b8ff" points="207.63,-83.71 216.55,-78 206.02,-76.9 207.63,-83.71"/>
</a>
</g>
</g>
<!-- Node6 -->
<g id="Node000006" class="node">
<title>Node6</title>
<g id="a_Node000006"><a xlink:href="$classcom_1_1example_1_1mybookshelf_1_1UIMaster.html#a897a27ba41fe604acf9472257ad18685" xlink:title=" ">
<polygon fill="white" stroke="#666666" points="357,-30 205,-30 205,0 357,0 357,-30"/>
<text text-anchor="start" x="213" y="-18" font-family="Helvetica,sans-Serif" font-size="10.00">com.example.mybookshelf.</text>
<text text-anchor="middle" x="281" y="-7" font-family="Helvetica,sans-Serif" font-size="10.00">UIMaster.filterValidEntries</text>
</a>
</g>
</g>
<!-- Node1&#45;&gt;Node6 -->
<g id="edge15_Node000001_Node000006" class="edge">
<title>Node1&#45;&gt;Node6</title>
<g id="a_edge15_Node000001_Node000006"><a xlink:title=" ">
<path fill="none" stroke="#63b8ff" d="M95.96,-95.97C117.23,-79.78 153.32,-54.29 188,-39 192.6,-36.97 197.41,-35.08 202.31,-33.34"/>
<polygon fill="#63b8ff" stroke="#63b8ff" points="203.46,-36.64 211.83,-30.14 201.23,-30.01 203.46,-36.64"/>
</a>
</g>
</g>
</g>
</svg>
