<?xml version="1.0" encoding="UTF-8" standalone="no"?>
<!DOCTYPE svg PUBLIC "-//W3C//DTD SVG 1.1//EN"
 "http://www.w3.org/Graphics/SVG/1.1/DTD/svg11.dtd">
<!-- Generated by graphviz version 2.43.0 (0)
 -->
<!-- Title: com.example.mybookshelf.LayoutManager.CostumeListAdapter.DebouncedTextWatcher Pages: 1 -->
<svg width="321pt" height="235pt"
 viewBox="0.00 0.00 320.50 235.00" xmlns="http://www.w3.org/2000/svg" xmlns:xlink="http://www.w3.org/1999/xlink">
<g id="graph0" class="graph" transform="scale(1 1) rotate(0) translate(4 231)">
<title>com.example.mybookshelf.LayoutManager.CostumeListAdapter.DebouncedTextWatcher</title>
<!-- Node1 -->
<g id="Node000001" class="node">
<title>Node1</title>
<g id="a_Node000001"><a xlink:title=" ">
<polygon fill="#999999" stroke="transparent" points="254.5,-131 64.5,-131 64.5,0 254.5,0 254.5,-131"/>
<text text-anchor="start" x="69.5" y="-118.5" font-family="Helvetica,sans-Serif" font-size="10.00">com.example.mybookshelf.</text>
<text text-anchor="start" x="69.5" y="-107.5" font-family="Helvetica,sans-Serif" font-size="10.00">LayoutManager.CostumeListAdapter.</text>
<text text-anchor="start" x="102" y="-96.5" font-family="Helvetica,sans-Serif" font-size="10.00">DebouncedTextWatcher</text>
<text text-anchor="start" x="157.5" y="-81.5" font-family="Helvetica,sans-Serif" font-size="10.00"> </text>
<text text-anchor="start" x="76" y="-66.5" font-family="Helvetica,sans-Serif" font-size="10.00">+</text>
<text text-anchor="start" x="96.5" y="-66.5" font-family="Helvetica,sans-Serif" font-size="10.00">DebouncedTextWatcher()</text>
<text text-anchor="start" x="76" y="-51.5" font-family="Helvetica,sans-Serif" font-size="10.00">+</text>
<text text-anchor="start" x="96.5" y="-51.5" font-family="Helvetica,sans-Serif" font-size="10.00">beforeTextChanged()</text>
<text text-anchor="start" x="76" y="-36.5" font-family="Helvetica,sans-Serif" font-size="10.00">+</text>
<text text-anchor="start" x="96.5" y="-36.5" font-family="Helvetica,sans-Serif" font-size="10.00">onTextChanged()</text>
<text text-anchor="start" x="76" y="-21.5" font-family="Helvetica,sans-Serif" font-size="10.00">+</text>
<text text-anchor="start" x="96.5" y="-21.5" font-family="Helvetica,sans-Serif" font-size="10.00">afterTextChanged()</text>
<text text-anchor="start" x="76" y="-6.5" font-family="Helvetica,sans-Serif" font-size="10.00">+</text>
<text text-anchor="start" x="96.5" y="-6.5" font-family="Helvetica,sans-Serif" font-size="10.00">onDebouncedTextChanged()</text>
<polygon fill="#666666" stroke="#666666" points="64.5,-91.5 64.5,-91.5 254.5,-91.5 254.5,-91.5 64.5,-91.5"/>
<polygon fill="#666666" stroke="#666666" points="64.5,-76.5 64.5,-76.5 254.5,-76.5 254.5,-76.5 64.5,-76.5"/>
<polygon fill="none" stroke="#666666" points="64.5,0 64.5,-131 254.5,-131 254.5,0 64.5,0"/>
</a>
</g>
</g>
<!-- Node2 -->
<g id="Node000002" class="node">
<title>Node2</title>
<g id="a_Node000002"><a xlink:href="$classTextWatcher.html" xlink:title=" ">
<polygon fill="white" stroke="transparent" points="71,-227 0,-227 0,-178 71,-178 71,-227"/>
<text text-anchor="start" x="5.5" y="-214.5" font-family="Helvetica,sans-Serif" font-size="10.00">TextWatcher</text>
<text text-anchor="start" x="34" y="-199.5" font-family="Helvetica,sans-Serif" font-size="10.00"> </text>
<text text-anchor="start" x="34" y="-184.5" font-family="Helvetica,sans-Serif" font-size="10.00"> </text>
<polygon fill="#666666" stroke="#666666" points="0.5,-209.5 0.5,-209.5 71.5,-209.5 71.5,-209.5 0.5,-209.5"/>
<polygon fill="#666666" stroke="#666666" points="0.5,-194.5 0.5,-194.5 71.5,-194.5 71.5,-194.5 0.5,-194.5"/>
<polygon fill="none" stroke="#666666" points="0,-178 0,-227 71,-227 71,-178 0,-178"/>
</a>
</g>
</g>
<!-- Node2&#45;&gt;Node1 -->
<g id="edge9_Node000001_Node000002" class="edge">
<title>Node2&#45;&gt;Node1</title>
<g id="a_edge9_Node000001_Node000002"><a xlink:title=" ">
<path fill="none" stroke="#63b8ff" d="M63.89,-170.59C74.7,-158.83 87.45,-144.94 100.06,-131.21"/>
<polygon fill="none" stroke="#63b8ff" points="61.29,-168.25 57.1,-177.98 66.44,-172.99 61.29,-168.25"/>
</a>
</g>
</g>
<!-- Node3 -->
<g id="Node000003" class="node">
<title>Node3</title>
<g id="a_Node000003"><a xlink:title=" ">
<polygon fill="white" stroke="transparent" points="145.5,-227 89.5,-227 89.5,-178 145.5,-178 145.5,-227"/>
<text text-anchor="start" x="94.5" y="-214.5" font-family="Helvetica,sans-Serif" font-size="10.00">final long</text>
<text text-anchor="start" x="115.5" y="-199.5" font-family="Helvetica,sans-Serif" font-size="10.00"> </text>
<text text-anchor="start" x="115.5" y="-184.5" font-family="Helvetica,sans-Serif" font-size="10.00"> </text>
<polygon fill="#666666" stroke="#666666" points="89.5,-209.5 89.5,-209.5 145.5,-209.5 145.5,-209.5 89.5,-209.5"/>
<polygon fill="#666666" stroke="#666666" points="89.5,-194.5 89.5,-194.5 145.5,-194.5 145.5,-194.5 89.5,-194.5"/>
<polygon fill="none" stroke="#666666" points="89.5,-178 89.5,-227 145.5,-227 145.5,-178 89.5,-178"/>
</a>
</g>
</g>
<!-- Node3&#45;&gt;Node1 -->
<g id="edge10_Node000001_Node000003" class="edge">
<title>Node3&#45;&gt;Node1</title>
<g id="a_edge10_Node000001_Node000003"><a xlink:title=" ">
<path fill="none" stroke="#63b8ff" d="M115.76,-177.96C115.65,-168.8 116.22,-158.3 118.5,-149 119.02,-146.88 119.6,-144.75 120.23,-142.62"/>
<polygon fill="none" stroke="#63b8ff" points="120.24,-142.61 118.37,-135.64 124.09,-131.24 125.95,-138.21 120.24,-142.61"/>
</a>
</g>
<text text-anchor="middle" x="149" y="-152" font-family="Helvetica,sans-Serif" font-size="10.00" fill="grey"> &#45;delayMillis</text>
</g>
<!-- Node4 -->
<g id="Node000004" class="node">
<title>Node4</title>
<g id="a_Node000004"><a xlink:title=" ">
<polygon fill="white" stroke="transparent" points="238,-227 165,-227 165,-178 238,-178 238,-227"/>
<text text-anchor="start" x="170.5" y="-214.5" font-family="Helvetica,sans-Serif" font-size="10.00">final Handler</text>
<text text-anchor="start" x="200" y="-199.5" font-family="Helvetica,sans-Serif" font-size="10.00"> </text>
<text text-anchor="start" x="200" y="-184.5" font-family="Helvetica,sans-Serif" font-size="10.00"> </text>
<polygon fill="#666666" stroke="#666666" points="165.5,-209.5 165.5,-209.5 238.5,-209.5 238.5,-209.5 165.5,-209.5"/>
<polygon fill="#666666" stroke="#666666" points="165.5,-194.5 165.5,-194.5 238.5,-194.5 238.5,-194.5 165.5,-194.5"/>
<polygon fill="none" stroke="#666666" points="165,-178 165,-227 238,-227 238,-178 165,-178"/>
</a>
</g>
</g>
<!-- Node4&#45;&gt;Node1 -->
<g id="edge11_Node000001_Node000004" class="edge">
<title>Node4&#45;&gt;Node1</title>
<g id="a_edge11_Node000001_Node000004"><a xlink:title=" ">
<path fill="none" stroke="#63b8ff" d="M194.18,-177.98C191.07,-167.98 187.25,-155.69 183.29,-142.97"/>
<polygon fill="none" stroke="#63b8ff" points="183.2,-142.67 177.6,-138.13 179.63,-131.21 185.23,-135.75 183.2,-142.67"/>
</a>
</g>
<text text-anchor="middle" x="209.5" y="-152" font-family="Helvetica,sans-Serif" font-size="10.00" fill="grey"> &#45;handler</text>
</g>
<!-- Node5 -->
<g id="Node000005" class="node">
<title>Node5</title>
<g id="a_Node000005"><a xlink:title=" ">
<polygon fill="white" stroke="transparent" points="312.5,-227 256.5,-227 256.5,-178 312.5,-178 312.5,-227"/>
<text text-anchor="start" x="261.5" y="-214.5" font-family="Helvetica,sans-Serif" font-size="10.00">Runnable</text>
<text text-anchor="start" x="282.5" y="-199.5" font-family="Helvetica,sans-Serif" font-size="10.00"> </text>
<text text-anchor="start" x="282.5" y="-184.5" font-family="Helvetica,sans-Serif" font-size="10.00"> </text>
<polygon fill="#666666" stroke="#666666" points="256.5,-209.5 256.5,-209.5 312.5,-209.5 312.5,-209.5 256.5,-209.5"/>
<polygon fill="#666666" stroke="#666666" points="256.5,-194.5 256.5,-194.5 312.5,-194.5 312.5,-194.5 256.5,-194.5"/>
<polygon fill="none" stroke="#666666" points="256.5,-178 256.5,-227 312.5,-227 312.5,-178 256.5,-178"/>
</a>
</g>
</g>
<!-- Node5&#45;&gt;Node1 -->
<g id="edge12_Node000001_Node000005" class="edge">
<title>Node5&#45;&gt;Node1</title>
<g id="a_edge12_Node000001_Node000005"><a xlink:title=" ">
<path fill="none" stroke="#63b8ff" d="M262.73,-177.98C252.8,-167.26 240.45,-153.92 227.77,-140.23"/>
<polygon fill="none" stroke="#63b8ff" points="227.57,-140.02 220.56,-138.33 219.42,-131.21 226.43,-132.9 227.57,-140.02"/>
</a>
</g>
<text text-anchor="middle" x="268.5" y="-152" font-family="Helvetica,sans-Serif" font-size="10.00" fill="grey"> &#45;runnable</text>
</g>
</g>
</svg>
