<?xml version="1.0" encoding="UTF-8" standalone="no"?>
<!DOCTYPE svg PUBLIC "-//W3C//DTD SVG 1.1//EN"
 "http://www.w3.org/Graphics/SVG/1.1/DTD/svg11.dtd">
<!-- Generated by graphviz version 2.43.0 (0)
 -->
<!-- Title: com.example.mybookshelf.DataBaseConnection.addGoal Pages: 1 -->
<svg width="380pt" height="278pt"
 viewBox="0.00 0.00 380.00 278.00" xmlns="http://www.w3.org/2000/svg" xmlns:xlink="http://www.w3.org/1999/xlink">
<g id="graph0" class="graph" transform="scale(1 1) rotate(0) translate(4 274)">
<title>com.example.mybookshelf.DataBaseConnection.addGoal</title>
<!-- Node1 -->
<g id="Node000001" class="node">
<title>Node1</title>
<g id="a_Node000001"><a xlink:title=" ">
<polygon fill="#999999" stroke="#666666" points="162,-150 0,-150 0,-120 162,-120 162,-150"/>
<text text-anchor="start" x="8" y="-138" font-family="Helvetica,sans-Serif" font-size="10.00">com.example.mybookshelf.</text>
<text text-anchor="middle" x="81" y="-127" font-family="Helvetica,sans-Serif" font-size="10.00">DataBaseConnection.addGoal</text>
</a>
</g>
</g>
<!-- Node2 -->
<g id="Node000002" class="node">
<title>Node2</title>
<g id="a_Node000002"><a xlink:href="$classcom_1_1example_1_1mybookshelf_1_1dataClass_1_1Goal.html#a3b610e27f691556a8dcf5b8301b9a9d1" xlink:title=" ">
<polygon fill="white" stroke="#666666" points="372,-270 198,-270 198,-240 372,-240 372,-270"/>
<text text-anchor="start" x="206" y="-258" font-family="Helvetica,sans-Serif" font-size="10.00">com.example.mybookshelf.data</text>
<text text-anchor="middle" x="285" y="-247" font-family="Helvetica,sans-Serif" font-size="10.00">Class.Goal.getBookName</text>
</a>
</g>
</g>
<!-- Node1&#45;&gt;Node2 -->
<g id="edge13_Node000001_Node000002" class="edge">
<title>Node1&#45;&gt;Node2</title>
<g id="a_edge13_Node000001_Node000002"><a xlink:title=" ">
<path fill="none" stroke="#63b8ff" d="M96.26,-150.3C116.79,-171.45 156.76,-209.44 198,-231 201.53,-232.85 205.22,-234.56 209,-236.16"/>
<polygon fill="#63b8ff" stroke="#63b8ff" points="207.95,-239.51 218.54,-239.88 210.5,-232.99 207.95,-239.51"/>
</a>
</g>
</g>
<!-- Node3 -->
<g id="Node000003" class="node">
<title>Node3</title>
<g id="a_Node000003"><a xlink:href="$classcom_1_1example_1_1mybookshelf_1_1dataClass_1_1Goal.html#ada3305dadb216e065d9bb31e12ff6107" xlink:title=" ">
<polygon fill="white" stroke="#666666" points="372,-222 198,-222 198,-192 372,-192 372,-222"/>
<text text-anchor="start" x="206" y="-210" font-family="Helvetica,sans-Serif" font-size="10.00">com.example.mybookshelf.data</text>
<text text-anchor="middle" x="285" y="-199" font-family="Helvetica,sans-Serif" font-size="10.00">Class.Goal.getFrequenzy</text>
</a>
</g>
</g>
<!-- Node1&#45;&gt;Node3 -->
<g id="edge14_Node000001_Node000003" class="edge">
<title>Node1&#45;&gt;Node3</title>
<g id="a_edge14_Node000001_Node000003"><a xlink:title=" ">
<path fill="none" stroke="#63b8ff" d="M115.34,-150.05C138.31,-160.1 169.67,-173.23 198,-183 203.96,-185.06 210.2,-187.07 216.48,-188.99"/>
<polygon fill="#63b8ff" stroke="#63b8ff" points="215.76,-192.43 226.34,-191.94 217.76,-185.72 215.76,-192.43"/>
</a>
</g>
</g>
<!-- Node4 -->
<g id="Node000004" class="node">
<title>Node4</title>
<g id="a_Node000004"><a xlink:href="$classcom_1_1example_1_1mybookshelf_1_1dataClass_1_1Goal.html#a1c80a58d3e1cd2e1ab6ef14c40d3b274" xlink:title=" ">
<polygon fill="white" stroke="#666666" points="372,-174 198,-174 198,-144 372,-144 372,-174"/>
<text text-anchor="start" x="206" y="-162" font-family="Helvetica,sans-Serif" font-size="10.00">com.example.mybookshelf.data</text>
<text text-anchor="middle" x="285" y="-151" font-family="Helvetica,sans-Serif" font-size="10.00">Class.Goal.getGoal</text>
</a>
</g>
</g>
<!-- Node1&#45;&gt;Node4 -->
<g id="edge15_Node000001_Node000004" class="edge">
<title>Node1&#45;&gt;Node4</title>
<g id="a_edge15_Node000001_Node000004"><a xlink:title=" ">
<path fill="none" stroke="#63b8ff" d="M162.13,-144.52C170.6,-145.53 179.27,-146.56 187.9,-147.58"/>
<polygon fill="#63b8ff" stroke="#63b8ff" points="187.65,-151.08 197.99,-148.78 188.48,-144.13 187.65,-151.08"/>
</a>
</g>
</g>
<!-- Node5 -->
<g id="Node000005" class="node">
<title>Node5</title>
<g id="a_Node000005"><a xlink:href="$classcom_1_1example_1_1mybookshelf_1_1dataClass_1_1Goal.html#a964cb06dadac4c69df6c931402733779" xlink:title=" ">
<polygon fill="white" stroke="#666666" points="372,-126 198,-126 198,-96 372,-96 372,-126"/>
<text text-anchor="start" x="206" y="-114" font-family="Helvetica,sans-Serif" font-size="10.00">com.example.mybookshelf.data</text>
<text text-anchor="middle" x="285" y="-103" font-family="Helvetica,sans-Serif" font-size="10.00">Class.Goal.getProgress</text>
</a>
</g>
</g>
<!-- Node1&#45;&gt;Node5 -->
<g id="edge16_Node000001_Node000005" class="edge">
<title>Node1&#45;&gt;Node5</title>
<g id="a_edge16_Node000001_Node000005"><a xlink:title=" ">
<path fill="none" stroke="#63b8ff" d="M162.13,-125.48C170.6,-124.47 179.27,-123.44 187.9,-122.42"/>
<polygon fill="#63b8ff" stroke="#63b8ff" points="188.48,-125.87 197.99,-121.22 187.65,-118.92 188.48,-125.87"/>
</a>
</g>
</g>
<!-- Node6 -->
<g id="Node000006" class="node">
<title>Node6</title>
<g id="a_Node000006"><a xlink:href="$classcom_1_1example_1_1mybookshelf_1_1dataClass_1_1Goal.html#a84c2af13824c14a2b6c3dcf25a493d0f" xlink:title=" ">
<polygon fill="white" stroke="#666666" points="372,-78 198,-78 198,-48 372,-48 372,-78"/>
<text text-anchor="start" x="206" y="-66" font-family="Helvetica,sans-Serif" font-size="10.00">com.example.mybookshelf.data</text>
<text text-anchor="middle" x="285" y="-55" font-family="Helvetica,sans-Serif" font-size="10.00">Class.Goal.getTarget</text>
</a>
</g>
</g>
<!-- Node1&#45;&gt;Node6 -->
<g id="edge17_Node000001_Node000006" class="edge">
<title>Node1&#45;&gt;Node6</title>
<g id="a_edge17_Node000001_Node000006"><a xlink:title=" ">
<path fill="none" stroke="#63b8ff" d="M115.34,-119.95C138.31,-109.9 169.67,-96.77 198,-87 203.96,-84.94 210.2,-82.93 216.48,-81.01"/>
<polygon fill="#63b8ff" stroke="#63b8ff" points="217.76,-84.28 226.34,-78.06 215.76,-77.57 217.76,-84.28"/>
</a>
</g>
</g>
<!-- Node7 -->
<g id="Node000007" class="node">
<title>Node7</title>
<g id="a_Node000007"><a xlink:href="$classcom_1_1example_1_1mybookshelf_1_1dataClass_1_1User.html#af713b8b3cee54ffce03b9beebe4facff" xlink:title=" ">
<polygon fill="white" stroke="#666666" points="372,-30 198,-30 198,0 372,0 372,-30"/>
<text text-anchor="start" x="206" y="-18" font-family="Helvetica,sans-Serif" font-size="10.00">com.example.mybookshelf.data</text>
<text text-anchor="middle" x="285" y="-7" font-family="Helvetica,sans-Serif" font-size="10.00">Class.User.getUid</text>
</a>
</g>
</g>
<!-- Node1&#45;&gt;Node7 -->
<g id="edge18_Node000001_Node000007" class="edge">
<title>Node1&#45;&gt;Node7</title>
<g id="a_edge18_Node000001_Node000007"><a xlink:title=" ">
<path fill="none" stroke="#63b8ff" d="M96.26,-119.7C116.79,-98.55 156.76,-60.56 198,-39 201.53,-37.15 205.22,-35.44 209,-33.84"/>
<polygon fill="#63b8ff" stroke="#63b8ff" points="210.5,-37.01 218.54,-30.12 207.95,-30.49 210.5,-37.01"/>
</a>
</g>
</g>
</g>
</svg>
