<?xml version="1.0" encoding="UTF-8" standalone="no"?>
<!DOCTYPE svg PUBLIC "-//W3C//DTD SVG 1.1//EN"
 "http://www.w3.org/Graphics/SVG/1.1/DTD/svg11.dtd">
<!-- Generated by graphviz version 2.43.0 (0)
 -->
<!-- Title: com.example.mybookshelf.BookRecommendationFlow.createStyledGridButton Pages: 1 -->
<svg width="2294pt" height="490pt"
 viewBox="0.00 0.00 2294.00 489.78" xmlns="http://www.w3.org/2000/svg" xmlns:xlink="http://www.w3.org/1999/xlink">
<g id="graph0" class="graph" transform="scale(1 1) rotate(0) translate(4 485.78)">
<title>com.example.mybookshelf.BookRecommendationFlow.createStyledGridButton</title>
<!-- Node1 -->
<g id="Node000001" class="node">
<title>Node1</title>
<g id="a_Node000001"><a xlink:title=" ">
<polygon fill="#999999" stroke="#666666" points="2286,-295.99 2102,-295.99 2102,-254.99 2286,-254.99 2286,-295.99"/>
<text text-anchor="start" x="2110" y="-283.99" font-family="Helvetica,sans-Serif" font-size="10.00">com.example.mybookshelf.</text>
<text text-anchor="start" x="2110" y="-272.99" font-family="Helvetica,sans-Serif" font-size="10.00">BookRecommendationFlow.create</text>
<text text-anchor="middle" x="2194" y="-261.99" font-family="Helvetica,sans-Serif" font-size="10.00">StyledGridButton</text>
</a>
</g>
</g>
<!-- Node2 -->
<g id="Node000002" class="node">
<title>Node2</title>
<g id="a_Node000002"><a xlink:href="$classcom_1_1example_1_1mybookshelf_1_1BookRecommendationFlow.html#ae50cf18619872a365eebe91c18d86e8d" xlink:title=" ">
<polygon fill="white" stroke="#666666" points="2066,-180.49 1886,-180.49 1886,-150.49 2066,-150.49 2066,-180.49"/>
<text text-anchor="start" x="1894" y="-168.49" font-family="Helvetica,sans-Serif" font-size="10.00">com.example.mybookshelf.</text>
<text text-anchor="middle" x="1976" y="-157.49" font-family="Helvetica,sans-Serif" font-size="10.00">BookRecommendationFlow.callAI</text>
</a>
</g>
</g>
<!-- Node1&#45;&gt;Node2 -->
<g id="edge51_Node000001_Node000002" class="edge">
<title>Node1&#45;&gt;Node2</title>
<g id="a_edge51_Node000001_Node000002"><a xlink:title=" ">
<path fill="none" stroke="#63b8ff" d="M2143.63,-250.35C2101.41,-228.85 2042.06,-198.63 2006.76,-180.65"/>
<polygon fill="#63b8ff" stroke="#63b8ff" points="2142.13,-253.51 2152.63,-254.93 2145.3,-247.28 2142.13,-253.51"/>
</a>
</g>
</g>
<!-- Node4 -->
<g id="Node000004" class="node">
<title>Node4</title>
<g id="a_Node000004"><a xlink:href="$classcom_1_1example_1_1mybookshelf_1_1BookRecommendationFlow.html#aa95301256c7f5377d1bc432189483b3c" xlink:title=" ">
<polygon fill="white" stroke="#666666" points="1636,-371.99 1433,-371.99 1433,-330.99 1636,-330.99 1636,-371.99"/>
<text text-anchor="start" x="1441" y="-359.99" font-family="Helvetica,sans-Serif" font-size="10.00">com.example.mybookshelf.</text>
<text text-anchor="start" x="1441" y="-348.99" font-family="Helvetica,sans-Serif" font-size="10.00">BookRecommendationFlow.showBook</text>
<text text-anchor="middle" x="1534.5" y="-337.99" font-family="Helvetica,sans-Serif" font-size="10.00">BasedStep3</text>
</a>
</g>
</g>
<!-- Node1&#45;&gt;Node4 -->
<g id="edge70_Node000001_Node000004" class="edge">
<title>Node1&#45;&gt;Node4</title>
<g id="a_edge70_Node000001_Node000004"><a xlink:title=" ">
<path fill="none" stroke="#63b8ff" d="M2152.51,-301.28C2128.4,-315.15 2096.61,-330.92 2066,-338.49 1920,-374.61 1744.48,-369.95 1636.46,-361.83"/>
<polygon fill="#63b8ff" stroke="#63b8ff" points="2154.51,-304.16 2161.36,-296.08 2150.96,-298.13 2154.51,-304.16"/>
</a>
</g>
</g>
<!-- Node5 -->
<g id="Node000005" class="node">
<title>Node5</title>
<g id="a_Node000005"><a xlink:href="$classcom_1_1example_1_1mybookshelf_1_1BookRecommendationFlow.html#a5c657be258c13c85848c7b7115f8a0b5" xlink:title=" ">
<polygon fill="white" stroke="#666666" points="1395,-390.99 1192,-390.99 1192,-349.99 1395,-349.99 1395,-390.99"/>
<text text-anchor="start" x="1200" y="-378.99" font-family="Helvetica,sans-Serif" font-size="10.00">com.example.mybookshelf.</text>
<text text-anchor="start" x="1200" y="-367.99" font-family="Helvetica,sans-Serif" font-size="10.00">BookRecommendationFlow.showBook</text>
<text text-anchor="middle" x="1293.5" y="-356.99" font-family="Helvetica,sans-Serif" font-size="10.00">BasedStep2</text>
</a>
</g>
</g>
<!-- Node1&#45;&gt;Node5 -->
<g id="edge69_Node000001_Node000005" class="edge">
<title>Node1&#45;&gt;Node5</title>
<g id="a_edge69_Node000001_Node000005"><a xlink:title=" ">
<path fill="none" stroke="#63b8ff" d="M2164.05,-303.14C2139.9,-324.32 2103.5,-352.11 2066,-365.49 1837.52,-447.07 1546.15,-415.72 1395.25,-390.4"/>
<polygon fill="#63b8ff" stroke="#63b8ff" points="2166.64,-305.52 2171.75,-296.24 2161.97,-300.3 2166.64,-305.52"/>
</a>
</g>
</g>
<!-- Node6 -->
<g id="Node000006" class="node">
<title>Node6</title>
<g id="a_Node000006"><a xlink:href="$classcom_1_1example_1_1mybookshelf_1_1BookRecommendationFlow.html#a276e931dabe3e85af257a9d16ce7cc67" xlink:title=" ">
<polygon fill="white" stroke="#666666" points="1154,-390.99 951,-390.99 951,-349.99 1154,-349.99 1154,-390.99"/>
<text text-anchor="start" x="959" y="-378.99" font-family="Helvetica,sans-Serif" font-size="10.00">com.example.mybookshelf.</text>
<text text-anchor="start" x="959" y="-367.99" font-family="Helvetica,sans-Serif" font-size="10.00">BookRecommendationFlow.showBook</text>
<text text-anchor="middle" x="1052.5" y="-356.99" font-family="Helvetica,sans-Serif" font-size="10.00">BasedStep1</text>
</a>
</g>
</g>
<!-- Node1&#45;&gt;Node6 -->
<g id="edge68_Node000001_Node000006" class="edge">
<title>Node1&#45;&gt;Node6</title>
<g id="a_edge68_Node000001_Node000006"><a xlink:title=" ">
<path fill="none" stroke="#63b8ff" d="M2172.39,-304.57C2149.86,-333.87 2110.94,-377.75 2066,-399.49 1943.58,-458.73 1898.5,-438.49 1762.5,-438.49 1762.5,-438.49 1762.5,-438.49 1533.5,-438.49 1380.34,-438.49 1342.13,-425.3 1191,-400.49 1174.85,-397.84 1157.73,-394.53 1141.26,-391.07"/>
<polygon fill="#63b8ff" stroke="#63b8ff" points="2175.35,-306.46 2178.57,-296.36 2169.76,-302.25 2175.35,-306.46"/>
</a>
</g>
</g>
<!-- Node8 -->
<g id="Node000008" class="node">
<title>Node8</title>
<g id="a_Node000008"><a xlink:href="$classcom_1_1example_1_1mybookshelf_1_1BookRecommendationFlow.html#a4dceb0fa4d170b8c7e5a7a6718593dfe" xlink:title=" ">
<polygon fill="white" stroke="#666666" points="200,-346.49 0,-346.49 0,-316.49 200,-316.49 200,-346.49"/>
<text text-anchor="start" x="8" y="-334.49" font-family="Helvetica,sans-Serif" font-size="10.00">com.example.mybookshelf.</text>
<text text-anchor="middle" x="100" y="-323.49" font-family="Helvetica,sans-Serif" font-size="10.00">BookRecommendationFlow.handleNo</text>
</a>
</g>
</g>
<!-- Node1&#45;&gt;Node8 -->
<g id="edge67_Node000001_Node000008" class="edge">
<title>Node1&#45;&gt;Node8</title>
<g id="a_edge67_Node000001_Node000008"><a xlink:title=" ">
<path fill="none" stroke="#63b8ff" d="M2178.21,-305.54C2158.26,-342.59 2119,-404.35 2066,-434.49 1947.63,-501.82 1898.67,-476.49 1762.5,-476.49 1762.5,-476.49 1762.5,-476.49 569.5,-476.49 395.17,-476.49 200.01,-383.74 128.85,-346.6"/>
<polygon fill="#63b8ff" stroke="#63b8ff" points="2181.55,-306.72 2183.1,-296.24 2175.35,-303.47 2181.55,-306.72"/>
</a>
</g>
</g>
<!-- Node10 -->
<g id="Node000010" class="node">
<title>Node10</title>
<g id="a_Node000010"><a xlink:href="$classcom_1_1example_1_1mybookshelf_1_1BookRecommendationFlow.html#a46c6733f27b3527d3934cee02cfcd7ac" xlink:title=" ">
<polygon fill="white" stroke="#666666" points="1637,-197.99 1432,-197.99 1432,-156.99 1637,-156.99 1637,-197.99"/>
<text text-anchor="start" x="1440" y="-185.99" font-family="Helvetica,sans-Serif" font-size="10.00">com.example.mybookshelf.</text>
<text text-anchor="start" x="1440" y="-174.99" font-family="Helvetica,sans-Serif" font-size="10.00">BookRecommendationFlow.showFresh</text>
<text text-anchor="middle" x="1534.5" y="-163.99" font-family="Helvetica,sans-Serif" font-size="10.00">StartStep5</text>
</a>
</g>
</g>
<!-- Node1&#45;&gt;Node10 -->
<g id="edge75_Node000001_Node000010" class="edge">
<title>Node1&#45;&gt;Node10</title>
<g id="a_edge75_Node000001_Node000010"><a xlink:title=" ">
<path fill="none" stroke="#63b8ff" d="M2091.6,-264.35C1986.55,-252.26 1817.78,-231.33 1673,-206.49 1658.45,-204 1643.1,-201.06 1628.14,-198.03"/>
<polygon fill="#63b8ff" stroke="#63b8ff" points="2091.23,-267.83 2101.57,-265.49 2092.03,-260.88 2091.23,-267.83"/>
</a>
</g>
</g>
<!-- Node11 -->
<g id="Node000011" class="node">
<title>Node11</title>
<g id="a_Node000011"><a xlink:href="$classcom_1_1example_1_1mybookshelf_1_1BookRecommendationFlow.html#ad10515cfcf8650b6830b68f15d393b3b" xlink:title=" ">
<polygon fill="white" stroke="#666666" points="1396,-197.99 1191,-197.99 1191,-156.99 1396,-156.99 1396,-197.99"/>
<text text-anchor="start" x="1199" y="-185.99" font-family="Helvetica,sans-Serif" font-size="10.00">com.example.mybookshelf.</text>
<text text-anchor="start" x="1199" y="-174.99" font-family="Helvetica,sans-Serif" font-size="10.00">BookRecommendationFlow.showFresh</text>
<text text-anchor="middle" x="1293.5" y="-163.99" font-family="Helvetica,sans-Serif" font-size="10.00">StartStep4</text>
</a>
</g>
</g>
<!-- Node1&#45;&gt;Node11 -->
<g id="edge74_Node000001_Node000011" class="edge">
<title>Node1&#45;&gt;Node11</title>
<g id="a_edge74_Node000001_Node000011"><a xlink:title=" ">
<path fill="none" stroke="#63b8ff" d="M2175.73,-246.26C2154.58,-213.66 2115.39,-162.73 2066,-141.49 1821.49,-36.35 1492.31,-115.91 1356.77,-156.95"/>
<polygon fill="#63b8ff" stroke="#63b8ff" points="2172.91,-248.35 2181.21,-254.93 2178.83,-244.61 2172.91,-248.35"/>
</a>
</g>
</g>
<!-- Node12 -->
<g id="Node000012" class="node">
<title>Node12</title>
<g id="a_Node000012"><a xlink:href="$classcom_1_1example_1_1mybookshelf_1_1BookRecommendationFlow.html#a2bc1c0125eb3c1fe64ed1ed3ee93d3eb" xlink:title=" ">
<polygon fill="white" stroke="#666666" points="1155,-197.99 950,-197.99 950,-156.99 1155,-156.99 1155,-197.99"/>
<text text-anchor="start" x="958" y="-185.99" font-family="Helvetica,sans-Serif" font-size="10.00">com.example.mybookshelf.</text>
<text text-anchor="start" x="958" y="-174.99" font-family="Helvetica,sans-Serif" font-size="10.00">BookRecommendationFlow.showFresh</text>
<text text-anchor="middle" x="1052.5" y="-163.99" font-family="Helvetica,sans-Serif" font-size="10.00">StartStep3</text>
</a>
</g>
</g>
<!-- Node1&#45;&gt;Node12 -->
<g id="edge73_Node000001_Node000012" class="edge">
<title>Node1&#45;&gt;Node12</title>
<g id="a_edge73_Node000001_Node000012"><a xlink:title=" ">
<path fill="none" stroke="#63b8ff" d="M2181.39,-245.34C2163.5,-203.37 2124.99,-128.47 2066,-92.49 1949.84,-21.66 1898.56,-52.49 1762.5,-52.49 1762.5,-52.49 1762.5,-52.49 1533.5,-52.49 1369.67,-52.49 1184.24,-121.53 1099.8,-156.99"/>
<polygon fill="#63b8ff" stroke="#63b8ff" points="2178.23,-246.86 2185.29,-254.76 2184.7,-244.18 2178.23,-246.86"/>
</a>
</g>
</g>
<!-- Node13 -->
<g id="Node000013" class="node">
<title>Node13</title>
<g id="a_Node000013"><a xlink:href="$classcom_1_1example_1_1mybookshelf_1_1BookRecommendationFlow.html#aaf567ca97b0d7f0c58ebba4d6f4b18bd" xlink:title=" ">
<polygon fill="white" stroke="#666666" points="914,-197.99 709,-197.99 709,-156.99 914,-156.99 914,-197.99"/>
<text text-anchor="start" x="717" y="-185.99" font-family="Helvetica,sans-Serif" font-size="10.00">com.example.mybookshelf.</text>
<text text-anchor="start" x="717" y="-174.99" font-family="Helvetica,sans-Serif" font-size="10.00">BookRecommendationFlow.showFresh</text>
<text text-anchor="middle" x="811.5" y="-163.99" font-family="Helvetica,sans-Serif" font-size="10.00">StartStep2</text>
</a>
</g>
</g>
<!-- Node1&#45;&gt;Node13 -->
<g id="edge72_Node000001_Node000013" class="edge">
<title>Node1&#45;&gt;Node13</title>
<g id="a_edge72_Node000001_Node000013"><a xlink:title=" ">
<path fill="none" stroke="#63b8ff" d="M2186.2,-245.02C2172.95,-193.49 2138.38,-90.11 2066,-42.49 1952.83,31.95 1897.96,-14.49 1762.5,-14.49 1762.5,-14.49 1762.5,-14.49 1292.5,-14.49 1117.37,-14.49 924.46,-112.99 847.25,-156.85"/>
<polygon fill="#63b8ff" stroke="#63b8ff" points="2182.85,-246.03 2188.65,-254.9 2189.64,-244.35 2182.85,-246.03"/>
</a>
</g>
</g>
<!-- Node14 -->
<g id="Node000014" class="node">
<title>Node14</title>
<g id="a_Node000014"><a xlink:href="$classcom_1_1example_1_1mybookshelf_1_1BookRecommendationFlow.html#a4c7dc337216592f7f214f69ce7009d37" xlink:title=" ">
<polygon fill="white" stroke="#666666" points="673,-322.99 468,-322.99 468,-281.99 673,-281.99 673,-322.99"/>
<text text-anchor="start" x="476" y="-310.99" font-family="Helvetica,sans-Serif" font-size="10.00">com.example.mybookshelf.</text>
<text text-anchor="start" x="476" y="-299.99" font-family="Helvetica,sans-Serif" font-size="10.00">BookRecommendationFlow.showFresh</text>
<text text-anchor="middle" x="570.5" y="-288.99" font-family="Helvetica,sans-Serif" font-size="10.00">StartStep1</text>
</a>
</g>
</g>
<!-- Node1&#45;&gt;Node14 -->
<g id="edge71_Node000001_Node000014" class="edge">
<title>Node1&#45;&gt;Node14</title>
<g id="a_edge71_Node000001_Node000014"><a xlink:title=" ">
<path fill="none" stroke="#63b8ff" d="M2091.47,-286.34C2023.28,-293.07 1931.36,-301.06 1850,-304.49 1771.4,-307.81 1751.67,-304.7 1673,-304.49 1504.78,-304.05 1462.72,-302.49 1294.5,-302.49 1294.5,-302.49 1294.5,-302.49 1051.5,-302.49 920.88,-302.49 770.25,-302.49 673.1,-302.49"/>
<polygon fill="#63b8ff" stroke="#63b8ff" points="2092.17,-289.79 2101.78,-285.32 2091.48,-282.82 2092.17,-289.79"/>
</a>
</g>
</g>
<!-- Node2&#45;&gt;Node2 -->
<g id="edge66_Node000002_Node000002" class="edge">
<title>Node2&#45;&gt;Node2</title>
<g id="a_edge66_Node000002_Node000002"><a xlink:title=" ">
<path fill="none" stroke="#63b8ff" d="M2013.46,-191.09C2008.34,-195.47 1995.85,-198.49 1976,-198.49 1942.56,-198.49 1930.02,-189.9 1938.38,-180.77"/>
<polygon fill="#63b8ff" stroke="#63b8ff" points="2016.96,-190.82 2013.62,-180.77 2009.96,-190.71 2016.96,-190.82"/>
</a>
</g>
</g>
<!-- Node3 -->
<g id="Node000003" class="node">
<title>Node3</title>
<g id="a_Node000003"><a xlink:href="$classcom_1_1example_1_1mybookshelf_1_1BookRecommendationFlow.html#a78dda71d2c403a463d824ff61b2ce27f" xlink:title=" ">
<polygon fill="white" stroke="#666666" points="1850,-295.99 1673,-295.99 1673,-254.99 1850,-254.99 1850,-295.99"/>
<text text-anchor="start" x="1681" y="-283.99" font-family="Helvetica,sans-Serif" font-size="10.00">com.example.mybookshelf.</text>
<text text-anchor="start" x="1681" y="-272.99" font-family="Helvetica,sans-Serif" font-size="10.00">BookRecommendationFlow.build</text>
<text text-anchor="middle" x="1761.5" y="-261.99" font-family="Helvetica,sans-Serif" font-size="10.00">AIStringBased</text>
</a>
</g>
</g>
<!-- Node2&#45;&gt;Node3 -->
<g id="edge52_Node000002_Node000003" class="edge">
<title>Node2&#45;&gt;Node3</title>
<g id="a_edge52_Node000002_Node000003"><a xlink:title=" ">
<path fill="none" stroke="#63b8ff" d="M1936.71,-185.32C1898.79,-204.94 1840.97,-234.88 1802.47,-254.8"/>
<polygon fill="#63b8ff" stroke="#63b8ff" points="1938.63,-188.26 1945.9,-180.56 1935.41,-182.05 1938.63,-188.26"/>
</a>
</g>
</g>
<!-- Node9 -->
<g id="Node000009" class="node">
<title>Node9</title>
<g id="a_Node000009"><a xlink:href="$classcom_1_1example_1_1mybookshelf_1_1BookRecommendationFlow.html#abe4c57ea57ed54c344739295e70066ff" xlink:title=" ">
<polygon fill="white" stroke="#666666" points="1850,-197.99 1673,-197.99 1673,-156.99 1850,-156.99 1850,-197.99"/>
<text text-anchor="start" x="1681" y="-185.99" font-family="Helvetica,sans-Serif" font-size="10.00">com.example.mybookshelf.</text>
<text text-anchor="start" x="1681" y="-174.99" font-family="Helvetica,sans-Serif" font-size="10.00">BookRecommendationFlow.build</text>
<text text-anchor="middle" x="1761.5" y="-163.99" font-family="Helvetica,sans-Serif" font-size="10.00">AIStringFresh</text>
</a>
</g>
</g>
<!-- Node2&#45;&gt;Node9 -->
<g id="edge59_Node000002_Node000009" class="edge">
<title>Node2&#45;&gt;Node9</title>
<g id="a_edge59_Node000002_Node000009"><a xlink:title=" ">
<path fill="none" stroke="#63b8ff" d="M1875.78,-171.1C1867.21,-171.58 1858.58,-172.07 1850.11,-172.55"/>
<polygon fill="#63b8ff" stroke="#63b8ff" points="1876.02,-174.59 1885.8,-170.53 1875.62,-167.6 1876.02,-174.59"/>
</a>
</g>
</g>
<!-- Node3&#45;&gt;Node4 -->
<g id="edge53_Node000003_Node000004" class="edge">
<title>Node3&#45;&gt;Node4</title>
<g id="a_edge53_Node000003_Node000004"><a xlink:title=" ">
<path fill="none" stroke="#63b8ff" d="M1690.04,-299.29C1660.02,-309.43 1625.33,-321.15 1596.44,-330.91"/>
<polygon fill="#63b8ff" stroke="#63b8ff" points="1691.26,-302.58 1699.61,-296.06 1689.02,-295.95 1691.26,-302.58"/>
</a>
</g>
</g>
<!-- Node4&#45;&gt;Node5 -->
<g id="edge54_Node000004_Node000005" class="edge">
<title>Node4&#45;&gt;Node5</title>
<g id="a_edge54_Node000004_Node000005"><a xlink:title=" ">
<path fill="none" stroke="#63b8ff" d="M1422.82,-360.29C1413.56,-361.03 1404.23,-361.77 1395.05,-362.5"/>
<polygon fill="#63b8ff" stroke="#63b8ff" points="1423.14,-363.78 1432.84,-359.5 1422.59,-356.8 1423.14,-363.78"/>
</a>
</g>
</g>
<!-- Node5&#45;&gt;Node6 -->
<g id="edge55_Node000005_Node000006" class="edge">
<title>Node5&#45;&gt;Node6</title>
<g id="a_edge55_Node000005_Node000006"><a xlink:title=" ">
<path fill="none" stroke="#63b8ff" d="M1181.82,-370.49C1172.56,-370.49 1163.23,-370.49 1154.05,-370.49"/>
<polygon fill="#63b8ff" stroke="#63b8ff" points="1181.84,-373.99 1191.84,-370.49 1181.84,-366.99 1181.84,-373.99"/>
</a>
</g>
</g>
<!-- Node7 -->
<g id="Node000007" class="node">
<title>Node7</title>
<g id="a_Node000007"><a xlink:href="$classcom_1_1example_1_1mybookshelf_1_1BookRecommendationFlow.html#a22f0dcaea578fbd7358e6237cd4873d4" xlink:title=" ">
<polygon fill="white" stroke="#666666" points="432,-346.49 236,-346.49 236,-316.49 432,-316.49 432,-346.49"/>
<text text-anchor="start" x="244" y="-334.49" font-family="Helvetica,sans-Serif" font-size="10.00">com.example.mybookshelf.</text>
<text text-anchor="middle" x="334" y="-323.49" font-family="Helvetica,sans-Serif" font-size="10.00">BookRecommendationFlow.handleAI</text>
</a>
</g>
</g>
<!-- Node6&#45;&gt;Node7 -->
<g id="edge56_Node000006_Node000007" class="edge">
<title>Node6&#45;&gt;Node7</title>
<g id="a_edge56_Node000006_Node000007"><a xlink:title=" ">
<path fill="none" stroke="#63b8ff" d="M940.47,-364.45C801.13,-356.87 564.41,-343.98 432.01,-336.77"/>
<polygon fill="#63b8ff" stroke="#63b8ff" points="940.57,-367.96 950.74,-365.01 940.95,-360.97 940.57,-367.96"/>
</a>
</g>
</g>
<!-- Node7&#45;&gt;Node8 -->
<g id="edge57_Node000007_Node000008" class="edge">
<title>Node7&#45;&gt;Node8</title>
<g id="a_edge57_Node000007_Node000008"><a xlink:title=" ">
<path fill="none" stroke="#63b8ff" d="M225.95,-331.49C217.39,-331.49 208.77,-331.49 200.27,-331.49"/>
<polygon fill="#63b8ff" stroke="#63b8ff" points="225.96,-334.99 235.96,-331.49 225.96,-327.99 225.96,-334.99"/>
</a>
</g>
</g>
<!-- Node8&#45;&gt;Node2 -->
<g id="edge58_Node000008_Node000002" class="edge">
<title>Node8&#45;&gt;Node2</title>
<g id="a_edge58_Node000008_Node000002"><a xlink:title=" ">
<path fill="none" stroke="#63b8ff" d="M128.48,-309.97C198.04,-257.74 388.43,-128.49 569.5,-128.49 1535.5,-128.49 1535.5,-128.49 1535.5,-128.49 1675.53,-128.49 1710.69,-133.28 1850,-147.49 1861.56,-148.67 1873.69,-150.14 1885.66,-151.71"/>
<polygon fill="#63b8ff" stroke="#63b8ff" points="126.08,-307.4 120.23,-316.24 130.31,-312.98 126.08,-307.4"/>
</a>
</g>
</g>
<!-- Node9&#45;&gt;Node10 -->
<g id="edge60_Node000009_Node000010" class="edge">
<title>Node9&#45;&gt;Node10</title>
<g id="a_edge60_Node000009_Node000010"><a xlink:title=" ">
<path fill="none" stroke="#63b8ff" d="M1662.62,-177.49C1654.16,-177.49 1645.59,-177.49 1637.11,-177.49"/>
<polygon fill="#63b8ff" stroke="#63b8ff" points="1662.86,-180.99 1672.86,-177.49 1662.86,-173.99 1662.86,-180.99"/>
</a>
</g>
</g>
<!-- Node10&#45;&gt;Node11 -->
<g id="edge61_Node000010_Node000011" class="edge">
<title>Node10&#45;&gt;Node11</title>
<g id="a_edge61_Node000010_Node000011"><a xlink:title=" ">
<path fill="none" stroke="#63b8ff" d="M1421.78,-177.49C1413.22,-177.49 1404.6,-177.49 1396.11,-177.49"/>
<polygon fill="#63b8ff" stroke="#63b8ff" points="1421.8,-180.99 1431.8,-177.49 1421.8,-173.99 1421.8,-180.99"/>
</a>
</g>
</g>
<!-- Node11&#45;&gt;Node12 -->
<g id="edge62_Node000011_Node000012" class="edge">
<title>Node11&#45;&gt;Node12</title>
<g id="a_edge62_Node000011_Node000012"><a xlink:title=" ">
<path fill="none" stroke="#63b8ff" d="M1180.78,-177.49C1172.22,-177.49 1163.6,-177.49 1155.11,-177.49"/>
<polygon fill="#63b8ff" stroke="#63b8ff" points="1180.8,-180.99 1190.8,-177.49 1180.8,-173.99 1180.8,-180.99"/>
</a>
</g>
</g>
<!-- Node12&#45;&gt;Node13 -->
<g id="edge63_Node000012_Node000013" class="edge">
<title>Node12&#45;&gt;Node13</title>
<g id="a_edge63_Node000012_Node000013"><a xlink:title=" ">
<path fill="none" stroke="#63b8ff" d="M939.78,-177.49C931.22,-177.49 922.6,-177.49 914.11,-177.49"/>
<polygon fill="#63b8ff" stroke="#63b8ff" points="939.8,-180.99 949.8,-177.49 939.8,-173.99 939.8,-180.99"/>
</a>
</g>
</g>
<!-- Node13&#45;&gt;Node14 -->
<g id="edge64_Node000013_Node000014" class="edge">
<title>Node13&#45;&gt;Node14</title>
<g id="a_edge64_Node000013_Node000014"><a xlink:title=" ">
<path fill="none" stroke="#63b8ff" d="M762.4,-202.65C717.79,-225.98 652.23,-260.27 610.72,-281.98"/>
<polygon fill="#63b8ff" stroke="#63b8ff" points="764.06,-205.73 771.3,-198 760.82,-199.53 764.06,-205.73"/>
</a>
</g>
</g>
<!-- Node14&#45;&gt;Node7 -->
<g id="edge65_Node000014_Node000007" class="edge">
<title>Node14&#45;&gt;Node7</title>
<g id="a_edge65_Node000014_Node000007"><a xlink:title=" ">
<path fill="none" stroke="#63b8ff" d="M457.72,-316.32C449.22,-317.37 440.69,-318.42 432.29,-319.46"/>
<polygon fill="#63b8ff" stroke="#63b8ff" points="458.17,-319.79 467.67,-315.09 457.31,-312.84 458.17,-319.79"/>
</a>
</g>
</g>
</g>
</svg>
