<?xml version="1.0" encoding="UTF-8" standalone="no"?>
<!DOCTYPE svg PUBLIC "-//W3C//DTD SVG 1.1//EN"
 "http://www.w3.org/Graphics/SVG/1.1/DTD/svg11.dtd">
<!-- Generated by graphviz version 2.43.0 (0)
 -->
<!-- Title: com.example.mybookshelf.notifications.BootCompletedReceiver Pages: 1 -->
<svg width="217pt" height="153pt"
 viewBox="0.00 0.00 217.00 153.00" xmlns="http://www.w3.org/2000/svg" xmlns:xlink="http://www.w3.org/1999/xlink">
<g id="graph0" class="graph" transform="scale(1 1) rotate(0) translate(4 149)">
<title>com.example.mybookshelf.notifications.BootCompletedReceiver</title>
<!-- Node1 -->
<g id="Node000001" class="node">
<title>Node1</title>
<g id="a_Node000001"><a xlink:title=" ">
<polygon fill="#999999" stroke="transparent" points="209,-60 0,-60 0,0 209,0 209,-60"/>
<text text-anchor="start" x="5.5" y="-48" font-family="Helvetica,sans-Serif" font-size="10.00">com.example.mybookshelf.notifications.</text>
<text text-anchor="start" x="45.5" y="-37" font-family="Helvetica,sans-Serif" font-size="10.00">BootCompletedReceiver</text>
<text text-anchor="start" x="39" y="-22" font-family="Helvetica,sans-Serif" font-size="10.00">&#45;</text>
<text text-anchor="start" x="81.5" y="-22" font-family="Helvetica,sans-Serif" font-size="10.00">TAG</text>
<text text-anchor="start" x="36.5" y="-7" font-family="Helvetica,sans-Serif" font-size="10.00">+</text>
<text text-anchor="start" x="81.5" y="-7" font-family="Helvetica,sans-Serif" font-size="10.00">onReceive()</text>
<polygon fill="#666666" stroke="#666666" points="0.5,-32 0.5,-32 209.5,-32 209.5,-32 0.5,-32"/>
<polygon fill="#666666" stroke="#666666" points="0.5,-17 0.5,-17 79.5,-17 79.5,-17 0.5,-17"/>
<polygon fill="#666666" stroke="#666666" points="79.5,-17 79.5,-17 209.5,-17 209.5,-17 79.5,-17"/>
<polygon fill="none" stroke="#666666" points="0,0 0,-60 209,-60 209,0 0,0"/>
</a>
</g>
</g>
<!-- Node2 -->
<g id="Node000002" class="node">
<title>Node2</title>
<g id="a_Node000002"><a xlink:href="$classBroadcastReceiver.html" xlink:title=" ">
<polygon fill="white" stroke="transparent" points="155.5,-145 53.5,-145 53.5,-96 155.5,-96 155.5,-145"/>
<text text-anchor="start" x="58.5" y="-132.5" font-family="Helvetica,sans-Serif" font-size="10.00">BroadcastReceiver</text>
<text text-anchor="start" x="102.5" y="-117.5" font-family="Helvetica,sans-Serif" font-size="10.00"> </text>
<text text-anchor="start" x="102.5" y="-102.5" font-family="Helvetica,sans-Serif" font-size="10.00"> </text>
<polygon fill="#666666" stroke="#666666" points="53.5,-127.5 53.5,-127.5 155.5,-127.5 155.5,-127.5 53.5,-127.5"/>
<polygon fill="#666666" stroke="#666666" points="53.5,-112.5 53.5,-112.5 155.5,-112.5 155.5,-112.5 53.5,-112.5"/>
<polygon fill="none" stroke="#666666" points="53.5,-96 53.5,-145 155.5,-145 155.5,-96 53.5,-96"/>
</a>
</g>
</g>
<!-- Node2&#45;&gt;Node1 -->
<g id="edge3_Node000001_Node000002" class="edge">
<title>Node2&#45;&gt;Node1</title>
<g id="a_edge3_Node000001_Node000002"><a xlink:title=" ">
<path fill="none" stroke="#63b8ff" d="M104.5,-85.55C104.5,-77.18 104.5,-68.28 104.5,-60.16"/>
<polygon fill="none" stroke="#63b8ff" points="101,-85.78 104.5,-95.78 108,-85.78 101,-85.78"/>
</a>
</g>
</g>
</g>
</svg>
