<?xml version="1.0" encoding="UTF-8" standalone="no"?>
<!DOCTYPE svg PUBLIC "-//W3C//DTD SVG 1.1//EN"
 "http://www.w3.org/Graphics/SVG/1.1/DTD/svg11.dtd">
<!-- Generated by graphviz version 2.43.0 (0)
 -->
<!-- Title: com.example.mybookshelf.BookRecommendationFlow.showFreshStartStep4 Pages: 1 -->
<svg width="2325pt" height="745pt"
 viewBox="0.00 0.00 2325.00 745.23" xmlns="http://www.w3.org/2000/svg" xmlns:xlink="http://www.w3.org/1999/xlink">
<g id="graph0" class="graph" transform="scale(1 1) rotate(0) translate(4 741.23)">
<title>com.example.mybookshelf.BookRecommendationFlow.showFreshStartStep4</title>
<!-- Node1 -->
<g id="Node000001" class="node">
<title>Node1</title>
<g id="a_Node000001"><a xlink:title=" ">
<polygon fill="#999999" stroke="#666666" points="205,-299.9 0,-299.9 0,-258.9 205,-258.9 205,-299.9"/>
<text text-anchor="start" x="8" y="-287.9" font-family="Helvetica,sans-Serif" font-size="10.00">com.example.mybookshelf.</text>
<text text-anchor="start" x="8" y="-276.9" font-family="Helvetica,sans-Serif" font-size="10.00">BookRecommendationFlow.showFresh</text>
<text text-anchor="middle" x="102.5" y="-265.9" font-family="Helvetica,sans-Serif" font-size="10.00">StartStep4</text>
</a>
</g>
</g>
<!-- Node2 -->
<g id="Node000002" class="node">
<title>Node2</title>
<g id="a_Node000002"><a xlink:href="$classcom_1_1example_1_1mybookshelf_1_1BookRecommendationFlow.html#a3855117e802e54923c308e0df6280c17" xlink:title=" ">
<polygon fill="white" stroke="#666666" points="2317,-582.9 2123,-582.9 2123,-541.9 2317,-541.9 2317,-582.9"/>
<text text-anchor="start" x="2131" y="-570.9" font-family="Helvetica,sans-Serif" font-size="10.00">com.example.mybookshelf.</text>
<text text-anchor="start" x="2131" y="-559.9" font-family="Helvetica,sans-Serif" font-size="10.00">BookRecommendationFlow.addChat</text>
<text text-anchor="middle" x="2220" y="-548.9" font-family="Helvetica,sans-Serif" font-size="10.00">Message</text>
</a>
</g>
</g>
<!-- Node1&#45;&gt;Node2 -->
<g id="edge79_Node000001_Node000002" class="edge">
<title>Node1&#45;&gt;Node2</title>
<g id="a_edge79_Node000001_Node000002"><a xlink:title=" ">
<path fill="none" stroke="#63b8ff" d="M112.18,-300.08C150.96,-388.9 317.62,-733.4 569.5,-733.4 569.5,-733.4 569.5,-733.4 1744.5,-733.4 1898.03,-733.4 1948.51,-754.68 2087,-688.4 2133.76,-666.02 2174.67,-620.78 2198.1,-591.04"/>
<polygon fill="#63b8ff" stroke="#63b8ff" points="2200.9,-593.15 2204.24,-583.09 2195.36,-588.87 2200.9,-593.15"/>
</a>
</g>
</g>
<!-- Node3 -->
<g id="Node000003" class="node">
<title>Node3</title>
<g id="a_Node000003"><a xlink:href="$classcom_1_1example_1_1mybookshelf_1_1BookRecommendationFlow.html#a02b6d699653b58f244907bd10db53ab5" xlink:title=" ">
<polygon fill="white" stroke="#666666" points="2312,-196.9 2128,-196.9 2128,-155.9 2312,-155.9 2312,-196.9"/>
<text text-anchor="start" x="2136" y="-184.9" font-family="Helvetica,sans-Serif" font-size="10.00">com.example.mybookshelf.</text>
<text text-anchor="start" x="2136" y="-173.9" font-family="Helvetica,sans-Serif" font-size="10.00">BookRecommendationFlow.create</text>
<text text-anchor="middle" x="2220" y="-162.9" font-family="Helvetica,sans-Serif" font-size="10.00">StyledGridButton</text>
</a>
</g>
</g>
<!-- Node1&#45;&gt;Node3 -->
<g id="edge80_Node000001_Node000003" class="edge">
<title>Node1&#45;&gt;Node3</title>
<g id="a_edge80_Node000001_Node000003"><a xlink:title=" ">
<path fill="none" stroke="#63b8ff" d="M113.4,-258.83C132.6,-221.14 178.57,-140.97 241,-98.4 366.36,-12.91 417.76,-5.4 569.5,-5.4 569.5,-5.4 569.5,-5.4 1744.5,-5.4 1897.81,-5.4 1948.85,20.07 2087,-46.4 2134.69,-69.34 2175.6,-116.49 2198.75,-147.26"/>
<polygon fill="#63b8ff" stroke="#63b8ff" points="2196.05,-149.49 2204.8,-155.46 2201.69,-145.34 2196.05,-149.49"/>
</a>
</g>
</g>
<!-- Node4 -->
<g id="Node000004" class="node">
<title>Node4</title>
<g id="a_Node000004"><a xlink:href="$classcom_1_1example_1_1mybookshelf_1_1BookRecommendationFlow.html#a46c6733f27b3527d3934cee02cfcd7ac" xlink:title=" ">
<polygon fill="white" stroke="#666666" points="446,-324.9 241,-324.9 241,-283.9 446,-283.9 446,-324.9"/>
<text text-anchor="start" x="249" y="-312.9" font-family="Helvetica,sans-Serif" font-size="10.00">com.example.mybookshelf.</text>
<text text-anchor="start" x="249" y="-301.9" font-family="Helvetica,sans-Serif" font-size="10.00">BookRecommendationFlow.showFresh</text>
<text text-anchor="middle" x="343.5" y="-290.9" font-family="Helvetica,sans-Serif" font-size="10.00">StartStep5</text>
</a>
</g>
</g>
<!-- Node1&#45;&gt;Node4 -->
<g id="edge81_Node000001_Node000004" class="edge">
<title>Node1&#45;&gt;Node4</title>
<g id="a_edge81_Node000001_Node000004"><a xlink:title=" ">
<path fill="none" stroke="#63b8ff" d="M205.2,-290.04C213.7,-290.92 222.31,-291.83 230.87,-292.72"/>
<polygon fill="#63b8ff" stroke="#63b8ff" points="230.58,-296.21 240.89,-293.77 231.31,-289.25 230.58,-296.21"/>
</a>
</g>
</g>
<!-- Node4&#45;&gt;Node2 -->
<g id="edge82_Node000004_Node000002" class="edge">
<title>Node4&#45;&gt;Node2</title>
<g id="a_edge82_Node000004_Node000002"><a xlink:title=" ">
<path fill="none" stroke="#63b8ff" d="M354.66,-325.14C395.86,-405.98 559.06,-695.4 784,-695.4 784,-695.4 784,-695.4 1744.5,-695.4 1897.86,-695.4 1943.62,-707.82 2087,-653.4 2125.51,-638.78 2163.61,-610.65 2188.9,-589.52"/>
<polygon fill="#63b8ff" stroke="#63b8ff" points="2191.3,-592.08 2196.65,-582.93 2186.76,-586.74 2191.3,-592.08"/>
</a>
</g>
</g>
<!-- Node4&#45;&gt;Node3 -->
<g id="edge117_Node000004_Node000003" class="edge">
<title>Node4&#45;&gt;Node3</title>
<g id="a_edge117_Node000004_Node000003"><a xlink:title=" ">
<path fill="none" stroke="#63b8ff" d="M362.71,-283.48C418.76,-221.55 596.31,-43.4 784,-43.4 784,-43.4 784,-43.4 1744.5,-43.4 1899.28,-43.4 1940.82,-55.55 2087,-106.4 2119.11,-117.57 2152.93,-135.64 2178.3,-150.63"/>
<polygon fill="#63b8ff" stroke="#63b8ff" points="2176.53,-153.65 2186.91,-155.78 2180.13,-147.64 2176.53,-153.65"/>
</a>
</g>
</g>
<!-- Node5 -->
<g id="Node000005" class="node">
<title>Node5</title>
<g id="a_Node000005"><a xlink:href="$classcom_1_1example_1_1mybookshelf_1_1BookRecommendationFlow.html#abe4c57ea57ed54c344739295e70066ff" xlink:title=" ">
<polygon fill="white" stroke="#666666" points="659,-423.9 482,-423.9 482,-382.9 659,-382.9 659,-423.9"/>
<text text-anchor="start" x="490" y="-411.9" font-family="Helvetica,sans-Serif" font-size="10.00">com.example.mybookshelf.</text>
<text text-anchor="start" x="490" y="-400.9" font-family="Helvetica,sans-Serif" font-size="10.00">BookRecommendationFlow.build</text>
<text text-anchor="middle" x="570.5" y="-389.9" font-family="Helvetica,sans-Serif" font-size="10.00">AIStringFresh</text>
</a>
</g>
</g>
<!-- Node4&#45;&gt;Node5 -->
<g id="edge83_Node000004_Node000005" class="edge">
<title>Node4&#45;&gt;Node5</title>
<g id="a_edge83_Node000004_Node000005"><a xlink:title=" ">
<path fill="none" stroke="#63b8ff" d="M391.12,-324.91C426.6,-340.52 475.58,-362.07 513.24,-378.64"/>
<polygon fill="#63b8ff" stroke="#63b8ff" points="511.99,-381.92 522.55,-382.74 514.81,-375.51 511.99,-381.92"/>
</a>
</g>
</g>
<!-- Node6 -->
<g id="Node000006" class="node">
<title>Node6</title>
<g id="a_Node000006"><a xlink:href="$classcom_1_1example_1_1mybookshelf_1_1BookRecommendationFlow.html#ae50cf18619872a365eebe91c18d86e8d" xlink:title=" ">
<polygon fill="white" stroke="#666666" points="875,-468.4 695,-468.4 695,-438.4 875,-438.4 875,-468.4"/>
<text text-anchor="start" x="703" y="-456.4" font-family="Helvetica,sans-Serif" font-size="10.00">com.example.mybookshelf.</text>
<text text-anchor="middle" x="785" y="-445.4" font-family="Helvetica,sans-Serif" font-size="10.00">BookRecommendationFlow.callAI</text>
</a>
</g>
</g>
<!-- Node5&#45;&gt;Node6 -->
<g id="edge84_Node000005_Node000006" class="edge">
<title>Node5&#45;&gt;Node6</title>
<g id="a_edge84_Node000005_Node000006"><a xlink:title=" ">
<path fill="none" stroke="#63b8ff" d="M658.85,-423.95C675.82,-427.94 693.45,-432.09 709.94,-435.97"/>
<polygon fill="#63b8ff" stroke="#63b8ff" points="709.51,-439.47 720.05,-438.35 711.12,-432.65 709.51,-439.47"/>
</a>
</g>
</g>
<!-- Node6&#45;&gt;Node2 -->
<g id="edge85_Node000006_Node000002" class="edge">
<title>Node6&#45;&gt;Node2</title>
<g id="a_edge85_Node000006_Node000002"><a xlink:title=" ">
<path fill="none" stroke="#63b8ff" d="M792.14,-468.59C806.84,-502.74 847.61,-585.42 911,-621.4 1048.54,-699.46 1106.86,-657.4 1265,-657.4 1265,-657.4 1265,-657.4 1744.5,-657.4 1897.51,-657.4 1939.3,-662.36 2087,-622.4 2116.84,-614.32 2148.43,-600.19 2173.22,-587.66"/>
<polygon fill="#63b8ff" stroke="#63b8ff" points="2175.08,-590.64 2182.37,-582.96 2171.88,-584.42 2175.08,-590.64"/>
</a>
</g>
</g>
<!-- Node6&#45;&gt;Node3 -->
<g id="edge87_Node000006_Node000003" class="edge">
<title>Node6&#45;&gt;Node3</title>
<g id="a_edge87_Node000006_Node000003"><a xlink:title=" ">
<path fill="none" stroke="#63b8ff" d="M802.79,-438.35C825.9,-418.2 869.37,-382.23 911,-358.4 1208.38,-188.16 1299.93,-143.34 1641,-110.4 1666.38,-107.95 2082.02,-110.23 2087,-111.4 2119.56,-119.05 2153.34,-135.87 2178.57,-150.49"/>
<polygon fill="#63b8ff" stroke="#63b8ff" points="2177.08,-153.67 2187.47,-155.75 2180.64,-147.65 2177.08,-153.67"/>
</a>
</g>
</g>
<!-- Node6&#45;&gt;Node6 -->
<g id="edge86_Node000006_Node000006" class="edge">
<title>Node6&#45;&gt;Node6</title>
<g id="a_edge86_Node000006_Node000006"><a xlink:title=" ">
<path fill="none" stroke="#63b8ff" d="M747.38,-468.67C739.02,-477.8 751.56,-486.4 785,-486.4 804.85,-486.4 817.34,-483.37 822.46,-478.99"/>
<polygon fill="#63b8ff" stroke="#63b8ff" points="825.96,-478.73 822.62,-468.67 818.96,-478.62 825.96,-478.73"/>
</a>
</g>
</g>
<!-- Node7 -->
<g id="Node000007" class="node">
<title>Node7</title>
<g id="a_Node000007"><a xlink:href="$classcom_1_1example_1_1mybookshelf_1_1apis_1_1AiAPI.html#a4a45b91f0717302661d9e35ed956c049" xlink:title=" ">
<polygon fill="white" stroke="#666666" points="1109.5,-427.4 933.5,-427.4 933.5,-397.4 1109.5,-397.4 1109.5,-427.4"/>
<text text-anchor="start" x="941.5" y="-415.4" font-family="Helvetica,sans-Serif" font-size="10.00">com.example.mybookshelf.apis.</text>
<text text-anchor="middle" x="1021.5" y="-404.4" font-family="Helvetica,sans-Serif" font-size="10.00">AiAPI.fetchResponse</text>
</a>
</g>
</g>
<!-- Node6&#45;&gt;Node7 -->
<g id="edge88_Node000006_Node000007" class="edge">
<title>Node6&#45;&gt;Node7</title>
<g id="a_edge88_Node000006_Node000007"><a xlink:title=" ">
<path fill="none" stroke="#63b8ff" d="M871.99,-438.36C889.03,-435.38 907.03,-432.24 924.39,-429.2"/>
<polygon fill="#63b8ff" stroke="#63b8ff" points="925.28,-432.6 934.52,-427.43 924.07,-425.7 925.28,-432.6"/>
</a>
</g>
</g>
<!-- Node8 -->
<g id="Node000008" class="node">
<title>Node8</title>
<g id="a_Node000008"><a xlink:href="$classcom_1_1example_1_1mybookshelf_1_1BookRecommendationFlow.html#a4dceb0fa4d170b8c7e5a7a6718593dfe" xlink:title=" ">
<polygon fill="white" stroke="#666666" points="1121.5,-493.4 921.5,-493.4 921.5,-463.4 1121.5,-463.4 1121.5,-493.4"/>
<text text-anchor="start" x="929.5" y="-481.4" font-family="Helvetica,sans-Serif" font-size="10.00">com.example.mybookshelf.</text>
<text text-anchor="middle" x="1021.5" y="-470.4" font-family="Helvetica,sans-Serif" font-size="10.00">BookRecommendationFlow.handleNo</text>
</a>
</g>
</g>
<!-- Node6&#45;&gt;Node8 -->
<g id="edge90_Node000006_Node000008" class="edge">
<title>Node6&#45;&gt;Node8</title>
<g id="a_edge90_Node000006_Node000008"><a xlink:title=" ">
<path fill="none" stroke="#63b8ff" d="M875.32,-462.92C887.05,-464.17 899.18,-465.46 911.19,-466.74"/>
<polygon fill="#63b8ff" stroke="#63b8ff" points="910.93,-470.24 921.25,-467.82 911.67,-463.28 910.93,-470.24"/>
</a>
</g>
</g>
<!-- Node17 -->
<g id="Node000017" class="node">
<title>Node17</title>
<g id="a_Node000017"><a xlink:href="$classcom_1_1example_1_1mybookshelf_1_1BookRecommendationFlow.html#ac62af5d6edeffa96b2862a609ebb40df" xlink:title=" ">
<polygon fill="white" stroke="#666666" points="1129.5,-611.9 913.5,-611.9 913.5,-570.9 1129.5,-570.9 1129.5,-611.9"/>
<text text-anchor="start" x="921.5" y="-599.9" font-family="Helvetica,sans-Serif" font-size="10.00">com.example.mybookshelf.</text>
<text text-anchor="start" x="921.5" y="-588.9" font-family="Helvetica,sans-Serif" font-size="10.00">BookRecommendationFlow.hideThinking</text>
<text text-anchor="middle" x="1021.5" y="-577.9" font-family="Helvetica,sans-Serif" font-size="10.00">Animation</text>
</a>
</g>
</g>
<!-- Node6&#45;&gt;Node17 -->
<g id="edge115_Node000006_Node000017" class="edge">
<title>Node6&#45;&gt;Node17</title>
<g id="a_edge115_Node000006_Node000017"><a xlink:title=" ">
<path fill="none" stroke="#63b8ff" d="M799,-468.52C820.1,-492.11 864.2,-537.56 911,-562.4 913.95,-563.96 917,-565.45 920.11,-566.86"/>
<polygon fill="#63b8ff" stroke="#63b8ff" points="919.03,-570.21 929.61,-570.87 921.75,-563.76 919.03,-570.21"/>
</a>
</g>
</g>
<!-- Node18 -->
<g id="Node000018" class="node">
<title>Node18</title>
<g id="a_Node000018"><a xlink:href="$classcom_1_1example_1_1mybookshelf_1_1BookRecommendationFlow.html#a78597ba37409daeee77dcfa6236b2e6a" xlink:title=" ">
<polygon fill="white" stroke="#666666" points="1132,-552.9 911,-552.9 911,-511.9 1132,-511.9 1132,-552.9"/>
<text text-anchor="start" x="919" y="-540.9" font-family="Helvetica,sans-Serif" font-size="10.00">com.example.mybookshelf.</text>
<text text-anchor="start" x="919" y="-529.9" font-family="Helvetica,sans-Serif" font-size="10.00">BookRecommendationFlow.showThinking</text>
<text text-anchor="middle" x="1021.5" y="-518.9" font-family="Helvetica,sans-Serif" font-size="10.00">Animation</text>
</a>
</g>
</g>
<!-- Node6&#45;&gt;Node18 -->
<g id="edge116_Node000006_Node000018" class="edge">
<title>Node6&#45;&gt;Node18</title>
<g id="a_edge116_Node000006_Node000018"><a xlink:title=" ">
<path fill="none" stroke="#63b8ff" d="M821.46,-468.46C846.29,-478.72 880.36,-492.23 911,-502.4 917.75,-504.64 924.78,-506.84 931.86,-508.98"/>
<polygon fill="#63b8ff" stroke="#63b8ff" points="930.96,-512.36 941.55,-511.84 932.95,-505.65 930.96,-512.36"/>
</a>
</g>
</g>
<!-- Node7&#45;&gt;Node7 -->
<g id="edge89_Node000007_Node000007" class="edge">
<title>Node7&#45;&gt;Node7</title>
<g id="a_edge89_Node000007_Node000007"><a xlink:title=" ">
<path fill="none" stroke="#63b8ff" d="M980.02,-427.67C970.8,-436.8 984.62,-445.4 1021.5,-445.4 1043.39,-445.4 1057.16,-442.37 1062.81,-437.99"/>
<polygon fill="#63b8ff" stroke="#63b8ff" points="1066.31,-437.73 1062.98,-427.67 1059.31,-437.61 1066.31,-437.73"/>
</a>
</g>
</g>
<!-- Node8&#45;&gt;Node2 -->
<g id="edge91_Node000008_Node000002" class="edge">
<title>Node8&#45;&gt;Node2</title>
<g id="a_edge91_Node000008_Node000002"><a xlink:title=" ">
<path fill="none" stroke="#63b8ff" d="M1092.22,-493.44C1105.48,-496.54 1119.2,-499.93 1132,-503.4 1298.15,-548.37 1329.38,-619.4 1501.5,-619.4 1501.5,-619.4 1501.5,-619.4 1744.5,-619.4 1897.01,-619.4 1936.53,-623.26 2087,-598.4 2105.77,-595.3 2125.72,-590.61 2144.27,-585.64"/>
<polygon fill="#63b8ff" stroke="#63b8ff" points="2145.41,-588.95 2154.12,-582.93 2143.55,-582.2 2145.41,-588.95"/>
</a>
</g>
</g>
<!-- Node8&#45;&gt;Node3 -->
<g id="edge92_Node000008_Node000003" class="edge">
<title>Node8&#45;&gt;Node3</title>
<g id="a_edge92_Node000008_Node000003"><a xlink:title=" ">
<path fill="none" stroke="#63b8ff" d="M1105,-463.37C1114.24,-460.79 1123.41,-457.81 1132,-454.4 1377.27,-356.85 1387.7,-222.65 1641,-148.4 1831.24,-92.63 1890.42,-115.78 2087,-141.4 2106.12,-143.89 2126.41,-148.33 2145.2,-153.23"/>
<polygon fill="#63b8ff" stroke="#63b8ff" points="2144.31,-156.61 2154.88,-155.83 2146.13,-149.85 2144.31,-156.61"/>
</a>
</g>
</g>
<!-- Node9 -->
<g id="Node000009" class="node">
<title>Node9</title>
<g id="a_Node000009"><a xlink:href="$classcom_1_1example_1_1mybookshelf_1_1BookRecommendationFlow.html#a22f0dcaea578fbd7358e6237cd4873d4" xlink:title=" ">
<polygon fill="white" stroke="#666666" points="1364,-492.4 1168,-492.4 1168,-462.4 1364,-462.4 1364,-492.4"/>
<text text-anchor="start" x="1176" y="-480.4" font-family="Helvetica,sans-Serif" font-size="10.00">com.example.mybookshelf.</text>
<text text-anchor="middle" x="1266" y="-469.4" font-family="Helvetica,sans-Serif" font-size="10.00">BookRecommendationFlow.handleAI</text>
</a>
</g>
</g>
<!-- Node8&#45;&gt;Node9 -->
<g id="edge93_Node000008_Node000009" class="edge">
<title>Node8&#45;&gt;Node9</title>
<g id="a_edge93_Node000008_Node000009"><a xlink:title=" ">
<path fill="none" stroke="#63b8ff" d="M1121.83,-477.99C1133.57,-477.94 1145.59,-477.89 1157.43,-477.84"/>
<polygon fill="#63b8ff" stroke="#63b8ff" points="1157.79,-481.34 1167.78,-477.8 1157.77,-474.34 1157.79,-481.34"/>
</a>
</g>
</g>
<!-- Node10 -->
<g id="Node000010" class="node">
<title>Node10</title>
<g id="a_Node000010"><a xlink:href="$classcom_1_1example_1_1mybookshelf_1_1BookRecommendationFlow.html#a276e931dabe3e85af257a9d16ce7cc67" xlink:title=" ">
<polygon fill="white" stroke="#666666" points="1604,-497.9 1401,-497.9 1401,-456.9 1604,-456.9 1604,-497.9"/>
<text text-anchor="start" x="1409" y="-485.9" font-family="Helvetica,sans-Serif" font-size="10.00">com.example.mybookshelf.</text>
<text text-anchor="start" x="1409" y="-474.9" font-family="Helvetica,sans-Serif" font-size="10.00">BookRecommendationFlow.showBook</text>
<text text-anchor="middle" x="1502.5" y="-463.9" font-family="Helvetica,sans-Serif" font-size="10.00">BasedStep1</text>
</a>
</g>
</g>
<!-- Node9&#45;&gt;Node10 -->
<g id="edge94_Node000009_Node000010" class="edge">
<title>Node9&#45;&gt;Node10</title>
<g id="a_edge94_Node000009_Node000010"><a xlink:title=" ">
<path fill="none" stroke="#63b8ff" d="M1364.07,-477.4C1372.86,-477.4 1381.81,-477.4 1390.7,-477.4"/>
<polygon fill="#63b8ff" stroke="#63b8ff" points="1390.71,-480.9 1400.71,-477.4 1390.71,-473.9 1390.71,-480.9"/>
</a>
</g>
</g>
<!-- Node14 -->
<g id="Node000014" class="node">
<title>Node14</title>
<g id="a_Node000014"><a xlink:href="$classcom_1_1example_1_1mybookshelf_1_1BookRecommendationFlow.html#a4c7dc337216592f7f214f69ce7009d37" xlink:title=" ">
<polygon fill="white" stroke="#666666" points="1605,-438.9 1400,-438.9 1400,-397.9 1605,-397.9 1605,-438.9"/>
<text text-anchor="start" x="1408" y="-426.9" font-family="Helvetica,sans-Serif" font-size="10.00">com.example.mybookshelf.</text>
<text text-anchor="start" x="1408" y="-415.9" font-family="Helvetica,sans-Serif" font-size="10.00">BookRecommendationFlow.showFresh</text>
<text text-anchor="middle" x="1502.5" y="-404.9" font-family="Helvetica,sans-Serif" font-size="10.00">StartStep1</text>
</a>
</g>
</g>
<!-- Node9&#45;&gt;Node14 -->
<g id="edge105_Node000009_Node000014" class="edge">
<title>Node9&#45;&gt;Node14</title>
<g id="a_edge105_Node000009_Node000014"><a xlink:title=" ">
<path fill="none" stroke="#63b8ff" d="M1326.78,-462.36C1352.03,-456 1382,-448.46 1409.93,-441.44"/>
<polygon fill="#63b8ff" stroke="#63b8ff" points="1410.87,-444.81 1419.71,-438.98 1409.16,-438.02 1410.87,-444.81"/>
</a>
</g>
</g>
<!-- Node10&#45;&gt;Node2 -->
<g id="edge95_Node000010_Node000002" class="edge">
<title>Node10&#45;&gt;Node2</title>
<g id="a_edge95_Node000010_Node000002"><a xlink:title=" ">
<path fill="none" stroke="#63b8ff" d="M1529.52,-498.15C1555.87,-517.73 1598.65,-545.78 1641,-557.4 1800.86,-601.26 1995.07,-590.6 2112.74,-577.52"/>
<polygon fill="#63b8ff" stroke="#63b8ff" points="2113.3,-580.98 2122.84,-576.37 2112.5,-574.02 2113.3,-580.98"/>
</a>
</g>
</g>
<!-- Node10&#45;&gt;Node3 -->
<g id="edge96_Node000010_Node000003" class="edge">
<title>Node10&#45;&gt;Node3</title>
<g id="a_edge96_Node000010_Node000003"><a xlink:title=" ">
<path fill="none" stroke="#63b8ff" d="M1591.91,-456.76C1596.51,-454.28 1600.92,-451.51 1605,-448.4 1629.44,-429.79 1620.17,-411.97 1641,-389.4 1730.77,-292.12 1758.59,-262.29 1882,-214.4 1957.31,-185.17 2048.7,-176.36 2117.3,-174.47"/>
<polygon fill="#63b8ff" stroke="#63b8ff" points="2117.76,-177.96 2127.68,-174.23 2117.6,-170.96 2117.76,-177.96"/>
</a>
</g>
</g>
<!-- Node11 -->
<g id="Node000011" class="node">
<title>Node11</title>
<g id="a_Node000011"><a xlink:href="$classcom_1_1example_1_1mybookshelf_1_1BookRecommendationFlow.html#a5c657be258c13c85848c7b7115f8a0b5" xlink:title=" ">
<polygon fill="white" stroke="#666666" points="1845,-497.9 1642,-497.9 1642,-456.9 1845,-456.9 1845,-497.9"/>
<text text-anchor="start" x="1650" y="-485.9" font-family="Helvetica,sans-Serif" font-size="10.00">com.example.mybookshelf.</text>
<text text-anchor="start" x="1650" y="-474.9" font-family="Helvetica,sans-Serif" font-size="10.00">BookRecommendationFlow.showBook</text>
<text text-anchor="middle" x="1743.5" y="-463.9" font-family="Helvetica,sans-Serif" font-size="10.00">BasedStep2</text>
</a>
</g>
</g>
<!-- Node10&#45;&gt;Node11 -->
<g id="edge97_Node000010_Node000011" class="edge">
<title>Node10&#45;&gt;Node11</title>
<g id="a_edge97_Node000010_Node000011"><a xlink:title=" ">
<path fill="none" stroke="#63b8ff" d="M1604.16,-477.4C1613.35,-477.4 1622.68,-477.4 1631.94,-477.4"/>
<polygon fill="#63b8ff" stroke="#63b8ff" points="1631.95,-480.9 1641.95,-477.4 1631.95,-473.9 1631.95,-480.9"/>
</a>
</g>
</g>
<!-- Node11&#45;&gt;Node2 -->
<g id="edge98_Node000011_Node000002" class="edge">
<title>Node11&#45;&gt;Node2</title>
<g id="a_edge98_Node000011_Node000002"><a xlink:title=" ">
<path fill="none" stroke="#63b8ff" d="M1845.35,-490.16C1913.8,-499.45 2006.21,-513.2 2087,-529.4 2101.72,-532.35 2117.28,-535.87 2132.34,-539.49"/>
<polygon fill="#63b8ff" stroke="#63b8ff" points="2131.6,-542.92 2142.15,-541.89 2133.26,-536.12 2131.6,-542.92"/>
</a>
</g>
</g>
<!-- Node11&#45;&gt;Node3 -->
<g id="edge99_Node000011_Node000003" class="edge">
<title>Node11&#45;&gt;Node3</title>
<g id="a_edge99_Node000011_Node000003"><a xlink:title=" ">
<path fill="none" stroke="#63b8ff" d="M1832.91,-456.76C1837.51,-454.28 1841.92,-451.51 1846,-448.4 1870.44,-429.79 1858.46,-409.13 1882,-389.4 1956.96,-326.58 2005.22,-363.05 2087,-309.4 2131.26,-280.36 2172.58,-234.51 2196.82,-204.95"/>
<polygon fill="#63b8ff" stroke="#63b8ff" points="2199.62,-207.04 2203.19,-197.07 2194.18,-202.64 2199.62,-207.04"/>
</a>
</g>
</g>
<!-- Node12 -->
<g id="Node000012" class="node">
<title>Node12</title>
<g id="a_Node000012"><a xlink:href="$classcom_1_1example_1_1mybookshelf_1_1BookRecommendationFlow.html#aa95301256c7f5377d1bc432189483b3c" xlink:title=" ">
<polygon fill="white" stroke="#666666" points="2086,-438.9 1883,-438.9 1883,-397.9 2086,-397.9 2086,-438.9"/>
<text text-anchor="start" x="1891" y="-426.9" font-family="Helvetica,sans-Serif" font-size="10.00">com.example.mybookshelf.</text>
<text text-anchor="start" x="1891" y="-415.9" font-family="Helvetica,sans-Serif" font-size="10.00">BookRecommendationFlow.showBook</text>
<text text-anchor="middle" x="1984.5" y="-404.9" font-family="Helvetica,sans-Serif" font-size="10.00">BasedStep3</text>
</a>
</g>
</g>
<!-- Node11&#45;&gt;Node12 -->
<g id="edge100_Node000011_Node000012" class="edge">
<title>Node11&#45;&gt;Node12</title>
<g id="a_edge100_Node000011_Node000012"><a xlink:title=" ">
<path fill="none" stroke="#63b8ff" d="M1827.76,-456.84C1847.99,-451.85 1869.76,-446.48 1890.42,-441.38"/>
<polygon fill="#63b8ff" stroke="#63b8ff" points="1891.27,-444.77 1900.14,-438.98 1889.59,-437.97 1891.27,-444.77"/>
</a>
</g>
</g>
<!-- Node12&#45;&gt;Node2 -->
<g id="edge101_Node000012_Node000002" class="edge">
<title>Node12&#45;&gt;Node2</title>
<g id="a_edge101_Node000012_Node000002"><a xlink:title=" ">
<path fill="none" stroke="#63b8ff" d="M2055.73,-438.91C2066.49,-443.1 2077.25,-447.93 2087,-453.4 2126.7,-475.66 2166.14,-510.3 2191.43,-534.54"/>
<polygon fill="#63b8ff" stroke="#63b8ff" points="2189.19,-537.25 2198.8,-541.7 2194.07,-532.22 2189.19,-537.25"/>
</a>
</g>
</g>
<!-- Node12&#45;&gt;Node3 -->
<g id="edge104_Node000012_Node000003" class="edge">
<title>Node12&#45;&gt;Node3</title>
<g id="a_edge104_Node000012_Node000003"><a xlink:title=" ">
<path fill="none" stroke="#63b8ff" d="M2018.86,-397.89C2039.6,-384.32 2066.19,-365.4 2087,-345.4 2132.9,-301.28 2176.38,-240.69 2200.19,-205.32"/>
<polygon fill="#63b8ff" stroke="#63b8ff" points="2203.17,-207.16 2205.81,-196.9 2197.35,-203.28 2203.17,-207.16"/>
</a>
</g>
</g>
<!-- Node13 -->
<g id="Node000013" class="node">
<title>Node13</title>
<g id="a_Node000013"><a xlink:href="$classcom_1_1example_1_1mybookshelf_1_1BookRecommendationFlow.html#a78dda71d2c403a463d824ff61b2ce27f" xlink:title=" ">
<polygon fill="white" stroke="#666666" points="2308.5,-413.9 2131.5,-413.9 2131.5,-372.9 2308.5,-372.9 2308.5,-413.9"/>
<text text-anchor="start" x="2139.5" y="-401.9" font-family="Helvetica,sans-Serif" font-size="10.00">com.example.mybookshelf.</text>
<text text-anchor="start" x="2139.5" y="-390.9" font-family="Helvetica,sans-Serif" font-size="10.00">BookRecommendationFlow.build</text>
<text text-anchor="middle" x="2220" y="-379.9" font-family="Helvetica,sans-Serif" font-size="10.00">AIStringBased</text>
</a>
</g>
</g>
<!-- Node12&#45;&gt;Node13 -->
<g id="edge102_Node000012_Node000013" class="edge">
<title>Node12&#45;&gt;Node13</title>
<g id="a_edge102_Node000012_Node000013"><a xlink:title=" ">
<path fill="none" stroke="#63b8ff" d="M2086.22,-407.61C2097.87,-406.37 2109.73,-405.1 2121.34,-403.85"/>
<polygon fill="#63b8ff" stroke="#63b8ff" points="2121.88,-407.31 2131.46,-402.77 2121.14,-400.35 2121.88,-407.31"/>
</a>
</g>
</g>
<!-- Node13&#45;&gt;Node6 -->
<g id="edge103_Node000013_Node000006" class="edge">
<title>Node13&#45;&gt;Node6</title>
<g id="a_edge103_Node000013_Node000006"><a xlink:title=" ">
<path fill="none" stroke="#63b8ff" d="M2131.18,-386.29C2035.99,-379.22 1879.57,-369.4 1744.5,-369.4 1265,-369.4 1265,-369.4 1265,-369.4 1107.44,-369.4 1062.99,-346.89 911,-388.4 876.53,-397.81 840.71,-417.64 816.29,-432.94"/>
<polygon fill="#63b8ff" stroke="#63b8ff" points="814.38,-430.01 807.83,-438.34 818.15,-435.91 814.38,-430.01"/>
</a>
</g>
</g>
<!-- Node14&#45;&gt;Node2 -->
<g id="edge106_Node000014_Node000002" class="edge">
<title>Node14&#45;&gt;Node2</title>
<g id="a_edge106_Node000014_Node000002"><a xlink:title=" ">
<path fill="none" stroke="#63b8ff" d="M1590.43,-439.14C1595.57,-441.86 1600.48,-444.93 1605,-448.4 1629.36,-467.11 1614.96,-491.11 1641,-507.4 1717.16,-555.03 1967.41,-563 2112.45,-563.44"/>
<polygon fill="#63b8ff" stroke="#63b8ff" points="2112.7,-566.94 2122.71,-563.46 2112.71,-559.94 2112.7,-566.94"/>
</a>
</g>
</g>
<!-- Node14&#45;&gt;Node3 -->
<g id="edge107_Node000014_Node000003" class="edge">
<title>Node14&#45;&gt;Node3</title>
<g id="a_edge107_Node000014_Node000003"><a xlink:title=" ">
<path fill="none" stroke="#63b8ff" d="M1511.26,-397.63C1527.96,-356.11 1571.5,-263.09 1641,-219.4 1786.41,-127.97 1994.9,-139.35 2117.68,-157.09"/>
<polygon fill="#63b8ff" stroke="#63b8ff" points="2117.43,-160.59 2127.83,-158.6 2118.46,-153.66 2117.43,-160.59"/>
</a>
</g>
</g>
<!-- Node15 -->
<g id="Node000015" class="node">
<title>Node15</title>
<g id="a_Node000015"><a xlink:href="$classcom_1_1example_1_1mybookshelf_1_1BookRecommendationFlow.html#aaf567ca97b0d7f0c58ebba4d6f4b18bd" xlink:title=" ">
<polygon fill="white" stroke="#666666" points="1846,-438.9 1641,-438.9 1641,-397.9 1846,-397.9 1846,-438.9"/>
<text text-anchor="start" x="1649" y="-426.9" font-family="Helvetica,sans-Serif" font-size="10.00">com.example.mybookshelf.</text>
<text text-anchor="start" x="1649" y="-415.9" font-family="Helvetica,sans-Serif" font-size="10.00">BookRecommendationFlow.showFresh</text>
<text text-anchor="middle" x="1743.5" y="-404.9" font-family="Helvetica,sans-Serif" font-size="10.00">StartStep2</text>
</a>
</g>
</g>
<!-- Node14&#45;&gt;Node15 -->
<g id="edge108_Node000014_Node000015" class="edge">
<title>Node14&#45;&gt;Node15</title>
<g id="a_edge108_Node000014_Node000015"><a xlink:title=" ">
<path fill="none" stroke="#63b8ff" d="M1605.2,-418.4C1613.7,-418.4 1622.31,-418.4 1630.87,-418.4"/>
<polygon fill="#63b8ff" stroke="#63b8ff" points="1630.89,-421.9 1640.89,-418.4 1630.89,-414.9 1630.89,-421.9"/>
</a>
</g>
</g>
<!-- Node15&#45;&gt;Node2 -->
<g id="edge109_Node000015_Node000002" class="edge">
<title>Node15&#45;&gt;Node2</title>
<g id="a_edge109_Node000015_Node000002"><a xlink:title=" ">
<path fill="none" stroke="#63b8ff" d="M1838.04,-438.91C1852.75,-442.11 1867.78,-445.36 1882,-448.4 1973.03,-467.88 1999.55,-459.46 2087,-491.4 2119.14,-503.13 2153.09,-521.55 2178.51,-536.68"/>
<polygon fill="#63b8ff" stroke="#63b8ff" points="2176.76,-539.71 2187.13,-541.88 2180.37,-533.72 2176.76,-539.71"/>
</a>
</g>
</g>
<!-- Node15&#45;&gt;Node3 -->
<g id="edge110_Node000015_Node000003" class="edge">
<title>Node15&#45;&gt;Node3</title>
<g id="a_edge110_Node000015_Node000003"><a xlink:title=" ">
<path fill="none" stroke="#63b8ff" d="M1766.44,-397.62C1792.12,-374.48 1836.88,-337.68 1882,-317.4 1966.99,-279.19 2002.01,-311.61 2087,-273.4 2125.62,-256.03 2163.96,-226.06 2189.29,-204.01"/>
<polygon fill="#63b8ff" stroke="#63b8ff" points="2191.87,-206.4 2197.04,-197.16 2187.23,-201.16 2191.87,-206.4"/>
</a>
</g>
</g>
<!-- Node16 -->
<g id="Node000016" class="node">
<title>Node16</title>
<g id="a_Node000016"><a xlink:href="$classcom_1_1example_1_1mybookshelf_1_1BookRecommendationFlow.html#a2bc1c0125eb3c1fe64ed1ed3ee93d3eb" xlink:title=" ">
<polygon fill="white" stroke="#666666" points="2087,-264.9 1882,-264.9 1882,-223.9 2087,-223.9 2087,-264.9"/>
<text text-anchor="start" x="1890" y="-252.9" font-family="Helvetica,sans-Serif" font-size="10.00">com.example.mybookshelf.</text>
<text text-anchor="start" x="1890" y="-241.9" font-family="Helvetica,sans-Serif" font-size="10.00">BookRecommendationFlow.showFresh</text>
<text text-anchor="middle" x="1984.5" y="-230.9" font-family="Helvetica,sans-Serif" font-size="10.00">StartStep3</text>
</a>
</g>
</g>
<!-- Node15&#45;&gt;Node16 -->
<g id="edge111_Node000015_Node000016" class="edge">
<title>Node15&#45;&gt;Node16</title>
<g id="a_edge111_Node000015_Node000016"><a xlink:title=" ">
<path fill="none" stroke="#63b8ff" d="M1759.99,-397.52C1783.31,-367.43 1830.28,-311.93 1882,-279.4 1888.07,-275.58 1894.62,-272.11 1901.35,-268.99"/>
<polygon fill="#63b8ff" stroke="#63b8ff" points="1902.87,-272.14 1910.62,-264.93 1900.06,-265.73 1902.87,-272.14"/>
</a>
</g>
</g>
<!-- Node16&#45;&gt;Node1 -->
<g id="edge114_Node000016_Node000001" class="edge">
<title>Node16&#45;&gt;Node1</title>
<g id="a_edge114_Node000016_Node000001"><a xlink:title=" ">
<path fill="none" stroke="#63b8ff" d="M1930.51,-223.75C1813,-179.89 1520.87,-81.4 1267,-81.4 569.5,-81.4 569.5,-81.4 569.5,-81.4 396.2,-81.4 213.44,-198.83 138.58,-252.82"/>
<polygon fill="#63b8ff" stroke="#63b8ff" points="136.43,-250.05 130.41,-258.77 140.56,-255.71 136.43,-250.05"/>
</a>
</g>
</g>
<!-- Node16&#45;&gt;Node2 -->
<g id="edge112_Node000016_Node000002" class="edge">
<title>Node16&#45;&gt;Node2</title>
<g id="a_edge112_Node000016_Node000002"><a xlink:title=" ">
<path fill="none" stroke="#63b8ff" d="M2000.82,-265.26C2041.33,-320.43 2151.31,-470.22 2197.8,-533.53"/>
<polygon fill="#63b8ff" stroke="#63b8ff" points="2195.19,-535.88 2203.93,-541.87 2200.83,-531.74 2195.19,-535.88"/>
</a>
</g>
</g>
<!-- Node16&#45;&gt;Node3 -->
<g id="edge113_Node000016_Node000003" class="edge">
<title>Node16&#45;&gt;Node3</title>
<g id="a_edge113_Node000016_Node000003"><a xlink:title=" ">
<path fill="none" stroke="#63b8ff" d="M2056.19,-223.81C2082.25,-216.22 2111.96,-207.57 2138.8,-199.75"/>
<polygon fill="#63b8ff" stroke="#63b8ff" points="2139.93,-203.07 2148.55,-196.91 2137.97,-196.35 2139.93,-203.07"/>
</a>
</g>
</g>
</g>
</svg>
