<?xml version="1.0" encoding="UTF-8" standalone="no"?>
<!DOCTYPE svg PUBLIC "-//W3C//DTD SVG 1.1//EN"
 "http://www.w3.org/Graphics/SVG/1.1/DTD/svg11.dtd">
<!-- Generated by graphviz version 2.43.0 (0)
 -->
<!-- Title: com.example.mybookshelf.GoalHandler.handleBookChange Pages: 1 -->
<svg width="392pt" height="422pt"
 viewBox="0.00 0.00 392.00 422.00" xmlns="http://www.w3.org/2000/svg" xmlns:xlink="http://www.w3.org/1999/xlink">
<g id="graph0" class="graph" transform="scale(1 1) rotate(0) translate(4 418)">
<title>com.example.mybookshelf.GoalHandler.handleBookChange</title>
<!-- Node1 -->
<g id="Node000001" class="node">
<title>Node1</title>
<g id="a_Node000001"><a xlink:title=" ">
<polygon fill="#999999" stroke="#666666" points="174,-222 0,-222 0,-192 174,-192 174,-222"/>
<text text-anchor="start" x="8" y="-210" font-family="Helvetica,sans-Serif" font-size="10.00">com.example.mybookshelf.</text>
<text text-anchor="middle" x="87" y="-199" font-family="Helvetica,sans-Serif" font-size="10.00">GoalHandler.handleBookChange</text>
</a>
</g>
</g>
<!-- Node2 -->
<g id="Node000002" class="node">
<title>Node2</title>
<g id="a_Node000002"><a xlink:href="$classcom_1_1example_1_1mybookshelf_1_1dataClass_1_1Goal.html#a3b610e27f691556a8dcf5b8301b9a9d1" xlink:title=" ">
<polygon fill="white" stroke="#666666" points="384,-414 210,-414 210,-384 384,-384 384,-414"/>
<text text-anchor="start" x="218" y="-402" font-family="Helvetica,sans-Serif" font-size="10.00">com.example.mybookshelf.data</text>
<text text-anchor="middle" x="297" y="-391" font-family="Helvetica,sans-Serif" font-size="10.00">Class.Goal.getBookName</text>
</a>
</g>
</g>
<!-- Node1&#45;&gt;Node2 -->
<g id="edge19_Node000001_Node000002" class="edge">
<title>Node1&#45;&gt;Node2</title>
<g id="a_edge19_Node000001_Node000002"><a xlink:title=" ">
<path fill="none" stroke="#63b8ff" d="M94.69,-222.19C110.05,-255.25 151.1,-334.06 210,-375 212.25,-376.56 214.6,-378.03 217.02,-379.39"/>
<polygon fill="#63b8ff" stroke="#63b8ff" points="215.57,-382.58 226.08,-383.94 218.71,-376.33 215.57,-382.58"/>
</a>
</g>
</g>
<!-- Node3 -->
<g id="Node000003" class="node">
<title>Node3</title>
<g id="a_Node000003"><a xlink:href="$classcom_1_1example_1_1mybookshelf_1_1dataClass_1_1Goal.html#a1c80a58d3e1cd2e1ab6ef14c40d3b274" xlink:title=" ">
<polygon fill="white" stroke="#666666" points="384,-366 210,-366 210,-336 384,-336 384,-366"/>
<text text-anchor="start" x="218" y="-354" font-family="Helvetica,sans-Serif" font-size="10.00">com.example.mybookshelf.data</text>
<text text-anchor="middle" x="297" y="-343" font-family="Helvetica,sans-Serif" font-size="10.00">Class.Goal.getGoal</text>
</a>
</g>
</g>
<!-- Node1&#45;&gt;Node3 -->
<g id="edge20_Node000001_Node000003" class="edge">
<title>Node1&#45;&gt;Node3</title>
<g id="a_edge20_Node000001_Node000003"><a xlink:title=" ">
<path fill="none" stroke="#63b8ff" d="M99.33,-222.39C118.98,-247.97 161.92,-299.17 210,-327 213.04,-328.76 216.22,-330.4 219.49,-331.92"/>
<polygon fill="#63b8ff" stroke="#63b8ff" points="218.32,-335.23 228.89,-335.91 221.06,-328.78 218.32,-335.23"/>
</a>
</g>
</g>
<!-- Node4 -->
<g id="Node000004" class="node">
<title>Node4</title>
<g id="a_Node000004"><a xlink:href="$classcom_1_1example_1_1mybookshelf_1_1dataClass_1_1Goal.html#abcf308a0e49a9b60f6761102438d9d04" xlink:title=" ">
<polygon fill="white" stroke="#666666" points="384,-318 210,-318 210,-288 384,-288 384,-318"/>
<text text-anchor="start" x="218" y="-306" font-family="Helvetica,sans-Serif" font-size="10.00">com.example.mybookshelf.data</text>
<text text-anchor="middle" x="297" y="-295" font-family="Helvetica,sans-Serif" font-size="10.00">Class.Goal.getId</text>
</a>
</g>
</g>
<!-- Node1&#45;&gt;Node4 -->
<g id="edge21_Node000001_Node000004" class="edge">
<title>Node1&#45;&gt;Node4</title>
<g id="a_edge21_Node000001_Node000004"><a xlink:title=" ">
<path fill="none" stroke="#63b8ff" d="M109.57,-222.09C133.26,-238.09 172.89,-263.19 210,-279 214.69,-281 219.6,-282.88 224.59,-284.64"/>
<polygon fill="#63b8ff" stroke="#63b8ff" points="223.66,-288.02 234.25,-287.88 225.88,-281.38 223.66,-288.02"/>
</a>
</g>
</g>
<!-- Node5 -->
<g id="Node000005" class="node">
<title>Node5</title>
<g id="a_Node000005"><a xlink:href="$classcom_1_1example_1_1mybookshelf_1_1dataClass_1_1Book.html#a4109da1bdee13601576c6725d6e89e71" xlink:title=" ">
<polygon fill="white" stroke="#666666" points="384,-270 210,-270 210,-240 384,-240 384,-270"/>
<text text-anchor="start" x="218" y="-258" font-family="Helvetica,sans-Serif" font-size="10.00">com.example.mybookshelf.data</text>
<text text-anchor="middle" x="297" y="-247" font-family="Helvetica,sans-Serif" font-size="10.00">Class.Book.getName</text>
</a>
</g>
</g>
<!-- Node1&#45;&gt;Node5 -->
<g id="edge22_Node000001_Node000005" class="edge">
<title>Node1&#45;&gt;Node5</title>
<g id="a_edge22_Node000001_Node000005"><a xlink:title=" ">
<path fill="none" stroke="#63b8ff" d="M153.24,-222.06C174.73,-227.01 198.8,-232.57 220.96,-237.68"/>
<polygon fill="#63b8ff" stroke="#63b8ff" points="220.46,-241.16 230.99,-240 222.03,-234.34 220.46,-241.16"/>
</a>
</g>
</g>
<!-- Node6 -->
<g id="Node000006" class="node">
<title>Node6</title>
<g id="a_Node000006"><a xlink:href="$classcom_1_1example_1_1mybookshelf_1_1dataClass_1_1Book.html#af362f232851507c1d64779533639edf8" xlink:title=" ">
<polygon fill="white" stroke="#666666" points="384,-222 210,-222 210,-192 384,-192 384,-222"/>
<text text-anchor="start" x="218" y="-210" font-family="Helvetica,sans-Serif" font-size="10.00">com.example.mybookshelf.data</text>
<text text-anchor="middle" x="297" y="-199" font-family="Helvetica,sans-Serif" font-size="10.00">Class.Book.getPages</text>
</a>
</g>
</g>
<!-- Node1&#45;&gt;Node6 -->
<g id="edge23_Node000001_Node000006" class="edge">
<title>Node1&#45;&gt;Node6</title>
<g id="a_edge23_Node000001_Node000006"><a xlink:title=" ">
<path fill="none" stroke="#63b8ff" d="M174.1,-207C182.62,-207 191.3,-207 199.91,-207"/>
<polygon fill="#63b8ff" stroke="#63b8ff" points="199.96,-210.5 209.96,-207 199.96,-203.5 199.96,-210.5"/>
</a>
</g>
</g>
<!-- Node7 -->
<g id="Node000007" class="node">
<title>Node7</title>
<g id="a_Node000007"><a xlink:href="$classcom_1_1example_1_1mybookshelf_1_1dataClass_1_1Goal.html#a964cb06dadac4c69df6c931402733779" xlink:title=" ">
<polygon fill="white" stroke="#666666" points="384,-174 210,-174 210,-144 384,-144 384,-174"/>
<text text-anchor="start" x="218" y="-162" font-family="Helvetica,sans-Serif" font-size="10.00">com.example.mybookshelf.data</text>
<text text-anchor="middle" x="297" y="-151" font-family="Helvetica,sans-Serif" font-size="10.00">Class.Goal.getProgress</text>
</a>
</g>
</g>
<!-- Node1&#45;&gt;Node7 -->
<g id="edge24_Node000001_Node000007" class="edge">
<title>Node1&#45;&gt;Node7</title>
<g id="a_edge24_Node000001_Node000007"><a xlink:title=" ">
<path fill="none" stroke="#63b8ff" d="M153.24,-191.94C174.73,-186.99 198.8,-181.43 220.96,-176.32"/>
<polygon fill="#63b8ff" stroke="#63b8ff" points="222.03,-179.66 230.99,-174 220.46,-172.84 222.03,-179.66"/>
</a>
</g>
</g>
<!-- Node8 -->
<g id="Node000008" class="node">
<title>Node8</title>
<g id="a_Node000008"><a xlink:href="$classcom_1_1example_1_1mybookshelf_1_1dataClass_1_1Book.html#a7c4ec1f3e154fad200b64643574e5c9c" xlink:title=" ">
<polygon fill="white" stroke="#666666" points="384,-126 210,-126 210,-96 384,-96 384,-126"/>
<text text-anchor="start" x="218" y="-114" font-family="Helvetica,sans-Serif" font-size="10.00">com.example.mybookshelf.data</text>
<text text-anchor="middle" x="297" y="-103" font-family="Helvetica,sans-Serif" font-size="10.00">Class.Book.getStatus</text>
</a>
</g>
</g>
<!-- Node1&#45;&gt;Node8 -->
<g id="edge25_Node000001_Node000008" class="edge">
<title>Node1&#45;&gt;Node8</title>
<g id="a_edge25_Node000001_Node000008"><a xlink:title=" ">
<path fill="none" stroke="#63b8ff" d="M109.57,-191.91C133.26,-175.91 172.89,-150.81 210,-135 214.69,-133 219.6,-131.12 224.59,-129.36"/>
<polygon fill="#63b8ff" stroke="#63b8ff" points="225.88,-132.62 234.25,-126.12 223.66,-125.98 225.88,-132.62"/>
</a>
</g>
</g>
<!-- Node9 -->
<g id="Node000009" class="node">
<title>Node9</title>
<g id="a_Node000009"><a xlink:href="$classcom_1_1example_1_1mybookshelf_1_1dataClass_1_1Goal.html#a84c2af13824c14a2b6c3dcf25a493d0f" xlink:title=" ">
<polygon fill="white" stroke="#666666" points="384,-78 210,-78 210,-48 384,-48 384,-78"/>
<text text-anchor="start" x="218" y="-66" font-family="Helvetica,sans-Serif" font-size="10.00">com.example.mybookshelf.data</text>
<text text-anchor="middle" x="297" y="-55" font-family="Helvetica,sans-Serif" font-size="10.00">Class.Goal.getTarget</text>
</a>
</g>
</g>
<!-- Node1&#45;&gt;Node9 -->
<g id="edge26_Node000001_Node000009" class="edge">
<title>Node1&#45;&gt;Node9</title>
<g id="a_edge26_Node000001_Node000009"><a xlink:title=" ">
<path fill="none" stroke="#63b8ff" d="M99.33,-191.61C118.98,-166.03 161.92,-114.83 210,-87 213.04,-85.24 216.22,-83.6 219.49,-82.08"/>
<polygon fill="#63b8ff" stroke="#63b8ff" points="221.06,-85.22 228.89,-78.09 218.32,-78.77 221.06,-85.22"/>
</a>
</g>
</g>
<!-- Node10 -->
<g id="Node000010" class="node">
<title>Node10</title>
<g id="a_Node000010"><a xlink:href="$classcom_1_1example_1_1mybookshelf_1_1dataClass_1_1Goal.html#a695831f2ac1529bf5e48ea738b00aaec" xlink:title=" ">
<polygon fill="white" stroke="#666666" points="384,-30 210,-30 210,0 384,0 384,-30"/>
<text text-anchor="start" x="218" y="-18" font-family="Helvetica,sans-Serif" font-size="10.00">com.example.mybookshelf.data</text>
<text text-anchor="middle" x="297" y="-7" font-family="Helvetica,sans-Serif" font-size="10.00">Class.Goal.setProgress</text>
</a>
</g>
</g>
<!-- Node1&#45;&gt;Node10 -->
<g id="edge27_Node000001_Node000010" class="edge">
<title>Node1&#45;&gt;Node10</title>
<g id="a_edge27_Node000001_Node000010"><a xlink:title=" ">
<path fill="none" stroke="#63b8ff" d="M94.69,-191.81C110.05,-158.75 151.1,-79.94 210,-39 212.25,-37.44 214.6,-35.97 217.02,-34.61"/>
<polygon fill="#63b8ff" stroke="#63b8ff" points="218.71,-37.67 226.08,-30.06 215.57,-31.42 218.71,-37.67"/>
</a>
</g>
</g>
</g>
</svg>
