<?xml version="1.0" encoding="UTF-8" standalone="no"?>
<!DOCTYPE svg PUBLIC "-//W3C//DTD SVG 1.1//EN"
 "http://www.w3.org/Graphics/SVG/1.1/DTD/svg11.dtd">
<!-- Generated by graphviz version 2.43.0 (0)
 -->
<!-- Title: com.example.mybookshelf.dataClass.Goal.getGoal Pages: 1 -->
<svg width="687pt" height="302pt"
 viewBox="0.00 0.00 687.00 301.50" xmlns="http://www.w3.org/2000/svg" xmlns:xlink="http://www.w3.org/1999/xlink">
<g id="graph0" class="graph" transform="scale(1 1) rotate(0) translate(4 297.5)">
<title>com.example.mybookshelf.dataClass.Goal.getGoal</title>
<!-- Node1 -->
<g id="Node000001" class="node">
<title>Node1</title>
<g id="a_Node000001"><a xlink:title=" ">
<polygon fill="#999999" stroke="#666666" points="679,-161.5 505,-161.5 505,-131.5 679,-131.5 679,-161.5"/>
<text text-anchor="start" x="513" y="-149.5" font-family="Helvetica,sans-Serif" font-size="10.00">com.example.mybookshelf.data</text>
<text text-anchor="middle" x="592" y="-138.5" font-family="Helvetica,sans-Serif" font-size="10.00">Class.Goal.getGoal</text>
</a>
</g>
</g>
<!-- Node2 -->
<g id="Node000002" class="node">
<title>Node2</title>
<g id="a_Node000002"><a xlink:href="$classcom_1_1example_1_1mybookshelf_1_1DataBaseConnection.html#a3b22d6106c92d008ed8b05c10892f0b7" xlink:title=" ">
<polygon fill="white" stroke="#666666" points="437,-293.5 275,-293.5 275,-263.5 437,-263.5 437,-293.5"/>
<text text-anchor="start" x="283" y="-281.5" font-family="Helvetica,sans-Serif" font-size="10.00">com.example.mybookshelf.</text>
<text text-anchor="middle" x="356" y="-270.5" font-family="Helvetica,sans-Serif" font-size="10.00">DataBaseConnection.addGoal</text>
</a>
</g>
</g>
<!-- Node1&#45;&gt;Node2 -->
<g id="edge15_Node000001_Node000002" class="edge">
<title>Node1&#45;&gt;Node2</title>
<g id="a_edge15_Node000001_Node000002"><a xlink:title=" ">
<path fill="none" stroke="#63b8ff" d="M571.92,-169.29C549.78,-194.18 510.92,-233.32 469,-254.5 459.06,-259.52 448.11,-263.5 437.07,-266.64"/>
<polygon fill="#63b8ff" stroke="#63b8ff" points="574.56,-171.59 578.5,-161.75 569.29,-166.98 574.56,-171.59"/>
</a>
</g>
</g>
<!-- Node3 -->
<g id="Node000003" class="node">
<title>Node3</title>
<g id="a_Node000003"><a xlink:href="$classcom_1_1example_1_1mybookshelf_1_1LayoutManager_1_1CustomGoalAdapter.html#af6a51f456a68a61bedc36289b91e0716" xlink:title=" ">
<polygon fill="white" stroke="#666666" points="469,-245 243,-245 243,-204 469,-204 469,-245"/>
<text text-anchor="start" x="251" y="-233" font-family="Helvetica,sans-Serif" font-size="10.00">com.example.mybookshelf.</text>
<text text-anchor="start" x="251" y="-222" font-family="Helvetica,sans-Serif" font-size="10.00">LayoutManager.CustomGoalAdapter.create</text>
<text text-anchor="middle" x="356" y="-211" font-family="Helvetica,sans-Serif" font-size="10.00">GoalBox</text>
</a>
</g>
</g>
<!-- Node1&#45;&gt;Node3 -->
<g id="edge16_Node000001_Node000003" class="edge">
<title>Node1&#45;&gt;Node3</title>
<g id="a_edge16_Node000001_Node000003"><a xlink:title=" ">
<path fill="none" stroke="#63b8ff" d="M546.43,-165.44C523.52,-174.81 495.01,-185.93 469,-194.5 459.06,-197.78 448.53,-200.96 438.07,-203.95"/>
<polygon fill="#63b8ff" stroke="#63b8ff" points="547.98,-168.59 555.89,-161.54 545.31,-162.12 547.98,-168.59"/>
</a>
</g>
</g>
<!-- Node5 -->
<g id="Node000005" class="node">
<title>Node5</title>
<g id="a_Node000005"><a xlink:href="$classcom_1_1example_1_1mybookshelf_1_1GoalHandler.html#ac10bf110d981c8788e0e4b9b2e25177e" xlink:title=" ">
<polygon fill="white" stroke="#666666" points="440,-185.5 272,-185.5 272,-155.5 440,-155.5 440,-185.5"/>
<text text-anchor="start" x="280" y="-173.5" font-family="Helvetica,sans-Serif" font-size="10.00">com.example.mybookshelf.</text>
<text text-anchor="middle" x="356" y="-162.5" font-family="Helvetica,sans-Serif" font-size="10.00">GoalHandler.handleBookAdded</text>
</a>
</g>
</g>
<!-- Node1&#45;&gt;Node5 -->
<g id="edge18_Node000001_Node000005" class="edge">
<title>Node1&#45;&gt;Node5</title>
<g id="a_edge18_Node000001_Node000005"><a xlink:title=" ">
<path fill="none" stroke="#63b8ff" d="M494.87,-156.36C476.74,-158.22 457.92,-160.15 440.23,-161.96"/>
<polygon fill="#63b8ff" stroke="#63b8ff" points="495.27,-159.84 504.86,-155.33 494.56,-152.87 495.27,-159.84"/>
</a>
</g>
</g>
<!-- Node6 -->
<g id="Node000006" class="node">
<title>Node6</title>
<g id="a_Node000006"><a xlink:href="$classcom_1_1example_1_1mybookshelf_1_1GoalHandler.html#a5ddb8c71cb9828e9525f4bafefaf685f" xlink:title=" ">
<polygon fill="white" stroke="#666666" points="443,-137.5 269,-137.5 269,-107.5 443,-107.5 443,-137.5"/>
<text text-anchor="start" x="277" y="-125.5" font-family="Helvetica,sans-Serif" font-size="10.00">com.example.mybookshelf.</text>
<text text-anchor="middle" x="356" y="-114.5" font-family="Helvetica,sans-Serif" font-size="10.00">GoalHandler.handleBookChange</text>
</a>
</g>
</g>
<!-- Node1&#45;&gt;Node6 -->
<g id="edge19_Node000001_Node000006" class="edge">
<title>Node1&#45;&gt;Node6</title>
<g id="a_edge19_Node000001_Node000006"><a xlink:title=" ">
<path fill="none" stroke="#63b8ff" d="M494.89,-136.64C477.82,-134.89 460.13,-133.08 443.34,-131.36"/>
<polygon fill="#63b8ff" stroke="#63b8ff" points="494.56,-140.13 504.86,-137.67 495.27,-133.16 494.56,-140.13"/>
</a>
</g>
</g>
<!-- Node7 -->
<g id="Node000007" class="node">
<title>Node7</title>
<g id="a_Node000007"><a xlink:href="$classcom_1_1example_1_1mybookshelf_1_1GoalHandler.html#a326d9e94cb83508cae6d760df1bd5718" xlink:title=" ">
<polygon fill="white" stroke="#666666" points="448,-89.5 264,-89.5 264,-59.5 448,-59.5 448,-89.5"/>
<text text-anchor="start" x="272" y="-77.5" font-family="Helvetica,sans-Serif" font-size="10.00">com.example.mybookshelf.</text>
<text text-anchor="middle" x="356" y="-66.5" font-family="Helvetica,sans-Serif" font-size="10.00">GoalHandler.handleBookRemoved</text>
</a>
</g>
</g>
<!-- Node1&#45;&gt;Node7 -->
<g id="edge20_Node000001_Node000007" class="edge">
<title>Node1&#45;&gt;Node7</title>
<g id="a_edge20_Node000001_Node000007"><a xlink:title=" ">
<path fill="none" stroke="#63b8ff" d="M547.6,-127.42C524.57,-117.81 495.6,-106.52 469,-98.5 458.15,-95.23 446.58,-92.22 435.14,-89.53"/>
<polygon fill="#63b8ff" stroke="#63b8ff" points="546.51,-130.76 557.08,-131.42 549.23,-124.31 546.51,-130.76"/>
</a>
</g>
</g>
<!-- Node8 -->
<g id="Node000008" class="node">
<title>Node8</title>
<g id="a_Node000008"><a xlink:href="$classcom_1_1example_1_1mybookshelf_1_1notifications_1_1NotificationScheduler.html#ab4c513c92fc23addef85f0992fb6ddaf" xlink:title=" ">
<polygon fill="white" stroke="#666666" points="467,-41 245,-41 245,0 467,0 467,-41"/>
<text text-anchor="start" x="253" y="-29" font-family="Helvetica,sans-Serif" font-size="10.00">com.example.mybookshelf.notifications.</text>
<text text-anchor="start" x="253" y="-18" font-family="Helvetica,sans-Serif" font-size="10.00">NotificationScheduler.sendGoalCompleted</text>
<text text-anchor="middle" x="356" y="-7" font-family="Helvetica,sans-Serif" font-size="10.00">Notification</text>
</a>
</g>
</g>
<!-- Node1&#45;&gt;Node8 -->
<g id="edge21_Node000001_Node000008" class="edge">
<title>Node1&#45;&gt;Node8</title>
<g id="a_edge21_Node000001_Node000008"><a xlink:title=" ">
<path fill="none" stroke="#63b8ff" d="M568.63,-124.24C545.54,-102.45 507.54,-69.8 469,-50.5 461.98,-46.99 454.5,-43.85 446.86,-41.05"/>
<polygon fill="#63b8ff" stroke="#63b8ff" points="566.23,-126.78 575.87,-131.18 571.07,-121.73 566.23,-126.78"/>
</a>
</g>
</g>
<!-- Node4 -->
<g id="Node000004" class="node">
<title>Node4</title>
<g id="a_Node000004"><a xlink:href="$classcom_1_1example_1_1mybookshelf_1_1LayoutManager_1_1CustomGoalAdapter.html#ad2264dc4c944b992a8cac174bebb6694" xlink:title=" ">
<polygon fill="white" stroke="#666666" points="207,-245 0,-245 0,-204 207,-204 207,-245"/>
<text text-anchor="start" x="8" y="-233" font-family="Helvetica,sans-Serif" font-size="10.00">com.example.mybookshelf.</text>
<text text-anchor="start" x="8" y="-222" font-family="Helvetica,sans-Serif" font-size="10.00">LayoutManager.CustomGoalAdapter.on</text>
<text text-anchor="middle" x="103.5" y="-211" font-family="Helvetica,sans-Serif" font-size="10.00">BindViewHolder</text>
</a>
</g>
</g>
<!-- Node3&#45;&gt;Node4 -->
<g id="edge17_Node000003_Node000004" class="edge">
<title>Node3&#45;&gt;Node4</title>
<g id="a_edge17_Node000003_Node000004"><a xlink:title=" ">
<path fill="none" stroke="#63b8ff" d="M232.91,-224.5C224.35,-224.5 215.77,-224.5 207.33,-224.5"/>
<polygon fill="#63b8ff" stroke="#63b8ff" points="232.94,-228 242.94,-224.5 232.94,-221 232.94,-228"/>
</a>
</g>
</g>
</g>
</svg>
