<?xml version="1.0" encoding="UTF-8" standalone="no"?>
<!DOCTYPE svg PUBLIC "-//W3C//DTD SVG 1.1//EN"
 "http://www.w3.org/Graphics/SVG/1.1/DTD/svg11.dtd">
<!-- Generated by graphviz version 2.43.0 (0)
 -->
<!-- Title: com.example.mybookshelf.UIMaster.navigateToGoals Pages: 1 -->
<svg width="1785pt" height="481pt"
 viewBox="0.00 0.00 1785.00 481.00" xmlns="http://www.w3.org/2000/svg" xmlns:xlink="http://www.w3.org/1999/xlink">
<g id="graph0" class="graph" transform="scale(1 1) rotate(0) translate(4 477)">
<title>com.example.mybookshelf.UIMaster.navigateToGoals</title>
<!-- Node1 -->
<g id="Node000001" class="node">
<title>Node1</title>
<g id="a_Node000001"><a xlink:title=" ">
<polygon fill="#999999" stroke="#666666" points="152,-289 0,-289 0,-259 152,-259 152,-289"/>
<text text-anchor="start" x="8" y="-277" font-family="Helvetica,sans-Serif" font-size="10.00">com.example.mybookshelf.</text>
<text text-anchor="middle" x="76" y="-266" font-family="Helvetica,sans-Serif" font-size="10.00">UIMaster.navigateToGoals</text>
</a>
</g>
</g>
<!-- Node2 -->
<g id="Node000002" class="node">
<title>Node2</title>
<g id="a_Node000002"><a xlink:href="$classcom_1_1example_1_1mybookshelf_1_1UIMaster.html#ac859db60f9068e6a87b633ef697d4d0f" xlink:title=" ">
<polygon fill="white" stroke="#666666" points="385,-289 229,-289 229,-259 385,-259 385,-289"/>
<text text-anchor="start" x="237" y="-277" font-family="Helvetica,sans-Serif" font-size="10.00">com.example.mybookshelf.</text>
<text text-anchor="middle" x="307" y="-266" font-family="Helvetica,sans-Serif" font-size="10.00">UIMaster.navigateToSettings</text>
</a>
</g>
</g>
<!-- Node1&#45;&gt;Node2 -->
<g id="edge69_Node000001_Node000002" class="edge">
<title>Node1&#45;&gt;Node2</title>
<g id="a_edge69_Node000001_Node000002"><a xlink:title=" ">
<path fill="none" stroke="#63b8ff" d="M152.3,-267.61C173.46,-267.21 196.65,-267.14 218.45,-267.42"/>
<polygon fill="#63b8ff" stroke="#63b8ff" points="218.64,-270.92 228.69,-267.58 218.75,-263.92 218.64,-270.92"/>
</a>
</g>
</g>
<!-- Node7 -->
<g id="Node000007" class="node">
<title>Node7</title>
<g id="a_Node000007"><a xlink:href="$classcom_1_1example_1_1mybookshelf_1_1UIMaster.html#ad609d5e0b54e87afcb60aed6c66a792e" xlink:title=" ">
<polygon fill="white" stroke="#666666" points="678,-423 500,-423 500,-393 678,-393 678,-423"/>
<text text-anchor="start" x="508" y="-411" font-family="Helvetica,sans-Serif" font-size="10.00">com.example.mybookshelf.</text>
<text text-anchor="middle" x="589" y="-400" font-family="Helvetica,sans-Serif" font-size="10.00">UIMaster.navigateToStartingPage</text>
</a>
</g>
</g>
<!-- Node1&#45;&gt;Node7 -->
<g id="edge100_Node000001_Node000007" class="edge">
<title>Node1&#45;&gt;Node7</title>
<g id="a_edge100_Node000001_Node000007"><a xlink:title=" ">
<path fill="none" stroke="#63b8ff" d="M130.74,-289.07C205.04,-309.77 343.39,-347.87 462,-378 478.58,-382.21 496.43,-386.57 513.33,-390.61"/>
<polygon fill="#63b8ff" stroke="#63b8ff" points="512.62,-394.04 523.16,-392.96 514.25,-387.23 512.62,-394.04"/>
</a>
</g>
</g>
<!-- Node15 -->
<g id="Node000015" class="node">
<title>Node15</title>
<g id="a_Node000015"><a xlink:href="$classcom_1_1example_1_1mybookshelf_1_1UIMaster.html#aa3079f36c20fc1b0ec8c01197f06faa3" xlink:title=" ">
<polygon fill="white" stroke="#666666" points="1121,-102 969,-102 969,-72 1121,-72 1121,-102"/>
<text text-anchor="start" x="977" y="-90" font-family="Helvetica,sans-Serif" font-size="10.00">com.example.mybookshelf.</text>
<text text-anchor="middle" x="1045" y="-79" font-family="Helvetica,sans-Serif" font-size="10.00">UIMaster.navigateToStats</text>
</a>
</g>
</g>
<!-- Node1&#45;&gt;Node15 -->
<g id="edge101_Node000001_Node000015" class="edge">
<title>Node1&#45;&gt;Node15</title>
<g id="a_edge101_Node000001_Node000015"><a xlink:title=" ">
<path fill="none" stroke="#63b8ff" d="M95.88,-258.72C149.26,-216.68 307.44,-99.96 462,-63 665.59,-14.31 724.85,-40.75 933,-63 946.88,-64.48 961.58,-66.98 975.57,-69.82"/>
<polygon fill="#63b8ff" stroke="#63b8ff" points="975.11,-73.3 985.62,-71.94 976.56,-66.45 975.11,-73.3"/>
</a>
</g>
</g>
<!-- Node28 -->
<g id="Node000028" class="node">
<title>Node28</title>
<g id="a_Node000028"><a xlink:href="$classcom_1_1example_1_1mybookshelf_1_1LayoutManager_1_1CustomGoalAdapter.html#abad93cc513b4470ac284a0756e1c3f65" xlink:title=" ">
<polygon fill="white" stroke="#666666" points="426,-241 188,-241 188,-211 426,-211 426,-241"/>
<text text-anchor="start" x="196" y="-229" font-family="Helvetica,sans-Serif" font-size="10.00">com.example.mybookshelf.</text>
<text text-anchor="middle" x="307" y="-218" font-family="Helvetica,sans-Serif" font-size="10.00">LayoutManager.CustomGoalAdapter.setGoals</text>
</a>
</g>
</g>
<!-- Node1&#45;&gt;Node28 -->
<g id="edge102_Node000001_Node000028" class="edge">
<title>Node1&#45;&gt;Node28</title>
<g id="a_edge102_Node000001_Node000028"><a xlink:title=" ">
<path fill="none" stroke="#63b8ff" d="M145.95,-258.95C159.87,-255.96 174.4,-252.85 188,-250 198.84,-247.73 210.25,-245.37 221.52,-243.05"/>
<polygon fill="#63b8ff" stroke="#63b8ff" points="222.28,-246.47 231.38,-241.03 220.88,-239.61 222.28,-246.47"/>
</a>
</g>
</g>
<!-- Node2&#45;&gt;Node1 -->
<g id="edge74_Node000002_Node000001" class="edge">
<title>Node2&#45;&gt;Node1</title>
<g id="a_edge74_Node000002_Node000001"><a xlink:title=" ">
<path fill="none" stroke="#63b8ff" d="M228.69,-280.42C207.41,-280.81 184.21,-280.85 162.49,-280.55"/>
<polygon fill="#63b8ff" stroke="#63b8ff" points="162.36,-277.05 152.3,-280.39 162.24,-284.05 162.36,-277.05"/>
</a>
</g>
</g>
<!-- Node3 -->
<g id="Node000003" class="node">
<title>Node3</title>
<g id="a_Node000003"><a xlink:href="$classcom_1_1example_1_1mybookshelf_1_1Authenticator.html#a57eb5913cd07c88e3f0771b4bf88bc0c" xlink:title=" ">
<polygon fill="white" stroke="#666666" points="673,-337 505,-337 505,-307 673,-307 673,-337"/>
<text text-anchor="start" x="513" y="-325" font-family="Helvetica,sans-Serif" font-size="10.00">com.example.mybookshelf.</text>
<text text-anchor="middle" x="589" y="-314" font-family="Helvetica,sans-Serif" font-size="10.00">Authenticator.clearStoredToken</text>
</a>
</g>
</g>
<!-- Node2&#45;&gt;Node3 -->
<g id="edge70_Node000002_Node000003" class="edge">
<title>Node2&#45;&gt;Node3</title>
<g id="a_edge70_Node000002_Node000003"><a xlink:title=" ">
<path fill="none" stroke="#63b8ff" d="M385.25,-287.24C419.14,-293.05 459.2,-299.92 494.73,-306.01"/>
<polygon fill="#63b8ff" stroke="#63b8ff" points="494.18,-309.47 504.62,-307.71 495.36,-302.57 494.18,-309.47"/>
</a>
</g>
</g>
<!-- Node4 -->
<g id="Node000004" class="node">
<title>Node4</title>
<g id="a_Node000004"><a xlink:href="$classcom_1_1example_1_1mybookshelf_1_1notifications_1_1NotificationScheduler.html#aaf3ebda4b3bc3da4f2c4e8cabb4a3602" xlink:title=" ">
<polygon fill="white" stroke="#666666" points="711,-289 467,-289 467,-259 711,-259 711,-289"/>
<text text-anchor="start" x="475" y="-277" font-family="Helvetica,sans-Serif" font-size="10.00">com.example.mybookshelf.notifications.</text>
<text text-anchor="middle" x="589" y="-266" font-family="Helvetica,sans-Serif" font-size="10.00">NotificationScheduler.getDailyNotificationHour</text>
</a>
</g>
</g>
<!-- Node2&#45;&gt;Node4 -->
<g id="edge71_Node000002_Node000004" class="edge">
<title>Node2&#45;&gt;Node4</title>
<g id="a_edge71_Node000002_Node000004"><a xlink:title=" ">
<path fill="none" stroke="#63b8ff" d="M385.25,-274C407.45,-274 432.29,-274 456.78,-274"/>
<polygon fill="#63b8ff" stroke="#63b8ff" points="456.87,-277.5 466.87,-274 456.87,-270.5 456.87,-277.5"/>
</a>
</g>
</g>
<!-- Node5 -->
<g id="Node000005" class="node">
<title>Node5</title>
<g id="a_Node000005"><a xlink:href="$classcom_1_1example_1_1mybookshelf_1_1notifications_1_1NotificationScheduler.html#ad29a9938277c2a671b0399cdc84c7844" xlink:title=" ">
<polygon fill="white" stroke="#666666" points="716,-241 462,-241 462,-211 716,-211 716,-241"/>
<text text-anchor="start" x="470" y="-229" font-family="Helvetica,sans-Serif" font-size="10.00">com.example.mybookshelf.notifications.</text>
<text text-anchor="middle" x="589" y="-218" font-family="Helvetica,sans-Serif" font-size="10.00">NotificationScheduler.getDailyNotificationMinute</text>
</a>
</g>
</g>
<!-- Node2&#45;&gt;Node5 -->
<g id="edge72_Node000002_Node000005" class="edge">
<title>Node2&#45;&gt;Node5</title>
<g id="a_edge72_Node000002_Node000005"><a xlink:title=" ">
<path fill="none" stroke="#63b8ff" d="M385.25,-260.76C417.74,-255.19 455.91,-248.64 490.31,-242.75"/>
<polygon fill="#63b8ff" stroke="#63b8ff" points="491.12,-246.16 500.38,-241.02 489.94,-239.26 491.12,-246.16"/>
</a>
</g>
</g>
<!-- Node6 -->
<g id="Node000006" class="node">
<title>Node6</title>
<g id="a_Node000006"><a xlink:href="$classcom_1_1example_1_1mybookshelf_1_1notifications_1_1NotificationScheduler.html#ac8a096801252bd85cf58f0b4ded28ebe" xlink:title=" ">
<polygon fill="white" stroke="#666666" points="711,-193 467,-193 467,-163 711,-163 711,-193"/>
<text text-anchor="start" x="475" y="-181" font-family="Helvetica,sans-Serif" font-size="10.00">com.example.mybookshelf.notifications.</text>
<text text-anchor="middle" x="589" y="-170" font-family="Helvetica,sans-Serif" font-size="10.00">NotificationScheduler.isDailyNotificationActive</text>
</a>
</g>
</g>
<!-- Node2&#45;&gt;Node6 -->
<g id="edge73_Node000002_Node000006" class="edge">
<title>Node2&#45;&gt;Node6</title>
<g id="a_edge73_Node000002_Node000006"><a xlink:title=" ">
<path fill="none" stroke="#63b8ff" d="M385.08,-266.71C399.41,-263.09 413.72,-257.77 426,-250 448.54,-235.75 439.37,-216.11 462,-202 464.65,-200.34 467.4,-198.8 470.21,-197.35"/>
<polygon fill="#63b8ff" stroke="#63b8ff" points="471.81,-200.47 479.41,-193.08 468.86,-194.12 471.81,-200.47"/>
</a>
</g>
</g>
<!-- Node2&#45;&gt;Node7 -->
<g id="edge75_Node000002_Node000007" class="edge">
<title>Node2&#45;&gt;Node7</title>
<g id="a_edge75_Node000002_Node000007"><a xlink:title=" ">
<path fill="none" stroke="#63b8ff" d="M333.95,-289.17C358.29,-303.71 395.41,-326.68 426,-349 442.82,-361.28 443.34,-369.74 462,-379 470.82,-383.38 480.32,-387.1 490.01,-390.28"/>
<polygon fill="#63b8ff" stroke="#63b8ff" points="489.15,-393.68 499.74,-393.27 491.21,-386.99 489.15,-393.68"/>
</a>
</g>
</g>
<!-- Node2&#45;&gt;Node15 -->
<g id="edge96_Node000002_Node000015" class="edge">
<title>Node2&#45;&gt;Node15</title>
<g id="a_edge96_Node000002_Node000015"><a xlink:title=" ">
<path fill="none" stroke="#63b8ff" d="M385.17,-271.07C400.25,-267.21 414.82,-260.69 426,-250 473.67,-204.4 410.67,-147.44 462,-106 536.03,-46.23 815.85,-64.08 958.8,-77.72"/>
<polygon fill="#63b8ff" stroke="#63b8ff" points="958.56,-81.22 968.86,-78.7 959.24,-74.25 958.56,-81.22"/>
</a>
</g>
</g>
<!-- Node26 -->
<g id="Node000026" class="node">
<title>Node26</title>
<g id="a_Node000026"><a xlink:href="$classcom_1_1example_1_1mybookshelf_1_1UIMaster.html#a5d06d53d8ef756629247fde0f557a3d1" xlink:title=" ">
<polygon fill="white" stroke="#666666" points="665,-145 513,-145 513,-115 665,-115 665,-145"/>
<text text-anchor="start" x="521" y="-133" font-family="Helvetica,sans-Serif" font-size="10.00">com.example.mybookshelf.</text>
<text text-anchor="middle" x="589" y="-122" font-family="Helvetica,sans-Serif" font-size="10.00">UIMaster.showLogin</text>
</a>
</g>
</g>
<!-- Node2&#45;&gt;Node26 -->
<g id="edge97_Node000002_Node000026" class="edge">
<title>Node2&#45;&gt;Node26</title>
<g id="a_edge97_Node000002_Node000026"><a xlink:title=" ">
<path fill="none" stroke="#63b8ff" d="M385.2,-269.85C400.01,-266.03 414.47,-259.84 426,-250 460.67,-220.42 427.15,-183.36 462,-154 473.66,-144.17 488.11,-137.89 503.01,-133.95"/>
<polygon fill="#63b8ff" stroke="#63b8ff" points="503.88,-137.34 512.84,-131.69 502.31,-130.52 503.88,-137.34"/>
</a>
</g>
</g>
<!-- Node8 -->
<g id="Node000008" class="node">
<title>Node8</title>
<g id="a_Node000008"><a xlink:href="$classcom_1_1example_1_1mybookshelf_1_1UIMaster.html#aa6aad8404432bdaf23db9b41e99a6ed5" xlink:title=" ">
<polygon fill="white" stroke="#666666" points="933,-401 752,-401 752,-371 933,-371 933,-401"/>
<text text-anchor="start" x="760" y="-389" font-family="Helvetica,sans-Serif" font-size="10.00">com.example.mybookshelf.</text>
<text text-anchor="middle" x="842.5" y="-378" font-family="Helvetica,sans-Serif" font-size="10.00">UIMaster.setupNavigationButtons</text>
</a>
</g>
</g>
<!-- Node7&#45;&gt;Node8 -->
<g id="edge76_Node000007_Node000008" class="edge">
<title>Node7&#45;&gt;Node8</title>
<g id="a_edge76_Node000007_Node000008"><a xlink:title=" ">
<path fill="none" stroke="#63b8ff" d="M678.32,-400.27C698.75,-398.49 720.64,-396.57 741.53,-394.74"/>
<polygon fill="#63b8ff" stroke="#63b8ff" points="742.04,-398.21 751.7,-393.86 741.43,-391.24 742.04,-398.21"/>
</a>
</g>
</g>
<!-- Node8&#45;&gt;Node1 -->
<g id="edge83_Node000008_Node000001" class="edge">
<title>Node8&#45;&gt;Node1</title>
<g id="a_edge83_Node000008_Node000001"><a xlink:title=" ">
<path fill="none" stroke="#63b8ff" d="M810.12,-401.01C785.24,-412.05 749.24,-426.1 716,-432 604.85,-451.73 573.73,-448.17 462,-432 336.32,-413.81 302.51,-405.89 188,-351 156.63,-335.97 124.35,-312.51 102.75,-295.43"/>
<polygon fill="#63b8ff" stroke="#63b8ff" points="104.73,-292.53 94.74,-289 100.35,-297.99 104.73,-292.53"/>
</a>
</g>
</g>
<!-- Node8&#45;&gt;Node2 -->
<g id="edge84_Node000008_Node000002" class="edge">
<title>Node8&#45;&gt;Node2</title>
<g id="a_edge84_Node000008_Node000002"><a xlink:title=" ">
<path fill="none" stroke="#63b8ff" d="M751.76,-384.89C673.86,-381.96 558.7,-372.89 462,-346 418.84,-334 372.71,-310.92 342.32,-294.11"/>
<polygon fill="#63b8ff" stroke="#63b8ff" points="343.85,-290.95 333.41,-289.12 340.42,-297.06 343.85,-290.95"/>
</a>
</g>
</g>
<!-- Node9 -->
<g id="Node000009" class="node">
<title>Node9</title>
<g id="a_Node000009"><a xlink:href="$classcom_1_1example_1_1mybookshelf_1_1UIMaster.html#a4636b546c38ace5aedccfd989edc0bb1" xlink:title=" ">
<polygon fill="white" stroke="#666666" points="1121,-401 969,-401 969,-371 1121,-371 1121,-401"/>
<text text-anchor="start" x="977" y="-389" font-family="Helvetica,sans-Serif" font-size="10.00">com.example.mybookshelf.</text>
<text text-anchor="middle" x="1045" y="-378" font-family="Helvetica,sans-Serif" font-size="10.00">UIMaster.handleListSearch</text>
</a>
</g>
</g>
<!-- Node8&#45;&gt;Node9 -->
<g id="edge77_Node000008_Node000009" class="edge">
<title>Node8&#45;&gt;Node9</title>
<g id="a_edge77_Node000008_Node000009"><a xlink:title=" ">
<path fill="none" stroke="#63b8ff" d="M933.19,-386C941.64,-386 950.2,-386 958.61,-386"/>
<polygon fill="#63b8ff" stroke="#63b8ff" points="958.78,-389.5 968.78,-386 958.78,-382.5 958.78,-389.5"/>
</a>
</g>
</g>
<!-- Node8&#45;&gt;Node15 -->
<g id="edge85_Node000008_Node000015" class="edge">
<title>Node8&#45;&gt;Node15</title>
<g id="a_edge85_Node000008_Node000015"><a xlink:title=" ">
<path fill="none" stroke="#63b8ff" d="M853.72,-370.76C886.37,-322.08 988.33,-170.02 1027.99,-110.87"/>
<polygon fill="#63b8ff" stroke="#63b8ff" points="1031.14,-112.46 1033.8,-102.21 1025.33,-108.56 1031.14,-112.46"/>
</a>
</g>
</g>
<!-- Node10 -->
<g id="Node000010" class="node">
<title>Node10</title>
<g id="a_Node000010"><a xlink:href="$classcom_1_1example_1_1mybookshelf_1_1UIMaster.html#a3e552449814fd4b18a4070128261c571" xlink:title=" ">
<polygon fill="white" stroke="#666666" points="1327,-377 1175,-377 1175,-347 1327,-347 1327,-377"/>
<text text-anchor="start" x="1183" y="-365" font-family="Helvetica,sans-Serif" font-size="10.00">com.example.mybookshelf.</text>
<text text-anchor="middle" x="1251" y="-354" font-family="Helvetica,sans-Serif" font-size="10.00">UIMaster.fillSpinners</text>
</a>
</g>
</g>
<!-- Node9&#45;&gt;Node10 -->
<g id="edge78_Node000009_Node000010" class="edge">
<title>Node9&#45;&gt;Node10</title>
<g id="a_edge78_Node000009_Node000010"><a xlink:title=" ">
<path fill="none" stroke="#63b8ff" d="M1121.09,-377.17C1135.31,-375.49 1150.27,-373.73 1164.78,-372.03"/>
<polygon fill="#63b8ff" stroke="#63b8ff" points="1165.2,-375.5 1174.72,-370.86 1164.38,-368.55 1165.2,-375.5"/>
</a>
</g>
</g>
<!-- Node11 -->
<g id="Node000011" class="node">
<title>Node11</title>
<g id="a_Node000011"><a xlink:href="$classcom_1_1example_1_1mybookshelf_1_1UIMaster.html#a39a8f40aa163994c415f165d94ee47fd" xlink:title=" ">
<polygon fill="white" stroke="#666666" points="1327,-425 1175,-425 1175,-395 1327,-395 1327,-425"/>
<text text-anchor="start" x="1183" y="-413" font-family="Helvetica,sans-Serif" font-size="10.00">com.example.mybookshelf.</text>
<text text-anchor="middle" x="1251" y="-402" font-family="Helvetica,sans-Serif" font-size="10.00">UIMaster.filterBooks</text>
</a>
</g>
</g>
<!-- Node9&#45;&gt;Node11 -->
<g id="edge79_Node000009_Node000011" class="edge">
<title>Node9&#45;&gt;Node11</title>
<g id="a_edge79_Node000009_Node000011"><a xlink:title=" ">
<path fill="none" stroke="#63b8ff" d="M1121.09,-394.83C1135.31,-396.51 1150.27,-398.27 1164.78,-399.97"/>
<polygon fill="#63b8ff" stroke="#63b8ff" points="1164.38,-403.45 1174.72,-401.14 1165.2,-396.5 1164.38,-403.45"/>
</a>
</g>
</g>
<!-- Node12 -->
<g id="Node000012" class="node">
<title>Node12</title>
<g id="a_Node000012"><a xlink:href="$classcom_1_1example_1_1mybookshelf_1_1dataClass_1_1Book.html#a72061c36f82e9d925effeb02dc0da55d" xlink:title=" ">
<polygon fill="white" stroke="#666666" points="1555,-377 1381,-377 1381,-347 1555,-347 1555,-377"/>
<text text-anchor="start" x="1389" y="-365" font-family="Helvetica,sans-Serif" font-size="10.00">com.example.mybookshelf.data</text>
<text text-anchor="middle" x="1468" y="-354" font-family="Helvetica,sans-Serif" font-size="10.00">Class.Book.getAuthor</text>
</a>
</g>
</g>
<!-- Node11&#45;&gt;Node12 -->
<g id="edge80_Node000011_Node000012" class="edge">
<title>Node11&#45;&gt;Node12</title>
<g id="a_edge80_Node000011_Node000012"><a xlink:title=" ">
<path fill="none" stroke="#63b8ff" d="M1319.44,-394.94C1341.75,-389.96 1366.75,-384.38 1389.74,-379.25"/>
<polygon fill="#63b8ff" stroke="#63b8ff" points="1390.8,-382.6 1399.8,-377 1389.28,-375.77 1390.8,-382.6"/>
</a>
</g>
</g>
<!-- Node13 -->
<g id="Node000013" class="node">
<title>Node13</title>
<g id="a_Node000013"><a xlink:href="$classcom_1_1example_1_1mybookshelf_1_1dataClass_1_1Book.html#ab78862de4a0e97e9190086f397a88fd4" xlink:title=" ">
<polygon fill="white" stroke="#666666" points="1555,-473 1381,-473 1381,-443 1555,-443 1555,-473"/>
<text text-anchor="start" x="1389" y="-461" font-family="Helvetica,sans-Serif" font-size="10.00">com.example.mybookshelf.data</text>
<text text-anchor="middle" x="1468" y="-450" font-family="Helvetica,sans-Serif" font-size="10.00">Class.Book.getGenre</text>
</a>
</g>
</g>
<!-- Node11&#45;&gt;Node13 -->
<g id="edge81_Node000011_Node000013" class="edge">
<title>Node11&#45;&gt;Node13</title>
<g id="a_edge81_Node000011_Node000013"><a xlink:title=" ">
<path fill="none" stroke="#63b8ff" d="M1319.44,-425.06C1341.75,-430.04 1366.75,-435.62 1389.74,-440.75"/>
<polygon fill="#63b8ff" stroke="#63b8ff" points="1389.28,-444.23 1399.8,-443 1390.8,-437.4 1389.28,-444.23"/>
</a>
</g>
</g>
<!-- Node14 -->
<g id="Node000014" class="node">
<title>Node14</title>
<g id="a_Node000014"><a xlink:href="$classcom_1_1example_1_1mybookshelf_1_1dataClass_1_1Book.html#a4109da1bdee13601576c6725d6e89e71" xlink:title=" ">
<polygon fill="white" stroke="#666666" points="1555,-425 1381,-425 1381,-395 1555,-395 1555,-425"/>
<text text-anchor="start" x="1389" y="-413" font-family="Helvetica,sans-Serif" font-size="10.00">com.example.mybookshelf.data</text>
<text text-anchor="middle" x="1468" y="-402" font-family="Helvetica,sans-Serif" font-size="10.00">Class.Book.getName</text>
</a>
</g>
</g>
<!-- Node11&#45;&gt;Node14 -->
<g id="edge82_Node000011_Node000014" class="edge">
<title>Node11&#45;&gt;Node14</title>
<g id="a_edge82_Node000011_Node000014"><a xlink:title=" ">
<path fill="none" stroke="#63b8ff" d="M1327.2,-410C1341.27,-410 1356.15,-410 1370.75,-410"/>
<polygon fill="#63b8ff" stroke="#63b8ff" points="1370.8,-413.5 1380.8,-410 1370.8,-406.5 1370.8,-413.5"/>
</a>
</g>
</g>
<!-- Node16 -->
<g id="Node000016" class="node">
<title>Node16</title>
<g id="a_Node000016"><a xlink:href="$classcom_1_1example_1_1mybookshelf_1_1UIMaster.html#aeadc13ea946b279afce35c39bb36f3b6" xlink:title=" ">
<polygon fill="white" stroke="#666666" points="1327,-54 1175,-54 1175,-24 1327,-24 1327,-54"/>
<text text-anchor="start" x="1183" y="-42" font-family="Helvetica,sans-Serif" font-size="10.00">com.example.mybookshelf.</text>
<text text-anchor="middle" x="1251" y="-31" font-family="Helvetica,sans-Serif" font-size="10.00">UIMaster.initializeViews</text>
</a>
</g>
</g>
<!-- Node15&#45;&gt;Node16 -->
<g id="edge86_Node000015_Node000016" class="edge">
<title>Node15&#45;&gt;Node16</title>
<g id="a_edge86_Node000015_Node000016"><a xlink:title=" ">
<path fill="none" stroke="#63b8ff" d="M1109.99,-71.94C1131.06,-66.99 1154.67,-61.43 1176.4,-56.32"/>
<polygon fill="#63b8ff" stroke="#63b8ff" points="1177.31,-59.7 1186.24,-54 1175.7,-52.89 1177.31,-59.7"/>
</a>
</g>
</g>
<!-- Node17 -->
<g id="Node000017" class="node">
<title>Node17</title>
<g id="a_Node000017"><a xlink:href="$classcom_1_1example_1_1mybookshelf_1_1UIMaster.html#a5c502183bab9192d9f38b42a28be7164" xlink:title=" ">
<polygon fill="white" stroke="#666666" points="1332.5,-150 1169.5,-150 1169.5,-120 1332.5,-120 1332.5,-150"/>
<text text-anchor="start" x="1177.5" y="-138" font-family="Helvetica,sans-Serif" font-size="10.00">com.example.mybookshelf.</text>
<text text-anchor="middle" x="1251" y="-127" font-family="Helvetica,sans-Serif" font-size="10.00">UIMaster.loadChartDataAsync</text>
</a>
</g>
</g>
<!-- Node15&#45;&gt;Node17 -->
<g id="edge87_Node000015_Node000017" class="edge">
<title>Node15&#45;&gt;Node17</title>
<g id="a_edge87_Node000015_Node000017"><a xlink:title=" ">
<path fill="none" stroke="#63b8ff" d="M1109.99,-102.06C1131.06,-107.01 1154.67,-112.57 1176.4,-117.68"/>
<polygon fill="#63b8ff" stroke="#63b8ff" points="1175.7,-121.11 1186.24,-120 1177.31,-114.3 1175.7,-121.11"/>
</a>
</g>
</g>
<!-- Node25 -->
<g id="Node000025" class="node">
<title>Node25</title>
<g id="a_Node000025"><a xlink:href="$classcom_1_1example_1_1mybookshelf_1_1UIMaster.html#a3bb75047e98f0333fa2fdfd173bc80b0" xlink:title=" ">
<polygon fill="white" stroke="#666666" points="1345,-102 1157,-102 1157,-72 1345,-72 1345,-102"/>
<text text-anchor="start" x="1165" y="-90" font-family="Helvetica,sans-Serif" font-size="10.00">com.example.mybookshelf.</text>
<text text-anchor="middle" x="1251" y="-79" font-family="Helvetica,sans-Serif" font-size="10.00">UIMaster.setupNavigationListeners</text>
</a>
</g>
</g>
<!-- Node15&#45;&gt;Node25 -->
<g id="edge95_Node000015_Node000025" class="edge">
<title>Node15&#45;&gt;Node25</title>
<g id="a_edge95_Node000015_Node000025"><a xlink:title=" ">
<path fill="none" stroke="#63b8ff" d="M1121.09,-87C1129.42,-87 1138.01,-87 1146.61,-87"/>
<polygon fill="#63b8ff" stroke="#63b8ff" points="1146.7,-90.5 1156.7,-87 1146.7,-83.5 1146.7,-90.5"/>
</a>
</g>
</g>
<!-- Node18 -->
<g id="Node000018" class="node">
<title>Node18</title>
<g id="a_Node000018"><a xlink:href="$classcom_1_1example_1_1mybookshelf_1_1UIMaster.html#a1d0b44fba73323953ffbbf69f4f3f4cb" xlink:title=" ">
<polygon fill="white" stroke="#666666" points="1544,-126 1392,-126 1392,-96 1544,-96 1544,-126"/>
<text text-anchor="start" x="1400" y="-114" font-family="Helvetica,sans-Serif" font-size="10.00">com.example.mybookshelf.</text>
<text text-anchor="middle" x="1468" y="-103" font-family="Helvetica,sans-Serif" font-size="10.00">UIMaster.setupChart</text>
</a>
</g>
</g>
<!-- Node17&#45;&gt;Node18 -->
<g id="edge88_Node000017_Node000018" class="edge">
<title>Node17&#45;&gt;Node18</title>
<g id="a_edge88_Node000017_Node000018"><a xlink:title=" ">
<path fill="none" stroke="#63b8ff" d="M1332.67,-126C1348.75,-124.2 1365.69,-122.31 1381.92,-120.5"/>
<polygon fill="#63b8ff" stroke="#63b8ff" points="1382.37,-123.97 1391.92,-119.38 1381.59,-117.01 1382.37,-123.97"/>
</a>
</g>
</g>
<!-- Node24 -->
<g id="Node000024" class="node">
<title>Node24</title>
<g id="a_Node000024"><a xlink:href="$classcom_1_1example_1_1mybookshelf_1_1UIMaster.html#a3beb8f5e82c56206227f83e05d2e2dba" xlink:title=" ">
<polygon fill="white" stroke="#666666" points="1545.5,-174 1390.5,-174 1390.5,-144 1545.5,-144 1545.5,-174"/>
<text text-anchor="start" x="1398.5" y="-162" font-family="Helvetica,sans-Serif" font-size="10.00">com.example.mybookshelf.</text>
<text text-anchor="middle" x="1468" y="-151" font-family="Helvetica,sans-Serif" font-size="10.00">UIMaster.showErrorMessage</text>
</a>
</g>
</g>
<!-- Node17&#45;&gt;Node24 -->
<g id="edge94_Node000017_Node000024" class="edge">
<title>Node17&#45;&gt;Node24</title>
<g id="a_edge94_Node000017_Node000024"><a xlink:title=" ">
<path fill="none" stroke="#63b8ff" d="M1332.67,-144C1348.11,-145.73 1364.35,-147.54 1379.98,-149.29"/>
<polygon fill="#63b8ff" stroke="#63b8ff" points="1379.82,-152.79 1390.15,-150.42 1380.6,-145.83 1379.82,-152.79"/>
</a>
</g>
</g>
<!-- Node19 -->
<g id="Node000019" class="node">
<title>Node19</title>
<g id="a_Node000019"><a xlink:href="$classcom_1_1example_1_1mybookshelf_1_1UIMaster.html#a66cf6ce29c43e6db34be85ae9990c102" xlink:title=" ">
<polygon fill="white" stroke="#666666" points="1760,-222 1608,-222 1608,-192 1760,-192 1760,-222"/>
<text text-anchor="start" x="1616" y="-210" font-family="Helvetica,sans-Serif" font-size="10.00">com.example.mybookshelf.</text>
<text text-anchor="middle" x="1684" y="-199" font-family="Helvetica,sans-Serif" font-size="10.00">UIMaster.configureAxes</text>
</a>
</g>
</g>
<!-- Node18&#45;&gt;Node19 -->
<g id="edge89_Node000018_Node000019" class="edge">
<title>Node18&#45;&gt;Node19</title>
<g id="a_edge89_Node000018_Node000019"><a xlink:title=" ">
<path fill="none" stroke="#63b8ff" d="M1538.86,-126.14C1544.54,-128.66 1550.01,-131.59 1555,-135 1577.01,-150.05 1568.86,-168.14 1591,-183 1593.44,-184.64 1595.99,-186.17 1598.61,-187.59"/>
<polygon fill="#63b8ff" stroke="#63b8ff" points="1597.28,-190.83 1607.81,-192.04 1600.33,-184.53 1597.28,-190.83"/>
</a>
</g>
</g>
<!-- Node20 -->
<g id="Node000020" class="node">
<title>Node20</title>
<g id="a_Node000020"><a xlink:href="$classcom_1_1example_1_1mybookshelf_1_1UIMaster.html#ae589c66b6b1826db14cd0185e2453c12" xlink:title=" ">
<polygon fill="white" stroke="#666666" points="1760,-174 1608,-174 1608,-144 1760,-144 1760,-174"/>
<text text-anchor="start" x="1616" y="-162" font-family="Helvetica,sans-Serif" font-size="10.00">com.example.mybookshelf.</text>
<text text-anchor="middle" x="1684" y="-151" font-family="Helvetica,sans-Serif" font-size="10.00">UIMaster.configureChart</text>
</a>
</g>
</g>
<!-- Node18&#45;&gt;Node20 -->
<g id="edge90_Node000018_Node000020" class="edge">
<title>Node18&#45;&gt;Node20</title>
<g id="a_edge90_Node000018_Node000020"><a xlink:title=" ">
<path fill="none" stroke="#63b8ff" d="M1536.12,-126.06C1558.33,-131.04 1583.22,-136.62 1606.1,-141.75"/>
<polygon fill="#63b8ff" stroke="#63b8ff" points="1605.59,-145.22 1616.11,-144 1607.12,-138.39 1605.59,-145.22"/>
</a>
</g>
</g>
<!-- Node21 -->
<g id="Node000021" class="node">
<title>Node21</title>
<g id="a_Node000021"><a xlink:href="$classcom_1_1example_1_1mybookshelf_1_1UIMaster.html#a2f446043c1019868262b5e49ddb58609" xlink:title=" ">
<polygon fill="white" stroke="#666666" points="1773,-126 1595,-126 1595,-96 1773,-96 1773,-126"/>
<text text-anchor="start" x="1603" y="-114" font-family="Helvetica,sans-Serif" font-size="10.00">com.example.mybookshelf.</text>
<text text-anchor="middle" x="1684" y="-103" font-family="Helvetica,sans-Serif" font-size="10.00">UIMaster.convertMinutesToHours</text>
</a>
</g>
</g>
<!-- Node18&#45;&gt;Node21 -->
<g id="edge91_Node000018_Node000021" class="edge">
<title>Node18&#45;&gt;Node21</title>
<g id="a_edge91_Node000018_Node000021"><a xlink:title=" ">
<path fill="none" stroke="#63b8ff" d="M1544.15,-111C1557.2,-111 1570.95,-111 1584.51,-111"/>
<polygon fill="#63b8ff" stroke="#63b8ff" points="1584.83,-114.5 1594.83,-111 1584.83,-107.5 1584.83,-114.5"/>
</a>
</g>
</g>
<!-- Node22 -->
<g id="Node000022" class="node">
<title>Node22</title>
<g id="a_Node000022"><a xlink:href="$classcom_1_1example_1_1mybookshelf_1_1UIMaster.html#a5368b8b93b9216d91a256a2302ea04c8" xlink:title=" ">
<polygon fill="white" stroke="#666666" points="1777,-78 1591,-78 1591,-48 1777,-48 1777,-78"/>
<text text-anchor="start" x="1599" y="-66" font-family="Helvetica,sans-Serif" font-size="10.00">com.example.mybookshelf.</text>
<text text-anchor="middle" x="1684" y="-55" font-family="Helvetica,sans-Serif" font-size="10.00">UIMaster.displayTotalReadingTime</text>
</a>
</g>
</g>
<!-- Node18&#45;&gt;Node22 -->
<g id="edge92_Node000018_Node000022" class="edge">
<title>Node18&#45;&gt;Node22</title>
<g id="a_edge92_Node000018_Node000022"><a xlink:title=" ">
<path fill="none" stroke="#63b8ff" d="M1536.12,-95.94C1558.33,-90.96 1583.22,-85.38 1606.1,-80.25"/>
<polygon fill="#63b8ff" stroke="#63b8ff" points="1607.12,-83.61 1616.11,-78 1605.59,-76.78 1607.12,-83.61"/>
</a>
</g>
</g>
<!-- Node23 -->
<g id="Node000023" class="node">
<title>Node23</title>
<g id="a_Node000023"><a xlink:href="$classcom_1_1example_1_1mybookshelf_1_1UIMaster.html#a897a27ba41fe604acf9472257ad18685" xlink:title=" ">
<polygon fill="white" stroke="#666666" points="1760,-30 1608,-30 1608,0 1760,0 1760,-30"/>
<text text-anchor="start" x="1616" y="-18" font-family="Helvetica,sans-Serif" font-size="10.00">com.example.mybookshelf.</text>
<text text-anchor="middle" x="1684" y="-7" font-family="Helvetica,sans-Serif" font-size="10.00">UIMaster.filterValidEntries</text>
</a>
</g>
</g>
<!-- Node18&#45;&gt;Node23 -->
<g id="edge93_Node000018_Node000023" class="edge">
<title>Node18&#45;&gt;Node23</title>
<g id="a_edge93_Node000018_Node000023"><a xlink:title=" ">
<path fill="none" stroke="#63b8ff" d="M1490.52,-95.79C1514.16,-79.68 1553.76,-54.49 1591,-39 1596.05,-36.9 1601.33,-34.94 1606.7,-33.12"/>
<polygon fill="#63b8ff" stroke="#63b8ff" points="1607.98,-36.39 1616.43,-30 1605.84,-29.72 1607.98,-36.39"/>
</a>
</g>
</g>
<!-- Node27 -->
<g id="Node000027" class="node">
<title>Node27</title>
<g id="a_Node000027"><a xlink:href="$classcom_1_1example_1_1mybookshelf_1_1UIMaster.html#a5f5bae724e7f3d3de15486430b3bc8c1" xlink:title=" ">
<polygon fill="white" stroke="#666666" points="918.5,-145 766.5,-145 766.5,-115 918.5,-115 918.5,-145"/>
<text text-anchor="start" x="774.5" y="-133" font-family="Helvetica,sans-Serif" font-size="10.00">com.example.mybookshelf.</text>
<text text-anchor="middle" x="842.5" y="-122" font-family="Helvetica,sans-Serif" font-size="10.00">UIMaster.showRegister</text>
</a>
</g>
</g>
<!-- Node26&#45;&gt;Node27 -->
<g id="edge98_Node000026_Node000027" class="edge">
<title>Node26&#45;&gt;Node27</title>
<g id="a_edge98_Node000026_Node000027"><a xlink:title=" ">
<path fill="none" stroke="#63b8ff" d="M665.12,-123.76C693.73,-123.15 726.55,-123.09 756.05,-123.57"/>
<polygon fill="#63b8ff" stroke="#63b8ff" points="756.27,-127.07 766.34,-123.76 756.4,-120.07 756.27,-127.07"/>
</a>
</g>
</g>
<!-- Node27&#45;&gt;Node26 -->
<g id="edge99_Node000027_Node000026" class="edge">
<title>Node27&#45;&gt;Node26</title>
<g id="a_edge99_Node000027_Node000026"><a xlink:title=" ">
<path fill="none" stroke="#63b8ff" d="M766.34,-136.24C737.72,-136.85 704.9,-136.91 675.4,-136.43"/>
<polygon fill="#63b8ff" stroke="#63b8ff" points="675.18,-132.93 665.12,-136.24 675.05,-139.93 675.18,-132.93"/>
</a>
</g>
</g>
</g>
</svg>
