<?xml version="1.0" encoding="UTF-8" standalone="no"?>
<!DOCTYPE svg PUBLIC "-//W3C//DTD SVG 1.1//EN"
 "http://www.w3.org/Graphics/SVG/1.1/DTD/svg11.dtd">
<!-- Generated by graphviz version 2.43.0 (0)
 -->
<!-- Title: com.example.mybookshelf.dataClass.Book.getName Pages: 1 -->
<svg width="1866pt" height="462pt"
 viewBox="0.00 0.00 1866.00 462.00" xmlns="http://www.w3.org/2000/svg" xmlns:xlink="http://www.w3.org/1999/xlink">
<g id="graph0" class="graph" transform="scale(1 1) rotate(0) translate(4 458)">
<title>com.example.mybookshelf.dataClass.Book.getName</title>
<!-- Node1 -->
<g id="Node000001" class="node">
<title>Node1</title>
<g id="a_Node000001"><a xlink:title=" ">
<polygon fill="#999999" stroke="#666666" points="1858,-246 1684,-246 1684,-216 1858,-216 1858,-246"/>
<text text-anchor="start" x="1692" y="-234" font-family="Helvetica,sans-Serif" font-size="10.00">com.example.mybookshelf.data</text>
<text text-anchor="middle" x="1771" y="-223" font-family="Helvetica,sans-Serif" font-size="10.00">Class.Book.getName</text>
</a>
</g>
</g>
<!-- Node2 -->
<g id="Node000002" class="node">
<title>Node2</title>
<g id="a_Node000002"><a xlink:href="$classcom_1_1example_1_1mybookshelf_1_1dataClass_1_1User.html#aade37d8176c8c756543ce0de90e91e80" xlink:title=" ">
<polygon fill="white" stroke="#666666" points="1626.5,-454 1452.5,-454 1452.5,-424 1626.5,-424 1626.5,-454"/>
<text text-anchor="start" x="1460.5" y="-442" font-family="Helvetica,sans-Serif" font-size="10.00">com.example.mybookshelf.data</text>
<text text-anchor="middle" x="1539.5" y="-431" font-family="Helvetica,sans-Serif" font-size="10.00">Class.User.addBook</text>
</a>
</g>
</g>
<!-- Node1&#45;&gt;Node2 -->
<g id="edge49_Node000001_Node000002" class="edge">
<title>Node1&#45;&gt;Node2</title>
<g id="a_edge49_Node000001_Node000002"><a xlink:title=" ">
<path fill="none" stroke="#63b8ff" d="M1760.75,-255.8C1744.45,-295.92 1706.68,-374.64 1648,-415 1641.46,-419.5 1634.22,-423.17 1626.67,-426.16"/>
<polygon fill="#63b8ff" stroke="#63b8ff" points="1764.11,-256.84 1764.52,-246.25 1757.59,-254.27 1764.11,-256.84"/>
</a>
</g>
</g>
<!-- Node3 -->
<g id="Node000003" class="node">
<title>Node3</title>
<g id="a_Node000003"><a xlink:href="$classcom_1_1example_1_1mybookshelf_1_1LayoutManager_1_1CostumeListAdapter.html#aecf267c9d5fc023c90187a13bc4ebe2e" xlink:title=" ">
<polygon fill="white" stroke="#666666" points="1648,-405.5 1431,-405.5 1431,-364.5 1648,-364.5 1648,-405.5"/>
<text text-anchor="start" x="1439" y="-393.5" font-family="Helvetica,sans-Serif" font-size="10.00">com.example.mybookshelf.</text>
<text text-anchor="start" x="1439" y="-382.5" font-family="Helvetica,sans-Serif" font-size="10.00">LayoutManager.CostumeListAdapter.bind</text>
<text text-anchor="middle" x="1539.5" y="-371.5" font-family="Helvetica,sans-Serif" font-size="10.00">BookData</text>
</a>
</g>
</g>
<!-- Node1&#45;&gt;Node3 -->
<g id="edge50_Node000001_Node000003" class="edge">
<title>Node1&#45;&gt;Node3</title>
<g id="a_edge50_Node000001_Node000003"><a xlink:title=" ">
<path fill="none" stroke="#63b8ff" d="M1752.03,-254.05C1730.13,-280.69 1690.72,-324.17 1648,-350 1638.76,-355.59 1628.53,-360.39 1618.16,-364.48"/>
<polygon fill="#63b8ff" stroke="#63b8ff" points="1754.94,-256.01 1758.51,-246.04 1749.5,-251.61 1754.94,-256.01"/>
</a>
</g>
</g>
<!-- Node5 -->
<g id="Node000005" class="node">
<title>Node5</title>
<g id="a_Node000005"><a xlink:href="$classcom_1_1example_1_1mybookshelf_1_1UIMaster.html#a1533d0ed2384f2ec729cfcec7bd9a25f" xlink:title=" ">
<polygon fill="white" stroke="#666666" points="152,-313 0,-313 0,-283 152,-283 152,-313"/>
<text text-anchor="start" x="8" y="-301" font-family="Helvetica,sans-Serif" font-size="10.00">com.example.mybookshelf.</text>
<text text-anchor="middle" x="76" y="-290" font-family="Helvetica,sans-Serif" font-size="10.00">UIMaster.createBookBox</text>
</a>
</g>
</g>
<!-- Node1&#45;&gt;Node5 -->
<g id="edge52_Node000001_Node000005" class="edge">
<title>Node1&#45;&gt;Node5</title>
<g id="a_edge52_Node000001_Node000005"><a xlink:title=" ">
<path fill="none" stroke="#63b8ff" d="M1743.4,-252.13C1719.8,-269.59 1683.65,-293.34 1648,-305 1497.05,-354.36 1450.82,-336 1292,-336 1292,-336 1292,-336 453,-336 348.19,-336 227.77,-321.2 152.04,-310.08"/>
<polygon fill="#63b8ff" stroke="#63b8ff" points="1745.63,-254.83 1751.5,-246.01 1741.41,-249.24 1745.63,-254.83"/>
</a>
</g>
</g>
<!-- Node6 -->
<g id="Node000006" class="node">
<title>Node6</title>
<g id="a_Node000006"><a xlink:href="$classcom_1_1example_1_1mybookshelf_1_1UIMaster.html#a39a8f40aa163994c415f165d94ee47fd" xlink:title=" ">
<polygon fill="white" stroke="#666666" points="1615.5,-270 1463.5,-270 1463.5,-240 1615.5,-240 1615.5,-270"/>
<text text-anchor="start" x="1471.5" y="-258" font-family="Helvetica,sans-Serif" font-size="10.00">com.example.mybookshelf.</text>
<text text-anchor="middle" x="1539.5" y="-247" font-family="Helvetica,sans-Serif" font-size="10.00">UIMaster.filterBooks</text>
</a>
</g>
</g>
<!-- Node1&#45;&gt;Node6 -->
<g id="edge53_Node000001_Node000006" class="edge">
<title>Node1&#45;&gt;Node6</title>
<g id="a_edge53_Node000001_Node000006"><a xlink:title=" ">
<path fill="none" stroke="#63b8ff" d="M1673.83,-241.06C1654.44,-243.08 1634.33,-245.19 1615.79,-247.13"/>
<polygon fill="#63b8ff" stroke="#63b8ff" points="1674.31,-244.53 1683.89,-240 1673.58,-237.56 1674.31,-244.53"/>
</a>
</g>
</g>
<!-- Node10 -->
<g id="Node000010" class="node">
<title>Node10</title>
<g id="a_Node000010"><a xlink:href="$classcom_1_1example_1_1mybookshelf_1_1UIMaster.html#ac2a608fcf86d3dbe14b4684dbbaf1431" xlink:title=" ">
<polygon fill="white" stroke="#666666" points="340,-275 188,-275 188,-245 340,-245 340,-275"/>
<text text-anchor="start" x="196" y="-263" font-family="Helvetica,sans-Serif" font-size="10.00">com.example.mybookshelf.</text>
<text text-anchor="middle" x="264" y="-252" font-family="Helvetica,sans-Serif" font-size="10.00">UIMaster.navigateToDetails</text>
</a>
</g>
</g>
<!-- Node1&#45;&gt;Node10 -->
<g id="edge70_Node000001_Node000010" class="edge">
<title>Node1&#45;&gt;Node10</title>
<g id="a_edge70_Node000001_Node000010"><a xlink:title=" ">
<path fill="none" stroke="#63b8ff" d="M1730.53,-250.28C1707.12,-260.75 1676.54,-272.8 1648,-279 1493.17,-312.66 1450.45,-298 1292,-298 1292,-298 1292,-298 643,-298 537.47,-298 416.2,-283.16 340.08,-272.02"/>
<polygon fill="#63b8ff" stroke="#63b8ff" points="1732.13,-253.4 1739.77,-246.06 1729.22,-247.03 1732.13,-253.4"/>
</a>
</g>
</g>
<!-- Node13 -->
<g id="Node000013" class="node">
<title>Node13</title>
<g id="a_Node000013"><a xlink:href="$classcom_1_1example_1_1mybookshelf_1_1GoalHandler.html#ac10bf110d981c8788e0e4b9b2e25177e" xlink:title=" ">
<polygon fill="white" stroke="#666666" points="1623.5,-222 1455.5,-222 1455.5,-192 1623.5,-192 1623.5,-222"/>
<text text-anchor="start" x="1463.5" y="-210" font-family="Helvetica,sans-Serif" font-size="10.00">com.example.mybookshelf.</text>
<text text-anchor="middle" x="1539.5" y="-199" font-family="Helvetica,sans-Serif" font-size="10.00">GoalHandler.handleBookAdded</text>
</a>
</g>
</g>
<!-- Node1&#45;&gt;Node13 -->
<g id="edge67_Node000001_Node000013" class="edge">
<title>Node1&#45;&gt;Node13</title>
<g id="a_edge67_Node000001_Node000013"><a xlink:title=" ">
<path fill="none" stroke="#63b8ff" d="M1673.63,-220.92C1657.02,-219.19 1639.89,-217.39 1623.67,-215.7"/>
<polygon fill="#63b8ff" stroke="#63b8ff" points="1673.58,-224.44 1683.89,-222 1674.31,-217.47 1673.58,-224.44"/>
</a>
</g>
</g>
<!-- Node14 -->
<g id="Node000014" class="node">
<title>Node14</title>
<g id="a_Node000014"><a xlink:href="$classcom_1_1example_1_1mybookshelf_1_1GoalHandler.html#a5ddb8c71cb9828e9525f4bafefaf685f" xlink:title=" ">
<polygon fill="white" stroke="#666666" points="1626.5,-174 1452.5,-174 1452.5,-144 1626.5,-144 1626.5,-174"/>
<text text-anchor="start" x="1460.5" y="-162" font-family="Helvetica,sans-Serif" font-size="10.00">com.example.mybookshelf.</text>
<text text-anchor="middle" x="1539.5" y="-151" font-family="Helvetica,sans-Serif" font-size="10.00">GoalHandler.handleBookChange</text>
</a>
</g>
</g>
<!-- Node1&#45;&gt;Node14 -->
<g id="edge68_Node000001_Node000014" class="edge">
<title>Node1&#45;&gt;Node14</title>
<g id="a_edge68_Node000001_Node000014"><a xlink:title=" ">
<path fill="none" stroke="#63b8ff" d="M1726.33,-211.91C1703.32,-202.35 1674.47,-191.11 1648,-183 1637.4,-179.75 1626.08,-176.74 1614.91,-174.03"/>
<polygon fill="#63b8ff" stroke="#63b8ff" points="1725.22,-215.24 1735.8,-215.89 1727.94,-208.79 1725.22,-215.24"/>
</a>
</g>
</g>
<!-- Node15 -->
<g id="Node000015" class="node">
<title>Node15</title>
<g id="a_Node000015"><a xlink:href="$classcom_1_1example_1_1mybookshelf_1_1GoalHandler.html#a326d9e94cb83508cae6d760df1bd5718" xlink:title=" ">
<polygon fill="white" stroke="#666666" points="1631.5,-126 1447.5,-126 1447.5,-96 1631.5,-96 1631.5,-126"/>
<text text-anchor="start" x="1455.5" y="-114" font-family="Helvetica,sans-Serif" font-size="10.00">com.example.mybookshelf.</text>
<text text-anchor="middle" x="1539.5" y="-103" font-family="Helvetica,sans-Serif" font-size="10.00">GoalHandler.handleBookRemoved</text>
</a>
</g>
</g>
<!-- Node1&#45;&gt;Node15 -->
<g id="edge69_Node000001_Node000015" class="edge">
<title>Node1&#45;&gt;Node15</title>
<g id="a_edge69_Node000001_Node000015"><a xlink:title=" ">
<path fill="none" stroke="#63b8ff" d="M1748.19,-208.76C1725.26,-186.71 1687.16,-153.59 1648,-135 1640.74,-131.56 1632.98,-128.6 1625.06,-126.05"/>
<polygon fill="#63b8ff" stroke="#63b8ff" points="1745.76,-211.29 1755.36,-215.78 1750.66,-206.29 1745.76,-211.29"/>
</a>
</g>
</g>
<!-- Node16 -->
<g id="Node000016" class="node">
<title>Node16</title>
<g id="a_Node000016"><a xlink:href="$classcom_1_1example_1_1mybookshelf_1_1dataClass_1_1User.html#afb442e89bbb66fadad2986d9229014b0" xlink:title=" ">
<polygon fill="white" stroke="#666666" points="1626.5,-78 1452.5,-78 1452.5,-48 1626.5,-48 1626.5,-78"/>
<text text-anchor="start" x="1460.5" y="-66" font-family="Helvetica,sans-Serif" font-size="10.00">com.example.mybookshelf.data</text>
<text text-anchor="middle" x="1539.5" y="-55" font-family="Helvetica,sans-Serif" font-size="10.00">Class.User.removeBook</text>
</a>
</g>
</g>
<!-- Node1&#45;&gt;Node16 -->
<g id="edge71_Node000001_Node000016" class="edge">
<title>Node1&#45;&gt;Node16</title>
<g id="a_edge71_Node000001_Node000016"><a xlink:title=" ">
<path fill="none" stroke="#63b8ff" d="M1756.65,-207.16C1737.17,-174.67 1697.77,-117.09 1648,-87 1641.37,-82.99 1634.15,-79.65 1626.69,-76.87"/>
<polygon fill="#63b8ff" stroke="#63b8ff" points="1753.76,-209.14 1761.83,-216 1759.8,-205.6 1753.76,-209.14"/>
</a>
</g>
</g>
<!-- Node17 -->
<g id="Node000017" class="node">
<title>Node17</title>
<g id="a_Node000017"><a xlink:href="$classcom_1_1example_1_1mybookshelf_1_1MainActivity.html#ab1625f7432f6fcc4f53a63d3b893065f" xlink:title=" ">
<polygon fill="white" stroke="#666666" points="1615.5,-30 1463.5,-30 1463.5,0 1615.5,0 1615.5,-30"/>
<text text-anchor="start" x="1471.5" y="-18" font-family="Helvetica,sans-Serif" font-size="10.00">com.example.mybookshelf.</text>
<text text-anchor="middle" x="1539.5" y="-7" font-family="Helvetica,sans-Serif" font-size="10.00">MainActivity.saveBook</text>
</a>
</g>
</g>
<!-- Node1&#45;&gt;Node17 -->
<g id="edge72_Node000001_Node000017" class="edge">
<title>Node1&#45;&gt;Node17</title>
<g id="a_edge72_Node000001_Node000017"><a xlink:title=" ">
<path fill="none" stroke="#63b8ff" d="M1761.51,-206.32C1745.92,-164.86 1708.63,-81.58 1648,-39 1638.38,-32.24 1627.17,-27.35 1615.7,-23.81"/>
<polygon fill="#63b8ff" stroke="#63b8ff" points="1758.3,-207.72 1765.01,-215.91 1764.87,-205.32 1758.3,-207.72"/>
</a>
</g>
</g>
<!-- Node4 -->
<g id="Node000004" class="node">
<title>Node4</title>
<g id="a_Node000004"><a xlink:href="$classcom_1_1example_1_1mybookshelf_1_1LayoutManager_1_1CostumeListAdapter.html#a6195566266811486050ad2962a7a161f" xlink:title=" ">
<polygon fill="white" stroke="#666666" points="1395,-405.5 1187,-405.5 1187,-364.5 1395,-364.5 1395,-405.5"/>
<text text-anchor="start" x="1195" y="-393.5" font-family="Helvetica,sans-Serif" font-size="10.00">com.example.mybookshelf.</text>
<text text-anchor="start" x="1195" y="-382.5" font-family="Helvetica,sans-Serif" font-size="10.00">LayoutManager.CostumeListAdapter.on</text>
<text text-anchor="middle" x="1291" y="-371.5" font-family="Helvetica,sans-Serif" font-size="10.00">BindViewHolder</text>
</a>
</g>
</g>
<!-- Node3&#45;&gt;Node4 -->
<g id="edge51_Node000003_Node000004" class="edge">
<title>Node3&#45;&gt;Node4</title>
<g id="a_edge51_Node000003_Node000004"><a xlink:title=" ">
<path fill="none" stroke="#63b8ff" d="M1420.48,-385C1412.05,-385 1403.58,-385 1395.24,-385"/>
<polygon fill="#63b8ff" stroke="#63b8ff" points="1420.74,-388.5 1430.74,-385 1420.74,-381.5 1420.74,-388.5"/>
</a>
</g>
</g>
<!-- Node7 -->
<g id="Node000007" class="node">
<title>Node7</title>
<g id="a_Node000007"><a xlink:href="$classcom_1_1example_1_1mybookshelf_1_1UIMaster.html#a4636b546c38ace5aedccfd989edc0bb1" xlink:title=" ">
<polygon fill="white" stroke="#666666" points="1367,-260 1215,-260 1215,-230 1367,-230 1367,-260"/>
<text text-anchor="start" x="1223" y="-248" font-family="Helvetica,sans-Serif" font-size="10.00">com.example.mybookshelf.</text>
<text text-anchor="middle" x="1291" y="-237" font-family="Helvetica,sans-Serif" font-size="10.00">UIMaster.handleListSearch</text>
</a>
</g>
</g>
<!-- Node6&#45;&gt;Node7 -->
<g id="edge54_Node000006_Node000007" class="edge">
<title>Node6&#45;&gt;Node7</title>
<g id="a_edge54_Node000006_Node000007"><a xlink:title=" ">
<path fill="none" stroke="#63b8ff" d="M1453.06,-251.53C1425.15,-250.4 1394.37,-249.15 1367.26,-248.05"/>
<polygon fill="#63b8ff" stroke="#63b8ff" points="1453.07,-255.04 1463.2,-251.95 1453.35,-248.04 1453.07,-255.04"/>
</a>
</g>
</g>
<!-- Node8 -->
<g id="Node000008" class="node">
<title>Node8</title>
<g id="a_Node000008"><a xlink:href="$classcom_1_1example_1_1mybookshelf_1_1UIMaster.html#aa6aad8404432bdaf23db9b41e99a6ed5" xlink:title=" ">
<polygon fill="white" stroke="#666666" points="1151,-250 970,-250 970,-220 1151,-220 1151,-250"/>
<text text-anchor="start" x="978" y="-238" font-family="Helvetica,sans-Serif" font-size="10.00">com.example.mybookshelf.</text>
<text text-anchor="middle" x="1060.5" y="-227" font-family="Helvetica,sans-Serif" font-size="10.00">UIMaster.setupNavigationButtons</text>
</a>
</g>
</g>
<!-- Node7&#45;&gt;Node8 -->
<g id="edge55_Node000007_Node000008" class="edge">
<title>Node7&#45;&gt;Node8</title>
<g id="a_edge55_Node000007_Node000008"><a xlink:title=" ">
<path fill="none" stroke="#63b8ff" d="M1204.74,-241.27C1187.33,-240.51 1168.96,-239.7 1151.4,-238.93"/>
<polygon fill="#63b8ff" stroke="#63b8ff" points="1204.72,-244.77 1214.86,-241.71 1205.03,-237.78 1204.72,-244.77"/>
</a>
</g>
</g>
<!-- Node9 -->
<g id="Node000009" class="node">
<title>Node9</title>
<g id="a_Node000009"><a xlink:href="$classcom_1_1example_1_1mybookshelf_1_1UIMaster.html#ad609d5e0b54e87afcb60aed6c66a792e" xlink:title=" ">
<polygon fill="white" stroke="#666666" points="934,-230 756,-230 756,-200 934,-200 934,-230"/>
<text text-anchor="start" x="764" y="-218" font-family="Helvetica,sans-Serif" font-size="10.00">com.example.mybookshelf.</text>
<text text-anchor="middle" x="845" y="-207" font-family="Helvetica,sans-Serif" font-size="10.00">UIMaster.navigateToStartingPage</text>
</a>
</g>
</g>
<!-- Node8&#45;&gt;Node9 -->
<g id="edge56_Node000008_Node000009" class="edge">
<title>Node8&#45;&gt;Node9</title>
<g id="a_edge56_Node000008_Node000009"><a xlink:title=" ">
<path fill="none" stroke="#63b8ff" d="M959.82,-225.66C951.2,-224.86 942.53,-224.04 934.02,-223.25"/>
<polygon fill="#63b8ff" stroke="#63b8ff" points="959.6,-229.16 969.88,-226.61 960.25,-222.19 959.6,-229.16"/>
</a>
</g>
</g>
<!-- Node9&#45;&gt;Node10 -->
<g id="edge57_Node000009_Node000010" class="edge">
<title>Node9&#45;&gt;Node10</title>
<g id="a_edge57_Node000009_Node000010"><a xlink:title=" ">
<path fill="none" stroke="#63b8ff" d="M772.32,-232.13C755.26,-235.62 737.06,-238.87 720,-241 587.02,-257.6 430.67,-260.55 340.19,-260.64"/>
<polygon fill="#63b8ff" stroke="#63b8ff" points="773.14,-235.53 782.21,-230.05 771.7,-228.68 773.14,-235.53"/>
</a>
</g>
</g>
<!-- Node11 -->
<g id="Node000011" class="node">
<title>Node11</title>
<g id="a_Node000011"><a xlink:href="$classcom_1_1example_1_1mybookshelf_1_1UIMaster.html#ad30bff41c8ec833af2293c0b6c8b47b2" xlink:title=" ">
<polygon fill="white" stroke="#666666" points="720,-232 568,-232 568,-202 720,-202 720,-232"/>
<text text-anchor="start" x="576" y="-220" font-family="Helvetica,sans-Serif" font-size="10.00">com.example.mybookshelf.</text>
<text text-anchor="middle" x="644" y="-209" font-family="Helvetica,sans-Serif" font-size="10.00">UIMaster.navigateToGoals</text>
</a>
</g>
</g>
<!-- Node9&#45;&gt;Node11 -->
<g id="edge59_Node000009_Node000011" class="edge">
<title>Node9&#45;&gt;Node11</title>
<g id="a_edge59_Node000009_Node000011"><a xlink:title=" ">
<path fill="none" stroke="#63b8ff" d="M745.72,-215.99C737.08,-216.07 728.42,-216.16 720.02,-216.25"/>
<polygon fill="#63b8ff" stroke="#63b8ff" points="745.88,-219.49 755.85,-215.89 745.81,-212.49 745.88,-219.49"/>
</a>
</g>
</g>
<!-- Node12 -->
<g id="Node000012" class="node">
<title>Node12</title>
<g id="a_Node000012"><a xlink:href="$classcom_1_1example_1_1mybookshelf_1_1UIMaster.html#ac859db60f9068e6a87b633ef697d4d0f" xlink:title=" ">
<polygon fill="white" stroke="#666666" points="532,-194 376,-194 376,-164 532,-164 532,-194"/>
<text text-anchor="start" x="384" y="-182" font-family="Helvetica,sans-Serif" font-size="10.00">com.example.mybookshelf.</text>
<text text-anchor="middle" x="454" y="-171" font-family="Helvetica,sans-Serif" font-size="10.00">UIMaster.navigateToSettings</text>
</a>
</g>
</g>
<!-- Node9&#45;&gt;Node12 -->
<g id="edge66_Node000009_Node000012" class="edge">
<title>Node9&#45;&gt;Node12</title>
<g id="a_edge66_Node000009_Node000012"><a xlink:title=" ">
<path fill="none" stroke="#63b8ff" d="M757.76,-198.3C745.13,-196.26 732.25,-194.41 720,-193 656.95,-185.77 585.03,-182.27 532.03,-180.57"/>
<polygon fill="#63b8ff" stroke="#63b8ff" points="757.38,-201.78 767.82,-199.97 758.52,-194.88 757.38,-201.78"/>
</a>
</g>
</g>
<!-- Node10&#45;&gt;Node5 -->
<g id="edge58_Node000010_Node000005" class="edge">
<title>Node10&#45;&gt;Node5</title>
<g id="a_edge58_Node000010_Node000005"><a xlink:title=" ">
<path fill="none" stroke="#63b8ff" d="M179.51,-277.06C169.86,-279.03 160.08,-281.03 150.59,-282.97"/>
<polygon fill="#63b8ff" stroke="#63b8ff" points="180.39,-280.45 189.49,-275.02 178.99,-273.59 180.39,-280.45"/>
</a>
</g>
</g>
<!-- Node11&#45;&gt;Node8 -->
<g id="edge65_Node000011_Node000008" class="edge">
<title>Node11&#45;&gt;Node8</title>
<g id="a_edge65_Node000011_Node000008"><a xlink:title=" ">
<path fill="none" stroke="#63b8ff" d="M719.61,-233.86C731.71,-236 744.16,-237.84 756,-239 827.72,-246.04 909.42,-244.42 969.97,-241.38"/>
<polygon fill="#63b8ff" stroke="#63b8ff" points="720.01,-230.37 709.54,-232 718.74,-237.26 720.01,-230.37"/>
</a>
</g>
</g>
<!-- Node11&#45;&gt;Node10 -->
<g id="edge60_Node000011_Node000010" class="edge">
<title>Node11&#45;&gt;Node10</title>
<g id="a_edge60_Node000011_Node000010"><a xlink:title=" ">
<path fill="none" stroke="#63b8ff" d="M557.6,-225.9C505.17,-231.45 436.67,-238.88 376,-246 364.43,-247.36 352.18,-248.85 340.21,-250.34"/>
<polygon fill="#63b8ff" stroke="#63b8ff" points="558.29,-229.34 567.87,-224.81 557.55,-222.38 558.29,-229.34"/>
</a>
</g>
</g>
<!-- Node11&#45;&gt;Node12 -->
<g id="edge61_Node000011_Node000012" class="edge">
<title>Node11&#45;&gt;Node12</title>
<g id="a_edge61_Node000011_Node000012"><a xlink:title=" ">
<path fill="none" stroke="#63b8ff" d="M587.57,-199.58C570.28,-195.58 550.88,-191.51 532.37,-187.98"/>
<polygon fill="#63b8ff" stroke="#63b8ff" points="586.95,-203.03 597.49,-201.92 588.56,-196.22 586.95,-203.03"/>
</a>
</g>
</g>
<!-- Node12&#45;&gt;Node8 -->
<g id="edge64_Node000012_Node000008" class="edge">
<title>Node12&#45;&gt;Node8</title>
<g id="a_edge64_Node000012_Node000008"><a xlink:title=" ">
<path fill="none" stroke="#63b8ff" d="M542.27,-172.2C639.06,-166.74 799.32,-163.85 934,-191 965.57,-197.37 1000,-209.86 1024.8,-219.91"/>
<polygon fill="#63b8ff" stroke="#63b8ff" points="542.01,-168.71 532.24,-172.79 542.42,-175.7 542.01,-168.71"/>
</a>
</g>
</g>
<!-- Node12&#45;&gt;Node10 -->
<g id="edge62_Node000012_Node000010" class="edge">
<title>Node12&#45;&gt;Node10</title>
<g id="a_edge62_Node000012_Node000010"><a xlink:title=" ">
<path fill="none" stroke="#63b8ff" d="M401.62,-197.71C393.02,-201.03 384.22,-204.53 376,-208 348.55,-219.58 317.93,-234.04 295.81,-244.78"/>
<polygon fill="#63b8ff" stroke="#63b8ff" points="403.11,-200.89 411.21,-194.06 400.61,-194.35 403.11,-200.89"/>
</a>
</g>
</g>
<!-- Node12&#45;&gt;Node11 -->
<g id="edge63_Node000012_Node000011" class="edge">
<title>Node12&#45;&gt;Node11</title>
<g id="a_edge63_Node000012_Node000011"><a xlink:title=" ">
<path fill="none" stroke="#63b8ff" d="M510.02,-196.33C528.12,-200.52 548.56,-204.79 567.89,-208.44"/>
<polygon fill="#63b8ff" stroke="#63b8ff" points="510.76,-192.91 500.23,-194.01 509.15,-199.72 510.76,-192.91"/>
</a>
</g>
</g>
</g>
</svg>
