<?xml version="1.0" encoding="UTF-8" standalone="no"?>
<!DOCTYPE svg PUBLIC "-//W3C//DTD SVG 1.1//EN"
 "http://www.w3.org/Graphics/SVG/1.1/DTD/svg11.dtd">
<!-- Generated by graphviz version 2.43.0 (0)
 -->
<!-- Title: com.example.mybookshelf.DataBaseConnection.loadTrustStore Pages: 1 -->
<svg width="659pt" height="38pt"
 viewBox="0.00 0.00 659.00 38.00" xmlns="http://www.w3.org/2000/svg" xmlns:xlink="http://www.w3.org/1999/xlink">
<g id="graph0" class="graph" transform="scale(1 1) rotate(0) translate(4 34)">
<title>com.example.mybookshelf.DataBaseConnection.loadTrustStore</title>
<!-- Node1 -->
<g id="Node000001" class="node">
<title>Node1</title>
<g id="a_Node000001"><a xlink:title=" ">
<polygon fill="#999999" stroke="#666666" points="651,-30 460,-30 460,0 651,0 651,-30"/>
<text text-anchor="start" x="468" y="-18" font-family="Helvetica,sans-Serif" font-size="10.00">com.example.mybookshelf.</text>
<text text-anchor="middle" x="555.5" y="-7" font-family="Helvetica,sans-Serif" font-size="10.00">DataBaseConnection.loadTrustStore</text>
</a>
</g>
</g>
<!-- Node2 -->
<g id="Node000002" class="node">
<title>Node2</title>
<g id="a_Node000002"><a xlink:href="$classcom_1_1example_1_1mybookshelf_1_1DataBaseConnection.html#a5dad5786ba9d3e263569a9b1838a0092" xlink:title=" ">
<polygon fill="white" stroke="#666666" points="424,-30 260,-30 260,0 424,0 424,-30"/>
<text text-anchor="start" x="268" y="-18" font-family="Helvetica,sans-Serif" font-size="10.00">com.example.mybookshelf.</text>
<text text-anchor="middle" x="342" y="-7" font-family="Helvetica,sans-Serif" font-size="10.00">DataBaseConnection.initialize</text>
</a>
</g>
</g>
<!-- Node1&#45;&gt;Node2 -->
<g id="edge5_Node000001_Node000002" class="edge">
<title>Node1&#45;&gt;Node2</title>
<g id="a_edge5_Node000001_Node000002"><a xlink:title=" ">
<path fill="none" stroke="#63b8ff" d="M449.83,-15C441.25,-15 432.66,-15 424.29,-15"/>
<polygon fill="#63b8ff" stroke="#63b8ff" points="449.88,-18.5 459.88,-15 449.88,-11.5 449.88,-18.5"/>
</a>
</g>
</g>
<!-- Node3 -->
<g id="Node000003" class="node">
<title>Node3</title>
<g id="a_Node000003"><a xlink:href="$classcom_1_1example_1_1mybookshelf_1_1DataBaseConnection.html#a3ed5c18c7b9fb86f9fe23c531136dc5a" xlink:title=" ">
<polygon fill="white" stroke="#666666" points="224,-30 0,-30 0,0 224,0 224,-30"/>
<text text-anchor="start" x="8" y="-18" font-family="Helvetica,sans-Serif" font-size="10.00">com.example.mybookshelf.</text>
<text text-anchor="middle" x="112" y="-7" font-family="Helvetica,sans-Serif" font-size="10.00">DataBaseConnection.DataBaseConnection</text>
</a>
</g>
</g>
<!-- Node2&#45;&gt;Node3 -->
<g id="edge6_Node000002_Node000003" class="edge">
<title>Node2&#45;&gt;Node3</title>
<g id="a_edge6_Node000002_Node000003"><a xlink:title=" ">
<path fill="none" stroke="#63b8ff" d="M249.76,-15C241.31,-15 232.68,-15 224.07,-15"/>
<polygon fill="#63b8ff" stroke="#63b8ff" points="249.97,-18.5 259.97,-15 249.97,-11.5 249.97,-18.5"/>
</a>
</g>
</g>
</g>
</svg>
