<?xml version="1.0" encoding="UTF-8" standalone="no"?>
<!DOCTYPE svg PUBLIC "-//W3C//DTD SVG 1.1//EN"
 "http://www.w3.org/Graphics/SVG/1.1/DTD/svg11.dtd">
<!-- Generated by graphviz version 2.43.0 (0)
 -->
<!-- Title: com.example.mybookshelf.BookRecommendationFlow.buildAIStringFresh Pages: 1 -->
<svg width="3004pt" height="94pt"
 viewBox="0.00 0.00 3004.00 94.00" xmlns="http://www.w3.org/2000/svg" xmlns:xlink="http://www.w3.org/1999/xlink">
<g id="graph0" class="graph" transform="scale(1 1) rotate(0) translate(4 90)">
<title>com.example.mybookshelf.BookRecommendationFlow.buildAIStringFresh</title>
<!-- Node1 -->
<g id="Node000001" class="node">
<title>Node1</title>
<g id="a_Node000001"><a xlink:title=" ">
<polygon fill="#999999" stroke="#666666" points="2996,-44.5 2819,-44.5 2819,-3.5 2996,-3.5 2996,-44.5"/>
<text text-anchor="start" x="2827" y="-32.5" font-family="Helvetica,sans-Serif" font-size="10.00">com.example.mybookshelf.</text>
<text text-anchor="start" x="2827" y="-21.5" font-family="Helvetica,sans-Serif" font-size="10.00">BookRecommendationFlow.build</text>
<text text-anchor="middle" x="2907.5" y="-10.5" font-family="Helvetica,sans-Serif" font-size="10.00">AIStringFresh</text>
</a>
</g>
</g>
<!-- Node2 -->
<g id="Node000002" class="node">
<title>Node2</title>
<g id="a_Node000002"><a xlink:href="$classcom_1_1example_1_1mybookshelf_1_1BookRecommendationFlow.html#a46c6733f27b3527d3934cee02cfcd7ac" xlink:title=" ">
<polygon fill="white" stroke="#666666" points="2783,-69.5 2578,-69.5 2578,-28.5 2783,-28.5 2783,-69.5"/>
<text text-anchor="start" x="2586" y="-57.5" font-family="Helvetica,sans-Serif" font-size="10.00">com.example.mybookshelf.</text>
<text text-anchor="start" x="2586" y="-46.5" font-family="Helvetica,sans-Serif" font-size="10.00">BookRecommendationFlow.showFresh</text>
<text text-anchor="middle" x="2680.5" y="-35.5" font-family="Helvetica,sans-Serif" font-size="10.00">StartStep5</text>
</a>
</g>
</g>
<!-- Node1&#45;&gt;Node2 -->
<g id="edge31_Node000001_Node000002" class="edge">
<title>Node1&#45;&gt;Node2</title>
<g id="a_edge31_Node000001_Node000002"><a xlink:title=" ">
<path fill="none" stroke="#63b8ff" d="M2808.9,-34.84C2800.35,-35.79 2791.68,-36.76 2783.11,-37.71"/>
<polygon fill="#63b8ff" stroke="#63b8ff" points="2809.31,-38.32 2818.86,-33.74 2808.54,-31.36 2809.31,-38.32"/>
</a>
</g>
</g>
<!-- Node3 -->
<g id="Node000003" class="node">
<title>Node3</title>
<g id="a_Node000003"><a xlink:href="$classcom_1_1example_1_1mybookshelf_1_1BookRecommendationFlow.html#ad10515cfcf8650b6830b68f15d393b3b" xlink:title=" ">
<polygon fill="white" stroke="#666666" points="2542,-69.5 2337,-69.5 2337,-28.5 2542,-28.5 2542,-69.5"/>
<text text-anchor="start" x="2345" y="-57.5" font-family="Helvetica,sans-Serif" font-size="10.00">com.example.mybookshelf.</text>
<text text-anchor="start" x="2345" y="-46.5" font-family="Helvetica,sans-Serif" font-size="10.00">BookRecommendationFlow.showFresh</text>
<text text-anchor="middle" x="2439.5" y="-35.5" font-family="Helvetica,sans-Serif" font-size="10.00">StartStep4</text>
</a>
</g>
</g>
<!-- Node2&#45;&gt;Node3 -->
<g id="edge32_Node000002_Node000003" class="edge">
<title>Node2&#45;&gt;Node3</title>
<g id="a_edge32_Node000002_Node000003"><a xlink:title=" ">
<path fill="none" stroke="#63b8ff" d="M2567.78,-49C2559.22,-49 2550.6,-49 2542.11,-49"/>
<polygon fill="#63b8ff" stroke="#63b8ff" points="2567.8,-52.5 2577.8,-49 2567.8,-45.5 2567.8,-52.5"/>
</a>
</g>
</g>
<!-- Node4 -->
<g id="Node000004" class="node">
<title>Node4</title>
<g id="a_Node000004"><a xlink:href="$classcom_1_1example_1_1mybookshelf_1_1BookRecommendationFlow.html#a2bc1c0125eb3c1fe64ed1ed3ee93d3eb" xlink:title=" ">
<polygon fill="white" stroke="#666666" points="2301,-69.5 2096,-69.5 2096,-28.5 2301,-28.5 2301,-69.5"/>
<text text-anchor="start" x="2104" y="-57.5" font-family="Helvetica,sans-Serif" font-size="10.00">com.example.mybookshelf.</text>
<text text-anchor="start" x="2104" y="-46.5" font-family="Helvetica,sans-Serif" font-size="10.00">BookRecommendationFlow.showFresh</text>
<text text-anchor="middle" x="2198.5" y="-35.5" font-family="Helvetica,sans-Serif" font-size="10.00">StartStep3</text>
</a>
</g>
</g>
<!-- Node3&#45;&gt;Node4 -->
<g id="edge33_Node000003_Node000004" class="edge">
<title>Node3&#45;&gt;Node4</title>
<g id="a_edge33_Node000003_Node000004"><a xlink:title=" ">
<path fill="none" stroke="#63b8ff" d="M2326.78,-49C2318.22,-49 2309.6,-49 2301.11,-49"/>
<polygon fill="#63b8ff" stroke="#63b8ff" points="2326.8,-52.5 2336.8,-49 2326.8,-45.5 2326.8,-52.5"/>
</a>
</g>
</g>
<!-- Node5 -->
<g id="Node000005" class="node">
<title>Node5</title>
<g id="a_Node000005"><a xlink:href="$classcom_1_1example_1_1mybookshelf_1_1BookRecommendationFlow.html#aaf567ca97b0d7f0c58ebba4d6f4b18bd" xlink:title=" ">
<polygon fill="white" stroke="#666666" points="2060,-69.5 1855,-69.5 1855,-28.5 2060,-28.5 2060,-69.5"/>
<text text-anchor="start" x="1863" y="-57.5" font-family="Helvetica,sans-Serif" font-size="10.00">com.example.mybookshelf.</text>
<text text-anchor="start" x="1863" y="-46.5" font-family="Helvetica,sans-Serif" font-size="10.00">BookRecommendationFlow.showFresh</text>
<text text-anchor="middle" x="1957.5" y="-35.5" font-family="Helvetica,sans-Serif" font-size="10.00">StartStep2</text>
</a>
</g>
</g>
<!-- Node4&#45;&gt;Node5 -->
<g id="edge34_Node000004_Node000005" class="edge">
<title>Node4&#45;&gt;Node5</title>
<g id="a_edge34_Node000004_Node000005"><a xlink:title=" ">
<path fill="none" stroke="#63b8ff" d="M2085.78,-49C2077.22,-49 2068.6,-49 2060.11,-49"/>
<polygon fill="#63b8ff" stroke="#63b8ff" points="2085.8,-52.5 2095.8,-49 2085.8,-45.5 2085.8,-52.5"/>
</a>
</g>
</g>
<!-- Node6 -->
<g id="Node000006" class="node">
<title>Node6</title>
<g id="a_Node000006"><a xlink:href="$classcom_1_1example_1_1mybookshelf_1_1BookRecommendationFlow.html#a4c7dc337216592f7f214f69ce7009d37" xlink:title=" ">
<polygon fill="white" stroke="#666666" points="1819,-69.5 1614,-69.5 1614,-28.5 1819,-28.5 1819,-69.5"/>
<text text-anchor="start" x="1622" y="-57.5" font-family="Helvetica,sans-Serif" font-size="10.00">com.example.mybookshelf.</text>
<text text-anchor="start" x="1622" y="-46.5" font-family="Helvetica,sans-Serif" font-size="10.00">BookRecommendationFlow.showFresh</text>
<text text-anchor="middle" x="1716.5" y="-35.5" font-family="Helvetica,sans-Serif" font-size="10.00">StartStep1</text>
</a>
</g>
</g>
<!-- Node5&#45;&gt;Node6 -->
<g id="edge35_Node000005_Node000006" class="edge">
<title>Node5&#45;&gt;Node6</title>
<g id="a_edge35_Node000005_Node000006"><a xlink:title=" ">
<path fill="none" stroke="#63b8ff" d="M1844.78,-49C1836.22,-49 1827.6,-49 1819.11,-49"/>
<polygon fill="#63b8ff" stroke="#63b8ff" points="1844.8,-52.5 1854.8,-49 1844.8,-45.5 1844.8,-52.5"/>
</a>
</g>
</g>
<!-- Node7 -->
<g id="Node000007" class="node">
<title>Node7</title>
<g id="a_Node000007"><a xlink:href="$classcom_1_1example_1_1mybookshelf_1_1BookRecommendationFlow.html#a22f0dcaea578fbd7358e6237cd4873d4" xlink:title=" ">
<polygon fill="white" stroke="#666666" points="1578,-64 1382,-64 1382,-34 1578,-34 1578,-64"/>
<text text-anchor="start" x="1390" y="-52" font-family="Helvetica,sans-Serif" font-size="10.00">com.example.mybookshelf.</text>
<text text-anchor="middle" x="1480" y="-41" font-family="Helvetica,sans-Serif" font-size="10.00">BookRecommendationFlow.handleAI</text>
</a>
</g>
</g>
<!-- Node6&#45;&gt;Node7 -->
<g id="edge36_Node000006_Node000007" class="edge">
<title>Node6&#45;&gt;Node7</title>
<g id="a_edge36_Node000006_Node000007"><a xlink:title=" ">
<path fill="none" stroke="#63b8ff" d="M1603.44,-49C1595.04,-49 1586.6,-49 1578.29,-49"/>
<polygon fill="#63b8ff" stroke="#63b8ff" points="1603.67,-52.5 1613.67,-49 1603.67,-45.5 1603.67,-52.5"/>
</a>
</g>
</g>
<!-- Node8 -->
<g id="Node000008" class="node">
<title>Node8</title>
<g id="a_Node000008"><a xlink:href="$classcom_1_1example_1_1mybookshelf_1_1BookRecommendationFlow.html#a4dceb0fa4d170b8c7e5a7a6718593dfe" xlink:title=" ">
<polygon fill="white" stroke="#666666" points="1346,-58 1146,-58 1146,-28 1346,-28 1346,-58"/>
<text text-anchor="start" x="1154" y="-46" font-family="Helvetica,sans-Serif" font-size="10.00">com.example.mybookshelf.</text>
<text text-anchor="middle" x="1246" y="-35" font-family="Helvetica,sans-Serif" font-size="10.00">BookRecommendationFlow.handleNo</text>
</a>
</g>
</g>
<!-- Node7&#45;&gt;Node8 -->
<g id="edge37_Node000007_Node000008" class="edge">
<title>Node7&#45;&gt;Node8</title>
<g id="a_edge37_Node000007_Node000008"><a xlink:title=" ">
<path fill="none" stroke="#63b8ff" d="M1371.95,-46.23C1363.39,-46.01 1354.77,-45.79 1346.27,-45.57"/>
<polygon fill="#63b8ff" stroke="#63b8ff" points="1371.87,-49.73 1381.96,-46.49 1372.05,-42.73 1371.87,-49.73"/>
</a>
</g>
</g>
<!-- Node9 -->
<g id="Node000009" class="node">
<title>Node9</title>
<g id="a_Node000009"><a xlink:href="$classcom_1_1example_1_1mybookshelf_1_1BookRecommendationFlow.html#ae50cf18619872a365eebe91c18d86e8d" xlink:title=" ">
<polygon fill="white" stroke="#666666" points="1110,-40 930,-40 930,-10 1110,-10 1110,-40"/>
<text text-anchor="start" x="938" y="-28" font-family="Helvetica,sans-Serif" font-size="10.00">com.example.mybookshelf.</text>
<text text-anchor="middle" x="1020" y="-17" font-family="Helvetica,sans-Serif" font-size="10.00">BookRecommendationFlow.callAI</text>
</a>
</g>
</g>
<!-- Node8&#45;&gt;Node9 -->
<g id="edge38_Node000008_Node000009" class="edge">
<title>Node8&#45;&gt;Node9</title>
<g id="a_edge38_Node000008_Node000009"><a xlink:title=" ">
<path fill="none" stroke="#63b8ff" d="M1135.77,-34.22C1127.22,-33.54 1118.66,-32.85 1110.27,-32.17"/>
<polygon fill="#63b8ff" stroke="#63b8ff" points="1135.52,-37.71 1145.77,-35.03 1136.08,-30.74 1135.52,-37.71"/>
</a>
</g>
</g>
<!-- Node9&#45;&gt;Node1 -->
<g id="edge44_Node000009_Node000001" class="edge">
<title>Node9&#45;&gt;Node1</title>
<g id="a_edge44_Node000009_Node000001"><a xlink:title=" ">
<path fill="none" stroke="#63b8ff" d="M1120.22,-16.46C1212.93,-9.21 1355.23,0 1479,0 2440.5,0 2440.5,0 2440.5,0 2572.55,0 2725.36,-9.73 2818.96,-16.8"/>
<polygon fill="#63b8ff" stroke="#63b8ff" points="1119.7,-12.99 1110.01,-17.26 1120.25,-19.96 1119.7,-12.99"/>
</a>
</g>
</g>
<!-- Node9&#45;&gt;Node9 -->
<g id="edge45_Node000009_Node000009" class="edge">
<title>Node9&#45;&gt;Node9</title>
<g id="a_edge45_Node000009_Node000009"><a xlink:title=" ">
<path fill="none" stroke="#63b8ff" d="M1057.46,-50.6C1052.34,-54.97 1039.85,-58 1020,-58 986.56,-58 974.02,-49.41 982.38,-40.28"/>
<polygon fill="#63b8ff" stroke="#63b8ff" points="1060.96,-50.33 1057.62,-40.28 1053.96,-50.22 1060.96,-50.33"/>
</a>
</g>
</g>
<!-- Node10 -->
<g id="Node000010" class="node">
<title>Node10</title>
<g id="a_Node000010"><a xlink:href="$classcom_1_1example_1_1mybookshelf_1_1BookRecommendationFlow.html#a78dda71d2c403a463d824ff61b2ce27f" xlink:title=" ">
<polygon fill="white" stroke="#666666" points="894,-47.5 717,-47.5 717,-6.5 894,-6.5 894,-47.5"/>
<text text-anchor="start" x="725" y="-35.5" font-family="Helvetica,sans-Serif" font-size="10.00">com.example.mybookshelf.</text>
<text text-anchor="start" x="725" y="-24.5" font-family="Helvetica,sans-Serif" font-size="10.00">BookRecommendationFlow.build</text>
<text text-anchor="middle" x="805.5" y="-13.5" font-family="Helvetica,sans-Serif" font-size="10.00">AIStringBased</text>
</a>
</g>
</g>
<!-- Node9&#45;&gt;Node10 -->
<g id="edge39_Node000009_Node000010" class="edge">
<title>Node9&#45;&gt;Node10</title>
<g id="a_edge39_Node000009_Node000010"><a xlink:title=" ">
<path fill="none" stroke="#63b8ff" d="M919.78,-25.93C911.21,-26.01 902.58,-26.1 894.11,-26.18"/>
<polygon fill="#63b8ff" stroke="#63b8ff" points="919.84,-29.43 929.8,-25.84 919.77,-22.43 919.84,-29.43"/>
</a>
</g>
</g>
<!-- Node11 -->
<g id="Node000011" class="node">
<title>Node11</title>
<g id="a_Node000011"><a xlink:href="$classcom_1_1example_1_1mybookshelf_1_1BookRecommendationFlow.html#aa95301256c7f5377d1bc432189483b3c" xlink:title=" ">
<polygon fill="white" stroke="#666666" points="681,-53.5 478,-53.5 478,-12.5 681,-12.5 681,-53.5"/>
<text text-anchor="start" x="486" y="-41.5" font-family="Helvetica,sans-Serif" font-size="10.00">com.example.mybookshelf.</text>
<text text-anchor="start" x="486" y="-30.5" font-family="Helvetica,sans-Serif" font-size="10.00">BookRecommendationFlow.showBook</text>
<text text-anchor="middle" x="579.5" y="-19.5" font-family="Helvetica,sans-Serif" font-size="10.00">BasedStep3</text>
</a>
</g>
</g>
<!-- Node10&#45;&gt;Node11 -->
<g id="edge40_Node000010_Node000011" class="edge">
<title>Node10&#45;&gt;Node11</title>
<g id="a_edge40_Node000010_Node000011"><a xlink:title=" ">
<path fill="none" stroke="#63b8ff" d="M706.92,-29.61C698.33,-29.84 689.62,-30.08 681.01,-30.31"/>
<polygon fill="#63b8ff" stroke="#63b8ff" points="707.03,-33.11 716.93,-29.35 706.84,-26.11 707.03,-33.11"/>
</a>
</g>
</g>
<!-- Node12 -->
<g id="Node000012" class="node">
<title>Node12</title>
<g id="a_Node000012"><a xlink:href="$classcom_1_1example_1_1mybookshelf_1_1BookRecommendationFlow.html#a5c657be258c13c85848c7b7115f8a0b5" xlink:title=" ">
<polygon fill="white" stroke="#666666" points="442,-56.5 239,-56.5 239,-15.5 442,-15.5 442,-56.5"/>
<text text-anchor="start" x="247" y="-44.5" font-family="Helvetica,sans-Serif" font-size="10.00">com.example.mybookshelf.</text>
<text text-anchor="start" x="247" y="-33.5" font-family="Helvetica,sans-Serif" font-size="10.00">BookRecommendationFlow.showBook</text>
<text text-anchor="middle" x="340.5" y="-22.5" font-family="Helvetica,sans-Serif" font-size="10.00">BasedStep2</text>
</a>
</g>
</g>
<!-- Node11&#45;&gt;Node12 -->
<g id="edge41_Node000011_Node000012" class="edge">
<title>Node11&#45;&gt;Node12</title>
<g id="a_edge41_Node000011_Node000012"><a xlink:title=" ">
<path fill="none" stroke="#63b8ff" d="M467.94,-34.4C459.34,-34.51 450.69,-34.62 442.17,-34.73"/>
<polygon fill="#63b8ff" stroke="#63b8ff" points="468.04,-37.9 477.99,-34.27 467.95,-30.9 468.04,-37.9"/>
</a>
</g>
</g>
<!-- Node13 -->
<g id="Node000013" class="node">
<title>Node13</title>
<g id="a_Node000013"><a xlink:href="$classcom_1_1example_1_1mybookshelf_1_1BookRecommendationFlow.html#a276e931dabe3e85af257a9d16ce7cc67" xlink:title=" ">
<polygon fill="white" stroke="#666666" points="203,-80.5 0,-80.5 0,-39.5 203,-39.5 203,-80.5"/>
<text text-anchor="start" x="8" y="-68.5" font-family="Helvetica,sans-Serif" font-size="10.00">com.example.mybookshelf.</text>
<text text-anchor="start" x="8" y="-57.5" font-family="Helvetica,sans-Serif" font-size="10.00">BookRecommendationFlow.showBook</text>
<text text-anchor="middle" x="101.5" y="-46.5" font-family="Helvetica,sans-Serif" font-size="10.00">BasedStep1</text>
</a>
</g>
</g>
<!-- Node12&#45;&gt;Node13 -->
<g id="edge42_Node000012_Node000013" class="edge">
<title>Node12&#45;&gt;Node13</title>
<g id="a_edge42_Node000012_Node000013"><a xlink:title=" ">
<path fill="none" stroke="#63b8ff" d="M228.94,-47.2C220.34,-48.07 211.69,-48.94 203.17,-49.81"/>
<polygon fill="#63b8ff" stroke="#63b8ff" points="229.39,-50.67 238.99,-46.18 228.69,-43.7 229.39,-50.67"/>
</a>
</g>
</g>
<!-- Node13&#45;&gt;Node7 -->
<g id="edge43_Node000013_Node000007" class="edge">
<title>Node13&#45;&gt;Node7</title>
<g id="a_edge43_Node000013_Node000007"><a xlink:title=" ">
<path fill="none" stroke="#63b8ff" d="M213.22,-69.48C309.63,-76.91 453.2,-86 578.5,-86 1021,-86 1021,-86 1021,-86 1165.69,-86 1201.98,-80.93 1346,-67 1357.6,-65.88 1369.74,-64.51 1381.77,-63.03"/>
<polygon fill="#63b8ff" stroke="#63b8ff" points="213.41,-65.98 203.16,-68.69 212.86,-72.96 213.41,-65.98"/>
</a>
</g>
</g>
</g>
</svg>
