<?xml version="1.0" encoding="UTF-8" standalone="no"?>
<!DOCTYPE svg PUBLIC "-//W3C//DTD SVG 1.1//EN"
 "http://www.w3.org/Graphics/SVG/1.1/DTD/svg11.dtd">
<!-- Generated by graphviz version 2.43.0 (0)
 -->
<!-- Title: com.example.mybookshelf.LayoutManager.CostumeListAdapter Pages: 1 -->
<svg width="196pt" height="370pt"
 viewBox="0.00 0.00 196.00 370.00" xmlns="http://www.w3.org/2000/svg" xmlns:xlink="http://www.w3.org/1999/xlink">
<g id="graph0" class="graph" transform="scale(1 1) rotate(0) translate(4 366)">
<title>com.example.mybookshelf.LayoutManager.CostumeListAdapter</title>
<!-- Node1 -->
<g id="Node000001" class="node">
<title>Node1</title>
<g id="a_Node000001"><a xlink:title=" ">
<polygon fill="#999999" stroke="transparent" points="188,-255 0,-255 0,0 188,0 188,-255"/>
<text text-anchor="start" x="5" y="-242.5" font-family="Helvetica,sans-Serif" font-size="10.00">com.example.mybookshelf.</text>
<text text-anchor="start" x="5" y="-231.5" font-family="Helvetica,sans-Serif" font-size="10.00">LayoutManager.CostumeListAdapter</text>
<text text-anchor="start" x="21" y="-216.5" font-family="Helvetica,sans-Serif" font-size="10.00">&#45;</text>
<text text-anchor="start" x="46" y="-216.5" font-family="Helvetica,sans-Serif" font-size="10.00">bookList</text>
<text text-anchor="start" x="21" y="-201.5" font-family="Helvetica,sans-Serif" font-size="10.00">&#45;</text>
<text text-anchor="start" x="46" y="-201.5" font-family="Helvetica,sans-Serif" font-size="10.00">mainActivity</text>
<text text-anchor="start" x="21" y="-186.5" font-family="Helvetica,sans-Serif" font-size="10.00">&#45;</text>
<text text-anchor="start" x="46" y="-186.5" font-family="Helvetica,sans-Serif" font-size="10.00">db</text>
<text text-anchor="start" x="21" y="-171.5" font-family="Helvetica,sans-Serif" font-size="10.00">&#45;</text>
<text text-anchor="start" x="46" y="-171.5" font-family="Helvetica,sans-Serif" font-size="10.00">loggedInUser</text>
<text text-anchor="start" x="21" y="-156.5" font-family="Helvetica,sans-Serif" font-size="10.00">&#45;</text>
<text text-anchor="start" x="46" y="-156.5" font-family="Helvetica,sans-Serif" font-size="10.00">uiMaster</text>
<text text-anchor="start" x="21" y="-141.5" font-family="Helvetica,sans-Serif" font-size="10.00">&#45;</text>
<text text-anchor="start" x="46" y="-141.5" font-family="Helvetica,sans-Serif" font-size="10.00">databaseExecutor</text>
<text text-anchor="start" x="21" y="-126.5" font-family="Helvetica,sans-Serif" font-size="10.00">&#45;</text>
<text text-anchor="start" x="46" y="-126.5" font-family="Helvetica,sans-Serif" font-size="10.00">imageRequestOptions</text>
<text text-anchor="start" x="18.5" y="-111.5" font-family="Helvetica,sans-Serif" font-size="10.00">+</text>
<text text-anchor="start" x="46" y="-111.5" font-family="Helvetica,sans-Serif" font-size="10.00">CostumeListAdapter()</text>
<text text-anchor="start" x="18.5" y="-96.5" font-family="Helvetica,sans-Serif" font-size="10.00">+</text>
<text text-anchor="start" x="46" y="-96.5" font-family="Helvetica,sans-Serif" font-size="10.00">onCreateViewHolder()</text>
<text text-anchor="start" x="18.5" y="-81.5" font-family="Helvetica,sans-Serif" font-size="10.00">+</text>
<text text-anchor="start" x="46" y="-81.5" font-family="Helvetica,sans-Serif" font-size="10.00">onBindViewHolder()</text>
<text text-anchor="start" x="18.5" y="-66.5" font-family="Helvetica,sans-Serif" font-size="10.00">+</text>
<text text-anchor="start" x="46" y="-66.5" font-family="Helvetica,sans-Serif" font-size="10.00">getItemCount()</text>
<text text-anchor="start" x="18.5" y="-51.5" font-family="Helvetica,sans-Serif" font-size="10.00">+</text>
<text text-anchor="start" x="46" y="-51.5" font-family="Helvetica,sans-Serif" font-size="10.00">updateData()</text>
<text text-anchor="start" x="18.5" y="-36.5" font-family="Helvetica,sans-Serif" font-size="10.00">+</text>
<text text-anchor="start" x="46" y="-36.5" font-family="Helvetica,sans-Serif" font-size="10.00">cleanup()</text>
<text text-anchor="start" x="21" y="-21.5" font-family="Helvetica,sans-Serif" font-size="10.00">&#45;</text>
<text text-anchor="start" x="46" y="-21.5" font-family="Helvetica,sans-Serif" font-size="10.00">bindBookData()</text>
<text text-anchor="start" x="21" y="-6.5" font-family="Helvetica,sans-Serif" font-size="10.00">&#45;</text>
<text text-anchor="start" x="46" y="-6.5" font-family="Helvetica,sans-Serif" font-size="10.00">createTextWatcher()</text>
<polygon fill="#666666" stroke="#666666" points="0,-226.5 0,-226.5 188,-226.5 188,-226.5 0,-226.5"/>
<polygon fill="#666666" stroke="#666666" points="0,-121.5 0,-121.5 44,-121.5 44,-121.5 0,-121.5"/>
<polygon fill="#666666" stroke="#666666" points="44,-121.5 44,-121.5 188,-121.5 188,-121.5 44,-121.5"/>
<polygon fill="none" stroke="#666666" points="0,0 0,-255 188,-255 188,0 0,0"/>
</a>
</g>
</g>
<!-- Node2 -->
<g id="Node000002" class="node">
<title>Node2</title>
<g id="a_Node000002"><a xlink:title=" ">
<polygon fill="white" stroke="transparent" points="180,-362 8,-362 8,-291 180,-291 180,-362"/>
<text text-anchor="start" x="13" y="-349.5" font-family="Helvetica,sans-Serif" font-size="10.00">RecyclerView::Adapter</text>
<text text-anchor="start" x="13" y="-338.5" font-family="Helvetica,sans-Serif" font-size="10.00">&lt; CostumeListAdapter.BookView</text>
<text text-anchor="start" x="72" y="-327.5" font-family="Helvetica,sans-Serif" font-size="10.00">Holder &gt;</text>
<text text-anchor="start" x="92" y="-312.5" font-family="Helvetica,sans-Serif" font-size="10.00"> </text>
<text text-anchor="start" x="92" y="-297.5" font-family="Helvetica,sans-Serif" font-size="10.00"> </text>
<polygon fill="#666666" stroke="#666666" points="8,-322.5 8,-322.5 180,-322.5 180,-322.5 8,-322.5"/>
<polygon fill="#666666" stroke="#666666" points="8,-307.5 8,-307.5 180,-307.5 180,-307.5 8,-307.5"/>
<polygon fill="none" stroke="#666666" points="8,-291 8,-362 180,-362 180,-291 8,-291"/>
</a>
</g>
</g>
<!-- Node2&#45;&gt;Node1 -->
<g id="edge3_Node000001_Node000002" class="edge">
<title>Node2&#45;&gt;Node1</title>
<g id="a_edge3_Node000001_Node000002"><a xlink:title=" ">
<path fill="none" stroke="#63b8ff" d="M94,-280.7C94,-272.75 94,-264.13 94,-255.17"/>
<polygon fill="none" stroke="#63b8ff" points="90.5,-280.73 94,-290.73 97.5,-280.73 90.5,-280.73"/>
</a>
</g>
</g>
</g>
</svg>
