<?xml version="1.0" encoding="UTF-8" standalone="no"?>
<!DOCTYPE svg PUBLIC "-//W3C//DTD SVG 1.1//EN"
 "http://www.w3.org/Graphics/SVG/1.1/DTD/svg11.dtd">
<!-- Generated by graphviz version 2.43.0 (0)
 -->
<!-- Title: com.example.mybookshelf.BookRecommendationFlow.handleNo Pages: 1 -->
<svg width="2074pt" height="137pt"
 viewBox="0.00 0.00 2074.00 137.02" xmlns="http://www.w3.org/2000/svg" xmlns:xlink="http://www.w3.org/1999/xlink">
<g id="graph0" class="graph" transform="scale(1 1) rotate(0) translate(4 133.02)">
<title>com.example.mybookshelf.BookRecommendationFlow.handleNo</title>
<!-- Node1 -->
<g id="Node000001" class="node">
<title>Node1</title>
<g id="a_Node000001"><a xlink:title=" ">
<polygon fill="#999999" stroke="#666666" points="2066,-39.52 1866,-39.52 1866,-9.52 2066,-9.52 2066,-39.52"/>
<text text-anchor="start" x="1874" y="-27.52" font-family="Helvetica,sans-Serif" font-size="10.00">com.example.mybookshelf.</text>
<text text-anchor="middle" x="1966" y="-16.52" font-family="Helvetica,sans-Serif" font-size="10.00">BookRecommendationFlow.handleNo</text>
</a>
</g>
</g>
<!-- Node2 -->
<g id="Node000002" class="node">
<title>Node2</title>
<g id="a_Node000002"><a xlink:href="$classcom_1_1example_1_1mybookshelf_1_1BookRecommendationFlow.html#ae50cf18619872a365eebe91c18d86e8d" xlink:title=" ">
<polygon fill="white" stroke="#666666" points="1830,-64.52 1650,-64.52 1650,-34.52 1830,-34.52 1830,-64.52"/>
<text text-anchor="start" x="1658" y="-52.52" font-family="Helvetica,sans-Serif" font-size="10.00">com.example.mybookshelf.</text>
<text text-anchor="middle" x="1740" y="-41.52" font-family="Helvetica,sans-Serif" font-size="10.00">BookRecommendationFlow.callAI</text>
</a>
</g>
</g>
<!-- Node1&#45;&gt;Node2 -->
<g id="edge31_Node000001_Node000002" class="edge">
<title>Node1&#45;&gt;Node2</title>
<g id="a_edge31_Node000001_Node000002"><a xlink:title=" ">
<path fill="none" stroke="#63b8ff" d="M1855.77,-36.71C1847.22,-37.66 1838.66,-38.62 1830.27,-39.55"/>
<polygon fill="#63b8ff" stroke="#63b8ff" points="1856.22,-40.18 1865.77,-35.59 1855.45,-33.22 1856.22,-40.18"/>
</a>
</g>
</g>
<!-- Node2&#45;&gt;Node2 -->
<g id="edge45_Node000002_Node000002" class="edge">
<title>Node2&#45;&gt;Node2</title>
<g id="a_edge45_Node000002_Node000002"><a xlink:title=" ">
<path fill="none" stroke="#63b8ff" d="M1777.46,-75.11C1772.34,-79.49 1759.85,-82.52 1740,-82.52 1706.56,-82.52 1694.02,-73.92 1702.38,-64.79"/>
<polygon fill="#63b8ff" stroke="#63b8ff" points="1780.96,-74.85 1777.62,-64.79 1773.96,-74.74 1780.96,-74.85"/>
</a>
</g>
</g>
<!-- Node3 -->
<g id="Node000003" class="node">
<title>Node3</title>
<g id="a_Node000003"><a xlink:href="$classcom_1_1example_1_1mybookshelf_1_1BookRecommendationFlow.html#a78dda71d2c403a463d824ff61b2ce27f" xlink:title=" ">
<polygon fill="white" stroke="#666666" points="1614,-129.02 1437,-129.02 1437,-88.02 1614,-88.02 1614,-129.02"/>
<text text-anchor="start" x="1445" y="-117.02" font-family="Helvetica,sans-Serif" font-size="10.00">com.example.mybookshelf.</text>
<text text-anchor="start" x="1445" y="-106.02" font-family="Helvetica,sans-Serif" font-size="10.00">BookRecommendationFlow.build</text>
<text text-anchor="middle" x="1525.5" y="-95.02" font-family="Helvetica,sans-Serif" font-size="10.00">AIStringBased</text>
</a>
</g>
</g>
<!-- Node2&#45;&gt;Node3 -->
<g id="edge32_Node000002_Node000003" class="edge">
<title>Node2&#45;&gt;Node3</title>
<g id="a_edge32_Node000002_Node000003"><a xlink:title=" ">
<path fill="none" stroke="#63b8ff" d="M1675,-67.29C1651.57,-73.79 1624.86,-81.21 1600.62,-87.94"/>
<polygon fill="#63b8ff" stroke="#63b8ff" points="1676.13,-70.61 1684.83,-64.56 1674.26,-63.86 1676.13,-70.61"/>
</a>
</g>
</g>
<!-- Node8 -->
<g id="Node000008" class="node">
<title>Node8</title>
<g id="a_Node000008"><a xlink:href="$classcom_1_1example_1_1mybookshelf_1_1BookRecommendationFlow.html#abe4c57ea57ed54c344739295e70066ff" xlink:title=" ">
<polygon fill="white" stroke="#666666" points="1614,-70.02 1437,-70.02 1437,-29.02 1614,-29.02 1614,-70.02"/>
<text text-anchor="start" x="1445" y="-58.02" font-family="Helvetica,sans-Serif" font-size="10.00">com.example.mybookshelf.</text>
<text text-anchor="start" x="1445" y="-47.02" font-family="Helvetica,sans-Serif" font-size="10.00">BookRecommendationFlow.build</text>
<text text-anchor="middle" x="1525.5" y="-36.02" font-family="Helvetica,sans-Serif" font-size="10.00">AIStringFresh</text>
</a>
</g>
</g>
<!-- Node2&#45;&gt;Node8 -->
<g id="edge38_Node000002_Node000008" class="edge">
<title>Node2&#45;&gt;Node8</title>
<g id="a_edge38_Node000002_Node000008"><a xlink:title=" ">
<path fill="none" stroke="#63b8ff" d="M1639.78,-49.52C1631.21,-49.52 1622.58,-49.52 1614.11,-49.52"/>
<polygon fill="#63b8ff" stroke="#63b8ff" points="1639.8,-53.02 1649.8,-49.52 1639.8,-46.02 1639.8,-53.02"/>
</a>
</g>
</g>
<!-- Node4 -->
<g id="Node000004" class="node">
<title>Node4</title>
<g id="a_Node000004"><a xlink:href="$classcom_1_1example_1_1mybookshelf_1_1BookRecommendationFlow.html#aa95301256c7f5377d1bc432189483b3c" xlink:title=" ">
<polygon fill="white" stroke="#666666" points="1400,-129.02 1197,-129.02 1197,-88.02 1400,-88.02 1400,-129.02"/>
<text text-anchor="start" x="1205" y="-117.02" font-family="Helvetica,sans-Serif" font-size="10.00">com.example.mybookshelf.</text>
<text text-anchor="start" x="1205" y="-106.02" font-family="Helvetica,sans-Serif" font-size="10.00">BookRecommendationFlow.showBook</text>
<text text-anchor="middle" x="1298.5" y="-95.02" font-family="Helvetica,sans-Serif" font-size="10.00">BasedStep3</text>
</a>
</g>
</g>
<!-- Node3&#45;&gt;Node4 -->
<g id="edge33_Node000003_Node000004" class="edge">
<title>Node3&#45;&gt;Node4</title>
<g id="a_edge33_Node000003_Node000004"><a xlink:title=" ">
<path fill="none" stroke="#63b8ff" d="M1426.69,-108.52C1417.96,-108.52 1409.11,-108.52 1400.35,-108.52"/>
<polygon fill="#63b8ff" stroke="#63b8ff" points="1426.86,-112.02 1436.86,-108.52 1426.86,-105.02 1426.86,-112.02"/>
</a>
</g>
</g>
<!-- Node5 -->
<g id="Node000005" class="node">
<title>Node5</title>
<g id="a_Node000005"><a xlink:href="$classcom_1_1example_1_1mybookshelf_1_1BookRecommendationFlow.html#a5c657be258c13c85848c7b7115f8a0b5" xlink:title=" ">
<polygon fill="white" stroke="#666666" points="1159,-129.02 956,-129.02 956,-88.02 1159,-88.02 1159,-129.02"/>
<text text-anchor="start" x="964" y="-117.02" font-family="Helvetica,sans-Serif" font-size="10.00">com.example.mybookshelf.</text>
<text text-anchor="start" x="964" y="-106.02" font-family="Helvetica,sans-Serif" font-size="10.00">BookRecommendationFlow.showBook</text>
<text text-anchor="middle" x="1057.5" y="-95.02" font-family="Helvetica,sans-Serif" font-size="10.00">BasedStep2</text>
</a>
</g>
</g>
<!-- Node4&#45;&gt;Node5 -->
<g id="edge34_Node000004_Node000005" class="edge">
<title>Node4&#45;&gt;Node5</title>
<g id="a_edge34_Node000004_Node000005"><a xlink:title=" ">
<path fill="none" stroke="#63b8ff" d="M1186.82,-108.52C1177.56,-108.52 1168.23,-108.52 1159.05,-108.52"/>
<polygon fill="#63b8ff" stroke="#63b8ff" points="1186.84,-112.02 1196.84,-108.52 1186.84,-105.02 1186.84,-112.02"/>
</a>
</g>
</g>
<!-- Node6 -->
<g id="Node000006" class="node">
<title>Node6</title>
<g id="a_Node000006"><a xlink:href="$classcom_1_1example_1_1mybookshelf_1_1BookRecommendationFlow.html#a276e931dabe3e85af257a9d16ce7cc67" xlink:title=" ">
<polygon fill="white" stroke="#666666" points="677,-129.02 474,-129.02 474,-88.02 677,-88.02 677,-129.02"/>
<text text-anchor="start" x="482" y="-117.02" font-family="Helvetica,sans-Serif" font-size="10.00">com.example.mybookshelf.</text>
<text text-anchor="start" x="482" y="-106.02" font-family="Helvetica,sans-Serif" font-size="10.00">BookRecommendationFlow.showBook</text>
<text text-anchor="middle" x="575.5" y="-95.02" font-family="Helvetica,sans-Serif" font-size="10.00">BasedStep1</text>
</a>
</g>
</g>
<!-- Node5&#45;&gt;Node6 -->
<g id="edge35_Node000005_Node000006" class="edge">
<title>Node5&#45;&gt;Node6</title>
<g id="a_edge35_Node000005_Node000006"><a xlink:title=" ">
<path fill="none" stroke="#63b8ff" d="M945.65,-108.52C864.73,-108.52 755.91,-108.52 677.4,-108.52"/>
<polygon fill="#63b8ff" stroke="#63b8ff" points="945.88,-112.02 955.88,-108.52 945.88,-105.02 945.88,-112.02"/>
</a>
</g>
</g>
<!-- Node7 -->
<g id="Node000007" class="node">
<title>Node7</title>
<g id="a_Node000007"><a xlink:href="$classcom_1_1example_1_1mybookshelf_1_1BookRecommendationFlow.html#a22f0dcaea578fbd7358e6237cd4873d4" xlink:title=" ">
<polygon fill="white" stroke="#666666" points="196,-64.52 0,-64.52 0,-34.52 196,-34.52 196,-64.52"/>
<text text-anchor="start" x="8" y="-52.52" font-family="Helvetica,sans-Serif" font-size="10.00">com.example.mybookshelf.</text>
<text text-anchor="middle" x="98" y="-41.52" font-family="Helvetica,sans-Serif" font-size="10.00">BookRecommendationFlow.handleAI</text>
</a>
</g>
</g>
<!-- Node6&#45;&gt;Node7 -->
<g id="edge36_Node000006_Node000007" class="edge">
<title>Node6&#45;&gt;Node7</title>
<g id="a_edge36_Node000006_Node000007"><a xlink:title=" ">
<path fill="none" stroke="#63b8ff" d="M463.46,-102.99C396.21,-98.68 308.85,-91.38 232,-79.52 207.44,-75.73 180.65,-70 157.59,-64.56"/>
<polygon fill="#63b8ff" stroke="#63b8ff" points="463.46,-106.5 473.66,-103.63 463.9,-99.51 463.46,-106.5"/>
</a>
</g>
</g>
<!-- Node7&#45;&gt;Node1 -->
<g id="edge37_Node000007_Node000001" class="edge">
<title>Node7&#45;&gt;Node1</title>
<g id="a_edge37_Node000007_Node000001"><a xlink:title=" ">
<path fill="none" stroke="#63b8ff" d="M165.71,-32.19C186.78,-27.33 210.24,-22.55 232,-19.52 382.99,1.55 422.04,-0.52 574.5,-0.52 1526.5,-0.52 1526.5,-0.52 1526.5,-0.52 1643.15,-0.52 1777,-9.09 1865.82,-15.99"/>
<polygon fill="#63b8ff" stroke="#63b8ff" points="164.83,-28.8 155.9,-34.49 166.43,-35.61 164.83,-28.8"/>
</a>
</g>
</g>
<!-- Node9 -->
<g id="Node000009" class="node">
<title>Node9</title>
<g id="a_Node000009"><a xlink:href="$classcom_1_1example_1_1mybookshelf_1_1BookRecommendationFlow.html#a46c6733f27b3527d3934cee02cfcd7ac" xlink:title=" ">
<polygon fill="white" stroke="#666666" points="1401,-70.02 1196,-70.02 1196,-29.02 1401,-29.02 1401,-70.02"/>
<text text-anchor="start" x="1204" y="-58.02" font-family="Helvetica,sans-Serif" font-size="10.00">com.example.mybookshelf.</text>
<text text-anchor="start" x="1204" y="-47.02" font-family="Helvetica,sans-Serif" font-size="10.00">BookRecommendationFlow.showFresh</text>
<text text-anchor="middle" x="1298.5" y="-36.02" font-family="Helvetica,sans-Serif" font-size="10.00">StartStep5</text>
</a>
</g>
</g>
<!-- Node8&#45;&gt;Node9 -->
<g id="edge39_Node000008_Node000009" class="edge">
<title>Node8&#45;&gt;Node9</title>
<g id="a_edge39_Node000008_Node000009"><a xlink:title=" ">
<path fill="none" stroke="#63b8ff" d="M1426.62,-49.52C1418.16,-49.52 1409.59,-49.52 1401.11,-49.52"/>
<polygon fill="#63b8ff" stroke="#63b8ff" points="1426.86,-53.02 1436.86,-49.52 1426.86,-46.02 1426.86,-53.02"/>
</a>
</g>
</g>
<!-- Node10 -->
<g id="Node000010" class="node">
<title>Node10</title>
<g id="a_Node000010"><a xlink:href="$classcom_1_1example_1_1mybookshelf_1_1BookRecommendationFlow.html#ad10515cfcf8650b6830b68f15d393b3b" xlink:title=" ">
<polygon fill="white" stroke="#666666" points="1160,-70.02 955,-70.02 955,-29.02 1160,-29.02 1160,-70.02"/>
<text text-anchor="start" x="963" y="-58.02" font-family="Helvetica,sans-Serif" font-size="10.00">com.example.mybookshelf.</text>
<text text-anchor="start" x="963" y="-47.02" font-family="Helvetica,sans-Serif" font-size="10.00">BookRecommendationFlow.showFresh</text>
<text text-anchor="middle" x="1057.5" y="-36.02" font-family="Helvetica,sans-Serif" font-size="10.00">StartStep4</text>
</a>
</g>
</g>
<!-- Node9&#45;&gt;Node10 -->
<g id="edge40_Node000009_Node000010" class="edge">
<title>Node9&#45;&gt;Node10</title>
<g id="a_edge40_Node000009_Node000010"><a xlink:title=" ">
<path fill="none" stroke="#63b8ff" d="M1185.78,-49.52C1177.22,-49.52 1168.6,-49.52 1160.11,-49.52"/>
<polygon fill="#63b8ff" stroke="#63b8ff" points="1185.8,-53.02 1195.8,-49.52 1185.8,-46.02 1185.8,-53.02"/>
</a>
</g>
</g>
<!-- Node11 -->
<g id="Node000011" class="node">
<title>Node11</title>
<g id="a_Node000011"><a xlink:href="$classcom_1_1example_1_1mybookshelf_1_1BookRecommendationFlow.html#a2bc1c0125eb3c1fe64ed1ed3ee93d3eb" xlink:title=" ">
<polygon fill="white" stroke="#666666" points="919,-70.02 714,-70.02 714,-29.02 919,-29.02 919,-70.02"/>
<text text-anchor="start" x="722" y="-58.02" font-family="Helvetica,sans-Serif" font-size="10.00">com.example.mybookshelf.</text>
<text text-anchor="start" x="722" y="-47.02" font-family="Helvetica,sans-Serif" font-size="10.00">BookRecommendationFlow.showFresh</text>
<text text-anchor="middle" x="816.5" y="-36.02" font-family="Helvetica,sans-Serif" font-size="10.00">StartStep3</text>
</a>
</g>
</g>
<!-- Node10&#45;&gt;Node11 -->
<g id="edge41_Node000010_Node000011" class="edge">
<title>Node10&#45;&gt;Node11</title>
<g id="a_edge41_Node000010_Node000011"><a xlink:title=" ">
<path fill="none" stroke="#63b8ff" d="M944.78,-49.52C936.22,-49.52 927.6,-49.52 919.11,-49.52"/>
<polygon fill="#63b8ff" stroke="#63b8ff" points="944.8,-53.02 954.8,-49.52 944.8,-46.02 944.8,-53.02"/>
</a>
</g>
</g>
<!-- Node12 -->
<g id="Node000012" class="node">
<title>Node12</title>
<g id="a_Node000012"><a xlink:href="$classcom_1_1example_1_1mybookshelf_1_1BookRecommendationFlow.html#aaf567ca97b0d7f0c58ebba4d6f4b18bd" xlink:title=" ">
<polygon fill="white" stroke="#666666" points="678,-70.02 473,-70.02 473,-29.02 678,-29.02 678,-70.02"/>
<text text-anchor="start" x="481" y="-58.02" font-family="Helvetica,sans-Serif" font-size="10.00">com.example.mybookshelf.</text>
<text text-anchor="start" x="481" y="-47.02" font-family="Helvetica,sans-Serif" font-size="10.00">BookRecommendationFlow.showFresh</text>
<text text-anchor="middle" x="575.5" y="-36.02" font-family="Helvetica,sans-Serif" font-size="10.00">StartStep2</text>
</a>
</g>
</g>
<!-- Node11&#45;&gt;Node12 -->
<g id="edge42_Node000011_Node000012" class="edge">
<title>Node11&#45;&gt;Node12</title>
<g id="a_edge42_Node000011_Node000012"><a xlink:title=" ">
<path fill="none" stroke="#63b8ff" d="M703.78,-49.52C695.22,-49.52 686.6,-49.52 678.11,-49.52"/>
<polygon fill="#63b8ff" stroke="#63b8ff" points="703.8,-53.02 713.8,-49.52 703.8,-46.02 703.8,-53.02"/>
</a>
</g>
</g>
<!-- Node13 -->
<g id="Node000013" class="node">
<title>Node13</title>
<g id="a_Node000013"><a xlink:href="$classcom_1_1example_1_1mybookshelf_1_1BookRecommendationFlow.html#a4c7dc337216592f7f214f69ce7009d37" xlink:title=" ">
<polygon fill="white" stroke="#666666" points="437,-70.02 232,-70.02 232,-29.02 437,-29.02 437,-70.02"/>
<text text-anchor="start" x="240" y="-58.02" font-family="Helvetica,sans-Serif" font-size="10.00">com.example.mybookshelf.</text>
<text text-anchor="start" x="240" y="-47.02" font-family="Helvetica,sans-Serif" font-size="10.00">BookRecommendationFlow.showFresh</text>
<text text-anchor="middle" x="334.5" y="-36.02" font-family="Helvetica,sans-Serif" font-size="10.00">StartStep1</text>
</a>
</g>
</g>
<!-- Node12&#45;&gt;Node13 -->
<g id="edge43_Node000012_Node000013" class="edge">
<title>Node12&#45;&gt;Node13</title>
<g id="a_edge43_Node000012_Node000013"><a xlink:title=" ">
<path fill="none" stroke="#63b8ff" d="M462.78,-49.52C454.22,-49.52 445.6,-49.52 437.11,-49.52"/>
<polygon fill="#63b8ff" stroke="#63b8ff" points="462.8,-53.02 472.8,-49.52 462.8,-46.02 462.8,-53.02"/>
</a>
</g>
</g>
<!-- Node13&#45;&gt;Node7 -->
<g id="edge44_Node000013_Node000007" class="edge">
<title>Node13&#45;&gt;Node7</title>
<g id="a_edge44_Node000013_Node000007"><a xlink:title=" ">
<path fill="none" stroke="#63b8ff" d="M221.44,-49.52C213.04,-49.52 204.6,-49.52 196.29,-49.52"/>
<polygon fill="#63b8ff" stroke="#63b8ff" points="221.67,-53.02 231.67,-49.52 221.67,-46.02 221.67,-53.02"/>
</a>
</g>
</g>
</g>
</svg>
