<?xml version="1.0" encoding="UTF-8" standalone="no"?>
<!DOCTYPE svg PUBLIC "-//W3C//DTD SVG 1.1//EN"
 "http://www.w3.org/Graphics/SVG/1.1/DTD/svg11.dtd">
<!-- Generated by graphviz version 2.43.0 (0)
 -->
<!-- Title: com.example.mybookshelf.notifications.NotificationScheduler.scheduleOneTimeNotification Pages: 1 -->
<svg width="695pt" height="68pt"
 viewBox="0.00 0.00 695.00 68.00" xmlns="http://www.w3.org/2000/svg" xmlns:xlink="http://www.w3.org/1999/xlink">
<g id="graph0" class="graph" transform="scale(1 1) rotate(0) translate(4 64)">
<title>com.example.mybookshelf.notifications.NotificationScheduler.scheduleOneTimeNotification</title>
<!-- Node1 -->
<g id="Node000001" class="node">
<title>Node1</title>
<g id="a_Node000001"><a xlink:title=" ">
<polygon fill="#999999" stroke="#666666" points="687,-60 420,-60 420,-30 687,-30 687,-60"/>
<text text-anchor="start" x="428" y="-48" font-family="Helvetica,sans-Serif" font-size="10.00">com.example.mybookshelf.notifications.</text>
<text text-anchor="middle" x="553.5" y="-37" font-family="Helvetica,sans-Serif" font-size="10.00">NotificationScheduler.scheduleOneTimeNotification</text>
</a>
</g>
</g>
<!-- Node2 -->
<g id="Node000002" class="node">
<title>Node2</title>
<g id="a_Node000002"><a xlink:href="$classcom_1_1example_1_1mybookshelf_1_1dataClass_1_1User.html#aeccdf2ba94dc9b82428e2339fce94f16" xlink:title=" ">
<polygon fill="white" stroke="#666666" points="174,-60 0,-60 0,-30 174,-30 174,-60"/>
<text text-anchor="start" x="8" y="-48" font-family="Helvetica,sans-Serif" font-size="10.00">com.example.mybookshelf.data</text>
<text text-anchor="middle" x="87" y="-37" font-family="Helvetica,sans-Serif" font-size="10.00">Class.User.User</text>
</a>
</g>
</g>
<!-- Node1&#45;&gt;Node2 -->
<g id="edge9_Node000001_Node000002" class="edge">
<title>Node1&#45;&gt;Node2</title>
<g id="a_edge9_Node000001_Node000002"><a xlink:title=" ">
<path fill="none" stroke="#63b8ff" d="M409.49,-55.89C400.87,-56.33 392.32,-56.7 384,-57 306.72,-59.75 287.24,-60.79 210,-57 198.41,-56.43 186.23,-55.56 174.23,-54.54"/>
<polygon fill="#63b8ff" stroke="#63b8ff" points="409.84,-59.37 419.64,-55.35 409.46,-52.38 409.84,-59.37"/>
</a>
</g>
</g>
<!-- Node3 -->
<g id="Node000003" class="node">
<title>Node3</title>
<g id="a_Node000003"><a xlink:href="$classcom_1_1example_1_1mybookshelf_1_1dataClass_1_1User.html#afb85fd04c8149bfb77f1810c9301b0bc" xlink:title=" ">
<polygon fill="white" stroke="#666666" points="384,-30 210,-30 210,0 384,0 384,-30"/>
<text text-anchor="start" x="218" y="-18" font-family="Helvetica,sans-Serif" font-size="10.00">com.example.mybookshelf.data</text>
<text text-anchor="middle" x="297" y="-7" font-family="Helvetica,sans-Serif" font-size="10.00">Class.User.User</text>
</a>
</g>
</g>
<!-- Node1&#45;&gt;Node3 -->
<g id="edge10_Node000001_Node000003" class="edge">
<title>Node1&#45;&gt;Node3</title>
<g id="a_edge10_Node000001_Node000003"><a xlink:title=" ">
<path fill="none" stroke="#63b8ff" d="M415.15,-28.81C404.63,-27.57 394.2,-26.34 384.16,-25.16"/>
<polygon fill="#63b8ff" stroke="#63b8ff" points="414.91,-32.31 425.25,-30 415.73,-25.35 414.91,-32.31"/>
</a>
</g>
</g>
<!-- Node3&#45;&gt;Node2 -->
<g id="edge11_Node000003_Node000002" class="edge">
<title>Node3&#45;&gt;Node2</title>
<g id="a_edge11_Node000003_Node000002"><a xlink:title=" ">
<path fill="none" stroke="#63b8ff" d="M199.84,-28.87C191.23,-30.11 182.55,-31.36 174.04,-32.59"/>
<polygon fill="#63b8ff" stroke="#63b8ff" points="200.5,-32.31 209.9,-27.42 199.5,-25.38 200.5,-32.31"/>
</a>
</g>
</g>
<!-- Node3&#45;&gt;Node3 -->
<g id="edge12_Node000003_Node000003" class="edge">
<title>Node3&#45;&gt;Node3</title>
<g id="a_edge12_Node000003_Node000003"><a xlink:title=" ">
<path fill="none" stroke="#63b8ff" d="M333.76,-40.6C328.74,-44.97 316.48,-48 297,-48 264.19,-48 251.88,-39.41 260.09,-30.28"/>
<polygon fill="#63b8ff" stroke="#63b8ff" points="337.26,-40.33 333.91,-30.28 330.26,-40.22 337.26,-40.33"/>
</a>
</g>
</g>
</g>
</svg>
