<?xml version="1.0" encoding="UTF-8" standalone="no"?>
<!DOCTYPE svg PUBLIC "-//W3C//DTD SVG 1.1//EN"
 "http://www.w3.org/Graphics/SVG/1.1/DTD/svg11.dtd">
<!-- Generated by graphviz version 2.43.0 (0)
 -->
<!-- Title: com.example.mybookshelf.dataClass.Book.getStatus Pages: 1 -->
<svg width="580pt" height="182pt"
 viewBox="0.00 0.00 580.00 182.00" xmlns="http://www.w3.org/2000/svg" xmlns:xlink="http://www.w3.org/1999/xlink">
<g id="graph0" class="graph" transform="scale(1 1) rotate(0) translate(4 178)">
<title>com.example.mybookshelf.dataClass.Book.getStatus</title>
<!-- Node1 -->
<g id="Node000001" class="node">
<title>Node1</title>
<g id="a_Node000001"><a xlink:title=" ">
<polygon fill="#999999" stroke="#666666" points="572,-102 398,-102 398,-72 572,-72 572,-102"/>
<text text-anchor="start" x="406" y="-90" font-family="Helvetica,sans-Serif" font-size="10.00">com.example.mybookshelf.data</text>
<text text-anchor="middle" x="485" y="-79" font-family="Helvetica,sans-Serif" font-size="10.00">Class.Book.getStatus</text>
</a>
</g>
</g>
<!-- Node2 -->
<g id="Node000002" class="node">
<title>Node2</title>
<g id="a_Node000002"><a xlink:href="$classcom_1_1example_1_1mybookshelf_1_1GoalHandler.html#ac10bf110d981c8788e0e4b9b2e25177e" xlink:title=" ">
<polygon fill="white" stroke="#666666" points="359,-174 191,-174 191,-144 359,-144 359,-174"/>
<text text-anchor="start" x="199" y="-162" font-family="Helvetica,sans-Serif" font-size="10.00">com.example.mybookshelf.</text>
<text text-anchor="middle" x="275" y="-151" font-family="Helvetica,sans-Serif" font-size="10.00">GoalHandler.handleBookAdded</text>
</a>
</g>
</g>
<!-- Node1&#45;&gt;Node2 -->
<g id="edge11_Node000001_Node000002" class="edge">
<title>Node1&#45;&gt;Node2</title>
<g id="a_edge11_Node000001_Node000002"><a xlink:title=" ">
<path fill="none" stroke="#63b8ff" d="M439.14,-105.93C416.26,-115.25 387.87,-126.33 362,-135 352.74,-138.1 342.83,-141.13 333.15,-143.94"/>
<polygon fill="#63b8ff" stroke="#63b8ff" points="440.67,-109.08 448.59,-102.05 438.01,-102.61 440.67,-109.08"/>
</a>
</g>
</g>
<!-- Node3 -->
<g id="Node000003" class="node">
<title>Node3</title>
<g id="a_Node000003"><a xlink:href="$classcom_1_1example_1_1mybookshelf_1_1GoalHandler.html#a5ddb8c71cb9828e9525f4bafefaf685f" xlink:title=" ">
<polygon fill="white" stroke="#666666" points="362,-126 188,-126 188,-96 362,-96 362,-126"/>
<text text-anchor="start" x="196" y="-114" font-family="Helvetica,sans-Serif" font-size="10.00">com.example.mybookshelf.</text>
<text text-anchor="middle" x="275" y="-103" font-family="Helvetica,sans-Serif" font-size="10.00">GoalHandler.handleBookChange</text>
</a>
</g>
</g>
<!-- Node1&#45;&gt;Node3 -->
<g id="edge12_Node000001_Node000003" class="edge">
<title>Node1&#45;&gt;Node3</title>
<g id="a_edge12_Node000001_Node000003"><a xlink:title=" ">
<path fill="none" stroke="#63b8ff" d="M387.84,-98.1C379.23,-99.09 370.55,-100.09 362.04,-101.07"/>
<polygon fill="#63b8ff" stroke="#63b8ff" points="388.36,-101.56 397.9,-96.93 387.56,-94.6 388.36,-101.56"/>
</a>
</g>
</g>
<!-- Node4 -->
<g id="Node000004" class="node">
<title>Node4</title>
<g id="a_Node000004"><a xlink:href="$classcom_1_1example_1_1mybookshelf_1_1MainActivity.html#a50ffabe98d3e06a1168741e025b21b58" xlink:title=" ">
<polygon fill="white" stroke="#666666" points="362,-78 188,-78 188,-48 362,-48 362,-78"/>
<text text-anchor="start" x="196" y="-66" font-family="Helvetica,sans-Serif" font-size="10.00">com.example.mybookshelf.</text>
<text text-anchor="middle" x="275" y="-55" font-family="Helvetica,sans-Serif" font-size="10.00">MainActivity.handleBookChange</text>
</a>
</g>
</g>
<!-- Node1&#45;&gt;Node4 -->
<g id="edge13_Node000001_Node000004" class="edge">
<title>Node1&#45;&gt;Node4</title>
<g id="a_edge13_Node000001_Node000004"><a xlink:title=" ">
<path fill="none" stroke="#63b8ff" d="M387.84,-75.9C379.23,-74.91 370.55,-73.91 362.04,-72.93"/>
<polygon fill="#63b8ff" stroke="#63b8ff" points="387.56,-79.4 397.9,-77.07 388.36,-72.44 387.56,-79.4"/>
</a>
</g>
</g>
<!-- Node5 -->
<g id="Node000005" class="node">
<title>Node5</title>
<g id="a_Node000005"><a xlink:href="$classcom_1_1example_1_1mybookshelf_1_1UIMaster.html#ac2a608fcf86d3dbe14b4684dbbaf1431" xlink:title=" ">
<polygon fill="white" stroke="#666666" points="351,-30 199,-30 199,0 351,0 351,-30"/>
<text text-anchor="start" x="207" y="-18" font-family="Helvetica,sans-Serif" font-size="10.00">com.example.mybookshelf.</text>
<text text-anchor="middle" x="275" y="-7" font-family="Helvetica,sans-Serif" font-size="10.00">UIMaster.navigateToDetails</text>
</a>
</g>
</g>
<!-- Node1&#45;&gt;Node5 -->
<g id="edge14_Node000001_Node000005" class="edge">
<title>Node1&#45;&gt;Node5</title>
<g id="a_edge14_Node000001_Node000005"><a xlink:title=" ">
<path fill="none" stroke="#63b8ff" d="M439.14,-68.07C416.26,-58.75 387.87,-47.67 362,-39 352.74,-35.9 342.83,-32.87 333.15,-30.06"/>
<polygon fill="#63b8ff" stroke="#63b8ff" points="438.01,-71.39 448.59,-71.95 440.67,-64.92 438.01,-71.39"/>
</a>
</g>
</g>
<!-- Node6 -->
<g id="Node000006" class="node">
<title>Node6</title>
<g id="a_Node000006"><a xlink:href="$classcom_1_1example_1_1mybookshelf_1_1UIMaster.html#a1533d0ed2384f2ec729cfcec7bd9a25f" xlink:title=" ">
<polygon fill="white" stroke="#666666" points="152,-30 0,-30 0,0 152,0 152,-30"/>
<text text-anchor="start" x="8" y="-18" font-family="Helvetica,sans-Serif" font-size="10.00">com.example.mybookshelf.</text>
<text text-anchor="middle" x="76" y="-7" font-family="Helvetica,sans-Serif" font-size="10.00">UIMaster.createBookBox</text>
</a>
</g>
</g>
<!-- Node5&#45;&gt;Node6 -->
<g id="edge15_Node000005_Node000006" class="edge">
<title>Node5&#45;&gt;Node6</title>
<g id="a_edge15_Node000005_Node000006"><a xlink:title=" ">
<path fill="none" stroke="#63b8ff" d="M188.8,-15C176.61,-15 164.14,-15 152.16,-15"/>
<polygon fill="#63b8ff" stroke="#63b8ff" points="188.96,-18.5 198.96,-15 188.96,-11.5 188.96,-18.5"/>
</a>
</g>
</g>
</g>
</svg>
