<?xml version="1.0" encoding="UTF-8" standalone="no"?>
<!DOCTYPE svg PUBLIC "-//W3C//DTD SVG 1.1//EN"
 "http://www.w3.org/Graphics/SVG/1.1/DTD/svg11.dtd">
<!-- Generated by graphviz version 2.43.0 (0)
 -->
<!-- Title: com.example.mybookshelf.UIMaster.createBookBox Pages: 1 -->
<svg width="2205pt" height="986pt"
 viewBox="0.00 0.00 2205.00 986.00" xmlns="http://www.w3.org/2000/svg" xmlns:xlink="http://www.w3.org/1999/xlink">
<g id="graph0" class="graph" transform="scale(1 1) rotate(0) translate(4 982)">
<title>com.example.mybookshelf.UIMaster.createBookBox</title>
<!-- Node1 -->
<g id="Node000001" class="node">
<title>Node1</title>
<g id="a_Node000001"><a xlink:title=" ">
<polygon fill="#999999" stroke="#666666" points="152,-246 0,-246 0,-216 152,-216 152,-246"/>
<text text-anchor="start" x="8" y="-234" font-family="Helvetica,sans-Serif" font-size="10.00">com.example.mybookshelf.</text>
<text text-anchor="middle" x="76" y="-223" font-family="Helvetica,sans-Serif" font-size="10.00">UIMaster.createBookBox</text>
</a>
</g>
</g>
<!-- Node2 -->
<g id="Node000002" class="node">
<title>Node2</title>
<g id="a_Node000002"><a xlink:href="$classcom_1_1example_1_1mybookshelf_1_1dataClass_1_1Book.html#a72061c36f82e9d925effeb02dc0da55d" xlink:title=" ">
<polygon fill="white" stroke="#666666" points="1975,-375 1801,-375 1801,-345 1975,-345 1975,-375"/>
<text text-anchor="start" x="1809" y="-363" font-family="Helvetica,sans-Serif" font-size="10.00">com.example.mybookshelf.data</text>
<text text-anchor="middle" x="1888" y="-352" font-family="Helvetica,sans-Serif" font-size="10.00">Class.Book.getAuthor</text>
</a>
</g>
</g>
<!-- Node1&#45;&gt;Node2 -->
<g id="edge101_Node000001_Node000002" class="edge">
<title>Node1&#45;&gt;Node2</title>
<g id="a_edge101_Node000001_Node000002"><a xlink:title=" ">
<path fill="none" stroke="#63b8ff" d="M88.71,-246.02C107.09,-268.32 145.09,-309.43 188,-327 310,-376.95 352.17,-346 484,-346 484,-346 484,-346 1466,-346 1577.38,-346 1705.25,-350.96 1790.56,-354.97"/>
<polygon fill="#63b8ff" stroke="#63b8ff" points="1790.6,-358.48 1800.75,-355.45 1790.93,-351.48 1790.6,-358.48"/>
</a>
</g>
</g>
<!-- Node3 -->
<g id="Node000003" class="node">
<title>Node3</title>
<g id="a_Node000003"><a xlink:href="$classcom_1_1example_1_1mybookshelf_1_1UIMaster.html#ae7d87877ec33cbf6de7c0cb67ef5eb39" xlink:title=" ">
<polygon fill="white" stroke="#666666" points="351,-318 199,-318 199,-288 351,-288 351,-318"/>
<text text-anchor="start" x="207" y="-306" font-family="Helvetica,sans-Serif" font-size="10.00">com.example.mybookshelf.</text>
<text text-anchor="middle" x="275" y="-295" font-family="Helvetica,sans-Serif" font-size="10.00">UIMaster.getBtnAdd</text>
</a>
</g>
</g>
<!-- Node1&#45;&gt;Node3 -->
<g id="edge102_Node000001_Node000003" class="edge">
<title>Node1&#45;&gt;Node3</title>
<g id="a_edge102_Node000001_Node000003"><a xlink:title=" ">
<path fill="none" stroke="#63b8ff" d="M108.6,-246.03C130.56,-256.14 160.69,-269.33 188,-279 193.85,-281.07 199.97,-283.08 206.14,-285"/>
<polygon fill="#63b8ff" stroke="#63b8ff" points="205.25,-288.39 215.84,-287.93 207.28,-281.68 205.25,-288.39"/>
</a>
</g>
</g>
<!-- Node4 -->
<g id="Node000004" class="node">
<title>Node4</title>
<g id="a_Node000004"><a xlink:href="$classcom_1_1example_1_1mybookshelf_1_1UIMaster.html#a066a14333819f9cde27957ef8a02f180" xlink:title=" ">
<polygon fill="white" stroke="#666666" points="351,-270 199,-270 199,-240 351,-240 351,-270"/>
<text text-anchor="start" x="207" y="-258" font-family="Helvetica,sans-Serif" font-size="10.00">com.example.mybookshelf.</text>
<text text-anchor="middle" x="275" y="-247" font-family="Helvetica,sans-Serif" font-size="10.00">UIMaster.getBtnRemove</text>
</a>
</g>
</g>
<!-- Node1&#45;&gt;Node4 -->
<g id="edge103_Node000001_Node000004" class="edge">
<title>Node1&#45;&gt;Node4</title>
<g id="a_edge103_Node000001_Node000004"><a xlink:title=" ">
<path fill="none" stroke="#63b8ff" d="M152.04,-240.14C164.02,-241.6 176.49,-243.12 188.68,-244.61"/>
<polygon fill="#63b8ff" stroke="#63b8ff" points="188.49,-248.11 198.84,-245.84 189.34,-241.16 188.49,-248.11"/>
</a>
</g>
</g>
<!-- Node5 -->
<g id="Node000005" class="node">
<title>Node5</title>
<g id="a_Node000005"><a xlink:href="$classcom_1_1example_1_1mybookshelf_1_1dataClass_1_1Book.html#ab76b4ec7891e641d4c1a70a564805ffb" xlink:title=" ">
<polygon fill="white" stroke="#666666" points="362,-222 188,-222 188,-192 362,-192 362,-222"/>
<text text-anchor="start" x="196" y="-210" font-family="Helvetica,sans-Serif" font-size="10.00">com.example.mybookshelf.data</text>
<text text-anchor="middle" x="275" y="-199" font-family="Helvetica,sans-Serif" font-size="10.00">Class.Book.getId</text>
</a>
</g>
</g>
<!-- Node1&#45;&gt;Node5 -->
<g id="edge104_Node000001_Node000005" class="edge">
<title>Node1&#45;&gt;Node5</title>
<g id="a_edge104_Node000001_Node000005"><a xlink:title=" ">
<path fill="none" stroke="#63b8ff" d="M152.04,-221.86C160.48,-220.83 169.16,-219.77 177.82,-218.72"/>
<polygon fill="#63b8ff" stroke="#63b8ff" points="178.46,-222.17 187.96,-217.48 177.61,-215.22 178.46,-222.17"/>
</a>
</g>
</g>
<!-- Node6 -->
<g id="Node000006" class="node">
<title>Node6</title>
<g id="a_Node000006"><a xlink:href="$classcom_1_1example_1_1mybookshelf_1_1dataClass_1_1Book.html#a20229b9b1dcc454fc3f09a50e719294c" xlink:title=" ">
<polygon fill="white" stroke="#666666" points="362,-174 188,-174 188,-144 362,-144 362,-174"/>
<text text-anchor="start" x="196" y="-162" font-family="Helvetica,sans-Serif" font-size="10.00">com.example.mybookshelf.data</text>
<text text-anchor="middle" x="275" y="-151" font-family="Helvetica,sans-Serif" font-size="10.00">Class.Book.getImageUrl</text>
</a>
</g>
</g>
<!-- Node1&#45;&gt;Node6 -->
<g id="edge105_Node000001_Node000006" class="edge">
<title>Node1&#45;&gt;Node6</title>
<g id="a_edge105_Node000001_Node000006"><a xlink:title=" ">
<path fill="none" stroke="#63b8ff" d="M108.6,-215.97C130.56,-205.86 160.69,-192.67 188,-183 193.85,-180.93 199.97,-178.92 206.14,-177"/>
<polygon fill="#63b8ff" stroke="#63b8ff" points="207.28,-180.32 215.84,-174.07 205.25,-173.61 207.28,-180.32"/>
</a>
</g>
</g>
<!-- Node7 -->
<g id="Node000007" class="node">
<title>Node7</title>
<g id="a_Node000007"><a xlink:href="$classcom_1_1example_1_1mybookshelf_1_1dataClass_1_1Book.html#a4109da1bdee13601576c6725d6e89e71" xlink:title=" ">
<polygon fill="white" stroke="#666666" points="1975,-437 1801,-437 1801,-407 1975,-407 1975,-437"/>
<text text-anchor="start" x="1809" y="-425" font-family="Helvetica,sans-Serif" font-size="10.00">com.example.mybookshelf.data</text>
<text text-anchor="middle" x="1888" y="-414" font-family="Helvetica,sans-Serif" font-size="10.00">Class.Book.getName</text>
</a>
</g>
</g>
<!-- Node1&#45;&gt;Node7 -->
<g id="edge106_Node000001_Node000007" class="edge">
<title>Node1&#45;&gt;Node7</title>
<g id="a_edge106_Node000001_Node000007"><a xlink:title=" ">
<path fill="none" stroke="#63b8ff" d="M85.27,-246.23C101.11,-273.68 138.56,-330.92 188,-356 305.85,-415.78 351.86,-384 484,-384 484,-384 484,-384 1466,-384 1577.78,-384 1705.57,-397.45 1790.76,-408.35"/>
<polygon fill="#63b8ff" stroke="#63b8ff" points="1790.56,-411.85 1800.93,-409.66 1791.46,-404.91 1790.56,-411.85"/>
</a>
</g>
</g>
<!-- Node8 -->
<g id="Node000008" class="node">
<title>Node8</title>
<g id="a_Node000008"><a xlink:href="$classcom_1_1example_1_1mybookshelf_1_1dataClass_1_1Book.html#a013544b074d1a225d85d4870e85f2eb6" xlink:title=" ">
<polygon fill="white" stroke="#666666" points="362,-126 188,-126 188,-96 362,-96 362,-126"/>
<text text-anchor="start" x="196" y="-114" font-family="Helvetica,sans-Serif" font-size="10.00">com.example.mybookshelf.data</text>
<text text-anchor="middle" x="275" y="-103" font-family="Helvetica,sans-Serif" font-size="10.00">Class.Book.getRelease_date</text>
</a>
</g>
</g>
<!-- Node1&#45;&gt;Node8 -->
<g id="edge107_Node000001_Node000008" class="edge">
<title>Node1&#45;&gt;Node8</title>
<g id="a_edge107_Node000001_Node000008"><a xlink:title=" ">
<path fill="none" stroke="#63b8ff" d="M90.51,-215.67C109.99,-194.48 148.04,-156.45 188,-135 191.44,-133.16 195.03,-131.44 198.71,-129.85"/>
<polygon fill="#63b8ff" stroke="#63b8ff" points="200.02,-133.1 208.02,-126.15 197.43,-126.59 200.02,-133.1"/>
</a>
</g>
</g>
<!-- Node9 -->
<g id="Node000009" class="node">
<title>Node9</title>
<g id="a_Node000009"><a xlink:href="$classcom_1_1example_1_1mybookshelf_1_1UIMaster.html#ac2a608fcf86d3dbe14b4684dbbaf1431" xlink:title=" ">
<polygon fill="white" stroke="#666666" points="351,-715 199,-715 199,-685 351,-685 351,-715"/>
<text text-anchor="start" x="207" y="-703" font-family="Helvetica,sans-Serif" font-size="10.00">com.example.mybookshelf.</text>
<text text-anchor="middle" x="275" y="-692" font-family="Helvetica,sans-Serif" font-size="10.00">UIMaster.navigateToDetails</text>
</a>
</g>
</g>
<!-- Node1&#45;&gt;Node9 -->
<g id="edge108_Node000001_Node000009" class="edge">
<title>Node1&#45;&gt;Node9</title>
<g id="a_edge108_Node000001_Node000009"><a xlink:title=" ">
<path fill="none" stroke="#63b8ff" d="M83.33,-246.07C111.81,-313.87 228.19,-590.94 263.68,-675.43"/>
<polygon fill="#63b8ff" stroke="#63b8ff" points="260.49,-676.88 267.59,-684.75 266.95,-674.17 260.49,-676.88"/>
</a>
</g>
</g>
<!-- Node37 -->
<g id="Node000037" class="node">
<title>Node37</title>
<g id="a_Node000037"><a xlink:href="$classcom_1_1example_1_1mybookshelf_1_1dataClass_1_1Book.html#aac979a1131aa1e38e45ded0e55fcbc05" xlink:title=" ">
<polygon fill="white" stroke="#666666" points="362,-78 188,-78 188,-48 362,-48 362,-78"/>
<text text-anchor="start" x="196" y="-66" font-family="Helvetica,sans-Serif" font-size="10.00">com.example.mybookshelf.data</text>
<text text-anchor="middle" x="275" y="-55" font-family="Helvetica,sans-Serif" font-size="10.00">Class.Book.setAuthor</text>
</a>
</g>
</g>
<!-- Node1&#45;&gt;Node37 -->
<g id="edge149_Node000001_Node000037" class="edge">
<title>Node1&#45;&gt;Node37</title>
<g id="a_edge149_Node000001_Node000037"><a xlink:title=" ">
<path fill="none" stroke="#63b8ff" d="M84.44,-215.78C99.66,-186.28 137.22,-121.23 188,-87 190.41,-85.38 192.93,-83.86 195.53,-82.45"/>
<polygon fill="#63b8ff" stroke="#63b8ff" points="197.16,-85.54 204.62,-78.02 194.1,-79.25 197.16,-85.54"/>
</a>
</g>
</g>
<!-- Node38 -->
<g id="Node000038" class="node">
<title>Node38</title>
<g id="a_Node000038"><a xlink:href="$classcom_1_1example_1_1mybookshelf_1_1dataClass_1_1Book.html#a1059730606a2b2dd0f6e5d1e50f9bd3c" xlink:title=" ">
<polygon fill="white" stroke="#666666" points="362,-30 188,-30 188,0 362,0 362,-30"/>
<text text-anchor="start" x="196" y="-18" font-family="Helvetica,sans-Serif" font-size="10.00">com.example.mybookshelf.data</text>
<text text-anchor="middle" x="275" y="-7" font-family="Helvetica,sans-Serif" font-size="10.00">Class.Book.setRelease_date</text>
</a>
</g>
</g>
<!-- Node1&#45;&gt;Node38 -->
<g id="edge150_Node000001_Node000038" class="edge">
<title>Node1&#45;&gt;Node38</title>
<g id="a_edge150_Node000001_Node000038"><a xlink:title=" ">
<path fill="none" stroke="#63b8ff" d="M81.36,-215.88C92.62,-179.56 126.22,-86.88 188,-39 189.79,-37.61 191.66,-36.3 193.59,-35.07"/>
<polygon fill="#63b8ff" stroke="#63b8ff" points="195.38,-38.08 202.4,-30.14 191.96,-31.97 195.38,-38.08"/>
</a>
</g>
</g>
<!-- Node9&#45;&gt;Node7 -->
<g id="edge109_Node000009_Node000007" class="edge">
<title>Node9&#45;&gt;Node7</title>
<g id="a_edge109_Node000009_Node000007"><a xlink:title=" ">
<path fill="none" stroke="#63b8ff" d="M288.54,-684.66C337.69,-626.38 524.43,-422 726,-422 726,-422 726,-422 1466,-422 1577.32,-422 1705.2,-422 1790.53,-422"/>
<polygon fill="#63b8ff" stroke="#63b8ff" points="1790.73,-425.5 1800.73,-422 1790.73,-418.5 1790.73,-425.5"/>
</a>
</g>
</g>
<!-- Node10 -->
<g id="Node000010" class="node">
<title>Node10</title>
<g id="a_Node000010"><a xlink:href="$classcom_1_1example_1_1mybookshelf_1_1dataClass_1_1Book.html#a7c4ec1f3e154fad200b64643574e5c9c" xlink:title=" ">
<polygon fill="white" stroke="#666666" points="572,-715 398,-715 398,-685 572,-685 572,-715"/>
<text text-anchor="start" x="406" y="-703" font-family="Helvetica,sans-Serif" font-size="10.00">com.example.mybookshelf.data</text>
<text text-anchor="middle" x="485" y="-692" font-family="Helvetica,sans-Serif" font-size="10.00">Class.Book.getStatus</text>
</a>
</g>
</g>
<!-- Node9&#45;&gt;Node10 -->
<g id="edge110_Node000009_Node000010" class="edge">
<title>Node9&#45;&gt;Node10</title>
<g id="a_edge110_Node000009_Node000010"><a xlink:title=" ">
<path fill="none" stroke="#63b8ff" d="M351.09,-700C362.91,-700 375.27,-700 387.49,-700"/>
<polygon fill="#63b8ff" stroke="#63b8ff" points="387.71,-703.5 397.71,-700 387.71,-696.5 387.71,-703.5"/>
</a>
</g>
</g>
<!-- Node11 -->
<g id="Node000011" class="node">
<title>Node11</title>
<g id="a_Node000011"><a xlink:href="$classcom_1_1example_1_1mybookshelf_1_1UIMaster.html#ad30bff41c8ec833af2293c0b6c8b47b2" xlink:title=" ">
<polygon fill="white" stroke="#666666" points="561,-801 409,-801 409,-771 561,-771 561,-801"/>
<text text-anchor="start" x="417" y="-789" font-family="Helvetica,sans-Serif" font-size="10.00">com.example.mybookshelf.</text>
<text text-anchor="middle" x="485" y="-778" font-family="Helvetica,sans-Serif" font-size="10.00">UIMaster.navigateToGoals</text>
</a>
</g>
</g>
<!-- Node9&#45;&gt;Node11 -->
<g id="edge111_Node000009_Node000011" class="edge">
<title>Node9&#45;&gt;Node11</title>
<g id="a_edge111_Node000009_Node000011"><a xlink:title=" ">
<path fill="none" stroke="#63b8ff" d="M305.67,-715C330.13,-727.09 365.88,-744.13 398,-757 407.21,-760.69 417.1,-764.32 426.77,-767.7"/>
<polygon fill="#63b8ff" stroke="#63b8ff" points="425.74,-771.05 436.34,-770.99 428.02,-764.43 425.74,-771.05"/>
</a>
</g>
</g>
<!-- Node12 -->
<g id="Node000012" class="node">
<title>Node12</title>
<g id="a_Node000012"><a xlink:href="$classcom_1_1example_1_1mybookshelf_1_1UIMaster.html#ac859db60f9068e6a87b633ef697d4d0f" xlink:title=" ">
<polygon fill="white" stroke="#666666" points="805,-672 649,-672 649,-642 805,-642 805,-672"/>
<text text-anchor="start" x="657" y="-660" font-family="Helvetica,sans-Serif" font-size="10.00">com.example.mybookshelf.</text>
<text text-anchor="middle" x="727" y="-649" font-family="Helvetica,sans-Serif" font-size="10.00">UIMaster.navigateToSettings</text>
</a>
</g>
</g>
<!-- Node9&#45;&gt;Node12 -->
<g id="edge146_Node000009_Node000012" class="edge">
<title>Node9&#45;&gt;Node12</title>
<g id="a_edge146_Node000009_Node000012"><a xlink:title=" ">
<path fill="none" stroke="#63b8ff" d="M343.81,-684.96C361.38,-681.53 380.33,-678.24 398,-676 479.11,-665.72 572.21,-661 638.46,-658.83"/>
<polygon fill="#63b8ff" stroke="#63b8ff" points="638.97,-662.31 648.85,-658.5 638.75,-655.32 638.97,-662.31"/>
</a>
</g>
</g>
<!-- Node17 -->
<g id="Node000017" class="node">
<title>Node17</title>
<g id="a_Node000017"><a xlink:href="$classcom_1_1example_1_1mybookshelf_1_1UIMaster.html#ad609d5e0b54e87afcb60aed6c66a792e" xlink:title=" ">
<polygon fill="white" stroke="#666666" points="1098,-796 920,-796 920,-766 1098,-766 1098,-796"/>
<text text-anchor="start" x="928" y="-784" font-family="Helvetica,sans-Serif" font-size="10.00">com.example.mybookshelf.</text>
<text text-anchor="middle" x="1009" y="-773" font-family="Helvetica,sans-Serif" font-size="10.00">UIMaster.navigateToStartingPage</text>
</a>
</g>
</g>
<!-- Node9&#45;&gt;Node17 -->
<g id="edge147_Node000009_Node000017" class="edge">
<title>Node9&#45;&gt;Node17</title>
<g id="a_edge147_Node000009_Node000017"><a xlink:title=" ">
<path fill="none" stroke="#63b8ff" d="M346.11,-715.05C363.04,-718.34 381.12,-721.56 398,-724 577.51,-749.98 788.54,-766.64 909.45,-774.87"/>
<polygon fill="#63b8ff" stroke="#63b8ff" points="909.57,-778.38 919.79,-775.57 910.04,-771.4 909.57,-778.38"/>
</a>
</g>
</g>
<!-- Node23 -->
<g id="Node000023" class="node">
<title>Node23</title>
<g id="a_Node000023"><a xlink:href="$classcom_1_1example_1_1mybookshelf_1_1UIMaster.html#aa3079f36c20fc1b0ec8c01197f06faa3" xlink:title=" ">
<polygon fill="white" stroke="#666666" points="1541,-858 1389,-858 1389,-828 1541,-828 1541,-858"/>
<text text-anchor="start" x="1397" y="-846" font-family="Helvetica,sans-Serif" font-size="10.00">com.example.mybookshelf.</text>
<text text-anchor="middle" x="1465" y="-835" font-family="Helvetica,sans-Serif" font-size="10.00">UIMaster.navigateToStats</text>
</a>
</g>
</g>
<!-- Node9&#45;&gt;Node23 -->
<g id="edge148_Node000009_Node000023" class="edge">
<title>Node9&#45;&gt;Node23</title>
<g id="a_edge148_Node000009_Node000023"><a xlink:title=" ">
<path fill="none" stroke="#63b8ff" d="M289.87,-715.03C311.39,-737.73 354.84,-781.16 398,-810 528.79,-897.4 568.69,-943 726,-943 726,-943 726,-943 1010,-943 1164.68,-943 1203.6,-924.08 1353,-884 1375,-878.1 1398.76,-869.62 1418.63,-861.9"/>
<polygon fill="#63b8ff" stroke="#63b8ff" points="1420.03,-865.11 1428.05,-858.19 1417.46,-858.6 1420.03,-865.11"/>
</a>
</g>
</g>
<!-- Node11&#45;&gt;Node12 -->
<g id="edge112_Node000011_Node000012" class="edge">
<title>Node11&#45;&gt;Node12</title>
<g id="a_edge112_Node000011_Node000012"><a xlink:title=" ">
<path fill="none" stroke="#63b8ff" d="M506.88,-770.76C545.18,-747.1 627.51,-702.37 679.63,-676.46"/>
<polygon fill="#63b8ff" stroke="#63b8ff" points="681.25,-679.56 688.68,-672.01 678.16,-673.28 681.25,-679.56"/>
</a>
</g>
</g>
<!-- Node11&#45;&gt;Node17 -->
<g id="edge143_Node000011_Node000017" class="edge">
<title>Node11&#45;&gt;Node17</title>
<g id="a_edge143_Node000011_Node000017"><a xlink:title=" ">
<path fill="none" stroke="#63b8ff" d="M561.07,-785.28C652.85,-784.4 808.44,-782.91 909.69,-781.94"/>
<polygon fill="#63b8ff" stroke="#63b8ff" points="909.96,-785.44 919.93,-781.84 909.89,-778.44 909.96,-785.44"/>
</a>
</g>
</g>
<!-- Node11&#45;&gt;Node23 -->
<g id="edge144_Node000011_Node000023" class="edge">
<title>Node11&#45;&gt;Node23</title>
<g id="a_edge144_Node000011_Node000023"><a xlink:title=" ">
<path fill="none" stroke="#63b8ff" d="M498.26,-801.26C518.28,-824.8 560.55,-869.04 608,-886 747.99,-936.04 1190.98,-881.76 1378.66,-855.53"/>
<polygon fill="#63b8ff" stroke="#63b8ff" points="1379.34,-858.97 1388.75,-854.11 1378.36,-852.04 1379.34,-858.97"/>
</a>
</g>
</g>
<!-- Node36 -->
<g id="Node000036" class="node">
<title>Node36</title>
<g id="a_Node000036"><a xlink:href="$classcom_1_1example_1_1mybookshelf_1_1LayoutManager_1_1CustomGoalAdapter.html#abad93cc513b4470ac284a0756e1c3f65" xlink:title=" ">
<polygon fill="white" stroke="#666666" points="846,-877 608,-877 608,-847 846,-847 846,-877"/>
<text text-anchor="start" x="616" y="-865" font-family="Helvetica,sans-Serif" font-size="10.00">com.example.mybookshelf.</text>
<text text-anchor="middle" x="727" y="-854" font-family="Helvetica,sans-Serif" font-size="10.00">LayoutManager.CustomGoalAdapter.setGoals</text>
</a>
</g>
</g>
<!-- Node11&#45;&gt;Node36 -->
<g id="edge145_Node000011_Node000036" class="edge">
<title>Node11&#45;&gt;Node36</title>
<g id="a_edge145_Node000011_Node000036"><a xlink:title=" ">
<path fill="none" stroke="#63b8ff" d="M521.61,-801.09C545.72,-810.97 578.44,-823.72 608,-833 621.04,-837.1 635.03,-840.97 648.66,-844.49"/>
<polygon fill="#63b8ff" stroke="#63b8ff" points="647.96,-847.92 658.51,-846.97 649.67,-841.13 647.96,-847.92"/>
</a>
</g>
</g>
<!-- Node12&#45;&gt;Node11 -->
<g id="edge117_Node000012_Node000011" class="edge">
<title>Node12&#45;&gt;Node11</title>
<g id="a_edge117_Node000012_Node000011"><a xlink:title=" ">
<path fill="none" stroke="#63b8ff" d="M705.43,-672.04C667.32,-695.62 584.85,-740.45 532.57,-766.44"/>
<polygon fill="#63b8ff" stroke="#63b8ff" points="530.92,-763.35 523.5,-770.91 534.02,-769.63 530.92,-763.35"/>
</a>
</g>
</g>
<!-- Node13 -->
<g id="Node000013" class="node">
<title>Node13</title>
<g id="a_Node000013"><a xlink:href="$classcom_1_1example_1_1mybookshelf_1_1Authenticator.html#a57eb5913cd07c88e3f0771b4bf88bc0c" xlink:title=" ">
<polygon fill="white" stroke="#666666" points="1093,-672 925,-672 925,-642 1093,-642 1093,-672"/>
<text text-anchor="start" x="933" y="-660" font-family="Helvetica,sans-Serif" font-size="10.00">com.example.mybookshelf.</text>
<text text-anchor="middle" x="1009" y="-649" font-family="Helvetica,sans-Serif" font-size="10.00">Authenticator.clearStoredToken</text>
</a>
</g>
</g>
<!-- Node12&#45;&gt;Node13 -->
<g id="edge113_Node000012_Node000013" class="edge">
<title>Node12&#45;&gt;Node13</title>
<g id="a_edge113_Node000012_Node000013"><a xlink:title=" ">
<path fill="none" stroke="#63b8ff" d="M805.25,-657C838.99,-657 878.86,-657 914.28,-657"/>
<polygon fill="#63b8ff" stroke="#63b8ff" points="914.62,-660.5 924.62,-657 914.62,-653.5 914.62,-660.5"/>
</a>
</g>
</g>
<!-- Node14 -->
<g id="Node000014" class="node">
<title>Node14</title>
<g id="a_Node000014"><a xlink:href="$classcom_1_1example_1_1mybookshelf_1_1notifications_1_1NotificationScheduler.html#aaf3ebda4b3bc3da4f2c4e8cabb4a3602" xlink:title=" ">
<polygon fill="white" stroke="#666666" points="1131,-576 887,-576 887,-546 1131,-546 1131,-576"/>
<text text-anchor="start" x="895" y="-564" font-family="Helvetica,sans-Serif" font-size="10.00">com.example.mybookshelf.notifications.</text>
<text text-anchor="middle" x="1009" y="-553" font-family="Helvetica,sans-Serif" font-size="10.00">NotificationScheduler.getDailyNotificationHour</text>
</a>
</g>
</g>
<!-- Node12&#45;&gt;Node14 -->
<g id="edge114_Node000012_Node000014" class="edge">
<title>Node12&#45;&gt;Node14</title>
<g id="a_edge114_Node000012_Node000014"><a xlink:title=" ">
<path fill="none" stroke="#63b8ff" d="M754.98,-641.85C785.08,-625.56 835.66,-599.98 882,-585 889.37,-582.62 897.07,-580.44 904.87,-578.45"/>
<polygon fill="#63b8ff" stroke="#63b8ff" points="905.9,-581.8 914.78,-576.03 904.24,-575 905.9,-581.8"/>
</a>
</g>
</g>
<!-- Node15 -->
<g id="Node000015" class="node">
<title>Node15</title>
<g id="a_Node000015"><a xlink:href="$classcom_1_1example_1_1mybookshelf_1_1notifications_1_1NotificationScheduler.html#ad29a9938277c2a671b0399cdc84c7844" xlink:title=" ">
<polygon fill="white" stroke="#666666" points="1136,-528 882,-528 882,-498 1136,-498 1136,-528"/>
<text text-anchor="start" x="890" y="-516" font-family="Helvetica,sans-Serif" font-size="10.00">com.example.mybookshelf.notifications.</text>
<text text-anchor="middle" x="1009" y="-505" font-family="Helvetica,sans-Serif" font-size="10.00">NotificationScheduler.getDailyNotificationMinute</text>
</a>
</g>
</g>
<!-- Node12&#45;&gt;Node15 -->
<g id="edge115_Node000012_Node000015" class="edge">
<title>Node12&#45;&gt;Node15</title>
<g id="a_edge115_Node000012_Node000015"><a xlink:title=" ">
<path fill="none" stroke="#63b8ff" d="M742.54,-641.66C768.11,-615.68 823.95,-563.28 882,-537 886.64,-534.9 891.45,-532.99 896.37,-531.24"/>
<polygon fill="#63b8ff" stroke="#63b8ff" points="897.54,-534.54 905.94,-528.08 895.35,-527.89 897.54,-534.54"/>
</a>
</g>
</g>
<!-- Node16 -->
<g id="Node000016" class="node">
<title>Node16</title>
<g id="a_Node000016"><a xlink:href="$classcom_1_1example_1_1mybookshelf_1_1notifications_1_1NotificationScheduler.html#ac8a096801252bd85cf58f0b4ded28ebe" xlink:title=" ">
<polygon fill="white" stroke="#666666" points="1131,-480 887,-480 887,-450 1131,-450 1131,-480"/>
<text text-anchor="start" x="895" y="-468" font-family="Helvetica,sans-Serif" font-size="10.00">com.example.mybookshelf.notifications.</text>
<text text-anchor="middle" x="1009" y="-457" font-family="Helvetica,sans-Serif" font-size="10.00">NotificationScheduler.isDailyNotificationActive</text>
</a>
</g>
</g>
<!-- Node12&#45;&gt;Node16 -->
<g id="edge116_Node000012_Node000016" class="edge">
<title>Node12&#45;&gt;Node16</title>
<g id="a_edge116_Node000012_Node000016"><a xlink:title=" ">
<path fill="none" stroke="#63b8ff" d="M736.96,-641.93C757.77,-608.4 812.88,-527.53 882,-489 885.25,-487.19 888.62,-485.51 892.07,-483.95"/>
<polygon fill="#63b8ff" stroke="#63b8ff" points="893.47,-487.16 901.39,-480.12 890.81,-480.69 893.47,-487.16"/>
</a>
</g>
</g>
<!-- Node12&#45;&gt;Node17 -->
<g id="edge118_Node000012_Node000017" class="edge">
<title>Node12&#45;&gt;Node17</title>
<g id="a_edge118_Node000012_Node000017"><a xlink:title=" ">
<path fill="none" stroke="#63b8ff" d="M752.95,-672.02C776.9,-686.48 814.04,-709.04 846,-729 862.1,-739.06 864.49,-744.65 882,-752 892.25,-756.3 903.24,-760.02 914.31,-763.23"/>
<polygon fill="#63b8ff" stroke="#63b8ff" points="913.47,-766.63 924.04,-765.91 915.33,-759.88 913.47,-766.63"/>
</a>
</g>
</g>
<!-- Node12&#45;&gt;Node23 -->
<g id="edge139_Node000012_Node000023" class="edge">
<title>Node12&#45;&gt;Node23</title>
<g id="a_edge139_Node000012_Node000023"><a xlink:title=" ">
<path fill="none" stroke="#63b8ff" d="M805.1,-669.41C829.66,-673.26 856.95,-677.42 882,-681 1091.91,-710.99 1160.03,-669.11 1353,-757 1387.43,-772.68 1420.9,-800.95 1441.93,-820.78"/>
<polygon fill="#63b8ff" stroke="#63b8ff" points="1439.72,-823.52 1449.35,-827.93 1444.58,-818.47 1439.72,-823.52"/>
</a>
</g>
</g>
<!-- Node34 -->
<g id="Node000034" class="node">
<title>Node34</title>
<g id="a_Node000034"><a xlink:href="$classcom_1_1example_1_1mybookshelf_1_1UIMaster.html#a5d06d53d8ef756629247fde0f557a3d1" xlink:title=" ">
<polygon fill="white" stroke="#666666" points="1085,-624 933,-624 933,-594 1085,-594 1085,-624"/>
<text text-anchor="start" x="941" y="-612" font-family="Helvetica,sans-Serif" font-size="10.00">com.example.mybookshelf.</text>
<text text-anchor="middle" x="1009" y="-601" font-family="Helvetica,sans-Serif" font-size="10.00">UIMaster.showLogin</text>
</a>
</g>
</g>
<!-- Node12&#45;&gt;Node34 -->
<g id="edge140_Node000012_Node000034" class="edge">
<title>Node12&#45;&gt;Node34</title>
<g id="a_edge140_Node000012_Node000034"><a xlink:title=" ">
<path fill="none" stroke="#63b8ff" d="M805.25,-643.76C841.81,-637.49 885.56,-629.99 923.04,-623.56"/>
<polygon fill="#63b8ff" stroke="#63b8ff" points="923.67,-627.01 932.93,-621.87 922.49,-620.11 923.67,-627.01"/>
</a>
</g>
</g>
<!-- Node18 -->
<g id="Node000018" class="node">
<title>Node18</title>
<g id="a_Node000018"><a xlink:href="$classcom_1_1example_1_1mybookshelf_1_1UIMaster.html#aa6aad8404432bdaf23db9b41e99a6ed5" xlink:title=" ">
<polygon fill="white" stroke="#666666" points="1353,-796 1172,-796 1172,-766 1353,-766 1353,-796"/>
<text text-anchor="start" x="1180" y="-784" font-family="Helvetica,sans-Serif" font-size="10.00">com.example.mybookshelf.</text>
<text text-anchor="middle" x="1262.5" y="-773" font-family="Helvetica,sans-Serif" font-size="10.00">UIMaster.setupNavigationButtons</text>
</a>
</g>
</g>
<!-- Node17&#45;&gt;Node18 -->
<g id="edge119_Node000017_Node000018" class="edge">
<title>Node17&#45;&gt;Node18</title>
<g id="a_edge119_Node000017_Node000018"><a xlink:title=" ">
<path fill="none" stroke="#63b8ff" d="M1098.32,-781C1118.75,-781 1140.64,-781 1161.53,-781"/>
<polygon fill="#63b8ff" stroke="#63b8ff" points="1161.7,-784.5 1171.7,-781 1161.7,-777.5 1161.7,-784.5"/>
</a>
</g>
</g>
<!-- Node18&#45;&gt;Node11 -->
<g id="edge126_Node000018_Node000011" class="edge">
<title>Node18&#45;&gt;Node11</title>
<g id="a_edge126_Node000018_Node000011"><a xlink:title=" ">
<path fill="none" stroke="#63b8ff" d="M1195.4,-796.06C1176.34,-799.75 1155.43,-803.16 1136,-805 934.31,-824.11 695.98,-807.09 571.49,-795.21"/>
<polygon fill="#63b8ff" stroke="#63b8ff" points="571.55,-791.7 561.26,-794.22 570.88,-798.66 571.55,-791.7"/>
</a>
</g>
</g>
<!-- Node18&#45;&gt;Node12 -->
<g id="edge127_Node000018_Node000012" class="edge">
<title>Node18&#45;&gt;Node12</title>
<g id="a_edge127_Node000018_Node000012"><a xlink:title=" ">
<path fill="none" stroke="#63b8ff" d="M1184.22,-765.95C1168.29,-762.93 1151.61,-759.81 1136,-757 1023.32,-736.69 992.61,-743.56 882,-714 844.22,-703.91 802.72,-688.27 772.33,-675.92"/>
<polygon fill="#63b8ff" stroke="#63b8ff" points="773.45,-672.6 762.87,-672.04 770.79,-679.07 773.45,-672.6"/>
</a>
</g>
</g>
<!-- Node19 -->
<g id="Node000019" class="node">
<title>Node19</title>
<g id="a_Node000019"><a xlink:href="$classcom_1_1example_1_1mybookshelf_1_1UIMaster.html#a4636b546c38ace5aedccfd989edc0bb1" xlink:title=" ">
<polygon fill="white" stroke="#666666" points="1541,-528 1389,-528 1389,-498 1541,-498 1541,-528"/>
<text text-anchor="start" x="1397" y="-516" font-family="Helvetica,sans-Serif" font-size="10.00">com.example.mybookshelf.</text>
<text text-anchor="middle" x="1465" y="-505" font-family="Helvetica,sans-Serif" font-size="10.00">UIMaster.handleListSearch</text>
</a>
</g>
</g>
<!-- Node18&#45;&gt;Node19 -->
<g id="edge120_Node000018_Node000019" class="edge">
<title>Node18&#45;&gt;Node19</title>
<g id="a_edge120_Node000018_Node000019"><a xlink:title=" ">
<path fill="none" stroke="#63b8ff" d="M1274.85,-765.82C1308.28,-721.14 1406.51,-589.84 1446.63,-536.22"/>
<polygon fill="#63b8ff" stroke="#63b8ff" points="1449.58,-538.11 1452.77,-528.01 1443.98,-533.92 1449.58,-538.11"/>
</a>
</g>
</g>
<!-- Node18&#45;&gt;Node23 -->
<g id="edge128_Node000018_Node000023" class="edge">
<title>Node18&#45;&gt;Node23</title>
<g id="a_edge128_Node000018_Node000023"><a xlink:title=" ">
<path fill="none" stroke="#63b8ff" d="M1312.04,-796.01C1340.15,-804.7 1375.74,-815.71 1405.4,-824.88"/>
<polygon fill="#63b8ff" stroke="#63b8ff" points="1404.63,-828.3 1415.22,-827.91 1406.7,-821.62 1404.63,-828.3"/>
</a>
</g>
</g>
<!-- Node20 -->
<g id="Node000020" class="node">
<title>Node20</title>
<g id="a_Node000020"><a xlink:href="$classcom_1_1example_1_1mybookshelf_1_1UIMaster.html#a3e552449814fd4b18a4070128261c571" xlink:title=" ">
<polygon fill="white" stroke="#666666" points="1747,-480 1595,-480 1595,-450 1747,-450 1747,-480"/>
<text text-anchor="start" x="1603" y="-468" font-family="Helvetica,sans-Serif" font-size="10.00">com.example.mybookshelf.</text>
<text text-anchor="middle" x="1671" y="-457" font-family="Helvetica,sans-Serif" font-size="10.00">UIMaster.fillSpinners</text>
</a>
</g>
</g>
<!-- Node19&#45;&gt;Node20 -->
<g id="edge121_Node000019_Node000020" class="edge">
<title>Node19&#45;&gt;Node20</title>
<g id="a_edge121_Node000019_Node000020"><a xlink:title=" ">
<path fill="none" stroke="#63b8ff" d="M1529.99,-497.94C1551.06,-492.99 1574.67,-487.43 1596.4,-482.32"/>
<polygon fill="#63b8ff" stroke="#63b8ff" points="1597.31,-485.7 1606.24,-480 1595.7,-478.89 1597.31,-485.7"/>
</a>
</g>
</g>
<!-- Node21 -->
<g id="Node000021" class="node">
<title>Node21</title>
<g id="a_Node000021"><a xlink:href="$classcom_1_1example_1_1mybookshelf_1_1UIMaster.html#a39a8f40aa163994c415f165d94ee47fd" xlink:title=" ">
<polygon fill="white" stroke="#666666" points="1747,-528 1595,-528 1595,-498 1747,-498 1747,-528"/>
<text text-anchor="start" x="1603" y="-516" font-family="Helvetica,sans-Serif" font-size="10.00">com.example.mybookshelf.</text>
<text text-anchor="middle" x="1671" y="-505" font-family="Helvetica,sans-Serif" font-size="10.00">UIMaster.filterBooks</text>
</a>
</g>
</g>
<!-- Node19&#45;&gt;Node21 -->
<g id="edge122_Node000019_Node000021" class="edge">
<title>Node19&#45;&gt;Node21</title>
<g id="a_edge122_Node000019_Node000021"><a xlink:title=" ">
<path fill="none" stroke="#63b8ff" d="M1541.09,-513C1555.17,-513 1569.99,-513 1584.36,-513"/>
<polygon fill="#63b8ff" stroke="#63b8ff" points="1584.73,-516.5 1594.72,-513 1584.72,-509.5 1584.73,-516.5"/>
</a>
</g>
</g>
<!-- Node21&#45;&gt;Node2 -->
<g id="edge123_Node000021_Node000002" class="edge">
<title>Node21&#45;&gt;Node2</title>
<g id="a_edge123_Node000021_Node000002"><a xlink:title=" ">
<path fill="none" stroke="#63b8ff" d="M1747.31,-500.44C1753.72,-497.4 1759.75,-493.64 1765,-489 1797.6,-460.21 1770.86,-429.35 1801,-398 1808.2,-390.51 1817.14,-384.39 1826.5,-379.43"/>
<polygon fill="#63b8ff" stroke="#63b8ff" points="1828.11,-382.55 1835.57,-375.03 1825.05,-376.25 1828.11,-382.55"/>
</a>
</g>
</g>
<!-- Node21&#45;&gt;Node7 -->
<g id="edge125_Node000021_Node000007" class="edge">
<title>Node21&#45;&gt;Node7</title>
<g id="a_edge125_Node000021_Node000007"><a xlink:title=" ">
<path fill="none" stroke="#63b8ff" d="M1738.7,-497.95C1747.65,-495.3 1756.63,-492.32 1765,-489 1796.87,-476.37 1830.89,-457.16 1854.88,-442.54"/>
<polygon fill="#63b8ff" stroke="#63b8ff" points="1856.89,-445.42 1863.56,-437.19 1853.21,-439.46 1856.89,-445.42"/>
</a>
</g>
</g>
<!-- Node22 -->
<g id="Node000022" class="node">
<title>Node22</title>
<g id="a_Node000022"><a xlink:href="$classcom_1_1example_1_1mybookshelf_1_1dataClass_1_1Book.html#ab78862de4a0e97e9190086f397a88fd4" xlink:title=" ">
<polygon fill="white" stroke="#666666" points="1975,-528 1801,-528 1801,-498 1975,-498 1975,-528"/>
<text text-anchor="start" x="1809" y="-516" font-family="Helvetica,sans-Serif" font-size="10.00">com.example.mybookshelf.data</text>
<text text-anchor="middle" x="1888" y="-505" font-family="Helvetica,sans-Serif" font-size="10.00">Class.Book.getGenre</text>
</a>
</g>
</g>
<!-- Node21&#45;&gt;Node22 -->
<g id="edge124_Node000021_Node000022" class="edge">
<title>Node21&#45;&gt;Node22</title>
<g id="a_edge124_Node000021_Node000022"><a xlink:title=" ">
<path fill="none" stroke="#63b8ff" d="M1747.2,-513C1761.27,-513 1776.15,-513 1790.75,-513"/>
<polygon fill="#63b8ff" stroke="#63b8ff" points="1790.8,-516.5 1800.8,-513 1790.8,-509.5 1790.8,-516.5"/>
</a>
</g>
</g>
<!-- Node24 -->
<g id="Node000024" class="node">
<title>Node24</title>
<g id="a_Node000024"><a xlink:href="$classcom_1_1example_1_1mybookshelf_1_1UIMaster.html#aeadc13ea946b279afce35c39bb36f3b6" xlink:title=" ">
<polygon fill="white" stroke="#666666" points="1747,-810 1595,-810 1595,-780 1747,-780 1747,-810"/>
<text text-anchor="start" x="1603" y="-798" font-family="Helvetica,sans-Serif" font-size="10.00">com.example.mybookshelf.</text>
<text text-anchor="middle" x="1671" y="-787" font-family="Helvetica,sans-Serif" font-size="10.00">UIMaster.initializeViews</text>
</a>
</g>
</g>
<!-- Node23&#45;&gt;Node24 -->
<g id="edge129_Node000023_Node000024" class="edge">
<title>Node23&#45;&gt;Node24</title>
<g id="a_edge129_Node000023_Node000024"><a xlink:title=" ">
<path fill="none" stroke="#63b8ff" d="M1529.99,-827.94C1551.06,-822.99 1574.67,-817.43 1596.4,-812.32"/>
<polygon fill="#63b8ff" stroke="#63b8ff" points="1597.31,-815.7 1606.24,-810 1595.7,-808.89 1597.31,-815.7"/>
</a>
</g>
</g>
<!-- Node25 -->
<g id="Node000025" class="node">
<title>Node25</title>
<g id="a_Node000025"><a xlink:href="$classcom_1_1example_1_1mybookshelf_1_1UIMaster.html#a5c502183bab9192d9f38b42a28be7164" xlink:title=" ">
<polygon fill="white" stroke="#666666" points="1752.5,-906 1589.5,-906 1589.5,-876 1752.5,-876 1752.5,-906"/>
<text text-anchor="start" x="1597.5" y="-894" font-family="Helvetica,sans-Serif" font-size="10.00">com.example.mybookshelf.</text>
<text text-anchor="middle" x="1671" y="-883" font-family="Helvetica,sans-Serif" font-size="10.00">UIMaster.loadChartDataAsync</text>
</a>
</g>
</g>
<!-- Node23&#45;&gt;Node25 -->
<g id="edge130_Node000023_Node000025" class="edge">
<title>Node23&#45;&gt;Node25</title>
<g id="a_edge130_Node000023_Node000025"><a xlink:title=" ">
<path fill="none" stroke="#63b8ff" d="M1529.99,-858.06C1551.06,-863.01 1574.67,-868.57 1596.4,-873.68"/>
<polygon fill="#63b8ff" stroke="#63b8ff" points="1595.7,-877.11 1606.24,-876 1597.31,-870.3 1595.7,-877.11"/>
</a>
</g>
</g>
<!-- Node33 -->
<g id="Node000033" class="node">
<title>Node33</title>
<g id="a_Node000033"><a xlink:href="$classcom_1_1example_1_1mybookshelf_1_1UIMaster.html#a3bb75047e98f0333fa2fdfd173bc80b0" xlink:title=" ">
<polygon fill="white" stroke="#666666" points="1765,-858 1577,-858 1577,-828 1765,-828 1765,-858"/>
<text text-anchor="start" x="1585" y="-846" font-family="Helvetica,sans-Serif" font-size="10.00">com.example.mybookshelf.</text>
<text text-anchor="middle" x="1671" y="-835" font-family="Helvetica,sans-Serif" font-size="10.00">UIMaster.setupNavigationListeners</text>
</a>
</g>
</g>
<!-- Node23&#45;&gt;Node33 -->
<g id="edge138_Node000023_Node000033" class="edge">
<title>Node23&#45;&gt;Node33</title>
<g id="a_edge138_Node000023_Node000033"><a xlink:title=" ">
<path fill="none" stroke="#63b8ff" d="M1541.09,-843C1549.42,-843 1558.01,-843 1566.61,-843"/>
<polygon fill="#63b8ff" stroke="#63b8ff" points="1566.7,-846.5 1576.7,-843 1566.7,-839.5 1566.7,-846.5"/>
</a>
</g>
</g>
<!-- Node26 -->
<g id="Node000026" class="node">
<title>Node26</title>
<g id="a_Node000026"><a xlink:href="$classcom_1_1example_1_1mybookshelf_1_1UIMaster.html#a1d0b44fba73323953ffbbf69f4f3f4cb" xlink:title=" ">
<polygon fill="white" stroke="#666666" points="1964,-882 1812,-882 1812,-852 1964,-852 1964,-882"/>
<text text-anchor="start" x="1820" y="-870" font-family="Helvetica,sans-Serif" font-size="10.00">com.example.mybookshelf.</text>
<text text-anchor="middle" x="1888" y="-859" font-family="Helvetica,sans-Serif" font-size="10.00">UIMaster.setupChart</text>
</a>
</g>
</g>
<!-- Node25&#45;&gt;Node26 -->
<g id="edge131_Node000025_Node000026" class="edge">
<title>Node25&#45;&gt;Node26</title>
<g id="a_edge131_Node000025_Node000026"><a xlink:title=" ">
<path fill="none" stroke="#63b8ff" d="M1752.67,-882C1768.75,-880.2 1785.69,-878.31 1801.92,-876.5"/>
<polygon fill="#63b8ff" stroke="#63b8ff" points="1802.37,-879.97 1811.92,-875.38 1801.59,-873.01 1802.37,-879.97"/>
</a>
</g>
</g>
<!-- Node32 -->
<g id="Node000032" class="node">
<title>Node32</title>
<g id="a_Node000032"><a xlink:href="$classcom_1_1example_1_1mybookshelf_1_1UIMaster.html#a3beb8f5e82c56206227f83e05d2e2dba" xlink:title=" ">
<polygon fill="white" stroke="#666666" points="1965.5,-930 1810.5,-930 1810.5,-900 1965.5,-900 1965.5,-930"/>
<text text-anchor="start" x="1818.5" y="-918" font-family="Helvetica,sans-Serif" font-size="10.00">com.example.mybookshelf.</text>
<text text-anchor="middle" x="1888" y="-907" font-family="Helvetica,sans-Serif" font-size="10.00">UIMaster.showErrorMessage</text>
</a>
</g>
</g>
<!-- Node25&#45;&gt;Node32 -->
<g id="edge137_Node000025_Node000032" class="edge">
<title>Node25&#45;&gt;Node32</title>
<g id="a_edge137_Node000025_Node000032"><a xlink:title=" ">
<path fill="none" stroke="#63b8ff" d="M1752.67,-900C1768.11,-901.73 1784.35,-903.54 1799.98,-905.29"/>
<polygon fill="#63b8ff" stroke="#63b8ff" points="1799.82,-908.79 1810.15,-906.42 1800.6,-901.83 1799.82,-908.79"/>
</a>
</g>
</g>
<!-- Node27 -->
<g id="Node000027" class="node">
<title>Node27</title>
<g id="a_Node000027"><a xlink:href="$classcom_1_1example_1_1mybookshelf_1_1UIMaster.html#a66cf6ce29c43e6db34be85ae9990c102" xlink:title=" ">
<polygon fill="white" stroke="#666666" points="2180,-978 2028,-978 2028,-948 2180,-948 2180,-978"/>
<text text-anchor="start" x="2036" y="-966" font-family="Helvetica,sans-Serif" font-size="10.00">com.example.mybookshelf.</text>
<text text-anchor="middle" x="2104" y="-955" font-family="Helvetica,sans-Serif" font-size="10.00">UIMaster.configureAxes</text>
</a>
</g>
</g>
<!-- Node26&#45;&gt;Node27 -->
<g id="edge132_Node000026_Node000027" class="edge">
<title>Node26&#45;&gt;Node27</title>
<g id="a_edge132_Node000026_Node000027"><a xlink:title=" ">
<path fill="none" stroke="#63b8ff" d="M1958.86,-882.14C1964.54,-884.66 1970.01,-887.59 1975,-891 1997.01,-906.05 1988.86,-924.14 2011,-939 2013.44,-940.64 2015.99,-942.17 2018.61,-943.59"/>
<polygon fill="#63b8ff" stroke="#63b8ff" points="2017.28,-946.83 2027.81,-948.04 2020.33,-940.53 2017.28,-946.83"/>
</a>
</g>
</g>
<!-- Node28 -->
<g id="Node000028" class="node">
<title>Node28</title>
<g id="a_Node000028"><a xlink:href="$classcom_1_1example_1_1mybookshelf_1_1UIMaster.html#ae589c66b6b1826db14cd0185e2453c12" xlink:title=" ">
<polygon fill="white" stroke="#666666" points="2180,-930 2028,-930 2028,-900 2180,-900 2180,-930"/>
<text text-anchor="start" x="2036" y="-918" font-family="Helvetica,sans-Serif" font-size="10.00">com.example.mybookshelf.</text>
<text text-anchor="middle" x="2104" y="-907" font-family="Helvetica,sans-Serif" font-size="10.00">UIMaster.configureChart</text>
</a>
</g>
</g>
<!-- Node26&#45;&gt;Node28 -->
<g id="edge133_Node000026_Node000028" class="edge">
<title>Node26&#45;&gt;Node28</title>
<g id="a_edge133_Node000026_Node000028"><a xlink:title=" ">
<path fill="none" stroke="#63b8ff" d="M1956.12,-882.06C1978.33,-887.04 2003.22,-892.62 2026.1,-897.75"/>
<polygon fill="#63b8ff" stroke="#63b8ff" points="2025.59,-901.22 2036.11,-900 2027.12,-894.39 2025.59,-901.22"/>
</a>
</g>
</g>
<!-- Node29 -->
<g id="Node000029" class="node">
<title>Node29</title>
<g id="a_Node000029"><a xlink:href="$classcom_1_1example_1_1mybookshelf_1_1UIMaster.html#a2f446043c1019868262b5e49ddb58609" xlink:title=" ">
<polygon fill="white" stroke="#666666" points="2193,-882 2015,-882 2015,-852 2193,-852 2193,-882"/>
<text text-anchor="start" x="2023" y="-870" font-family="Helvetica,sans-Serif" font-size="10.00">com.example.mybookshelf.</text>
<text text-anchor="middle" x="2104" y="-859" font-family="Helvetica,sans-Serif" font-size="10.00">UIMaster.convertMinutesToHours</text>
</a>
</g>
</g>
<!-- Node26&#45;&gt;Node29 -->
<g id="edge134_Node000026_Node000029" class="edge">
<title>Node26&#45;&gt;Node29</title>
<g id="a_edge134_Node000026_Node000029"><a xlink:title=" ">
<path fill="none" stroke="#63b8ff" d="M1964.15,-867C1977.2,-867 1990.95,-867 2004.51,-867"/>
<polygon fill="#63b8ff" stroke="#63b8ff" points="2004.83,-870.5 2014.83,-867 2004.83,-863.5 2004.83,-870.5"/>
</a>
</g>
</g>
<!-- Node30 -->
<g id="Node000030" class="node">
<title>Node30</title>
<g id="a_Node000030"><a xlink:href="$classcom_1_1example_1_1mybookshelf_1_1UIMaster.html#a5368b8b93b9216d91a256a2302ea04c8" xlink:title=" ">
<polygon fill="white" stroke="#666666" points="2197,-834 2011,-834 2011,-804 2197,-804 2197,-834"/>
<text text-anchor="start" x="2019" y="-822" font-family="Helvetica,sans-Serif" font-size="10.00">com.example.mybookshelf.</text>
<text text-anchor="middle" x="2104" y="-811" font-family="Helvetica,sans-Serif" font-size="10.00">UIMaster.displayTotalReadingTime</text>
</a>
</g>
</g>
<!-- Node26&#45;&gt;Node30 -->
<g id="edge135_Node000026_Node000030" class="edge">
<title>Node26&#45;&gt;Node30</title>
<g id="a_edge135_Node000026_Node000030"><a xlink:title=" ">
<path fill="none" stroke="#63b8ff" d="M1956.12,-851.94C1978.33,-846.96 2003.22,-841.38 2026.1,-836.25"/>
<polygon fill="#63b8ff" stroke="#63b8ff" points="2027.12,-839.61 2036.11,-834 2025.59,-832.78 2027.12,-839.61"/>
</a>
</g>
</g>
<!-- Node31 -->
<g id="Node000031" class="node">
<title>Node31</title>
<g id="a_Node000031"><a xlink:href="$classcom_1_1example_1_1mybookshelf_1_1UIMaster.html#a897a27ba41fe604acf9472257ad18685" xlink:title=" ">
<polygon fill="white" stroke="#666666" points="2180,-786 2028,-786 2028,-756 2180,-756 2180,-786"/>
<text text-anchor="start" x="2036" y="-774" font-family="Helvetica,sans-Serif" font-size="10.00">com.example.mybookshelf.</text>
<text text-anchor="middle" x="2104" y="-763" font-family="Helvetica,sans-Serif" font-size="10.00">UIMaster.filterValidEntries</text>
</a>
</g>
</g>
<!-- Node26&#45;&gt;Node31 -->
<g id="edge136_Node000026_Node000031" class="edge">
<title>Node26&#45;&gt;Node31</title>
<g id="a_edge136_Node000026_Node000031"><a xlink:title=" ">
<path fill="none" stroke="#63b8ff" d="M1910.52,-851.79C1934.16,-835.68 1973.76,-810.49 2011,-795 2016.05,-792.9 2021.33,-790.94 2026.7,-789.12"/>
<polygon fill="#63b8ff" stroke="#63b8ff" points="2027.98,-792.39 2036.43,-786 2025.84,-785.72 2027.98,-792.39"/>
</a>
</g>
</g>
<!-- Node35 -->
<g id="Node000035" class="node">
<title>Node35</title>
<g id="a_Node000035"><a xlink:href="$classcom_1_1example_1_1mybookshelf_1_1UIMaster.html#a5f5bae724e7f3d3de15486430b3bc8c1" xlink:title=" ">
<polygon fill="white" stroke="#666666" points="1338.5,-624 1186.5,-624 1186.5,-594 1338.5,-594 1338.5,-624"/>
<text text-anchor="start" x="1194.5" y="-612" font-family="Helvetica,sans-Serif" font-size="10.00">com.example.mybookshelf.</text>
<text text-anchor="middle" x="1262.5" y="-601" font-family="Helvetica,sans-Serif" font-size="10.00">UIMaster.showRegister</text>
</a>
</g>
</g>
<!-- Node34&#45;&gt;Node35 -->
<g id="edge141_Node000034_Node000035" class="edge">
<title>Node34&#45;&gt;Node35</title>
<g id="a_edge141_Node000034_Node000035"><a xlink:title=" ">
<path fill="none" stroke="#63b8ff" d="M1085.12,-602.76C1113.73,-602.15 1146.55,-602.09 1176.05,-602.57"/>
<polygon fill="#63b8ff" stroke="#63b8ff" points="1176.27,-606.07 1186.34,-602.76 1176.4,-599.07 1176.27,-606.07"/>
</a>
</g>
</g>
<!-- Node35&#45;&gt;Node34 -->
<g id="edge142_Node000035_Node000034" class="edge">
<title>Node35&#45;&gt;Node34</title>
<g id="a_edge142_Node000035_Node000034"><a xlink:title=" ">
<path fill="none" stroke="#63b8ff" d="M1186.34,-615.24C1157.72,-615.85 1124.9,-615.91 1095.4,-615.43"/>
<polygon fill="#63b8ff" stroke="#63b8ff" points="1095.18,-611.93 1085.12,-615.24 1095.05,-618.93 1095.18,-611.93"/>
</a>
</g>
</g>
</g>
</svg>
