<?xml version="1.0" encoding="UTF-8" standalone="no"?>
<!DOCTYPE svg PUBLIC "-//W3C//DTD SVG 1.1//EN"
 "http://www.w3.org/Graphics/SVG/1.1/DTD/svg11.dtd">
<!-- Generated by graphviz version 2.43.0 (0)
 -->
<!-- Title: com.example.mybookshelf.BookRecommendationFlow.buildAIStringBased Pages: 1 -->
<svg width="2325pt" height="746pt"
 viewBox="0.00 0.00 2325.00 745.92" xmlns="http://www.w3.org/2000/svg" xmlns:xlink="http://www.w3.org/1999/xlink">
<g id="graph0" class="graph" transform="scale(1 1) rotate(0) translate(4 741.92)">
<title>com.example.mybookshelf.BookRecommendationFlow.buildAIStringBased</title>
<!-- Node1 -->
<g id="Node000001" class="node">
<title>Node1</title>
<g id="a_Node000001"><a xlink:title=" ">
<polygon fill="#999999" stroke="#666666" points="177,-658.56 0,-658.56 0,-617.56 177,-617.56 177,-658.56"/>
<text text-anchor="start" x="8" y="-646.56" font-family="Helvetica,sans-Serif" font-size="10.00">com.example.mybookshelf.</text>
<text text-anchor="start" x="8" y="-635.56" font-family="Helvetica,sans-Serif" font-size="10.00">BookRecommendationFlow.build</text>
<text text-anchor="middle" x="88.5" y="-624.56" font-family="Helvetica,sans-Serif" font-size="10.00">AIStringBased</text>
</a>
</g>
</g>
<!-- Node2 -->
<g id="Node000002" class="node">
<title>Node2</title>
<g id="a_Node000002"><a xlink:href="$classcom_1_1example_1_1mybookshelf_1_1BookRecommendationFlow.html#ae50cf18619872a365eebe91c18d86e8d" xlink:title=" ">
<polygon fill="white" stroke="#666666" points="393,-550.06 213,-550.06 213,-520.06 393,-520.06 393,-550.06"/>
<text text-anchor="start" x="221" y="-538.06" font-family="Helvetica,sans-Serif" font-size="10.00">com.example.mybookshelf.</text>
<text text-anchor="middle" x="303" y="-527.06" font-family="Helvetica,sans-Serif" font-size="10.00">BookRecommendationFlow.callAI</text>
</a>
</g>
</g>
<!-- Node1&#45;&gt;Node2 -->
<g id="edge79_Node000001_Node000002" class="edge">
<title>Node1&#45;&gt;Node2</title>
<g id="a_edge79_Node000001_Node000002"><a xlink:title=" ">
<path fill="none" stroke="#63b8ff" d="M131.99,-617.46C169.84,-599.11 224.83,-572.46 261.93,-554.48"/>
<polygon fill="#63b8ff" stroke="#63b8ff" points="263.48,-557.62 270.95,-550.11 260.43,-551.32 263.48,-557.62"/>
</a>
</g>
</g>
<!-- Node2&#45;&gt;Node2 -->
<g id="edge81_Node000002_Node000002" class="edge">
<title>Node2&#45;&gt;Node2</title>
<g id="a_edge81_Node000002_Node000002"><a xlink:title=" ">
<path fill="none" stroke="#63b8ff" d="M265.38,-550.33C257.02,-559.46 269.56,-568.06 303,-568.06 322.85,-568.06 335.34,-565.03 340.46,-560.65"/>
<polygon fill="#63b8ff" stroke="#63b8ff" points="343.96,-560.38 340.62,-550.33 336.96,-560.28 343.96,-560.38"/>
</a>
</g>
</g>
<!-- Node3 -->
<g id="Node000003" class="node">
<title>Node3</title>
<g id="a_Node000003"><a xlink:href="$classcom_1_1example_1_1mybookshelf_1_1BookRecommendationFlow.html#a3855117e802e54923c308e0df6280c17" xlink:title=" ">
<polygon fill="white" stroke="#666666" points="2317,-568.56 2123,-568.56 2123,-527.56 2317,-527.56 2317,-568.56"/>
<text text-anchor="start" x="2131" y="-556.56" font-family="Helvetica,sans-Serif" font-size="10.00">com.example.mybookshelf.</text>
<text text-anchor="start" x="2131" y="-545.56" font-family="Helvetica,sans-Serif" font-size="10.00">BookRecommendationFlow.addChat</text>
<text text-anchor="middle" x="2220" y="-534.56" font-family="Helvetica,sans-Serif" font-size="10.00">Message</text>
</a>
</g>
</g>
<!-- Node2&#45;&gt;Node3 -->
<g id="edge80_Node000002_Node000003" class="edge">
<title>Node2&#45;&gt;Node3</title>
<g id="a_edge80_Node000002_Node000003"><a xlink:title=" ">
<path fill="none" stroke="#63b8ff" d="M313.84,-550.18C332.51,-577.41 376.02,-634.08 429,-658.06 646.71,-756.58 1262.54,-736.06 1501.5,-736.06 1501.5,-736.06 1501.5,-736.06 1744.5,-736.06 1900.23,-736.06 1947.63,-731.55 2087,-662.06 2129.67,-640.78 2169.78,-602.55 2194.35,-576.27"/>
<polygon fill="#63b8ff" stroke="#63b8ff" points="2196.96,-578.6 2201.15,-568.86 2191.81,-573.86 2196.96,-578.6"/>
</a>
</g>
</g>
<!-- Node4 -->
<g id="Node000004" class="node">
<title>Node4</title>
<g id="a_Node000004"><a xlink:href="$classcom_1_1example_1_1mybookshelf_1_1BookRecommendationFlow.html#a02b6d699653b58f244907bd10db53ab5" xlink:title=" ">
<polygon fill="white" stroke="#666666" points="2312,-242.56 2128,-242.56 2128,-201.56 2312,-201.56 2312,-242.56"/>
<text text-anchor="start" x="2136" y="-230.56" font-family="Helvetica,sans-Serif" font-size="10.00">com.example.mybookshelf.</text>
<text text-anchor="start" x="2136" y="-219.56" font-family="Helvetica,sans-Serif" font-size="10.00">BookRecommendationFlow.create</text>
<text text-anchor="middle" x="2220" y="-208.56" font-family="Helvetica,sans-Serif" font-size="10.00">StyledGridButton</text>
</a>
</g>
</g>
<!-- Node2&#45;&gt;Node4 -->
<g id="edge82_Node000002_Node000004" class="edge">
<title>Node2&#45;&gt;Node4</title>
<g id="a_edge82_Node000002_Node000004"><a xlink:title=" ">
<path fill="none" stroke="#63b8ff" d="M309.78,-519.89C342.31,-437.35 510.86,-46.06 783,-46.06 783,-46.06 783,-46.06 1744.5,-46.06 1897.43,-46.06 1954.03,-3.52 2087,-79.06 2110.5,-92.4 2105.29,-107.65 2123,-128.06 2143.52,-151.7 2168.9,-176.38 2188.41,-194.52"/>
<polygon fill="#63b8ff" stroke="#63b8ff" points="2186.12,-197.17 2195.85,-201.38 2190.87,-192.02 2186.12,-197.17"/>
</a>
</g>
</g>
<!-- Node5 -->
<g id="Node000005" class="node">
<title>Node5</title>
<g id="a_Node000005"><a xlink:href="$classcom_1_1example_1_1mybookshelf_1_1apis_1_1AiAPI.html#a4a45b91f0717302661d9e35ed956c049" xlink:title=" ">
<polygon fill="white" stroke="#666666" points="627.5,-631.06 451.5,-631.06 451.5,-601.06 627.5,-601.06 627.5,-631.06"/>
<text text-anchor="start" x="459.5" y="-619.06" font-family="Helvetica,sans-Serif" font-size="10.00">com.example.mybookshelf.apis.</text>
<text text-anchor="middle" x="539.5" y="-608.06" font-family="Helvetica,sans-Serif" font-size="10.00">AiAPI.fetchResponse</text>
</a>
</g>
</g>
<!-- Node2&#45;&gt;Node5 -->
<g id="edge83_Node000002_Node000005" class="edge">
<title>Node2&#45;&gt;Node5</title>
<g id="a_edge83_Node000002_Node000005"><a xlink:title=" ">
<path fill="none" stroke="#63b8ff" d="M332.59,-550.21C357.48,-562.88 394.83,-580.67 429,-592.06 435.85,-594.34 443.02,-596.47 450.27,-598.44"/>
<polygon fill="#63b8ff" stroke="#63b8ff" points="449.62,-601.88 460.18,-601.02 451.39,-595.11 449.62,-601.88"/>
</a>
</g>
</g>
<!-- Node6 -->
<g id="Node000006" class="node">
<title>Node6</title>
<g id="a_Node000006"><a xlink:href="$classcom_1_1example_1_1mybookshelf_1_1BookRecommendationFlow.html#a4dceb0fa4d170b8c7e5a7a6718593dfe" xlink:title=" ">
<polygon fill="white" stroke="#666666" points="639.5,-523.06 439.5,-523.06 439.5,-493.06 639.5,-493.06 639.5,-523.06"/>
<text text-anchor="start" x="447.5" y="-511.06" font-family="Helvetica,sans-Serif" font-size="10.00">com.example.mybookshelf.</text>
<text text-anchor="middle" x="539.5" y="-500.06" font-family="Helvetica,sans-Serif" font-size="10.00">BookRecommendationFlow.handleNo</text>
</a>
</g>
</g>
<!-- Node2&#45;&gt;Node6 -->
<g id="edge85_Node000002_Node000006" class="edge">
<title>Node2&#45;&gt;Node6</title>
<g id="a_edge85_Node000002_Node000006"><a xlink:title=" ">
<path fill="none" stroke="#63b8ff" d="M393.32,-524.77C405.05,-523.42 417.18,-522.03 429.19,-520.64"/>
<polygon fill="#63b8ff" stroke="#63b8ff" points="429.71,-524.11 439.25,-519.48 428.91,-517.15 429.71,-524.11"/>
</a>
</g>
</g>
<!-- Node17 -->
<g id="Node000017" class="node">
<title>Node17</title>
<g id="a_Node000017"><a xlink:href="$classcom_1_1example_1_1mybookshelf_1_1BookRecommendationFlow.html#ac62af5d6edeffa96b2862a609ebb40df" xlink:title=" ">
<polygon fill="white" stroke="#666666" points="647.5,-582.56 431.5,-582.56 431.5,-541.56 647.5,-541.56 647.5,-582.56"/>
<text text-anchor="start" x="439.5" y="-570.56" font-family="Helvetica,sans-Serif" font-size="10.00">com.example.mybookshelf.</text>
<text text-anchor="start" x="439.5" y="-559.56" font-family="Helvetica,sans-Serif" font-size="10.00">BookRecommendationFlow.hideThinking</text>
<text text-anchor="middle" x="539.5" y="-548.56" font-family="Helvetica,sans-Serif" font-size="10.00">Animation</text>
</a>
</g>
</g>
<!-- Node2&#45;&gt;Node17 -->
<g id="edge116_Node000002_Node000017" class="edge">
<title>Node2&#45;&gt;Node17</title>
<g id="a_edge116_Node000002_Node000017"><a xlink:title=" ">
<path fill="none" stroke="#63b8ff" d="M393.32,-545.34C402.45,-546.39 411.81,-547.47 421.18,-548.55"/>
<polygon fill="#63b8ff" stroke="#63b8ff" points="420.99,-552.05 431.33,-549.72 421.8,-545.1 420.99,-552.05"/>
</a>
</g>
</g>
<!-- Node18 -->
<g id="Node000018" class="node">
<title>Node18</title>
<g id="a_Node000018"><a xlink:href="$classcom_1_1example_1_1mybookshelf_1_1BookRecommendationFlow.html#a78597ba37409daeee77dcfa6236b2e6a" xlink:title=" ">
<polygon fill="white" stroke="#666666" points="650,-474.56 429,-474.56 429,-433.56 650,-433.56 650,-474.56"/>
<text text-anchor="start" x="437" y="-462.56" font-family="Helvetica,sans-Serif" font-size="10.00">com.example.mybookshelf.</text>
<text text-anchor="start" x="437" y="-451.56" font-family="Helvetica,sans-Serif" font-size="10.00">BookRecommendationFlow.showThinking</text>
<text text-anchor="middle" x="539.5" y="-440.56" font-family="Helvetica,sans-Serif" font-size="10.00">Animation</text>
</a>
</g>
</g>
<!-- Node2&#45;&gt;Node18 -->
<g id="edge117_Node000002_Node000018" class="edge">
<title>Node2&#45;&gt;Node18</title>
<g id="a_edge117_Node000002_Node000018"><a xlink:title=" ">
<path fill="none" stroke="#63b8ff" d="M337.8,-519.98C362.72,-509.18 397.6,-494.72 429,-484.06 435.67,-481.79 442.62,-479.57 449.63,-477.43"/>
<polygon fill="#63b8ff" stroke="#63b8ff" points="450.63,-480.79 459.21,-474.57 448.62,-474.08 450.63,-480.79"/>
</a>
</g>
</g>
<!-- Node5&#45;&gt;Node5 -->
<g id="edge84_Node000005_Node000005" class="edge">
<title>Node5&#45;&gt;Node5</title>
<g id="a_edge84_Node000005_Node000005"><a xlink:title=" ">
<path fill="none" stroke="#63b8ff" d="M498.02,-631.33C488.8,-640.46 502.63,-649.06 539.5,-649.06 561.39,-649.06 575.16,-646.03 580.81,-641.65"/>
<polygon fill="#63b8ff" stroke="#63b8ff" points="584.31,-641.39 580.98,-631.33 577.31,-641.27 584.31,-641.39"/>
</a>
</g>
</g>
<!-- Node6&#45;&gt;Node3 -->
<g id="edge86_Node000006_Node000003" class="edge">
<title>Node6&#45;&gt;Node3</title>
<g id="a_edge86_Node000006_Node000003"><a xlink:title=" ">
<path fill="none" stroke="#63b8ff" d="M626.15,-523.08C645.78,-526.27 666.59,-529.46 686,-532.06 1215.09,-602.77 1348.37,-628.78 1882,-642.06 1973.08,-644.32 2000.22,-669.8 2087,-642.06 2127.62,-629.07 2166.42,-598.5 2191.31,-575.73"/>
<polygon fill="#63b8ff" stroke="#63b8ff" points="2193.98,-578.03 2198.89,-568.64 2189.2,-572.92 2193.98,-578.03"/>
</a>
</g>
</g>
<!-- Node6&#45;&gt;Node4 -->
<g id="edge87_Node000006_Node000004" class="edge">
<title>Node6&#45;&gt;Node4</title>
<g id="a_edge87_Node000006_Node000004"><a xlink:title=" ">
<path fill="none" stroke="#63b8ff" d="M630.93,-492.96C637.57,-490.44 644.01,-487.49 650,-484.06 859.98,-363.72 777.48,-84.06 1019.5,-84.06 1019.5,-84.06 1019.5,-84.06 1744.5,-84.06 1898.09,-84.06 1943.87,-74.36 2087,-130.06 2125.52,-145.05 2163.62,-173.45 2188.91,-194.75"/>
<polygon fill="#63b8ff" stroke="#63b8ff" points="2186.78,-197.54 2196.65,-201.39 2191.34,-192.22 2186.78,-197.54"/>
</a>
</g>
</g>
<!-- Node7 -->
<g id="Node000007" class="node">
<title>Node7</title>
<g id="a_Node000007"><a xlink:href="$classcom_1_1example_1_1mybookshelf_1_1BookRecommendationFlow.html#a22f0dcaea578fbd7358e6237cd4873d4" xlink:title=" ">
<polygon fill="white" stroke="#666666" points="882,-523.06 686,-523.06 686,-493.06 882,-493.06 882,-523.06"/>
<text text-anchor="start" x="694" y="-511.06" font-family="Helvetica,sans-Serif" font-size="10.00">com.example.mybookshelf.</text>
<text text-anchor="middle" x="784" y="-500.06" font-family="Helvetica,sans-Serif" font-size="10.00">BookRecommendationFlow.handleAI</text>
</a>
</g>
</g>
<!-- Node6&#45;&gt;Node7 -->
<g id="edge88_Node000006_Node000007" class="edge">
<title>Node6&#45;&gt;Node7</title>
<g id="a_edge88_Node000006_Node000007"><a xlink:title=" ">
<path fill="none" stroke="#63b8ff" d="M639.83,-508.06C651.57,-508.06 663.59,-508.06 675.43,-508.06"/>
<polygon fill="#63b8ff" stroke="#63b8ff" points="675.78,-511.56 685.78,-508.06 675.78,-504.56 675.78,-511.56"/>
</a>
</g>
</g>
<!-- Node8 -->
<g id="Node000008" class="node">
<title>Node8</title>
<g id="a_Node000008"><a xlink:href="$classcom_1_1example_1_1mybookshelf_1_1BookRecommendationFlow.html#a276e931dabe3e85af257a9d16ce7cc67" xlink:title=" ">
<polygon fill="white" stroke="#666666" points="1604,-555.56 1401,-555.56 1401,-514.56 1604,-514.56 1604,-555.56"/>
<text text-anchor="start" x="1409" y="-543.56" font-family="Helvetica,sans-Serif" font-size="10.00">com.example.mybookshelf.</text>
<text text-anchor="start" x="1409" y="-532.56" font-family="Helvetica,sans-Serif" font-size="10.00">BookRecommendationFlow.showBook</text>
<text text-anchor="middle" x="1502.5" y="-521.56" font-family="Helvetica,sans-Serif" font-size="10.00">BasedStep1</text>
</a>
</g>
</g>
<!-- Node7&#45;&gt;Node8 -->
<g id="edge89_Node000007_Node000008" class="edge">
<title>Node7&#45;&gt;Node8</title>
<g id="a_edge89_Node000007_Node000008"><a xlink:title=" ">
<path fill="none" stroke="#63b8ff" d="M882,-511.71C1014.41,-516.7 1251.14,-525.62 1390.48,-530.87"/>
<polygon fill="#63b8ff" stroke="#63b8ff" points="1390.63,-534.38 1400.76,-531.26 1390.9,-527.39 1390.63,-534.38"/>
</a>
</g>
</g>
<!-- Node11 -->
<g id="Node000011" class="node">
<title>Node11</title>
<g id="a_Node000011"><a xlink:href="$classcom_1_1example_1_1mybookshelf_1_1BookRecommendationFlow.html#a4c7dc337216592f7f214f69ce7009d37" xlink:title=" ">
<polygon fill="white" stroke="#666666" points="1123,-455.56 918,-455.56 918,-414.56 1123,-414.56 1123,-455.56"/>
<text text-anchor="start" x="926" y="-443.56" font-family="Helvetica,sans-Serif" font-size="10.00">com.example.mybookshelf.</text>
<text text-anchor="start" x="926" y="-432.56" font-family="Helvetica,sans-Serif" font-size="10.00">BookRecommendationFlow.showFresh</text>
<text text-anchor="middle" x="1020.5" y="-421.56" font-family="Helvetica,sans-Serif" font-size="10.00">StartStep1</text>
</a>
</g>
</g>
<!-- Node7&#45;&gt;Node11 -->
<g id="edge99_Node000007_Node000011" class="edge">
<title>Node7&#45;&gt;Node11</title>
<g id="a_edge99_Node000007_Node000011"><a xlink:title=" ">
<path fill="none" stroke="#63b8ff" d="M833.3,-493.02C865.18,-483.1 907.6,-469.89 943.9,-458.59"/>
<polygon fill="#63b8ff" stroke="#63b8ff" points="944.97,-461.92 953.48,-455.61 942.89,-455.24 944.97,-461.92"/>
</a>
</g>
</g>
<!-- Node8&#45;&gt;Node3 -->
<g id="edge90_Node000008_Node000003" class="edge">
<title>Node8&#45;&gt;Node3</title>
<g id="a_edge90_Node000008_Node000003"><a xlink:title=" ">
<path fill="none" stroke="#63b8ff" d="M1567.93,-555.62C1676.05,-587.22 1900.49,-640.36 2087,-603.06 2116.36,-597.18 2147.35,-584.64 2171.92,-573.01"/>
<polygon fill="#63b8ff" stroke="#63b8ff" points="2173.53,-576.12 2181,-568.62 2170.48,-569.82 2173.53,-576.12"/>
</a>
</g>
</g>
<!-- Node8&#45;&gt;Node4 -->
<g id="edge91_Node000008_Node000004" class="edge">
<title>Node8&#45;&gt;Node4</title>
<g id="a_edge91_Node000008_Node000004"><a xlink:title=" ">
<path fill="none" stroke="#63b8ff" d="M1537.7,-514.46C1602.59,-476.23 1749,-394.03 1882,-348.06 1969.99,-317.64 2000.69,-339.94 2087,-305.06 2122.18,-290.84 2158.4,-267.31 2183.98,-248.93"/>
<polygon fill="#63b8ff" stroke="#63b8ff" points="2186.22,-251.63 2192.23,-242.91 2182.09,-245.98 2186.22,-251.63"/>
</a>
</g>
</g>
<!-- Node9 -->
<g id="Node000009" class="node">
<title>Node9</title>
<g id="a_Node000009"><a xlink:href="$classcom_1_1example_1_1mybookshelf_1_1BookRecommendationFlow.html#a5c657be258c13c85848c7b7115f8a0b5" xlink:title=" ">
<polygon fill="white" stroke="#666666" points="1845,-555.56 1642,-555.56 1642,-514.56 1845,-514.56 1845,-555.56"/>
<text text-anchor="start" x="1650" y="-543.56" font-family="Helvetica,sans-Serif" font-size="10.00">com.example.mybookshelf.</text>
<text text-anchor="start" x="1650" y="-532.56" font-family="Helvetica,sans-Serif" font-size="10.00">BookRecommendationFlow.showBook</text>
<text text-anchor="middle" x="1743.5" y="-521.56" font-family="Helvetica,sans-Serif" font-size="10.00">BasedStep2</text>
</a>
</g>
</g>
<!-- Node8&#45;&gt;Node9 -->
<g id="edge92_Node000008_Node000009" class="edge">
<title>Node8&#45;&gt;Node9</title>
<g id="a_edge92_Node000008_Node000009"><a xlink:title=" ">
<path fill="none" stroke="#63b8ff" d="M1604.16,-535.06C1613.35,-535.06 1622.68,-535.06 1631.94,-535.06"/>
<polygon fill="#63b8ff" stroke="#63b8ff" points="1631.95,-538.56 1641.95,-535.06 1631.95,-531.56 1631.95,-538.56"/>
</a>
</g>
</g>
<!-- Node9&#45;&gt;Node3 -->
<g id="edge93_Node000009_Node000003" class="edge">
<title>Node9&#45;&gt;Node3</title>
<g id="a_edge93_Node000009_Node000003"><a xlink:title=" ">
<path fill="none" stroke="#63b8ff" d="M1845.29,-537.6C1913.52,-539.35 2005.69,-541.76 2087,-544.06 2095.32,-544.29 2103.93,-544.54 2112.59,-544.79"/>
<polygon fill="#63b8ff" stroke="#63b8ff" points="2112.66,-548.3 2122.76,-545.09 2112.86,-541.3 2112.66,-548.3"/>
</a>
</g>
</g>
<!-- Node9&#45;&gt;Node4 -->
<g id="edge94_Node000009_Node000004" class="edge">
<title>Node9&#45;&gt;Node4</title>
<g id="a_edge94_Node000009_Node000004"><a xlink:title=" ">
<path fill="none" stroke="#63b8ff" d="M1790.82,-514.55C1858.85,-483.39 1988.4,-420.09 2087,-348.06 2127.28,-318.63 2167.95,-277.73 2193.29,-250.61"/>
<polygon fill="#63b8ff" stroke="#63b8ff" points="2196.1,-252.72 2200.33,-243.01 2190.97,-247.97 2196.1,-252.72"/>
</a>
</g>
</g>
<!-- Node10 -->
<g id="Node000010" class="node">
<title>Node10</title>
<g id="a_Node000010"><a xlink:href="$classcom_1_1example_1_1mybookshelf_1_1BookRecommendationFlow.html#aa95301256c7f5377d1bc432189483b3c" xlink:title=" ">
<polygon fill="white" stroke="#666666" points="2086,-593.56 1883,-593.56 1883,-552.56 2086,-552.56 2086,-593.56"/>
<text text-anchor="start" x="1891" y="-581.56" font-family="Helvetica,sans-Serif" font-size="10.00">com.example.mybookshelf.</text>
<text text-anchor="start" x="1891" y="-570.56" font-family="Helvetica,sans-Serif" font-size="10.00">BookRecommendationFlow.showBook</text>
<text text-anchor="middle" x="1984.5" y="-559.56" font-family="Helvetica,sans-Serif" font-size="10.00">BasedStep3</text>
</a>
</g>
</g>
<!-- Node9&#45;&gt;Node10 -->
<g id="edge95_Node000009_Node000010" class="edge">
<title>Node9&#45;&gt;Node10</title>
<g id="a_edge95_Node000009_Node000010"><a xlink:title=" ">
<path fill="none" stroke="#63b8ff" d="M1845.16,-551.06C1854.35,-552.52 1863.68,-554.01 1872.94,-555.48"/>
<polygon fill="#63b8ff" stroke="#63b8ff" points="1872.53,-558.96 1882.95,-557.07 1873.63,-552.04 1872.53,-558.96"/>
</a>
</g>
</g>
<!-- Node10&#45;&gt;Node1 -->
<g id="edge97_Node000010_Node000001" class="edge">
<title>Node10&#45;&gt;Node1</title>
<g id="a_edge97_Node000010_Node000001"><a xlink:title=" ">
<path fill="none" stroke="#63b8ff" d="M1894.23,-593.62C1695.91,-637.44 1203.14,-736.06 785,-736.06 538.5,-736.06 538.5,-736.06 538.5,-736.06 399.83,-736.06 242.5,-690.89 155.76,-661.88"/>
<polygon fill="#63b8ff" stroke="#63b8ff" points="156.64,-658.48 146.05,-658.6 154.4,-665.12 156.64,-658.48"/>
</a>
</g>
</g>
<!-- Node10&#45;&gt;Node3 -->
<g id="edge96_Node000010_Node000003" class="edge">
<title>Node10&#45;&gt;Node3</title>
<g id="a_edge96_Node000010_Node000003"><a xlink:title=" ">
<path fill="none" stroke="#63b8ff" d="M2086.22,-562.27C2094.91,-561.34 2103.73,-560.4 2112.47,-559.46"/>
<polygon fill="#63b8ff" stroke="#63b8ff" points="2113.11,-562.91 2122.68,-558.37 2112.36,-555.95 2113.11,-562.91"/>
</a>
</g>
</g>
<!-- Node10&#45;&gt;Node4 -->
<g id="edge98_Node000010_Node000004" class="edge">
<title>Node10&#45;&gt;Node4</title>
<g id="a_edge98_Node000010_Node000004"><a xlink:title=" ">
<path fill="none" stroke="#63b8ff" d="M2007.35,-552.26C2029.1,-530.89 2062.66,-496.02 2087,-462.06 2137.81,-391.15 2183.59,-298.62 2205.45,-251.87"/>
<polygon fill="#63b8ff" stroke="#63b8ff" points="2208.71,-253.16 2209.74,-242.62 2202.36,-250.21 2208.71,-253.16"/>
</a>
</g>
</g>
<!-- Node11&#45;&gt;Node3 -->
<g id="edge100_Node000011_Node000003" class="edge">
<title>Node11&#45;&gt;Node3</title>
<g id="a_edge100_Node000011_Node000003"><a xlink:title=" ">
<path fill="none" stroke="#63b8ff" d="M1072.73,-455.64C1144.75,-483.87 1280.5,-534.58 1400,-565.06 1609.08,-618.37 1666.37,-615.46 1882,-623.06 1973.05,-626.26 1998.91,-646.33 2087,-623.06 2122.72,-613.62 2158.89,-592.03 2184.31,-574.43"/>
<polygon fill="#63b8ff" stroke="#63b8ff" points="2186.36,-577.27 2192.51,-568.64 2182.32,-571.55 2186.36,-577.27"/>
</a>
</g>
</g>
<!-- Node11&#45;&gt;Node4 -->
<g id="edge101_Node000011_Node000004" class="edge">
<title>Node11&#45;&gt;Node4</title>
<g id="a_edge101_Node000011_Node000004"><a xlink:title=" ">
<path fill="none" stroke="#63b8ff" d="M1037.26,-414.52C1092.63,-344.89 1286.61,-122.06 1501.5,-122.06 1501.5,-122.06 1501.5,-122.06 1744.5,-122.06 1891.73,-122.06 2059.23,-168.72 2150.61,-198.3"/>
<polygon fill="#63b8ff" stroke="#63b8ff" points="2149.7,-201.68 2160.29,-201.46 2151.87,-195.03 2149.7,-201.68"/>
</a>
</g>
</g>
<!-- Node12 -->
<g id="Node000012" class="node">
<title>Node12</title>
<g id="a_Node000012"><a xlink:href="$classcom_1_1example_1_1mybookshelf_1_1BookRecommendationFlow.html#aaf567ca97b0d7f0c58ebba4d6f4b18bd" xlink:title=" ">
<polygon fill="white" stroke="#666666" points="1364,-385.56 1159,-385.56 1159,-344.56 1364,-344.56 1364,-385.56"/>
<text text-anchor="start" x="1167" y="-373.56" font-family="Helvetica,sans-Serif" font-size="10.00">com.example.mybookshelf.</text>
<text text-anchor="start" x="1167" y="-362.56" font-family="Helvetica,sans-Serif" font-size="10.00">BookRecommendationFlow.showFresh</text>
<text text-anchor="middle" x="1261.5" y="-351.56" font-family="Helvetica,sans-Serif" font-size="10.00">StartStep2</text>
</a>
</g>
</g>
<!-- Node11&#45;&gt;Node12 -->
<g id="edge102_Node000011_Node000012" class="edge">
<title>Node11&#45;&gt;Node12</title>
<g id="a_edge102_Node000011_Node000012"><a xlink:title=" ">
<path fill="none" stroke="#63b8ff" d="M1091.59,-414.53C1119.56,-406.34 1151.91,-396.86 1180.77,-388.41"/>
<polygon fill="#63b8ff" stroke="#63b8ff" points="1181.8,-391.76 1190.41,-385.59 1179.83,-385.04 1181.8,-391.76"/>
</a>
</g>
</g>
<!-- Node12&#45;&gt;Node3 -->
<g id="edge103_Node000012_Node000003" class="edge">
<title>Node12&#45;&gt;Node3</title>
<g id="a_edge103_Node000012_Node000003"><a xlink:title=" ">
<path fill="none" stroke="#63b8ff" d="M1364.41,-384.55C1546.86,-419.46 1927.51,-492.29 2112.93,-527.76"/>
<polygon fill="#63b8ff" stroke="#63b8ff" points="2112.49,-531.24 2122.96,-529.68 2113.8,-524.37 2112.49,-531.24"/>
</a>
</g>
</g>
<!-- Node12&#45;&gt;Node4 -->
<g id="edge104_Node000012_Node000004" class="edge">
<title>Node12&#45;&gt;Node4</title>
<g id="a_edge104_Node000012_Node000004"><a xlink:title=" ">
<path fill="none" stroke="#63b8ff" d="M1302.31,-344.51C1369.83,-310.87 1512.08,-245.15 1641,-219.06 1805.38,-185.79 2001.48,-197.24 2117.82,-209.2"/>
<polygon fill="#63b8ff" stroke="#63b8ff" points="2117.48,-212.68 2127.79,-210.24 2118.21,-205.72 2117.48,-212.68"/>
</a>
</g>
</g>
<!-- Node13 -->
<g id="Node000013" class="node">
<title>Node13</title>
<g id="a_Node000013"><a xlink:href="$classcom_1_1example_1_1mybookshelf_1_1BookRecommendationFlow.html#a2bc1c0125eb3c1fe64ed1ed3ee93d3eb" xlink:title=" ">
<polygon fill="white" stroke="#666666" points="1605,-357.56 1400,-357.56 1400,-316.56 1605,-316.56 1605,-357.56"/>
<text text-anchor="start" x="1408" y="-345.56" font-family="Helvetica,sans-Serif" font-size="10.00">com.example.mybookshelf.</text>
<text text-anchor="start" x="1408" y="-334.56" font-family="Helvetica,sans-Serif" font-size="10.00">BookRecommendationFlow.showFresh</text>
<text text-anchor="middle" x="1502.5" y="-323.56" font-family="Helvetica,sans-Serif" font-size="10.00">StartStep3</text>
</a>
</g>
</g>
<!-- Node12&#45;&gt;Node13 -->
<g id="edge105_Node000012_Node000013" class="edge">
<title>Node12&#45;&gt;Node13</title>
<g id="a_edge105_Node000012_Node000013"><a xlink:title=" ">
<path fill="none" stroke="#63b8ff" d="M1364.2,-353.14C1372.7,-352.15 1381.31,-351.14 1389.87,-350.13"/>
<polygon fill="#63b8ff" stroke="#63b8ff" points="1390.36,-353.6 1399.89,-348.96 1389.55,-346.65 1390.36,-353.6"/>
</a>
</g>
</g>
<!-- Node13&#45;&gt;Node3 -->
<g id="edge106_Node000013_Node000003" class="edge">
<title>Node13&#45;&gt;Node3</title>
<g id="a_edge106_Node000013_Node000003"><a xlink:title=" ">
<path fill="none" stroke="#63b8ff" d="M1605.06,-351.23C1723.66,-369.89 1924.33,-408.05 2087,-472.06 2120.13,-485.09 2154.92,-505.44 2180.46,-521.8"/>
<polygon fill="#63b8ff" stroke="#63b8ff" points="2178.8,-524.89 2189.09,-527.4 2182.61,-519.02 2178.8,-524.89"/>
</a>
</g>
</g>
<!-- Node13&#45;&gt;Node4 -->
<g id="edge107_Node000013_Node000004" class="edge">
<title>Node13&#45;&gt;Node4</title>
<g id="a_edge107_Node000013_Node000004"><a xlink:title=" ">
<path fill="none" stroke="#63b8ff" d="M1552.02,-316.48C1578.13,-305.8 1611.04,-292.94 1641,-283.06 1746.35,-248.28 1772.02,-232.63 1882,-218.06 1972.32,-206.09 1995.9,-216.68 2087,-218.06 2096.89,-218.21 2107.19,-218.42 2117.48,-218.67"/>
<polygon fill="#63b8ff" stroke="#63b8ff" points="2117.68,-222.18 2127.76,-218.93 2117.85,-215.18 2117.68,-222.18"/>
</a>
</g>
</g>
<!-- Node14 -->
<g id="Node000014" class="node">
<title>Node14</title>
<g id="a_Node000014"><a xlink:href="$classcom_1_1example_1_1mybookshelf_1_1BookRecommendationFlow.html#ad10515cfcf8650b6830b68f15d393b3b" xlink:title=" ">
<polygon fill="white" stroke="#666666" points="1846,-332.56 1641,-332.56 1641,-291.56 1846,-291.56 1846,-332.56"/>
<text text-anchor="start" x="1649" y="-320.56" font-family="Helvetica,sans-Serif" font-size="10.00">com.example.mybookshelf.</text>
<text text-anchor="start" x="1649" y="-309.56" font-family="Helvetica,sans-Serif" font-size="10.00">BookRecommendationFlow.showFresh</text>
<text text-anchor="middle" x="1743.5" y="-298.56" font-family="Helvetica,sans-Serif" font-size="10.00">StartStep4</text>
</a>
</g>
</g>
<!-- Node13&#45;&gt;Node14 -->
<g id="edge108_Node000013_Node000014" class="edge">
<title>Node13&#45;&gt;Node14</title>
<g id="a_edge108_Node000013_Node000014"><a xlink:title=" ">
<path fill="none" stroke="#63b8ff" d="M1605.2,-326.42C1613.7,-325.53 1622.31,-324.63 1630.87,-323.73"/>
<polygon fill="#63b8ff" stroke="#63b8ff" points="1631.31,-327.21 1640.89,-322.69 1630.58,-320.24 1631.31,-327.21"/>
</a>
</g>
</g>
<!-- Node14&#45;&gt;Node3 -->
<g id="edge109_Node000014_Node000003" class="edge">
<title>Node14&#45;&gt;Node3</title>
<g id="a_edge109_Node000014_Node000003"><a xlink:title=" ">
<path fill="none" stroke="#63b8ff" d="M1846.29,-320.6C1917.93,-330.38 2013.71,-351.31 2087,-396.06 2137.8,-427.07 2179.42,-484.08 2201.6,-518.78"/>
<polygon fill="#63b8ff" stroke="#63b8ff" points="2198.8,-520.89 2207.07,-527.51 2204.73,-517.18 2198.8,-520.89"/>
</a>
</g>
</g>
<!-- Node14&#45;&gt;Node4 -->
<g id="edge110_Node000014_Node000004" class="edge">
<title>Node14&#45;&gt;Node4</title>
<g id="a_edge110_Node000014_Node000004"><a xlink:title=" ">
<path fill="none" stroke="#63b8ff" d="M1846.26,-309.45C1915.12,-305.79 2007.62,-297.18 2087,-277.06 2115.04,-269.95 2144.91,-257.91 2169.12,-246.91"/>
<polygon fill="#63b8ff" stroke="#63b8ff" points="2170.84,-249.97 2178.45,-242.6 2167.91,-243.62 2170.84,-249.97"/>
</a>
</g>
</g>
<!-- Node15 -->
<g id="Node000015" class="node">
<title>Node15</title>
<g id="a_Node000015"><a xlink:href="$classcom_1_1example_1_1mybookshelf_1_1BookRecommendationFlow.html#a46c6733f27b3527d3934cee02cfcd7ac" xlink:title=" ">
<polygon fill="white" stroke="#666666" points="2087,-267.56 1882,-267.56 1882,-226.56 2087,-226.56 2087,-267.56"/>
<text text-anchor="start" x="1890" y="-255.56" font-family="Helvetica,sans-Serif" font-size="10.00">com.example.mybookshelf.</text>
<text text-anchor="start" x="1890" y="-244.56" font-family="Helvetica,sans-Serif" font-size="10.00">BookRecommendationFlow.showFresh</text>
<text text-anchor="middle" x="1984.5" y="-233.56" font-family="Helvetica,sans-Serif" font-size="10.00">StartStep5</text>
</a>
</g>
</g>
<!-- Node14&#45;&gt;Node15 -->
<g id="edge111_Node000014_Node000015" class="edge">
<title>Node14&#45;&gt;Node15</title>
<g id="a_edge111_Node000014_Node000015"><a xlink:title=" ">
<path fill="none" stroke="#63b8ff" d="M1820.12,-291.49C1844.98,-284.73 1872.78,-277.17 1898.3,-270.23"/>
<polygon fill="#63b8ff" stroke="#63b8ff" points="1899.23,-273.6 1907.96,-267.6 1897.39,-266.85 1899.23,-273.6"/>
</a>
</g>
</g>
<!-- Node15&#45;&gt;Node3 -->
<g id="edge112_Node000015_Node000003" class="edge">
<title>Node15&#45;&gt;Node3</title>
<g id="a_edge112_Node000015_Node000003"><a xlink:title=" ">
<path fill="none" stroke="#63b8ff" d="M2005.83,-267.59C2026.97,-289.33 2060.6,-325 2087,-358.06 2130.63,-412.68 2175.95,-480.85 2200.49,-518.9"/>
<polygon fill="#63b8ff" stroke="#63b8ff" points="2197.63,-520.93 2205.98,-527.45 2203.52,-517.14 2197.63,-520.93"/>
</a>
</g>
</g>
<!-- Node15&#45;&gt;Node4 -->
<g id="edge115_Node000015_Node000004" class="edge">
<title>Node15&#45;&gt;Node4</title>
<g id="a_edge115_Node000015_Node000004"><a xlink:title=" ">
<path fill="none" stroke="#63b8ff" d="M2087.24,-236.16C2097.38,-235.08 2107.67,-233.98 2117.8,-232.89"/>
<polygon fill="#63b8ff" stroke="#63b8ff" points="2118.3,-236.36 2127.87,-231.81 2117.56,-229.4 2118.3,-236.36"/>
</a>
</g>
</g>
<!-- Node16 -->
<g id="Node000016" class="node">
<title>Node16</title>
<g id="a_Node000016"><a xlink:href="$classcom_1_1example_1_1mybookshelf_1_1BookRecommendationFlow.html#abe4c57ea57ed54c344739295e70066ff" xlink:title=" ">
<polygon fill="white" stroke="#666666" points="2308.5,-118.56 2131.5,-118.56 2131.5,-77.56 2308.5,-77.56 2308.5,-118.56"/>
<text text-anchor="start" x="2139.5" y="-106.56" font-family="Helvetica,sans-Serif" font-size="10.00">com.example.mybookshelf.</text>
<text text-anchor="start" x="2139.5" y="-95.56" font-family="Helvetica,sans-Serif" font-size="10.00">BookRecommendationFlow.build</text>
<text text-anchor="middle" x="2220" y="-84.56" font-family="Helvetica,sans-Serif" font-size="10.00">AIStringFresh</text>
</a>
</g>
</g>
<!-- Node15&#45;&gt;Node16 -->
<g id="edge113_Node000015_Node000016" class="edge">
<title>Node15&#45;&gt;Node16</title>
<g id="a_edge113_Node000015_Node000016"><a xlink:title=" ">
<path fill="none" stroke="#63b8ff" d="M2017.97,-226.34C2059.88,-199.6 2132.81,-153.05 2178.36,-123.99"/>
<polygon fill="#63b8ff" stroke="#63b8ff" points="2180.26,-126.93 2186.81,-118.6 2176.5,-121.03 2180.26,-126.93"/>
</a>
</g>
</g>
<!-- Node16&#45;&gt;Node2 -->
<g id="edge114_Node000016_Node000002" class="edge">
<title>Node16&#45;&gt;Node2</title>
<g id="a_edge114_Node000016_Node000002"><a xlink:title=" ">
<path fill="none" stroke="#63b8ff" d="M2187.4,-77.41C2161.54,-61.68 2123.43,-41.07 2087,-31.06 1939.9,9.4 1897.07,-8.06 1744.5,-8.06 783,-8.06 783,-8.06 783,-8.06 622.87,-8.06 546.57,33.65 429,-75.06 363.3,-135.81 319.4,-422.16 307.35,-509.62"/>
<polygon fill="#63b8ff" stroke="#63b8ff" points="303.86,-509.34 305.98,-519.72 310.8,-510.28 303.86,-509.34"/>
</a>
</g>
</g>
</g>
</svg>
