<?xml version="1.0" encoding="UTF-8" standalone="no"?>
<!DOCTYPE svg PUBLIC "-//W3C//DTD SVG 1.1//EN"
 "http://www.w3.org/Graphics/SVG/1.1/DTD/svg11.dtd">
<!-- Generated by graphviz version 2.43.0 (0)
 -->
<!-- Title: com.example.mybookshelf.LayoutManager.CustomGoalAdapter.onBindViewHolder Pages: 1 -->
<svg width="687pt" height="230pt"
 viewBox="0.00 0.00 687.00 230.00" xmlns="http://www.w3.org/2000/svg" xmlns:xlink="http://www.w3.org/1999/xlink">
<g id="graph0" class="graph" transform="scale(1 1) rotate(0) translate(4 226)">
<title>com.example.mybookshelf.LayoutManager.CustomGoalAdapter.onBindViewHolder</title>
<!-- Node1 -->
<g id="Node000001" class="node">
<title>Node1</title>
<g id="a_Node000001"><a xlink:title=" ">
<polygon fill="#999999" stroke="#666666" points="207,-131.5 0,-131.5 0,-90.5 207,-90.5 207,-131.5"/>
<text text-anchor="start" x="8" y="-119.5" font-family="Helvetica,sans-Serif" font-size="10.00">com.example.mybookshelf.</text>
<text text-anchor="start" x="8" y="-108.5" font-family="Helvetica,sans-Serif" font-size="10.00">LayoutManager.CustomGoalAdapter.on</text>
<text text-anchor="middle" x="103.5" y="-97.5" font-family="Helvetica,sans-Serif" font-size="10.00">BindViewHolder</text>
</a>
</g>
</g>
<!-- Node2 -->
<g id="Node000002" class="node">
<title>Node2</title>
<g id="a_Node000002"><a xlink:href="$classcom_1_1example_1_1mybookshelf_1_1LayoutManager_1_1CustomGoalAdapter.html#af6a51f456a68a61bedc36289b91e0716" xlink:title=" ">
<polygon fill="white" stroke="#666666" points="469,-131.5 243,-131.5 243,-90.5 469,-90.5 469,-131.5"/>
<text text-anchor="start" x="251" y="-119.5" font-family="Helvetica,sans-Serif" font-size="10.00">com.example.mybookshelf.</text>
<text text-anchor="start" x="251" y="-108.5" font-family="Helvetica,sans-Serif" font-size="10.00">LayoutManager.CustomGoalAdapter.create</text>
<text text-anchor="middle" x="356" y="-97.5" font-family="Helvetica,sans-Serif" font-size="10.00">GoalBox</text>
</a>
</g>
</g>
<!-- Node1&#45;&gt;Node2 -->
<g id="edge13_Node000001_Node000002" class="edge">
<title>Node1&#45;&gt;Node2</title>
<g id="a_edge13_Node000001_Node000002"><a xlink:title=" ">
<path fill="none" stroke="#63b8ff" d="M207.11,-111C215.56,-111 224.15,-111 232.72,-111"/>
<polygon fill="#63b8ff" stroke="#63b8ff" points="232.77,-114.5 242.77,-111 232.77,-107.5 232.77,-114.5"/>
</a>
</g>
</g>
<!-- Node3 -->
<g id="Node000003" class="node">
<title>Node3</title>
<g id="a_Node000003"><a xlink:href="$classcom_1_1example_1_1mybookshelf_1_1dataClass_1_1Goal.html#ada3305dadb216e065d9bb31e12ff6107" xlink:title=" ">
<polygon fill="white" stroke="#666666" points="679,-222 505,-222 505,-192 679,-192 679,-222"/>
<text text-anchor="start" x="513" y="-210" font-family="Helvetica,sans-Serif" font-size="10.00">com.example.mybookshelf.data</text>
<text text-anchor="middle" x="592" y="-199" font-family="Helvetica,sans-Serif" font-size="10.00">Class.Goal.getFrequenzy</text>
</a>
</g>
</g>
<!-- Node2&#45;&gt;Node3 -->
<g id="edge14_Node000002_Node000003" class="edge">
<title>Node2&#45;&gt;Node3</title>
<g id="a_edge14_Node000002_Node000003"><a xlink:title=" ">
<path fill="none" stroke="#63b8ff" d="M394.49,-131.58C423.92,-147.16 466.26,-168.31 505,-183 510.48,-185.08 516.21,-187.06 522.01,-188.94"/>
<polygon fill="#63b8ff" stroke="#63b8ff" points="521.2,-192.36 531.79,-192 523.29,-185.68 521.2,-192.36"/>
</a>
</g>
</g>
<!-- Node4 -->
<g id="Node000004" class="node">
<title>Node4</title>
<g id="a_Node000004"><a xlink:href="$classcom_1_1example_1_1mybookshelf_1_1dataClass_1_1Goal.html#a1c80a58d3e1cd2e1ab6ef14c40d3b274" xlink:title=" ">
<polygon fill="white" stroke="#666666" points="679,-174 505,-174 505,-144 679,-144 679,-174"/>
<text text-anchor="start" x="513" y="-162" font-family="Helvetica,sans-Serif" font-size="10.00">com.example.mybookshelf.data</text>
<text text-anchor="middle" x="592" y="-151" font-family="Helvetica,sans-Serif" font-size="10.00">Class.Goal.getGoal</text>
</a>
</g>
</g>
<!-- Node2&#45;&gt;Node4 -->
<g id="edge15_Node000002_Node000004" class="edge">
<title>Node2&#45;&gt;Node4</title>
<g id="a_edge15_Node000002_Node000004"><a xlink:title=" ">
<path fill="none" stroke="#63b8ff" d="M457.26,-131.57C474.1,-135.02 491.42,-138.57 507.78,-141.93"/>
<polygon fill="#63b8ff" stroke="#63b8ff" points="507.33,-145.41 517.83,-143.99 508.73,-138.55 507.33,-145.41"/>
</a>
</g>
</g>
<!-- Node5 -->
<g id="Node000005" class="node">
<title>Node5</title>
<g id="a_Node000005"><a xlink:href="$classcom_1_1example_1_1mybookshelf_1_1dataClass_1_1Goal.html#abcf308a0e49a9b60f6761102438d9d04" xlink:title=" ">
<polygon fill="white" stroke="#666666" points="679,-126 505,-126 505,-96 679,-96 679,-126"/>
<text text-anchor="start" x="513" y="-114" font-family="Helvetica,sans-Serif" font-size="10.00">com.example.mybookshelf.data</text>
<text text-anchor="middle" x="592" y="-103" font-family="Helvetica,sans-Serif" font-size="10.00">Class.Goal.getId</text>
</a>
</g>
</g>
<!-- Node2&#45;&gt;Node5 -->
<g id="edge16_Node000002_Node000005" class="edge">
<title>Node2&#45;&gt;Node5</title>
<g id="a_edge16_Node000002_Node000005"><a xlink:title=" ">
<path fill="none" stroke="#63b8ff" d="M469.2,-111C477.71,-111 486.25,-111 494.64,-111"/>
<polygon fill="#63b8ff" stroke="#63b8ff" points="494.79,-114.5 504.79,-111 494.79,-107.5 494.79,-114.5"/>
</a>
</g>
</g>
<!-- Node6 -->
<g id="Node000006" class="node">
<title>Node6</title>
<g id="a_Node000006"><a xlink:href="$classcom_1_1example_1_1mybookshelf_1_1dataClass_1_1Goal.html#a964cb06dadac4c69df6c931402733779" xlink:title=" ">
<polygon fill="white" stroke="#666666" points="679,-78 505,-78 505,-48 679,-48 679,-78"/>
<text text-anchor="start" x="513" y="-66" font-family="Helvetica,sans-Serif" font-size="10.00">com.example.mybookshelf.data</text>
<text text-anchor="middle" x="592" y="-55" font-family="Helvetica,sans-Serif" font-size="10.00">Class.Goal.getProgress</text>
</a>
</g>
</g>
<!-- Node2&#45;&gt;Node6 -->
<g id="edge17_Node000002_Node000006" class="edge">
<title>Node2&#45;&gt;Node6</title>
<g id="a_edge17_Node000002_Node000006"><a xlink:title=" ">
<path fill="none" stroke="#63b8ff" d="M457.26,-90.43C474.1,-86.98 491.42,-83.43 507.78,-80.07"/>
<polygon fill="#63b8ff" stroke="#63b8ff" points="508.73,-83.45 517.83,-78.01 507.33,-76.59 508.73,-83.45"/>
</a>
</g>
</g>
<!-- Node7 -->
<g id="Node000007" class="node">
<title>Node7</title>
<g id="a_Node000007"><a xlink:href="$classcom_1_1example_1_1mybookshelf_1_1dataClass_1_1Goal.html#a84c2af13824c14a2b6c3dcf25a493d0f" xlink:title=" ">
<polygon fill="white" stroke="#666666" points="679,-30 505,-30 505,0 679,0 679,-30"/>
<text text-anchor="start" x="513" y="-18" font-family="Helvetica,sans-Serif" font-size="10.00">com.example.mybookshelf.data</text>
<text text-anchor="middle" x="592" y="-7" font-family="Helvetica,sans-Serif" font-size="10.00">Class.Goal.getTarget</text>
</a>
</g>
</g>
<!-- Node2&#45;&gt;Node7 -->
<g id="edge18_Node000002_Node000007" class="edge">
<title>Node2&#45;&gt;Node7</title>
<g id="a_edge18_Node000002_Node000007"><a xlink:title=" ">
<path fill="none" stroke="#63b8ff" d="M394.49,-90.42C423.92,-74.84 466.26,-53.69 505,-39 510.48,-36.92 516.21,-34.94 522.01,-33.06"/>
<polygon fill="#63b8ff" stroke="#63b8ff" points="523.29,-36.32 531.79,-30 521.2,-29.64 523.29,-36.32"/>
</a>
</g>
</g>
</g>
</svg>
