<?xml version="1.0" encoding="UTF-8" standalone="no"?>
<!DOCTYPE svg PUBLIC "-//W3C//DTD SVG 1.1//EN"
 "http://www.w3.org/Graphics/SVG/1.1/DTD/svg11.dtd">
<!-- Generated by graphviz version 2.43.0 (0)
 -->
<!-- Title: com.example.mybookshelf.UIMaster.navigateToSettings Pages: 1 -->
<svg width="1789pt" height="480pt"
 viewBox="0.00 0.00 1789.00 480.00" xmlns="http://www.w3.org/2000/svg" xmlns:xlink="http://www.w3.org/1999/xlink">
<g id="graph0" class="graph" transform="scale(1 1) rotate(0) translate(4 476)">
<title>com.example.mybookshelf.UIMaster.navigateToSettings</title>
<!-- Node1 -->
<g id="Node000001" class="node">
<title>Node1</title>
<g id="a_Node000001"><a xlink:title=" ">
<polygon fill="#999999" stroke="#666666" points="156,-266 0,-266 0,-236 156,-236 156,-266"/>
<text text-anchor="start" x="8" y="-254" font-family="Helvetica,sans-Serif" font-size="10.00">com.example.mybookshelf.</text>
<text text-anchor="middle" x="78" y="-243" font-family="Helvetica,sans-Serif" font-size="10.00">UIMaster.navigateToSettings</text>
</a>
</g>
</g>
<!-- Node2 -->
<g id="Node000002" class="node">
<title>Node2</title>
<g id="a_Node000002"><a xlink:href="$classcom_1_1example_1_1mybookshelf_1_1Authenticator.html#a57eb5913cd07c88e3f0771b4bf88bc0c" xlink:title=" ">
<polygon fill="white" stroke="#666666" points="403,-472 235,-472 235,-442 403,-442 403,-472"/>
<text text-anchor="start" x="243" y="-460" font-family="Helvetica,sans-Serif" font-size="10.00">com.example.mybookshelf.</text>
<text text-anchor="middle" x="319" y="-449" font-family="Helvetica,sans-Serif" font-size="10.00">Authenticator.clearStoredToken</text>
</a>
</g>
</g>
<!-- Node1&#45;&gt;Node2 -->
<g id="edge69_Node000001_Node000002" class="edge">
<title>Node1&#45;&gt;Node2</title>
<g id="a_edge69_Node000001_Node000002"><a xlink:title=" ">
<path fill="none" stroke="#63b8ff" d="M83.7,-266.2C95.52,-301.74 130.07,-390.47 192,-433 201.9,-439.79 213.21,-444.79 224.91,-448.45"/>
<polygon fill="#63b8ff" stroke="#63b8ff" points="224.23,-451.89 234.8,-451.21 226.11,-445.15 224.23,-451.89"/>
</a>
</g>
</g>
<!-- Node3 -->
<g id="Node000003" class="node">
<title>Node3</title>
<g id="a_Node000003"><a xlink:href="$classcom_1_1example_1_1mybookshelf_1_1notifications_1_1NotificationScheduler.html#aaf3ebda4b3bc3da4f2c4e8cabb4a3602" xlink:title=" ">
<polygon fill="white" stroke="#666666" points="441,-424 197,-424 197,-394 441,-394 441,-424"/>
<text text-anchor="start" x="205" y="-412" font-family="Helvetica,sans-Serif" font-size="10.00">com.example.mybookshelf.notifications.</text>
<text text-anchor="middle" x="319" y="-401" font-family="Helvetica,sans-Serif" font-size="10.00">NotificationScheduler.getDailyNotificationHour</text>
</a>
</g>
</g>
<!-- Node1&#45;&gt;Node3 -->
<g id="edge70_Node000001_Node000003" class="edge">
<title>Node1&#45;&gt;Node3</title>
<g id="a_edge70_Node000001_Node000003"><a xlink:title=" ">
<path fill="none" stroke="#63b8ff" d="M87.2,-266.41C103.22,-294.88 141.56,-355.5 192,-385 195.02,-386.77 198.15,-388.41 201.36,-389.93"/>
<polygon fill="#63b8ff" stroke="#63b8ff" points="200.02,-393.17 210.59,-393.92 202.8,-386.74 200.02,-393.17"/>
</a>
</g>
</g>
<!-- Node4 -->
<g id="Node000004" class="node">
<title>Node4</title>
<g id="a_Node000004"><a xlink:href="$classcom_1_1example_1_1mybookshelf_1_1notifications_1_1NotificationScheduler.html#ad29a9938277c2a671b0399cdc84c7844" xlink:title=" ">
<polygon fill="white" stroke="#666666" points="446,-376 192,-376 192,-346 446,-346 446,-376"/>
<text text-anchor="start" x="200" y="-364" font-family="Helvetica,sans-Serif" font-size="10.00">com.example.mybookshelf.notifications.</text>
<text text-anchor="middle" x="319" y="-353" font-family="Helvetica,sans-Serif" font-size="10.00">NotificationScheduler.getDailyNotificationMinute</text>
</a>
</g>
</g>
<!-- Node1&#45;&gt;Node4 -->
<g id="edge71_Node000001_Node000004" class="edge">
<title>Node1&#45;&gt;Node4</title>
<g id="a_edge71_Node000001_Node000004"><a xlink:title=" ">
<path fill="none" stroke="#63b8ff" d="M93.94,-266.1C114.26,-285.7 152.6,-319.43 192,-337 196.71,-339.1 201.6,-341.02 206.59,-342.76"/>
<polygon fill="#63b8ff" stroke="#63b8ff" points="205.73,-346.16 216.32,-345.93 207.89,-339.51 205.73,-346.16"/>
</a>
</g>
</g>
<!-- Node5 -->
<g id="Node000005" class="node">
<title>Node5</title>
<g id="a_Node000005"><a xlink:href="$classcom_1_1example_1_1mybookshelf_1_1notifications_1_1NotificationScheduler.html#ac8a096801252bd85cf58f0b4ded28ebe" xlink:title=" ">
<polygon fill="white" stroke="#666666" points="441,-328 197,-328 197,-298 441,-298 441,-328"/>
<text text-anchor="start" x="205" y="-316" font-family="Helvetica,sans-Serif" font-size="10.00">com.example.mybookshelf.notifications.</text>
<text text-anchor="middle" x="319" y="-305" font-family="Helvetica,sans-Serif" font-size="10.00">NotificationScheduler.isDailyNotificationActive</text>
</a>
</g>
</g>
<!-- Node1&#45;&gt;Node5 -->
<g id="edge72_Node000001_Node000005" class="edge">
<title>Node1&#45;&gt;Node5</title>
<g id="a_edge72_Node000001_Node000005"><a xlink:title=" ">
<path fill="none" stroke="#63b8ff" d="M128.33,-266.08C148.06,-271.93 171.04,-278.53 192,-284 207.38,-288.01 223.89,-292.02 239.73,-295.73"/>
<polygon fill="#63b8ff" stroke="#63b8ff" points="238.96,-299.14 249.49,-297.99 240.54,-292.32 238.96,-299.14"/>
</a>
</g>
</g>
<!-- Node6 -->
<g id="Node000006" class="node">
<title>Node6</title>
<g id="a_Node000006"><a xlink:href="$classcom_1_1example_1_1mybookshelf_1_1UIMaster.html#ad30bff41c8ec833af2293c0b6c8b47b2" xlink:title=" ">
<polygon fill="white" stroke="#666666" points="395,-204 243,-204 243,-174 395,-174 395,-204"/>
<text text-anchor="start" x="251" y="-192" font-family="Helvetica,sans-Serif" font-size="10.00">com.example.mybookshelf.</text>
<text text-anchor="middle" x="319" y="-181" font-family="Helvetica,sans-Serif" font-size="10.00">UIMaster.navigateToGoals</text>
</a>
</g>
</g>
<!-- Node1&#45;&gt;Node6 -->
<g id="edge73_Node000001_Node000006" class="edge">
<title>Node1&#45;&gt;Node6</title>
<g id="a_edge73_Node000001_Node000006"><a xlink:title=" ">
<path fill="none" stroke="#63b8ff" d="M104.91,-235.85C127.74,-227 161.94,-216.84 192,-209 205.2,-205.56 219.22,-202.12 232.95,-198.99"/>
<polygon fill="#63b8ff" stroke="#63b8ff" points="233.87,-202.37 242.87,-196.77 232.35,-195.54 233.87,-202.37"/>
</a>
</g>
</g>
<!-- Node7 -->
<g id="Node000007" class="node">
<title>Node7</title>
<g id="a_Node000007"><a xlink:href="$classcom_1_1example_1_1mybookshelf_1_1UIMaster.html#ad609d5e0b54e87afcb60aed6c66a792e" xlink:title=" ">
<polygon fill="white" stroke="#666666" points="690,-247 512,-247 512,-217 690,-217 690,-247"/>
<text text-anchor="start" x="520" y="-235" font-family="Helvetica,sans-Serif" font-size="10.00">com.example.mybookshelf.</text>
<text text-anchor="middle" x="601" y="-224" font-family="Helvetica,sans-Serif" font-size="10.00">UIMaster.navigateToStartingPage</text>
</a>
</g>
</g>
<!-- Node1&#45;&gt;Node7 -->
<g id="edge98_Node000001_Node000007" class="edge">
<title>Node1&#45;&gt;Node7</title>
<g id="a_edge98_Node000001_Node000007"><a xlink:title=" ">
<path fill="none" stroke="#63b8ff" d="M156.16,-248.19C247.9,-244.84 401.18,-239.25 501.43,-235.59"/>
<polygon fill="#63b8ff" stroke="#63b8ff" points="501.7,-239.09 511.56,-235.23 501.44,-232.09 501.7,-239.09"/>
</a>
</g>
</g>
<!-- Node15 -->
<g id="Node000015" class="node">
<title>Node15</title>
<g id="a_Node000015"><a xlink:href="$classcom_1_1example_1_1mybookshelf_1_1UIMaster.html#aa3079f36c20fc1b0ec8c01197f06faa3" xlink:title=" ">
<polygon fill="white" stroke="#666666" points="1125,-118 973,-118 973,-88 1125,-88 1125,-118"/>
<text text-anchor="start" x="981" y="-106" font-family="Helvetica,sans-Serif" font-size="10.00">com.example.mybookshelf.</text>
<text text-anchor="middle" x="1049" y="-95" font-family="Helvetica,sans-Serif" font-size="10.00">UIMaster.navigateToStats</text>
</a>
</g>
</g>
<!-- Node1&#45;&gt;Node15 -->
<g id="edge99_Node000001_Node000015" class="edge">
<title>Node1&#45;&gt;Node15</title>
<g id="a_edge99_Node000001_Node000015"><a xlink:title=" ">
<path fill="none" stroke="#63b8ff" d="M94.48,-235.95C115.07,-216.73 153.41,-183.73 192,-165 419.61,-54.55 503.01,-88.92 756,-88 836.44,-87.71 856.74,-82.6 937,-88 945.37,-88.56 954.07,-89.36 962.75,-90.3"/>
<polygon fill="#63b8ff" stroke="#63b8ff" points="962.57,-93.8 972.91,-91.46 963.37,-86.85 962.57,-93.8"/>
</a>
</g>
</g>
<!-- Node27 -->
<g id="Node000027" class="node">
<title>Node27</title>
<g id="a_Node000027"><a xlink:href="$classcom_1_1example_1_1mybookshelf_1_1UIMaster.html#a5d06d53d8ef756629247fde0f557a3d1" xlink:title=" ">
<polygon fill="white" stroke="#666666" points="395,-37 243,-37 243,-7 395,-7 395,-37"/>
<text text-anchor="start" x="251" y="-25" font-family="Helvetica,sans-Serif" font-size="10.00">com.example.mybookshelf.</text>
<text text-anchor="middle" x="319" y="-14" font-family="Helvetica,sans-Serif" font-size="10.00">UIMaster.showLogin</text>
</a>
</g>
</g>
<!-- Node1&#45;&gt;Node27 -->
<g id="edge100_Node000001_Node000027" class="edge">
<title>Node1&#45;&gt;Node27</title>
<g id="a_edge100_Node000001_Node000027"><a xlink:title=" ">
<path fill="none" stroke="#63b8ff" d="M82.95,-235.9C93.6,-198.26 126.65,-99.79 192,-51 204.1,-41.97 218.54,-35.68 233.25,-31.32"/>
<polygon fill="#63b8ff" stroke="#63b8ff" points="234.19,-34.69 242.94,-28.72 232.38,-27.93 234.19,-34.69"/>
</a>
</g>
</g>
<!-- Node6&#45;&gt;Node1 -->
<g id="edge74_Node000006_Node000001" class="edge">
<title>Node6&#45;&gt;Node1</title>
<g id="a_edge74_Node000006_Node000001"><a xlink:title=" ">
<path fill="none" stroke="#63b8ff" d="M282.83,-204.03C257.49,-211.08 222.52,-219.04 192,-227 183.52,-229.21 174.72,-231.61 165.93,-234.02"/>
<polygon fill="#63b8ff" stroke="#63b8ff" points="164.74,-230.72 156.03,-236.75 166.6,-237.47 164.74,-230.72"/>
</a>
</g>
</g>
<!-- Node6&#45;&gt;Node7 -->
<g id="edge75_Node000006_Node000007" class="edge">
<title>Node6&#45;&gt;Node7</title>
<g id="a_edge75_Node000006_Node000007"><a xlink:title=" ">
<path fill="none" stroke="#63b8ff" d="M395.03,-200.52C427.77,-205.55 466.58,-211.51 501.59,-216.89"/>
<polygon fill="#63b8ff" stroke="#63b8ff" points="501.42,-220.4 511.83,-218.46 502.48,-213.48 501.42,-220.4"/>
</a>
</g>
</g>
<!-- Node6&#45;&gt;Node15 -->
<g id="edge96_Node000006_Node000015" class="edge">
<title>Node6&#45;&gt;Node15</title>
<g id="a_edge96_Node000006_Node000015"><a xlink:title=" ">
<path fill="none" stroke="#63b8ff" d="M347.68,-173.94C379.16,-157.68 432.62,-132.67 482,-122 649.28,-85.85 850.75,-90.07 962.58,-96.48"/>
<polygon fill="#63b8ff" stroke="#63b8ff" points="962.6,-99.99 972.79,-97.09 963.02,-93 962.6,-99.99"/>
</a>
</g>
</g>
<!-- Node26 -->
<g id="Node000026" class="node">
<title>Node26</title>
<g id="a_Node000026"><a xlink:href="$classcom_1_1example_1_1mybookshelf_1_1LayoutManager_1_1CustomGoalAdapter.html#abad93cc513b4470ac284a0756e1c3f65" xlink:title=" ">
<polygon fill="white" stroke="#666666" points="720,-161 482,-161 482,-131 720,-131 720,-161"/>
<text text-anchor="start" x="490" y="-149" font-family="Helvetica,sans-Serif" font-size="10.00">com.example.mybookshelf.</text>
<text text-anchor="middle" x="601" y="-138" font-family="Helvetica,sans-Serif" font-size="10.00">LayoutManager.CustomGoalAdapter.setGoals</text>
</a>
</g>
</g>
<!-- Node6&#45;&gt;Node26 -->
<g id="edge97_Node000006_Node000026" class="edge">
<title>Node6&#45;&gt;Node26</title>
<g id="a_edge97_Node000006_Node000026"><a xlink:title=" ">
<path fill="none" stroke="#63b8ff" d="M395.03,-177.48C424.84,-172.9 459.68,-167.55 492.1,-162.57"/>
<polygon fill="#63b8ff" stroke="#63b8ff" points="492.73,-166.02 502.08,-161.04 491.66,-159.1 492.73,-166.02"/>
</a>
</g>
</g>
<!-- Node8 -->
<g id="Node000008" class="node">
<title>Node8</title>
<g id="a_Node000008"><a xlink:href="$classcom_1_1example_1_1mybookshelf_1_1UIMaster.html#aa6aad8404432bdaf23db9b41e99a6ed5" xlink:title=" ">
<polygon fill="white" stroke="#666666" points="937,-238 756,-238 756,-208 937,-208 937,-238"/>
<text text-anchor="start" x="764" y="-226" font-family="Helvetica,sans-Serif" font-size="10.00">com.example.mybookshelf.</text>
<text text-anchor="middle" x="846.5" y="-215" font-family="Helvetica,sans-Serif" font-size="10.00">UIMaster.setupNavigationButtons</text>
</a>
</g>
</g>
<!-- Node7&#45;&gt;Node8 -->
<g id="edge76_Node000007_Node000008" class="edge">
<title>Node7&#45;&gt;Node8</title>
<g id="a_edge76_Node000007_Node000008"><a xlink:title=" ">
<path fill="none" stroke="#63b8ff" d="M690.25,-228.74C708.28,-228.07 727.38,-227.37 745.77,-226.69"/>
<polygon fill="#63b8ff" stroke="#63b8ff" points="746.05,-230.18 755.91,-226.31 745.79,-223.18 746.05,-230.18"/>
</a>
</g>
</g>
<!-- Node8&#45;&gt;Node1 -->
<g id="edge84_Node000008_Node000001" class="edge">
<title>Node8&#45;&gt;Node1</title>
<g id="a_edge84_Node000008_Node000001"><a xlink:title=" ">
<path fill="none" stroke="#63b8ff" d="M799.87,-238.02C776.31,-245 746.92,-252.52 720,-256 523.55,-281.4 290.4,-269.06 166.55,-259.18"/>
<polygon fill="#63b8ff" stroke="#63b8ff" points="166.62,-255.68 156.37,-258.36 166.05,-262.65 166.62,-255.68"/>
</a>
</g>
</g>
<!-- Node8&#45;&gt;Node6 -->
<g id="edge83_Node000008_Node000006" class="edge">
<title>Node8&#45;&gt;Node6</title>
<g id="a_edge83_Node000008_Node000006"><a xlink:title=" ">
<path fill="none" stroke="#63b8ff" d="M755.77,-211.49C743.76,-210.18 731.59,-208.97 720,-208 611.7,-198.97 486.52,-193.88 405.46,-191.29"/>
<polygon fill="#63b8ff" stroke="#63b8ff" points="405.41,-187.79 395.3,-190.97 405.19,-194.78 405.41,-187.79"/>
</a>
</g>
</g>
<!-- Node9 -->
<g id="Node000009" class="node">
<title>Node9</title>
<g id="a_Node000009"><a xlink:href="$classcom_1_1example_1_1mybookshelf_1_1UIMaster.html#a4636b546c38ace5aedccfd989edc0bb1" xlink:title=" ">
<polygon fill="white" stroke="#666666" points="1125,-238 973,-238 973,-208 1125,-208 1125,-238"/>
<text text-anchor="start" x="981" y="-226" font-family="Helvetica,sans-Serif" font-size="10.00">com.example.mybookshelf.</text>
<text text-anchor="middle" x="1049" y="-215" font-family="Helvetica,sans-Serif" font-size="10.00">UIMaster.handleListSearch</text>
</a>
</g>
</g>
<!-- Node8&#45;&gt;Node9 -->
<g id="edge77_Node000008_Node000009" class="edge">
<title>Node8&#45;&gt;Node9</title>
<g id="a_edge77_Node000008_Node000009"><a xlink:title=" ">
<path fill="none" stroke="#63b8ff" d="M937.19,-223C945.64,-223 954.2,-223 962.61,-223"/>
<polygon fill="#63b8ff" stroke="#63b8ff" points="962.78,-226.5 972.78,-223 962.78,-219.5 962.78,-226.5"/>
</a>
</g>
</g>
<!-- Node8&#45;&gt;Node15 -->
<g id="edge85_Node000008_Node000015" class="edge">
<title>Node8&#45;&gt;Node15</title>
<g id="a_edge85_Node000008_Node000015"><a xlink:title=" ">
<path fill="none" stroke="#63b8ff" d="M872.89,-207.8C908.75,-186.34 974.29,-147.12 1014.22,-123.22"/>
<polygon fill="#63b8ff" stroke="#63b8ff" points="1016.03,-126.21 1022.81,-118.07 1012.43,-120.21 1016.03,-126.21"/>
</a>
</g>
</g>
<!-- Node10 -->
<g id="Node000010" class="node">
<title>Node10</title>
<g id="a_Node000010"><a xlink:href="$classcom_1_1example_1_1mybookshelf_1_1UIMaster.html#a3e552449814fd4b18a4070128261c571" xlink:title=" ">
<polygon fill="white" stroke="#666666" points="1331,-230 1179,-230 1179,-200 1331,-200 1331,-230"/>
<text text-anchor="start" x="1187" y="-218" font-family="Helvetica,sans-Serif" font-size="10.00">com.example.mybookshelf.</text>
<text text-anchor="middle" x="1255" y="-207" font-family="Helvetica,sans-Serif" font-size="10.00">UIMaster.fillSpinners</text>
</a>
</g>
</g>
<!-- Node9&#45;&gt;Node10 -->
<g id="edge78_Node000009_Node000010" class="edge">
<title>Node9&#45;&gt;Node10</title>
<g id="a_edge78_Node000009_Node000010"><a xlink:title=" ">
<path fill="none" stroke="#63b8ff" d="M1125.09,-220.06C1139.17,-219.5 1153.99,-218.92 1168.36,-218.36"/>
<polygon fill="#63b8ff" stroke="#63b8ff" points="1168.87,-221.84 1178.72,-217.95 1168.6,-214.85 1168.87,-221.84"/>
</a>
</g>
</g>
<!-- Node11 -->
<g id="Node000011" class="node">
<title>Node11</title>
<g id="a_Node000011"><a xlink:href="$classcom_1_1example_1_1mybookshelf_1_1UIMaster.html#a39a8f40aa163994c415f165d94ee47fd" xlink:title=" ">
<polygon fill="white" stroke="#666666" points="1331,-278 1179,-278 1179,-248 1331,-248 1331,-278"/>
<text text-anchor="start" x="1187" y="-266" font-family="Helvetica,sans-Serif" font-size="10.00">com.example.mybookshelf.</text>
<text text-anchor="middle" x="1255" y="-255" font-family="Helvetica,sans-Serif" font-size="10.00">UIMaster.filterBooks</text>
</a>
</g>
</g>
<!-- Node9&#45;&gt;Node11 -->
<g id="edge79_Node000009_Node000011" class="edge">
<title>Node9&#45;&gt;Node11</title>
<g id="a_edge79_Node000009_Node000011"><a xlink:title=" ">
<path fill="none" stroke="#63b8ff" d="M1125.09,-237.72C1139.31,-240.51 1154.27,-243.45 1168.78,-246.29"/>
<polygon fill="#63b8ff" stroke="#63b8ff" points="1168.24,-249.75 1178.72,-248.24 1169.59,-242.88 1168.24,-249.75"/>
</a>
</g>
</g>
<!-- Node12 -->
<g id="Node000012" class="node">
<title>Node12</title>
<g id="a_Node000012"><a xlink:href="$classcom_1_1example_1_1mybookshelf_1_1dataClass_1_1Book.html#a72061c36f82e9d925effeb02dc0da55d" xlink:title=" ">
<polygon fill="white" stroke="#666666" points="1559,-230 1385,-230 1385,-200 1559,-200 1559,-230"/>
<text text-anchor="start" x="1393" y="-218" font-family="Helvetica,sans-Serif" font-size="10.00">com.example.mybookshelf.data</text>
<text text-anchor="middle" x="1472" y="-207" font-family="Helvetica,sans-Serif" font-size="10.00">Class.Book.getAuthor</text>
</a>
</g>
</g>
<!-- Node11&#45;&gt;Node12 -->
<g id="edge80_Node000011_Node000012" class="edge">
<title>Node11&#45;&gt;Node12</title>
<g id="a_edge80_Node000011_Node000012"><a xlink:title=" ">
<path fill="none" stroke="#63b8ff" d="M1323.44,-247.94C1345.75,-242.96 1370.75,-237.38 1393.74,-232.25"/>
<polygon fill="#63b8ff" stroke="#63b8ff" points="1394.8,-235.6 1403.8,-230 1393.28,-228.77 1394.8,-235.6"/>
</a>
</g>
</g>
<!-- Node13 -->
<g id="Node000013" class="node">
<title>Node13</title>
<g id="a_Node000013"><a xlink:href="$classcom_1_1example_1_1mybookshelf_1_1dataClass_1_1Book.html#ab78862de4a0e97e9190086f397a88fd4" xlink:title=" ">
<polygon fill="white" stroke="#666666" points="1559,-326 1385,-326 1385,-296 1559,-296 1559,-326"/>
<text text-anchor="start" x="1393" y="-314" font-family="Helvetica,sans-Serif" font-size="10.00">com.example.mybookshelf.data</text>
<text text-anchor="middle" x="1472" y="-303" font-family="Helvetica,sans-Serif" font-size="10.00">Class.Book.getGenre</text>
</a>
</g>
</g>
<!-- Node11&#45;&gt;Node13 -->
<g id="edge81_Node000011_Node000013" class="edge">
<title>Node11&#45;&gt;Node13</title>
<g id="a_edge81_Node000011_Node000013"><a xlink:title=" ">
<path fill="none" stroke="#63b8ff" d="M1323.44,-278.06C1345.75,-283.04 1370.75,-288.62 1393.74,-293.75"/>
<polygon fill="#63b8ff" stroke="#63b8ff" points="1393.28,-297.23 1403.8,-296 1394.8,-290.4 1393.28,-297.23"/>
</a>
</g>
</g>
<!-- Node14 -->
<g id="Node000014" class="node">
<title>Node14</title>
<g id="a_Node000014"><a xlink:href="$classcom_1_1example_1_1mybookshelf_1_1dataClass_1_1Book.html#a4109da1bdee13601576c6725d6e89e71" xlink:title=" ">
<polygon fill="white" stroke="#666666" points="1559,-278 1385,-278 1385,-248 1559,-248 1559,-278"/>
<text text-anchor="start" x="1393" y="-266" font-family="Helvetica,sans-Serif" font-size="10.00">com.example.mybookshelf.data</text>
<text text-anchor="middle" x="1472" y="-255" font-family="Helvetica,sans-Serif" font-size="10.00">Class.Book.getName</text>
</a>
</g>
</g>
<!-- Node11&#45;&gt;Node14 -->
<g id="edge82_Node000011_Node000014" class="edge">
<title>Node11&#45;&gt;Node14</title>
<g id="a_edge82_Node000011_Node000014"><a xlink:title=" ">
<path fill="none" stroke="#63b8ff" d="M1331.2,-263C1345.27,-263 1360.15,-263 1374.75,-263"/>
<polygon fill="#63b8ff" stroke="#63b8ff" points="1374.8,-266.5 1384.8,-263 1374.8,-259.5 1374.8,-266.5"/>
</a>
</g>
</g>
<!-- Node16 -->
<g id="Node000016" class="node">
<title>Node16</title>
<g id="a_Node000016"><a xlink:href="$classcom_1_1example_1_1mybookshelf_1_1UIMaster.html#aeadc13ea946b279afce35c39bb36f3b6" xlink:title=" ">
<polygon fill="white" stroke="#666666" points="1331,-70 1179,-70 1179,-40 1331,-40 1331,-70"/>
<text text-anchor="start" x="1187" y="-58" font-family="Helvetica,sans-Serif" font-size="10.00">com.example.mybookshelf.</text>
<text text-anchor="middle" x="1255" y="-47" font-family="Helvetica,sans-Serif" font-size="10.00">UIMaster.initializeViews</text>
</a>
</g>
</g>
<!-- Node15&#45;&gt;Node16 -->
<g id="edge86_Node000015_Node000016" class="edge">
<title>Node15&#45;&gt;Node16</title>
<g id="a_edge86_Node000015_Node000016"><a xlink:title=" ">
<path fill="none" stroke="#63b8ff" d="M1113.99,-87.94C1135.06,-82.99 1158.67,-77.43 1180.4,-72.32"/>
<polygon fill="#63b8ff" stroke="#63b8ff" points="1181.31,-75.7 1190.24,-70 1179.7,-68.89 1181.31,-75.7"/>
</a>
</g>
</g>
<!-- Node17 -->
<g id="Node000017" class="node">
<title>Node17</title>
<g id="a_Node000017"><a xlink:href="$classcom_1_1example_1_1mybookshelf_1_1UIMaster.html#a5c502183bab9192d9f38b42a28be7164" xlink:title=" ">
<polygon fill="white" stroke="#666666" points="1336.5,-166 1173.5,-166 1173.5,-136 1336.5,-136 1336.5,-166"/>
<text text-anchor="start" x="1181.5" y="-154" font-family="Helvetica,sans-Serif" font-size="10.00">com.example.mybookshelf.</text>
<text text-anchor="middle" x="1255" y="-143" font-family="Helvetica,sans-Serif" font-size="10.00">UIMaster.loadChartDataAsync</text>
</a>
</g>
</g>
<!-- Node15&#45;&gt;Node17 -->
<g id="edge87_Node000015_Node000017" class="edge">
<title>Node15&#45;&gt;Node17</title>
<g id="a_edge87_Node000015_Node000017"><a xlink:title=" ">
<path fill="none" stroke="#63b8ff" d="M1113.99,-118.06C1135.06,-123.01 1158.67,-128.57 1180.4,-133.68"/>
<polygon fill="#63b8ff" stroke="#63b8ff" points="1179.7,-137.11 1190.24,-136 1181.31,-130.3 1179.7,-137.11"/>
</a>
</g>
</g>
<!-- Node25 -->
<g id="Node000025" class="node">
<title>Node25</title>
<g id="a_Node000025"><a xlink:href="$classcom_1_1example_1_1mybookshelf_1_1UIMaster.html#a3bb75047e98f0333fa2fdfd173bc80b0" xlink:title=" ">
<polygon fill="white" stroke="#666666" points="1349,-118 1161,-118 1161,-88 1349,-88 1349,-118"/>
<text text-anchor="start" x="1169" y="-106" font-family="Helvetica,sans-Serif" font-size="10.00">com.example.mybookshelf.</text>
<text text-anchor="middle" x="1255" y="-95" font-family="Helvetica,sans-Serif" font-size="10.00">UIMaster.setupNavigationListeners</text>
</a>
</g>
</g>
<!-- Node15&#45;&gt;Node25 -->
<g id="edge95_Node000015_Node000025" class="edge">
<title>Node15&#45;&gt;Node25</title>
<g id="a_edge95_Node000015_Node000025"><a xlink:title=" ">
<path fill="none" stroke="#63b8ff" d="M1125.09,-103C1133.42,-103 1142.01,-103 1150.61,-103"/>
<polygon fill="#63b8ff" stroke="#63b8ff" points="1150.7,-106.5 1160.7,-103 1150.7,-99.5 1150.7,-106.5"/>
</a>
</g>
</g>
<!-- Node18 -->
<g id="Node000018" class="node">
<title>Node18</title>
<g id="a_Node000018"><a xlink:href="$classcom_1_1example_1_1mybookshelf_1_1UIMaster.html#a1d0b44fba73323953ffbbf69f4f3f4cb" xlink:title=" ">
<polygon fill="white" stroke="#666666" points="1548,-126 1396,-126 1396,-96 1548,-96 1548,-126"/>
<text text-anchor="start" x="1404" y="-114" font-family="Helvetica,sans-Serif" font-size="10.00">com.example.mybookshelf.</text>
<text text-anchor="middle" x="1472" y="-103" font-family="Helvetica,sans-Serif" font-size="10.00">UIMaster.setupChart</text>
</a>
</g>
</g>
<!-- Node17&#45;&gt;Node18 -->
<g id="edge88_Node000017_Node000018" class="edge">
<title>Node17&#45;&gt;Node18</title>
<g id="a_edge88_Node000017_Node000018"><a xlink:title=" ">
<path fill="none" stroke="#63b8ff" d="M1336.67,-135.99C1352.75,-133 1369.69,-129.85 1385.92,-126.83"/>
<polygon fill="#63b8ff" stroke="#63b8ff" points="1386.73,-130.24 1395.92,-124.97 1385.45,-123.36 1386.73,-130.24"/>
</a>
</g>
</g>
<!-- Node24 -->
<g id="Node000024" class="node">
<title>Node24</title>
<g id="a_Node000024"><a xlink:href="$classcom_1_1example_1_1mybookshelf_1_1UIMaster.html#a3beb8f5e82c56206227f83e05d2e2dba" xlink:title=" ">
<polygon fill="white" stroke="#666666" points="1549.5,-174 1394.5,-174 1394.5,-144 1549.5,-144 1549.5,-174"/>
<text text-anchor="start" x="1402.5" y="-162" font-family="Helvetica,sans-Serif" font-size="10.00">com.example.mybookshelf.</text>
<text text-anchor="middle" x="1472" y="-151" font-family="Helvetica,sans-Serif" font-size="10.00">UIMaster.showErrorMessage</text>
</a>
</g>
</g>
<!-- Node17&#45;&gt;Node24 -->
<g id="edge94_Node000017_Node000024" class="edge">
<title>Node17&#45;&gt;Node24</title>
<g id="a_edge94_Node000017_Node000024"><a xlink:title=" ">
<path fill="none" stroke="#63b8ff" d="M1336.67,-154C1352.11,-154.58 1368.35,-155.18 1383.98,-155.76"/>
<polygon fill="#63b8ff" stroke="#63b8ff" points="1384.03,-159.27 1394.15,-156.14 1384.29,-152.27 1384.03,-159.27"/>
</a>
</g>
</g>
<!-- Node19 -->
<g id="Node000019" class="node">
<title>Node19</title>
<g id="a_Node000019"><a xlink:href="$classcom_1_1example_1_1mybookshelf_1_1UIMaster.html#a66cf6ce29c43e6db34be85ae9990c102" xlink:title=" ">
<polygon fill="white" stroke="#666666" points="1764,-222 1612,-222 1612,-192 1764,-192 1764,-222"/>
<text text-anchor="start" x="1620" y="-210" font-family="Helvetica,sans-Serif" font-size="10.00">com.example.mybookshelf.</text>
<text text-anchor="middle" x="1688" y="-199" font-family="Helvetica,sans-Serif" font-size="10.00">UIMaster.configureAxes</text>
</a>
</g>
</g>
<!-- Node18&#45;&gt;Node19 -->
<g id="edge89_Node000018_Node000019" class="edge">
<title>Node18&#45;&gt;Node19</title>
<g id="a_edge89_Node000018_Node000019"><a xlink:title=" ">
<path fill="none" stroke="#63b8ff" d="M1542.86,-126.14C1548.54,-128.66 1554.01,-131.59 1559,-135 1581.01,-150.05 1572.86,-168.14 1595,-183 1597.44,-184.64 1599.99,-186.17 1602.61,-187.59"/>
<polygon fill="#63b8ff" stroke="#63b8ff" points="1601.28,-190.83 1611.81,-192.04 1604.33,-184.53 1601.28,-190.83"/>
</a>
</g>
</g>
<!-- Node20 -->
<g id="Node000020" class="node">
<title>Node20</title>
<g id="a_Node000020"><a xlink:href="$classcom_1_1example_1_1mybookshelf_1_1UIMaster.html#ae589c66b6b1826db14cd0185e2453c12" xlink:title=" ">
<polygon fill="white" stroke="#666666" points="1764,-174 1612,-174 1612,-144 1764,-144 1764,-174"/>
<text text-anchor="start" x="1620" y="-162" font-family="Helvetica,sans-Serif" font-size="10.00">com.example.mybookshelf.</text>
<text text-anchor="middle" x="1688" y="-151" font-family="Helvetica,sans-Serif" font-size="10.00">UIMaster.configureChart</text>
</a>
</g>
</g>
<!-- Node18&#45;&gt;Node20 -->
<g id="edge90_Node000018_Node000020" class="edge">
<title>Node18&#45;&gt;Node20</title>
<g id="a_edge90_Node000018_Node000020"><a xlink:title=" ">
<path fill="none" stroke="#63b8ff" d="M1540.12,-126.06C1562.33,-131.04 1587.22,-136.62 1610.1,-141.75"/>
<polygon fill="#63b8ff" stroke="#63b8ff" points="1609.59,-145.22 1620.11,-144 1611.12,-138.39 1609.59,-145.22"/>
</a>
</g>
</g>
<!-- Node21 -->
<g id="Node000021" class="node">
<title>Node21</title>
<g id="a_Node000021"><a xlink:href="$classcom_1_1example_1_1mybookshelf_1_1UIMaster.html#a2f446043c1019868262b5e49ddb58609" xlink:title=" ">
<polygon fill="white" stroke="#666666" points="1777,-126 1599,-126 1599,-96 1777,-96 1777,-126"/>
<text text-anchor="start" x="1607" y="-114" font-family="Helvetica,sans-Serif" font-size="10.00">com.example.mybookshelf.</text>
<text text-anchor="middle" x="1688" y="-103" font-family="Helvetica,sans-Serif" font-size="10.00">UIMaster.convertMinutesToHours</text>
</a>
</g>
</g>
<!-- Node18&#45;&gt;Node21 -->
<g id="edge91_Node000018_Node000021" class="edge">
<title>Node18&#45;&gt;Node21</title>
<g id="a_edge91_Node000018_Node000021"><a xlink:title=" ">
<path fill="none" stroke="#63b8ff" d="M1548.15,-111C1561.2,-111 1574.95,-111 1588.51,-111"/>
<polygon fill="#63b8ff" stroke="#63b8ff" points="1588.83,-114.5 1598.83,-111 1588.83,-107.5 1588.83,-114.5"/>
</a>
</g>
</g>
<!-- Node22 -->
<g id="Node000022" class="node">
<title>Node22</title>
<g id="a_Node000022"><a xlink:href="$classcom_1_1example_1_1mybookshelf_1_1UIMaster.html#a5368b8b93b9216d91a256a2302ea04c8" xlink:title=" ">
<polygon fill="white" stroke="#666666" points="1781,-78 1595,-78 1595,-48 1781,-48 1781,-78"/>
<text text-anchor="start" x="1603" y="-66" font-family="Helvetica,sans-Serif" font-size="10.00">com.example.mybookshelf.</text>
<text text-anchor="middle" x="1688" y="-55" font-family="Helvetica,sans-Serif" font-size="10.00">UIMaster.displayTotalReadingTime</text>
</a>
</g>
</g>
<!-- Node18&#45;&gt;Node22 -->
<g id="edge92_Node000018_Node000022" class="edge">
<title>Node18&#45;&gt;Node22</title>
<g id="a_edge92_Node000018_Node000022"><a xlink:title=" ">
<path fill="none" stroke="#63b8ff" d="M1540.12,-95.94C1562.33,-90.96 1587.22,-85.38 1610.1,-80.25"/>
<polygon fill="#63b8ff" stroke="#63b8ff" points="1611.12,-83.61 1620.11,-78 1609.59,-76.78 1611.12,-83.61"/>
</a>
</g>
</g>
<!-- Node23 -->
<g id="Node000023" class="node">
<title>Node23</title>
<g id="a_Node000023"><a xlink:href="$classcom_1_1example_1_1mybookshelf_1_1UIMaster.html#a897a27ba41fe604acf9472257ad18685" xlink:title=" ">
<polygon fill="white" stroke="#666666" points="1764,-30 1612,-30 1612,0 1764,0 1764,-30"/>
<text text-anchor="start" x="1620" y="-18" font-family="Helvetica,sans-Serif" font-size="10.00">com.example.mybookshelf.</text>
<text text-anchor="middle" x="1688" y="-7" font-family="Helvetica,sans-Serif" font-size="10.00">UIMaster.filterValidEntries</text>
</a>
</g>
</g>
<!-- Node18&#45;&gt;Node23 -->
<g id="edge93_Node000018_Node000023" class="edge">
<title>Node18&#45;&gt;Node23</title>
<g id="a_edge93_Node000018_Node000023"><a xlink:title=" ">
<path fill="none" stroke="#63b8ff" d="M1494.52,-95.79C1518.16,-79.68 1557.76,-54.49 1595,-39 1600.05,-36.9 1605.33,-34.94 1610.7,-33.12"/>
<polygon fill="#63b8ff" stroke="#63b8ff" points="1611.98,-36.39 1620.43,-30 1609.84,-29.72 1611.98,-36.39"/>
</a>
</g>
</g>
<!-- Node28 -->
<g id="Node000028" class="node">
<title>Node28</title>
<g id="a_Node000028"><a xlink:href="$classcom_1_1example_1_1mybookshelf_1_1UIMaster.html#a5f5bae724e7f3d3de15486430b3bc8c1" xlink:title=" ">
<polygon fill="white" stroke="#666666" points="677,-37 525,-37 525,-7 677,-7 677,-37"/>
<text text-anchor="start" x="533" y="-25" font-family="Helvetica,sans-Serif" font-size="10.00">com.example.mybookshelf.</text>
<text text-anchor="middle" x="601" y="-14" font-family="Helvetica,sans-Serif" font-size="10.00">UIMaster.showRegister</text>
</a>
</g>
</g>
<!-- Node27&#45;&gt;Node28 -->
<g id="edge101_Node000027_Node000028" class="edge">
<title>Node27&#45;&gt;Node28</title>
<g id="a_edge101_Node000027_Node000028"><a xlink:title=" ">
<path fill="none" stroke="#63b8ff" d="M395.03,-15.94C431.91,-15.1 476.52,-15.03 514.69,-15.73"/>
<polygon fill="#63b8ff" stroke="#63b8ff" points="514.69,-19.23 524.76,-15.94 514.83,-12.23 514.69,-19.23"/>
</a>
</g>
</g>
<!-- Node28&#45;&gt;Node27 -->
<g id="edge102_Node000028_Node000027" class="edge">
<title>Node28&#45;&gt;Node27</title>
<g id="a_edge102_Node000028_Node000027"><a xlink:title=" ">
<path fill="none" stroke="#63b8ff" d="M524.76,-28.06C487.85,-28.91 443.24,-28.97 405.1,-28.27"/>
<polygon fill="#63b8ff" stroke="#63b8ff" points="405.11,-24.77 395.03,-28.06 404.96,-31.76 405.11,-24.77"/>
</a>
</g>
</g>
</g>
</svg>
