<?xml version="1.0" encoding="UTF-8" standalone="no"?>
<!DOCTYPE svg PUBLIC "-//W3C//DTD SVG 1.1//EN"
 "http://www.w3.org/Graphics/SVG/1.1/DTD/svg11.dtd">
<!-- Generated by graphviz version 2.43.0 (0)
 -->
<!-- Title: com.example.mybookshelf.LayoutManager.CostumeListAdapter.bindBookData Pages: 1 -->
<svg width="698pt" height="232pt"
 viewBox="0.00 0.00 698.00 231.50" xmlns="http://www.w3.org/2000/svg" xmlns:xlink="http://www.w3.org/1999/xlink">
<g id="graph0" class="graph" transform="scale(1 1) rotate(0) translate(4 227.5)">
<title>com.example.mybookshelf.LayoutManager.CostumeListAdapter.bindBookData</title>
<!-- Node1 -->
<g id="Node000001" class="node">
<title>Node1</title>
<g id="a_Node000001"><a xlink:title=" ">
<polygon fill="#999999" stroke="#666666" points="217,-131.5 0,-131.5 0,-90.5 217,-90.5 217,-131.5"/>
<text text-anchor="start" x="8" y="-119.5" font-family="Helvetica,sans-Serif" font-size="10.00">com.example.mybookshelf.</text>
<text text-anchor="start" x="8" y="-108.5" font-family="Helvetica,sans-Serif" font-size="10.00">LayoutManager.CostumeListAdapter.bind</text>
<text text-anchor="middle" x="108.5" y="-97.5" font-family="Helvetica,sans-Serif" font-size="10.00">BookData</text>
</a>
</g>
</g>
<!-- Node2 -->
<g id="Node000002" class="node">
<title>Node2</title>
<g id="a_Node000002"><a xlink:href="$classcom_1_1example_1_1mybookshelf_1_1LayoutManager_1_1CostumeListAdapter.html#a73afe4df78d60ab38b9b7d8b9e804d05" xlink:title=" ">
<polygon fill="white" stroke="#666666" points="480,-223.5 253,-223.5 253,-182.5 480,-182.5 480,-223.5"/>
<text text-anchor="start" x="261" y="-211.5" font-family="Helvetica,sans-Serif" font-size="10.00">com.example.mybookshelf.</text>
<text text-anchor="start" x="261" y="-200.5" font-family="Helvetica,sans-Serif" font-size="10.00">LayoutManager.CostumeListAdapter.create</text>
<text text-anchor="middle" x="366.5" y="-189.5" font-family="Helvetica,sans-Serif" font-size="10.00">TextWatcher</text>
</a>
</g>
</g>
<!-- Node1&#45;&gt;Node2 -->
<g id="edge13_Node000001_Node000002" class="edge">
<title>Node1&#45;&gt;Node2</title>
<g id="a_edge13_Node000001_Node000002"><a xlink:title=" ">
<path fill="none" stroke="#63b8ff" d="M158.62,-131.59C186.18,-142.87 221.28,-156.79 253,-168 263.92,-171.86 275.52,-175.73 286.96,-179.41"/>
<polygon fill="#63b8ff" stroke="#63b8ff" points="285.92,-182.75 296.51,-182.45 288.04,-176.08 285.92,-182.75"/>
</a>
</g>
</g>
<!-- Node3 -->
<g id="Node000003" class="node">
<title>Node3</title>
<g id="a_Node000003"><a xlink:href="$classcom_1_1example_1_1mybookshelf_1_1dataClass_1_1Book.html#ab76b4ec7891e641d4c1a70a564805ffb" xlink:title=" ">
<polygon fill="white" stroke="#666666" points="690,-193 516,-193 516,-163 690,-163 690,-193"/>
<text text-anchor="start" x="524" y="-181" font-family="Helvetica,sans-Serif" font-size="10.00">com.example.mybookshelf.data</text>
<text text-anchor="middle" x="603" y="-170" font-family="Helvetica,sans-Serif" font-size="10.00">Class.Book.getId</text>
</a>
</g>
</g>
<!-- Node1&#45;&gt;Node3 -->
<g id="edge16_Node000001_Node000003" class="edge">
<title>Node1&#45;&gt;Node3</title>
<g id="a_edge16_Node000001_Node000003"><a xlink:title=" ">
<path fill="none" stroke="#63b8ff" d="M217.16,-129.52C229.24,-131.45 241.38,-133.31 253,-135 338.22,-147.37 435.49,-159.16 505.66,-167.26"/>
<polygon fill="#63b8ff" stroke="#63b8ff" points="505.47,-170.76 515.81,-168.43 506.27,-163.81 505.47,-170.76"/>
</a>
</g>
</g>
<!-- Node4 -->
<g id="Node000004" class="node">
<title>Node4</title>
<g id="a_Node000004"><a xlink:href="$classcom_1_1example_1_1mybookshelf_1_1dataClass_1_1Book.html#a72061c36f82e9d925effeb02dc0da55d" xlink:title=" ">
<polygon fill="white" stroke="#666666" points="453.5,-126 279.5,-126 279.5,-96 453.5,-96 453.5,-126"/>
<text text-anchor="start" x="287.5" y="-114" font-family="Helvetica,sans-Serif" font-size="10.00">com.example.mybookshelf.data</text>
<text text-anchor="middle" x="366.5" y="-103" font-family="Helvetica,sans-Serif" font-size="10.00">Class.Book.getAuthor</text>
</a>
</g>
</g>
<!-- Node1&#45;&gt;Node4 -->
<g id="edge15_Node000001_Node000004" class="edge">
<title>Node1&#45;&gt;Node4</title>
<g id="a_edge15_Node000001_Node000004"><a xlink:title=" ">
<path fill="none" stroke="#63b8ff" d="M217.33,-111C234.41,-111 251.99,-111 268.8,-111"/>
<polygon fill="#63b8ff" stroke="#63b8ff" points="269.16,-114.5 279.16,-111 269.16,-107.5 269.16,-114.5"/>
</a>
</g>
</g>
<!-- Node5 -->
<g id="Node000005" class="node">
<title>Node5</title>
<g id="a_Node000005"><a xlink:href="$classcom_1_1example_1_1mybookshelf_1_1dataClass_1_1Book.html#a20229b9b1dcc454fc3f09a50e719294c" xlink:title=" ">
<polygon fill="white" stroke="#666666" points="453.5,-78 279.5,-78 279.5,-48 453.5,-48 453.5,-78"/>
<text text-anchor="start" x="287.5" y="-66" font-family="Helvetica,sans-Serif" font-size="10.00">com.example.mybookshelf.data</text>
<text text-anchor="middle" x="366.5" y="-55" font-family="Helvetica,sans-Serif" font-size="10.00">Class.Book.getImageUrl</text>
</a>
</g>
</g>
<!-- Node1&#45;&gt;Node5 -->
<g id="edge17_Node000001_Node000005" class="edge">
<title>Node1&#45;&gt;Node5</title>
<g id="a_edge17_Node000001_Node000005"><a xlink:title=" ">
<path fill="none" stroke="#63b8ff" d="M217.33,-90.78C236.67,-87.16 256.64,-83.41 275.42,-79.89"/>
<polygon fill="#63b8ff" stroke="#63b8ff" points="276.23,-83.3 285.42,-78.02 274.94,-76.42 276.23,-83.3"/>
</a>
</g>
</g>
<!-- Node6 -->
<g id="Node000006" class="node">
<title>Node6</title>
<g id="a_Node000006"><a xlink:href="$classcom_1_1example_1_1mybookshelf_1_1dataClass_1_1Book.html#a4109da1bdee13601576c6725d6e89e71" xlink:title=" ">
<polygon fill="white" stroke="#666666" points="453.5,-30 279.5,-30 279.5,0 453.5,0 453.5,-30"/>
<text text-anchor="start" x="287.5" y="-18" font-family="Helvetica,sans-Serif" font-size="10.00">com.example.mybookshelf.data</text>
<text text-anchor="middle" x="366.5" y="-7" font-family="Helvetica,sans-Serif" font-size="10.00">Class.Book.getName</text>
</a>
</g>
</g>
<!-- Node1&#45;&gt;Node6 -->
<g id="edge18_Node000001_Node000006" class="edge">
<title>Node1&#45;&gt;Node6</title>
<g id="a_edge18_Node000001_Node000006"><a xlink:title=" ">
<path fill="none" stroke="#63b8ff" d="M144.37,-90.34C172.76,-74.3 214.34,-52.57 253,-39 259.46,-36.73 266.2,-34.64 273.04,-32.72"/>
<polygon fill="#63b8ff" stroke="#63b8ff" points="274.35,-36 283.1,-30.03 272.54,-29.23 274.35,-36"/>
</a>
</g>
</g>
<!-- Node2&#45;&gt;Node3 -->
<g id="edge14_Node000002_Node000003" class="edge">
<title>Node2&#45;&gt;Node3</title>
<g id="a_edge14_Node000002_Node000003"><a xlink:title=" ">
<path fill="none" stroke="#63b8ff" d="M480.29,-190.98C488.79,-190.07 497.33,-189.16 505.73,-188.26"/>
<polygon fill="#63b8ff" stroke="#63b8ff" points="506.3,-191.72 515.88,-187.18 505.56,-184.76 506.3,-191.72"/>
</a>
</g>
</g>
</g>
</svg>
