<?xml version="1.0" encoding="UTF-8" standalone="no"?>
<!DOCTYPE svg PUBLIC "-//W3C//DTD SVG 1.1//EN"
 "http://www.w3.org/Graphics/SVG/1.1/DTD/svg11.dtd">
<!-- Generated by graphviz version 2.43.0 (0)
 -->
<!-- Title: com.example.mybookshelf.dataClass.User.User Pages: 1 -->
<svg width="695pt" height="194pt"
 viewBox="0.00 0.00 695.00 194.00" xmlns="http://www.w3.org/2000/svg" xmlns:xlink="http://www.w3.org/1999/xlink">
<g id="graph0" class="graph" transform="scale(1 1) rotate(0) translate(4 190)">
<title>com.example.mybookshelf.dataClass.User.User</title>
<!-- Node1 -->
<g id="Node000001" class="node">
<title>Node1</title>
<g id="a_Node000001"><a xlink:title=" ">
<polygon fill="#999999" stroke="#666666" points="174,-108 0,-108 0,-78 174,-78 174,-108"/>
<text text-anchor="start" x="8" y="-96" font-family="Helvetica,sans-Serif" font-size="10.00">com.example.mybookshelf.data</text>
<text text-anchor="middle" x="87" y="-85" font-family="Helvetica,sans-Serif" font-size="10.00">Class.User.User</text>
</a>
</g>
</g>
<!-- Node2 -->
<g id="Node000002" class="node">
<title>Node2</title>
<g id="a_Node000002"><a xlink:href="$classcom_1_1example_1_1mybookshelf_1_1notifications_1_1NotificationScheduler.html#a10e7adec73e1f0e63d8376cad273e11a" xlink:title=" ">
<polygon fill="white" stroke="#666666" points="681,-186 426,-186 426,-156 681,-156 681,-186"/>
<text text-anchor="start" x="434" y="-174" font-family="Helvetica,sans-Serif" font-size="10.00">com.example.mybookshelf.notifications.</text>
<text text-anchor="middle" x="553.5" y="-163" font-family="Helvetica,sans-Serif" font-size="10.00">NotificationScheduler.cancelOneTimeNotification</text>
</a>
</g>
</g>
<!-- Node1&#45;&gt;Node2 -->
<g id="edge19_Node000001_Node000002" class="edge">
<title>Node1&#45;&gt;Node2</title>
<g id="a_edge19_Node000001_Node000002"><a xlink:title=" ">
<path fill="none" stroke="#63b8ff" d="M141.76,-108.05C162.91,-113.6 187.48,-119.61 210,-124 277.38,-137.14 352.92,-147.92 415.88,-155.83"/>
<polygon fill="#63b8ff" stroke="#63b8ff" points="415.52,-159.31 425.88,-157.07 416.39,-152.36 415.52,-159.31"/>
</a>
</g>
</g>
<!-- Node3 -->
<g id="Node000003" class="node">
<title>Node3</title>
<g id="a_Node000003"><a xlink:href="$classcom_1_1example_1_1mybookshelf_1_1notifications_1_1NotificationScheduler.html#adb2c3bbb24876b087277d011a6df1577" xlink:title=" ">
<polygon fill="white" stroke="#666666" points="669.5,-137.5 437.5,-137.5 437.5,-96.5 669.5,-96.5 669.5,-137.5"/>
<text text-anchor="start" x="445.5" y="-125.5" font-family="Helvetica,sans-Serif" font-size="10.00">com.example.mybookshelf.notifications.</text>
<text text-anchor="start" x="445.5" y="-114.5" font-family="Helvetica,sans-Serif" font-size="10.00">NotificationScheduler.isOneTimeNotification</text>
<text text-anchor="middle" x="553.5" y="-103.5" font-family="Helvetica,sans-Serif" font-size="10.00">Scheduled</text>
</a>
</g>
</g>
<!-- Node1&#45;&gt;Node3 -->
<g id="edge20_Node000001_Node000003" class="edge">
<title>Node1&#45;&gt;Node3</title>
<g id="a_edge20_Node000001_Node000003"><a xlink:title=" ">
<path fill="none" stroke="#63b8ff" d="M174.26,-102.17C186.25,-103.24 198.43,-104.23 210,-105 281.85,-109.79 362.31,-112.73 427.19,-114.5"/>
<polygon fill="#63b8ff" stroke="#63b8ff" points="427.37,-118.01 437.46,-114.78 427.56,-111.01 427.37,-118.01"/>
</a>
</g>
</g>
<!-- Node4 -->
<g id="Node000004" class="node">
<title>Node4</title>
<g id="a_Node000004"><a xlink:href="$classcom_1_1example_1_1mybookshelf_1_1notifications_1_1NotificationScheduler.html#a0a97077bdcc3f2c0fc441d5f3e8e2d62" xlink:title=" ">
<polygon fill="white" stroke="#666666" points="687,-30 420,-30 420,0 687,0 687,-30"/>
<text text-anchor="start" x="428" y="-18" font-family="Helvetica,sans-Serif" font-size="10.00">com.example.mybookshelf.notifications.</text>
<text text-anchor="middle" x="553.5" y="-7" font-family="Helvetica,sans-Serif" font-size="10.00">NotificationScheduler.scheduleOneTimeNotification</text>
</a>
</g>
</g>
<!-- Node1&#45;&gt;Node4 -->
<g id="edge21_Node000001_Node000004" class="edge">
<title>Node1&#45;&gt;Node4</title>
<g id="a_edge21_Node000001_Node000004"><a xlink:title=" ">
<path fill="none" stroke="#63b8ff" d="M114.65,-77.96C138.75,-65.16 175.61,-47.54 210,-39 274.39,-23.01 347.53,-16.39 409.65,-14.01"/>
<polygon fill="#63b8ff" stroke="#63b8ff" points="410.04,-17.5 419.91,-13.66 409.8,-10.51 410.04,-17.5"/>
</a>
</g>
</g>
<!-- Node5 -->
<g id="Node000005" class="node">
<title>Node5</title>
<g id="a_Node000005"><a xlink:href="$classcom_1_1example_1_1mybookshelf_1_1dataClass_1_1User.html#afb85fd04c8149bfb77f1810c9301b0bc" xlink:title=" ">
<polygon fill="white" stroke="#666666" points="384,-78 210,-78 210,-48 384,-48 384,-78"/>
<text text-anchor="start" x="218" y="-66" font-family="Helvetica,sans-Serif" font-size="10.00">com.example.mybookshelf.data</text>
<text text-anchor="middle" x="297" y="-55" font-family="Helvetica,sans-Serif" font-size="10.00">Class.User.User</text>
</a>
</g>
</g>
<!-- Node1&#45;&gt;Node5 -->
<g id="edge22_Node000001_Node000005" class="edge">
<title>Node1&#45;&gt;Node5</title>
<g id="a_edge22_Node000001_Node000005"><a xlink:title=" ">
<path fill="none" stroke="#63b8ff" d="M174.1,-80.58C182.62,-79.35 191.3,-78.1 199.91,-76.86"/>
<polygon fill="#63b8ff" stroke="#63b8ff" points="200.56,-80.3 209.96,-75.41 199.56,-73.37 200.56,-80.3"/>
</a>
</g>
</g>
<!-- Node5&#45;&gt;Node2 -->
<g id="edge24_Node000005_Node000002" class="edge">
<title>Node5&#45;&gt;Node2</title>
<g id="a_edge24_Node000005_Node000002"><a xlink:title=" ">
<path fill="none" stroke="#63b8ff" d="M314.8,-78.08C337.14,-97.27 378.63,-129.94 420,-147 425.4,-149.23 431.01,-151.25 436.73,-153.08"/>
<polygon fill="#63b8ff" stroke="#63b8ff" points="435.87,-156.48 446.46,-155.99 437.88,-149.77 435.87,-156.48"/>
</a>
</g>
</g>
<!-- Node5&#45;&gt;Node3 -->
<g id="edge25_Node000005_Node000003" class="edge">
<title>Node5&#45;&gt;Node3</title>
<g id="a_edge25_Node000005_Node000003"><a xlink:title=" ">
<path fill="none" stroke="#63b8ff" d="M368.89,-78.04C392.76,-83.11 419.94,-88.87 445.94,-94.39"/>
<polygon fill="#63b8ff" stroke="#63b8ff" points="445.32,-97.84 455.83,-96.49 446.78,-90.99 445.32,-97.84"/>
</a>
</g>
</g>
<!-- Node5&#45;&gt;Node4 -->
<g id="edge26_Node000005_Node000004" class="edge">
<title>Node5&#45;&gt;Node4</title>
<g id="a_edge26_Node000005_Node000004"><a xlink:title=" ">
<path fill="none" stroke="#63b8ff" d="M373.46,-47.97C388.85,-44.96 404.94,-41.85 420,-39 432.45,-36.65 445.56,-34.22 458.5,-31.85"/>
<polygon fill="#63b8ff" stroke="#63b8ff" points="459.14,-35.29 468.35,-30.05 457.89,-28.4 459.14,-35.29"/>
</a>
</g>
</g>
<!-- Node5&#45;&gt;Node5 -->
<g id="edge27_Node000005_Node000005" class="edge">
<title>Node5&#45;&gt;Node5</title>
<g id="a_edge27_Node000005_Node000005"><a xlink:title=" ">
<path fill="none" stroke="#63b8ff" d="M260.09,-78.28C251.88,-87.41 264.19,-96 297,-96 316.48,-96 328.74,-92.97 333.76,-88.6"/>
<polygon fill="#63b8ff" stroke="#63b8ff" points="337.26,-88.33 333.91,-78.28 330.26,-88.22 337.26,-88.33"/>
</a>
</g>
</g>
<!-- Node6 -->
<g id="Node000006" class="node">
<title>Node6</title>
<g id="a_Node000006"><a xlink:href="$classcom_1_1example_1_1mybookshelf_1_1notifications_1_1NotificationScheduler.html#afc96590cd792b862b32762b84cab085e" xlink:title=" ">
<polygon fill="white" stroke="#666666" points="671.5,-78 435.5,-78 435.5,-48 671.5,-48 671.5,-78"/>
<text text-anchor="start" x="443.5" y="-66" font-family="Helvetica,sans-Serif" font-size="10.00">com.example.mybookshelf.notifications.</text>
<text text-anchor="middle" x="553.5" y="-55" font-family="Helvetica,sans-Serif" font-size="10.00">NotificationScheduler.cancelDailyNotification</text>
</a>
</g>
</g>
<!-- Node5&#45;&gt;Node6 -->
<g id="edge23_Node000005_Node000006" class="edge">
<title>Node5&#45;&gt;Node6</title>
<g id="a_edge23_Node000005_Node000006"><a xlink:title=" ">
<path fill="none" stroke="#63b8ff" d="M384.16,-63C397.39,-63 411.28,-63 425.18,-63"/>
<polygon fill="#63b8ff" stroke="#63b8ff" points="425.28,-66.5 435.28,-63 425.28,-59.5 425.28,-66.5"/>
</a>
</g>
</g>
</g>
</svg>
