<?xml version="1.0" encoding="UTF-8" standalone="no"?>
<!DOCTYPE svg PUBLIC "-//W3C//DTD SVG 1.1//EN"
 "http://www.w3.org/Graphics/SVG/1.1/DTD/svg11.dtd">
<!-- Generated by graphviz version 2.43.0 (0)
 -->
<!-- Title: com.example.mybookshelf.dataClass.Goal.getBookName Pages: 1 -->
<svg width="402pt" height="182pt"
 viewBox="0.00 0.00 402.00 182.00" xmlns="http://www.w3.org/2000/svg" xmlns:xlink="http://www.w3.org/1999/xlink">
<g id="graph0" class="graph" transform="scale(1 1) rotate(0) translate(4 178)">
<title>com.example.mybookshelf.dataClass.Goal.getBookName</title>
<!-- Node1 -->
<g id="Node000001" class="node">
<title>Node1</title>
<g id="a_Node000001"><a xlink:title=" ">
<polygon fill="#999999" stroke="#666666" points="394,-102 220,-102 220,-72 394,-72 394,-102"/>
<text text-anchor="start" x="228" y="-90" font-family="Helvetica,sans-Serif" font-size="10.00">com.example.mybookshelf.data</text>
<text text-anchor="middle" x="307" y="-79" font-family="Helvetica,sans-Serif" font-size="10.00">Class.Goal.getBookName</text>
</a>
</g>
</g>
<!-- Node2 -->
<g id="Node000002" class="node">
<title>Node2</title>
<g id="a_Node000002"><a xlink:href="$classcom_1_1example_1_1mybookshelf_1_1DataBaseConnection.html#a3b22d6106c92d008ed8b05c10892f0b7" xlink:title=" ">
<polygon fill="white" stroke="#666666" points="173,-174 11,-174 11,-144 173,-144 173,-174"/>
<text text-anchor="start" x="19" y="-162" font-family="Helvetica,sans-Serif" font-size="10.00">com.example.mybookshelf.</text>
<text text-anchor="middle" x="92" y="-151" font-family="Helvetica,sans-Serif" font-size="10.00">DataBaseConnection.addGoal</text>
</a>
</g>
</g>
<!-- Node1&#45;&gt;Node2 -->
<g id="edge9_Node000001_Node000002" class="edge">
<title>Node1&#45;&gt;Node2</title>
<g id="a_edge9_Node000001_Node000002"><a xlink:title=" ">
<path fill="none" stroke="#63b8ff" d="M261.45,-105.98C238.53,-115.37 210.03,-126.48 184,-135 174.37,-138.15 164.07,-141.18 153.99,-143.97"/>
<polygon fill="#63b8ff" stroke="#63b8ff" points="262.99,-109.13 270.9,-102.07 260.32,-102.66 262.99,-109.13"/>
</a>
</g>
</g>
<!-- Node3 -->
<g id="Node000003" class="node">
<title>Node3</title>
<g id="a_Node000003"><a xlink:href="$classcom_1_1example_1_1mybookshelf_1_1GoalHandler.html#ac10bf110d981c8788e0e4b9b2e25177e" xlink:title=" ">
<polygon fill="white" stroke="#666666" points="176,-126 8,-126 8,-96 176,-96 176,-126"/>
<text text-anchor="start" x="16" y="-114" font-family="Helvetica,sans-Serif" font-size="10.00">com.example.mybookshelf.</text>
<text text-anchor="middle" x="92" y="-103" font-family="Helvetica,sans-Serif" font-size="10.00">GoalHandler.handleBookAdded</text>
</a>
</g>
</g>
<!-- Node1&#45;&gt;Node3 -->
<g id="edge10_Node000001_Node000003" class="edge">
<title>Node1&#45;&gt;Node3</title>
<g id="a_edge10_Node000001_Node000003"><a xlink:title=" ">
<path fill="none" stroke="#63b8ff" d="M209.76,-97.84C198.57,-99.1 187.23,-100.38 176.23,-101.62"/>
<polygon fill="#63b8ff" stroke="#63b8ff" points="210.43,-101.29 219.98,-96.69 209.65,-94.33 210.43,-101.29"/>
</a>
</g>
</g>
<!-- Node4 -->
<g id="Node000004" class="node">
<title>Node4</title>
<g id="a_Node000004"><a xlink:href="$classcom_1_1example_1_1mybookshelf_1_1GoalHandler.html#a5ddb8c71cb9828e9525f4bafefaf685f" xlink:title=" ">
<polygon fill="white" stroke="#666666" points="179,-78 5,-78 5,-48 179,-48 179,-78"/>
<text text-anchor="start" x="13" y="-66" font-family="Helvetica,sans-Serif" font-size="10.00">com.example.mybookshelf.</text>
<text text-anchor="middle" x="92" y="-55" font-family="Helvetica,sans-Serif" font-size="10.00">GoalHandler.handleBookChange</text>
</a>
</g>
</g>
<!-- Node1&#45;&gt;Node4 -->
<g id="edge11_Node000001_Node000004" class="edge">
<title>Node1&#45;&gt;Node4</title>
<g id="a_edge11_Node000001_Node000004"><a xlink:title=" ">
<path fill="none" stroke="#63b8ff" d="M209.86,-76.17C199.69,-75.02 189.39,-73.86 179.34,-72.73"/>
<polygon fill="#63b8ff" stroke="#63b8ff" points="209.65,-79.67 219.98,-77.31 210.43,-72.71 209.65,-79.67"/>
</a>
</g>
</g>
<!-- Node5 -->
<g id="Node000005" class="node">
<title>Node5</title>
<g id="a_Node000005"><a xlink:href="$classcom_1_1example_1_1mybookshelf_1_1GoalHandler.html#a326d9e94cb83508cae6d760df1bd5718" xlink:title=" ">
<polygon fill="white" stroke="#666666" points="184,-30 0,-30 0,0 184,0 184,-30"/>
<text text-anchor="start" x="8" y="-18" font-family="Helvetica,sans-Serif" font-size="10.00">com.example.mybookshelf.</text>
<text text-anchor="middle" x="92" y="-7" font-family="Helvetica,sans-Serif" font-size="10.00">GoalHandler.handleBookRemoved</text>
</a>
</g>
</g>
<!-- Node1&#45;&gt;Node5 -->
<g id="edge12_Node000001_Node000005" class="edge">
<title>Node1&#45;&gt;Node5</title>
<g id="a_edge12_Node000001_Node000005"><a xlink:title=" ">
<path fill="none" stroke="#63b8ff" d="M261.45,-68.02C238.53,-58.63 210.03,-47.52 184,-39 174.37,-35.85 164.07,-32.82 153.99,-30.03"/>
<polygon fill="#63b8ff" stroke="#63b8ff" points="260.32,-71.34 270.9,-71.93 262.99,-64.87 260.32,-71.34"/>
</a>
</g>
</g>
</g>
</svg>
