<?xml version="1.0" encoding="UTF-8" standalone="no"?>
<!DOCTYPE svg PUBLIC "-//W3C//DTD SVG 1.1//EN"
 "http://www.w3.org/Graphics/SVG/1.1/DTD/svg11.dtd">
<!-- Generated by graphviz version 2.43.0 (0)
 -->
<!-- Title: com.example.mybookshelf.BookRecommendationFlow.hideThinkingAnimation Pages: 1 -->
<svg width="2326pt" height="137pt"
 viewBox="0.00 0.00 2326.00 136.91" xmlns="http://www.w3.org/2000/svg" xmlns:xlink="http://www.w3.org/1999/xlink">
<g id="graph0" class="graph" transform="scale(1 1) rotate(0) translate(4 132.91)">
<title>com.example.mybookshelf.BookRecommendationFlow.hideThinkingAnimation</title>
<!-- Node1 -->
<g id="Node000001" class="node">
<title>Node1</title>
<g id="a_Node000001"><a xlink:title=" ">
<polygon fill="#999999" stroke="#666666" points="2318,-69.91 2102,-69.91 2102,-28.91 2318,-28.91 2318,-69.91"/>
<text text-anchor="start" x="2110" y="-57.91" font-family="Helvetica,sans-Serif" font-size="10.00">com.example.mybookshelf.</text>
<text text-anchor="start" x="2110" y="-46.91" font-family="Helvetica,sans-Serif" font-size="10.00">BookRecommendationFlow.hideThinking</text>
<text text-anchor="middle" x="2210" y="-35.91" font-family="Helvetica,sans-Serif" font-size="10.00">Animation</text>
</a>
</g>
</g>
<!-- Node2 -->
<g id="Node000002" class="node">
<title>Node2</title>
<g id="a_Node000002"><a xlink:href="$classcom_1_1example_1_1mybookshelf_1_1BookRecommendationFlow.html#ae50cf18619872a365eebe91c18d86e8d" xlink:title=" ">
<polygon fill="white" stroke="#666666" points="2066,-64.41 1886,-64.41 1886,-34.41 2066,-34.41 2066,-64.41"/>
<text text-anchor="start" x="1894" y="-52.41" font-family="Helvetica,sans-Serif" font-size="10.00">com.example.mybookshelf.</text>
<text text-anchor="middle" x="1976" y="-41.41" font-family="Helvetica,sans-Serif" font-size="10.00">BookRecommendationFlow.callAI</text>
</a>
</g>
</g>
<!-- Node1&#45;&gt;Node2 -->
<g id="edge33_Node000001_Node000002" class="edge">
<title>Node1&#45;&gt;Node2</title>
<g id="a_edge33_Node000001_Node000002"><a xlink:title=" ">
<path fill="none" stroke="#63b8ff" d="M2091.79,-49.41C2083.24,-49.41 2074.69,-49.41 2066.34,-49.41"/>
<polygon fill="#63b8ff" stroke="#63b8ff" points="2091.83,-52.91 2101.83,-49.41 2091.83,-45.91 2091.83,-52.91"/>
</a>
</g>
</g>
<!-- Node2&#45;&gt;Node2 -->
<g id="edge48_Node000002_Node000002" class="edge">
<title>Node2&#45;&gt;Node2</title>
<g id="a_edge48_Node000002_Node000002"><a xlink:title=" ">
<path fill="none" stroke="#63b8ff" d="M2013.46,-75.01C2008.34,-79.38 1995.85,-82.41 1976,-82.41 1942.56,-82.41 1930.02,-73.82 1938.38,-64.69"/>
<polygon fill="#63b8ff" stroke="#63b8ff" points="2016.96,-74.74 2013.62,-64.69 2009.96,-74.63 2016.96,-74.74"/>
</a>
</g>
</g>
<!-- Node3 -->
<g id="Node000003" class="node">
<title>Node3</title>
<g id="a_Node000003"><a xlink:href="$classcom_1_1example_1_1mybookshelf_1_1BookRecommendationFlow.html#a78dda71d2c403a463d824ff61b2ce27f" xlink:title=" ">
<polygon fill="white" stroke="#666666" points="1850,-128.91 1673,-128.91 1673,-87.91 1850,-87.91 1850,-128.91"/>
<text text-anchor="start" x="1681" y="-116.91" font-family="Helvetica,sans-Serif" font-size="10.00">com.example.mybookshelf.</text>
<text text-anchor="start" x="1681" y="-105.91" font-family="Helvetica,sans-Serif" font-size="10.00">BookRecommendationFlow.build</text>
<text text-anchor="middle" x="1761.5" y="-94.91" font-family="Helvetica,sans-Serif" font-size="10.00">AIStringBased</text>
</a>
</g>
</g>
<!-- Node2&#45;&gt;Node3 -->
<g id="edge34_Node000002_Node000003" class="edge">
<title>Node2&#45;&gt;Node3</title>
<g id="a_edge34_Node000002_Node000003"><a xlink:title=" ">
<path fill="none" stroke="#63b8ff" d="M1911,-67.18C1887.57,-73.69 1860.86,-81.1 1836.62,-87.83"/>
<polygon fill="#63b8ff" stroke="#63b8ff" points="1912.13,-70.5 1920.83,-64.45 1910.26,-63.75 1912.13,-70.5"/>
</a>
</g>
</g>
<!-- Node9 -->
<g id="Node000009" class="node">
<title>Node9</title>
<g id="a_Node000009"><a xlink:href="$classcom_1_1example_1_1mybookshelf_1_1BookRecommendationFlow.html#abe4c57ea57ed54c344739295e70066ff" xlink:title=" ">
<polygon fill="white" stroke="#666666" points="1850,-69.91 1673,-69.91 1673,-28.91 1850,-28.91 1850,-69.91"/>
<text text-anchor="start" x="1681" y="-57.91" font-family="Helvetica,sans-Serif" font-size="10.00">com.example.mybookshelf.</text>
<text text-anchor="start" x="1681" y="-46.91" font-family="Helvetica,sans-Serif" font-size="10.00">BookRecommendationFlow.build</text>
<text text-anchor="middle" x="1761.5" y="-35.91" font-family="Helvetica,sans-Serif" font-size="10.00">AIStringFresh</text>
</a>
</g>
</g>
<!-- Node2&#45;&gt;Node9 -->
<g id="edge41_Node000002_Node000009" class="edge">
<title>Node2&#45;&gt;Node9</title>
<g id="a_edge41_Node000002_Node000009"><a xlink:title=" ">
<path fill="none" stroke="#63b8ff" d="M1875.78,-49.41C1867.21,-49.41 1858.58,-49.41 1850.11,-49.41"/>
<polygon fill="#63b8ff" stroke="#63b8ff" points="1875.8,-52.91 1885.8,-49.41 1875.8,-45.91 1875.8,-52.91"/>
</a>
</g>
</g>
<!-- Node4 -->
<g id="Node000004" class="node">
<title>Node4</title>
<g id="a_Node000004"><a xlink:href="$classcom_1_1example_1_1mybookshelf_1_1BookRecommendationFlow.html#aa95301256c7f5377d1bc432189483b3c" xlink:title=" ">
<polygon fill="white" stroke="#666666" points="1636,-128.91 1433,-128.91 1433,-87.91 1636,-87.91 1636,-128.91"/>
<text text-anchor="start" x="1441" y="-116.91" font-family="Helvetica,sans-Serif" font-size="10.00">com.example.mybookshelf.</text>
<text text-anchor="start" x="1441" y="-105.91" font-family="Helvetica,sans-Serif" font-size="10.00">BookRecommendationFlow.showBook</text>
<text text-anchor="middle" x="1534.5" y="-94.91" font-family="Helvetica,sans-Serif" font-size="10.00">BasedStep3</text>
</a>
</g>
</g>
<!-- Node3&#45;&gt;Node4 -->
<g id="edge35_Node000003_Node000004" class="edge">
<title>Node3&#45;&gt;Node4</title>
<g id="a_edge35_Node000003_Node000004"><a xlink:title=" ">
<path fill="none" stroke="#63b8ff" d="M1662.69,-108.41C1653.96,-108.41 1645.11,-108.41 1636.35,-108.41"/>
<polygon fill="#63b8ff" stroke="#63b8ff" points="1662.86,-111.91 1672.86,-108.41 1662.86,-104.91 1662.86,-111.91"/>
</a>
</g>
</g>
<!-- Node5 -->
<g id="Node000005" class="node">
<title>Node5</title>
<g id="a_Node000005"><a xlink:href="$classcom_1_1example_1_1mybookshelf_1_1BookRecommendationFlow.html#a5c657be258c13c85848c7b7115f8a0b5" xlink:title=" ">
<polygon fill="white" stroke="#666666" points="1395,-128.91 1192,-128.91 1192,-87.91 1395,-87.91 1395,-128.91"/>
<text text-anchor="start" x="1200" y="-116.91" font-family="Helvetica,sans-Serif" font-size="10.00">com.example.mybookshelf.</text>
<text text-anchor="start" x="1200" y="-105.91" font-family="Helvetica,sans-Serif" font-size="10.00">BookRecommendationFlow.showBook</text>
<text text-anchor="middle" x="1293.5" y="-94.91" font-family="Helvetica,sans-Serif" font-size="10.00">BasedStep2</text>
</a>
</g>
</g>
<!-- Node4&#45;&gt;Node5 -->
<g id="edge36_Node000004_Node000005" class="edge">
<title>Node4&#45;&gt;Node5</title>
<g id="a_edge36_Node000004_Node000005"><a xlink:title=" ">
<path fill="none" stroke="#63b8ff" d="M1422.82,-108.41C1413.56,-108.41 1404.23,-108.41 1395.05,-108.41"/>
<polygon fill="#63b8ff" stroke="#63b8ff" points="1422.84,-111.91 1432.84,-108.41 1422.84,-104.91 1422.84,-111.91"/>
</a>
</g>
</g>
<!-- Node6 -->
<g id="Node000006" class="node">
<title>Node6</title>
<g id="a_Node000006"><a xlink:href="$classcom_1_1example_1_1mybookshelf_1_1BookRecommendationFlow.html#a276e931dabe3e85af257a9d16ce7cc67" xlink:title=" ">
<polygon fill="white" stroke="#666666" points="913,-128.91 710,-128.91 710,-87.91 913,-87.91 913,-128.91"/>
<text text-anchor="start" x="718" y="-116.91" font-family="Helvetica,sans-Serif" font-size="10.00">com.example.mybookshelf.</text>
<text text-anchor="start" x="718" y="-105.91" font-family="Helvetica,sans-Serif" font-size="10.00">BookRecommendationFlow.showBook</text>
<text text-anchor="middle" x="811.5" y="-94.91" font-family="Helvetica,sans-Serif" font-size="10.00">BasedStep1</text>
</a>
</g>
</g>
<!-- Node5&#45;&gt;Node6 -->
<g id="edge37_Node000005_Node000006" class="edge">
<title>Node5&#45;&gt;Node6</title>
<g id="a_edge37_Node000005_Node000006"><a xlink:title=" ">
<path fill="none" stroke="#63b8ff" d="M1181.65,-108.41C1100.73,-108.41 991.91,-108.41 913.4,-108.41"/>
<polygon fill="#63b8ff" stroke="#63b8ff" points="1181.88,-111.91 1191.88,-108.41 1181.88,-104.91 1181.88,-111.91"/>
</a>
</g>
</g>
<!-- Node7 -->
<g id="Node000007" class="node">
<title>Node7</title>
<g id="a_Node000007"><a xlink:href="$classcom_1_1example_1_1mybookshelf_1_1BookRecommendationFlow.html#a22f0dcaea578fbd7358e6237cd4873d4" xlink:title=" ">
<polygon fill="white" stroke="#666666" points="432,-64.41 236,-64.41 236,-34.41 432,-34.41 432,-64.41"/>
<text text-anchor="start" x="244" y="-52.41" font-family="Helvetica,sans-Serif" font-size="10.00">com.example.mybookshelf.</text>
<text text-anchor="middle" x="334" y="-41.41" font-family="Helvetica,sans-Serif" font-size="10.00">BookRecommendationFlow.handleAI</text>
</a>
</g>
</g>
<!-- Node6&#45;&gt;Node7 -->
<g id="edge38_Node000006_Node000007" class="edge">
<title>Node6&#45;&gt;Node7</title>
<g id="a_edge38_Node000006_Node000007"><a xlink:title=" ">
<path fill="none" stroke="#63b8ff" d="M699.46,-102.88C632.21,-98.57 544.85,-91.27 468,-79.41 443.44,-75.62 416.65,-69.89 393.59,-64.45"/>
<polygon fill="#63b8ff" stroke="#63b8ff" points="699.46,-106.39 709.66,-103.52 699.9,-99.4 699.46,-106.39"/>
</a>
</g>
</g>
<!-- Node8 -->
<g id="Node000008" class="node">
<title>Node8</title>
<g id="a_Node000008"><a xlink:href="$classcom_1_1example_1_1mybookshelf_1_1BookRecommendationFlow.html#a4dceb0fa4d170b8c7e5a7a6718593dfe" xlink:title=" ">
<polygon fill="white" stroke="#666666" points="200,-39.41 0,-39.41 0,-9.41 200,-9.41 200,-39.41"/>
<text text-anchor="start" x="8" y="-27.41" font-family="Helvetica,sans-Serif" font-size="10.00">com.example.mybookshelf.</text>
<text text-anchor="middle" x="100" y="-16.41" font-family="Helvetica,sans-Serif" font-size="10.00">BookRecommendationFlow.handleNo</text>
</a>
</g>
</g>
<!-- Node7&#45;&gt;Node8 -->
<g id="edge39_Node000007_Node000008" class="edge">
<title>Node7&#45;&gt;Node8</title>
<g id="a_edge39_Node000007_Node000008"><a xlink:title=" ">
<path fill="none" stroke="#63b8ff" d="M225.95,-37.87C217.39,-36.95 208.77,-36.02 200.27,-35.11"/>
<polygon fill="#63b8ff" stroke="#63b8ff" points="225.64,-41.36 235.96,-38.95 226.39,-34.4 225.64,-41.36"/>
</a>
</g>
</g>
<!-- Node8&#45;&gt;Node2 -->
<g id="edge40_Node000008_Node000002" class="edge">
<title>Node8&#45;&gt;Node2</title>
<g id="a_edge40_Node000008_Node000002"><a xlink:title=" ">
<path fill="none" stroke="#63b8ff" d="M210.28,-15.64C305.17,-8.79 446.33,-0.41 569.5,-0.41 1535.5,-0.41 1535.5,-0.41 1535.5,-0.41 1675.53,-0.41 1711.5,1.23 1850,-19.41 1873.73,-22.95 1899.57,-28.8 1921.57,-34.41"/>
<polygon fill="#63b8ff" stroke="#63b8ff" points="209.81,-12.17 200.09,-16.39 210.32,-19.15 209.81,-12.17"/>
</a>
</g>
</g>
<!-- Node10 -->
<g id="Node000010" class="node">
<title>Node10</title>
<g id="a_Node000010"><a xlink:href="$classcom_1_1example_1_1mybookshelf_1_1BookRecommendationFlow.html#a46c6733f27b3527d3934cee02cfcd7ac" xlink:title=" ">
<polygon fill="white" stroke="#666666" points="1637,-69.91 1432,-69.91 1432,-28.91 1637,-28.91 1637,-69.91"/>
<text text-anchor="start" x="1440" y="-57.91" font-family="Helvetica,sans-Serif" font-size="10.00">com.example.mybookshelf.</text>
<text text-anchor="start" x="1440" y="-46.91" font-family="Helvetica,sans-Serif" font-size="10.00">BookRecommendationFlow.showFresh</text>
<text text-anchor="middle" x="1534.5" y="-35.91" font-family="Helvetica,sans-Serif" font-size="10.00">StartStep5</text>
</a>
</g>
</g>
<!-- Node9&#45;&gt;Node10 -->
<g id="edge42_Node000009_Node000010" class="edge">
<title>Node9&#45;&gt;Node10</title>
<g id="a_edge42_Node000009_Node000010"><a xlink:title=" ">
<path fill="none" stroke="#63b8ff" d="M1662.62,-49.41C1654.16,-49.41 1645.59,-49.41 1637.11,-49.41"/>
<polygon fill="#63b8ff" stroke="#63b8ff" points="1662.86,-52.91 1672.86,-49.41 1662.86,-45.91 1662.86,-52.91"/>
</a>
</g>
</g>
<!-- Node11 -->
<g id="Node000011" class="node">
<title>Node11</title>
<g id="a_Node000011"><a xlink:href="$classcom_1_1example_1_1mybookshelf_1_1BookRecommendationFlow.html#ad10515cfcf8650b6830b68f15d393b3b" xlink:title=" ">
<polygon fill="white" stroke="#666666" points="1396,-69.91 1191,-69.91 1191,-28.91 1396,-28.91 1396,-69.91"/>
<text text-anchor="start" x="1199" y="-57.91" font-family="Helvetica,sans-Serif" font-size="10.00">com.example.mybookshelf.</text>
<text text-anchor="start" x="1199" y="-46.91" font-family="Helvetica,sans-Serif" font-size="10.00">BookRecommendationFlow.showFresh</text>
<text text-anchor="middle" x="1293.5" y="-35.91" font-family="Helvetica,sans-Serif" font-size="10.00">StartStep4</text>
</a>
</g>
</g>
<!-- Node10&#45;&gt;Node11 -->
<g id="edge43_Node000010_Node000011" class="edge">
<title>Node10&#45;&gt;Node11</title>
<g id="a_edge43_Node000010_Node000011"><a xlink:title=" ">
<path fill="none" stroke="#63b8ff" d="M1421.78,-49.41C1413.22,-49.41 1404.6,-49.41 1396.11,-49.41"/>
<polygon fill="#63b8ff" stroke="#63b8ff" points="1421.8,-52.91 1431.8,-49.41 1421.8,-45.91 1421.8,-52.91"/>
</a>
</g>
</g>
<!-- Node12 -->
<g id="Node000012" class="node">
<title>Node12</title>
<g id="a_Node000012"><a xlink:href="$classcom_1_1example_1_1mybookshelf_1_1BookRecommendationFlow.html#a2bc1c0125eb3c1fe64ed1ed3ee93d3eb" xlink:title=" ">
<polygon fill="white" stroke="#666666" points="1155,-69.91 950,-69.91 950,-28.91 1155,-28.91 1155,-69.91"/>
<text text-anchor="start" x="958" y="-57.91" font-family="Helvetica,sans-Serif" font-size="10.00">com.example.mybookshelf.</text>
<text text-anchor="start" x="958" y="-46.91" font-family="Helvetica,sans-Serif" font-size="10.00">BookRecommendationFlow.showFresh</text>
<text text-anchor="middle" x="1052.5" y="-35.91" font-family="Helvetica,sans-Serif" font-size="10.00">StartStep3</text>
</a>
</g>
</g>
<!-- Node11&#45;&gt;Node12 -->
<g id="edge44_Node000011_Node000012" class="edge">
<title>Node11&#45;&gt;Node12</title>
<g id="a_edge44_Node000011_Node000012"><a xlink:title=" ">
<path fill="none" stroke="#63b8ff" d="M1180.78,-49.41C1172.22,-49.41 1163.6,-49.41 1155.11,-49.41"/>
<polygon fill="#63b8ff" stroke="#63b8ff" points="1180.8,-52.91 1190.8,-49.41 1180.8,-45.91 1180.8,-52.91"/>
</a>
</g>
</g>
<!-- Node13 -->
<g id="Node000013" class="node">
<title>Node13</title>
<g id="a_Node000013"><a xlink:href="$classcom_1_1example_1_1mybookshelf_1_1BookRecommendationFlow.html#aaf567ca97b0d7f0c58ebba4d6f4b18bd" xlink:title=" ">
<polygon fill="white" stroke="#666666" points="914,-69.91 709,-69.91 709,-28.91 914,-28.91 914,-69.91"/>
<text text-anchor="start" x="717" y="-57.91" font-family="Helvetica,sans-Serif" font-size="10.00">com.example.mybookshelf.</text>
<text text-anchor="start" x="717" y="-46.91" font-family="Helvetica,sans-Serif" font-size="10.00">BookRecommendationFlow.showFresh</text>
<text text-anchor="middle" x="811.5" y="-35.91" font-family="Helvetica,sans-Serif" font-size="10.00">StartStep2</text>
</a>
</g>
</g>
<!-- Node12&#45;&gt;Node13 -->
<g id="edge45_Node000012_Node000013" class="edge">
<title>Node12&#45;&gt;Node13</title>
<g id="a_edge45_Node000012_Node000013"><a xlink:title=" ">
<path fill="none" stroke="#63b8ff" d="M939.78,-49.41C931.22,-49.41 922.6,-49.41 914.11,-49.41"/>
<polygon fill="#63b8ff" stroke="#63b8ff" points="939.8,-52.91 949.8,-49.41 939.8,-45.91 939.8,-52.91"/>
</a>
</g>
</g>
<!-- Node14 -->
<g id="Node000014" class="node">
<title>Node14</title>
<g id="a_Node000014"><a xlink:href="$classcom_1_1example_1_1mybookshelf_1_1BookRecommendationFlow.html#a4c7dc337216592f7f214f69ce7009d37" xlink:title=" ">
<polygon fill="white" stroke="#666666" points="673,-69.91 468,-69.91 468,-28.91 673,-28.91 673,-69.91"/>
<text text-anchor="start" x="476" y="-57.91" font-family="Helvetica,sans-Serif" font-size="10.00">com.example.mybookshelf.</text>
<text text-anchor="start" x="476" y="-46.91" font-family="Helvetica,sans-Serif" font-size="10.00">BookRecommendationFlow.showFresh</text>
<text text-anchor="middle" x="570.5" y="-35.91" font-family="Helvetica,sans-Serif" font-size="10.00">StartStep1</text>
</a>
</g>
</g>
<!-- Node13&#45;&gt;Node14 -->
<g id="edge46_Node000013_Node000014" class="edge">
<title>Node13&#45;&gt;Node14</title>
<g id="a_edge46_Node000013_Node000014"><a xlink:title=" ">
<path fill="none" stroke="#63b8ff" d="M698.78,-49.41C690.22,-49.41 681.6,-49.41 673.11,-49.41"/>
<polygon fill="#63b8ff" stroke="#63b8ff" points="698.8,-52.91 708.8,-49.41 698.8,-45.91 698.8,-52.91"/>
</a>
</g>
</g>
<!-- Node14&#45;&gt;Node7 -->
<g id="edge47_Node000014_Node000007" class="edge">
<title>Node14&#45;&gt;Node7</title>
<g id="a_edge47_Node000014_Node000007"><a xlink:title=" ">
<path fill="none" stroke="#63b8ff" d="M457.44,-49.41C449.04,-49.41 440.6,-49.41 432.29,-49.41"/>
<polygon fill="#63b8ff" stroke="#63b8ff" points="457.67,-52.91 467.67,-49.41 457.67,-45.91 457.67,-52.91"/>
</a>
</g>
</g>
</g>
</svg>
