<?xml version="1.0" encoding="UTF-8" standalone="no"?>
<!DOCTYPE svg PUBLIC "-//W3C//DTD SVG 1.1//EN"
 "http://www.w3.org/Graphics/SVG/1.1/DTD/svg11.dtd">
<!-- Generated by graphviz version 2.43.0 (0)
 -->
<!-- Title: com.example.mybookshelf.BookRecommendationFlow.showFreshStartStep5 Pages: 1 -->
<svg width="2325pt" height="780pt"
 viewBox="0.00 0.00 2325.00 780.20" xmlns="http://www.w3.org/2000/svg" xmlns:xlink="http://www.w3.org/1999/xlink">
<g id="graph0" class="graph" transform="scale(1 1) rotate(0) translate(4 776.2)">
<title>com.example.mybookshelf.BookRecommendationFlow.showFreshStartStep5</title>
<!-- Node1 -->
<g id="Node000001" class="node">
<title>Node1</title>
<g id="a_Node000001"><a xlink:title=" ">
<polygon fill="#999999" stroke="#666666" points="205,-298.63 0,-298.63 0,-257.63 205,-257.63 205,-298.63"/>
<text text-anchor="start" x="8" y="-286.63" font-family="Helvetica,sans-Serif" font-size="10.00">com.example.mybookshelf.</text>
<text text-anchor="start" x="8" y="-275.63" font-family="Helvetica,sans-Serif" font-size="10.00">BookRecommendationFlow.showFresh</text>
<text text-anchor="middle" x="102.5" y="-264.63" font-family="Helvetica,sans-Serif" font-size="10.00">StartStep5</text>
</a>
</g>
</g>
<!-- Node2 -->
<g id="Node000002" class="node">
<title>Node2</title>
<g id="a_Node000002"><a xlink:href="$classcom_1_1example_1_1mybookshelf_1_1BookRecommendationFlow.html#a3855117e802e54923c308e0df6280c17" xlink:title=" ">
<polygon fill="white" stroke="#666666" points="2317,-199.63 2123,-199.63 2123,-158.63 2317,-158.63 2317,-199.63"/>
<text text-anchor="start" x="2131" y="-187.63" font-family="Helvetica,sans-Serif" font-size="10.00">com.example.mybookshelf.</text>
<text text-anchor="start" x="2131" y="-176.63" font-family="Helvetica,sans-Serif" font-size="10.00">BookRecommendationFlow.addChat</text>
<text text-anchor="middle" x="2220" y="-165.63" font-family="Helvetica,sans-Serif" font-size="10.00">Message</text>
</a>
</g>
</g>
<!-- Node1&#45;&gt;Node2 -->
<g id="edge79_Node000001_Node000002" class="edge">
<title>Node1&#45;&gt;Node2</title>
<g id="a_edge79_Node000001_Node000002"><a xlink:title=" ">
<path fill="none" stroke="#63b8ff" d="M110.25,-257.43C125.71,-213.52 168.09,-110.95 241,-61.13 353.91,16.03 406.24,-2.13 543,-2.13 543,-2.13 543,-2.13 1744.5,-2.13 1898.47,-2.13 1948.66,13.45 2087,-54.13 2133.14,-76.67 2173.95,-121.05 2197.57,-150.4"/>
<polygon fill="#63b8ff" stroke="#63b8ff" points="2194.82,-152.57 2203.76,-158.26 2200.32,-148.24 2194.82,-152.57"/>
</a>
</g>
</g>
<!-- Node3 -->
<g id="Node000003" class="node">
<title>Node3</title>
<g id="a_Node000003"><a xlink:href="$classcom_1_1example_1_1mybookshelf_1_1BookRecommendationFlow.html#abe4c57ea57ed54c344739295e70066ff" xlink:title=" ">
<polygon fill="white" stroke="#666666" points="418,-442.63 241,-442.63 241,-401.63 418,-401.63 418,-442.63"/>
<text text-anchor="start" x="249" y="-430.63" font-family="Helvetica,sans-Serif" font-size="10.00">com.example.mybookshelf.</text>
<text text-anchor="start" x="249" y="-419.63" font-family="Helvetica,sans-Serif" font-size="10.00">BookRecommendationFlow.build</text>
<text text-anchor="middle" x="329.5" y="-408.63" font-family="Helvetica,sans-Serif" font-size="10.00">AIStringFresh</text>
</a>
</g>
</g>
<!-- Node1&#45;&gt;Node3 -->
<g id="edge80_Node000001_Node000003" class="edge">
<title>Node1&#45;&gt;Node3</title>
<g id="a_edge80_Node000001_Node000003"><a xlink:title=" ">
<path fill="none" stroke="#63b8ff" d="M135.74,-298.76C175.75,-324.37 244.04,-368.07 287.67,-396"/>
<polygon fill="#63b8ff" stroke="#63b8ff" points="286.01,-399.09 296.32,-401.54 289.79,-393.2 286.01,-399.09"/>
</a>
</g>
</g>
<!-- Node5 -->
<g id="Node000005" class="node">
<title>Node5</title>
<g id="a_Node000005"><a xlink:href="$classcom_1_1example_1_1mybookshelf_1_1BookRecommendationFlow.html#a02b6d699653b58f244907bd10db53ab5" xlink:title=" ">
<polygon fill="white" stroke="#666666" points="2312,-535.63 2128,-535.63 2128,-494.63 2312,-494.63 2312,-535.63"/>
<text text-anchor="start" x="2136" y="-523.63" font-family="Helvetica,sans-Serif" font-size="10.00">com.example.mybookshelf.</text>
<text text-anchor="start" x="2136" y="-512.63" font-family="Helvetica,sans-Serif" font-size="10.00">BookRecommendationFlow.create</text>
<text text-anchor="middle" x="2220" y="-501.63" font-family="Helvetica,sans-Serif" font-size="10.00">StyledGridButton</text>
</a>
</g>
</g>
<!-- Node1&#45;&gt;Node5 -->
<g id="edge117_Node000001_Node000005" class="edge">
<title>Node1&#45;&gt;Node5</title>
<g id="a_edge117_Node000001_Node000005"><a xlink:title=" ">
<path fill="none" stroke="#63b8ff" d="M110.28,-298.87C142.19,-392.13 286.74,-768.13 543,-768.13 543,-768.13 543,-768.13 1262.5,-768.13 1633.2,-768.13 1754.65,-806.32 2087,-642.13 2133.65,-619.08 2174.59,-573.62 2198.06,-543.8"/>
<polygon fill="#63b8ff" stroke="#63b8ff" points="2200.87,-545.9 2204.21,-535.84 2195.33,-541.62 2200.87,-545.9"/>
</a>
</g>
</g>
<!-- Node4 -->
<g id="Node000004" class="node">
<title>Node4</title>
<g id="a_Node000004"><a xlink:href="$classcom_1_1example_1_1mybookshelf_1_1BookRecommendationFlow.html#ae50cf18619872a365eebe91c18d86e8d" xlink:title=" ">
<polygon fill="white" stroke="#666666" points="634,-556.13 454,-556.13 454,-526.13 634,-526.13 634,-556.13"/>
<text text-anchor="start" x="462" y="-544.13" font-family="Helvetica,sans-Serif" font-size="10.00">com.example.mybookshelf.</text>
<text text-anchor="middle" x="544" y="-533.13" font-family="Helvetica,sans-Serif" font-size="10.00">BookRecommendationFlow.callAI</text>
</a>
</g>
</g>
<!-- Node3&#45;&gt;Node4 -->
<g id="edge81_Node000003_Node000004" class="edge">
<title>Node3&#45;&gt;Node4</title>
<g id="a_edge81_Node000003_Node000004"><a xlink:title=" ">
<path fill="none" stroke="#63b8ff" d="M367.51,-442.86C406.82,-464.87 468.5,-499.41 507.3,-521.13"/>
<polygon fill="#63b8ff" stroke="#63b8ff" points="505.73,-524.27 516.16,-526.1 509.15,-518.16 505.73,-524.27"/>
</a>
</g>
</g>
<!-- Node4&#45;&gt;Node2 -->
<g id="edge82_Node000004_Node000002" class="edge">
<title>Node4&#45;&gt;Node2</title>
<g id="a_edge82_Node000004_Node000002"><a xlink:title=" ">
<path fill="none" stroke="#63b8ff" d="M560.07,-525.86C644.64,-441.9 1071.75,-40.13 1501.5,-40.13 1501.5,-40.13 1501.5,-40.13 1744.5,-40.13 1905.01,-40.13 2084.2,-114.29 2169.14,-154.27"/>
<polygon fill="#63b8ff" stroke="#63b8ff" points="2167.75,-157.49 2178.29,-158.62 2170.76,-151.17 2167.75,-157.49"/>
</a>
</g>
</g>
<!-- Node4&#45;&gt;Node4 -->
<g id="edge83_Node000004_Node000004" class="edge">
<title>Node4&#45;&gt;Node4</title>
<g id="a_edge83_Node000004_Node000004"><a xlink:title=" ">
<path fill="none" stroke="#63b8ff" d="M506.38,-556.4C498.02,-565.54 510.56,-574.13 544,-574.13 563.85,-574.13 576.34,-571.1 581.46,-566.73"/>
<polygon fill="#63b8ff" stroke="#63b8ff" points="584.96,-566.46 581.62,-556.4 577.96,-566.35 584.96,-566.46"/>
</a>
</g>
</g>
<!-- Node4&#45;&gt;Node5 -->
<g id="edge84_Node000004_Node000005" class="edge">
<title>Node4&#45;&gt;Node5</title>
<g id="a_edge84_Node000004_Node000005"><a xlink:title=" ">
<path fill="none" stroke="#63b8ff" d="M634.07,-551.41C704.06,-559.8 803.93,-572.46 891,-586.13 1055.96,-612.02 1093.52,-654.13 1260.5,-654.13 1260.5,-654.13 1260.5,-654.13 1744.5,-654.13 1898.34,-654.13 1943.52,-659.63 2087,-604.13 2124.68,-589.55 2162.37,-562.6 2187.77,-542.16"/>
<polygon fill="#63b8ff" stroke="#63b8ff" points="2190.05,-544.82 2195.57,-535.78 2185.61,-539.41 2190.05,-544.82"/>
</a>
</g>
</g>
<!-- Node6 -->
<g id="Node000006" class="node">
<title>Node6</title>
<g id="a_Node000006"><a xlink:href="$classcom_1_1example_1_1mybookshelf_1_1apis_1_1AiAPI.html#a4a45b91f0717302661d9e35ed956c049" xlink:title=" ">
<polygon fill="white" stroke="#666666" points="868.5,-684.13 692.5,-684.13 692.5,-654.13 868.5,-654.13 868.5,-684.13"/>
<text text-anchor="start" x="700.5" y="-672.13" font-family="Helvetica,sans-Serif" font-size="10.00">com.example.mybookshelf.apis.</text>
<text text-anchor="middle" x="780.5" y="-661.13" font-family="Helvetica,sans-Serif" font-size="10.00">AiAPI.fetchResponse</text>
</a>
</g>
</g>
<!-- Node4&#45;&gt;Node6 -->
<g id="edge85_Node000004_Node000006" class="edge">
<title>Node4&#45;&gt;Node6</title>
<g id="a_edge85_Node000004_Node000006"><a xlink:title=" ">
<path fill="none" stroke="#63b8ff" d="M558.37,-556.14C579.66,-579.04 623.59,-622.43 670,-645.13 674.09,-647.13 678.35,-648.97 682.72,-650.65"/>
<polygon fill="#63b8ff" stroke="#63b8ff" points="681.81,-654.04 692.41,-654.1 684.16,-647.45 681.81,-654.04"/>
</a>
</g>
</g>
<!-- Node7 -->
<g id="Node000007" class="node">
<title>Node7</title>
<g id="a_Node000007"><a xlink:href="$classcom_1_1example_1_1mybookshelf_1_1BookRecommendationFlow.html#a4dceb0fa4d170b8c7e5a7a6718593dfe" xlink:title=" ">
<polygon fill="white" stroke="#666666" points="880.5,-478.13 680.5,-478.13 680.5,-448.13 880.5,-448.13 880.5,-478.13"/>
<text text-anchor="start" x="688.5" y="-466.13" font-family="Helvetica,sans-Serif" font-size="10.00">com.example.mybookshelf.</text>
<text text-anchor="middle" x="780.5" y="-455.13" font-family="Helvetica,sans-Serif" font-size="10.00">BookRecommendationFlow.handleNo</text>
</a>
</g>
</g>
<!-- Node4&#45;&gt;Node7 -->
<g id="edge87_Node000004_Node000007" class="edge">
<title>Node4&#45;&gt;Node7</title>
<g id="a_edge87_Node000004_Node000007"><a xlink:title=" ">
<path fill="none" stroke="#63b8ff" d="M576.27,-526.05C601.2,-514.47 637.25,-498.72 670,-488.13 678.22,-485.47 686.88,-482.98 695.58,-480.69"/>
<polygon fill="#63b8ff" stroke="#63b8ff" points="696.57,-484.05 705.39,-478.18 694.83,-477.26 696.57,-484.05"/>
</a>
</g>
</g>
<!-- Node17 -->
<g id="Node000017" class="node">
<title>Node17</title>
<g id="a_Node000017"><a xlink:href="$classcom_1_1example_1_1mybookshelf_1_1BookRecommendationFlow.html#ac62af5d6edeffa96b2862a609ebb40df" xlink:title=" ">
<polygon fill="white" stroke="#666666" points="888.5,-635.63 672.5,-635.63 672.5,-594.63 888.5,-594.63 888.5,-635.63"/>
<text text-anchor="start" x="680.5" y="-623.63" font-family="Helvetica,sans-Serif" font-size="10.00">com.example.mybookshelf.</text>
<text text-anchor="start" x="680.5" y="-612.63" font-family="Helvetica,sans-Serif" font-size="10.00">BookRecommendationFlow.hideThinking</text>
<text text-anchor="middle" x="780.5" y="-601.63" font-family="Helvetica,sans-Serif" font-size="10.00">Animation</text>
</a>
</g>
</g>
<!-- Node4&#45;&gt;Node17 -->
<g id="edge115_Node000004_Node000017" class="edge">
<title>Node4&#45;&gt;Node17</title>
<g id="a_edge115_Node000004_Node000017"><a xlink:title=" ">
<path fill="none" stroke="#63b8ff" d="M592.74,-556.19C624.94,-566.36 668.1,-579.98 704.82,-591.56"/>
<polygon fill="#63b8ff" stroke="#63b8ff" points="703.91,-594.94 714.5,-594.62 706.01,-588.27 703.91,-594.94"/>
</a>
</g>
</g>
<!-- Node18 -->
<g id="Node000018" class="node">
<title>Node18</title>
<g id="a_Node000018"><a xlink:href="$classcom_1_1example_1_1mybookshelf_1_1BookRecommendationFlow.html#a78597ba37409daeee77dcfa6236b2e6a" xlink:title=" ">
<polygon fill="white" stroke="#666666" points="891,-537.63 670,-537.63 670,-496.63 891,-496.63 891,-537.63"/>
<text text-anchor="start" x="678" y="-525.63" font-family="Helvetica,sans-Serif" font-size="10.00">com.example.mybookshelf.</text>
<text text-anchor="start" x="678" y="-514.63" font-family="Helvetica,sans-Serif" font-size="10.00">BookRecommendationFlow.showThinking</text>
<text text-anchor="middle" x="780.5" y="-503.63" font-family="Helvetica,sans-Serif" font-size="10.00">Animation</text>
</a>
</g>
</g>
<!-- Node4&#45;&gt;Node18 -->
<g id="edge116_Node000004_Node000018" class="edge">
<title>Node4&#45;&gt;Node18</title>
<g id="a_edge116_Node000004_Node000018"><a xlink:title=" ">
<path fill="none" stroke="#63b8ff" d="M634.32,-531.99C642.7,-531.13 651.27,-530.25 659.86,-529.37"/>
<polygon fill="#63b8ff" stroke="#63b8ff" points="660.35,-532.84 669.94,-528.34 659.64,-525.88 660.35,-532.84"/>
</a>
</g>
</g>
<!-- Node6&#45;&gt;Node6 -->
<g id="edge86_Node000006_Node000006" class="edge">
<title>Node6&#45;&gt;Node6</title>
<g id="a_edge86_Node000006_Node000006"><a xlink:title=" ">
<path fill="none" stroke="#63b8ff" d="M739.02,-684.4C729.8,-693.54 743.62,-702.13 780.5,-702.13 802.39,-702.13 816.16,-699.1 821.81,-694.73"/>
<polygon fill="#63b8ff" stroke="#63b8ff" points="825.31,-694.46 821.98,-684.4 818.31,-694.34 825.31,-694.46"/>
</a>
</g>
</g>
<!-- Node7&#45;&gt;Node2 -->
<g id="edge88_Node000007_Node000002" class="edge">
<title>Node7&#45;&gt;Node2</title>
<g id="a_edge88_Node000007_Node000002"><a xlink:title=" ">
<path fill="none" stroke="#63b8ff" d="M807.63,-448.1C891.01,-400.83 1159.43,-254 1400,-181.13 1503.85,-149.67 1532.84,-150.82 1641,-142.13 1838.58,-126.25 1890.63,-115.13 2087,-142.13 2107.47,-144.94 2129.24,-150.11 2149.08,-155.7"/>
<polygon fill="#63b8ff" stroke="#63b8ff" points="2148.37,-159.14 2158.95,-158.56 2150.32,-152.41 2148.37,-159.14"/>
</a>
</g>
</g>
<!-- Node7&#45;&gt;Node5 -->
<g id="edge89_Node000007_Node000005" class="edge">
<title>Node7&#45;&gt;Node5</title>
<g id="a_edge89_Node000007_Node000005"><a xlink:title=" ">
<path fill="none" stroke="#63b8ff" d="M852.47,-478.14C865.36,-481.21 878.63,-484.59 891,-488.13 1058.08,-535.99 1086.7,-616.13 1260.5,-616.13 1260.5,-616.13 1260.5,-616.13 1744.5,-616.13 1898.15,-616.13 1938.61,-608.98 2087,-569.13 2114.23,-561.82 2143.36,-550.32 2167.3,-539.82"/>
<polygon fill="#63b8ff" stroke="#63b8ff" points="2168.84,-542.96 2176.55,-535.7 2165.99,-536.57 2168.84,-542.96"/>
</a>
</g>
</g>
<!-- Node8 -->
<g id="Node000008" class="node">
<title>Node8</title>
<g id="a_Node000008"><a xlink:href="$classcom_1_1example_1_1mybookshelf_1_1BookRecommendationFlow.html#a22f0dcaea578fbd7358e6237cd4873d4" xlink:title=" ">
<polygon fill="white" stroke="#666666" points="1123,-478.13 927,-478.13 927,-448.13 1123,-448.13 1123,-478.13"/>
<text text-anchor="start" x="935" y="-466.13" font-family="Helvetica,sans-Serif" font-size="10.00">com.example.mybookshelf.</text>
<text text-anchor="middle" x="1025" y="-455.13" font-family="Helvetica,sans-Serif" font-size="10.00">BookRecommendationFlow.handleAI</text>
</a>
</g>
</g>
<!-- Node7&#45;&gt;Node8 -->
<g id="edge90_Node000007_Node000008" class="edge">
<title>Node7&#45;&gt;Node8</title>
<g id="a_edge90_Node000007_Node000008"><a xlink:title=" ">
<path fill="none" stroke="#63b8ff" d="M880.83,-463.13C892.57,-463.13 904.59,-463.13 916.43,-463.13"/>
<polygon fill="#63b8ff" stroke="#63b8ff" points="916.78,-466.63 926.78,-463.13 916.78,-459.63 916.78,-466.63"/>
</a>
</g>
</g>
<!-- Node9 -->
<g id="Node000009" class="node">
<title>Node9</title>
<g id="a_Node000009"><a xlink:href="$classcom_1_1example_1_1mybookshelf_1_1BookRecommendationFlow.html#a276e931dabe3e85af257a9d16ce7cc67" xlink:title=" ">
<polygon fill="white" stroke="#666666" points="1604,-533.63 1401,-533.63 1401,-492.63 1604,-492.63 1604,-533.63"/>
<text text-anchor="start" x="1409" y="-521.63" font-family="Helvetica,sans-Serif" font-size="10.00">com.example.mybookshelf.</text>
<text text-anchor="start" x="1409" y="-510.63" font-family="Helvetica,sans-Serif" font-size="10.00">BookRecommendationFlow.showBook</text>
<text text-anchor="middle" x="1502.5" y="-499.63" font-family="Helvetica,sans-Serif" font-size="10.00">BasedStep1</text>
</a>
</g>
</g>
<!-- Node8&#45;&gt;Node9 -->
<g id="edge91_Node000008_Node000009" class="edge">
<title>Node8&#45;&gt;Node9</title>
<g id="a_edge91_Node000008_Node000009"><a xlink:title=" ">
<path fill="none" stroke="#63b8ff" d="M1123.08,-473.34C1200.71,-481.5 1309.57,-492.95 1390.62,-501.47"/>
<polygon fill="#63b8ff" stroke="#63b8ff" points="1390.55,-504.98 1400.86,-502.55 1391.28,-498.02 1390.55,-504.98"/>
</a>
</g>
</g>
<!-- Node13 -->
<g id="Node000013" class="node">
<title>Node13</title>
<g id="a_Node000013"><a xlink:href="$classcom_1_1example_1_1mybookshelf_1_1BookRecommendationFlow.html#a4c7dc337216592f7f214f69ce7009d37" xlink:title=" ">
<polygon fill="white" stroke="#666666" points="1364,-401.63 1159,-401.63 1159,-360.63 1364,-360.63 1364,-401.63"/>
<text text-anchor="start" x="1167" y="-389.63" font-family="Helvetica,sans-Serif" font-size="10.00">com.example.mybookshelf.</text>
<text text-anchor="start" x="1167" y="-378.63" font-family="Helvetica,sans-Serif" font-size="10.00">BookRecommendationFlow.showFresh</text>
<text text-anchor="middle" x="1261.5" y="-367.63" font-family="Helvetica,sans-Serif" font-size="10.00">StartStep1</text>
</a>
</g>
</g>
<!-- Node8&#45;&gt;Node13 -->
<g id="edge102_Node000008_Node000013" class="edge">
<title>Node8&#45;&gt;Node13</title>
<g id="a_edge102_Node000008_Node000013"><a xlink:title=" ">
<path fill="none" stroke="#63b8ff" d="M1069.01,-448.09C1103.46,-436.04 1152.43,-418.92 1192.22,-405"/>
<polygon fill="#63b8ff" stroke="#63b8ff" points="1193.58,-408.24 1201.86,-401.63 1191.27,-401.63 1193.58,-408.24"/>
</a>
</g>
</g>
<!-- Node9&#45;&gt;Node2 -->
<g id="edge92_Node000009_Node000002" class="edge">
<title>Node9&#45;&gt;Node2</title>
<g id="a_edge92_Node000009_Node000002"><a xlink:title=" ">
<path fill="none" stroke="#63b8ff" d="M1547.17,-492.5C1617.29,-459.59 1759.54,-393.65 1882,-342.13 1972.15,-304.2 1999.66,-306.13 2087,-262.13 2120.12,-245.44 2155.6,-222.84 2181.43,-205.44"/>
<polygon fill="#63b8ff" stroke="#63b8ff" points="2183.49,-208.27 2189.8,-199.75 2179.56,-202.48 2183.49,-208.27"/>
</a>
</g>
</g>
<!-- Node9&#45;&gt;Node5 -->
<g id="edge93_Node000009_Node000005" class="edge">
<title>Node9&#45;&gt;Node5</title>
<g id="a_edge93_Node000009_Node000005"><a xlink:title=" ">
<path fill="none" stroke="#63b8ff" d="M1552.17,-533.69C1578.04,-543.51 1610.69,-554.19 1641,-559.13 1806.77,-586.12 2002.04,-559.22 2117.9,-537.22"/>
<polygon fill="#63b8ff" stroke="#63b8ff" points="2118.67,-540.64 2127.83,-535.32 2117.35,-533.77 2118.67,-540.64"/>
</a>
</g>
</g>
<!-- Node10 -->
<g id="Node000010" class="node">
<title>Node10</title>
<g id="a_Node000010"><a xlink:href="$classcom_1_1example_1_1mybookshelf_1_1BookRecommendationFlow.html#a5c657be258c13c85848c7b7115f8a0b5" xlink:title=" ">
<polygon fill="white" stroke="#666666" points="1845,-549.63 1642,-549.63 1642,-508.63 1845,-508.63 1845,-549.63"/>
<text text-anchor="start" x="1650" y="-537.63" font-family="Helvetica,sans-Serif" font-size="10.00">com.example.mybookshelf.</text>
<text text-anchor="start" x="1650" y="-526.63" font-family="Helvetica,sans-Serif" font-size="10.00">BookRecommendationFlow.showBook</text>
<text text-anchor="middle" x="1743.5" y="-515.63" font-family="Helvetica,sans-Serif" font-size="10.00">BasedStep2</text>
</a>
</g>
</g>
<!-- Node9&#45;&gt;Node10 -->
<g id="edge94_Node000009_Node000010" class="edge">
<title>Node9&#45;&gt;Node10</title>
<g id="a_edge94_Node000009_Node000010"><a xlink:title=" ">
<path fill="none" stroke="#63b8ff" d="M1604.16,-519.87C1613.35,-520.48 1622.68,-521.11 1631.94,-521.73"/>
<polygon fill="#63b8ff" stroke="#63b8ff" points="1631.74,-525.22 1641.95,-522.4 1632.21,-518.24 1631.74,-525.22"/>
</a>
</g>
</g>
<!-- Node10&#45;&gt;Node2 -->
<g id="edge95_Node000010_Node000002" class="edge">
<title>Node10&#45;&gt;Node2</title>
<g id="a_edge95_Node000010_Node000002"><a xlink:title=" ">
<path fill="none" stroke="#63b8ff" d="M1815.72,-508.61C1826.18,-504.45 1836.59,-499.64 1846,-494.13 1864.48,-483.32 1864.68,-474.71 1882,-462.13 1967.42,-400.09 2006.93,-410.93 2087,-342.13 2133.9,-301.83 2176.67,-243.26 2200.14,-208.4"/>
<polygon fill="#63b8ff" stroke="#63b8ff" points="2203.34,-209.92 2205.96,-199.66 2197.51,-206.04 2203.34,-209.92"/>
</a>
</g>
</g>
<!-- Node10&#45;&gt;Node5 -->
<g id="edge96_Node000010_Node000005" class="edge">
<title>Node10&#45;&gt;Node5</title>
<g id="a_edge96_Node000010_Node000005"><a xlink:title=" ">
<path fill="none" stroke="#63b8ff" d="M1845.3,-527.36C1913.54,-526.02 2005.71,-523.93 2087,-521.13 2096.89,-520.79 2107.19,-520.39 2117.49,-519.97"/>
<polygon fill="#63b8ff" stroke="#63b8ff" points="2117.92,-523.45 2127.76,-519.54 2117.63,-516.46 2117.92,-523.45"/>
</a>
</g>
</g>
<!-- Node11 -->
<g id="Node000011" class="node">
<title>Node11</title>
<g id="a_Node000011"><a xlink:href="$classcom_1_1example_1_1mybookshelf_1_1BookRecommendationFlow.html#aa95301256c7f5377d1bc432189483b3c" xlink:title=" ">
<polygon fill="white" stroke="#666666" points="2086,-511.63 1883,-511.63 1883,-470.63 2086,-470.63 2086,-511.63"/>
<text text-anchor="start" x="1891" y="-499.63" font-family="Helvetica,sans-Serif" font-size="10.00">com.example.mybookshelf.</text>
<text text-anchor="start" x="1891" y="-488.63" font-family="Helvetica,sans-Serif" font-size="10.00">BookRecommendationFlow.showBook</text>
<text text-anchor="middle" x="1984.5" y="-477.63" font-family="Helvetica,sans-Serif" font-size="10.00">BasedStep3</text>
</a>
</g>
</g>
<!-- Node10&#45;&gt;Node11 -->
<g id="edge97_Node000010_Node000011" class="edge">
<title>Node10&#45;&gt;Node11</title>
<g id="a_edge97_Node000010_Node000011"><a xlink:title=" ">
<path fill="none" stroke="#63b8ff" d="M1845.16,-513.12C1854.35,-511.66 1863.68,-510.18 1872.94,-508.71"/>
<polygon fill="#63b8ff" stroke="#63b8ff" points="1873.63,-512.14 1882.95,-507.12 1872.53,-505.23 1873.63,-512.14"/>
</a>
</g>
</g>
<!-- Node11&#45;&gt;Node2 -->
<g id="edge98_Node000011_Node000002" class="edge">
<title>Node11&#45;&gt;Node2</title>
<g id="a_edge98_Node000011_Node000002"><a xlink:title=" ">
<path fill="none" stroke="#63b8ff" d="M2006.4,-470.33C2027.7,-448.66 2061.19,-413.32 2087,-380.13 2132.17,-322.03 2177.72,-248.65 2201.71,-208.57"/>
<polygon fill="#63b8ff" stroke="#63b8ff" points="2204.8,-210.22 2206.91,-199.83 2198.79,-206.63 2204.8,-210.22"/>
</a>
</g>
</g>
<!-- Node11&#45;&gt;Node5 -->
<g id="edge101_Node000011_Node000005" class="edge">
<title>Node11&#45;&gt;Node5</title>
<g id="a_edge101_Node000011_Node000005"><a xlink:title=" ">
<path fill="none" stroke="#63b8ff" d="M2086.22,-501.48C2096.7,-502.56 2107.35,-503.65 2117.83,-504.73"/>
<polygon fill="#63b8ff" stroke="#63b8ff" points="2117.51,-508.22 2127.81,-505.76 2118.22,-501.25 2117.51,-508.22"/>
</a>
</g>
</g>
<!-- Node12 -->
<g id="Node000012" class="node">
<title>Node12</title>
<g id="a_Node000012"><a xlink:href="$classcom_1_1example_1_1mybookshelf_1_1BookRecommendationFlow.html#a78dda71d2c403a463d824ff61b2ce27f" xlink:title=" ">
<polygon fill="white" stroke="#666666" points="2308.5,-684.63 2131.5,-684.63 2131.5,-643.63 2308.5,-643.63 2308.5,-684.63"/>
<text text-anchor="start" x="2139.5" y="-672.63" font-family="Helvetica,sans-Serif" font-size="10.00">com.example.mybookshelf.</text>
<text text-anchor="start" x="2139.5" y="-661.63" font-family="Helvetica,sans-Serif" font-size="10.00">BookRecommendationFlow.build</text>
<text text-anchor="middle" x="2220" y="-650.63" font-family="Helvetica,sans-Serif" font-size="10.00">AIStringBased</text>
</a>
</g>
</g>
<!-- Node11&#45;&gt;Node12 -->
<g id="edge99_Node000011_Node000012" class="edge">
<title>Node11&#45;&gt;Node12</title>
<g id="a_edge99_Node000011_Node000012"><a xlink:title=" ">
<path fill="none" stroke="#63b8ff" d="M2013.2,-511.65C2055.48,-542.98 2136.12,-602.72 2182.92,-637.4"/>
<polygon fill="#63b8ff" stroke="#63b8ff" points="2180.85,-640.22 2190.97,-643.36 2185.02,-634.6 2180.85,-640.22"/>
</a>
</g>
</g>
<!-- Node12&#45;&gt;Node4 -->
<g id="edge100_Node000012_Node000004" class="edge">
<title>Node12&#45;&gt;Node4</title>
<g id="a_edge100_Node000012_Node000004"><a xlink:title=" ">
<path fill="none" stroke="#63b8ff" d="M2131.18,-683.75C2036.32,-703.21 1880.49,-730.13 1744.5,-730.13 1024,-730.13 1024,-730.13 1024,-730.13 866.44,-730.13 808.63,-786 670,-711.13 610.38,-678.93 571.66,-604.51 554.76,-565.69"/>
<polygon fill="#63b8ff" stroke="#63b8ff" points="557.86,-564.05 550.75,-556.19 551.41,-566.77 557.86,-564.05"/>
</a>
</g>
</g>
<!-- Node13&#45;&gt;Node2 -->
<g id="edge103_Node000013_Node000002" class="edge">
<title>Node13&#45;&gt;Node2</title>
<g id="a_edge103_Node000013_Node000002"><a xlink:title=" ">
<path fill="none" stroke="#63b8ff" d="M1288.99,-360.5C1348.08,-315.91 1496.81,-211.52 1641,-173.13 1801.19,-130.47 1995.3,-145.36 2112.87,-161.3"/>
<polygon fill="#63b8ff" stroke="#63b8ff" points="2112.57,-164.79 2122.95,-162.69 2113.52,-157.85 2112.57,-164.79"/>
</a>
</g>
</g>
<!-- Node13&#45;&gt;Node5 -->
<g id="edge104_Node000013_Node000005" class="edge">
<title>Node13&#45;&gt;Node5</title>
<g id="a_edge104_Node000013_Node000005"><a xlink:title=" ">
<path fill="none" stroke="#63b8ff" d="M1364.31,-381.9C1521.57,-385.15 1832.02,-399.77 2087,-462.13 2114.32,-468.81 2143.45,-480.04 2167.38,-490.44"/>
<polygon fill="#63b8ff" stroke="#63b8ff" points="2166.06,-493.68 2176.62,-494.53 2168.89,-487.28 2166.06,-493.68"/>
</a>
</g>
</g>
<!-- Node14 -->
<g id="Node000014" class="node">
<title>Node14</title>
<g id="a_Node000014"><a xlink:href="$classcom_1_1example_1_1mybookshelf_1_1BookRecommendationFlow.html#aaf567ca97b0d7f0c58ebba4d6f4b18bd" xlink:title=" ">
<polygon fill="white" stroke="#666666" points="1605,-352.63 1400,-352.63 1400,-311.63 1605,-311.63 1605,-352.63"/>
<text text-anchor="start" x="1408" y="-340.63" font-family="Helvetica,sans-Serif" font-size="10.00">com.example.mybookshelf.</text>
<text text-anchor="start" x="1408" y="-329.63" font-family="Helvetica,sans-Serif" font-size="10.00">BookRecommendationFlow.showFresh</text>
<text text-anchor="middle" x="1502.5" y="-318.63" font-family="Helvetica,sans-Serif" font-size="10.00">StartStep2</text>
</a>
</g>
</g>
<!-- Node13&#45;&gt;Node14 -->
<g id="edge105_Node000013_Node000014" class="edge">
<title>Node13&#45;&gt;Node14</title>
<g id="a_edge105_Node000013_Node000014"><a xlink:title=" ">
<path fill="none" stroke="#63b8ff" d="M1362.82,-360.56C1372.3,-358.62 1381.95,-356.64 1391.51,-354.68"/>
<polygon fill="#63b8ff" stroke="#63b8ff" points="1392.34,-358.08 1401.44,-352.64 1390.94,-351.22 1392.34,-358.08"/>
</a>
</g>
</g>
<!-- Node14&#45;&gt;Node2 -->
<g id="edge106_Node000014_Node000002" class="edge">
<title>Node14&#45;&gt;Node2</title>
<g id="a_edge106_Node000014_Node000002"><a xlink:title=" ">
<path fill="none" stroke="#63b8ff" d="M1529.44,-311.39C1556.06,-290.99 1599.36,-260.21 1641,-241.13 1823.27,-157.57 1886.54,-168.58 2087,-173.13 2095.32,-173.32 2103.94,-173.57 2112.6,-173.87"/>
<polygon fill="#63b8ff" stroke="#63b8ff" points="2112.65,-177.38 2122.77,-174.25 2112.91,-170.38 2112.65,-177.38"/>
</a>
</g>
</g>
<!-- Node14&#45;&gt;Node5 -->
<g id="edge107_Node000014_Node000005" class="edge">
<title>Node14&#45;&gt;Node5</title>
<g id="a_edge107_Node000014_Node000005"><a xlink:title=" ">
<path fill="none" stroke="#63b8ff" d="M1605.21,-336.04C1724.38,-343.49 1926.02,-365.15 2087,-428.13 2123.74,-442.5 2160.84,-468.17 2186.31,-487.91"/>
<polygon fill="#63b8ff" stroke="#63b8ff" points="2184.47,-490.91 2194.49,-494.35 2188.8,-485.41 2184.47,-490.91"/>
</a>
</g>
</g>
<!-- Node15 -->
<g id="Node000015" class="node">
<title>Node15</title>
<g id="a_Node000015"><a xlink:href="$classcom_1_1example_1_1mybookshelf_1_1BookRecommendationFlow.html#a2bc1c0125eb3c1fe64ed1ed3ee93d3eb" xlink:title=" ">
<polygon fill="white" stroke="#666666" points="1846,-291.63 1641,-291.63 1641,-250.63 1846,-250.63 1846,-291.63"/>
<text text-anchor="start" x="1649" y="-279.63" font-family="Helvetica,sans-Serif" font-size="10.00">com.example.mybookshelf.</text>
<text text-anchor="start" x="1649" y="-268.63" font-family="Helvetica,sans-Serif" font-size="10.00">BookRecommendationFlow.showFresh</text>
<text text-anchor="middle" x="1743.5" y="-257.63" font-family="Helvetica,sans-Serif" font-size="10.00">StartStep3</text>
</a>
</g>
</g>
<!-- Node14&#45;&gt;Node15 -->
<g id="edge108_Node000014_Node000015" class="edge">
<title>Node14&#45;&gt;Node15</title>
<g id="a_edge108_Node000014_Node000015"><a xlink:title=" ">
<path fill="none" stroke="#63b8ff" d="M1584.08,-311.56C1605.92,-305.99 1629.71,-299.92 1652.05,-294.21"/>
<polygon fill="#63b8ff" stroke="#63b8ff" points="1653.04,-297.57 1661.86,-291.71 1651.31,-290.79 1653.04,-297.57"/>
</a>
</g>
</g>
<!-- Node15&#45;&gt;Node2 -->
<g id="edge109_Node000015_Node000002" class="edge">
<title>Node15&#45;&gt;Node2</title>
<g id="a_edge109_Node000015_Node000002"><a xlink:title=" ">
<path fill="none" stroke="#63b8ff" d="M1846.19,-266.71C1915.01,-261.98 2007.51,-252.22 2087,-232.13 2114.16,-225.26 2143.17,-214.08 2167.06,-203.74"/>
<polygon fill="#63b8ff" stroke="#63b8ff" points="2168.54,-206.92 2176.28,-199.69 2165.72,-200.51 2168.54,-206.92"/>
</a>
</g>
</g>
<!-- Node15&#45;&gt;Node5 -->
<g id="edge110_Node000015_Node000005" class="edge">
<title>Node15&#45;&gt;Node5</title>
<g id="a_edge110_Node000015_Node000005"><a xlink:title=" ">
<path fill="none" stroke="#63b8ff" d="M1836.37,-291.71C1908.11,-310.39 2008.47,-342.38 2087,-390.13 2130.2,-416.39 2171.02,-458.73 2195.52,-486.74"/>
<polygon fill="#63b8ff" stroke="#63b8ff" points="2193.11,-489.3 2202.29,-494.59 2198.41,-484.73 2193.11,-489.3"/>
</a>
</g>
</g>
<!-- Node16 -->
<g id="Node000016" class="node">
<title>Node16</title>
<g id="a_Node000016"><a xlink:href="$classcom_1_1example_1_1mybookshelf_1_1BookRecommendationFlow.html#ad10515cfcf8650b6830b68f15d393b3b" xlink:title=" ">
<polygon fill="white" stroke="#666666" points="2087,-223.63 1882,-223.63 1882,-182.63 2087,-182.63 2087,-223.63"/>
<text text-anchor="start" x="1890" y="-211.63" font-family="Helvetica,sans-Serif" font-size="10.00">com.example.mybookshelf.</text>
<text text-anchor="start" x="1890" y="-200.63" font-family="Helvetica,sans-Serif" font-size="10.00">BookRecommendationFlow.showFresh</text>
<text text-anchor="middle" x="1984.5" y="-189.63" font-family="Helvetica,sans-Serif" font-size="10.00">StartStep4</text>
</a>
</g>
</g>
<!-- Node15&#45;&gt;Node16 -->
<g id="edge111_Node000015_Node000016" class="edge">
<title>Node15&#45;&gt;Node16</title>
<g id="a_edge111_Node000015_Node000016"><a xlink:title=" ">
<path fill="none" stroke="#63b8ff" d="M1816.86,-250.54C1843.53,-242.95 1873.94,-234.3 1901.41,-226.48"/>
<polygon fill="#63b8ff" stroke="#63b8ff" points="1902.73,-229.75 1911.39,-223.65 1900.81,-223.02 1902.73,-229.75"/>
</a>
</g>
</g>
<!-- Node16&#45;&gt;Node1 -->
<g id="edge114_Node000016_Node000001" class="edge">
<title>Node16&#45;&gt;Node1</title>
<g id="a_edge114_Node000016_Node000001"><a xlink:title=" ">
<path fill="none" stroke="#63b8ff" d="M1893.97,-182.57C1695.06,-138.75 1200.84,-40.13 781.5,-40.13 543,-40.13 543,-40.13 543,-40.13 368.31,-40.13 196.58,-187.31 131.18,-250.19"/>
<polygon fill="#63b8ff" stroke="#63b8ff" points="128.47,-247.94 123.74,-257.42 133.35,-252.96 128.47,-247.94"/>
</a>
</g>
</g>
<!-- Node16&#45;&gt;Node2 -->
<g id="edge112_Node000016_Node000002" class="edge">
<title>Node16&#45;&gt;Node2</title>
<g id="a_edge112_Node000016_Node000002"><a xlink:title=" ">
<path fill="none" stroke="#63b8ff" d="M2087.24,-192.67C2095.62,-191.81 2104.12,-190.94 2112.54,-190.07"/>
<polygon fill="#63b8ff" stroke="#63b8ff" points="2113.17,-193.52 2122.76,-189.02 2112.46,-186.56 2113.17,-193.52"/>
</a>
</g>
</g>
<!-- Node16&#45;&gt;Node5 -->
<g id="edge113_Node000016_Node000005" class="edge">
<title>Node16&#45;&gt;Node5</title>
<g id="a_edge113_Node000016_Node000005"><a xlink:title=" ">
<path fill="none" stroke="#63b8ff" d="M2021.93,-223.74C2042.78,-236.82 2068.41,-255.19 2087,-276.13 2145.02,-341.49 2187.94,-436.68 2207.41,-484.83"/>
<polygon fill="#63b8ff" stroke="#63b8ff" points="2204.26,-486.36 2211.21,-494.36 2210.76,-483.77 2204.26,-486.36"/>
</a>
</g>
</g>
</g>
</svg>
