<?xml version="1.0" encoding="UTF-8" standalone="no"?>
<!DOCTYPE svg PUBLIC "-//W3C//DTD SVG 1.1//EN"
 "http://www.w3.org/Graphics/SVG/1.1/DTD/svg11.dtd">
<!-- Generated by graphviz version 2.43.0 (0)
 -->
<!-- Title: com.example.mybookshelf.notifications.NotificationScheduler Pages: 1 -->
<svg width="295pt" height="369pt"
 viewBox="0.00 0.00 294.50 369.00" xmlns="http://www.w3.org/2000/svg" xmlns:xlink="http://www.w3.org/1999/xlink">
<g id="graph0" class="graph" transform="scale(1 1) rotate(0) translate(4 365)">
<title>com.example.mybookshelf.notifications.NotificationScheduler</title>
<!-- Node1 -->
<g id="Node000001" class="node">
<title>Node1</title>
<g id="a_Node000001"><a xlink:title=" ">
<polygon fill="#999999" stroke="transparent" points="209,-210 0,-210 0,0 209,0 209,-210"/>
<text text-anchor="start" x="5.5" y="-198" font-family="Helvetica,sans-Serif" font-size="10.00">com.example.mybookshelf.notifications.</text>
<text text-anchor="start" x="52.5" y="-187" font-family="Helvetica,sans-Serif" font-size="10.00">NotificationScheduler</text>
<text text-anchor="start" x="103" y="-172" font-family="Helvetica,sans-Serif" font-size="10.00"> </text>
<text text-anchor="start" x="9" y="-157" font-family="Helvetica,sans-Serif" font-size="10.00">+</text>
<text text-anchor="start" x="26.5" y="-157" font-family="Helvetica,sans-Serif" font-size="10.00">scheduleDailyNotification()</text>
<text text-anchor="start" x="9" y="-142" font-family="Helvetica,sans-Serif" font-size="10.00">+</text>
<text text-anchor="start" x="26.5" y="-142" font-family="Helvetica,sans-Serif" font-size="10.00">scheduleDailyNotification()</text>
<text text-anchor="start" x="9" y="-127" font-family="Helvetica,sans-Serif" font-size="10.00">+</text>
<text text-anchor="start" x="26.5" y="-127" font-family="Helvetica,sans-Serif" font-size="10.00">changeDailyNotificationTime()</text>
<text text-anchor="start" x="9" y="-112" font-family="Helvetica,sans-Serif" font-size="10.00">+</text>
<text text-anchor="start" x="26.5" y="-112" font-family="Helvetica,sans-Serif" font-size="10.00">changeDailyNotificationMessage()</text>
<text text-anchor="start" x="9" y="-97" font-family="Helvetica,sans-Serif" font-size="10.00">+</text>
<text text-anchor="start" x="26.5" y="-97" font-family="Helvetica,sans-Serif" font-size="10.00">cancelDailyNotification()</text>
<text text-anchor="start" x="9" y="-82" font-family="Helvetica,sans-Serif" font-size="10.00">+</text>
<text text-anchor="start" x="26.5" y="-82" font-family="Helvetica,sans-Serif" font-size="10.00">toggleDailyNotification()</text>
<text text-anchor="start" x="9" y="-67" font-family="Helvetica,sans-Serif" font-size="10.00">+</text>
<text text-anchor="start" x="26.5" y="-67" font-family="Helvetica,sans-Serif" font-size="10.00">restoreNotifications()</text>
<text text-anchor="start" x="9" y="-52" font-family="Helvetica,sans-Serif" font-size="10.00">+</text>
<text text-anchor="start" x="26.5" y="-52" font-family="Helvetica,sans-Serif" font-size="10.00">isDailyNotificationActive()</text>
<text text-anchor="start" x="9" y="-37" font-family="Helvetica,sans-Serif" font-size="10.00">+</text>
<text text-anchor="start" x="26.5" y="-37" font-family="Helvetica,sans-Serif" font-size="10.00">getDailyNotificationHour()</text>
<text text-anchor="start" x="9" y="-22" font-family="Helvetica,sans-Serif" font-size="10.00">+</text>
<text text-anchor="start" x="26.5" y="-22" font-family="Helvetica,sans-Serif" font-size="10.00">getDailyNotificationMinute()</text>
<text text-anchor="start" x="26.5" y="-7" font-family="Helvetica,sans-Serif" font-size="10.00">and 6 more...</text>
<polygon fill="#666666" stroke="#666666" points="0.5,-182 0.5,-182 209.5,-182 209.5,-182 0.5,-182"/>
<polygon fill="#666666" stroke="#666666" points="0.5,-167 0.5,-167 209.5,-167 209.5,-167 0.5,-167"/>
<polygon fill="none" stroke="#666666" points="0,0 0,-210 209,-210 209,0 0,0"/>
</a>
</g>
</g>
<!-- Node2 -->
<g id="Node000002" class="node">
<title>Node2</title>
<g id="a_Node000002"><a xlink:title=" ">
<polygon fill="white" stroke="transparent" points="58,-361 19,-361 19,-312 58,-312 58,-361"/>
<text text-anchor="start" x="24.5" y="-348.5" font-family="Helvetica,sans-Serif" font-size="10.00">String</text>
<text text-anchor="start" x="37" y="-333.5" font-family="Helvetica,sans-Serif" font-size="10.00"> </text>
<text text-anchor="start" x="37" y="-318.5" font-family="Helvetica,sans-Serif" font-size="10.00"> </text>
<polygon fill="#666666" stroke="#666666" points="19.5,-343.5 19.5,-343.5 58.5,-343.5 58.5,-343.5 19.5,-343.5"/>
<polygon fill="#666666" stroke="#666666" points="19.5,-328.5 19.5,-328.5 58.5,-328.5 58.5,-328.5 19.5,-328.5"/>
<polygon fill="none" stroke="#666666" points="19,-312 19,-361 58,-361 58,-312 19,-312"/>
</a>
</g>
</g>
<!-- Node2&#45;&gt;Node1 -->
<g id="edge5_Node000001_Node000002" class="edge">
<title>Node2&#45;&gt;Node1</title>
<g id="a_edge5_Node000001_Node000002"><a xlink:title=" ">
<path fill="none" stroke="#63b8ff" d="M35.51,-311.6C33.5,-289.53 32.36,-256.03 39.5,-228 40.04,-225.87 40.63,-223.73 41.26,-221.6"/>
<polygon fill="none" stroke="#63b8ff" points="41.26,-221.59 39.32,-214.65 44.98,-210.19 46.92,-217.13 41.26,-221.59"/>
</a>
</g>
<text text-anchor="middle" x="94" y="-286" font-family="Helvetica,sans-Serif" font-size="10.00" fill="grey"> &#45;KEY_DAILY_ACTIVE</text>
<text text-anchor="middle" x="94" y="-275" font-family="Helvetica,sans-Serif" font-size="10.00" fill="grey">&#45;KEY_DAILY_HOUR</text>
<text text-anchor="middle" x="94" y="-264" font-family="Helvetica,sans-Serif" font-size="10.00" fill="grey">&#45;KEY_DAILY_MESSAGE</text>
<text text-anchor="middle" x="94" y="-253" font-family="Helvetica,sans-Serif" font-size="10.00" fill="grey">&#45;KEY_DAILY_MINUTE</text>
<text text-anchor="middle" x="94" y="-242" font-family="Helvetica,sans-Serif" font-size="10.00" fill="grey">&#45;PREFS_NAME</text>
<text text-anchor="middle" x="94" y="-231" font-family="Helvetica,sans-Serif" font-size="10.00" fill="grey">&#45;TAG</text>
</g>
<!-- Node3 -->
<g id="Node000003" class="node">
<title>Node3</title>
<g id="a_Node000003"><a xlink:title=" ">
<polygon fill="white" stroke="transparent" points="182,-361 159,-361 159,-312 182,-312 182,-361"/>
<text text-anchor="start" x="164.5" y="-348.5" font-family="Helvetica,sans-Serif" font-size="10.00">int</text>
<text text-anchor="start" x="169" y="-333.5" font-family="Helvetica,sans-Serif" font-size="10.00"> </text>
<text text-anchor="start" x="169" y="-318.5" font-family="Helvetica,sans-Serif" font-size="10.00"> </text>
<polygon fill="#666666" stroke="#666666" points="159.5,-343.5 159.5,-343.5 182.5,-343.5 182.5,-343.5 159.5,-343.5"/>
<polygon fill="#666666" stroke="#666666" points="159.5,-328.5 159.5,-328.5 182.5,-328.5 182.5,-328.5 159.5,-328.5"/>
<polygon fill="none" stroke="#666666" points="159,-312 159,-361 182,-361 182,-312 159,-312"/>
</a>
</g>
</g>
<!-- Node3&#45;&gt;Node1 -->
<g id="edge6_Node000001_Node000003" class="edge">
<title>Node3&#45;&gt;Node1</title>
<g id="a_edge6_Node000001_Node000003"><a xlink:title=" ">
<path fill="none" stroke="#63b8ff" d="M166.66,-311.78C162.87,-289.84 156.49,-256.43 148.5,-228 147.93,-225.99 147.35,-223.96 146.76,-221.92"/>
<polygon fill="none" stroke="#63b8ff" points="146.67,-221.65 141.1,-217.07 143.19,-210.17 148.76,-214.75 146.67,-221.65"/>
</a>
</g>
<text text-anchor="middle" x="224.5" y="-258.5" font-family="Helvetica,sans-Serif" font-size="10.00" fill="grey"> +REQUEST_CODE_DAILY</text>
</g>
</g>
</svg>
