<?xml version="1.0" encoding="UTF-8" standalone="no"?>
<!DOCTYPE svg PUBLIC "-//W3C//DTD SVG 1.1//EN"
 "http://www.w3.org/Graphics/SVG/1.1/DTD/svg11.dtd">
<!-- Generated by graphviz version 2.43.0 (0)
 -->
<!-- Title: com.example.mybookshelf.MainActivity.handleBookChange Pages: 1 -->
<svg width="392pt" height="86pt"
 viewBox="0.00 0.00 392.00 86.00" xmlns="http://www.w3.org/2000/svg" xmlns:xlink="http://www.w3.org/1999/xlink">
<g id="graph0" class="graph" transform="scale(1 1) rotate(0) translate(4 82)">
<title>com.example.mybookshelf.MainActivity.handleBookChange</title>
<!-- Node1 -->
<g id="Node000001" class="node">
<title>Node1</title>
<g id="a_Node000001"><a xlink:title=" ">
<polygon fill="#999999" stroke="#666666" points="174,-54 0,-54 0,-24 174,-24 174,-54"/>
<text text-anchor="start" x="8" y="-42" font-family="Helvetica,sans-Serif" font-size="10.00">com.example.mybookshelf.</text>
<text text-anchor="middle" x="87" y="-31" font-family="Helvetica,sans-Serif" font-size="10.00">MainActivity.handleBookChange</text>
</a>
</g>
</g>
<!-- Node2 -->
<g id="Node000002" class="node">
<title>Node2</title>
<g id="a_Node000002"><a xlink:href="$classcom_1_1example_1_1mybookshelf_1_1dataClass_1_1Book.html#ab76b4ec7891e641d4c1a70a564805ffb" xlink:title=" ">
<polygon fill="white" stroke="#666666" points="384,-78 210,-78 210,-48 384,-48 384,-78"/>
<text text-anchor="start" x="218" y="-66" font-family="Helvetica,sans-Serif" font-size="10.00">com.example.mybookshelf.data</text>
<text text-anchor="middle" x="297" y="-55" font-family="Helvetica,sans-Serif" font-size="10.00">Class.Book.getId</text>
</a>
</g>
</g>
<!-- Node1&#45;&gt;Node2 -->
<g id="edge5_Node000001_Node000002" class="edge">
<title>Node1&#45;&gt;Node2</title>
<g id="a_edge5_Node000001_Node000002"><a xlink:title=" ">
<path fill="none" stroke="#63b8ff" d="M174.1,-48.93C182.62,-49.92 191.3,-50.92 199.91,-51.91"/>
<polygon fill="#63b8ff" stroke="#63b8ff" points="199.63,-55.4 209.96,-53.07 200.43,-48.45 199.63,-55.4"/>
</a>
</g>
</g>
<!-- Node3 -->
<g id="Node000003" class="node">
<title>Node3</title>
<g id="a_Node000003"><a xlink:href="$classcom_1_1example_1_1mybookshelf_1_1dataClass_1_1Book.html#a7c4ec1f3e154fad200b64643574e5c9c" xlink:title=" ">
<polygon fill="white" stroke="#666666" points="384,-30 210,-30 210,0 384,0 384,-30"/>
<text text-anchor="start" x="218" y="-18" font-family="Helvetica,sans-Serif" font-size="10.00">com.example.mybookshelf.data</text>
<text text-anchor="middle" x="297" y="-7" font-family="Helvetica,sans-Serif" font-size="10.00">Class.Book.getStatus</text>
</a>
</g>
</g>
<!-- Node1&#45;&gt;Node3 -->
<g id="edge6_Node000001_Node000003" class="edge">
<title>Node1&#45;&gt;Node3</title>
<g id="a_edge6_Node000001_Node000003"><a xlink:title=" ">
<path fill="none" stroke="#63b8ff" d="M174.1,-29.07C182.62,-28.08 191.3,-27.08 199.91,-26.09"/>
<polygon fill="#63b8ff" stroke="#63b8ff" points="200.43,-29.55 209.96,-24.93 199.63,-22.6 200.43,-29.55"/>
</a>
</g>
</g>
</g>
</svg>
