<?xml version="1.0" encoding="UTF-8" standalone="no"?>
<!DOCTYPE svg PUBLIC "-//W3C//DTD SVG 1.1//EN"
 "http://www.w3.org/Graphics/SVG/1.1/DTD/svg11.dtd">
<!-- Generated by graphviz version 2.43.0 (0)
 -->
<!-- Title: com.example.mybookshelf.UIMaster.navigateToStartingPage Pages: 1 -->
<svg width="1792pt" height="446pt"
 viewBox="0.00 0.00 1792.00 446.00" xmlns="http://www.w3.org/2000/svg" xmlns:xlink="http://www.w3.org/1999/xlink">
<g id="graph0" class="graph" transform="scale(1 1) rotate(0) translate(4 442)">
<title>com.example.mybookshelf.UIMaster.navigateToStartingPage</title>
<!-- Node1 -->
<g id="Node000001" class="node">
<title>Node1</title>
<g id="a_Node000001"><a xlink:title=" ">
<polygon fill="#999999" stroke="#666666" points="178,-203 0,-203 0,-173 178,-173 178,-203"/>
<text text-anchor="start" x="8" y="-191" font-family="Helvetica,sans-Serif" font-size="10.00">com.example.mybookshelf.</text>
<text text-anchor="middle" x="89" y="-180" font-family="Helvetica,sans-Serif" font-size="10.00">UIMaster.navigateToStartingPage</text>
</a>
</g>
</g>
<!-- Node2 -->
<g id="Node000002" class="node">
<title>Node2</title>
<g id="a_Node000002"><a xlink:href="$classcom_1_1example_1_1mybookshelf_1_1UIMaster.html#aa6aad8404432bdaf23db9b41e99a6ed5" xlink:title=" ">
<polygon fill="white" stroke="#666666" points="395,-246 214,-246 214,-216 395,-216 395,-246"/>
<text text-anchor="start" x="222" y="-234" font-family="Helvetica,sans-Serif" font-size="10.00">com.example.mybookshelf.</text>
<text text-anchor="middle" x="304.5" y="-223" font-family="Helvetica,sans-Serif" font-size="10.00">UIMaster.setupNavigationButtons</text>
</a>
</g>
</g>
<!-- Node1&#45;&gt;Node2 -->
<g id="edge69_Node000001_Node000002" class="edge">
<title>Node1&#45;&gt;Node2</title>
<g id="a_edge69_Node000001_Node000002"><a xlink:title=" ">
<path fill="none" stroke="#63b8ff" d="M164.67,-203.04C182.22,-206.57 201.05,-210.37 219,-213.98"/>
<polygon fill="#63b8ff" stroke="#63b8ff" points="218.38,-217.43 228.87,-215.97 219.76,-210.56 218.38,-217.43"/>
</a>
</g>
</g>
<!-- Node3 -->
<g id="Node000003" class="node">
<title>Node3</title>
<g id="a_Node000003"><a xlink:href="$classcom_1_1example_1_1mybookshelf_1_1UIMaster.html#a4636b546c38ace5aedccfd989edc0bb1" xlink:title=" ">
<polygon fill="white" stroke="#666666" points="583,-332 431,-332 431,-302 583,-302 583,-332"/>
<text text-anchor="start" x="439" y="-320" font-family="Helvetica,sans-Serif" font-size="10.00">com.example.mybookshelf.</text>
<text text-anchor="middle" x="507" y="-309" font-family="Helvetica,sans-Serif" font-size="10.00">UIMaster.handleListSearch</text>
</a>
</g>
</g>
<!-- Node2&#45;&gt;Node3 -->
<g id="edge70_Node000002_Node000003" class="edge">
<title>Node2&#45;&gt;Node3</title>
<g id="a_edge70_Node000002_Node000003"><a xlink:title=" ">
<path fill="none" stroke="#63b8ff" d="M337.26,-246.03C362.5,-257.83 398.79,-274.47 431,-288 439.14,-291.42 447.83,-294.92 456.3,-298.25"/>
<polygon fill="#63b8ff" stroke="#63b8ff" points="455.15,-301.55 465.74,-301.92 457.69,-295.03 455.15,-301.55"/>
</a>
</g>
</g>
<!-- Node9 -->
<g id="Node000009" class="node">
<title>Node9</title>
<g id="a_Node000009"><a xlink:href="$classcom_1_1example_1_1mybookshelf_1_1UIMaster.html#ad30bff41c8ec833af2293c0b6c8b47b2" xlink:title=" ">
<polygon fill="white" stroke="#666666" points="583,-225 431,-225 431,-195 583,-195 583,-225"/>
<text text-anchor="start" x="439" y="-213" font-family="Helvetica,sans-Serif" font-size="10.00">com.example.mybookshelf.</text>
<text text-anchor="middle" x="507" y="-202" font-family="Helvetica,sans-Serif" font-size="10.00">UIMaster.navigateToGoals</text>
</a>
</g>
</g>
<!-- Node2&#45;&gt;Node9 -->
<g id="edge76_Node000002_Node000009" class="edge">
<title>Node2&#45;&gt;Node9</title>
<g id="a_edge76_Node000002_Node000009"><a xlink:title=" ">
<path fill="none" stroke="#63b8ff" d="M395.19,-221.61C403.64,-220.72 412.2,-219.82 420.61,-218.94"/>
<polygon fill="#63b8ff" stroke="#63b8ff" points="421.19,-222.4 430.78,-217.88 420.47,-215.44 421.19,-222.4"/>
</a>
</g>
</g>
<!-- Node10 -->
<g id="Node000010" class="node">
<title>Node10</title>
<g id="a_Node000010"><a xlink:href="$classcom_1_1example_1_1mybookshelf_1_1UIMaster.html#ac859db60f9068e6a87b633ef697d4d0f" xlink:title=" ">
<polygon fill="white" stroke="#666666" points="816,-160 660,-160 660,-130 816,-130 816,-160"/>
<text text-anchor="start" x="668" y="-148" font-family="Helvetica,sans-Serif" font-size="10.00">com.example.mybookshelf.</text>
<text text-anchor="middle" x="738" y="-137" font-family="Helvetica,sans-Serif" font-size="10.00">UIMaster.navigateToSettings</text>
</a>
</g>
</g>
<!-- Node2&#45;&gt;Node10 -->
<g id="edge101_Node000002_Node000010" class="edge">
<title>Node2&#45;&gt;Node10</title>
<g id="a_edge101_Node000002_Node000010"><a xlink:title=" ">
<path fill="none" stroke="#63b8ff" d="M341.13,-215.95C365.92,-206.04 399.96,-193.55 431,-186 503.64,-168.32 587.97,-157.73 649.68,-151.76"/>
<polygon fill="#63b8ff" stroke="#63b8ff" points="650.15,-155.23 659.77,-150.81 649.49,-148.26 650.15,-155.23"/>
</a>
</g>
</g>
<!-- Node15 -->
<g id="Node000015" class="node">
<title>Node15</title>
<g id="a_Node000015"><a xlink:href="$classcom_1_1example_1_1mybookshelf_1_1UIMaster.html#aa3079f36c20fc1b0ec8c01197f06faa3" xlink:title=" ">
<polygon fill="white" stroke="#666666" points="1096,-277 944,-277 944,-247 1096,-247 1096,-277"/>
<text text-anchor="start" x="952" y="-265" font-family="Helvetica,sans-Serif" font-size="10.00">com.example.mybookshelf.</text>
<text text-anchor="middle" x="1020" y="-254" font-family="Helvetica,sans-Serif" font-size="10.00">UIMaster.navigateToStats</text>
</a>
</g>
</g>
<!-- Node2&#45;&gt;Node15 -->
<g id="edge102_Node000002_Node000015" class="edge">
<title>Node2&#45;&gt;Node15</title>
<g id="a_edge102_Node000002_Node000015"><a xlink:title=" ">
<path fill="none" stroke="#63b8ff" d="M395,-236.31C457.7,-239.92 543.45,-244.63 619,-248 727.51,-252.84 852.64,-256.99 933.64,-259.49"/>
<polygon fill="#63b8ff" stroke="#63b8ff" points="933.68,-262.99 943.79,-259.8 933.9,-255.99 933.68,-262.99"/>
</a>
</g>
</g>
<!-- Node4 -->
<g id="Node000004" class="node">
<title>Node4</title>
<g id="a_Node000004"><a xlink:href="$classcom_1_1example_1_1mybookshelf_1_1UIMaster.html#a3e552449814fd4b18a4070128261c571" xlink:title=" ">
<polygon fill="white" stroke="#666666" points="814,-332 662,-332 662,-302 814,-302 814,-332"/>
<text text-anchor="start" x="670" y="-320" font-family="Helvetica,sans-Serif" font-size="10.00">com.example.mybookshelf.</text>
<text text-anchor="middle" x="738" y="-309" font-family="Helvetica,sans-Serif" font-size="10.00">UIMaster.fillSpinners</text>
</a>
</g>
</g>
<!-- Node3&#45;&gt;Node4 -->
<g id="edge71_Node000003_Node000004" class="edge">
<title>Node3&#45;&gt;Node4</title>
<g id="a_edge71_Node000003_Node000004"><a xlink:title=" ">
<path fill="none" stroke="#63b8ff" d="M583.3,-317C605.12,-317 629.1,-317 651.49,-317"/>
<polygon fill="#63b8ff" stroke="#63b8ff" points="651.65,-320.5 661.65,-317 651.65,-313.5 651.65,-320.5"/>
</a>
</g>
</g>
<!-- Node5 -->
<g id="Node000005" class="node">
<title>Node5</title>
<g id="a_Node000005"><a xlink:href="$classcom_1_1example_1_1mybookshelf_1_1UIMaster.html#a39a8f40aa163994c415f165d94ee47fd" xlink:title=" ">
<polygon fill="white" stroke="#666666" points="814,-380 662,-380 662,-350 814,-350 814,-380"/>
<text text-anchor="start" x="670" y="-368" font-family="Helvetica,sans-Serif" font-size="10.00">com.example.mybookshelf.</text>
<text text-anchor="middle" x="738" y="-357" font-family="Helvetica,sans-Serif" font-size="10.00">UIMaster.filterBooks</text>
</a>
</g>
</g>
<!-- Node3&#45;&gt;Node5 -->
<g id="edge72_Node000003_Node000005" class="edge">
<title>Node3&#45;&gt;Node5</title>
<g id="a_edge72_Node000003_Node000005"><a xlink:title=" ">
<path fill="none" stroke="#63b8ff" d="M576.95,-332.05C590.87,-335.04 605.4,-338.15 619,-341 629.84,-343.27 641.25,-345.63 652.52,-347.95"/>
<polygon fill="#63b8ff" stroke="#63b8ff" points="651.88,-351.39 662.38,-349.97 653.28,-344.53 651.88,-351.39"/>
</a>
</g>
</g>
<!-- Node6 -->
<g id="Node000006" class="node">
<title>Node6</title>
<g id="a_Node000006"><a xlink:href="$classcom_1_1example_1_1mybookshelf_1_1dataClass_1_1Book.html#a72061c36f82e9d925effeb02dc0da55d" xlink:title=" ">
<polygon fill="white" stroke="#666666" points="1107,-428 933,-428 933,-398 1107,-398 1107,-428"/>
<text text-anchor="start" x="941" y="-416" font-family="Helvetica,sans-Serif" font-size="10.00">com.example.mybookshelf.data</text>
<text text-anchor="middle" x="1020" y="-405" font-family="Helvetica,sans-Serif" font-size="10.00">Class.Book.getAuthor</text>
</a>
</g>
</g>
<!-- Node5&#45;&gt;Node6 -->
<g id="edge73_Node000005_Node000006" class="edge">
<title>Node5&#45;&gt;Node6</title>
<g id="a_edge73_Node000005_Node000006"><a xlink:title=" ">
<path fill="none" stroke="#63b8ff" d="M814.03,-377.86C847.5,-383.6 887.33,-390.43 922.93,-396.53"/>
<polygon fill="#63b8ff" stroke="#63b8ff" points="922.41,-399.99 932.86,-398.23 923.59,-393.09 922.41,-399.99"/>
</a>
</g>
</g>
<!-- Node7 -->
<g id="Node000007" class="node">
<title>Node7</title>
<g id="a_Node000007"><a xlink:href="$classcom_1_1example_1_1mybookshelf_1_1dataClass_1_1Book.html#ab78862de4a0e97e9190086f397a88fd4" xlink:title=" ">
<polygon fill="white" stroke="#666666" points="1107,-380 933,-380 933,-350 1107,-350 1107,-380"/>
<text text-anchor="start" x="941" y="-368" font-family="Helvetica,sans-Serif" font-size="10.00">com.example.mybookshelf.data</text>
<text text-anchor="middle" x="1020" y="-357" font-family="Helvetica,sans-Serif" font-size="10.00">Class.Book.getGenre</text>
</a>
</g>
</g>
<!-- Node5&#45;&gt;Node7 -->
<g id="edge74_Node000005_Node000007" class="edge">
<title>Node5&#45;&gt;Node7</title>
<g id="a_edge74_Node000005_Node000007"><a xlink:title=" ">
<path fill="none" stroke="#63b8ff" d="M814.03,-365C847.36,-365 886.99,-365 922.48,-365"/>
<polygon fill="#63b8ff" stroke="#63b8ff" points="922.86,-368.5 932.86,-365 922.86,-361.5 922.86,-368.5"/>
</a>
</g>
</g>
<!-- Node8 -->
<g id="Node000008" class="node">
<title>Node8</title>
<g id="a_Node000008"><a xlink:href="$classcom_1_1example_1_1mybookshelf_1_1dataClass_1_1Book.html#a4109da1bdee13601576c6725d6e89e71" xlink:title=" ">
<polygon fill="white" stroke="#666666" points="1107,-332 933,-332 933,-302 1107,-302 1107,-332"/>
<text text-anchor="start" x="941" y="-320" font-family="Helvetica,sans-Serif" font-size="10.00">com.example.mybookshelf.data</text>
<text text-anchor="middle" x="1020" y="-309" font-family="Helvetica,sans-Serif" font-size="10.00">Class.Book.getName</text>
</a>
</g>
</g>
<!-- Node5&#45;&gt;Node8 -->
<g id="edge75_Node000005_Node000008" class="edge">
<title>Node5&#45;&gt;Node8</title>
<g id="a_edge75_Node000005_Node000008"><a xlink:title=" ">
<path fill="none" stroke="#63b8ff" d="M814.03,-352.14C847.5,-346.4 887.33,-339.57 922.93,-333.47"/>
<polygon fill="#63b8ff" stroke="#63b8ff" points="923.59,-336.91 932.86,-331.77 922.41,-330.01 923.59,-336.91"/>
</a>
</g>
</g>
<!-- Node9&#45;&gt;Node1 -->
<g id="edge98_Node000009_Node000001" class="edge">
<title>Node9&#45;&gt;Node1</title>
<g id="a_edge98_Node000009_Node000001"><a xlink:title=" ">
<path fill="none" stroke="#63b8ff" d="M430.79,-206.02C362.96,-202.44 262.73,-197.13 188.52,-193.21"/>
<polygon fill="#63b8ff" stroke="#63b8ff" points="188.39,-189.7 178.22,-192.67 188.02,-196.69 188.39,-189.7"/>
</a>
</g>
</g>
<!-- Node9&#45;&gt;Node10 -->
<g id="edge77_Node000009_Node000010" class="edge">
<title>Node9&#45;&gt;Node10</title>
<g id="a_edge77_Node000009_Node000010"><a xlink:title=" ">
<path fill="none" stroke="#63b8ff" d="M530.52,-194.95C557.74,-181.68 602.01,-164.84 619,-160 628.9,-157.18 639.37,-154.56 649.8,-152.23"/>
<polygon fill="#63b8ff" stroke="#63b8ff" points="650.74,-155.6 659.78,-150.08 649.27,-148.76 650.74,-155.6"/>
</a>
</g>
</g>
<!-- Node9&#45;&gt;Node15 -->
<g id="edge99_Node000009_Node000015" class="edge">
<title>Node9&#45;&gt;Node15</title>
<g id="a_edge99_Node000009_Node000015"><a xlink:title=" ">
<path fill="none" stroke="#63b8ff" d="M583.13,-217.64C676.5,-227.15 835.48,-243.32 933.45,-253.29"/>
<polygon fill="#63b8ff" stroke="#63b8ff" points="933.32,-256.8 943.62,-254.33 934.03,-249.83 933.32,-256.8"/>
</a>
</g>
</g>
<!-- Node28 -->
<g id="Node000028" class="node">
<title>Node28</title>
<g id="a_Node000028"><a xlink:href="$classcom_1_1example_1_1mybookshelf_1_1LayoutManager_1_1CustomGoalAdapter.html#abad93cc513b4470ac284a0756e1c3f65" xlink:title=" ">
<polygon fill="white" stroke="#666666" points="857,-208 619,-208 619,-178 857,-178 857,-208"/>
<text text-anchor="start" x="627" y="-196" font-family="Helvetica,sans-Serif" font-size="10.00">com.example.mybookshelf.</text>
<text text-anchor="middle" x="738" y="-185" font-family="Helvetica,sans-Serif" font-size="10.00">LayoutManager.CustomGoalAdapter.setGoals</text>
</a>
</g>
</g>
<!-- Node9&#45;&gt;Node28 -->
<g id="edge100_Node000009_Node000028" class="edge">
<title>Node9&#45;&gt;Node28</title>
<g id="a_edge100_Node000009_Node000028"><a xlink:title=" ">
<path fill="none" stroke="#63b8ff" d="M583.3,-204.41C591.55,-203.8 600.1,-203.16 608.76,-202.52"/>
<polygon fill="#63b8ff" stroke="#63b8ff" points="609.25,-205.99 618.96,-201.76 608.73,-199.01 609.25,-205.99"/>
</a>
</g>
</g>
<!-- Node10&#45;&gt;Node1 -->
<g id="edge83_Node000010_Node000001" class="edge">
<title>Node10&#45;&gt;Node1</title>
<g id="a_edge83_Node000010_Node000001"><a xlink:title=" ">
<path fill="none" stroke="#63b8ff" d="M659.91,-146.54C598,-148.08 508.85,-150.95 431,-156 349.16,-161.31 256.53,-170.18 188.49,-177.24"/>
<polygon fill="#63b8ff" stroke="#63b8ff" points="187.79,-173.8 178.21,-178.32 188.52,-180.76 187.79,-173.8"/>
</a>
</g>
</g>
<!-- Node10&#45;&gt;Node9 -->
<g id="edge82_Node000010_Node000009" class="edge">
<title>Node10&#45;&gt;Node9</title>
<g id="a_edge82_Node000010_Node000009"><a xlink:title=" ">
<path fill="none" stroke="#63b8ff" d="M694.57,-160.01C671.94,-165.15 643.73,-170.96 619,-178 610.53,-180.41 595.3,-185.8 578.78,-191.57"/>
<polygon fill="#63b8ff" stroke="#63b8ff" points="577.24,-188.4 568.94,-194.99 579.54,-195.01 577.24,-188.4"/>
</a>
</g>
</g>
<!-- Node11 -->
<g id="Node000011" class="node">
<title>Node11</title>
<g id="a_Node000011"><a xlink:href="$classcom_1_1example_1_1mybookshelf_1_1Authenticator.html#a57eb5913cd07c88e3f0771b4bf88bc0c" xlink:title=" ">
<polygon fill="white" stroke="#666666" points="1104,-174 936,-174 936,-144 1104,-144 1104,-174"/>
<text text-anchor="start" x="944" y="-162" font-family="Helvetica,sans-Serif" font-size="10.00">com.example.mybookshelf.</text>
<text text-anchor="middle" x="1020" y="-151" font-family="Helvetica,sans-Serif" font-size="10.00">Authenticator.clearStoredToken</text>
</a>
</g>
</g>
<!-- Node10&#45;&gt;Node11 -->
<g id="edge78_Node000010_Node000011" class="edge">
<title>Node10&#45;&gt;Node11</title>
<g id="a_edge78_Node000010_Node000011"><a xlink:title=" ">
<path fill="none" stroke="#63b8ff" d="M816.25,-148.86C849.99,-150.55 889.86,-152.54 925.28,-154.31"/>
<polygon fill="#63b8ff" stroke="#63b8ff" points="925.46,-157.83 935.62,-154.83 925.81,-150.84 925.46,-157.83"/>
</a>
</g>
</g>
<!-- Node12 -->
<g id="Node000012" class="node">
<title>Node12</title>
<g id="a_Node000012"><a xlink:href="$classcom_1_1example_1_1mybookshelf_1_1notifications_1_1NotificationScheduler.html#aaf3ebda4b3bc3da4f2c4e8cabb4a3602" xlink:title=" ">
<polygon fill="white" stroke="#666666" points="1142,-126 898,-126 898,-96 1142,-96 1142,-126"/>
<text text-anchor="start" x="906" y="-114" font-family="Helvetica,sans-Serif" font-size="10.00">com.example.mybookshelf.notifications.</text>
<text text-anchor="middle" x="1020" y="-103" font-family="Helvetica,sans-Serif" font-size="10.00">NotificationScheduler.getDailyNotificationHour</text>
</a>
</g>
</g>
<!-- Node10&#45;&gt;Node12 -->
<g id="edge79_Node000010_Node000012" class="edge">
<title>Node10&#45;&gt;Node12</title>
<g id="a_edge79_Node000010_Node000012"><a xlink:title=" ">
<path fill="none" stroke="#63b8ff" d="M816.25,-135.62C838.45,-132.92 863.29,-129.91 887.78,-126.93"/>
<polygon fill="#63b8ff" stroke="#63b8ff" points="888.37,-130.39 897.87,-125.71 887.52,-123.44 888.37,-130.39"/>
</a>
</g>
</g>
<!-- Node13 -->
<g id="Node000013" class="node">
<title>Node13</title>
<g id="a_Node000013"><a xlink:href="$classcom_1_1example_1_1mybookshelf_1_1notifications_1_1NotificationScheduler.html#ad29a9938277c2a671b0399cdc84c7844" xlink:title=" ">
<polygon fill="white" stroke="#666666" points="1147,-78 893,-78 893,-48 1147,-48 1147,-78"/>
<text text-anchor="start" x="901" y="-66" font-family="Helvetica,sans-Serif" font-size="10.00">com.example.mybookshelf.notifications.</text>
<text text-anchor="middle" x="1020" y="-55" font-family="Helvetica,sans-Serif" font-size="10.00">NotificationScheduler.getDailyNotificationMinute</text>
</a>
</g>
</g>
<!-- Node10&#45;&gt;Node13 -->
<g id="edge80_Node000010_Node000013" class="edge">
<title>Node10&#45;&gt;Node13</title>
<g id="a_edge80_Node000010_Node000013"><a xlink:title=" ">
<path fill="none" stroke="#63b8ff" d="M773.9,-129.88C804.74,-117 851.2,-98.76 893,-87 901.66,-84.56 910.72,-82.3 919.84,-80.21"/>
<polygon fill="#63b8ff" stroke="#63b8ff" points="920.75,-83.6 929.75,-78.02 919.23,-76.76 920.75,-83.6"/>
</a>
</g>
</g>
<!-- Node14 -->
<g id="Node000014" class="node">
<title>Node14</title>
<g id="a_Node000014"><a xlink:href="$classcom_1_1example_1_1mybookshelf_1_1notifications_1_1NotificationScheduler.html#ac8a096801252bd85cf58f0b4ded28ebe" xlink:title=" ">
<polygon fill="white" stroke="#666666" points="1142,-30 898,-30 898,0 1142,0 1142,-30"/>
<text text-anchor="start" x="906" y="-18" font-family="Helvetica,sans-Serif" font-size="10.00">com.example.mybookshelf.notifications.</text>
<text text-anchor="middle" x="1020" y="-7" font-family="Helvetica,sans-Serif" font-size="10.00">NotificationScheduler.isDailyNotificationActive</text>
</a>
</g>
</g>
<!-- Node10&#45;&gt;Node14 -->
<g id="edge81_Node000010_Node000014" class="edge">
<title>Node10&#45;&gt;Node14</title>
<g id="a_edge81_Node000010_Node000014"><a xlink:title=" ">
<path fill="none" stroke="#63b8ff" d="M756.05,-129.64C783.05,-106.22 838.19,-61.89 893,-39 898.33,-36.77 903.88,-34.75 909.54,-32.92"/>
<polygon fill="#63b8ff" stroke="#63b8ff" points="910.6,-36.25 919.16,-30 908.57,-29.55 910.6,-36.25"/>
</a>
</g>
</g>
<!-- Node10&#45;&gt;Node15 -->
<g id="edge84_Node000010_Node000015" class="edge">
<title>Node10&#45;&gt;Node15</title>
<g id="a_edge84_Node000010_Node000015"><a xlink:title=" ">
<path fill="none" stroke="#63b8ff" d="M816.22,-151C830.7,-154.72 845.03,-160.4 857,-169 882.88,-187.58 867.5,-211.89 893,-231 905.13,-240.09 919.58,-246.54 934.3,-251.11"/>
<polygon fill="#63b8ff" stroke="#63b8ff" points="933.41,-254.5 943.99,-253.85 935.32,-247.76 933.41,-254.5"/>
</a>
</g>
</g>
<!-- Node26 -->
<g id="Node000026" class="node">
<title>Node26</title>
<g id="a_Node000026"><a xlink:href="$classcom_1_1example_1_1mybookshelf_1_1UIMaster.html#a5d06d53d8ef756629247fde0f557a3d1" xlink:title=" ">
<polygon fill="white" stroke="#666666" points="1096,-222 944,-222 944,-192 1096,-192 1096,-222"/>
<text text-anchor="start" x="952" y="-210" font-family="Helvetica,sans-Serif" font-size="10.00">com.example.mybookshelf.</text>
<text text-anchor="middle" x="1020" y="-199" font-family="Helvetica,sans-Serif" font-size="10.00">UIMaster.showLogin</text>
</a>
</g>
</g>
<!-- Node10&#45;&gt;Node26 -->
<g id="edge95_Node000010_Node000026" class="edge">
<title>Node10&#45;&gt;Node26</title>
<g id="a_edge95_Node000010_Node000026"><a xlink:title=" ">
<path fill="none" stroke="#63b8ff" d="M816.27,-158.75C829.94,-161.74 843.96,-165.17 857,-169 873.47,-173.84 876.5,-178.26 893,-183 906.09,-186.76 920.12,-190.09 933.88,-192.98"/>
<polygon fill="#63b8ff" stroke="#63b8ff" points="933.35,-196.45 943.85,-195.02 934.75,-189.59 933.35,-196.45"/>
</a>
</g>
</g>
<!-- Node16 -->
<g id="Node000016" class="node">
<title>Node16</title>
<g id="a_Node000016"><a xlink:href="$classcom_1_1example_1_1mybookshelf_1_1UIMaster.html#aeadc13ea946b279afce35c39bb36f3b6" xlink:title=" ">
<polygon fill="white" stroke="#666666" points="1353,-366 1201,-366 1201,-336 1353,-336 1353,-366"/>
<text text-anchor="start" x="1209" y="-354" font-family="Helvetica,sans-Serif" font-size="10.00">com.example.mybookshelf.</text>
<text text-anchor="middle" x="1277" y="-343" font-family="Helvetica,sans-Serif" font-size="10.00">UIMaster.initializeViews</text>
</a>
</g>
</g>
<!-- Node15&#45;&gt;Node16 -->
<g id="edge85_Node000015_Node000016" class="edge">
<title>Node15&#45;&gt;Node16</title>
<g id="a_edge85_Node000015_Node000016"><a xlink:title=" ">
<path fill="none" stroke="#63b8ff" d="M1096.33,-273.84C1113.62,-278.35 1131.47,-284.54 1147,-293 1166.32,-303.53 1163.74,-316.36 1183,-327 1186.26,-328.8 1189.65,-330.47 1193.14,-332.01"/>
<polygon fill="#63b8ff" stroke="#63b8ff" points="1191.96,-335.31 1202.54,-335.83 1194.59,-328.82 1191.96,-335.31"/>
</a>
</g>
</g>
<!-- Node17 -->
<g id="Node000017" class="node">
<title>Node17</title>
<g id="a_Node000017"><a xlink:href="$classcom_1_1example_1_1mybookshelf_1_1UIMaster.html#a5c502183bab9192d9f38b42a28be7164" xlink:title=" ">
<polygon fill="white" stroke="#666666" points="1358.5,-318 1195.5,-318 1195.5,-288 1358.5,-288 1358.5,-318"/>
<text text-anchor="start" x="1203.5" y="-306" font-family="Helvetica,sans-Serif" font-size="10.00">com.example.mybookshelf.</text>
<text text-anchor="middle" x="1277" y="-295" font-family="Helvetica,sans-Serif" font-size="10.00">UIMaster.loadChartDataAsync</text>
</a>
</g>
</g>
<!-- Node15&#45;&gt;Node17 -->
<g id="edge86_Node000015_Node000017" class="edge">
<title>Node15&#45;&gt;Node17</title>
<g id="a_edge86_Node000015_Node000017"><a xlink:title=" ">
<path fill="none" stroke="#63b8ff" d="M1096.13,-274.08C1123.99,-278.56 1155.89,-283.69 1185.01,-288.37"/>
<polygon fill="#63b8ff" stroke="#63b8ff" points="1184.76,-291.87 1195.19,-290.01 1185.87,-284.96 1184.76,-291.87"/>
</a>
</g>
</g>
<!-- Node25 -->
<g id="Node000025" class="node">
<title>Node25</title>
<g id="a_Node000025"><a xlink:href="$classcom_1_1example_1_1mybookshelf_1_1UIMaster.html#a3bb75047e98f0333fa2fdfd173bc80b0" xlink:title=" ">
<polygon fill="white" stroke="#666666" points="1371,-270 1183,-270 1183,-240 1371,-240 1371,-270"/>
<text text-anchor="start" x="1191" y="-258" font-family="Helvetica,sans-Serif" font-size="10.00">com.example.mybookshelf.</text>
<text text-anchor="middle" x="1277" y="-247" font-family="Helvetica,sans-Serif" font-size="10.00">UIMaster.setupNavigationListeners</text>
</a>
</g>
</g>
<!-- Node15&#45;&gt;Node25 -->
<g id="edge94_Node000015_Node000025" class="edge">
<title>Node15&#45;&gt;Node25</title>
<g id="a_edge94_Node000015_Node000025"><a xlink:title=" ">
<path fill="none" stroke="#63b8ff" d="M1096.13,-259.94C1120.12,-259.28 1147.11,-258.54 1172.74,-257.83"/>
<polygon fill="#63b8ff" stroke="#63b8ff" points="1172.97,-261.33 1182.87,-257.56 1172.78,-254.33 1172.97,-261.33"/>
</a>
</g>
</g>
<!-- Node18 -->
<g id="Node000018" class="node">
<title>Node18</title>
<g id="a_Node000018"><a xlink:href="$classcom_1_1example_1_1mybookshelf_1_1UIMaster.html#a1d0b44fba73323953ffbbf69f4f3f4cb" xlink:title=" ">
<polygon fill="white" stroke="#666666" points="1560.5,-342 1408.5,-342 1408.5,-312 1560.5,-312 1560.5,-342"/>
<text text-anchor="start" x="1416.5" y="-330" font-family="Helvetica,sans-Serif" font-size="10.00">com.example.mybookshelf.</text>
<text text-anchor="middle" x="1484.5" y="-319" font-family="Helvetica,sans-Serif" font-size="10.00">UIMaster.setupChart</text>
</a>
</g>
</g>
<!-- Node17&#45;&gt;Node18 -->
<g id="edge87_Node000017_Node000018" class="edge">
<title>Node17&#45;&gt;Node18</title>
<g id="a_edge87_Node000017_Node000018"><a xlink:title=" ">
<path fill="none" stroke="#63b8ff" d="M1358.63,-312.42C1371.71,-313.94 1385.3,-315.53 1398.48,-317.07"/>
<polygon fill="#63b8ff" stroke="#63b8ff" points="1398.13,-320.55 1408.47,-318.24 1398.94,-313.6 1398.13,-320.55"/>
</a>
</g>
</g>
<!-- Node24 -->
<g id="Node000024" class="node">
<title>Node24</title>
<g id="a_Node000024"><a xlink:href="$classcom_1_1example_1_1mybookshelf_1_1UIMaster.html#a3beb8f5e82c56206227f83e05d2e2dba" xlink:title=" ">
<polygon fill="white" stroke="#666666" points="1562,-294 1407,-294 1407,-264 1562,-264 1562,-294"/>
<text text-anchor="start" x="1415" y="-282" font-family="Helvetica,sans-Serif" font-size="10.00">com.example.mybookshelf.</text>
<text text-anchor="middle" x="1484.5" y="-271" font-family="Helvetica,sans-Serif" font-size="10.00">UIMaster.showErrorMessage</text>
</a>
</g>
</g>
<!-- Node17&#45;&gt;Node24 -->
<g id="edge93_Node000017_Node000024" class="edge">
<title>Node17&#45;&gt;Node24</title>
<g id="a_edge93_Node000017_Node000024"><a xlink:title=" ">
<path fill="none" stroke="#63b8ff" d="M1358.63,-293.58C1371.14,-292.12 1384.11,-290.61 1396.75,-289.13"/>
<polygon fill="#63b8ff" stroke="#63b8ff" points="1397.27,-292.59 1406.8,-287.96 1396.46,-285.64 1397.27,-292.59"/>
</a>
</g>
</g>
<!-- Node19 -->
<g id="Node000019" class="node">
<title>Node19</title>
<g id="a_Node000019"><a xlink:href="$classcom_1_1example_1_1mybookshelf_1_1UIMaster.html#a66cf6ce29c43e6db34be85ae9990c102" xlink:title=" ">
<polygon fill="white" stroke="#666666" points="1767,-438 1615,-438 1615,-408 1767,-408 1767,-438"/>
<text text-anchor="start" x="1623" y="-426" font-family="Helvetica,sans-Serif" font-size="10.00">com.example.mybookshelf.</text>
<text text-anchor="middle" x="1691" y="-415" font-family="Helvetica,sans-Serif" font-size="10.00">UIMaster.configureAxes</text>
</a>
</g>
</g>
<!-- Node18&#45;&gt;Node19 -->
<g id="edge88_Node000018_Node000019" class="edge">
<title>Node18&#45;&gt;Node19</title>
<g id="a_edge88_Node000018_Node000019"><a xlink:title=" ">
<path fill="none" stroke="#63b8ff" d="M1504.75,-342.01C1526.34,-358.19 1562.94,-383.67 1598,-399 1602.7,-401.06 1607.62,-402.97 1612.62,-404.74"/>
<polygon fill="#63b8ff" stroke="#63b8ff" points="1611.74,-408.13 1622.34,-407.97 1613.95,-401.49 1611.74,-408.13"/>
</a>
</g>
</g>
<!-- Node20 -->
<g id="Node000020" class="node">
<title>Node20</title>
<g id="a_Node000020"><a xlink:href="$classcom_1_1example_1_1mybookshelf_1_1UIMaster.html#ae589c66b6b1826db14cd0185e2453c12" xlink:title=" ">
<polygon fill="white" stroke="#666666" points="1767,-390 1615,-390 1615,-360 1767,-360 1767,-390"/>
<text text-anchor="start" x="1623" y="-378" font-family="Helvetica,sans-Serif" font-size="10.00">com.example.mybookshelf.</text>
<text text-anchor="middle" x="1691" y="-367" font-family="Helvetica,sans-Serif" font-size="10.00">UIMaster.configureChart</text>
</a>
</g>
</g>
<!-- Node18&#45;&gt;Node20 -->
<g id="edge89_Node000018_Node000020" class="edge">
<title>Node18&#45;&gt;Node20</title>
<g id="a_edge89_Node000018_Node000020"><a xlink:title=" ">
<path fill="none" stroke="#63b8ff" d="M1549.64,-342.06C1570.77,-347.01 1594.43,-352.57 1616.22,-357.68"/>
<polygon fill="#63b8ff" stroke="#63b8ff" points="1615.55,-361.12 1626.08,-360 1617.15,-354.31 1615.55,-361.12"/>
</a>
</g>
</g>
<!-- Node21 -->
<g id="Node000021" class="node">
<title>Node21</title>
<g id="a_Node000021"><a xlink:href="$classcom_1_1example_1_1mybookshelf_1_1UIMaster.html#a2f446043c1019868262b5e49ddb58609" xlink:title=" ">
<polygon fill="white" stroke="#666666" points="1780,-342 1602,-342 1602,-312 1780,-312 1780,-342"/>
<text text-anchor="start" x="1610" y="-330" font-family="Helvetica,sans-Serif" font-size="10.00">com.example.mybookshelf.</text>
<text text-anchor="middle" x="1691" y="-319" font-family="Helvetica,sans-Serif" font-size="10.00">UIMaster.convertMinutesToHours</text>
</a>
</g>
</g>
<!-- Node18&#45;&gt;Node21 -->
<g id="edge90_Node000018_Node000021" class="edge">
<title>Node18&#45;&gt;Node21</title>
<g id="a_edge90_Node000018_Node000021"><a xlink:title=" ">
<path fill="none" stroke="#63b8ff" d="M1560.78,-327C1570.77,-327 1581.13,-327 1591.45,-327"/>
<polygon fill="#63b8ff" stroke="#63b8ff" points="1591.73,-330.5 1601.73,-327 1591.73,-323.5 1591.73,-330.5"/>
</a>
</g>
</g>
<!-- Node22 -->
<g id="Node000022" class="node">
<title>Node22</title>
<g id="a_Node000022"><a xlink:href="$classcom_1_1example_1_1mybookshelf_1_1UIMaster.html#a5368b8b93b9216d91a256a2302ea04c8" xlink:title=" ">
<polygon fill="white" stroke="#666666" points="1784,-294 1598,-294 1598,-264 1784,-264 1784,-294"/>
<text text-anchor="start" x="1606" y="-282" font-family="Helvetica,sans-Serif" font-size="10.00">com.example.mybookshelf.</text>
<text text-anchor="middle" x="1691" y="-271" font-family="Helvetica,sans-Serif" font-size="10.00">UIMaster.displayTotalReadingTime</text>
</a>
</g>
</g>
<!-- Node18&#45;&gt;Node22 -->
<g id="edge91_Node000018_Node000022" class="edge">
<title>Node18&#45;&gt;Node22</title>
<g id="a_edge91_Node000018_Node000022"><a xlink:title=" ">
<path fill="none" stroke="#63b8ff" d="M1549.64,-311.94C1570.77,-306.99 1594.43,-301.43 1616.22,-296.32"/>
<polygon fill="#63b8ff" stroke="#63b8ff" points="1617.15,-299.69 1626.08,-294 1615.55,-292.88 1617.15,-299.69"/>
</a>
</g>
</g>
<!-- Node23 -->
<g id="Node000023" class="node">
<title>Node23</title>
<g id="a_Node000023"><a xlink:href="$classcom_1_1example_1_1mybookshelf_1_1UIMaster.html#a897a27ba41fe604acf9472257ad18685" xlink:title=" ">
<polygon fill="white" stroke="#666666" points="1767,-246 1615,-246 1615,-216 1767,-216 1767,-246"/>
<text text-anchor="start" x="1623" y="-234" font-family="Helvetica,sans-Serif" font-size="10.00">com.example.mybookshelf.</text>
<text text-anchor="middle" x="1691" y="-223" font-family="Helvetica,sans-Serif" font-size="10.00">UIMaster.filterValidEntries</text>
</a>
</g>
</g>
<!-- Node18&#45;&gt;Node23 -->
<g id="edge92_Node000018_Node000023" class="edge">
<title>Node18&#45;&gt;Node23</title>
<g id="a_edge92_Node000018_Node000023"><a xlink:title=" ">
<path fill="none" stroke="#63b8ff" d="M1546.1,-311.98C1551.71,-309.43 1557.11,-306.46 1562,-303 1583.77,-287.6 1575.86,-269.86 1598,-255 1600.44,-253.36 1602.99,-251.83 1605.61,-250.41"/>
<polygon fill="#63b8ff" stroke="#63b8ff" points="1607.33,-253.47 1614.81,-245.96 1604.28,-247.17 1607.33,-253.47"/>
</a>
</g>
</g>
<!-- Node27 -->
<g id="Node000027" class="node">
<title>Node27</title>
<g id="a_Node000027"><a xlink:href="$classcom_1_1example_1_1mybookshelf_1_1UIMaster.html#a5f5bae724e7f3d3de15486430b3bc8c1" xlink:title=" ">
<polygon fill="white" stroke="#666666" points="1353,-222 1201,-222 1201,-192 1353,-192 1353,-222"/>
<text text-anchor="start" x="1209" y="-210" font-family="Helvetica,sans-Serif" font-size="10.00">com.example.mybookshelf.</text>
<text text-anchor="middle" x="1277" y="-199" font-family="Helvetica,sans-Serif" font-size="10.00">UIMaster.showRegister</text>
</a>
</g>
</g>
<!-- Node26&#45;&gt;Node27 -->
<g id="edge96_Node000026_Node000027" class="edge">
<title>Node26&#45;&gt;Node27</title>
<g id="a_edge96_Node000026_Node000027"><a xlink:title=" ">
<path fill="none" stroke="#63b8ff" d="M1096.13,-200.78C1125.83,-200.14 1160.11,-200.08 1190.74,-200.59"/>
<polygon fill="#63b8ff" stroke="#63b8ff" points="1190.9,-204.09 1200.97,-200.79 1191.04,-197.1 1190.9,-204.09"/>
</a>
</g>
</g>
<!-- Node27&#45;&gt;Node26 -->
<g id="edge97_Node000027_Node000026" class="edge">
<title>Node27&#45;&gt;Node26</title>
<g id="a_edge97_Node000027_Node000026"><a xlink:title=" ">
<path fill="none" stroke="#63b8ff" d="M1200.97,-213.21C1171.28,-213.86 1136.99,-213.92 1106.36,-213.41"/>
<polygon fill="#63b8ff" stroke="#63b8ff" points="1106.19,-209.91 1096.13,-213.22 1106.06,-216.91 1106.19,-209.91"/>
</a>
</g>
</g>
</g>
</svg>
