<?xml version="1.0" encoding="UTF-8" standalone="no"?>
<!DOCTYPE svg PUBLIC "-//W3C//DTD SVG 1.1//EN"
 "http://www.w3.org/Graphics/SVG/1.1/DTD/svg11.dtd">
<!-- Generated by graphviz version 2.43.0 (0)
 -->
<!-- Title: /app/doc_state/github_reposRepoArchDocGenContext/EliasSchaffer/MyBookShelf/src/main/java/com/example/mybookshelf/LayoutManager/CostumeListAdapter.java Pages: 1 -->
<svg width="5672pt" height="148pt"
 viewBox="0.00 0.00 5671.50 148.00" xmlns="http://www.w3.org/2000/svg" xmlns:xlink="http://www.w3.org/1999/xlink">
<g id="graph0" class="graph" transform="scale(1 1) rotate(0) translate(4 144)">
<title>/app/doc_state/github_reposRepoArchDocGenContext/EliasSchaffer/MyBookShelf/src/main/java/com/example/mybookshelf/LayoutManager/CostumeListAdapter.java</title>
<!-- Node1 -->
<g id="Node000001" class="node">
<title>Node1</title>
<g id="a_Node000001"><a xlink:title=" ">
<polygon fill="#999999" stroke="#666666" points="2766,-140 2540,-140 2540,-66 2766,-66 2766,-140"/>
<text text-anchor="start" x="2548" y="-128" font-family="Helvetica,sans-Serif" font-size="10.00">/app/doc_state/github</text>
<text text-anchor="start" x="2548" y="-117" font-family="Helvetica,sans-Serif" font-size="10.00">_reposRepoArchDocGenContext</text>
<text text-anchor="start" x="2548" y="-106" font-family="Helvetica,sans-Serif" font-size="10.00">/EliasSchaffer/MyBookShelf</text>
<text text-anchor="start" x="2548" y="-95" font-family="Helvetica,sans-Serif" font-size="10.00">/src/main/java/com/example</text>
<text text-anchor="start" x="2548" y="-84" font-family="Helvetica,sans-Serif" font-size="10.00">/mybookshelf/LayoutManager/CostumeList</text>
<text text-anchor="middle" x="2653" y="-73" font-family="Helvetica,sans-Serif" font-size="10.00">Adapter.java</text>
</a>
</g>
</g>
<!-- Node2 -->
<g id="Node000002" class="node">
<title>Node2</title>
<g id="a_Node000002"><a xlink:title=" ">
<polygon fill="#e0e0e0" stroke="#999999" points="126,-24.5 0,-24.5 0,-5.5 126,-5.5 126,-24.5"/>
<text text-anchor="middle" x="63" y="-12.5" font-family="Helvetica,sans-Serif" font-size="10.00">android.graphics.Color</text>
</a>
</g>
</g>
<!-- Node1&#45;&gt;Node2 -->
<g id="edge73_Node000001_Node000002" class="edge">
<title>Node1&#45;&gt;Node2</title>
<g id="a_edge73_Node000001_Node000002"><a xlink:title=" ">
<path fill="none" stroke="#63b8ff" d="M2539.87,-101.22C2114.47,-97.92 610.83,-82.71 135,-30 127.08,-29.12 118.73,-27.84 110.63,-26.4"/>
<polygon fill="#63b8ff" stroke="#63b8ff" points="111.04,-22.91 100.56,-24.51 109.75,-29.79 111.04,-22.91"/>
</a>
</g>
</g>
<!-- Node3 -->
<g id="Node000003" class="node">
<title>Node3</title>
<g id="a_Node000003"><a xlink:title=" ">
<polygon fill="#e0e0e0" stroke="#999999" points="293.5,-30 144.5,-30 144.5,0 293.5,0 293.5,-30"/>
<text text-anchor="start" x="152.5" y="-18" font-family="Helvetica,sans-Serif" font-size="10.00">android.graphics.drawable.</text>
<text text-anchor="middle" x="219" y="-7" font-family="Helvetica,sans-Serif" font-size="10.00">GradientDrawable</text>
</a>
</g>
</g>
<!-- Node1&#45;&gt;Node3 -->
<g id="edge74_Node000001_Node000003" class="edge">
<title>Node1&#45;&gt;Node3</title>
<g id="a_edge74_Node000001_Node000003"><a xlink:title=" ">
<path fill="none" stroke="#63b8ff" d="M2539.81,-100.58C2135.74,-95.21 764.33,-74.15 303.64,-30.06"/>
<polygon fill="#63b8ff" stroke="#63b8ff" points="303.88,-26.56 293.59,-29.08 303.21,-33.53 303.88,-26.56"/>
</a>
</g>
</g>
<!-- Node4 -->
<g id="Node000004" class="node">
<title>Node4</title>
<g id="a_Node000004"><a xlink:title=" ">
<polygon fill="#e0e0e0" stroke="#999999" points="420.5,-24.5 311.5,-24.5 311.5,-5.5 420.5,-5.5 420.5,-24.5"/>
<text text-anchor="middle" x="366" y="-12.5" font-family="Helvetica,sans-Serif" font-size="10.00">android.os.Handler</text>
</a>
</g>
</g>
<!-- Node1&#45;&gt;Node4 -->
<g id="edge75_Node000001_Node000004" class="edge">
<title>Node1&#45;&gt;Node4</title>
<g id="a_edge75_Node000001_Node000004"><a xlink:title=" ">
<path fill="none" stroke="#63b8ff" d="M2539.85,-101.07C2147.17,-97.42 844.67,-81.63 430,-30 423.25,-29.16 416.16,-27.95 409.26,-26.58"/>
<polygon fill="#63b8ff" stroke="#63b8ff" points="409.85,-23.13 399.35,-24.5 408.42,-29.98 409.85,-23.13"/>
</a>
</g>
</g>
<!-- Node5 -->
<g id="Node000005" class="node">
<title>Node5</title>
<g id="a_Node000005"><a xlink:title=" ">
<polygon fill="#e0e0e0" stroke="#999999" points="543,-24.5 439,-24.5 439,-5.5 543,-5.5 543,-24.5"/>
<text text-anchor="middle" x="491" y="-12.5" font-family="Helvetica,sans-Serif" font-size="10.00">android.os.Looper</text>
</a>
</g>
</g>
<!-- Node1&#45;&gt;Node5 -->
<g id="edge76_Node000001_Node000005" class="edge">
<title>Node1&#45;&gt;Node5</title>
<g id="a_edge76_Node000001_Node000005"><a xlink:title=" ">
<path fill="none" stroke="#63b8ff" d="M2539.85,-100.98C2161.36,-97.1 941.49,-80.89 552,-30 545.71,-29.18 539.11,-28 532.68,-26.68"/>
<polygon fill="#63b8ff" stroke="#63b8ff" points="533.28,-23.23 522.77,-24.5 531.78,-30.06 533.28,-23.23"/>
</a>
</g>
</g>
<!-- Node6 -->
<g id="Node000006" class="node">
<title>Node6</title>
<g id="a_Node000006"><a xlink:title=" ">
<polygon fill="#e0e0e0" stroke="#999999" points="680.5,-24.5 561.5,-24.5 561.5,-5.5 680.5,-5.5 680.5,-24.5"/>
<text text-anchor="middle" x="621" y="-12.5" font-family="Helvetica,sans-Serif" font-size="10.00">android.text.Editable</text>
</a>
</g>
</g>
<!-- Node1&#45;&gt;Node6 -->
<g id="edge77_Node000001_Node000006" class="edge">
<title>Node1&#45;&gt;Node6</title>
<g id="a_edge77_Node000001_Node000006"><a xlink:title=" ">
<path fill="none" stroke="#63b8ff" d="M2539.82,-100.28C2177.99,-94.41 1051.92,-73.06 690,-30 682.66,-29.13 674.93,-27.88 667.41,-26.5"/>
<polygon fill="#63b8ff" stroke="#63b8ff" points="667.83,-23.01 657.35,-24.53 666.49,-29.88 667.83,-23.01"/>
</a>
</g>
</g>
<!-- Node7 -->
<g id="Node000007" class="node">
<title>Node7</title>
<g id="a_Node000007"><a xlink:title=" ">
<polygon fill="#e0e0e0" stroke="#999999" points="825,-24.5 699,-24.5 699,-5.5 825,-5.5 825,-24.5"/>
<text text-anchor="middle" x="762" y="-12.5" font-family="Helvetica,sans-Serif" font-size="10.00">android.text.InputType</text>
</a>
</g>
</g>
<!-- Node1&#45;&gt;Node7 -->
<g id="edge78_Node000001_Node000007" class="edge">
<title>Node1&#45;&gt;Node7</title>
<g id="a_edge78_Node000001_Node000007"><a xlink:title=" ">
<path fill="none" stroke="#63b8ff" d="M2539.76,-99.78C2195.84,-92.68 1166.76,-68.71 834,-30 826.17,-29.09 817.92,-27.8 809.91,-26.37"/>
<polygon fill="#63b8ff" stroke="#63b8ff" points="810.42,-22.9 799.94,-24.5 809.13,-29.79 810.42,-22.9"/>
</a>
</g>
</g>
<!-- Node8 -->
<g id="Node000008" class="node">
<title>Node8</title>
<g id="a_Node000008"><a xlink:title=" ">
<polygon fill="#e0e0e0" stroke="#999999" points="965,-24.5 843,-24.5 843,-5.5 965,-5.5 965,-24.5"/>
<text text-anchor="middle" x="904" y="-12.5" font-family="Helvetica,sans-Serif" font-size="10.00">android.text.TextUtils</text>
</a>
</g>
</g>
<!-- Node1&#45;&gt;Node8 -->
<g id="edge79_Node000001_Node000008" class="edge">
<title>Node1&#45;&gt;Node8</title>
<g id="a_edge79_Node000001_Node000008"><a xlink:title=" ">
<path fill="none" stroke="#63b8ff" d="M2539.89,-99.43C2214.23,-91.67 1278.32,-66.73 974,-30 966.56,-29.1 958.72,-27.85 951.1,-26.45"/>
<polygon fill="#63b8ff" stroke="#63b8ff" points="951.73,-23.01 941.25,-24.56 950.41,-29.88 951.73,-23.01"/>
</a>
</g>
</g>
<!-- Node9 -->
<g id="Node000009" class="node">
<title>Node9</title>
<g id="a_Node000009"><a xlink:title=" ">
<polygon fill="#e0e0e0" stroke="#999999" points="1122.5,-24.5 983.5,-24.5 983.5,-5.5 1122.5,-5.5 1122.5,-24.5"/>
<text text-anchor="middle" x="1053" y="-12.5" font-family="Helvetica,sans-Serif" font-size="10.00">android.text.TextWatcher</text>
</a>
</g>
</g>
<!-- Node1&#45;&gt;Node9 -->
<g id="edge80_Node000001_Node000009" class="edge">
<title>Node1&#45;&gt;Node9</title>
<g id="a_edge80_Node000001_Node000009"><a xlink:title=" ">
<path fill="none" stroke="#63b8ff" d="M2539.55,-101.59C2286.27,-99.58 1655.8,-88.57 1132,-30 1123.44,-29.04 1114.41,-27.73 1105.64,-26.29"/>
<polygon fill="#63b8ff" stroke="#63b8ff" points="1105.94,-22.8 1095.49,-24.56 1104.76,-29.7 1105.94,-22.8"/>
</a>
</g>
</g>
<!-- Node10 -->
<g id="Node000010" class="node">
<title>Node10</title>
<g id="a_Node000010"><a xlink:title=" ">
<polygon fill="#e0e0e0" stroke="#999999" points="1233,-24.5 1141,-24.5 1141,-5.5 1233,-5.5 1233,-24.5"/>
<text text-anchor="middle" x="1187" y="-12.5" font-family="Helvetica,sans-Serif" font-size="10.00">android.util.Log</text>
</a>
</g>
</g>
<!-- Node1&#45;&gt;Node10 -->
<g id="edge81_Node000001_Node000010" class="edge">
<title>Node1&#45;&gt;Node10</title>
<g id="a_edge81_Node000001_Node000010"><a xlink:title=" ">
<path fill="none" stroke="#63b8ff" d="M2539.82,-99.12C2250.92,-91.31 1491.42,-67.73 1242,-30 1236.84,-29.22 1231.45,-28.16 1226.16,-26.97"/>
<polygon fill="#63b8ff" stroke="#63b8ff" points="1226.72,-23.51 1216.18,-24.57 1225.08,-30.32 1226.72,-23.51"/>
</a>
</g>
</g>
<!-- Node11 -->
<g id="Node000011" class="node">
<title>Node11</title>
<g id="a_Node000011"><a xlink:title=" ">
<polygon fill="#e0e0e0" stroke="#999999" points="1369,-24.5 1251,-24.5 1251,-5.5 1369,-5.5 1369,-24.5"/>
<text text-anchor="middle" x="1310" y="-12.5" font-family="Helvetica,sans-Serif" font-size="10.00">android.view.Gravity</text>
</a>
</g>
</g>
<!-- Node1&#45;&gt;Node11 -->
<g id="edge82_Node000001_Node000011" class="edge">
<title>Node1&#45;&gt;Node11</title>
<g id="a_edge82_Node000001_Node000011"><a xlink:title=" ">
<path fill="none" stroke="#63b8ff" d="M2539.92,-101.17C2316.79,-98.3 1804.5,-85.64 1378,-30 1371.09,-29.1 1363.84,-27.89 1356.75,-26.56"/>
<polygon fill="#63b8ff" stroke="#63b8ff" points="1357.02,-23.05 1346.54,-24.55 1355.67,-29.92 1357.02,-23.05"/>
</a>
</g>
</g>
<!-- Node12 -->
<g id="Node000012" class="node">
<title>Node12</title>
<g id="a_Node000012"><a xlink:title=" ">
<polygon fill="#e0e0e0" stroke="#999999" points="1536.5,-24.5 1387.5,-24.5 1387.5,-5.5 1536.5,-5.5 1536.5,-24.5"/>
<text text-anchor="middle" x="1462" y="-12.5" font-family="Helvetica,sans-Serif" font-size="10.00">android.view.LayoutInflater</text>
</a>
</g>
</g>
<!-- Node1&#45;&gt;Node12 -->
<g id="edge83_Node000001_Node000012" class="edge">
<title>Node1&#45;&gt;Node12</title>
<g id="a_edge83_Node000001_Node000012"><a xlink:title=" ">
<path fill="none" stroke="#63b8ff" d="M2539.8,-98.47C2338.92,-91.34 1907.12,-72.19 1545,-30 1536.14,-28.97 1526.79,-27.63 1517.68,-26.2"/>
<polygon fill="#63b8ff" stroke="#63b8ff" points="1517.98,-22.7 1507.54,-24.54 1516.85,-29.61 1517.98,-22.7"/>
</a>
</g>
</g>
<!-- Node13 -->
<g id="Node000013" class="node">
<title>Node13</title>
<g id="a_Node000013"><a xlink:title=" ">
<polygon fill="#e0e0e0" stroke="#999999" points="1660,-24.5 1554,-24.5 1554,-5.5 1660,-5.5 1660,-24.5"/>
<text text-anchor="middle" x="1607" y="-12.5" font-family="Helvetica,sans-Serif" font-size="10.00">android.view.View</text>
</a>
</g>
</g>
<!-- Node1&#45;&gt;Node13 -->
<g id="edge84_Node000001_Node000013" class="edge">
<title>Node1&#45;&gt;Node13</title>
<g id="a_edge84_Node000001_Node000013"><a xlink:title=" ">
<path fill="none" stroke="#63b8ff" d="M2539.87,-99.2C2356.23,-93.42 1982.23,-76.56 1669,-30 1663.06,-29.12 1656.84,-27.98 1650.73,-26.73"/>
<polygon fill="#63b8ff" stroke="#63b8ff" points="1651.13,-23.23 1640.61,-24.55 1649.65,-30.08 1651.13,-23.23"/>
</a>
</g>
</g>
<!-- Node14 -->
<g id="Node000014" class="node">
<title>Node14</title>
<g id="a_Node000014"><a xlink:title=" ">
<polygon fill="#e0e0e0" stroke="#999999" points="1813.5,-24.5 1678.5,-24.5 1678.5,-5.5 1813.5,-5.5 1813.5,-24.5"/>
<text text-anchor="middle" x="1746" y="-12.5" font-family="Helvetica,sans-Serif" font-size="10.00">android.view.ViewGroup</text>
</a>
</g>
</g>
<!-- Node1&#45;&gt;Node14 -->
<g id="edge85_Node000001_Node000014" class="edge">
<title>Node1&#45;&gt;Node14</title>
<g id="a_edge85_Node000001_Node000014"><a xlink:title=" ">
<path fill="none" stroke="#63b8ff" d="M2539.72,-95.63C2379.42,-85.84 2077.44,-64.51 1822,-30 1814.33,-28.96 1806.27,-27.68 1798.37,-26.32"/>
<polygon fill="#63b8ff" stroke="#63b8ff" points="1798.95,-22.87 1788.49,-24.57 1797.73,-29.77 1798.95,-22.87"/>
</a>
</g>
</g>
<!-- Node15 -->
<g id="Node000015" class="node">
<title>Node15</title>
<g id="a_Node000015"><a xlink:title=" ">
<polygon fill="#e0e0e0" stroke="#999999" points="1962.5,-24.5 1831.5,-24.5 1831.5,-5.5 1962.5,-5.5 1962.5,-24.5"/>
<text text-anchor="middle" x="1897" y="-12.5" font-family="Helvetica,sans-Serif" font-size="10.00">android.widget.EditText</text>
</a>
</g>
</g>
<!-- Node1&#45;&gt;Node15 -->
<g id="edge86_Node000001_Node000015" class="edge">
<title>Node1&#45;&gt;Node15</title>
<g id="a_edge86_Node000001_Node000015"><a xlink:title=" ">
<path fill="none" stroke="#63b8ff" d="M2539.99,-92.81C2404.61,-81.17 2171.11,-59.06 1972,-30 1964.62,-28.92 1956.85,-27.64 1949.23,-26.3"/>
<polygon fill="#63b8ff" stroke="#63b8ff" points="1949.81,-22.85 1939.34,-24.51 1948.56,-29.73 1949.81,-22.85"/>
</a>
</g>
</g>
<!-- Node16 -->
<g id="Node000016" class="node">
<title>Node16</title>
<g id="a_Node000016"><a xlink:title=" ">
<polygon fill="#e0e0e0" stroke="#999999" points="2137,-24.5 1981,-24.5 1981,-5.5 2137,-5.5 2137,-24.5"/>
<text text-anchor="middle" x="2059" y="-12.5" font-family="Helvetica,sans-Serif" font-size="10.00">android.widget.FrameLayout</text>
</a>
</g>
</g>
<!-- Node1&#45;&gt;Node16 -->
<g id="edge87_Node000001_Node000016" class="edge">
<title>Node1&#45;&gt;Node16</title>
<g id="a_edge87_Node000001_Node000016"><a xlink:title=" ">
<path fill="none" stroke="#63b8ff" d="M2539.9,-86.55C2437.09,-72.36 2281.26,-50.49 2146,-30 2137.93,-28.78 2129.46,-27.46 2121.08,-26.13"/>
<polygon fill="#63b8ff" stroke="#63b8ff" points="2121.39,-22.64 2110.96,-24.52 2120.29,-29.55 2121.39,-22.64"/>
</a>
</g>
</g>
<!-- Node17 -->
<g id="Node000017" class="node">
<title>Node17</title>
<g id="a_Node000017"><a xlink:title=" ">
<polygon fill="#e0e0e0" stroke="#999999" points="2310.5,-24.5 2155.5,-24.5 2155.5,-5.5 2310.5,-5.5 2310.5,-24.5"/>
<text text-anchor="middle" x="2233" y="-12.5" font-family="Helvetica,sans-Serif" font-size="10.00">android.widget.ImageButton</text>
</a>
</g>
</g>
<!-- Node1&#45;&gt;Node17 -->
<g id="edge88_Node000001_Node000017" class="edge">
<title>Node1&#45;&gt;Node17</title>
<g id="a_edge88_Node000001_Node000017"><a xlink:title=" ">
<path fill="none" stroke="#63b8ff" d="M2539.9,-78.84C2456.93,-61.85 2348.11,-39.57 2284.83,-26.61"/>
<polygon fill="#63b8ff" stroke="#63b8ff" points="2285.2,-23.12 2274.7,-24.54 2283.8,-29.97 2285.2,-23.12"/>
</a>
</g>
</g>
<!-- Node18 -->
<g id="Node000018" class="node">
<title>Node18</title>
<g id="a_Node000018"><a xlink:title=" ">
<polygon fill="#e0e0e0" stroke="#999999" points="2475.5,-24.5 2328.5,-24.5 2328.5,-5.5 2475.5,-5.5 2475.5,-24.5"/>
<text text-anchor="middle" x="2402" y="-12.5" font-family="Helvetica,sans-Serif" font-size="10.00">android.widget.ImageView</text>
</a>
</g>
</g>
<!-- Node1&#45;&gt;Node18 -->
<g id="edge89_Node000001_Node000018" class="edge">
<title>Node1&#45;&gt;Node18</title>
<g id="a_edge89_Node000001_Node000018"><a xlink:title=" ">
<path fill="none" stroke="#63b8ff" d="M2547.64,-65.9C2507.8,-52.25 2465.18,-37.65 2436.4,-27.79"/>
<polygon fill="#63b8ff" stroke="#63b8ff" points="2437.43,-24.44 2426.83,-24.51 2435.16,-31.06 2437.43,-24.44"/>
</a>
</g>
</g>
<!-- Node19 -->
<g id="Node000019" class="node">
<title>Node19</title>
<g id="a_Node000019"><a xlink:title=" ">
<polygon fill="#e0e0e0" stroke="#999999" points="2648.5,-24.5 2493.5,-24.5 2493.5,-5.5 2648.5,-5.5 2648.5,-24.5"/>
<text text-anchor="middle" x="2571" y="-12.5" font-family="Helvetica,sans-Serif" font-size="10.00">android.widget.LinearLayout</text>
</a>
</g>
</g>
<!-- Node1&#45;&gt;Node19 -->
<g id="edge90_Node000001_Node000019" class="edge">
<title>Node1&#45;&gt;Node19</title>
<g id="a_edge90_Node000001_Node000019"><a xlink:title=" ">
<path fill="none" stroke="#63b8ff" d="M2618.22,-65.53C2607.15,-53.91 2595.46,-41.65 2586.48,-32.23"/>
<polygon fill="#63b8ff" stroke="#63b8ff" points="2588.8,-29.6 2579.37,-24.77 2583.73,-34.43 2588.8,-29.6"/>
</a>
</g>
</g>
<!-- Node20 -->
<g id="Node000020" class="node">
<title>Node20</title>
<g id="a_Node000020"><a xlink:title=" ">
<polygon fill="#e0e0e0" stroke="#999999" points="2803.5,-24.5 2666.5,-24.5 2666.5,-5.5 2803.5,-5.5 2803.5,-24.5"/>
<text text-anchor="middle" x="2735" y="-12.5" font-family="Helvetica,sans-Serif" font-size="10.00">android.widget.TextView</text>
</a>
</g>
</g>
<!-- Node1&#45;&gt;Node20 -->
<g id="edge91_Node000001_Node000020" class="edge">
<title>Node1&#45;&gt;Node20</title>
<g id="a_edge91_Node000001_Node000020"><a xlink:title=" ">
<path fill="none" stroke="#63b8ff" d="M2687.78,-65.53C2698.85,-53.91 2710.54,-41.65 2719.52,-32.23"/>
<polygon fill="#63b8ff" stroke="#63b8ff" points="2722.27,-34.43 2726.63,-24.77 2717.2,-29.6 2722.27,-34.43"/>
</a>
</g>
</g>
<!-- Node21 -->
<g id="Node000021" class="node">
<title>Node21</title>
<g id="a_Node000021"><a xlink:title=" ">
<polygon fill="#e0e0e0" stroke="#999999" points="2978.5,-24.5 2821.5,-24.5 2821.5,-5.5 2978.5,-5.5 2978.5,-24.5"/>
<text text-anchor="middle" x="2900" y="-12.5" font-family="Helvetica,sans-Serif" font-size="10.00">androidx.annotation.NonNull</text>
</a>
</g>
</g>
<!-- Node1&#45;&gt;Node21 -->
<g id="edge92_Node000001_Node000021" class="edge">
<title>Node1&#45;&gt;Node21</title>
<g id="a_edge92_Node000001_Node000021"><a xlink:title=" ">
<path fill="none" stroke="#63b8ff" d="M2756.68,-65.9C2795.71,-52.31 2837.46,-37.77 2865.77,-27.92"/>
<polygon fill="#63b8ff" stroke="#63b8ff" points="2867.27,-31.1 2875.56,-24.51 2864.97,-24.49 2867.27,-31.1"/>
</a>
</g>
</g>
<!-- Node22 -->
<g id="Node000022" class="node">
<title>Node22</title>
<g id="a_Node000022"><a xlink:title=" ">
<polygon fill="#e0e0e0" stroke="#999999" points="3159.5,-30 2996.5,-30 2996.5,0 3159.5,0 3159.5,-30"/>
<text text-anchor="start" x="3004.5" y="-18" font-family="Helvetica,sans-Serif" font-size="10.00">androidx.recyclerview.widget.</text>
<text text-anchor="middle" x="3078" y="-7" font-family="Helvetica,sans-Serif" font-size="10.00">DiffUtil</text>
</a>
</g>
</g>
<!-- Node1&#45;&gt;Node22 -->
<g id="edge93_Node000001_Node000022" class="edge">
<title>Node1&#45;&gt;Node22</title>
<g id="a_edge93_Node000001_Node000022"><a xlink:title=" ">
<path fill="none" stroke="#63b8ff" d="M2766.06,-79.12C2839.5,-64.26 2933.41,-45.26 2998.91,-32"/>
<polygon fill="#63b8ff" stroke="#63b8ff" points="2999.66,-35.42 3008.77,-30.01 2998.27,-28.56 2999.66,-35.42"/>
</a>
</g>
</g>
<!-- Node23 -->
<g id="Node000023" class="node">
<title>Node23</title>
<g id="a_Node000023"><a xlink:title=" ">
<polygon fill="#e0e0e0" stroke="#999999" points="3340.5,-30 3177.5,-30 3177.5,0 3340.5,0 3340.5,-30"/>
<text text-anchor="start" x="3185.5" y="-18" font-family="Helvetica,sans-Serif" font-size="10.00">androidx.recyclerview.widget.</text>
<text text-anchor="middle" x="3259" y="-7" font-family="Helvetica,sans-Serif" font-size="10.00">RecyclerView</text>
</a>
</g>
</g>
<!-- Node1&#45;&gt;Node23 -->
<g id="edge94_Node000001_Node000023" class="edge">
<title>Node1&#45;&gt;Node23</title>
<g id="a_edge94_Node000001_Node000023"><a xlink:title=" ">
<path fill="none" stroke="#63b8ff" d="M2766.06,-86.74C2868.31,-72.83 3023.26,-51.43 3167.19,-30.26"/>
<polygon fill="#63b8ff" stroke="#63b8ff" points="3167.71,-33.72 3177.09,-28.8 3166.69,-26.79 3167.71,-33.72"/>
</a>
</g>
</g>
<!-- Node24 -->
<g id="Node000024" class="node">
<title>Node24</title>
<g id="a_Node000024"><a xlink:title=" ">
<polygon fill="#e0e0e0" stroke="#999999" points="3503.5,-24.5 3358.5,-24.5 3358.5,-5.5 3503.5,-5.5 3503.5,-24.5"/>
<text text-anchor="middle" x="3431" y="-12.5" font-family="Helvetica,sans-Serif" font-size="10.00">com.bumptech.glide.Glide</text>
</a>
</g>
</g>
<!-- Node1&#45;&gt;Node24 -->
<g id="edge95_Node000001_Node000024" class="edge">
<title>Node1&#45;&gt;Node24</title>
<g id="a_edge95_Node000001_Node000024"><a xlink:title=" ">
<path fill="none" stroke="#63b8ff" d="M2766.16,-92.7C2904.29,-80.8 3144.83,-58.29 3350,-30 3358.04,-28.89 3366.51,-27.58 3374.81,-26.22"/>
<polygon fill="#63b8ff" stroke="#63b8ff" points="3375.54,-29.65 3384.82,-24.54 3374.38,-22.74 3375.54,-29.65"/>
</a>
</g>
</g>
<!-- Node25 -->
<g id="Node000025" class="node">
<title>Node25</title>
<g id="a_Node000025"><a xlink:title=" ">
<polygon fill="#e0e0e0" stroke="#999999" points="3700.5,-30 3521.5,-30 3521.5,0 3700.5,0 3700.5,-30"/>
<text text-anchor="start" x="3529.5" y="-18" font-family="Helvetica,sans-Serif" font-size="10.00">com.bumptech.glide.load.engine.</text>
<text text-anchor="middle" x="3611" y="-7" font-family="Helvetica,sans-Serif" font-size="10.00">DiskCacheStrategy</text>
</a>
</g>
</g>
<!-- Node1&#45;&gt;Node25 -->
<g id="edge96_Node000001_Node000025" class="edge">
<title>Node1&#45;&gt;Node25</title>
<g id="a_edge96_Node000001_Node000025"><a xlink:title=" ">
<path fill="none" stroke="#63b8ff" d="M2766.24,-94.63C2928.9,-83.58 3238.28,-60.79 3511.2,-30.17"/>
<polygon fill="#63b8ff" stroke="#63b8ff" points="3511.76,-33.63 3521.31,-29.03 3510.98,-26.67 3511.76,-33.63"/>
</a>
</g>
</g>
<!-- Node26 -->
<g id="Node000026" class="node">
<title>Node26</title>
<g id="a_Node000026"><a xlink:title=" ">
<polygon fill="#e0e0e0" stroke="#999999" points="3877.5,-30 3718.5,-30 3718.5,0 3877.5,0 3877.5,-30"/>
<text text-anchor="start" x="3726.5" y="-18" font-family="Helvetica,sans-Serif" font-size="10.00">com.bumptech.glide.request.</text>
<text text-anchor="middle" x="3798" y="-7" font-family="Helvetica,sans-Serif" font-size="10.00">RequestOptions</text>
</a>
</g>
</g>
<!-- Node1&#45;&gt;Node26 -->
<g id="edge97_Node000001_Node000026" class="edge">
<title>Node1&#45;&gt;Node26</title>
<g id="a_edge97_Node000001_Node000026"><a xlink:title=" ">
<path fill="none" stroke="#63b8ff" d="M2766.32,-97.62C2958.29,-89.47 3359.81,-69.21 3708.38,-30.12"/>
<polygon fill="#63b8ff" stroke="#63b8ff" points="3708.87,-33.59 3718.42,-28.99 3708.09,-26.63 3708.87,-33.59"/>
</a>
</g>
</g>
<!-- Node27 -->
<g id="Node000027" class="node">
<title>Node27</title>
<g id="a_Node000027"><a xlink:title=" ">
<polygon fill="#e0e0e0" stroke="#999999" points="4048,-30 3896,-30 3896,0 4048,0 4048,-30"/>
<text text-anchor="start" x="3904" y="-18" font-family="Helvetica,sans-Serif" font-size="10.00">com.example.mybookshelf.</text>
<text text-anchor="middle" x="3972" y="-7" font-family="Helvetica,sans-Serif" font-size="10.00">DataBaseConnection</text>
</a>
</g>
</g>
<!-- Node1&#45;&gt;Node27 -->
<g id="edge98_Node000001_Node000027" class="edge">
<title>Node1&#45;&gt;Node27</title>
<g id="a_edge98_Node000001_Node000027"><a xlink:title=" ">
<path fill="none" stroke="#63b8ff" d="M2766.05,-99.37C2981.91,-93.48 3467.72,-76.04 3885.43,-30.1"/>
<polygon fill="#63b8ff" stroke="#63b8ff" points="3886.04,-33.55 3895.6,-28.97 3885.27,-26.59 3886.04,-33.55"/>
</a>
</g>
</g>
<!-- Node28 -->
<g id="Node000028" class="node">
<title>Node28</title>
<g id="a_Node000028"><a xlink:title=" ">
<polygon fill="#e0e0e0" stroke="#999999" points="4218,-30 4066,-30 4066,0 4218,0 4218,-30"/>
<text text-anchor="start" x="4074" y="-18" font-family="Helvetica,sans-Serif" font-size="10.00">com.example.mybookshelf.</text>
<text text-anchor="middle" x="4142" y="-7" font-family="Helvetica,sans-Serif" font-size="10.00">MainActivity</text>
</a>
</g>
</g>
<!-- Node1&#45;&gt;Node28 -->
<g id="edge99_Node000001_Node000028" class="edge">
<title>Node1&#45;&gt;Node28</title>
<g id="a_edge99_Node000001_Node000028"><a xlink:title=" ">
<path fill="none" stroke="#63b8ff" d="M2766.17,-100.49C3003.59,-96.39 3571.12,-81.67 4055.61,-30.07"/>
<polygon fill="#63b8ff" stroke="#63b8ff" points="4056.03,-33.54 4065.6,-29 4055.28,-26.58 4056.03,-33.54"/>
</a>
</g>
</g>
<!-- Node29 -->
<g id="Node000029" class="node">
<title>Node29</title>
<g id="a_Node000029"><a xlink:title=" ">
<polygon fill="#e0e0e0" stroke="#999999" points="4395.5,-24.5 4236.5,-24.5 4236.5,-5.5 4395.5,-5.5 4395.5,-24.5"/>
<text text-anchor="middle" x="4316" y="-12.5" font-family="Helvetica,sans-Serif" font-size="10.00">com.example.mybookshelf.R</text>
</a>
</g>
</g>
<!-- Node1&#45;&gt;Node29 -->
<g id="edge100_Node000001_Node000029" class="edge">
<title>Node1&#45;&gt;Node29</title>
<g id="a_edge100_Node000001_Node000029"><a xlink:title=" ">
<path fill="none" stroke="#63b8ff" d="M2766.4,-101.1C3025.71,-98.1 3681.66,-85.19 4227,-30 4237.04,-28.98 4247.67,-27.59 4257.95,-26.08"/>
<polygon fill="#63b8ff" stroke="#63b8ff" points="4258.73,-29.5 4268.09,-24.53 4257.68,-22.58 4258.73,-29.5"/>
</a>
</g>
</g>
<!-- Node30 -->
<g id="Node000030" class="node">
<title>Node30</title>
<g id="a_Node000030"><a xlink:title=" ">
<polygon fill="#e0e0e0" stroke="#999999" points="4566,-30 4414,-30 4414,0 4566,0 4566,-30"/>
<text text-anchor="start" x="4422" y="-18" font-family="Helvetica,sans-Serif" font-size="10.00">com.example.mybookshelf.</text>
<text text-anchor="middle" x="4490" y="-7" font-family="Helvetica,sans-Serif" font-size="10.00">UIMaster</text>
</a>
</g>
</g>
<!-- Node1&#45;&gt;Node30 -->
<g id="edge101_Node000001_Node000030" class="edge">
<title>Node1&#45;&gt;Node30</title>
<g id="a_edge101_Node000001_Node000030"><a xlink:title=" ">
<path fill="none" stroke="#63b8ff" d="M2766.07,-102.13C3043.64,-101.41 3780.75,-93.26 4403.52,-30.06"/>
<polygon fill="#63b8ff" stroke="#63b8ff" points="4404.01,-33.53 4413.6,-29.03 4403.3,-26.57 4404.01,-33.53"/>
</a>
</g>
</g>
<!-- Node31 -->
<g id="Node000031" class="node">
<title>Node31</title>
<g id="a_Node000031"><a xlink:title=" ">
<polygon fill="#e0e0e0" stroke="#999999" points="4758,-30 4584,-30 4584,0 4758,0 4758,-30"/>
<text text-anchor="start" x="4592" y="-18" font-family="Helvetica,sans-Serif" font-size="10.00">com.example.mybookshelf.data</text>
<text text-anchor="middle" x="4671" y="-7" font-family="Helvetica,sans-Serif" font-size="10.00">Class.Book</text>
</a>
</g>
</g>
<!-- Node1&#45;&gt;Node31 -->
<g id="edge102_Node000001_Node000031" class="edge">
<title>Node1&#45;&gt;Node31</title>
<g id="a_edge102_Node000001_Node000031"><a xlink:title=" ">
<path fill="none" stroke="#63b8ff" d="M2766.19,-102C3061.93,-101.07 3882.14,-92.66 4573.76,-30.04"/>
<polygon fill="#63b8ff" stroke="#63b8ff" points="4574.29,-33.51 4583.93,-29.11 4573.65,-26.54 4574.29,-33.51"/>
</a>
</g>
</g>
<!-- Node32 -->
<g id="Node000032" class="node">
<title>Node32</title>
<g id="a_Node000032"><a xlink:title=" ">
<polygon fill="#e0e0e0" stroke="#999999" points="4950,-30 4776,-30 4776,0 4950,0 4950,-30"/>
<text text-anchor="start" x="4784" y="-18" font-family="Helvetica,sans-Serif" font-size="10.00">com.example.mybookshelf.data</text>
<text text-anchor="middle" x="4863" y="-7" font-family="Helvetica,sans-Serif" font-size="10.00">Class.User</text>
</a>
</g>
</g>
<!-- Node1&#45;&gt;Node32 -->
<g id="edge103_Node000001_Node000032" class="edge">
<title>Node1&#45;&gt;Node32</title>
<g id="a_edge103_Node000001_Node000032"><a xlink:title=" ">
<path fill="none" stroke="#63b8ff" d="M2766.14,-102.55C3081.43,-103.13 3996.76,-98.38 4765.75,-30.04"/>
<polygon fill="#63b8ff" stroke="#63b8ff" points="4766.28,-33.5 4775.93,-29.13 4765.66,-26.53 4766.28,-33.5"/>
</a>
</g>
</g>
<!-- Node33 -->
<g id="Node000033" class="node">
<title>Node33</title>
<g id="a_Node000033"><a xlink:title=" ">
<polygon fill="#e0e0e0" stroke="#999999" points="5093.5,-24.5 4968.5,-24.5 4968.5,-5.5 5093.5,-5.5 5093.5,-24.5"/>
<text text-anchor="middle" x="5031" y="-12.5" font-family="Helvetica,sans-Serif" font-size="10.00">java.sql.SQLException</text>
</a>
</g>
</g>
<!-- Node1&#45;&gt;Node33 -->
<g id="edge104_Node000001_Node000033" class="edge">
<title>Node1&#45;&gt;Node33</title>
<g id="a_edge104_Node000001_Node000033"><a xlink:title=" ">
<path fill="none" stroke="#63b8ff" d="M2766.14,-100.88C3168.16,-96.52 4526.74,-78.45 4959,-30 4966.83,-29.12 4975.08,-27.85 4983.09,-26.43"/>
<polygon fill="#63b8ff" stroke="#63b8ff" points="4983.88,-29.84 4993.06,-24.56 4982.59,-22.96 4983.88,-29.84"/>
</a>
</g>
</g>
<!-- Node34 -->
<g id="Node000034" class="node">
<title>Node34</title>
<g id="a_Node000034"><a xlink:title=" ">
<polygon fill="#e0e0e0" stroke="#999999" points="5214.5,-24.5 5111.5,-24.5 5111.5,-5.5 5214.5,-5.5 5214.5,-24.5"/>
<text text-anchor="middle" x="5163" y="-12.5" font-family="Helvetica,sans-Serif" font-size="10.00">java.util.ArrayList</text>
</a>
</g>
</g>
<!-- Node1&#45;&gt;Node34 -->
<g id="edge105_Node000001_Node000034" class="edge">
<title>Node1&#45;&gt;Node34</title>
<g id="a_edge105_Node000001_Node000034"><a xlink:title=" ">
<path fill="none" stroke="#63b8ff" d="M2766.35,-101.67C3184.81,-100 4642.25,-89.91 5103,-30 5109.05,-29.21 5115.38,-28.08 5121.56,-26.8"/>
<polygon fill="#63b8ff" stroke="#63b8ff" points="5122.76,-30.12 5131.77,-24.53 5121.24,-23.29 5122.76,-30.12"/>
</a>
</g>
</g>
<!-- Node35 -->
<g id="Node000035" class="node">
<title>Node35</title>
<g id="a_Node000035"><a xlink:title=" ">
<polygon fill="#e0e0e0" stroke="#999999" points="5309.5,-24.5 5232.5,-24.5 5232.5,-5.5 5309.5,-5.5 5309.5,-24.5"/>
<text text-anchor="middle" x="5271" y="-12.5" font-family="Helvetica,sans-Serif" font-size="10.00">java.util.List</text>
</a>
</g>
</g>
<!-- Node1&#45;&gt;Node35 -->
<g id="edge106_Node000001_Node000035" class="edge">
<title>Node1&#45;&gt;Node35</title>
<g id="a_edge106_Node000001_Node000035"><a xlink:title=" ">
<path fill="none" stroke="#63b8ff" d="M2766.01,-100.57C3230.51,-94.48 4979.64,-69.12 5224,-30 5228.16,-29.33 5232.47,-28.4 5236.72,-27.33"/>
<polygon fill="#63b8ff" stroke="#63b8ff" points="5237.7,-30.69 5246.4,-24.64 5235.83,-23.95 5237.7,-30.69"/>
</a>
</g>
</g>
<!-- Node36 -->
<g id="Node000036" class="node">
<title>Node36</title>
<g id="a_Node000036"><a xlink:title=" ">
<polygon fill="#e0e0e0" stroke="#999999" points="5484,-30 5328,-30 5328,0 5484,0 5484,-30"/>
<text text-anchor="start" x="5336" y="-18" font-family="Helvetica,sans-Serif" font-size="10.00">java.util.concurrent.Executor</text>
<text text-anchor="middle" x="5406" y="-7" font-family="Helvetica,sans-Serif" font-size="10.00">Service</text>
</a>
</g>
</g>
<!-- Node1&#45;&gt;Node36 -->
<g id="edge107_Node000001_Node000036" class="edge">
<title>Node1&#45;&gt;Node36</title>
<g id="a_edge107_Node000001_Node000036"><a xlink:title=" ">
<path fill="none" stroke="#63b8ff" d="M2766.25,-100.94C3204.56,-96.55 4790.79,-77.69 5317.46,-30.04"/>
<polygon fill="#63b8ff" stroke="#63b8ff" points="5318.17,-33.49 5327.81,-29.08 5317.53,-26.52 5318.17,-33.49"/>
</a>
</g>
</g>
<!-- Node37 -->
<g id="Node000037" class="node">
<title>Node37</title>
<g id="a_Node000037"><a xlink:title=" ">
<polygon fill="#e0e0e0" stroke="#999999" points="5663.5,-24.5 5502.5,-24.5 5502.5,-5.5 5663.5,-5.5 5663.5,-24.5"/>
<text text-anchor="middle" x="5583" y="-12.5" font-family="Helvetica,sans-Serif" font-size="10.00">java.util.concurrent.Executors</text>
</a>
</g>
</g>
<!-- Node1&#45;&gt;Node37 -->
<g id="edge108_Node000001_Node000037" class="edge">
<title>Node1&#45;&gt;Node37</title>
<g id="a_edge108_Node000001_Node000037"><a xlink:title=" ">
<path fill="none" stroke="#63b8ff" d="M2766.13,-101.08C3225.13,-97.06 4949.74,-78.93 5493,-30 5503.5,-29.05 5514.64,-27.65 5525.37,-26.09"/>
<polygon fill="#63b8ff" stroke="#63b8ff" points="5526.13,-29.52 5535.5,-24.56 5525.09,-22.6 5526.13,-29.52"/>
</a>
</g>
</g>
</g>
</svg>
