<?xml version="1.0" encoding="UTF-8" standalone="no"?>
<!DOCTYPE svg PUBLIC "-//W3C//DTD SVG 1.1//EN"
 "http://www.w3.org/Graphics/SVG/1.1/DTD/svg11.dtd">
<!-- Generated by graphviz version 2.43.0 (0)
 -->
<!-- Title: /app/doc_state/github_reposRepoArchDocGenContext/EliasSchaffer/MyBookShelf/src/main/java/com/example/mybookshelf/MainActivity.java Pages: 1 -->
<svg width="6199pt" height="137pt"
 viewBox="0.00 0.00 6199.00 137.00" xmlns="http://www.w3.org/2000/svg" xmlns:xlink="http://www.w3.org/1999/xlink">
<g id="graph0" class="graph" transform="scale(1 1) rotate(0) translate(4 133)">
<title>/app/doc_state/github_reposRepoArchDocGenContext/EliasSchaffer/MyBookShelf/src/main/java/com/example/mybookshelf/MainActivity.java</title>
<!-- Node1 -->
<g id="Node000001" class="node">
<title>Node1</title>
<g id="a_Node000001"><a xlink:title=" ">
<polygon fill="#999999" stroke="#666666" points="3051.5,-129 2879.5,-129 2879.5,-66 3051.5,-66 3051.5,-129"/>
<text text-anchor="start" x="2887.5" y="-117" font-family="Helvetica,sans-Serif" font-size="10.00">/app/doc_state/github</text>
<text text-anchor="start" x="2887.5" y="-106" font-family="Helvetica,sans-Serif" font-size="10.00">_reposRepoArchDocGenContext</text>
<text text-anchor="start" x="2887.5" y="-95" font-family="Helvetica,sans-Serif" font-size="10.00">/EliasSchaffer/MyBookShelf</text>
<text text-anchor="start" x="2887.5" y="-84" font-family="Helvetica,sans-Serif" font-size="10.00">/src/main/java/com/example</text>
<text text-anchor="middle" x="2965.5" y="-73" font-family="Helvetica,sans-Serif" font-size="10.00">/mybookshelf/MainActivity.java</text>
</a>
</g>
</g>
<!-- Node2 -->
<g id="Node000002" class="node">
<title>Node2</title>
<g id="a_Node000002"><a xlink:title=" ">
<polygon fill="#e0e0e0" stroke="#999999" points="99,-24.5 0,-24.5 0,-5.5 99,-5.5 99,-24.5"/>
<text text-anchor="middle" x="49.5" y="-12.5" font-family="Helvetica,sans-Serif" font-size="10.00">android.Manifest</text>
</a>
</g>
</g>
<!-- Node1&#45;&gt;Node2 -->
<g id="edge81_Node000001_Node000002" class="edge">
<title>Node1&#45;&gt;Node2</title>
<g id="a_edge81_Node000001_Node000002"><a xlink:title=" ">
<path fill="none" stroke="#63b8ff" d="M2879.38,-95.59C2432.5,-90.73 387.78,-66.66 107.5,-30 101.58,-29.23 95.38,-28.09 89.33,-26.79"/>
<polygon fill="#63b8ff" stroke="#63b8ff" points="89.9,-23.33 79.37,-24.5 88.33,-30.16 89.9,-23.33"/>
</a>
</g>
</g>
<!-- Node3 -->
<g id="Node000003" class="node">
<title>Node3</title>
<g id="a_Node000003"><a xlink:title=" ">
<polygon fill="#e0e0e0" stroke="#999999" points="266,-24.5 117,-24.5 117,-5.5 266,-5.5 266,-24.5"/>
<text text-anchor="middle" x="191.5" y="-12.5" font-family="Helvetica,sans-Serif" font-size="10.00">android.app.AlarmManager</text>
</a>
</g>
</g>
<!-- Node1&#45;&gt;Node3 -->
<g id="edge82_Node000001_Node000003" class="edge">
<title>Node1&#45;&gt;Node3</title>
<g id="a_edge82_Node000001_Node000003"><a xlink:title=" ">
<path fill="none" stroke="#63b8ff" d="M2879.4,-96C2479.24,-93.43 798.54,-79.8 275.5,-30 265.78,-29.07 255.48,-27.69 245.55,-26.16"/>
<polygon fill="#63b8ff" stroke="#63b8ff" points="245.81,-22.65 235.38,-24.51 244.69,-29.56 245.81,-22.65"/>
</a>
</g>
</g>
<!-- Node4 -->
<g id="Node000004" class="node">
<title>Node4</title>
<g id="a_Node000004"><a xlink:title=" ">
<polygon fill="#e0e0e0" stroke="#999999" points="418.5,-30 284.5,-30 284.5,0 418.5,0 418.5,-30"/>
<text text-anchor="start" x="292.5" y="-18" font-family="Helvetica,sans-Serif" font-size="10.00">android.app.Notification</text>
<text text-anchor="middle" x="351.5" y="-7" font-family="Helvetica,sans-Serif" font-size="10.00">Channel</text>
</a>
</g>
</g>
<!-- Node1&#45;&gt;Node4 -->
<g id="edge83_Node000001_Node000004" class="edge">
<title>Node1&#45;&gt;Node4</title>
<g id="a_edge83_Node000001_Node000004"><a xlink:title=" ">
<path fill="none" stroke="#63b8ff" d="M2879.46,-96.05C2495.95,-93.76 939.2,-81.5 428.58,-29.97"/>
<polygon fill="#63b8ff" stroke="#63b8ff" points="428.86,-26.48 418.55,-28.94 428.14,-33.44 428.86,-26.48"/>
</a>
</g>
</g>
<!-- Node5 -->
<g id="Node000005" class="node">
<title>Node5</title>
<g id="a_Node000005"><a xlink:title=" ">
<polygon fill="#e0e0e0" stroke="#999999" points="570.5,-30 436.5,-30 436.5,0 570.5,0 570.5,-30"/>
<text text-anchor="start" x="444.5" y="-18" font-family="Helvetica,sans-Serif" font-size="10.00">android.app.Notification</text>
<text text-anchor="middle" x="503.5" y="-7" font-family="Helvetica,sans-Serif" font-size="10.00">Manager</text>
</a>
</g>
</g>
<!-- Node1&#45;&gt;Node5 -->
<g id="edge84_Node000001_Node000005" class="edge">
<title>Node1&#45;&gt;Node5</title>
<g id="a_edge84_Node000001_Node000005"><a xlink:title=" ">
<path fill="none" stroke="#63b8ff" d="M2879.37,-95.88C2510.28,-92.96 1059.62,-78.63 580.65,-29.98"/>
<polygon fill="#63b8ff" stroke="#63b8ff" points="580.86,-26.48 570.56,-28.93 580.14,-33.44 580.86,-26.48"/>
</a>
</g>
</g>
<!-- Node6 -->
<g id="Node000006" class="node">
<title>Node6</title>
<g id="a_Node000006"><a xlink:title=" ">
<polygon fill="#e0e0e0" stroke="#999999" points="722.5,-24.5 588.5,-24.5 588.5,-5.5 722.5,-5.5 722.5,-24.5"/>
<text text-anchor="middle" x="655.5" y="-12.5" font-family="Helvetica,sans-Serif" font-size="10.00">android.content.Context</text>
</a>
</g>
</g>
<!-- Node1&#45;&gt;Node6 -->
<g id="edge85_Node000001_Node000006" class="edge">
<title>Node1&#45;&gt;Node6</title>
<g id="a_edge85_Node000001_Node000006"><a xlink:title=" ">
<path fill="none" stroke="#63b8ff" d="M2879.21,-95.69C2522.19,-92.07 1159.3,-75.5 731.5,-30 723.06,-29.1 714.15,-27.79 705.52,-26.33"/>
<polygon fill="#63b8ff" stroke="#63b8ff" points="706.02,-22.87 695.56,-24.56 704.8,-29.76 706.02,-22.87"/>
</a>
</g>
</g>
<!-- Node7 -->
<g id="Node000007" class="node">
<title>Node7</title>
<g id="a_Node000007"><a xlink:title=" ">
<polygon fill="#e0e0e0" stroke="#999999" points="866,-24.5 741,-24.5 741,-5.5 866,-5.5 866,-24.5"/>
<text text-anchor="middle" x="803.5" y="-12.5" font-family="Helvetica,sans-Serif" font-size="10.00">android.content.Intent</text>
</a>
</g>
</g>
<!-- Node1&#45;&gt;Node7 -->
<g id="edge86_Node000001_Node000007" class="edge">
<title>Node1&#45;&gt;Node7</title>
<g id="a_edge86_Node000001_Node000007"><a xlink:title=" ">
<path fill="none" stroke="#63b8ff" d="M2879.27,-95.63C2536.85,-91.89 1272.48,-75.26 874.5,-30 866.78,-29.12 858.64,-27.85 850.74,-26.43"/>
<polygon fill="#63b8ff" stroke="#63b8ff" points="851.38,-22.99 840.91,-24.56 850.08,-29.86 851.38,-22.99"/>
</a>
</g>
</g>
<!-- Node8 -->
<g id="Node000008" class="node">
<title>Node8</title>
<g id="a_Node000008"><a xlink:title=" ">
<polygon fill="#e0e0e0" stroke="#999999" points="1039,-30 884,-30 884,0 1039,0 1039,-30"/>
<text text-anchor="start" x="892" y="-18" font-family="Helvetica,sans-Serif" font-size="10.00">android.content.pm.Package</text>
<text text-anchor="middle" x="961.5" y="-7" font-family="Helvetica,sans-Serif" font-size="10.00">Manager</text>
</a>
</g>
</g>
<!-- Node1&#45;&gt;Node8 -->
<g id="edge87_Node000001_Node000008" class="edge">
<title>Node1&#45;&gt;Node8</title>
<g id="a_edge87_Node000001_Node000008"><a xlink:title=" ">
<path fill="none" stroke="#63b8ff" d="M2879.36,-94.97C2558.29,-89.03 1430.55,-66.1 1049.22,-30.07"/>
<polygon fill="#63b8ff" stroke="#63b8ff" points="1049.55,-26.59 1039.26,-29.11 1048.88,-33.56 1049.55,-26.59"/>
</a>
</g>
</g>
<!-- Node9 -->
<g id="Node000009" class="node">
<title>Node9</title>
<g id="a_Node000009"><a xlink:title=" ">
<polygon fill="#e0e0e0" stroke="#999999" points="1152,-24.5 1057,-24.5 1057,-5.5 1152,-5.5 1152,-24.5"/>
<text text-anchor="middle" x="1104.5" y="-12.5" font-family="Helvetica,sans-Serif" font-size="10.00">android.os.Build</text>
</a>
</g>
</g>
<!-- Node1&#45;&gt;Node9 -->
<g id="edge88_Node000001_Node000009" class="edge">
<title>Node1&#45;&gt;Node9</title>
<g id="a_edge88_Node000001_Node000009"><a xlink:title=" ">
<path fill="none" stroke="#63b8ff" d="M2879.35,-95.65C2567.67,-92.22 1499.44,-77.23 1161.5,-30 1155.95,-29.22 1150.15,-28.14 1144.47,-26.9"/>
<polygon fill="#63b8ff" stroke="#63b8ff" points="1144.98,-23.43 1134.45,-24.57 1143.4,-30.25 1144.98,-23.43"/>
</a>
</g>
</g>
<!-- Node10 -->
<g id="Node000010" class="node">
<title>Node10</title>
<g id="a_Node000010"><a xlink:title=" ">
<polygon fill="#e0e0e0" stroke="#999999" points="1274.5,-24.5 1170.5,-24.5 1170.5,-5.5 1274.5,-5.5 1274.5,-24.5"/>
<text text-anchor="middle" x="1222.5" y="-12.5" font-family="Helvetica,sans-Serif" font-size="10.00">android.os.Bundle</text>
</a>
</g>
</g>
<!-- Node1&#45;&gt;Node10 -->
<g id="edge89_Node000001_Node000010" class="edge">
<title>Node1&#45;&gt;Node10</title>
<g id="a_edge89_Node000001_Node000010"><a xlink:title=" ">
<path fill="none" stroke="#63b8ff" d="M2879.35,-95.21C2581.55,-90.43 1596.81,-71.78 1283.5,-30 1277.28,-29.17 1270.76,-28 1264.4,-26.69"/>
<polygon fill="#63b8ff" stroke="#63b8ff" points="1265.1,-23.26 1254.59,-24.54 1263.6,-30.1 1265.1,-23.26"/>
</a>
</g>
</g>
<!-- Node11 -->
<g id="Node000011" class="node">
<title>Node11</title>
<g id="a_Node000011"><a xlink:title=" ">
<polygon fill="#e0e0e0" stroke="#999999" points="1432,-24.5 1293,-24.5 1293,-5.5 1432,-5.5 1432,-24.5"/>
<text text-anchor="middle" x="1362.5" y="-12.5" font-family="Helvetica,sans-Serif" font-size="10.00">android.provider.Settings</text>
</a>
</g>
</g>
<!-- Node1&#45;&gt;Node11 -->
<g id="edge90_Node000001_Node000011" class="edge">
<title>Node1&#45;&gt;Node11</title>
<g id="a_edge90_Node000001_Node000011"><a xlink:title=" ">
<path fill="none" stroke="#63b8ff" d="M2879.26,-96.71C2646.53,-96.41 1986.43,-89.91 1441.5,-30 1432.75,-29.04 1423.5,-27.7 1414.54,-26.22"/>
<polygon fill="#63b8ff" stroke="#63b8ff" points="1415.03,-22.76 1404.58,-24.52 1413.85,-29.66 1415.03,-22.76"/>
</a>
</g>
</g>
<!-- Node12 -->
<g id="Node000012" class="node">
<title>Node12</title>
<g id="a_Node000012"><a xlink:title=" ">
<polygon fill="#e0e0e0" stroke="#999999" points="1572.5,-24.5 1450.5,-24.5 1450.5,-5.5 1572.5,-5.5 1572.5,-24.5"/>
<text text-anchor="middle" x="1511.5" y="-12.5" font-family="Helvetica,sans-Serif" font-size="10.00">android.text.TextUtils</text>
</a>
</g>
</g>
<!-- Node1&#45;&gt;Node12 -->
<g id="edge91_Node000001_Node000012" class="edge">
<title>Node1&#45;&gt;Node12</title>
<g id="a_edge91_Node000001_Node000012"><a xlink:title=" ">
<path fill="none" stroke="#63b8ff" d="M2879.28,-96.82C2661.11,-96.66 2069.74,-90.21 1581.5,-30 1574.06,-29.08 1566.23,-27.82 1558.6,-26.42"/>
<polygon fill="#63b8ff" stroke="#63b8ff" points="1559.23,-22.98 1548.75,-24.52 1557.91,-29.85 1559.23,-22.98"/>
</a>
</g>
</g>
<!-- Node13 -->
<g id="Node000013" class="node">
<title>Node13</title>
<g id="a_Node000013"><a xlink:title=" ">
<polygon fill="#e0e0e0" stroke="#999999" points="1682.5,-24.5 1590.5,-24.5 1590.5,-5.5 1682.5,-5.5 1682.5,-24.5"/>
<text text-anchor="middle" x="1636.5" y="-12.5" font-family="Helvetica,sans-Serif" font-size="10.00">android.util.Log</text>
</a>
</g>
</g>
<!-- Node1&#45;&gt;Node13 -->
<g id="edge92_Node000001_Node000013" class="edge">
<title>Node1&#45;&gt;Node13</title>
<g id="a_edge92_Node000001_Node000013"><a xlink:title=" ">
<path fill="none" stroke="#63b8ff" d="M2879.15,-94.21C2631.42,-87.3 1921.42,-64.91 1691.5,-30 1686.34,-29.22 1680.95,-28.16 1675.66,-26.97"/>
<polygon fill="#63b8ff" stroke="#63b8ff" points="1676.22,-23.5 1665.68,-24.57 1674.58,-30.31 1676.22,-23.5"/>
</a>
</g>
</g>
<!-- Node14 -->
<g id="Node000014" class="node">
<title>Node14</title>
<g id="a_Node000014"><a xlink:title=" ">
<polygon fill="#e0e0e0" stroke="#999999" points="1806.5,-24.5 1700.5,-24.5 1700.5,-5.5 1806.5,-5.5 1806.5,-24.5"/>
<text text-anchor="middle" x="1753.5" y="-12.5" font-family="Helvetica,sans-Serif" font-size="10.00">android.view.View</text>
</a>
</g>
</g>
<!-- Node1&#45;&gt;Node14 -->
<g id="edge93_Node000001_Node000014" class="edge">
<title>Node1&#45;&gt;Node14</title>
<g id="a_edge93_Node000001_Node000014"><a xlink:title=" ">
<path fill="none" stroke="#63b8ff" d="M2879.19,-96.34C2687.09,-94.92 2210.08,-85.57 1815.5,-30 1809.48,-29.15 1803.18,-28.02 1797,-26.77"/>
<polygon fill="#63b8ff" stroke="#63b8ff" points="1797.29,-23.25 1786.78,-24.57 1795.82,-30.09 1797.29,-23.25"/>
</a>
</g>
</g>
<!-- Node15 -->
<g id="Node000015" class="node">
<title>Node15</title>
<g id="a_Node000015"><a xlink:title=" ">
<polygon fill="#e0e0e0" stroke="#999999" points="1982,-24.5 1825,-24.5 1825,-5.5 1982,-5.5 1982,-24.5"/>
<text text-anchor="middle" x="1903.5" y="-12.5" font-family="Helvetica,sans-Serif" font-size="10.00">android.widget.ArrayAdapter</text>
</a>
</g>
</g>
<!-- Node1&#45;&gt;Node15 -->
<g id="edge94_Node000001_Node000015" class="edge">
<title>Node1&#45;&gt;Node15</title>
<g id="a_edge94_Node000001_Node000015"><a xlink:title=" ">
<path fill="none" stroke="#63b8ff" d="M2879.18,-93.27C2708.82,-86.3 2317.52,-67.38 1990.5,-30 1981.14,-28.93 1971.24,-27.56 1961.61,-26.11"/>
<polygon fill="#63b8ff" stroke="#63b8ff" points="1962.13,-22.64 1951.71,-24.56 1961.05,-29.56 1962.13,-22.64"/>
</a>
</g>
</g>
<!-- Node16 -->
<g id="Node000016" class="node">
<title>Node16</title>
<g id="a_Node000016"><a xlink:title=" ">
<polygon fill="#e0e0e0" stroke="#999999" points="2125,-24.5 2000,-24.5 2000,-5.5 2125,-5.5 2125,-24.5"/>
<text text-anchor="middle" x="2062.5" y="-12.5" font-family="Helvetica,sans-Serif" font-size="10.00">android.widget.Button</text>
</a>
</g>
</g>
<!-- Node1&#45;&gt;Node16 -->
<g id="edge95_Node000001_Node000016" class="edge">
<title>Node1&#45;&gt;Node16</title>
<g id="a_edge95_Node000001_Node000016"><a xlink:title=" ">
<path fill="none" stroke="#63b8ff" d="M2879.21,-92.88C2727.71,-85.78 2404.26,-67.39 2133.5,-30 2126.31,-29.01 2118.75,-27.75 2111.36,-26.4"/>
<polygon fill="#63b8ff" stroke="#63b8ff" points="2111.9,-22.94 2101.43,-24.51 2110.6,-29.82 2111.9,-22.94"/>
</a>
</g>
</g>
<!-- Node17 -->
<g id="Node000017" class="node">
<title>Node17</title>
<g id="a_Node000017"><a xlink:title=" ">
<polygon fill="#e0e0e0" stroke="#999999" points="2274,-24.5 2143,-24.5 2143,-5.5 2274,-5.5 2274,-24.5"/>
<text text-anchor="middle" x="2208.5" y="-12.5" font-family="Helvetica,sans-Serif" font-size="10.00">android.widget.EditText</text>
</a>
</g>
</g>
<!-- Node1&#45;&gt;Node17 -->
<g id="edge96_Node000001_Node000017" class="edge">
<title>Node1&#45;&gt;Node17</title>
<g id="a_edge96_Node000001_Node000017"><a xlink:title=" ">
<path fill="none" stroke="#63b8ff" d="M2879.35,-90.53C2749.69,-80.99 2496.84,-60.25 2283.5,-30 2276.11,-28.95 2268.35,-27.69 2260.73,-26.35"/>
<polygon fill="#63b8ff" stroke="#63b8ff" points="2261.3,-22.9 2250.83,-24.57 2260.05,-29.79 2261.3,-22.9"/>
</a>
</g>
</g>
<!-- Node18 -->
<g id="Node000018" class="node">
<title>Node18</title>
<g id="a_Node000018"><a xlink:title=" ">
<polygon fill="#e0e0e0" stroke="#999999" points="2448.5,-24.5 2292.5,-24.5 2292.5,-5.5 2448.5,-5.5 2448.5,-24.5"/>
<text text-anchor="middle" x="2370.5" y="-12.5" font-family="Helvetica,sans-Serif" font-size="10.00">android.widget.FrameLayout</text>
</a>
</g>
</g>
<!-- Node1&#45;&gt;Node18 -->
<g id="edge97_Node000001_Node000018" class="edge">
<title>Node1&#45;&gt;Node18</title>
<g id="a_edge97_Node000001_Node000018"><a xlink:title=" ">
<path fill="none" stroke="#63b8ff" d="M2879.1,-85.98C2777.94,-73.47 2605.37,-51.57 2457.5,-30 2449.23,-28.79 2440.53,-27.46 2431.96,-26.12"/>
<polygon fill="#63b8ff" stroke="#63b8ff" points="2432.41,-22.65 2421.99,-24.54 2431.32,-29.56 2432.41,-22.65"/>
</a>
</g>
</g>
<!-- Node19 -->
<g id="Node000019" class="node">
<title>Node19</title>
<g id="a_Node000019"><a xlink:title=" ">
<polygon fill="#e0e0e0" stroke="#999999" points="2622,-24.5 2467,-24.5 2467,-5.5 2622,-5.5 2622,-24.5"/>
<text text-anchor="middle" x="2544.5" y="-12.5" font-family="Helvetica,sans-Serif" font-size="10.00">android.widget.ImageButton</text>
</a>
</g>
</g>
<!-- Node1&#45;&gt;Node19 -->
<g id="edge98_Node000001_Node000019" class="edge">
<title>Node1&#45;&gt;Node19</title>
<g id="a_edge98_Node000001_Node000019"><a xlink:title=" ">
<path fill="none" stroke="#63b8ff" d="M2879.29,-80.02C2795.37,-63.97 2670.39,-40.07 2599.26,-26.47"/>
<polygon fill="#63b8ff" stroke="#63b8ff" points="2599.64,-22.98 2589.17,-24.54 2598.33,-29.86 2599.64,-22.98"/>
</a>
</g>
</g>
<!-- Node20 -->
<g id="Node000020" class="node">
<title>Node20</title>
<g id="a_Node000020"><a xlink:title=" ">
<polygon fill="#e0e0e0" stroke="#999999" points="2795,-24.5 2640,-24.5 2640,-5.5 2795,-5.5 2795,-24.5"/>
<text text-anchor="middle" x="2717.5" y="-12.5" font-family="Helvetica,sans-Serif" font-size="10.00">android.widget.LinearLayout</text>
</a>
</g>
</g>
<!-- Node1&#45;&gt;Node20 -->
<g id="edge99_Node000001_Node000020" class="edge">
<title>Node1&#45;&gt;Node20</title>
<g id="a_edge99_Node000001_Node000020"><a xlink:title=" ">
<path fill="none" stroke="#63b8ff" d="M2879.46,-68.57C2836.35,-54.58 2786.47,-38.39 2753.58,-27.71"/>
<polygon fill="#63b8ff" stroke="#63b8ff" points="2754.54,-24.34 2743.95,-24.59 2752.38,-31 2754.54,-24.34"/>
</a>
</g>
</g>
<!-- Node21 -->
<g id="Node000021" class="node">
<title>Node21</title>
<g id="a_Node000021"><a xlink:title=" ">
<polygon fill="#e0e0e0" stroke="#999999" points="2962,-24.5 2813,-24.5 2813,-5.5 2962,-5.5 2962,-24.5"/>
<text text-anchor="middle" x="2887.5" y="-12.5" font-family="Helvetica,sans-Serif" font-size="10.00">android.widget.SearchView</text>
</a>
</g>
</g>
<!-- Node1&#45;&gt;Node21 -->
<g id="edge100_Node000001_Node000021" class="edge">
<title>Node1&#45;&gt;Node21</title>
<g id="a_edge100_Node000001_Node000021"><a xlink:title=" ">
<path fill="none" stroke="#63b8ff" d="M2935.57,-65.61C2924.42,-54.11 2912.23,-41.53 2902.92,-31.91"/>
<polygon fill="#63b8ff" stroke="#63b8ff" points="2905.33,-29.37 2895.86,-24.62 2900.3,-34.24 2905.33,-29.37"/>
</a>
</g>
</g>
<!-- Node22 -->
<g id="Node000022" class="node">
<title>Node22</title>
<g id="a_Node000022"><a xlink:title=" ">
<polygon fill="#e0e0e0" stroke="#999999" points="3109,-24.5 2980,-24.5 2980,-5.5 3109,-5.5 3109,-24.5"/>
<text text-anchor="middle" x="3044.5" y="-12.5" font-family="Helvetica,sans-Serif" font-size="10.00">android.widget.Spinner</text>
</a>
</g>
</g>
<!-- Node1&#45;&gt;Node22 -->
<g id="edge101_Node000001_Node000022" class="edge">
<title>Node1&#45;&gt;Node22</title>
<g id="a_edge101_Node000001_Node000022"><a xlink:title=" ">
<path fill="none" stroke="#63b8ff" d="M2995.82,-65.61C3007.1,-54.11 3019.45,-41.53 3028.88,-31.91"/>
<polygon fill="#63b8ff" stroke="#63b8ff" points="3031.53,-34.21 3036.04,-24.62 3026.53,-29.31 3031.53,-34.21"/>
</a>
</g>
</g>
<!-- Node23 -->
<g id="Node000023" class="node">
<title>Node23</title>
<g id="a_Node000023"><a xlink:title=" ">
<polygon fill="#e0e0e0" stroke="#999999" points="3264,-24.5 3127,-24.5 3127,-5.5 3264,-5.5 3264,-24.5"/>
<text text-anchor="middle" x="3195.5" y="-12.5" font-family="Helvetica,sans-Serif" font-size="10.00">android.widget.TextView</text>
</a>
</g>
</g>
<!-- Node1&#45;&gt;Node23 -->
<g id="edge102_Node000001_Node000023" class="edge">
<title>Node1&#45;&gt;Node23</title>
<g id="a_edge102_Node000001_Node000023"><a xlink:title=" ">
<path fill="none" stroke="#63b8ff" d="M3051.8,-66.3C3090,-52.93 3132.71,-37.98 3161.56,-27.88"/>
<polygon fill="#63b8ff" stroke="#63b8ff" points="3162.88,-31.13 3171.16,-24.52 3160.57,-24.52 3162.88,-31.13"/>
</a>
</g>
</g>
<!-- Node24 -->
<g id="Node000024" class="node">
<title>Node24</title>
<g id="a_Node000024"><a xlink:title=" ">
<polygon fill="#e0e0e0" stroke="#999999" points="3400.5,-24.5 3282.5,-24.5 3282.5,-5.5 3400.5,-5.5 3400.5,-24.5"/>
<text text-anchor="middle" x="3341.5" y="-12.5" font-family="Helvetica,sans-Serif" font-size="10.00">android.widget.Toast</text>
</a>
</g>
</g>
<!-- Node1&#45;&gt;Node24 -->
<g id="edge103_Node000001_Node000024" class="edge">
<title>Node1&#45;&gt;Node24</title>
<g id="a_edge103_Node000001_Node000024"><a xlink:title=" ">
<path fill="none" stroke="#63b8ff" d="M3051.76,-78.03C3126.11,-62.11 3230.83,-39.69 3291.9,-26.62"/>
<polygon fill="#63b8ff" stroke="#63b8ff" points="3292.63,-30.04 3301.68,-24.53 3291.16,-23.2 3292.63,-30.04"/>
</a>
</g>
</g>
<!-- Node25 -->
<g id="Node000025" class="node">
<title>Node25</title>
<g id="a_Node000025"><a xlink:title=" ">
<polygon fill="#e0e0e0" stroke="#999999" points="3578.5,-30 3418.5,-30 3418.5,0 3578.5,0 3578.5,-30"/>
<text text-anchor="start" x="3426.5" y="-18" font-family="Helvetica,sans-Serif" font-size="10.00">androidx.appcompat.app.App</text>
<text text-anchor="middle" x="3498.5" y="-7" font-family="Helvetica,sans-Serif" font-size="10.00">CompatActivity</text>
</a>
</g>
</g>
<!-- Node1&#45;&gt;Node25 -->
<g id="edge104_Node000001_Node000025" class="edge">
<title>Node1&#45;&gt;Node25</title>
<g id="a_edge104_Node000001_Node000025"><a xlink:title=" ">
<path fill="none" stroke="#63b8ff" d="M3051.89,-83.75C3139.11,-70.84 3278,-50.16 3408.29,-30.18"/>
<polygon fill="#63b8ff" stroke="#63b8ff" points="3409.1,-33.6 3418.45,-28.62 3408.04,-26.68 3409.1,-33.6"/>
</a>
</g>
</g>
<!-- Node26 -->
<g id="Node000026" class="node">
<title>Node26</title>
<g id="a_Node000026"><a xlink:title=" ">
<polygon fill="#e0e0e0" stroke="#999999" points="3742,-30 3597,-30 3597,0 3742,0 3742,-30"/>
<text text-anchor="start" x="3605" y="-18" font-family="Helvetica,sans-Serif" font-size="10.00">androidx.cardview.widget.</text>
<text text-anchor="middle" x="3669.5" y="-7" font-family="Helvetica,sans-Serif" font-size="10.00">CardView</text>
</a>
</g>
</g>
<!-- Node1&#45;&gt;Node26 -->
<g id="edge105_Node000001_Node000026" class="edge">
<title>Node1&#45;&gt;Node26</title>
<g id="a_edge105_Node000001_Node000026"><a xlink:title=" ">
<path fill="none" stroke="#63b8ff" d="M3051.74,-89C3170.01,-78.33 3389.39,-57.16 3586.69,-30.06"/>
<polygon fill="#63b8ff" stroke="#63b8ff" points="3587.23,-33.52 3596.66,-28.68 3586.27,-26.58 3587.23,-33.52"/>
</a>
</g>
</g>
<!-- Node27 -->
<g id="Node000027" class="node">
<title>Node27</title>
<g id="a_Node000027"><a xlink:title=" ">
<polygon fill="#e0e0e0" stroke="#999999" points="3905,-30 3760,-30 3760,0 3905,0 3905,-30"/>
<text text-anchor="start" x="3768" y="-18" font-family="Helvetica,sans-Serif" font-size="10.00">androidx.core.app.Activity</text>
<text text-anchor="middle" x="3832.5" y="-7" font-family="Helvetica,sans-Serif" font-size="10.00">Compat</text>
</a>
</g>
</g>
<!-- Node1&#45;&gt;Node27 -->
<g id="edge106_Node000001_Node000027" class="edge">
<title>Node1&#45;&gt;Node27</title>
<g id="a_edge106_Node000001_Node000027"><a xlink:title=" ">
<path fill="none" stroke="#63b8ff" d="M3051.54,-91.67C3194.55,-83.1 3490.38,-63.08 3749.7,-30.17"/>
<polygon fill="#63b8ff" stroke="#63b8ff" points="3750.21,-33.63 3759.69,-28.89 3749.32,-26.69 3750.21,-33.63"/>
</a>
</g>
</g>
<!-- Node28 -->
<g id="Node000028" class="node">
<title>Node28</title>
<g id="a_Node000028"><a xlink:title=" ">
<polygon fill="#e0e0e0" stroke="#999999" points="4087.5,-30 3923.5,-30 3923.5,0 4087.5,0 4087.5,-30"/>
<text text-anchor="start" x="3931.5" y="-18" font-family="Helvetica,sans-Serif" font-size="10.00">androidx.core.content.Context</text>
<text text-anchor="middle" x="4005.5" y="-7" font-family="Helvetica,sans-Serif" font-size="10.00">Compat</text>
</a>
</g>
</g>
<!-- Node1&#45;&gt;Node28 -->
<g id="edge107_Node000001_Node000028" class="edge">
<title>Node1&#45;&gt;Node28</title>
<g id="a_edge107_Node000001_Node000028"><a xlink:title=" ">
<path fill="none" stroke="#63b8ff" d="M3051.75,-92.85C3216.99,-85.33 3589.76,-65.83 3913.17,-30.09"/>
<polygon fill="#63b8ff" stroke="#63b8ff" points="3913.65,-33.56 3923.2,-28.97 3912.88,-26.6 3913.65,-33.56"/>
</a>
</g>
</g>
<!-- Node29 -->
<g id="Node000029" class="node">
<title>Node29</title>
<g id="a_Node000029"><a xlink:title=" ">
<polygon fill="#e0e0e0" stroke="#999999" points="4281.5,-30 4105.5,-30 4105.5,0 4281.5,0 4281.5,-30"/>
<text text-anchor="start" x="4113.5" y="-18" font-family="Helvetica,sans-Serif" font-size="10.00">com.example.mybookshelf.apis.</text>
<text text-anchor="middle" x="4193.5" y="-7" font-family="Helvetica,sans-Serif" font-size="10.00">AiAPI</text>
</a>
</g>
</g>
<!-- Node1&#45;&gt;Node29 -->
<g id="edge108_Node000001_Node000029" class="edge">
<title>Node1&#45;&gt;Node29</title>
<g id="a_edge108_Node000001_Node000029"><a xlink:title=" ">
<path fill="none" stroke="#63b8ff" d="M3051.54,-93.93C3239.22,-87.77 3699.61,-69.74 4095.04,-30.09"/>
<polygon fill="#63b8ff" stroke="#63b8ff" points="4095.65,-33.55 4105.25,-29.06 4094.95,-26.58 4095.65,-33.55"/>
</a>
</g>
</g>
<!-- Node30 -->
<g id="Node000030" class="node">
<title>Node30</title>
<g id="a_Node000030"><a xlink:title=" ">
<polygon fill="#e0e0e0" stroke="#999999" points="4475.5,-30 4299.5,-30 4299.5,0 4475.5,0 4475.5,-30"/>
<text text-anchor="start" x="4307.5" y="-18" font-family="Helvetica,sans-Serif" font-size="10.00">com.example.mybookshelf.apis.</text>
<text text-anchor="middle" x="4387.5" y="-7" font-family="Helvetica,sans-Serif" font-size="10.00">BooksAPI</text>
</a>
</g>
</g>
<!-- Node1&#45;&gt;Node30 -->
<g id="edge109_Node000001_Node000030" class="edge">
<title>Node1&#45;&gt;Node30</title>
<g id="a_edge109_Node000001_Node000030"><a xlink:title=" ">
<path fill="none" stroke="#63b8ff" d="M3051.74,-94.95C3261.77,-90.58 3816.62,-75.43 4289.16,-30.07"/>
<polygon fill="#63b8ff" stroke="#63b8ff" points="4289.64,-33.54 4299.25,-29.09 4288.96,-26.57 4289.64,-33.54"/>
</a>
</g>
</g>
<!-- Node31 -->
<g id="Node000031" class="node">
<title>Node31</title>
<g id="a_Node000031"><a xlink:title=" ">
<polygon fill="#e0e0e0" stroke="#999999" points="4667.5,-30 4493.5,-30 4493.5,0 4667.5,0 4667.5,-30"/>
<text text-anchor="start" x="4501.5" y="-18" font-family="Helvetica,sans-Serif" font-size="10.00">com.example.mybookshelf.data</text>
<text text-anchor="middle" x="4580.5" y="-7" font-family="Helvetica,sans-Serif" font-size="10.00">Class.Book</text>
</a>
</g>
</g>
<!-- Node1&#45;&gt;Node31 -->
<g id="edge110_Node000001_Node000031" class="edge">
<title>Node1&#45;&gt;Node31</title>
<g id="a_edge110_Node000001_Node000031"><a xlink:title=" ">
<path fill="none" stroke="#63b8ff" d="M3051.78,-95.77C3282.47,-93.17 3932.84,-81.55 4483.3,-30.04"/>
<polygon fill="#63b8ff" stroke="#63b8ff" points="4483.8,-33.51 4493.43,-29.09 4483.14,-26.54 4483.8,-33.51"/>
</a>
</g>
</g>
<!-- Node32 -->
<g id="Node000032" class="node">
<title>Node32</title>
<g id="a_Node000032"><a xlink:title=" ">
<polygon fill="#e0e0e0" stroke="#999999" points="4859.5,-30 4685.5,-30 4685.5,0 4859.5,0 4859.5,-30"/>
<text text-anchor="start" x="4693.5" y="-18" font-family="Helvetica,sans-Serif" font-size="10.00">com.example.mybookshelf.data</text>
<text text-anchor="middle" x="4772.5" y="-7" font-family="Helvetica,sans-Serif" font-size="10.00">Class.User</text>
</a>
</g>
</g>
<!-- Node1&#45;&gt;Node32 -->
<g id="edge111_Node000001_Node000032" class="edge">
<title>Node1&#45;&gt;Node32</title>
<g id="a_edge111_Node000001_Node000032"><a xlink:title=" ">
<path fill="none" stroke="#63b8ff" d="M3051.61,-96.37C3301.29,-95.32 4047.16,-87.3 4675.26,-30.04"/>
<polygon fill="#63b8ff" stroke="#63b8ff" points="4675.79,-33.51 4685.43,-29.11 4675.15,-26.54 4675.79,-33.51"/>
</a>
</g>
</g>
<!-- Node33 -->
<g id="Node000033" class="node">
<title>Node33</title>
<g id="a_Node000033"><a xlink:title=" ">
<polygon fill="#e0e0e0" stroke="#999999" points="5093,-30 4878,-30 4878,0 5093,0 5093,-30"/>
<text text-anchor="start" x="4886" y="-18" font-family="Helvetica,sans-Serif" font-size="10.00">com.example.mybookshelf.notifications.</text>
<text text-anchor="middle" x="4985.5" y="-7" font-family="Helvetica,sans-Serif" font-size="10.00">NotificationChannelManager</text>
</a>
</g>
</g>
<!-- Node1&#45;&gt;Node33 -->
<g id="edge112_Node000001_Node000033" class="edge">
<title>Node1&#45;&gt;Node33</title>
<g id="a_edge112_Node000001_Node000033"><a xlink:title=" ">
<path fill="none" stroke="#63b8ff" d="M3051.94,-96.07C3319.96,-94.17 4160.86,-84.08 4867.66,-30.01"/>
<polygon fill="#63b8ff" stroke="#63b8ff" points="4868.09,-33.49 4877.79,-29.23 4867.55,-26.51 4868.09,-33.49"/>
</a>
</g>
</g>
<!-- Node34 -->
<g id="Node000034" class="node">
<title>Node34</title>
<g id="a_Node000034"><a xlink:title=" ">
<polygon fill="#e0e0e0" stroke="#999999" points="5236,-24.5 5111,-24.5 5111,-5.5 5236,-5.5 5236,-24.5"/>
<text text-anchor="middle" x="5173.5" y="-12.5" font-family="Helvetica,sans-Serif" font-size="10.00">java.sql.SQLException</text>
</a>
</g>
</g>
<!-- Node1&#45;&gt;Node34 -->
<g id="edge113_Node000001_Node000034" class="edge">
<title>Node1&#45;&gt;Node34</title>
<g id="a_edge113_Node000001_Node000034"><a xlink:title=" ">
<path fill="none" stroke="#63b8ff" d="M3051.56,-95.7C3398.45,-92.19 4694.95,-76.21 5102.5,-30 5110.22,-29.12 5118.36,-27.85 5126.26,-26.43"/>
<polygon fill="#63b8ff" stroke="#63b8ff" points="5126.92,-29.87 5136.09,-24.57 5125.62,-22.99 5126.92,-29.87"/>
</a>
</g>
</g>
<!-- Node35 -->
<g id="Node000035" class="node">
<title>Node35</title>
<g id="a_Node000035"><a xlink:title=" ">
<polygon fill="#e0e0e0" stroke="#999999" points="5369,-24.5 5254,-24.5 5254,-5.5 5369,-5.5 5369,-24.5"/>
<text text-anchor="middle" x="5311.5" y="-12.5" font-family="Helvetica,sans-Serif" font-size="10.00">java.time.LocalDate</text>
</a>
</g>
</g>
<!-- Node1&#45;&gt;Node35 -->
<g id="edge114_Node000001_Node000035" class="edge">
<title>Node1&#45;&gt;Node35</title>
<g id="a_edge114_Node000001_Node000035"><a xlink:title=" ">
<path fill="none" stroke="#63b8ff" d="M3051.76,-96.06C3413.41,-93.89 4808.81,-82.25 5245.5,-30 5252.45,-29.17 5259.76,-27.96 5266.88,-26.6"/>
<polygon fill="#63b8ff" stroke="#63b8ff" points="5268,-29.94 5277.1,-24.52 5266.6,-23.08 5268,-29.94"/>
</a>
</g>
</g>
<!-- Node36 -->
<g id="Node000036" class="node">
<title>Node36</title>
<g id="a_Node000036"><a xlink:title=" ">
<polygon fill="#e0e0e0" stroke="#999999" points="5503.5,-24.5 5387.5,-24.5 5387.5,-5.5 5503.5,-5.5 5503.5,-24.5"/>
<text text-anchor="middle" x="5445.5" y="-12.5" font-family="Helvetica,sans-Serif" font-size="10.00">java.time.LocalTime</text>
</a>
</g>
</g>
<!-- Node1&#45;&gt;Node36 -->
<g id="edge115_Node000001_Node000036" class="edge">
<title>Node1&#45;&gt;Node36</title>
<g id="a_edge115_Node000001_Node000036"><a xlink:title=" ">
<path fill="none" stroke="#63b8ff" d="M3051.69,-96.19C3426.19,-94.51 4914.14,-84.47 5378.5,-30 5385.72,-29.15 5393.32,-27.91 5400.7,-26.51"/>
<polygon fill="#63b8ff" stroke="#63b8ff" points="5401.46,-29.93 5410.57,-24.53 5400.08,-23.07 5401.46,-29.93"/>
</a>
</g>
</g>
<!-- Node37 -->
<g id="Node000037" class="node">
<title>Node37</title>
<g id="a_Node000037"><a xlink:title=" ">
<polygon fill="#e0e0e0" stroke="#999999" points="5625,-24.5 5522,-24.5 5522,-5.5 5625,-5.5 5625,-24.5"/>
<text text-anchor="middle" x="5573.5" y="-12.5" font-family="Helvetica,sans-Serif" font-size="10.00">java.util.ArrayList</text>
</a>
</g>
</g>
<!-- Node1&#45;&gt;Node37 -->
<g id="edge116_Node000001_Node000037" class="edge">
<title>Node1&#45;&gt;Node37</title>
<g id="a_edge116_Node000001_Node000037"><a xlink:title=" ">
<path fill="none" stroke="#63b8ff" d="M3051.58,-96.56C3438.7,-96.46 5020.86,-92.2 5512.5,-30 5518.8,-29.2 5525.39,-28.04 5531.83,-26.72"/>
<polygon fill="#63b8ff" stroke="#63b8ff" points="5532.72,-30.11 5541.74,-24.55 5531.22,-23.27 5532.72,-30.11"/>
</a>
</g>
</g>
<!-- Node38 -->
<g id="Node000038" class="node">
<title>Node38</title>
<g id="a_Node000038"><a xlink:title=" ">
<polygon fill="#e0e0e0" stroke="#999999" points="5720,-24.5 5643,-24.5 5643,-5.5 5720,-5.5 5720,-24.5"/>
<text text-anchor="middle" x="5681.5" y="-12.5" font-family="Helvetica,sans-Serif" font-size="10.00">java.util.List</text>
</a>
</g>
</g>
<!-- Node1&#45;&gt;Node38 -->
<g id="edge117_Node000001_Node000038" class="edge">
<title>Node1&#45;&gt;Node38</title>
<g id="a_edge117_Node000001_Node000038"><a xlink:title=" ">
<path fill="none" stroke="#63b8ff" d="M3051.55,-95.71C3480.22,-91.58 5374.92,-71.15 5634.5,-30 5638.76,-29.33 5643.17,-28.37 5647.51,-27.27"/>
<polygon fill="#63b8ff" stroke="#63b8ff" points="5648.7,-30.57 5657.39,-24.51 5646.82,-23.83 5648.7,-30.57"/>
</a>
</g>
</g>
<!-- Node39 -->
<g id="Node000039" class="node">
<title>Node39</title>
<g id="a_Node000039"><a xlink:title=" ">
<polygon fill="#e0e0e0" stroke="#999999" points="5899,-30 5738,-30 5738,0 5899,0 5899,-30"/>
<text text-anchor="start" x="5746" y="-18" font-family="Helvetica,sans-Serif" font-size="10.00">java.util.concurrent.Execution</text>
<text text-anchor="middle" x="5818.5" y="-7" font-family="Helvetica,sans-Serif" font-size="10.00">Exception</text>
</a>
</g>
</g>
<!-- Node1&#45;&gt;Node39 -->
<g id="edge118_Node000001_Node000039" class="edge">
<title>Node1&#45;&gt;Node39</title>
<g id="a_edge118_Node000001_Node000039"><a xlink:title=" ">
<path fill="none" stroke="#63b8ff" d="M3051.57,-95.96C3455.88,-93.19 5169.69,-78.81 5727.41,-30.1"/>
<polygon fill="#63b8ff" stroke="#63b8ff" points="5727.9,-33.57 5737.55,-29.2 5727.28,-26.6 5727.9,-33.57"/>
</a>
</g>
</g>
<!-- Node40 -->
<g id="Node000040" class="node">
<title>Node40</title>
<g id="a_Node000040"><a xlink:title=" ">
<polygon fill="#e0e0e0" stroke="#999999" points="6047.5,-24.5 5917.5,-24.5 5917.5,-5.5 6047.5,-5.5 6047.5,-24.5"/>
<text text-anchor="middle" x="5982.5" y="-12.5" font-family="Helvetica,sans-Serif" font-size="10.00">java.util.regex.Matcher</text>
</a>
</g>
</g>
<!-- Node1&#45;&gt;Node40 -->
<g id="edge119_Node000001_Node000040" class="edge">
<title>Node1&#45;&gt;Node40</title>
<g id="a_edge119_Node000001_Node000040"><a xlink:title=" ">
<path fill="none" stroke="#63b8ff" d="M3051.5,-96.47C3474.08,-96 5333.21,-90.5 5908.5,-30 5916.73,-29.13 5925.41,-27.84 5933.82,-26.39"/>
<polygon fill="#63b8ff" stroke="#63b8ff" points="5934.68,-29.79 5943.89,-24.55 5933.42,-22.9 5934.68,-29.79"/>
</a>
</g>
</g>
<!-- Node41 -->
<g id="Node000041" class="node">
<title>Node41</title>
<g id="a_Node000041"><a xlink:title=" ">
<polygon fill="#e0e0e0" stroke="#999999" points="6191,-24.5 6066,-24.5 6066,-5.5 6191,-5.5 6191,-24.5"/>
<text text-anchor="middle" x="6128.5" y="-12.5" font-family="Helvetica,sans-Serif" font-size="10.00">java.util.regex.Pattern</text>
</a>
</g>
</g>
<!-- Node1&#45;&gt;Node41 -->
<g id="edge120_Node000001_Node000041" class="edge">
<title>Node1&#45;&gt;Node41</title>
<g id="a_edge120_Node000001_Node000041"><a xlink:title=" ">
<path fill="none" stroke="#63b8ff" d="M3051.83,-96.63C3487.82,-97 5450.58,-94.95 6056.5,-30 6064.42,-29.15 6072.78,-27.88 6080.87,-26.44"/>
<polygon fill="#63b8ff" stroke="#63b8ff" points="6081.76,-29.84 6090.94,-24.56 6080.47,-22.96 6081.76,-29.84"/>
</a>
</g>
</g>
</g>
</svg>
