<?xml version="1.0" encoding="UTF-8" standalone="no"?>
<!DOCTYPE svg PUBLIC "-//W3C//DTD SVG 1.1//EN"
 "http://www.w3.org/Graphics/SVG/1.1/DTD/svg11.dtd">
<!-- Generated by graphviz version 2.43.0 (0)
 -->
<!-- Title: /app/doc_state/github_reposRepoArchDocGenContext/EliasSchaffer/MyBookShelf/src/main/java/com/example/mybookshelf/notifications/NotificationChannelManager.java Pages: 1 -->
<svg width="560pt" height="148pt"
 viewBox="0.00 0.00 559.50 148.00" xmlns="http://www.w3.org/2000/svg" xmlns:xlink="http://www.w3.org/1999/xlink">
<g id="graph0" class="graph" transform="scale(1 1) rotate(0) translate(4 144)">
<title>/app/doc_state/github_reposRepoArchDocGenContext/EliasSchaffer/MyBookShelf/src/main/java/com/example/mybookshelf/notifications/NotificationChannelManager.java</title>
<!-- Node1 -->
<g id="Node000001" class="node">
<title>Node1</title>
<g id="a_Node000001"><a xlink:title=" ">
<polygon fill="#999999" stroke="#666666" points="398,-140 192,-140 192,-66 398,-66 398,-140"/>
<text text-anchor="start" x="200" y="-128" font-family="Helvetica,sans-Serif" font-size="10.00">/app/doc_state/github</text>
<text text-anchor="start" x="200" y="-117" font-family="Helvetica,sans-Serif" font-size="10.00">_reposRepoArchDocGenContext</text>
<text text-anchor="start" x="200" y="-106" font-family="Helvetica,sans-Serif" font-size="10.00">/EliasSchaffer/MyBookShelf</text>
<text text-anchor="start" x="200" y="-95" font-family="Helvetica,sans-Serif" font-size="10.00">/src/main/java/com/example</text>
<text text-anchor="start" x="200" y="-84" font-family="Helvetica,sans-Serif" font-size="10.00">/mybookshelf/notifications/Notification</text>
<text text-anchor="middle" x="295" y="-73" font-family="Helvetica,sans-Serif" font-size="10.00">ChannelManager.java</text>
</a>
</g>
</g>
<!-- Node2 -->
<g id="Node000002" class="node">
<title>Node2</title>
<g id="a_Node000002"><a xlink:title=" ">
<polygon fill="#e0e0e0" stroke="#999999" points="134,-30 0,-30 0,0 134,0 134,-30"/>
<text text-anchor="start" x="8" y="-18" font-family="Helvetica,sans-Serif" font-size="10.00">android.app.Notification</text>
<text text-anchor="middle" x="67" y="-7" font-family="Helvetica,sans-Serif" font-size="10.00">Channel</text>
</a>
</g>
</g>
<!-- Node1&#45;&gt;Node2 -->
<g id="edge9_Node000001_Node000002" class="edge">
<title>Node1&#45;&gt;Node2</title>
<g id="a_edge9_Node000001_Node000002"><a xlink:title=" ">
<path fill="none" stroke="#63b8ff" d="M199.3,-65.9C169.71,-54.74 138.44,-42.95 113.73,-33.63"/>
<polygon fill="#63b8ff" stroke="#63b8ff" points="114.85,-30.31 104.26,-30.05 112.38,-36.86 114.85,-30.31"/>
</a>
</g>
</g>
<!-- Node3 -->
<g id="Node000003" class="node">
<title>Node3</title>
<g id="a_Node000003"><a xlink:title=" ">
<polygon fill="#e0e0e0" stroke="#999999" points="286,-30 152,-30 152,0 286,0 286,-30"/>
<text text-anchor="start" x="160" y="-18" font-family="Helvetica,sans-Serif" font-size="10.00">android.app.Notification</text>
<text text-anchor="middle" x="219" y="-7" font-family="Helvetica,sans-Serif" font-size="10.00">Manager</text>
</a>
</g>
</g>
<!-- Node1&#45;&gt;Node3 -->
<g id="edge10_Node000001_Node000003" class="edge">
<title>Node1&#45;&gt;Node3</title>
<g id="a_edge10_Node000001_Node000003"><a xlink:title=" ">
<path fill="none" stroke="#63b8ff" d="M262.77,-65.53C254.43,-56.09 245.71,-46.23 238.27,-37.81"/>
<polygon fill="#63b8ff" stroke="#63b8ff" points="240.83,-35.41 231.58,-30.24 235.58,-40.05 240.83,-35.41"/>
</a>
</g>
</g>
<!-- Node4 -->
<g id="Node000004" class="node">
<title>Node4</title>
<g id="a_Node000004"><a xlink:title=" ">
<polygon fill="#e0e0e0" stroke="#999999" points="438,-24.5 304,-24.5 304,-5.5 438,-5.5 438,-24.5"/>
<text text-anchor="middle" x="371" y="-12.5" font-family="Helvetica,sans-Serif" font-size="10.00">android.content.Context</text>
</a>
</g>
</g>
<!-- Node1&#45;&gt;Node4 -->
<g id="edge11_Node000001_Node000004" class="edge">
<title>Node1&#45;&gt;Node4</title>
<g id="a_edge11_Node000001_Node000004"><a xlink:title=" ">
<path fill="none" stroke="#63b8ff" d="M327.23,-65.53C337.39,-54.03 348.11,-41.9 356.4,-32.52"/>
<polygon fill="#63b8ff" stroke="#63b8ff" points="359.25,-34.59 363.25,-24.77 354,-29.95 359.25,-34.59"/>
</a>
</g>
</g>
<!-- Node5 -->
<g id="Node000005" class="node">
<title>Node5</title>
<g id="a_Node000005"><a xlink:title=" ">
<polygon fill="#e0e0e0" stroke="#999999" points="551.5,-24.5 456.5,-24.5 456.5,-5.5 551.5,-5.5 551.5,-24.5"/>
<text text-anchor="middle" x="504" y="-12.5" font-family="Helvetica,sans-Serif" font-size="10.00">android.os.Build</text>
</a>
</g>
</g>
<!-- Node1&#45;&gt;Node5 -->
<g id="edge12_Node000001_Node000005" class="edge">
<title>Node1&#45;&gt;Node5</title>
<g id="a_edge12_Node000001_Node000005"><a xlink:title=" ">
<path fill="none" stroke="#63b8ff" d="M382.73,-65.9C415.18,-52.55 449.85,-38.28 473.77,-28.44"/>
<polygon fill="#63b8ff" stroke="#63b8ff" points="475.41,-31.55 483.32,-24.51 472.74,-25.08 475.41,-31.55"/>
</a>
</g>
</g>
</g>
</svg>
