<?xml version="1.0" encoding="UTF-8" standalone="no"?>
<!DOCTYPE svg PUBLIC "-//W3C//DTD SVG 1.1//EN"
 "http://www.w3.org/Graphics/SVG/1.1/DTD/svg11.dtd">
<!-- Generated by graphviz version 2.43.0 (0)
 -->
<!-- Title: /app/doc_state/github_reposRepoArchDocGenContext/EliasSchaffer/MyBookShelf/src/main/java/com/example/mybookshelf/notifications/NotificationScheduler.java Pages: 1 -->
<svg width="2753pt" height="148pt"
 viewBox="0.00 0.00 2753.00 148.00" xmlns="http://www.w3.org/2000/svg" xmlns:xlink="http://www.w3.org/1999/xlink">
<g id="graph0" class="graph" transform="scale(1 1) rotate(0) translate(4 144)">
<title>/app/doc_state/github_reposRepoArchDocGenContext/EliasSchaffer/MyBookShelf/src/main/java/com/example/mybookshelf/notifications/NotificationScheduler.java</title>
<!-- Node1 -->
<g id="Node000001" class="node">
<title>Node1</title>
<g id="a_Node000001"><a xlink:title=" ">
<polygon fill="#999999" stroke="#666666" points="1525,-140 1319,-140 1319,-66 1525,-66 1525,-140"/>
<text text-anchor="start" x="1327" y="-128" font-family="Helvetica,sans-Serif" font-size="10.00">/app/doc_state/github</text>
<text text-anchor="start" x="1327" y="-117" font-family="Helvetica,sans-Serif" font-size="10.00">_reposRepoArchDocGenContext</text>
<text text-anchor="start" x="1327" y="-106" font-family="Helvetica,sans-Serif" font-size="10.00">/EliasSchaffer/MyBookShelf</text>
<text text-anchor="start" x="1327" y="-95" font-family="Helvetica,sans-Serif" font-size="10.00">/src/main/java/com/example</text>
<text text-anchor="start" x="1327" y="-84" font-family="Helvetica,sans-Serif" font-size="10.00">/mybookshelf/notifications/Notification</text>
<text text-anchor="middle" x="1422" y="-73" font-family="Helvetica,sans-Serif" font-size="10.00">Scheduler.java</text>
</a>
</g>
</g>
<!-- Node2 -->
<g id="Node000002" class="node">
<title>Node2</title>
<g id="a_Node000002"><a xlink:title=" ">
<polygon fill="#e0e0e0" stroke="#999999" points="174,-24.5 0,-24.5 0,-5.5 174,-5.5 174,-24.5"/>
<text text-anchor="middle" x="87" y="-12.5" font-family="Helvetica,sans-Serif" font-size="10.00">android.annotation.SuppressLint</text>
</a>
</g>
</g>
<!-- Node1&#45;&gt;Node2 -->
<g id="edge37_Node000001_Node000002" class="edge">
<title>Node1&#45;&gt;Node2</title>
<g id="a_edge37_Node000001_Node000002"><a xlink:title=" ">
<path fill="none" stroke="#63b8ff" d="M1318.96,-99.04C1106.22,-92.25 603.14,-72.76 183,-30 172.22,-28.9 160.8,-27.47 149.74,-25.95"/>
<polygon fill="#63b8ff" stroke="#63b8ff" points="150.11,-22.47 139.71,-24.53 149.12,-29.4 150.11,-22.47"/>
</a>
</g>
</g>
<!-- Node3 -->
<g id="Node000003" class="node">
<title>Node3</title>
<g id="a_Node000003"><a xlink:title=" ">
<polygon fill="#e0e0e0" stroke="#999999" points="341.5,-24.5 192.5,-24.5 192.5,-5.5 341.5,-5.5 341.5,-24.5"/>
<text text-anchor="middle" x="267" y="-12.5" font-family="Helvetica,sans-Serif" font-size="10.00">android.app.AlarmManager</text>
</a>
</g>
</g>
<!-- Node1&#45;&gt;Node3 -->
<g id="edge38_Node000001_Node000003" class="edge">
<title>Node1&#45;&gt;Node3</title>
<g id="a_edge38_Node000001_Node000003"><a xlink:title=" ">
<path fill="none" stroke="#63b8ff" d="M1318.95,-98.51C1127.52,-91.26 704.3,-71.67 350,-30 341.14,-28.96 331.79,-27.62 322.68,-26.18"/>
<polygon fill="#63b8ff" stroke="#63b8ff" points="322.98,-22.68 312.55,-24.53 321.85,-29.59 322.98,-22.68"/>
</a>
</g>
</g>
<!-- Node4 -->
<g id="Node000004" class="node">
<title>Node4</title>
<g id="a_Node000004"><a xlink:title=" ">
<polygon fill="#e0e0e0" stroke="#999999" points="504.5,-24.5 359.5,-24.5 359.5,-5.5 504.5,-5.5 504.5,-24.5"/>
<text text-anchor="middle" x="432" y="-12.5" font-family="Helvetica,sans-Serif" font-size="10.00">android.app.PendingIntent</text>
</a>
</g>
</g>
<!-- Node1&#45;&gt;Node4 -->
<g id="edge39_Node000001_Node000004" class="edge">
<title>Node1&#45;&gt;Node4</title>
<g id="a_edge39_Node000001_Node000004"><a xlink:title=" ">
<path fill="none" stroke="#63b8ff" d="M1318.88,-96.85C1150.14,-87.75 804.69,-66.27 514,-30 505.36,-28.92 496.24,-27.57 487.34,-26.15"/>
<polygon fill="#63b8ff" stroke="#63b8ff" points="487.87,-22.69 477.43,-24.51 486.73,-29.59 487.87,-22.69"/>
</a>
</g>
</g>
<!-- Node5 -->
<g id="Node000005" class="node">
<title>Node5</title>
<g id="a_Node000005"><a xlink:title=" ">
<polygon fill="#e0e0e0" stroke="#999999" points="657,-24.5 523,-24.5 523,-5.5 657,-5.5 657,-24.5"/>
<text text-anchor="middle" x="590" y="-12.5" font-family="Helvetica,sans-Serif" font-size="10.00">android.content.Context</text>
</a>
</g>
</g>
<!-- Node1&#45;&gt;Node5 -->
<g id="edge40_Node000001_Node000005" class="edge">
<title>Node1&#45;&gt;Node5</title>
<g id="a_edge40_Node000001_Node000005"><a xlink:title=" ">
<path fill="none" stroke="#63b8ff" d="M1318.95,-95.05C1173.13,-84.56 898.43,-62.41 666,-30 658.34,-28.93 650.27,-27.63 642.37,-26.27"/>
<polygon fill="#63b8ff" stroke="#63b8ff" points="642.96,-22.81 632.5,-24.51 641.73,-29.71 642.96,-22.81"/>
</a>
</g>
</g>
<!-- Node6 -->
<g id="Node000006" class="node">
<title>Node6</title>
<g id="a_Node000006"><a xlink:title=" ">
<polygon fill="#e0e0e0" stroke="#999999" points="800.5,-24.5 675.5,-24.5 675.5,-5.5 800.5,-5.5 800.5,-24.5"/>
<text text-anchor="middle" x="738" y="-12.5" font-family="Helvetica,sans-Serif" font-size="10.00">android.content.Intent</text>
</a>
</g>
</g>
<!-- Node1&#45;&gt;Node6 -->
<g id="edge41_Node000001_Node000006" class="edge">
<title>Node1&#45;&gt;Node6</title>
<g id="a_edge41_Node000001_Node000006"><a xlink:title=" ">
<path fill="none" stroke="#63b8ff" d="M1318.81,-92.24C1196.9,-80.17 988.12,-57.75 810,-30 803.24,-28.95 796.14,-27.72 789.15,-26.43"/>
<polygon fill="#63b8ff" stroke="#63b8ff" points="789.5,-22.94 779.03,-24.53 788.21,-29.82 789.5,-22.94"/>
</a>
</g>
</g>
<!-- Node7 -->
<g id="Node000007" class="node">
<title>Node7</title>
<g id="a_Node000007"><a xlink:title=" ">
<polygon fill="#e0e0e0" stroke="#999999" points="1007,-24.5 819,-24.5 819,-5.5 1007,-5.5 1007,-24.5"/>
<text text-anchor="middle" x="913" y="-12.5" font-family="Helvetica,sans-Serif" font-size="10.00">android.content.SharedPreferences</text>
</a>
</g>
</g>
<!-- Node1&#45;&gt;Node7 -->
<g id="edge42_Node000001_Node000007" class="edge">
<title>Node1&#45;&gt;Node7</title>
<g id="a_edge42_Node000001_Node000007"><a xlink:title=" ">
<path fill="none" stroke="#63b8ff" d="M1319,-84.6C1215.29,-67.08 1058.83,-40.64 973.59,-26.24"/>
<polygon fill="#63b8ff" stroke="#63b8ff" points="974,-22.76 963.56,-24.54 972.84,-29.66 974,-22.76"/>
</a>
</g>
</g>
<!-- Node8 -->
<g id="Node000008" class="node">
<title>Node8</title>
<g id="a_Node000008"><a xlink:title=" ">
<polygon fill="#e0e0e0" stroke="#999999" points="1120.5,-24.5 1025.5,-24.5 1025.5,-5.5 1120.5,-5.5 1120.5,-24.5"/>
<text text-anchor="middle" x="1073" y="-12.5" font-family="Helvetica,sans-Serif" font-size="10.00">android.os.Build</text>
</a>
</g>
</g>
<!-- Node1&#45;&gt;Node8 -->
<g id="edge43_Node000001_Node000008" class="edge">
<title>Node1&#45;&gt;Node8</title>
<g id="a_edge43_Node000001_Node000008"><a xlink:title=" ">
<path fill="none" stroke="#63b8ff" d="M1318.71,-76.55C1251.76,-60.05 1167.94,-39.4 1117.53,-26.97"/>
<polygon fill="#63b8ff" stroke="#63b8ff" points="1118.15,-23.52 1107.6,-24.53 1116.47,-30.32 1118.15,-23.52"/>
</a>
</g>
</g>
<!-- Node9 -->
<g id="Node000009" class="node">
<title>Node9</title>
<g id="a_Node000009"><a xlink:title=" ">
<polygon fill="#e0e0e0" stroke="#999999" points="1231,-24.5 1139,-24.5 1139,-5.5 1231,-5.5 1231,-24.5"/>
<text text-anchor="middle" x="1185" y="-12.5" font-family="Helvetica,sans-Serif" font-size="10.00">android.util.Log</text>
</a>
</g>
</g>
<!-- Node1&#45;&gt;Node9 -->
<g id="edge44_Node000001_Node000009" class="edge">
<title>Node1&#45;&gt;Node9</title>
<g id="a_edge44_Node000001_Node000009"><a xlink:title=" ">
<path fill="none" stroke="#63b8ff" d="M1322.52,-65.9C1285.23,-52.37 1245.36,-37.9 1218.2,-28.05"/>
<polygon fill="#63b8ff" stroke="#63b8ff" points="1219.04,-24.63 1208.45,-24.51 1216.65,-31.21 1219.04,-24.63"/>
</a>
</g>
</g>
<!-- Node10 -->
<g id="Node000010" class="node">
<title>Node10</title>
<g id="a_Node000010"><a xlink:title=" ">
<polygon fill="#e0e0e0" stroke="#999999" points="1413,-30 1249,-30 1249,0 1413,0 1413,-30"/>
<text text-anchor="start" x="1257" y="-18" font-family="Helvetica,sans-Serif" font-size="10.00">androidx.core.app.Notification</text>
<text text-anchor="middle" x="1331" y="-7" font-family="Helvetica,sans-Serif" font-size="10.00">Compat</text>
</a>
</g>
</g>
<!-- Node1&#45;&gt;Node10 -->
<g id="edge45_Node000001_Node000010" class="edge">
<title>Node1&#45;&gt;Node10</title>
<g id="a_edge45_Node000001_Node000010"><a xlink:title=" ">
<path fill="none" stroke="#63b8ff" d="M1383.67,-65.78C1373.45,-56.12 1362.74,-46 1353.66,-37.42"/>
<polygon fill="#63b8ff" stroke="#63b8ff" points="1355.83,-34.65 1346.16,-30.33 1351.02,-39.74 1355.83,-34.65"/>
</a>
</g>
</g>
<!-- Node11 -->
<g id="Node000011" class="node">
<title>Node11</title>
<g id="a_Node000011"><a xlink:title=" ">
<polygon fill="#e0e0e0" stroke="#999999" points="1595,-30 1431,-30 1431,0 1595,0 1595,-30"/>
<text text-anchor="start" x="1439" y="-18" font-family="Helvetica,sans-Serif" font-size="10.00">androidx.core.app.Notification</text>
<text text-anchor="middle" x="1513" y="-7" font-family="Helvetica,sans-Serif" font-size="10.00">ManagerCompat</text>
</a>
</g>
</g>
<!-- Node1&#45;&gt;Node11 -->
<g id="edge46_Node000001_Node000011" class="edge">
<title>Node1&#45;&gt;Node11</title>
<g id="a_edge46_Node000001_Node000011"><a xlink:title=" ">
<path fill="none" stroke="#63b8ff" d="M1460.33,-65.78C1470.55,-56.12 1481.26,-46 1490.34,-37.42"/>
<polygon fill="#63b8ff" stroke="#63b8ff" points="1492.98,-39.74 1497.84,-30.33 1488.17,-34.65 1492.98,-39.74"/>
</a>
</g>
</g>
<!-- Node12 -->
<g id="Node000012" class="node">
<title>Node12</title>
<g id="a_Node000012"><a xlink:title=" ">
<polygon fill="#e0e0e0" stroke="#999999" points="1772.5,-24.5 1613.5,-24.5 1613.5,-5.5 1772.5,-5.5 1772.5,-24.5"/>
<text text-anchor="middle" x="1693" y="-12.5" font-family="Helvetica,sans-Serif" font-size="10.00">com.example.mybookshelf.R</text>
</a>
</g>
</g>
<!-- Node1&#45;&gt;Node12 -->
<g id="edge47_Node000001_Node000012" class="edge">
<title>Node1&#45;&gt;Node12</title>
<g id="a_edge47_Node000001_Node000012"><a xlink:title=" ">
<path fill="none" stroke="#63b8ff" d="M1525.23,-69.24C1571.32,-54.62 1622.69,-38.31 1656.3,-27.65"/>
<polygon fill="#63b8ff" stroke="#63b8ff" points="1657.66,-30.89 1666.14,-24.52 1655.55,-24.21 1657.66,-30.89"/>
</a>
</g>
</g>
<!-- Node13 -->
<g id="Node000013" class="node">
<title>Node13</title>
<g id="a_Node000013"><a xlink:title=" ">
<polygon fill="#e0e0e0" stroke="#999999" points="1965,-30 1791,-30 1791,0 1965,0 1965,-30"/>
<text text-anchor="start" x="1799" y="-18" font-family="Helvetica,sans-Serif" font-size="10.00">com.example.mybookshelf.data</text>
<text text-anchor="middle" x="1878" y="-7" font-family="Helvetica,sans-Serif" font-size="10.00">Class.Goal</text>
</a>
</g>
</g>
<!-- Node1&#45;&gt;Node13 -->
<g id="edge48_Node000001_Node000013" class="edge">
<title>Node1&#45;&gt;Node13</title>
<g id="a_edge48_Node000001_Node000013"><a xlink:title=" ">
<path fill="none" stroke="#63b8ff" d="M1525.19,-82.54C1606.28,-67.25 1717.81,-46.21 1793.62,-31.91"/>
<polygon fill="#63b8ff" stroke="#63b8ff" points="1794.43,-35.32 1803.6,-30.03 1793.13,-28.44 1794.43,-35.32"/>
</a>
</g>
</g>
<!-- Node14 -->
<g id="Node000014" class="node">
<title>Node14</title>
<g id="a_Node000014"><a xlink:title=" ">
<polygon fill="#e0e0e0" stroke="#999999" points="2123,-24.5 1983,-24.5 1983,-5.5 2123,-5.5 2123,-24.5"/>
<text text-anchor="middle" x="2053" y="-12.5" font-family="Helvetica,sans-Serif" font-size="10.00">java.time.LocalDateTime</text>
</a>
</g>
</g>
<!-- Node1&#45;&gt;Node14 -->
<g id="edge49_Node000001_Node000014" class="edge">
<title>Node1&#45;&gt;Node14</title>
<g id="a_edge49_Node000001_Node000014"><a xlink:title=" ">
<path fill="none" stroke="#63b8ff" d="M1525.21,-89.97C1636.25,-76.69 1817.94,-53.99 1974,-30 1981.37,-28.87 1989.11,-27.6 1996.75,-26.29"/>
<polygon fill="#63b8ff" stroke="#63b8ff" points="1997.43,-29.73 2006.69,-24.57 1996.24,-22.83 1997.43,-29.73"/>
</a>
</g>
</g>
<!-- Node15 -->
<g id="Node000015" class="node">
<title>Node15</title>
<g id="a_Node000015"><a xlink:title=" ">
<polygon fill="#e0e0e0" stroke="#999999" points="2241,-24.5 2141,-24.5 2141,-5.5 2241,-5.5 2241,-24.5"/>
<text text-anchor="middle" x="2191" y="-12.5" font-family="Helvetica,sans-Serif" font-size="10.00">java.time.ZoneId</text>
</a>
</g>
</g>
<!-- Node1&#45;&gt;Node15 -->
<g id="edge50_Node000001_Node000015" class="edge">
<title>Node1&#45;&gt;Node15</title>
<g id="a_edge50_Node000001_Node000015"><a xlink:title=" ">
<path fill="none" stroke="#63b8ff" d="M1525.16,-95.82C1663.84,-86.54 1917.74,-66.12 2132,-30 2137.39,-29.09 2143.01,-27.98 2148.56,-26.78"/>
<polygon fill="#63b8ff" stroke="#63b8ff" points="2149.41,-30.17 2158.39,-24.55 2147.86,-23.35 2149.41,-30.17"/>
</a>
</g>
</g>
<!-- Node16 -->
<g id="Node000016" class="node">
<title>Node16</title>
<g id="a_Node000016"><a xlink:title=" ">
<polygon fill="#e0e0e0" stroke="#999999" points="2404.5,-24.5 2259.5,-24.5 2259.5,-5.5 2404.5,-5.5 2404.5,-24.5"/>
<text text-anchor="middle" x="2332" y="-12.5" font-family="Helvetica,sans-Serif" font-size="10.00">java.time.ZonedDateTime</text>
</a>
</g>
</g>
<!-- Node1&#45;&gt;Node16 -->
<g id="edge51_Node000001_Node000016" class="edge">
<title>Node1&#45;&gt;Node16</title>
<g id="a_edge51_Node000001_Node000016"><a xlink:title=" ">
<path fill="none" stroke="#63b8ff" d="M1525.24,-95.77C1682.19,-85.67 1990.07,-63.43 2250,-30 2258.44,-28.91 2267.34,-27.59 2276.05,-26.19"/>
<polygon fill="#63b8ff" stroke="#63b8ff" points="2276.83,-29.6 2286.13,-24.52 2275.69,-22.7 2276.83,-29.6"/>
</a>
</g>
</g>
<!-- Node17 -->
<g id="Node000017" class="node">
<title>Node17</title>
<g id="a_Node000017"><a xlink:title=" ">
<polygon fill="#e0e0e0" stroke="#999999" points="2525.5,-24.5 2422.5,-24.5 2422.5,-5.5 2525.5,-5.5 2525.5,-24.5"/>
<text text-anchor="middle" x="2474" y="-12.5" font-family="Helvetica,sans-Serif" font-size="10.00">java.util.Calendar</text>
</a>
</g>
</g>
<!-- Node1&#45;&gt;Node17 -->
<g id="edge52_Node000001_Node000017" class="edge">
<title>Node1&#45;&gt;Node17</title>
<g id="a_edge52_Node000001_Node000017"><a xlink:title=" ">
<path fill="none" stroke="#63b8ff" d="M1525.05,-99.83C1705.95,-94.85 2091.99,-78.94 2414,-30 2419.76,-29.12 2425.78,-27.99 2431.7,-26.74"/>
<polygon fill="#63b8ff" stroke="#63b8ff" points="2432.48,-30.15 2441.48,-24.57 2430.96,-23.32 2432.48,-30.15"/>
</a>
</g>
</g>
<!-- Node18 -->
<g id="Node000018" class="node">
<title>Node18</title>
<g id="a_Node000018"><a xlink:title=" ">
<polygon fill="#e0e0e0" stroke="#999999" points="2626.5,-24.5 2543.5,-24.5 2543.5,-5.5 2626.5,-5.5 2626.5,-24.5"/>
<text text-anchor="middle" x="2585" y="-12.5" font-family="Helvetica,sans-Serif" font-size="10.00">java.util.Date</text>
</a>
</g>
</g>
<!-- Node1&#45;&gt;Node18 -->
<g id="edge53_Node000001_Node000018" class="edge">
<title>Node1&#45;&gt;Node18</title>
<g id="a_edge53_Node000001_Node000018"><a xlink:title=" ">
<path fill="none" stroke="#63b8ff" d="M1525.26,-102.47C1722.81,-101.79 2167.32,-92.66 2535,-30 2539.47,-29.24 2544.11,-28.24 2548.69,-27.12"/>
<polygon fill="#63b8ff" stroke="#63b8ff" points="2549.73,-30.46 2558.51,-24.53 2547.94,-23.69 2549.73,-30.46"/>
</a>
</g>
</g>
<!-- Node19 -->
<g id="Node000019" class="node">
<title>Node19</title>
<g id="a_Node000019"><a xlink:title=" ">
<polygon fill="#e0e0e0" stroke="#999999" points="2745,-24.5 2645,-24.5 2645,-5.5 2745,-5.5 2745,-24.5"/>
<text text-anchor="middle" x="2695" y="-12.5" font-family="Helvetica,sans-Serif" font-size="10.00">java.util.Random</text>
</a>
</g>
</g>
<!-- Node1&#45;&gt;Node19 -->
<g id="edge54_Node000001_Node000019" class="edge">
<title>Node1&#45;&gt;Node19</title>
<g id="a_edge54_Node000001_Node000019"><a xlink:title=" ">
<path fill="none" stroke="#63b8ff" d="M1525.34,-101.9C1735.61,-100.38 2227.89,-90.06 2636,-30 2641.8,-29.15 2647.88,-28 2653.83,-26.73"/>
<polygon fill="#63b8ff" stroke="#63b8ff" points="2654.68,-30.13 2663.66,-24.5 2653.13,-23.3 2654.68,-30.13"/>
</a>
</g>
</g>
</g>
</svg>
