<?xml version="1.0" encoding="UTF-8" standalone="no"?>
<!DOCTYPE svg PUBLIC "-//W3C//DTD SVG 1.1//EN"
 "http://www.w3.org/Graphics/SVG/1.1/DTD/svg11.dtd">
<!-- Generated by graphviz version 2.43.0 (0)
 -->
<!-- Title: /app/doc_state/github_reposRepoArchDocGenContext/EliasSchaffer/MyBookShelf/src/main/java/com/example/mybookshelf/dataClass/User.java Pages: 1 -->
<svg width="2858pt" height="137pt"
 viewBox="0.00 0.00 2857.50 137.00" xmlns="http://www.w3.org/2000/svg" xmlns:xlink="http://www.w3.org/1999/xlink">
<g id="graph0" class="graph" transform="scale(1 1) rotate(0) translate(4 133)">
<title>/app/doc_state/github_reposRepoArchDocGenContext/EliasSchaffer/MyBookShelf/src/main/java/com/example/mybookshelf/dataClass/User.java</title>
<!-- Node1 -->
<g id="Node000001" class="node">
<title>Node1</title>
<g id="a_Node000001"><a xlink:title=" ">
<polygon fill="#999999" stroke="#666666" points="1591.5,-129 1408.5,-129 1408.5,-66 1591.5,-66 1591.5,-129"/>
<text text-anchor="start" x="1416.5" y="-117" font-family="Helvetica,sans-Serif" font-size="10.00">/app/doc_state/github</text>
<text text-anchor="start" x="1416.5" y="-106" font-family="Helvetica,sans-Serif" font-size="10.00">_reposRepoArchDocGenContext</text>
<text text-anchor="start" x="1416.5" y="-95" font-family="Helvetica,sans-Serif" font-size="10.00">/EliasSchaffer/MyBookShelf</text>
<text text-anchor="start" x="1416.5" y="-84" font-family="Helvetica,sans-Serif" font-size="10.00">/src/main/java/com/example</text>
<text text-anchor="middle" x="1500" y="-73" font-family="Helvetica,sans-Serif" font-size="10.00">/mybookshelf/dataClass/User.java</text>
</a>
</g>
</g>
<!-- Node2 -->
<g id="Node000002" class="node">
<title>Node2</title>
<g id="a_Node000002"><a xlink:title=" ">
<polygon fill="#e0e0e0" stroke="#999999" points="174,-24.5 0,-24.5 0,-5.5 174,-5.5 174,-24.5"/>
<text text-anchor="middle" x="87" y="-12.5" font-family="Helvetica,sans-Serif" font-size="10.00">android.annotation.SuppressLint</text>
</a>
</g>
</g>
<!-- Node1&#45;&gt;Node2 -->
<g id="edge39_Node000001_Node000002" class="edge">
<title>Node1&#45;&gt;Node2</title>
<g id="a_edge39_Node000001_Node000002"><a xlink:title=" ">
<path fill="none" stroke="#63b8ff" d="M1408.37,-94.85C1193.73,-90.33 641.83,-74.94 183,-30 172.09,-28.93 160.52,-27.5 149.34,-25.96"/>
<polygon fill="#63b8ff" stroke="#63b8ff" points="149.6,-22.46 139.21,-24.53 148.62,-29.4 149.6,-22.46"/>
</a>
</g>
</g>
<!-- Node3 -->
<g id="Node000003" class="node">
<title>Node3</title>
<g id="a_Node000003"><a xlink:title=" ">
<polygon fill="#e0e0e0" stroke="#999999" points="326,-24.5 192,-24.5 192,-5.5 326,-5.5 326,-24.5"/>
<text text-anchor="middle" x="259" y="-12.5" font-family="Helvetica,sans-Serif" font-size="10.00">android.content.Context</text>
</a>
</g>
</g>
<!-- Node1&#45;&gt;Node3 -->
<g id="edge40_Node000001_Node000003" class="edge">
<title>Node1&#45;&gt;Node3</title>
<g id="a_edge40_Node000001_Node000003"><a xlink:title=" ">
<path fill="none" stroke="#63b8ff" d="M1408.28,-95.16C1211.16,-91.43 732.75,-77.8 335,-30 326.86,-29.02 318.27,-27.71 309.91,-26.28"/>
<polygon fill="#63b8ff" stroke="#63b8ff" points="310.34,-22.81 299.88,-24.5 309.11,-29.7 310.34,-22.81"/>
</a>
</g>
</g>
<!-- Node4 -->
<g id="Node000004" class="node">
<title>Node4</title>
<g id="a_Node000004"><a xlink:title=" ">
<polygon fill="#e0e0e0" stroke="#999999" points="436,-24.5 344,-24.5 344,-5.5 436,-5.5 436,-24.5"/>
<text text-anchor="middle" x="390" y="-12.5" font-family="Helvetica,sans-Serif" font-size="10.00">android.util.Log</text>
</a>
</g>
</g>
<!-- Node1&#45;&gt;Node4 -->
<g id="edge41_Node000001_Node000004" class="edge">
<title>Node1&#45;&gt;Node4</title>
<g id="a_edge41_Node000001_Node000004"><a xlink:title=" ">
<path fill="none" stroke="#63b8ff" d="M1408.35,-96.44C1224.51,-95.07 798.07,-85.57 445,-30 439.84,-29.19 434.46,-28.11 429.17,-26.92"/>
<polygon fill="#63b8ff" stroke="#63b8ff" points="429.73,-23.45 419.19,-24.51 428.09,-30.26 429.73,-23.45"/>
</a>
</g>
</g>
<!-- Node5 -->
<g id="Node000005" class="node">
<title>Node5</title>
<g id="a_Node000005"><a xlink:title=" ">
<polygon fill="#e0e0e0" stroke="#999999" points="560,-24.5 454,-24.5 454,-5.5 560,-5.5 560,-24.5"/>
<text text-anchor="middle" x="507" y="-12.5" font-family="Helvetica,sans-Serif" font-size="10.00">android.view.View</text>
</a>
</g>
</g>
<!-- Node1&#45;&gt;Node5 -->
<g id="edge42_Node000001_Node000005" class="edge">
<title>Node1&#45;&gt;Node5</title>
<g id="a_edge42_Node000001_Node000005"><a xlink:title=" ">
<path fill="none" stroke="#63b8ff" d="M1408.32,-94.53C1240.8,-89.91 874.38,-75.12 569,-30 563.06,-29.12 556.84,-27.98 550.72,-26.74"/>
<polygon fill="#63b8ff" stroke="#63b8ff" points="551.13,-23.24 540.61,-24.56 549.65,-30.09 551.13,-23.24"/>
</a>
</g>
</g>
<!-- Node6 -->
<g id="Node000006" class="node">
<title>Node6</title>
<g id="a_Node000006"><a xlink:title=" ">
<polygon fill="#e0e0e0" stroke="#999999" points="733.5,-24.5 578.5,-24.5 578.5,-5.5 733.5,-5.5 733.5,-24.5"/>
<text text-anchor="middle" x="656" y="-12.5" font-family="Helvetica,sans-Serif" font-size="10.00">android.widget.LinearLayout</text>
</a>
</g>
</g>
<!-- Node1&#45;&gt;Node6 -->
<g id="edge43_Node000001_Node000006" class="edge">
<title>Node1&#45;&gt;Node6</title>
<g id="a_edge43_Node000001_Node000006"><a xlink:title=" ">
<path fill="none" stroke="#63b8ff" d="M1408.3,-90.58C1265.69,-80.9 982.26,-59.72 743,-30 733.97,-28.88 724.44,-27.52 715.13,-26.1"/>
<polygon fill="#63b8ff" stroke="#63b8ff" points="715.56,-22.63 705.14,-24.54 714.48,-29.54 715.56,-22.63"/>
</a>
</g>
</g>
<!-- Node7 -->
<g id="Node000007" class="node">
<title>Node7</title>
<g id="a_Node000007"><a xlink:title=" ">
<polygon fill="#e0e0e0" stroke="#999999" points="918,-24.5 752,-24.5 752,-5.5 918,-5.5 918,-24.5"/>
<text text-anchor="middle" x="835" y="-12.5" font-family="Helvetica,sans-Serif" font-size="10.00">android.widget.RelativeLayout</text>
</a>
</g>
</g>
<!-- Node1&#45;&gt;Node7 -->
<g id="edge44_Node000001_Node000007" class="edge">
<title>Node1&#45;&gt;Node7</title>
<g id="a_edge44_Node000001_Node000007"><a xlink:title=" ">
<path fill="none" stroke="#63b8ff" d="M1408.08,-86.85C1294.79,-74.72 1096.48,-52.72 927,-30 917.95,-28.79 908.4,-27.43 899.03,-26.04"/>
<polygon fill="#63b8ff" stroke="#63b8ff" points="899.36,-22.55 888.95,-24.54 898.33,-29.48 899.36,-22.55"/>
</a>
</g>
</g>
<!-- Node8 -->
<g id="Node000008" class="node">
<title>Node8</title>
<g id="a_Node000008"><a xlink:title=" ">
<polygon fill="#e0e0e0" stroke="#999999" points="1054,-24.5 936,-24.5 936,-5.5 1054,-5.5 1054,-24.5"/>
<text text-anchor="middle" x="995" y="-12.5" font-family="Helvetica,sans-Serif" font-size="10.00">android.widget.Toast</text>
</a>
</g>
</g>
<!-- Node1&#45;&gt;Node8 -->
<g id="edge45_Node000001_Node000008" class="edge">
<title>Node1&#45;&gt;Node8</title>
<g id="a_edge45_Node000001_Node000008"><a xlink:title=" ">
<path fill="none" stroke="#63b8ff" d="M1408.12,-83.94C1319.53,-71.49 1181.79,-51.25 1063,-30 1057.15,-28.95 1051.03,-27.79 1044.96,-26.59"/>
<polygon fill="#63b8ff" stroke="#63b8ff" points="1045.34,-23.1 1034.85,-24.56 1043.96,-29.96 1045.34,-23.1"/>
</a>
</g>
</g>
<!-- Node9 -->
<g id="Node000009" class="node">
<title>Node9</title>
<g id="a_Node000009"><a xlink:title=" ">
<polygon fill="#e0e0e0" stroke="#999999" points="1235.5,-30 1072.5,-30 1072.5,0 1235.5,0 1235.5,-30"/>
<text text-anchor="start" x="1080.5" y="-18" font-family="Helvetica,sans-Serif" font-size="10.00">androidx.recyclerview.widget.</text>
<text text-anchor="middle" x="1154" y="-7" font-family="Helvetica,sans-Serif" font-size="10.00">RecyclerView</text>
</a>
</g>
</g>
<!-- Node1&#45;&gt;Node9 -->
<g id="edge46_Node000001_Node000009" class="edge">
<title>Node1&#45;&gt;Node9</title>
<g id="a_edge46_Node000001_Node000009"><a xlink:title=" ">
<path fill="none" stroke="#63b8ff" d="M1408.19,-75.14C1350.54,-61.73 1277.34,-44.7 1224.31,-32.36"/>
<polygon fill="#63b8ff" stroke="#63b8ff" points="1224.85,-28.89 1214.32,-30.03 1223.27,-35.71 1224.85,-28.89"/>
</a>
</g>
</g>
<!-- Node10 -->
<g id="Node000010" class="node">
<title>Node10</title>
<g id="a_Node000010"><a xlink:title=" ">
<polygon fill="#e0e0e0" stroke="#999999" points="1406,-30 1254,-30 1254,0 1406,0 1406,-30"/>
<text text-anchor="start" x="1262" y="-18" font-family="Helvetica,sans-Serif" font-size="10.00">com.example.mybookshelf.</text>
<text text-anchor="middle" x="1330" y="-7" font-family="Helvetica,sans-Serif" font-size="10.00">DataBaseConnection</text>
</a>
</g>
</g>
<!-- Node1&#45;&gt;Node10 -->
<g id="edge47_Node000001_Node000010" class="edge">
<title>Node1&#45;&gt;Node10</title>
<g id="a_edge47_Node000001_Node000010"><a xlink:title=" ">
<path fill="none" stroke="#63b8ff" d="M1435.25,-65.84C1412.99,-55.3 1388.77,-43.83 1369.18,-34.55"/>
<polygon fill="#63b8ff" stroke="#63b8ff" points="1370.5,-31.3 1359.96,-30.19 1367.5,-37.63 1370.5,-31.3"/>
</a>
</g>
</g>
<!-- Node11 -->
<g id="Node000011" class="node">
<title>Node11</title>
<g id="a_Node000011"><a xlink:title=" ">
<polygon fill="#e0e0e0" stroke="#999999" points="1576,-30 1424,-30 1424,0 1576,0 1576,-30"/>
<text text-anchor="start" x="1432" y="-18" font-family="Helvetica,sans-Serif" font-size="10.00">com.example.mybookshelf.</text>
<text text-anchor="middle" x="1500" y="-7" font-family="Helvetica,sans-Serif" font-size="10.00">MainActivity</text>
</a>
</g>
</g>
<!-- Node1&#45;&gt;Node11 -->
<g id="edge48_Node000001_Node000011" class="edge">
<title>Node1&#45;&gt;Node11</title>
<g id="a_edge48_Node000001_Node000011"><a xlink:title=" ">
<path fill="none" stroke="#63b8ff" d="M1500,-65.61C1500,-57.19 1500,-48.2 1500,-40.22"/>
<polygon fill="#63b8ff" stroke="#63b8ff" points="1503.5,-40.1 1500,-30.1 1496.5,-40.1 1503.5,-40.1"/>
</a>
</g>
</g>
<!-- Node12 -->
<g id="Node000012" class="node">
<title>Node12</title>
<g id="a_Node000012"><a xlink:title=" ">
<polygon fill="#e0e0e0" stroke="#999999" points="1809.5,-30 1594.5,-30 1594.5,0 1809.5,0 1809.5,-30"/>
<text text-anchor="start" x="1602.5" y="-18" font-family="Helvetica,sans-Serif" font-size="10.00">com.example.mybookshelf.notifications.</text>
<text text-anchor="middle" x="1702" y="-7" font-family="Helvetica,sans-Serif" font-size="10.00">NotificationScheduler</text>
</a>
</g>
</g>
<!-- Node1&#45;&gt;Node12 -->
<g id="edge49_Node000001_Node000012" class="edge">
<title>Node1&#45;&gt;Node12</title>
<g id="a_edge49_Node000001_Node000012"><a xlink:title=" ">
<path fill="none" stroke="#63b8ff" d="M1576.66,-65.95C1603.93,-55.08 1633.71,-43.21 1657.41,-33.77"/>
<polygon fill="#63b8ff" stroke="#63b8ff" points="1658.84,-36.97 1666.83,-30.02 1656.24,-30.47 1658.84,-36.97"/>
</a>
</g>
</g>
<!-- Node13 -->
<g id="Node000013" class="node">
<title>Node13</title>
<g id="a_Node000013"><a xlink:title=" ">
<polygon fill="#e0e0e0" stroke="#999999" points="1942.5,-24.5 1827.5,-24.5 1827.5,-5.5 1942.5,-5.5 1942.5,-24.5"/>
<text text-anchor="middle" x="1885" y="-12.5" font-family="Helvetica,sans-Serif" font-size="10.00">java.time.LocalDate</text>
</a>
</g>
</g>
<!-- Node1&#45;&gt;Node13 -->
<g id="edge50_Node000001_Node000013" class="edge">
<title>Node1&#45;&gt;Node13</title>
<g id="a_edge50_Node000001_Node000013"><a xlink:title=" ">
<path fill="none" stroke="#63b8ff" d="M1591.8,-77.45C1655.56,-64.2 1742.46,-46.1 1819,-30 1824.1,-28.93 1829.42,-27.81 1834.73,-26.68"/>
<polygon fill="#63b8ff" stroke="#63b8ff" points="1835.81,-30.03 1844.87,-24.54 1834.36,-23.18 1835.81,-30.03"/>
</a>
</g>
</g>
<!-- Node14 -->
<g id="Node000014" class="node">
<title>Node14</title>
<g id="a_Node000014"><a xlink:title=" ">
<polygon fill="#e0e0e0" stroke="#999999" points="2101,-24.5 1961,-24.5 1961,-5.5 2101,-5.5 2101,-24.5"/>
<text text-anchor="middle" x="2031" y="-12.5" font-family="Helvetica,sans-Serif" font-size="10.00">java.time.LocalDateTime</text>
</a>
</g>
</g>
<!-- Node1&#45;&gt;Node14 -->
<g id="edge51_Node000001_Node000014" class="edge">
<title>Node1&#45;&gt;Node14</title>
<g id="a_edge51_Node000001_Node000014"><a xlink:title=" ">
<path fill="none" stroke="#63b8ff" d="M1591.89,-83.79C1683.3,-70.95 1827.51,-50.18 1952,-30 1959.18,-28.84 1966.73,-27.56 1974.18,-26.27"/>
<polygon fill="#63b8ff" stroke="#63b8ff" points="1975,-29.68 1984.25,-24.52 1973.8,-22.79 1975,-29.68"/>
</a>
</g>
</g>
<!-- Node15 -->
<g id="Node000015" class="node">
<title>Node15</title>
<g id="a_Node000015"><a xlink:title=" ">
<polygon fill="#e0e0e0" stroke="#999999" points="2222.5,-24.5 2119.5,-24.5 2119.5,-5.5 2222.5,-5.5 2222.5,-24.5"/>
<text text-anchor="middle" x="2171" y="-12.5" font-family="Helvetica,sans-Serif" font-size="10.00">java.util.ArrayList</text>
</a>
</g>
</g>
<!-- Node1&#45;&gt;Node15 -->
<g id="edge52_Node000001_Node000015" class="edge">
<title>Node1&#45;&gt;Node15</title>
<g id="a_edge52_Node000001_Node000015"><a xlink:title=" ">
<path fill="none" stroke="#63b8ff" d="M1591.66,-89.87C1711.41,-80.44 1927.35,-60.81 2110,-30 2115.49,-29.07 2121.23,-27.96 2126.89,-26.76"/>
<polygon fill="#63b8ff" stroke="#63b8ff" points="2127.93,-30.12 2136.94,-24.56 2126.42,-23.28 2127.93,-30.12"/>
</a>
</g>
</g>
<!-- Node16 -->
<g id="Node000016" class="node">
<title>Node16</title>
<g id="a_Node000016"><a xlink:title=" ">
<polygon fill="#e0e0e0" stroke="#999999" points="2335.5,-24.5 2240.5,-24.5 2240.5,-5.5 2335.5,-5.5 2335.5,-24.5"/>
<text text-anchor="middle" x="2288" y="-12.5" font-family="Helvetica,sans-Serif" font-size="10.00">java.util.Iterator</text>
</a>
</g>
</g>
<!-- Node1&#45;&gt;Node16 -->
<g id="edge53_Node000001_Node000016" class="edge">
<title>Node1&#45;&gt;Node16</title>
<g id="a_edge53_Node000001_Node000016"><a xlink:title=" ">
<path fill="none" stroke="#63b8ff" d="M1591.59,-92.72C1730.77,-85.96 2003.49,-68.71 2232,-30 2237.06,-29.14 2242.33,-28.07 2247.53,-26.9"/>
<polygon fill="#63b8ff" stroke="#63b8ff" points="2248.45,-30.28 2257.37,-24.56 2246.83,-23.47 2248.45,-30.28"/>
</a>
</g>
</g>
<!-- Node17 -->
<g id="Node000017" class="node">
<title>Node17</title>
<g id="a_Node000017"><a xlink:title=" ">
<polygon fill="#e0e0e0" stroke="#999999" points="2462,-24.5 2354,-24.5 2354,-5.5 2462,-5.5 2462,-24.5"/>
<text text-anchor="middle" x="2408" y="-12.5" font-family="Helvetica,sans-Serif" font-size="10.00">java.util.LinkedList</text>
</a>
</g>
</g>
<!-- Node1&#45;&gt;Node17 -->
<g id="edge54_Node000001_Node000017" class="edge">
<title>Node1&#45;&gt;Node17</title>
<g id="a_edge54_Node000001_Node000017"><a xlink:title=" ">
<path fill="none" stroke="#63b8ff" d="M1591.76,-93.49C1747.42,-87.45 2072.85,-70.74 2345,-30 2351.18,-29.07 2357.66,-27.89 2364.01,-26.6"/>
<polygon fill="#63b8ff" stroke="#63b8ff" points="2364.78,-30.01 2373.83,-24.51 2363.32,-23.17 2364.78,-30.01"/>
</a>
</g>
</g>
<!-- Node18 -->
<g id="Node000018" class="node">
<title>Node18</title>
<g id="a_Node000018"><a xlink:title=" ">
<polygon fill="#e0e0e0" stroke="#999999" points="2557.5,-24.5 2480.5,-24.5 2480.5,-5.5 2557.5,-5.5 2557.5,-24.5"/>
<text text-anchor="middle" x="2519" y="-12.5" font-family="Helvetica,sans-Serif" font-size="10.00">java.util.List</text>
</a>
</g>
</g>
<!-- Node1&#45;&gt;Node18 -->
<g id="edge55_Node000001_Node000018" class="edge">
<title>Node1&#45;&gt;Node18</title>
<g id="a_edge55_Node000001_Node000018"><a xlink:title=" ">
<path fill="none" stroke="#63b8ff" d="M1591.83,-96.77C1765.11,-95.82 2151.59,-86.83 2471,-30 2475.18,-29.26 2479.52,-28.28 2483.8,-27.2"/>
<polygon fill="#63b8ff" stroke="#63b8ff" points="2484.87,-30.54 2493.58,-24.52 2483.01,-23.79 2484.87,-30.54"/>
</a>
</g>
</g>
<!-- Node19 -->
<g id="Node000019" class="node">
<title>Node19</title>
<g id="a_Node000019"><a xlink:title=" ">
<polygon fill="#e0e0e0" stroke="#999999" points="2670.5,-24.5 2575.5,-24.5 2575.5,-5.5 2670.5,-5.5 2670.5,-24.5"/>
<text text-anchor="middle" x="2623" y="-12.5" font-family="Helvetica,sans-Serif" font-size="10.00">java.util.TreeSet</text>
</a>
</g>
</g>
<!-- Node1&#45;&gt;Node19 -->
<g id="edge56_Node000001_Node000019" class="edge">
<title>Node1&#45;&gt;Node19</title>
<g id="a_edge56_Node000001_Node000019"><a xlink:title=" ">
<path fill="none" stroke="#63b8ff" d="M1591.6,-96.41C1776.91,-94.99 2209.11,-85.41 2567,-30 2572.38,-29.17 2578.01,-28.06 2583.53,-26.82"/>
<polygon fill="#63b8ff" stroke="#63b8ff" points="2584.35,-30.22 2593.27,-24.5 2582.73,-23.41 2584.35,-30.22"/>
</a>
</g>
</g>
<!-- Node20 -->
<g id="Node000020" class="node">
<title>Node20</title>
<g id="a_Node000020"><a xlink:title=" ">
<polygon fill="#e0e0e0" stroke="#999999" points="2849.5,-30 2688.5,-30 2688.5,0 2849.5,0 2849.5,-30"/>
<text text-anchor="start" x="2696.5" y="-18" font-family="Helvetica,sans-Serif" font-size="10.00">java.util.concurrent.Execution</text>
<text text-anchor="middle" x="2769" y="-7" font-family="Helvetica,sans-Serif" font-size="10.00">Exception</text>
</a>
</g>
</g>
<!-- Node1&#45;&gt;Node20 -->
<g id="edge57_Node000001_Node000020" class="edge">
<title>Node1&#45;&gt;Node20</title>
<g id="a_edge57_Node000001_Node000020"><a xlink:title=" ">
<path fill="none" stroke="#63b8ff" d="M1591.68,-94.45C1788.85,-89.35 2267.96,-73.34 2678.06,-30.14"/>
<polygon fill="#63b8ff" stroke="#63b8ff" points="2678.46,-33.62 2688.04,-29.09 2677.73,-26.66 2678.46,-33.62"/>
</a>
</g>
</g>
</g>
</svg>
